<svg xmlns="http://www.w3.org/2000/svg" viewBox="0 0 360 432" role="img">
<path stroke="#1a1a1a" stroke-width="1.51" stroke-linecap="round" fill="none" d="M190.2 44.6h.01M64.8 354.7h.01M215.5 53.9h.01M162.0 77.0h.01M289.5 396.0h.01M136.6 428.6h.01M129.9 412.1h.01M47.2 370.5h.01M121.9 428.0h.01M0.4 279.1h.01M85.4 380.2h.01M163.2 47.6h.01M78.7 351.3h.01M190.8 70.8h.01M140.1 414.2h.01M208.5 50.5h.01M304.8 385.2h.01M77.8 373.5h.01M289.7 405.2h.01M150.8 76.5h.01M102.6 424.5h.01M145.3 83.8h.01M220.1 68.0h.01M160.4 428.0h.01M32.0 362.5h.01M62.8 345.8h.01M299.7 395.1h.01M189.5 62.8h.01M62.5 396.7h.01M44.5 378.9h.01M231.9 111.6h.01M227.2 60.1h.01M130.8 420.9h.01M200.7 66.1h.01M178.1 46.2h.01M144.3 421.4h.01M290.7 161.1h.01M150.6 43.3h.01M161.3 39.1h.01M150.1 55.1h.01M206.0 58.5h.01M199.2 73.7h.01M50.4 345.9h.01M113.4 409.1h.01M190.6 52.6h.01M294.5 374.7h.01M181.4 68.2h.01M194.5 38.8h.01M154.4 420.3h.01M142.7 66.7h.01M175.5 75.7h.01M197.3 58.3h.01M86.5 342.7h.01M38.0 371.7h.01M181.8 57.1h.01M91.4 418.8h.01M137.0 75.1h.01M135.9 85.0h.01M55.9 390.3h.01M172.3 37.8h.01M65.1 369.6h.01M122.2 406.7h.01M149.9 428.7h.01M107.6 400.6h.01M183.9 37.9h.01M95.3 325.2h.01M81.9 412.6h.01M0.4 114.3h.01M273.5 359.5h.01M284.8 366.4h.01M56.6 340.0h.01M169.6 429.0h.01M213.0 63.2h.01M63.7 333.9h.01M199.6 49.5h.01M248.2 130.2h.01M76.1 365.3h.01M184.4 77.8h.01M70.8 406.1h.01M168.2 67.8h.01M119.4 417.6h.01"/>
<path stroke="#1a1a1a" stroke-width="1.93" stroke-linecap="round" fill="none" d="M250.7 375.1h.01M136.0 0.4h.01M254.8 194.7h.01M243.4 385.0h.01M229.2 68.4h.01M273.1 211.7h.01M71.2 397.1h.01M235.1 212.3h.01M216.1 96.3h.01M188.8 86.4h.01M177.4 82.7h.01M126.3 60.7h.01M150.0 413.6h.01M241.3 133.8h.01M262.3 193.7h.01M86.5 405.4h.01M246.1 79.1h.01M254.2 77.7h.01M75.7 390.5h.01M358.6 132.1h.01M281.2 199.4h.01M216.7 125.4h.01M235.6 200.7h.01M189.0 139.9h.01M0.4 155.4h.01M193.2 134.3h.01M270.9 415.3h.01M237.3 139.0h.01M156.8 85.9h.01M0.4 194.6h.01M242.4 93.6h.01M113.3 70.4h.01M218.4 165.2h.01M242.6 223.0h.01M166.8 222.4h.01M51.1 355.8h.01M183.8 399.6h.01M97.4 369.6h.01M291.1 211.7h.01M192.6 404.7h.01M214.7 141.9h.01M208.4 71.0h.01M92.5 342.8h.01M209.6 103.0h.01M281.1 402.2h.01M204.9 130.5h.01M128.5 91.9h.01M279.6 385.3h.01M240.6 269.3h.01M239.9 73.8h.01M41.6 358.4h.01M218.0 46.5h.01M96.6 348.3h.01M182.5 89.1h.01M240.2 124.9h.01M246.1 86.3h.01M272.2 404.1h.01M196.1 110.4h.01M150.0 91.1h.01M272.5 198.7h.01M221.5 175.5h.01M294.9 386.5h.01M231.6 206.3h.01M177.4 134.9h.01M226.6 187.1h.01M174.9 89.0h.01M96.2 376.5h.01M248.3 138.4h.01M247.4 112.0h.01M179.1 428.8h.01M184.2 423.9h.01M79.4 396.2h.01M93.8 334.7h.01M72.4 329.9h.01M204.8 87.3h.01M284.9 207.0h.01M93.6 410.1h.01M245.5 427.8h.01M186.9 96.0h.01M277.2 204.8h.01M182.8 112.3h.01M270.1 86.4h.01M234.5 61.7h.01M237.2 87.3h.01M65.5 376.6h.01M227.7 200.8h.01M88.2 349.9h.01M260.5 124.6h.01M229.4 181.1h.01M223.6 76.1h.01M214.5 117.5h.01M193.7 96.2h.01M109.3 418.0h.01M220.4 59.2h.01M226.5 194.0h.01M142.7 97.5h.01M261.6 418.9h.01M239.9 107.4h.01M239.8 67.0h.01M199.9 103.0h.01M199.9 136.8h.01M63.9 387.9h.01M192.8 79.1h.01M255.1 128.2h.01M173.9 423.4h.01M248.0 121.0h.01M158.9 219.7h.01M171.6 131.7h.01M96.1 311.1h.01M220.5 102.7h.01M254.2 207.1h.01M90.8 0.4h.01M213.5 133.4h.01M278.0 376.5h.01M229.3 138.6h.01M145.7 407.0h.01M247.7 194.6h.01M70.5 381.9h.01M168.3 421.1h.01M232.9 194.4h.01M69.9 389.5h.01M122.1 397.1h.01M180.5 0.4h.01M45.5 351.7h.01M179.1 397.2h.01M228.8 102.4h.01M202.6 79.6h.01M178.8 421.9h.01M137.5 406.3h.01M178.3 107.9h.01M148.1 209.1h.01M280.5 212.0h.01M136.3 58.3h.01M247.7 288.2h.01M207.7 138.1h.01M89.9 327.0h.01M114.9 77.3h.01M234.3 225.1h.01M191.5 121.6h.01M92.2 355.8h.01M266.2 199.1h.01M232.3 130.1h.01M170.9 93.7h.01M264.6 129.1h.01M129.4 402.5h.01M301.6 195.0h.01M250.5 93.4h.01M176.6 118.6h.01M189.5 105.0h.01M299.9 213.3h.01M222.8 169.4h.01M237.1 80.4h.01M236.1 181.2h.01M251.3 218.7h.01M171.1 218.1h.01M240.3 295.9h.01M300.6 185.4h.01M258.0 275.0h.01M247.8 71.1h.01M259.5 211.4h.01M130.3 66.8h.01M358.6 263.8h.01M228.1 84.6h.01M270.8 421.4h.01M56.2 350.7h.01M228.4 212.3h.01M197.2 118.0h.01M86.2 397.9h.01M254.3 85.3h.01M214.2 109.3h.01M233.4 53.3h.01M130.0 51.4h.01M82.4 389.2h.01M92.9 396.0h.01M224.8 125.5h.01M100.5 362.9h.01M224.1 206.4h.01M163.5 92.3h.01M302.4 204.8h.01M161.7 419.5h.01M148.7 215.6h.01M153.2 406.8h.01M100.2 396.4h.01M98.2 340.6h.01M239.3 428.2h.01M273.2 384.1h.01M268.7 134.5h.01M232.9 187.0h.01M270.9 378.0h.01M186.5 404.6h.01M280.9 219.4h.01M168.0 85.7h.01M54.2 376.9h.01M215.9 75.4h.01M223.0 110.3h.01M258.9 200.3h.01M239.3 206.2h.01M251.6 428.0h.01M142.8 91.4h.01M120.9 67.6h.01M240.1 195.8h.01M221.7 133.0h.01M188.6 127.9h.01M281.3 393.3h.01M182.4 102.1h.01M219.6 84.2h.01M157.0 94.2h.01M264.7 410.9h.01M262.8 205.5h.01M264.8 425.3h.01M242.1 212.4h.01M235.7 394.4h.01M154.9 212.4h.01M246.0 101.5h.01M254.5 110.6h.01M112.7 426.3h.01M71.6 337.3h.01M224.2 117.6h.01M358.6 197.5h.01M196.5 86.9h.01M270.0 205.2h.01M129.3 98.8h.01M198.0 126.9h.01M254.8 118.5h.01M89.0 389.5h.01M113.7 62.5h.01M113.1 393.0h.01M174.6 100.9h.01M105.9 68.4h.01M238.1 189.6h.01M258.1 427.1h.01M79.1 403.0h.01M92.1 363.1h.01M286.5 216.1h.01M105.3 368.3h.01M173.7 207.7h.01M163.2 215.2h.01M265.8 183.0h.01M227.0 224.6h.01M184.6 133.7h.01M178.5 95.6h.01M121.8 88.7h.01M238.1 218.5h.01M140.2 47.5h.01M100.1 405.4h.01M124.5 74.6h.01M183.6 120.3h.01M193.8 410.5h.01M225.7 218.3h.01M115.5 400.9h.01M204.6 118.3h.01M105.2 410.5h.01M210.7 80.6h.01M213.4 88.9h.01M189.2 410.0h.01M231.9 93.0h.01M258.5 92.1h.01M84.6 366.3h.01M289.6 201.9h.01M259.9 74.3h.01M278.3 416.4h.01M59.8 382.1h.01M255.3 136.8h.01M239.8 115.8h.01M223.8 180.3h.01M205.1 110.4h.01M97.6 389.1h.01M202.6 41.8h.01M263.8 80.1h.01M78.0 382.2h.01M128.1 82.2h.01M210.6 43.3h.01M0.4 234.7h.01M231.4 219.1h.01M266.0 212.3h.01M158.6 412.0h.01M208.0 94.9h.01M56.3 369.9h.01M225.3 50.3h.01M254.4 68.2h.01M169.1 212.2h.01M189.5 113.8h.01M236.7 100.3h.01M99.3 356.1h.01M241.0 57.9h.01M89.1 372.5h.01M50.6 384.5h.01M244.5 200.7h.01M93.4 318.9h.01M288.2 386.8h.01M234.3 400.3h.01M232.4 120.9h.01M274.7 218.3h.01M247.8 62.8h.01M93.3 382.1h.01M231.6 75.6h.01M225.0 0.4h.01M261.5 134.7h.01M248.9 382.4h.01M230.5 270.0h.01M223.5 92.9h.01M251.9 201.0h.01M271.4 371.6h.01M226.8 174.3h.01M105.5 391.0h.01M100.0 415.7h.01M83.7 357.9h.01M200.7 94.7h.01M255.6 281.2h.01M120.5 56.6h.01M269.7 0.4h.01"/>
<path stroke="#1a1a1a" stroke-width="2.40" stroke-linecap="round" fill="none" d="M236.7 423.3h.01M81.3 98.6h.01M266.6 92.6h.01M289.6 287.3h.01M136.0 212.4h.01M279.7 281.4h.01M161.5 106.4h.01M231.0 411.9h.01M73.1 132.5h.01M213.7 299.9h.01M124.5 356.9h.01M169.9 388.9h.01M221.1 154.9h.01M277.3 368.8h.01M115.4 371.1h.01M261.6 392.7h.01M195.1 142.8h.01M217.6 269.5h.01M163.9 399.2h.01M255.3 236.1h.01M170.4 228.4h.01M120.3 390.5h.01M208.2 124.6h.01M151.4 104.8h.01M101.6 382.7h.01M284.7 278.9h.01M221.3 160.4h.01M76.8 110.5h.01M155.6 225.1h.01M130.6 382.7h.01M115.6 385.1h.01M277.2 100.2h.01M189.0 180.6h.01M135.7 94.3h.01M274.2 93.4h.01M169.1 403.0h.01M156.2 101.1h.01M185.6 207.2h.01M273.2 142.4h.01M255.8 269.4h.01M284.6 283.9h.01M88.2 86.1h.01M296.4 166.6h.01M237.7 303.3h.01M161.9 141.0h.01M220.9 194.1h.01M99.2 329.6h.01M103.2 344.6h.01M225.6 427.9h.01M265.4 159.3h.01M275.1 228.9h.01M93.8 89.6h.01M178.7 219.5h.01M137.4 388.2h.01M214.2 162.6h.01M293.3 195.7h.01M269.0 218.6h.01M167.0 140.9h.01M111.1 365.7h.01M173.6 416.3h.01M299.1 253.0h.01M265.2 382.3h.01M167.9 98.9h.01M151.2 110.0h.01M153.4 390.0h.01M288.3 254.0h.01M180.2 403.8h.01M282.9 293.5h.01M297.8 260.3h.01M273.7 107.6h.01M73.7 119.9h.01M147.6 390.5h.01M255.9 98.8h.01M162.8 117.1h.01M294.3 240.3h.01M261.6 281.8h.01M75.8 344.4h.01M262.4 86.2h.01M284.2 230.3h.01M190.3 199.0h.01M222.9 212.6h.01M266.3 176.6h.01M158.9 389.0h.01M246.3 178.6h.01M212.3 154.7h.01M152.6 400.4h.01M99.9 83.3h.01M286.9 149.7h.01M190.9 205.4h.01M280.7 183.1h.01M173.2 195.1h.01M98.5 313.7h.01M77.2 116.1h.01M294.1 184.6h.01M264.6 246.7h.01M173.7 112.8h.01M222.9 274.5h.01M164.3 407.6h.01M93.4 402.9h.01M264.4 276.5h.01M247.7 225.3h.01M185.4 184.5h.01M250.3 268.1h.01M210.5 387.5h.01M174.7 200.8h.01M253.2 420.7h.01M161.8 99.7h.01M246.3 206.6h.01M221.0 183.9h.01M299.9 221.6h.01M126.1 387.6h.01M249.8 236.5h.01M126.8 378.9h.01M74.1 126.6h.01M136.4 383.1h.01M233.1 279.4h.01M182.6 212.5h.01M273.8 390.9h.01M198.9 147.7h.01M162.2 112.2h.01M281.6 134.7h.01M250.7 178.0h.01M157.3 118.1h.01M261.6 178.9h.01M189.3 399.6h.01M263.0 98.7h.01M239.8 403.3h.01M114.4 85.7h.01M234.1 144.4h.01M271.9 130.8h.01M273.5 120.3h.01M278.4 292.4h.01M174.0 395.2h.01M276.3 125.4h.01M246.2 396.8h.01M276.9 262.1h.01M222.3 299.7h.01M174.6 401.3h.01M221.3 220.6h.01M179.6 205.9h.01M252.5 292.7h.01M248.1 369.8h.01M170.7 410.0h.01M289.0 166.3h.01M171.9 139.0h.01M217.5 178.5h.01M278.2 268.1h.01M174.0 224.0h.01M201.9 142.8h.01M213.2 168.4h.01M285.8 143.8h.01M287.1 264.7h.01M241.6 182.7h.01M162.8 226.3h.01M244.2 188.2h.01M185.6 196.3h.01M251.7 230.2h.01M231.0 392.6h.01M107.4 83.6h.01M141.5 395.0h.01M229.9 405.1h.01M285.3 122.5h.01M276.7 273.0h.01M275.2 410.1h.01M119.9 367.7h.01M218.5 209.2h.01M129.7 203.5h.01M159.0 403.2h.01M249.6 357.9h.01M293.6 278.8h.01M235.1 292.0h.01M70.3 148.1h.01M127.5 208.7h.01M207.9 144.3h.01M152.7 219.6h.01M292.6 263.1h.01M185.6 189.1h.01M280.0 141.5h.01M122.0 383.4h.01M128.5 373.2h.01M93.5 96.9h.01M165.2 127.9h.01M283.2 374.4h.01M177.1 141.8h.01M88.4 101.4h.01M165.1 207.4h.01M288.0 259.2h.01M295.0 226.1h.01M112.7 358.1h.01M244.0 377.8h.01M213.2 207.6h.01M175.6 407.4h.01M265.2 362.6h.01M272.6 183.9h.01M250.8 300.3h.01M130.5 105.4h.01M126.7 198.5h.01M280.5 287.4h.01M137.4 217.5h.01M295.5 207.1h.01M234.0 417.8h.01M245.7 271.6h.01M262.1 349.8h.01M228.1 278.3h.01M192.5 416.5h.01M290.7 283.0h.01M237.9 389.0h.01M234.9 298.7h.01M128.2 394.5h.01M166.3 414.3h.01M281.5 126.9h.01M161.3 122.7h.01M220.1 405.3h.01M256.7 360.6h.01M216.6 150.6h.01M152.9 135.5h.01M279.0 111.7h.01M281.2 162.7h.01M264.3 218.7h.01M109.3 346.7h.01M261.6 386.8h.01M234.4 274.4h.01M226.0 159.6h.01M236.0 407.5h.01M299.6 243.9h.01M270.6 256.6h.01M273.3 114.8h.01M106.5 76.5h.01M176.5 191.7h.01M178.5 412.3h.01M142.1 214.0h.01M287.2 170.3h.01M167.1 110.7h.01M299.3 237.4h.01M253.4 224.7h.01M101.5 90.0h.01M259.9 241.8h.01M168.7 116.6h.01M260.7 234.9h.01M99.4 96.3h.01M102.4 102.1h.01M111.3 98.2h.01M290.0 228.7h.01M110.1 373.3h.01M251.1 275.1h.01M287.7 155.2h.01M158.9 137.2h.01M258.2 248.1h.01M49.4 174.3h.01M144.4 400.8h.01M294.0 273.6h.01M257.0 230.3h.01M264.8 376.2h.01M176.3 213.4h.01M257.6 354.5h.01M121.4 377.9h.01M159.7 208.7h.01M263.6 270.5h.01M182.3 193.2h.01M211.2 148.5h.01M279.9 192.3h.01M221.5 189.1h.01M154.2 204.8h.01M165.5 135.2h.01M237.7 413.0h.01M247.1 389.9h.01M238.2 280.2h.01M122.1 95.8h.01M228.7 398.0h.01M182.3 140.3h.01M252.2 104.6h.01M195.2 183.7h.01M271.5 365.2h.01M256.3 179.9h.01M193.8 177.9h.01M290.4 190.1h.01M179.1 185.0h.01M103.4 350.2h.01M292.2 172.8h.01M285.1 289.1h.01M163.2 384.8h.01M86.2 331.3h.01M177.6 178.9h.01M244.0 364.7h.01M282.2 256.2h.01M227.8 153.9h.01M290.4 179.0h.01M157.9 395.8h.01M93.5 80.8h.01M189.7 192.4h.01M242.2 392.2h.01M240.5 289.5h.01M146.4 103.2h.01M214.6 387.0h.01M246.2 421.4h.01M232.1 175.8h.01M221.0 199.2h.01M289.5 278.5h.01M134.9 222.1h.01M289.7 269.4h.01M284.2 188.7h.01M118.1 356.0h.01M244.1 142.7h.01M168.7 203.0h.01M221.7 139.5h.01M106.8 360.8h.01M297.7 200.3h.01M279.8 119.5h.01M291.8 245.0h.01M148.6 385.1h.01M188.3 419.6h.01M287.1 175.1h.01M224.2 402.2h.01M49.3 211.5h.01M270.0 125.5h.01M168.4 122.3h.01M255.0 378.5h.01M277.5 131.2h.01M131.7 388.5h.01M115.2 378.2h.01M281.0 106.0h.01M260.9 399.1h.01M266.6 320.1h.01M243.0 301.9h.01M275.2 136.8h.01M49.6 217.3h.01M263.8 356.8h.01M156.8 113.0h.01M156.2 122.8h.01M250.1 282.4h.01M261.7 118.7h.01M259.4 406.4h.01M274.9 397.2h.01M180.1 188.9h.01M283.9 250.7h.01M174.9 182.2h.01M99.4 75.3h.01M256.8 158.0h.01M240.6 397.7h.01M115.9 363.6h.01M120.7 81.3h.01M225.0 409.1h.01M181.4 417.3h.01M267.8 387.7h.01M218.4 297.7h.01M147.6 222.8h.01M252.6 241.8h.01M149.3 395.7h.01M182.5 181.3h.01M286.1 130.1h.01M103.0 374.8h.01M223.0 150.3h.01M113.6 351.5h.01M253.8 384.5h.01M264.4 370.1h.01M219.5 383.9h.01M86.0 336.2h.01M293.6 218.6h.01M133.2 208.3h.01M277.1 157.6h.01M238.2 379.0h.01M222.1 421.8h.01M72.0 138.4h.01M134.7 393.8h.01M256.1 287.6h.01M283.3 268.2h.01M180.4 127.3h.01M285.5 297.2h.01M236.6 230.0h.01M150.2 97.7h.01M144.1 218.8h.01M136.4 399.9h.01M168.9 396.0h.01M166.5 104.4h.01M88.0 94.8h.01M231.8 428.2h.01M283.2 167.4h.01M230.2 170.2h.01M184.4 201.5h.01M190.3 211.8h.01M107.2 354.3h.01M164.9 185.0h.01M270.5 178.6h.01M296.1 267.7h.01M254.1 368.0h.01M219.1 203.9h.01M246.4 295.4h.01M257.5 414.0h.01M258.5 372.5h.01M267.3 120.2h.01M152.0 228.6h.01M227.0 165.1h.01M142.7 389.3h.01M279.6 298.3h.01M288.1 292.4h.01M159.2 132.1h.01M268.4 398.6h.01M251.8 182.1h.01M214.1 219.3h.01M282.6 237.2h.01M242.7 284.2h.01M276.3 180.3h.01M221.0 145.4h.01M293.6 255.6h.01M164.1 392.0h.01M280.7 225.8h.01M249.8 363.2h.01M282.2 262.4h.01M96.1 102.6h.01M260.8 105.7h.01M141.2 209.2h.01M156.5 107.7h.01M283.9 114.6h.01M78.2 104.4h.01M146.3 227.4h.01M214.7 213.4h.01M228.0 146.5h.01M267.5 105.8h.01M240.5 275.4h.01M267.0 112.8h.01M115.6 93.4h.01M242.0 228.0h.01M270.1 99.6h.01M228.9 422.1h.01M154.4 141.0h.01M121.6 373.3h.01M267.4 139.2h.01M83.2 91.8h.01M286.2 195.1h.01M265.0 404.2h.01M238.0 383.9h.01M287.3 274.3h.01M227.4 273.1h.01M260.2 113.0h.01M287.4 223.0h.01M185.8 414.1h.01M140.3 221.5h.01M296.0 248.7h.01M287.9 234.6h.01M245.3 218.2h.01M143.0 204.6h.01M267.0 253.1h.01M241.6 233.1h.01M217.6 274.7h.01M269.0 224.1h.01M204.2 148.5h.01M107.9 379.3h.01M235.0 268.8h.01M237.0 174.1h.01M286.5 380.3h.01M140.6 104.5h.01M242.8 372.3h.01M275.1 193.8h.01M171.8 106.7h.01M109.2 385.5h.01M108.7 91.1h.01M245.2 278.9h.01M135.5 102.2h.01M173.8 125.6h.01M299.4 230.7h.01M297.1 178.6h.01M286.2 137.3h.01M173.9 186.9h.01M219.0 216.0h.01M274.5 224.1h.01M217.2 172.2h.01M231.2 231.2h.01M105.4 96.9h.01M183.1 409.0h.01M270.4 156.6h.01M212.7 270.8h.01"/>
<path stroke="#1a1a1a" stroke-width="2.89" stroke-linecap="round" fill="none" d="M184.6 288.2h.01M125.0 368.9h.01M204.8 429.0h.01M180.9 284.9h.01M284.9 182.0h.01M199.3 293.1h.01M202.3 197.9h.01M96.2 294.1h.01M162.8 232.5h.01M81.3 168.7h.01M253.0 142.7h.01M132.1 198.9h.01M143.4 137.9h.01M199.0 407.6h.01M239.4 367.8h.01M138.2 205.3h.01M121.8 208.9h.01M270.6 172.9h.01M242.9 414.8h.01M233.9 366.2h.01M226.4 230.0h.01M256.0 343.3h.01M230.9 304.2h.01M199.5 202.7h.01M208.7 278.3h.01M198.1 298.0h.01M245.2 241.9h.01M259.1 333.1h.01M243.1 159.6h.01M273.0 267.6h.01M46.6 194.7h.01M173.6 282.6h.01M138.8 286.6h.01M41.2 203.9h.01M238.0 362.9h.01M146.9 373.6h.01M177.2 293.4h.01M71.4 267.5h.01M256.4 220.3h.01M261.1 299.1h.01M106.2 128.8h.01M185.2 145.2h.01M45.8 221.8h.01M273.1 189.3h.01M190.4 147.2h.01M147.2 146.6h.01M109.0 119.5h.01M123.5 183.1h.01M120.8 350.9h.01M212.2 159.5h.01M51.3 234.9h.01M260.3 366.0h.01M129.3 213.5h.01M84.8 129.1h.01M273.6 306.5h.01M252.5 212.7h.01M66.2 255.0h.01M250.3 157.8h.01M181.6 392.0h.01M126.3 218.3h.01M236.6 357.8h.01M197.3 220.3h.01M232.9 379.5h.01M157.9 127.5h.01M293.6 234.1h.01M264.1 331.4h.01M210.5 383.4h.01M100.4 112.9h.01M101.2 107.4h.01M192.4 429.1h.01M224.6 368.4h.01M246.5 352.8h.01M257.6 309.2h.01M274.2 152.3h.01M233.1 383.3h.01M150.5 275.8h.01M194.9 201.6h.01M135.9 149.5h.01M139.4 124.2h.01M148.8 270.2h.01M277.5 309.4h.01M134.8 202.8h.01M215.0 226.6h.01M225.3 267.0h.01M207.1 289.1h.01M80.4 163.4h.01M53.2 240.5h.01M124.8 201.9h.01M124.9 223.3h.01M195.3 301.9h.01M296.9 190.4h.01M230.0 370.6h.01M247.1 246.7h.01M252.0 307.0h.01M92.9 119.4h.01M90.7 107.1h.01M126.0 107.6h.01M259.8 293.3h.01M201.1 289.5h.01M44.4 185.9h.01M195.1 189.6h.01M181.3 177.9h.01M87.7 112.1h.01M247.2 231.7h.01M185.6 293.6h.01M209.1 292.7h.01M208.0 158.0h.01M223.1 280.3h.01M206.3 389.7h.01M218.3 279.1h.01M217.6 369.5h.01M267.3 281.6h.01M166.4 278.0h.01M46.1 201.7h.01M270.2 229.3h.01M148.5 260.3h.01M259.5 184.5h.01M262.1 287.5h.01M120.3 361.1h.01M132.4 216.9h.01M204.2 187.8h.01M82.8 118.5h.01M143.1 369.9h.01M134.2 366.1h.01M87.9 118.1h.01M142.6 120.8h.01M204.0 273.2h.01M169.7 286.1h.01M207.5 152.7h.01M117.6 100.1h.01M214.8 382.3h.01M143.2 114.7h.01M69.7 161.0h.01M231.9 237.3h.01M177.1 299.7h.01M41.8 197.6h.01M212.5 176.5h.01M180.1 146.4h.01M172.8 276.2h.01M251.9 389.8h.01M261.0 141.6h.01M252.7 411.0h.01M267.8 393.4h.01M72.9 240.2h.01M234.8 150.2h.01M255.7 348.1h.01M123.4 228.3h.01M237.7 374.1h.01M185.8 395.0h.01M217.9 223.6h.01M212.1 172.5h.01M42.7 191.4h.01M177.2 280.2h.01M205.3 202.5h.01M138.8 116.8h.01M164.0 199.0h.01M220.9 305.5h.01M70.0 257.8h.01M267.6 143.8h.01M203.8 155.3h.01M63.9 251.1h.01M170.2 190.4h.01M111.4 109.1h.01M149.5 232.6h.01M283.2 301.5h.01M178.6 174.6h.01M185.1 218.0h.01M259.2 190.2h.01M130.3 358.3h.01M91.7 115.1h.01M137.4 129.9h.01M283.3 157.7h.01M181.3 231.4h.01M283.3 177.9h.01M179.2 197.7h.01M232.5 375.3h.01M245.2 402.5h.01M283.1 272.5h.01M77.6 132.4h.01M165.8 257.5h.01M174.1 243.8h.01M222.6 387.1h.01M210.4 428.8h.01M152.9 281.8h.01M146.8 265.0h.01M156.2 279.7h.01M260.1 328.0h.01M135.6 108.5h.01M140.0 110.6h.01M180.4 289.9h.01M284.7 244.2h.01M280.3 276.0h.01M84.1 106.1h.01M144.5 233.9h.01M200.3 216.4h.01M134.9 227.0h.01M169.5 281.0h.01M235.0 370.6h.01M111.2 114.2h.01M148.7 140.5h.01M58.6 250.4h.01M60.7 175.3h.01M88.0 123.4h.01M140.4 225.8h.01M74.0 263.0h.01M78.0 122.4h.01M67.5 169.4h.01M147.4 122.2h.01M204.6 219.9h.01M242.7 408.3h.01M225.0 382.5h.01M220.2 428.4h.01M198.4 429.3h.01M210.5 379.8h.01M50.1 198.2h.01M275.6 278.1h.01M107.7 104.1h.01M168.0 252.1h.01M48.7 228.8h.01M100.9 118.4h.01M236.6 313.8h.01M76.2 339.1h.01M231.1 283.2h.01M253.5 185.5h.01M242.4 175.2h.01M155.2 234.0h.01M165.2 284.6h.01M279.7 304.9h.01M80.8 344.2h.01M198.4 196.2h.01M152.0 119.8h.01M147.3 127.4h.01M232.4 387.8h.01M66.1 175.6h.01M67.0 222.5h.01M230.3 298.9h.01M222.0 372.4h.01M121.4 195.9h.01M249.3 146.4h.01M167.7 232.4h.01M217.0 190.6h.01M215.3 427.6h.01M188.2 304.8h.01M266.1 172.3h.01M215.9 309.5h.01M142.5 230.5h.01M130.0 222.0h.01M202.2 207.1h.01M142.8 133.0h.01M259.1 314.2h.01M192.2 304.7h.01M141.1 195.9h.01M134.4 232.2h.01M81.2 339.0h.01M152.6 184.0h.01M210.2 302.6h.01M230.8 294.1h.01M233.3 154.7h.01M96.8 116.8h.01M262.4 343.5h.01M231.0 159.8h.01M158.4 230.3h.01M72.0 236.6h.01M247.5 184.4h.01M152.3 374.2h.01M226.4 299.6h.01M133.0 362.4h.01M159.9 202.3h.01M70.1 154.5h.01M212.9 180.8h.01M104.2 120.3h.01M135.3 195.5h.01M80.1 329.7h.01M74.1 150.8h.01M169.2 197.7h.01M43.7 215.4h.01M167.9 161.7h.01M279.2 176.3h.01M222.0 415.4h.01M152.6 380.9h.01M170.6 160.4h.01M138.4 230.9h.01M103.2 338.9h.01M58.1 238.6h.01M203.2 227.3h.01M199.8 189.9h.01M70.2 178.2h.01M261.9 253.0h.01M218.3 229.1h.01M191.2 299.9h.01M176.5 389.8h.01M132.1 278.6h.01M215.2 402.7h.01M138.7 199.6h.01M152.2 115.3h.01M214.8 201.7h.01M216.2 283.5h.01M199.4 303.3h.01M206.3 385.5h.01M267.2 241.0h.01M142.8 128.0h.01M133.8 371.4h.01M280.2 248.4h.01M154.5 270.1h.01M76.5 238.1h.01M255.9 188.5h.01M219.0 375.1h.01M210.2 204.0h.01M190.3 217.3h.01M204.2 292.7h.01M81.2 134.4h.01M199.4 307.5h.01M263.4 337.4h.01M64.1 226.6h.01M278.5 232.7h.01M222.2 226.6h.01M83.1 123.9h.01M173.9 289.1h.01M92.7 124.1h.01M206.4 382.0h.01M259.8 378.1h.01M202.2 388.1h.01M134.2 114.4h.01M156.8 188.2h.01M170.7 247.5h.01M207.7 297.8h.01M160.7 191.6h.01M141.3 148.4h.01M228.4 378.7h.01M196.5 209.3h.01M297.5 172.7h.01M130.6 151.1h.01M105.8 109.9h.01M177.7 234.7h.01M217.1 186.7h.01M252.1 174.6h.01M79.8 128.0h.01M147.1 379.3h.01M260.1 217.1h.01M199.6 275.7h.01M211.5 287.4h.01M74.8 156.9h.01M118.0 116.7h.01M142.7 143.1h.01M194.4 195.1h.01M161.4 160.0h.01M187.3 301.1h.01M105.7 115.0h.01M195.2 307.4h.01M76.5 138.1h.01M213.3 295.3h.01M96.8 122.2h.01M183.8 301.7h.01M265.0 325.7h.01M210.9 165.2h.01M137.5 140.0h.01M160.0 183.2h.01M160.7 237.3h.01M248.6 211.2h.01M157.3 382.9h.01M202.6 296.3h.01M239.3 308.9h.01M116.1 111.8h.01M165.0 237.3h.01M267.0 287.3h.01M42.9 209.3h.01M169.6 182.8h.01M59.7 223.0h.01M184.9 297.5h.01M168.0 145.5h.01M64.2 206.5h.01M226.2 393.1h.01M124.5 364.0h.01M262.1 153.6h.01M216.8 158.1h.01M261.7 174.3h.01M56.4 245.2h.01M196.6 424.6h.01M244.3 357.8h.01M76.8 333.9h.01M51.2 223.7h.01M240.6 419.6h.01M271.9 249.1h.01M203.7 408.7h.01M234.3 308.2h.01M164.6 161.8h.01M127.0 112.7h.01M240.9 359.5h.01M209.2 423.6h.01M202.7 300.2h.01M252.7 247.8h.01M147.9 133.3h.01M204.1 306.4h.01M64.5 218.4h.01M130.6 110.8h.01M68.9 233.0h.01M120.0 200.0h.01M213.4 394.6h.01M173.3 145.3h.01M255.8 297.7h.01M49.6 205.6h.01M252.4 353.4h.01M217.4 378.9h.01M287.8 184.7h.01M157.5 145.5h.01M250.4 189.2h.01M240.0 146.6h.01M213.1 276.1h.01M129.8 367.5h.01M229.0 384.1h.01M281.1 153.4h.01M94.6 112.0h.01M227.0 388.3h.01M212.7 281.2h.01M77.5 234.3h.01M211.6 223.9h.01M236.5 285.2h.01M173.3 177.9h.01M128.1 361.7h.01M157.8 238.9h.01M215.8 304.8h.01M208.5 284.0h.01M145.4 108.5h.01M226.3 374.5h.01M205.3 302.7h.01M269.0 272.2h.01M288.7 240.0h.01M132.0 145.8h.01M176.6 286.2h.01M47.2 180.2h.01M187.5 290.4h.01M185.2 228.6h.01M217.6 390.0h.01M75.4 162.8h.01M96.1 107.9h.01M132.7 377.0h.01M129.7 227.0h.01M163.7 252.6h.01M207.4 224.5h.01M77.1 242.6h.01M194.8 150.2h.01M203.9 277.8h.01M192.1 292.7h.01M273.9 175.9h.01M251.0 395.5h.01M222.4 378.6h.01M152.1 125.2h.01M79.5 140.2h.01M211.7 405.7h.01M276.2 147.0h.01M249.9 348.3h.01M147.1 117.6h.01M180.2 298.0h.01M275.1 301.6h.01M276.4 256.9h.01M73.6 233.8h.01M190.5 186.7h.01M130.5 232.3h.01M145.0 197.9h.01M117.5 106.2h.01M259.4 225.6h.01M280.4 148.8h.01M201.5 222.9h.01M257.2 174.7h.01M264.7 237.3h.01M222.3 397.3h.01M95.0 128.4h.01M187.0 428.9h.01M132.2 285.2h.01M258.3 338.4h.01M113.1 103.8h.01M147.6 113.2h.01M232.1 288.5h.01M61.8 246.7h.01M216.0 183.1h.01M247.5 161.2h.01M142.4 383.1h.01M222.0 231.7h.01M124.3 213.7h.01M152.4 130.0h.01M247.6 304.2h.01M249.6 416.1h.01M213.3 377.9h.01M153.5 264.7h.01M255.8 215.2h.01M240.3 247.0h.01M142.6 376.0h.01M257.0 303.6h.01M181.7 294.1h.01M260.6 266.5h.01M156.4 275.1h.01M61.4 255.0h.01M289.1 249.0h.01M214.8 421.9h.01M112.1 186.6h.01M230.2 310.3h.01M215.4 408.6h.01M137.6 135.0h.01M236.0 234.9h.01M276.2 287.1h.01M215.5 193.7h.01M211.2 391.4h.01M244.1 308.6h.01M245.1 236.9h.01M202.0 211.7h.01M155.8 287.2h.01M204.6 281.8h.01M226.8 416.3h.01M200.0 153.2h.01M196.1 292.8h.01M138.4 368.0h.01M62.6 212.8h.01M275.9 162.7h.01M138.4 373.1h.01M270.4 148.0h.01M204.5 286.7h.01M123.5 102.8h.01M137.1 144.8h.01M189.2 295.8h.01M194.0 296.8h.01M200.0 183.4h.01M137.9 378.3h.01M228.6 365.4h.01M158.6 266.2h.01M126.6 231.0h.01M73.2 143.7h.01M55.7 172.7h.01M135.0 154.1h.01M208.8 273.2h.01M208.0 394.1h.01M82.6 112.5h.01M64.0 232.1h.01M232.3 361.9h.01M195.1 214.8h.01"/>
<path stroke="#1a1a1a" stroke-width="3.38" stroke-linecap="round" fill="none" d="M134.3 243.4h.01M98.7 182.2h.01M183.2 253.7h.01M112.3 341.3h.01M102.2 168.0h.01M240.6 152.0h.01M77.7 257.5h.01M274.1 242.1h.01M257.1 254.1h.01M105.4 175.5h.01M108.2 164.8h.01M273.2 312.6h.01M160.8 164.5h.01M117.2 214.2h.01M93.7 152.5h.01M228.7 357.4h.01M131.4 124.8h.01M134.2 255.9h.01M161.2 366.6h.01M209.1 219.0h.01M260.2 149.3h.01M99.5 273.1h.01M162.3 281.4h.01M226.2 305.7h.01M77.7 148.3h.01M88.6 176.3h.01M193.8 227.1h.01M253.4 406.0h.01M114.6 304.5h.01M176.0 379.1h.01M205.6 268.9h.01M112.7 163.0h.01M105.2 265.3h.01M135.8 291.2h.01M112.1 227.9h.01M84.8 172.6h.01M125.1 240.9h.01M68.7 262.8h.01M109.4 213.9h.01M109.3 233.7h.01M121.8 257.3h.01M117.0 273.9h.01M87.3 257.2h.01M191.1 380.2h.01M217.5 330.1h.01M206.7 229.9h.01M175.9 321.9h.01M67.7 204.6h.01M180.9 237.6h.01M118.0 254.9h.01M196.7 377.9h.01M82.5 270.9h.01M113.5 256.6h.01M250.2 401.5h.01M85.8 178.9h.01M230.1 318.8h.01M116.7 288.0h.01M100.4 226.1h.01M71.3 167.0h.01M188.5 167.1h.01M92.1 247.7h.01M197.6 287.7h.01M224.1 321.0h.01M97.7 139.3h.01M94.7 255.5h.01M122.2 274.9h.01M137.0 304.9h.01M92.1 272.3h.01M105.0 287.0h.01M144.1 299.7h.01M271.9 288.7h.01M102.5 149.3h.01M184.0 240.4h.01M96.1 218.6h.01M83.4 213.0h.01M78.7 261.9h.01M86.9 169.4h.01M100.0 176.8h.01M120.5 124.5h.01M120.3 120.3h.01M171.9 378.1h.01M220.3 283.6h.01M250.2 316.0h.01M254.3 322.4h.01M242.9 349.9h.01M121.0 108.6h.01M239.1 161.9h.01M123.4 261.3h.01M138.1 296.0h.01M268.8 316.0h.01M87.7 225.2h.01M93.2 264.4h.01M189.1 222.8h.01M249.4 331.5h.01M108.8 149.2h.01M120.9 270.7h.01M91.4 239.9h.01M176.0 384.8h.01M75.9 169.5h.01M118.1 142.3h.01M109.7 249.0h.01M166.0 157.5h.01M152.0 247.0h.01M204.3 159.8h.01M131.3 181.4h.01M65.0 259.1h.01M108.0 183.9h.01M155.0 255.4h.01M127.7 259.8h.01M119.6 221.8h.01M163.1 145.8h.01M194.4 391.8h.01M116.7 192.1h.01M189.6 276.5h.01M225.8 330.0h.01M53.0 186.7h.01M216.6 399.0h.01M176.4 229.9h.01M199.6 401.7h.01M179.2 243.5h.01M235.4 318.3h.01M118.4 278.8h.01M255.5 326.8h.01M230.5 314.5h.01M239.7 242.7h.01M147.5 305.7h.01M116.1 218.8h.01M107.1 237.4h.01M198.7 272.0h.01M125.1 305.4h.01M75.1 271.7h.01M80.8 227.6h.01M52.0 192.9h.01M117.8 209.0h.01M112.2 238.1h.01M132.2 272.6h.01M68.0 215.9h.01M204.6 183.2h.01M238.4 166.8h.01M59.9 228.7h.01M101.6 334.4h.01M206.7 196.8h.01M186.3 317.1h.01M269.1 306.7h.01M222.4 294.1h.01M165.9 245.9h.01M177.8 255.5h.01M88.5 165.9h.01M84.8 165.0h.01M147.5 246.3h.01M81.8 334.0h.01M254.2 330.3h.01M110.6 206.3h.01M228.4 235.8h.01M122.7 149.9h.01M219.3 234.0h.01M122.9 145.6h.01M82.8 148.2h.01M128.4 189.0h.01M110.2 154.1h.01M275.9 246.5h.01M276.9 237.8h.01M146.4 183.5h.01M235.7 159.0h.01M262.2 229.6h.01M108.7 229.7h.01M125.3 346.2h.01M175.4 374.6h.01M264.1 302.6h.01M110.4 301.6h.01M112.0 194.1h.01M258.6 319.0h.01M191.4 312.2h.01M104.8 231.2h.01M113.7 118.6h.01M82.7 142.7h.01M121.4 239.4h.01M180.4 387.1h.01M167.8 376.9h.01M199.1 177.5h.01M187.3 391.2h.01M89.4 143.9h.01M117.1 336.2h.01M181.5 279.6h.01M68.1 238.5h.01M55.4 189.9h.01M127.0 287.9h.01M258.2 323.8h.01M193.5 221.9h.01M219.0 316.3h.01M99.7 321.9h.01M146.6 363.2h.01M154.5 239.6h.01M154.6 193.9h.01M111.0 172.8h.01M141.5 184.9h.01M71.1 253.0h.01M114.4 144.6h.01M223.5 362.8h.01M229.5 331.7h.01M75.0 178.8h.01M245.9 346.1h.01M211.0 195.3h.01M92.2 220.8h.01M245.4 149.7h.01M102.8 268.9h.01M190.8 272.5h.01M127.1 296.8h.01M93.1 268.5h.01M243.6 165.1h.01M83.4 248.6h.01M85.7 144.2h.01M163.5 263.6h.01M245.5 323.0h.01M113.0 215.8h.01M102.8 131.8h.01M120.7 129.3h.01M117.5 159.7h.01M137.6 258.3h.01M179.5 326.5h.01M87.2 149.1h.01M249.1 335.8h.01M132.1 240.6h.01M140.4 255.4h.01M130.0 155.3h.01M152.2 147.1h.01M118.6 145.7h.01M188.8 240.0h.01M151.5 179.7h.01M109.0 224.4h.01M105.1 247.6h.01M109.7 129.4h.01M112.2 199.2h.01M144.0 270.0h.01M88.1 266.5h.01M262.2 322.6h.01M178.0 305.6h.01M93.0 215.4h.01M232.7 329.8h.01M91.5 243.5h.01M169.9 237.4h.01M81.3 221.0h.01M173.1 234.2h.01M114.3 266.0h.01M121.6 305.4h.01M247.9 172.8h.01M277.3 186.9h.01M55.3 220.2h.01M215.4 197.5h.01M165.2 290.0h.01M195.4 311.9h.01M221.5 329.8h.01M151.0 289.7h.01M91.7 225.5h.01M108.7 269.7h.01M94.4 275.7h.01M78.3 153.0h.01M143.7 164.1h.01M99.1 186.7h.01M103.7 278.4h.01M83.6 235.5h.01M141.7 291.2h.01M116.5 126.5h.01M91.6 168.6h.01M155.6 292.0h.01M95.1 284.0h.01M79.6 275.0h.01M171.1 373.4h.01M146.3 312.2h.01M175.4 239.1h.01M130.3 173.0h.01M198.0 226.2h.01M63.5 237.3h.01M104.1 163.5h.01M149.6 251.3h.01M103.9 253.1h.01M153.4 251.1h.01M91.4 233.6h.01M122.9 141.6h.01M140.1 153.6h.01M96.1 227.9h.01M235.0 163.5h.01M83.8 243.8h.01M200.6 412.5h.01M115.2 260.9h.01M186.2 380.1h.01M115.3 346.0h.01M144.0 188.3h.01M185.6 278.7h.01M190.6 388.1h.01M95.2 183.9h.01M139.0 300.7h.01M213.2 366.2h.01M161.4 287.4h.01M148.9 166.0h.01M109.0 254.1h.01M124.4 188.5h.01M127.4 147.9h.01M257.4 145.3h.01M95.3 161.9h.01M199.4 231.0h.01M231.6 165.1h.01M180.9 303.2h.01M108.2 243.6h.01M207.8 378.5h.01M264.0 224.0h.01M88.9 192.1h.01M98.3 153.0h.01M96.7 200.2h.01M113.6 233.2h.01M82.5 252.5h.01M55.6 232.0h.01M133.6 158.3h.01M194.2 288.6h.01M190.8 396.1h.01M135.1 120.1h.01M114.3 157.8h.01M105.8 193.8h.01M149.1 202.5h.01M200.9 269.4h.01M105.8 211.4h.01M219.6 365.5h.01M101.6 190.3h.01M48.4 189.8h.01M240.5 324.1h.01M82.9 153.2h.01M134.4 358.3h.01M135.2 240.4h.01M114.9 129.7h.01M167.7 272.5h.01M149.5 317.3h.01M127.8 182.4h.01M92.0 199.9h.01M178.1 275.6h.01M174.1 163.1h.01M150.1 255.8h.01M237.0 331.9h.01M106.0 124.2h.01M186.7 272.8h.01M105.0 273.3h.01M110.5 144.8h.01M91.5 189.7h.01M99.9 124.1h.01M129.5 246.5h.01M116.0 226.5h.01M74.5 254.7h.01M202.7 383.3h.01M88.4 181.8h.01M149.9 313.6h.01M248.5 406.8h.01M164.8 364.2h.01M98.9 129.3h.01M263.0 317.9h.01M120.5 212.8h.01M137.8 251.9h.01M274.2 296.9h.01M191.7 284.0h.01M184.9 388.8h.01M90.3 156.8h.01M218.0 394.9h.01M246.6 411.4h.01M157.1 160.6h.01M144.3 243.0h.01M105.1 222.4h.01M62.0 242.0h.01M55.7 215.4h.01M145.0 152.0h.01M114.6 204.9h.01M117.6 236.2h.01M147.7 295.8h.01M118.3 149.8h.01M99.9 317.8h.01M269.5 302.5h.01M132.5 296.0h.01M225.9 282.9h.01M87.3 238.5h.01M179.4 321.1h.01M150.9 242.9h.01M219.5 287.6h.01M157.4 376.4h.01M199.3 311.5h.01M157.2 248.1h.01M225.0 310.9h.01M142.6 281.1h.01M116.6 240.7h.01M79.3 249.3h.01M129.0 115.6h.01M109.4 135.1h.01M94.3 143.8h.01M114.2 140.5h.01M207.4 208.9h.01M68.3 250.5h.01M120.8 138.4h.01M74.7 185.4h.01M55.8 211.6h.01M269.0 187.3h.01M152.0 294.3h.01M210.0 213.5h.01M148.6 192.1h.01M94.9 223.1h.01M123.1 234.5h.01M203.1 174.0h.01M160.9 243.2h.01M93.6 158.1h.01M129.9 164.0h.01M142.9 295.7h.01M251.2 325.5h.01M120.7 190.9h.01M151.9 302.9h.01M111.6 203.1h.01M157.0 151.0h.01M120.8 248.8h.01M144.9 255.6h.01M115.9 331.8h.01M142.9 365.0h.01M194.3 420.4h.01M144.3 201.5h.01M222.0 391.9h.01M113.8 148.7h.01M120.6 291.9h.01M87.5 231.2h.01M182.8 162.6h.01M77.5 225.3h.01M198.7 385.2h.01M132.5 260.9h.01M198.2 393.7h.01M115.9 201.5h.01M209.2 179.6h.01M175.9 248.4h.01M91.2 259.8h.01M217.3 417.8h.01M75.6 246.5h.01M225.9 359.7h.01M189.3 234.3h.01M125.0 120.2h.01M80.0 245.3h.01M117.1 133.7h.01M154.3 199.0h.01M202.3 425.5h.01M111.7 190.6h.01M70.3 207.6h.01M103.0 207.5h.01M169.6 290.8h.01M219.8 360.0h.01M106.5 206.0h.01M263.8 146.7h.01M142.7 360.6h.01M150.2 285.4h.01M80.6 216.1h.01M150.2 299.1h.01M104.8 226.5h.01M265.3 291.5h.01M189.8 308.8h.01M133.1 236.5h.01M246.0 317.9h.01M101.1 198.8h.01M129.6 349.9h.01M124.4 132.7h.01M109.1 196.5h.01M136.3 355.4h.01M195.0 246.8h.01M91.8 148.4h.01M110.4 219.6h.01M102.0 242.0h.01M195.7 401.1h.01M202.8 392.8h.01M210.2 199.6h.01M250.0 321.0h.01M240.7 170.6h.01M193.7 375.8h.01M270.9 284.7h.01M237.5 265.1h.01M128.9 168.5h.01M89.3 204.1h.01M132.5 188.4h.01M158.6 283.5h.01M117.5 302.2h.01M266.8 151.7h.01M139.8 309.1h.01M116.8 138.5h.01M240.1 353.7h.01M126.3 158.0h.01M118.9 204.5h.01M83.5 261.0h.01M216.0 313.3h.01M211.0 398.3h.01M103.1 184.9h.01M129.9 177.4h.01M101.4 210.8h.01M215.9 232.0h.01M165.3 241.5h.01M95.8 189.2h.01M113.7 211.6h.01M255.8 393.0h.01M173.6 298.9h.01M151.6 306.4h.01M207.8 170.4h.01M100.9 221.3h.01M84.4 181.6h.01M101.6 172.9h.01M242.7 313.9h.01M119.6 154.6h.01M105.7 179.9h.01M90.0 128.9h.01M91.1 251.6h.01M98.4 247.6h.01M101.1 250.4h.01M141.2 175.7h.01M207.4 166.8h.01M159.1 196.4h.01M97.8 305.8h.01M219.4 411.6h.01M225.1 234.5h.01M127.1 236.1h.01M185.7 163.6h.01M102.3 127.0h.01M98.7 134.0h.01M260.5 221.5h.01M182.1 378.5h.01M138.1 239.0h.01M96.6 166.6h.01M96.8 252.0h.01M181.1 308.7h.01M232.4 357.1h.01M120.5 173.2h.01M101.0 194.5h.01M125.7 162.7h.01M209.5 409.4h.01M198.0 389.5h.01M272.6 273.4h.01M137.6 158.0h.01M204.7 378.9h.01M59.8 208.4h.01M208.3 187.9h.01M109.4 209.5h.01M227.8 322.6h.01M122.0 341.2h.01M254.0 312.9h.01M124.3 125.0h.01M83.8 176.2h.01M71.9 243.0h.01M67.6 211.2h.01M108.1 340.1h.01M199.8 376.7h.01M232.1 324.4h.01M93.8 204.5h.01M111.3 260.1h.01M95.8 260.3h.01M185.4 234.6h.01M194.4 317.0h.01M238.0 349.0h.01M97.5 207.4h.01M71.4 202.8h.01M94.2 172.6h.01M105.6 198.5h.01M121.7 266.0h.01M240.3 328.4h.01M144.4 275.5h.01M140.5 266.5h.01M84.0 256.5h.01M74.4 250.2h.01M254.0 334.7h.01M167.6 382.1h.01M105.2 257.0h.01M126.1 292.7h.01M160.3 278.0h.01M117.8 268.0h.01M118.8 244.1h.01M100.9 245.0h.01M268.0 192.3h.01M89.5 246.5h.01M131.6 141.0h.01M248.1 252.5h.01M146.3 250.6h.01M100.5 217.7h.01M279.4 242.4h.01M143.1 312.4h.01M226.4 293.9h.01M209.4 413.8h.01M190.7 288.7h.01M114.3 278.1h.01M78.8 253.8h.01M88.0 270.9h.01M146.3 168.5h.01M93.1 139.1h.01M98.6 171.5h.01M179.7 250.1h.01M95.1 287.0h.01M272.4 262.0h.01M126.7 282.6h.01M134.7 180.0h.01M110.4 140.1h.01M183.7 223.2h.01M215.6 362.6h.01M273.1 233.6h.01M153.6 162.9h.01M160.6 250.6h.01M103.2 312.1h.01M103.5 299.2h.01M124.5 166.8h.01M172.6 321.6h.01M227.6 285.9h.01M164.1 369.2h.01M106.1 134.0h.01M131.0 291.2h.01M252.9 253.1h.01M235.0 352.8h.01M113.9 270.4h.01M262.1 257.7h.01M189.3 250.3h.01M152.3 168.1h.01M90.0 134.6h.01M254.1 148.9h.01M101.8 180.0h.01M244.6 327.9h.01M103.0 214.5h.01M164.9 373.9h.01M99.5 263.7h.01M105.6 145.0h.01M206.5 420.1h.01M126.4 270.9h.01M184.1 384.1h.01M125.4 153.1h.01M159.4 260.9h.01M76.7 251.7h.01M162.6 378.5h.01M88.3 186.0h.01M179.5 161.4h.01M131.1 185.4h.01M194.0 278.9h.01M106.8 188.9h.01M179.7 381.9h.01M83.0 239.9h.01M239.5 156.3h.01M189.6 246.8h.01M114.0 252.2h.01M88.0 262.4h.01M153.4 310.8h.01M109.7 177.7h.01M119.9 225.6h.01M270.8 278.2h.01M263.5 312.3h.01M49.0 184.6h.01M190.6 392.6h.01M172.8 294.2h.01M263.6 188.0h.01M128.7 133.5h.01M286.1 161.6h.01M143.9 308.2h.01M186.3 312.2h.01M240.9 318.9h.01M99.9 203.9h.01M132.1 130.3h.01M77.7 267.3h.01M198.3 418.0h.01M108.1 169.4h.01M123.7 175.9h.01M123.1 252.9h.01M248.4 311.5h.01M94.3 241.0h.01M191.3 153.1h.01M258.2 382.8h.01M100.9 289.4h.01M116.5 230.4h.01M133.6 351.9h.01M99.7 257.1h.01M114.9 153.1h.01M199.2 283.2h.01M123.7 111.5h.01M202.7 310.3h.01M137.0 282.0h.01M155.9 179.9h.01M195.9 156.4h.01M97.6 157.8h.01M241.7 331.9h.01M95.5 169.5h.01M91.4 180.2h.01M112.3 181.9h.01M124.0 116.4h.01M203.1 314.3h.01M205.9 214.9h.01M203.9 320.9h.01M210.2 191.7h.01M127.2 143.1h.01M198.4 373.6h.01M105.2 309.5h.01M55.3 206.9h.01M202.8 377.1h.01M91.9 237.1h.01M122.9 279.5h.01M123.7 244.9h.01M84.7 227.1h.01M121.9 179.5h.01M142.9 238.2h.01M221.2 267.0h.01M203.0 179.1h.01M80.2 157.9h.01M147.8 236.8h.01M78.8 144.8h.01M252.6 339.2h.01M134.6 268.0h.01M100.5 301.7h.01M60.0 217.8h.01M142.5 260.8h.01M206.5 309.8h.01M119.6 183.5h.01M108.4 202.0h.01M111.4 280.6h.01M95.6 179.4h.01M270.1 293.0h.01M211.6 229.1h.01M235.8 249.3h.01M128.3 255.5h.01M213.0 188.8h.01M146.8 302.3h.01M195.5 283.5h.01M147.8 280.9h.01M132.3 347.6h.01M184.0 275.9h.01M124.0 170.5h.01M126.3 179.1h.01M83.7 231.2h.01M114.1 176.6h.01M211.2 309.3h.01M103.1 261.0h.01M99.2 164.0h.01M52.2 177.6h.01M90.6 255.4h.01M91.2 229.3h.01M119.2 169.0h.01M187.9 285.3h.01M112.0 336.0h.01M269.0 266.9h.01M102.2 155.8h.01M104.9 240.4h.01M194.1 385.7h.01M229.1 336.1h.01M211.6 374.2h.01M91.8 185.1h.01M179.5 225.8h.01M89.1 161.3h.01M135.1 125.5h.01M54.4 201.8h.01M169.8 241.7h.01M105.1 171.4h.01M207.9 174.3h.01M275.8 252.3h.01M211.8 370.3h.01M189.4 280.6h.01M67.5 200.5h.01M92.1 195.3h.01M96.2 235.9h.01M99.9 237.7h.01M110.1 264.9h.01M208.2 183.2h.01M156.0 243.8h.01M210.9 313.5h.01M116.2 196.9h.01M138.1 276.7h.01M162.7 274.8h.01M97.5 240.7h.01M208.7 162.3h.01M205.4 404.9h.01M194.8 274.1h.01M73.9 258.7h.01M113.3 136.3h.01M88.1 139.2h.01M124.9 193.1h.01M204.6 192.8h.01M106.2 139.8h.01M224.7 316.0h.01M220.7 319.9h.01M118.9 262.5h.01M121.1 161.7h.01M114.6 300.2h.01M138.5 235.5h.01M270.7 244.4h.01M199.0 279.5h.01M116.9 341.1h.01M153.3 315.5h.01M97.9 215.1h.01M199.9 380.7h.01M104.3 202.5h.01M211.7 184.9h.01M105.8 152.8h.01M126.8 128.5h.01M130.2 119.2h.01M103.8 306.2h.01M97.8 268.5h.01M90.2 172.5h.01M96.5 289.7h.01M112.7 243.6h.01M115.9 248.3h.01M110.4 158.9h.01M97.8 223.0h.01M138.8 271.8h.01M248.7 327.6h.01M97.0 300.5h.01M66.6 246.5h.01M120.6 113.7h.01M142.3 170.3h.01M115.0 283.4h.01M201.4 285.3h.01M240.4 238.1h.01M195.1 381.6h.01M112.1 274.1h.01M116.1 122.4h.01M81.1 257.1h.01M55.5 226.8h.01M84.6 185.3h.01M112.2 132.2h.01M214.8 291.8h.01M168.1 370.7h.01M118.7 299.1h.01M215.6 287.7h.01M83.9 138.0h.01M107.7 260.6h.01M214.3 413.3h.01M223.0 237.2h.01M182.5 314.2h.01M159.5 271.5h.01M263.2 307.0h.01M138.2 363.4h.01M85.9 133.7h.01M129.3 239.1h.01M131.9 192.5h.01M94.8 280.4h.01M112.9 167.9h.01M95.0 231.9h.01M128.8 194.6h.01M104.2 218.7h.01M234.8 169.7h.01M184.9 282.8h.01M92.2 164.4h.01M116.5 186.5h.01M268.1 310.9h.01M247.0 339.6h.01M151.4 237.9h.01M243.5 250.3h.01M87.5 235.0h.01M220.5 311.2h.01M71.9 223.3h.01M68.7 227.9h.01M80.3 237.7h.01M116.9 165.2h.01M196.4 250.3h.01M134.5 300.5h.01M99.0 277.5h.01M90.9 208.7h.01M282.1 173.3h.01M94.2 211.3h.01M130.0 266.0h.01M257.2 152.7h.01M256.6 388.2h.01M265.4 296.1h.01M82.9 266.0h.01M160.4 256.5h.01M113.8 223.0h.01M211.2 417.7h.01M94.2 133.7h.01M148.9 309.4h.01M186.7 243.9h.01M154.7 259.7h.01M192.1 243.2h.01M111.3 124.5h.01M199.9 159.0h.01M55.0 197.3h.01M278.4 167.4h.01M98.3 211.7h.01M121.0 134.8h.01M254.3 318.0h.01M172.4 257.9h.01M258.0 164.7h.01M208.7 375.3h.01M265.9 227.6h.01M209.0 306.2h.01M106.8 216.8h.01M274.5 292.1h.01M159.7 156.6h.01M126.3 138.0h.01M255.2 401.8h.01M102.5 235.2h.01M73.3 230.5h.01M102.4 137.6h.01M140.4 355.6h.01M120.2 283.6h.01M148.2 187.2h.01M190.8 424.3h.01M116.0 171.8h.01M137.0 263.2h.01M123.4 205.4h.01M132.6 136.4h.01M206.5 177.5h.01M94.8 248.2h.01M144.4 286.1h.01M96.2 194.3h.01M87.5 154.0h.01M100.0 231.1h.01M205.8 413.2h.01M114.5 208.2h.01M183.6 247.3h.01M84.9 159.4h.01M88.7 220.9h.01M127.3 276.3h.01M116.6 180.9h.01M67.2 181.4h.01M126.2 185.7h.01M249.9 343.0h.01M193.4 252.8h.01M235.8 322.3h.01M73.4 226.6h.01M128.1 123.4h.01M274.6 282.8h.01M92.5 176.3h.01M121.4 165.2h.01M188.8 384.1h.01M174.0 172.8h.01M71.8 182.6h.01M191.8 168.4h.01M96.5 175.5h.01M119.9 231.7h.01M86.3 252.8h.01M101.1 160.3h.01M130.0 159.8h.01M130.2 300.4h.01M121.1 218.0h.01M165.5 192.8h.01M127.0 341.6h.01M184.9 307.5h.01M79.9 173.7h.01M172.0 383.4h.01M269.7 298.3h.01M149.3 152.9h.01M161.0 372.8h.01M176.3 319.1h.01M125.6 265.7h.01M106.3 158.7h.01M141.8 304.3h.01M147.2 240.8h.01M166.6 294.1h.01M121.6 301.6h.01M155.5 296.9h.01M173.3 252.9h.01M152.2 189.2h.01M122.3 287.6h.01M96.0 244.5h.01M63.2 200.9h.01M122.6 157.7h.01M184.5 176.8h.01M215.4 373.5h.01M140.6 241.6h.01M241.4 345.7h.01"/>
<path stroke="#1a1a1a" stroke-width="3.86" stroke-linecap="round" fill="none" d="M141.8 335.8h.01M192.8 173.0h.01M57.2 193.6h.01M182.9 347.9h.01M156.1 342.1h.01M57.9 185.8h.01M209.2 237.3h.01M176.2 265.8h.01M107.7 280.7h.01M200.4 250.3h.01M146.7 351.3h.01M195.3 367.5h.01M243.5 254.8h.01M158.1 322.6h.01M176.1 260.7h.01M65.7 192.2h.01M157.3 370.9h.01M160.9 149.7h.01M202.7 266.5h.01M135.8 329.4h.01M107.6 299.1h.01M134.8 308.3h.01M145.8 331.4h.01M97.4 147.7h.01M146.5 345.5h.01M213.2 346.8h.01M223.1 286.2h.01M131.9 339.7h.01M205.1 254.1h.01M262.9 164.2h.01M76.0 210.8h.01M151.8 157.9h.01M74.5 204.2h.01M197.6 397.4h.01M59.1 181.5h.01M205.4 256.8h.01M206.1 325.4h.01M183.8 356.5h.01M103.1 293.2h.01M209.5 346.1h.01M226.3 341.3h.01M203.6 367.4h.01M160.7 177.4h.01M166.9 153.5h.01M240.8 258.2h.01M193.9 346.5h.01M122.4 296.7h.01M261.3 161.1h.01M212.1 341.9h.01M138.4 359.6h.01M78.6 199.2h.01M175.7 341.1h.01M150.4 363.0h.01M160.1 339.4h.01M224.7 333.6h.01M173.7 370.7h.01M186.7 159.5h.01M153.9 351.4h.01M136.0 342.0h.01M149.6 321.8h.01M189.1 176.5h.01M168.2 351.5h.01M226.8 240.2h.01M206.8 329.3h.01M173.1 271.0h.01M214.5 333.2h.01M179.2 334.5h.01M147.9 180.4h.01M153.4 330.4h.01M202.0 374.0h.01M172.3 357.1h.01M212.9 337.0h.01M114.6 292.8h.01M202.5 328.6h.01M111.6 331.1h.01M108.8 322.0h.01M198.0 234.9h.01M232.0 260.5h.01M127.8 319.4h.01M174.7 351.4h.01M166.7 318.7h.01M220.4 351.9h.01M190.9 157.8h.01M198.8 167.4h.01M162.8 334.0h.01M214.4 244.6h.01M138.8 193.3h.01M196.6 320.9h.01M207.0 370.9h.01M176.1 361.1h.01M162.9 302.1h.01M227.8 289.9h.01M192.9 340.1h.01M147.0 159.6h.01M278.8 171.1h.01M134.0 165.9h.01M223.5 251.6h.01M145.2 173.5h.01M202.6 240.8h.01M103.5 329.8h.01M107.2 331.6h.01M211.4 360.6h.01M172.0 306.7h.01M182.9 324.0h.01M139.3 189.1h.01M156.3 156.0h.01M143.4 343.6h.01M215.9 344.6h.01M162.3 314.8h.01M208.6 233.5h.01M230.7 351.3h.01M154.5 300.7h.01M193.9 164.9h.01M166.4 334.9h.01M114.0 323.0h.01M102.2 325.1h.01M198.4 266.4h.01M201.6 236.4h.01M240.0 262.6h.01M261.9 170.8h.01M172.3 266.6h.01M139.6 344.9h.01M226.0 349.9h.01M146.9 290.9h.01M209.1 267.2h.01M119.6 328.4h.01M89.5 216.7h.01M169.4 328.4h.01M128.0 251.7h.01M141.3 351.5h.01M179.5 316.7h.01M169.0 362.2h.01M186.8 266.0h.01M193.5 160.5h.01M76.8 217.7h.01M197.7 363.9h.01M201.8 351.5h.01M178.7 351.4h.01M228.6 244.5h.01M271.9 238.5h.01M204.7 262.2h.01M198.6 163.9h.01M233.2 334.1h.01M201.6 324.0h.01M156.0 348.5h.01M214.9 235.7h.01M79.8 178.6h.01M126.1 333.4h.01M177.1 315.8h.01M87.8 196.7h.01M122.1 336.2h.01M99.3 285.8h.01M214.2 248.8h.01M183.7 154.9h.01M144.9 334.5h.01M249.2 168.3h.01M188.6 353.1h.01M201.7 421.3h.01M104.8 302.4h.01M164.6 306.2h.01M203.3 401.3h.01M198.7 253.8h.01M154.5 358.5h.01M172.2 331.0h.01M61.4 193.4h.01M118.7 308.4h.01M173.4 338.6h.01M170.5 149.1h.01M115.3 308.7h.01M164.9 168.2h.01M81.1 182.6h.01M139.6 313.4h.01M199.9 345.7h.01M100.8 143.4h.01M206.4 264.8h.01M200.4 357.4h.01M115.5 327.4h.01M129.6 322.0h.01M174.5 168.4h.01M69.3 185.7h.01M210.5 244.2h.01M170.0 155.7h.01M236.0 240.1h.01M274.0 166.6h.01M168.2 323.7h.01M163.6 269.3h.01M187.5 344.8h.01M229.4 256.8h.01M88.3 212.9h.01M224.2 243.2h.01M213.5 238.0h.01M183.5 328.6h.01M223.4 263.0h.01M162.5 154.1h.01M135.3 346.4h.01M201.3 260.5h.01M130.5 308.1h.01M179.2 348.4h.01M186.4 359.1h.01M221.1 242.4h.01M87.5 249.3h.01M106.4 326.8h.01M197.4 344.7h.01M67.4 196.7h.01M157.5 366.5h.01M153.3 152.7h.01M168.7 168.4h.01M85.5 275.4h.01M81.5 203.2h.01M157.3 329.8h.01M149.5 329.8h.01M192.7 323.7h.01M186.2 150.3h.01M155.8 318.8h.01M124.0 313.1h.01M169.3 338.9h.01M138.8 181.9h.01M205.5 237.4h.01M238.0 344.0h.01M182.4 158.7h.01M99.8 281.5h.01M190.1 316.0h.01M267.0 163.9h.01M207.5 255.0h.01M137.0 316.0h.01M84.5 201.2h.01M271.0 162.7h.01M180.5 165.6h.01M120.5 316.8h.01M169.5 178.3h.01M81.5 198.3h.01M172.5 151.7h.01M260.9 262.1h.01M193.8 397.4h.01M142.3 347.3h.01M219.2 346.6h.01M155.1 339.0h.01M150.5 358.3h.01M172.7 364.5h.01M85.5 193.5h.01M212.9 251.8h.01M159.7 318.2h.01M171.4 368.0h.01M205.2 374.3h.01M177.4 271.2h.01M185.7 354.2h.01M102.4 284.5h.01M213.5 320.3h.01M185.8 269.3h.01M258.6 168.2h.01M170.5 347.5h.01M101.8 315.0h.01M132.9 252.4h.01M175.7 156.7h.01M204.3 248.2h.01M218.1 242.6h.01M78.0 189.0h.01M210.4 317.5h.01M74.6 200.5h.01M150.5 345.0h.01M208.7 261.3h.01M209.9 402.5h.01M120.0 346.0h.01M185.1 363.4h.01M212.2 258.2h.01M188.4 341.9h.01M65.5 187.8h.01M142.4 318.8h.01M216.4 251.8h.01M178.9 367.9h.01M168.2 305.7h.01M132.5 245.2h.01M167.0 346.7h.01M182.7 343.7h.01M194.1 265.7h.01M214.2 260.8h.01M112.1 289.1h.01M203.5 363.5h.01M204.3 332.5h.01M122.3 322.1h.01M207.0 317.5h.01M151.1 337.7h.01M152.6 319.6h.01M195.9 242.0h.01M207.1 251.4h.01M233.7 347.2h.01M117.9 295.4h.01M217.0 239.0h.01M219.7 254.5h.01M73.8 191.7h.01M172.1 262.7h.01M183.2 334.1h.01M186.1 372.2h.01M182.9 338.4h.01M191.4 364.8h.01M166.4 165.3h.01M185.3 346.7h.01M197.5 263.0h.01M109.2 295.9h.01M81.4 188.9h.01M188.0 367.5h.01M167.1 314.6h.01M70.3 245.6h.01M174.8 347.2h.01M216.9 246.8h.01M81.4 186.1h.01M160.1 351.8h.01M203.5 251.5h.01M145.0 338.2h.01M168.0 366.4h.01M192.6 372.0h.01M179.7 341.0h.01M211.2 247.5h.01M139.4 248.4h.01M128.6 314.9h.01M63.1 189.6h.01M185.3 376.0h.01M165.0 178.9h.01M245.3 333.0h.01M170.0 318.9h.01M232.6 256.1h.01M134.5 162.4h.01M118.0 305.0h.01M217.3 320.8h.01M212.5 324.8h.01M149.2 172.1h.01M192.1 259.4h.01M244.2 263.9h.01M138.6 320.0h.01M215.6 323.8h.01M169.2 309.8h.01M123.5 318.1h.01M222.3 248.7h.01M71.8 187.8h.01M175.0 354.0h.01M230.9 264.4h.01M99.6 292.6h.01M187.6 253.8h.01M189.9 162.8h.01M201.2 341.2h.01M229.8 345.3h.01M190.7 268.2h.01M189.3 172.0h.01M172.3 325.7h.01M235.4 261.2h.01M256.7 259.0h.01M160.0 306.1h.01M107.5 304.7h.01M228.2 265.4h.01M137.9 171.8h.01M179.2 375.8h.01M72.6 210.7h.01M200.5 319.0h.01M188.0 338.9h.01M203.6 348.9h.01M223.9 325.7h.01M179.5 365.2h.01M199.6 171.7h.01M171.8 311.8h.01M191.4 343.6h.01M155.0 326.5h.01M66.6 242.3h.01M158.9 343.7h.01M148.6 348.4h.01M165.2 355.3h.01M205.3 163.8h.01M125.8 321.6h.01M144.5 353.7h.01M217.3 258.1h.01M73.1 214.8h.01M168.7 357.2h.01M175.1 308.0h.01M107.8 308.1h.01M244.9 169.4h.01M206.9 400.0h.01M184.7 341.9h.01M203.8 233.3h.01M239.6 252.4h.01M257.6 161.7h.01M63.6 196.4h.01M144.2 192.7h.01M170.2 171.5h.01M86.3 209.4h.01M179.8 262.9h.01M181.2 150.9h.01M149.3 162.4h.01M99.6 297.0h.01M208.7 241.7h.01M132.5 315.3h.01M208.8 338.7h.01M215.8 241.2h.01M194.9 342.7h.01M253.2 171.5h.01M137.4 177.1h.01M147.9 327.2h.01M118.8 312.9h.01M75.1 189.2h.01M134.3 322.5h.01M176.6 331.2h.01M100.3 309.4h.01M152.6 175.2h.01M139.1 166.8h.01M177.6 344.1h.01M225.5 259.0h.01M229.1 260.3h.01M208.2 362.6h.01M164.7 349.5h.01M199.9 361.3h.01M216.8 340.7h.01M207.9 247.3h.01M211.0 239.5h.01M239.5 335.5h.01M221.5 356.0h.01M209.9 320.9h.01M101.0 305.5h.01M130.3 354.6h.01M120.8 186.6h.01M182.5 360.0h.01M208.0 366.6h.01M201.9 254.1h.01M266.1 232.1h.01M195.2 237.2h.01M219.5 250.5h.01M201.7 162.6h.01M234.5 342.0h.01M213.0 255.0h.01M203.8 317.0h.01M175.4 327.9h.01M178.7 359.1h.01M180.9 345.1h.01M104.3 320.9h.01M72.0 173.3h.01M63.1 180.1h.01M142.3 330.3h.01M135.3 336.7h.01M108.7 292.6h.01M266.0 259.2h.01M112.8 297.1h.01M111.5 308.0h.01M130.3 325.4h.01M143.9 321.7h.01M230.9 252.4h.01M236.0 254.0h.01M77.6 182.4h.01M224.2 337.9h.01M202.4 166.1h.01M197.3 259.6h.01M245.5 155.2h.01M211.6 330.3h.01M220.7 239.3h.01M206.5 355.0h.01M85.8 188.9h.01M104.5 295.7h.01M249.8 152.3h.01M160.3 355.0h.01M138.8 162.4h.01M196.4 161.9h.01M126.7 325.4h.01M243.8 336.9h.01M87.6 242.4h.01M148.0 337.5h.01M126.7 173.5h.01M215.8 358.4h.01M66.1 184.6h.01M180.4 372.4h.01M188.8 371.4h.01M185.4 173.6h.01M150.8 341.5h.01M78.6 206.5h.01M269.8 168.0h.01M181.2 350.2h.01M210.3 353.3h.01M265.0 264.3h.01M178.6 311.5h.01M156.6 175.2h.01M157.6 310.3h.01M196.6 354.6h.01M196.7 414.1h.01M53.7 182.0h.01M223.0 255.7h.01M261.5 167.3h.01M191.0 320.0h.01M219.5 325.1h.01M215.7 354.5h.01M221.2 342.2h.01M167.8 261.6h.01M150.7 351.5h.01M163.2 352.1h.01M220.9 259.2h.01M159.6 332.4h.01M79.6 210.7h.01M234.7 244.9h.01M161.5 310.3h.01M222.5 347.8h.01M210.1 326.8h.01M234.0 264.4h.01M156.9 352.7h.01M186.5 335.0h.01M162.2 329.1h.01M189.0 350.0h.01M157.9 358.1h.01M149.2 176.5h.01M189.5 262.8h.01M183.3 370.1h.01M152.9 369.4h.01M187.9 326.0h.01M84.6 222.0h.01M159.1 336.4h.01M173.7 154.5h.01M181.8 273.2h.01M210.0 251.5h.01M176.1 149.2h.01M110.8 326.7h.01M139.7 323.7h.01M161.7 342.2h.01M218.4 236.7h.01M172.8 158.3h.01M196.9 370.8h.01M239.7 339.8h.01M203.4 416.7h.01M192.9 336.4h.01M149.7 196.7h.01M192.3 349.6h.01M175.3 313.9h.01M220.2 334.2h.01M85.3 217.2h.01M197.0 359.1h.01M163.6 320.6h.01M210.0 255.2h.01M165.5 310.7h.01M177.5 167.0h.01M142.4 339.5h.01M164.9 338.6h.01M189.6 347.1h.01M111.4 305.1h.01M125.9 248.2h.01M149.6 333.5h.01M181.4 168.9h.01M146.7 341.5h.01M192.4 354.6h.01M248.5 263.1h.01M165.8 359.7h.01M126.9 337.6h.01M147.3 323.9h.01M265.4 167.9h.01M196.4 333.4h.01M165.5 327.0h.01M226.2 255.9h.01M85.7 205.5h.01M199.5 348.8h.01M135.4 248.1h.01M107.0 335.6h.01M192.6 327.3h.01M201.3 257.0h.01M111.0 310.8h.01M142.5 251.5h.01M197.8 325.3h.01M181.9 269.8h.01M153.3 323.2h.01M231.6 241.8h.01M169.7 297.1h.01M142.0 159.0h.01M155.2 362.3h.01M214.4 316.6h.01M236.0 327.0h.01M212.2 242.2h.01M215.9 255.2h.01M107.8 289.0h.01M199.7 246.7h.01M136.3 311.9h.01M75.7 197.1h.01M179.2 267.6h.01M126.3 316.7h.01M189.6 356.8h.01M216.0 350.2h.01M210.5 323.1h.01M140.2 341.8h.01M190.9 331.6h.01M166.0 149.8h.01M198.4 329.4h.01M224.8 246.8h.01M104.7 290.5h.01M207.6 335.5h.01M71.2 191.5h.01M191.0 360.5h.01M206.6 313.4h.01M141.5 315.8h.01M193.9 357.7h.01M139.6 333.2h.01M213.9 266.3h.01M87.6 200.2h.01M235.3 337.4h.01M177.5 153.1h.01M181.0 368.7h.01M196.4 173.8h.01M118.7 176.8h.01M68.5 189.5h.01M181.6 172.6h.01M123.3 326.5h.01M131.4 249.2h.01M188.1 363.3h.01M168.3 267.5h.01M251.2 257.9h.01M151.5 326.5h.01M145.1 327.6h.01M170.4 334.8h.01M142.7 180.1h.01M204.7 259.1h.01M158.6 326.4h.01M163.2 345.4h.01M196.1 336.6h.01M276.3 173.1h.01M203.5 359.7h.01M82.9 191.4h.01M126.1 329.6h.01M159.5 291.8h.01M215.1 327.3h.01M159.8 297.5h.01M177.0 349.5h.01M121.1 331.9h.01M186.1 258.2h.01M68.6 193.5h.01M145.4 316.0h.01M177.9 337.6h.01M211.3 356.6h.01M165.0 298.2h.01M71.8 219.3h.01M186.8 330.3h.01M191.9 237.4h.01M204.7 339.5h.01M133.2 326.9h.01M253.2 162.3h.01M153.2 335.2h.01M206.1 241.4h.01M62.5 185.0h.01M209.0 332.6h.01M132.5 311.7h.01M202.9 355.3h.01M166.4 174.7h.01M172.2 166.8h.01M189.3 376.0h.01M230.8 340.2h.01M78.0 186.0h.01M134.0 174.4h.01M183.0 366.2h.01M203.3 169.4h.01M199.7 337.5h.01M256.6 263.8h.01M216.9 263.5h.01M148.9 354.6h.01M193.5 262.5h.01M155.6 306.2h.01M137.4 243.9h.01M175.0 311.0h.01M243.7 342.0h.01M195.6 169.1h.01M161.4 358.3h.01M189.7 228.4h.01M173.5 344.1h.01M179.7 156.1h.01M194.7 330.0h.01M183.0 373.5h.01M141.5 327.0h.01M86.5 245.8h.01M226.7 252.6h.01M125.3 301.0h.01M134.6 318.6h.01M177.4 371.2h.01M171.3 315.1h.01M273.8 170.2h.01M219.4 291.7h.01M203.0 346.0h.01M226.3 354.1h.01M201.4 397.2h.01M76.0 175.1h.01M112.6 318.5h.01M200.2 314.7h.01M170.2 343.0h.01M223.7 289.9h.01M228.8 327.2h.01M108.5 317.7h.01M185.3 367.5h.01M193.6 231.9h.01M104.9 316.5h.01M171.2 353.6h.01M157.1 167.3h.01M175.7 367.5h.01M174.5 359.0h.01M163.6 172.5h.01M125.8 351.3h.01M170.2 164.6h.01M182.0 363.0h.01M71.6 195.1h.01M176.9 159.3h.01M162.8 361.3h.01M118.3 321.1h.01M130.8 344.1h.01M152.5 348.0h.01M179.0 362.0h.01M268.8 262.2h.01M143.5 247.5h.01M158.2 302.1h.01M198.9 239.5h.01M110.1 285.0h.01M153.9 344.6h.01M166.9 331.2h.01M128.5 243.1h.01M162.1 247.2h.01M190.7 256.5h.01M148.2 368.4h.01M196.0 256.3h.01M111.3 314.6h.01M171.2 302.4h.01M136.5 325.3h.01M133.9 169.4h.01M143.3 324.5h.01M193.3 352.2h.01M207.6 342.6h.01M194.4 362.9h.01M114.8 312.9h.01M167.7 301.4h.01M219.9 263.3h.01M197.5 316.0h.01M146.9 358.1h.01M204.8 244.7h.01M199.5 353.2h.01M80.6 232.9h.01M196.4 350.1h.01M59.4 197.9h.01M249.1 164.8h.01M128.5 311.7h.01M161.7 168.3h.01M84.0 196.5h.01M77.6 202.6h.01M236.2 258.3h.01M178.0 354.0h.01M195.4 269.2h.01M231.5 248.2h.01M126.5 308.7h.01M186.8 321.8h.01M176.5 356.8h.01M135.7 189.9h.01M159.4 362.6h.01M206.1 346.4h.01M158.9 349.1h.01M138.6 338.1h.01M201.4 263.9h.01M182.6 319.2h.01M203.6 343.1h.01M177.8 170.4h.01M130.9 334.9h.01M182.6 265.6h.01M255.2 397.4h.01M145.5 177.3h.01M252.6 263.1h.01M76.0 194.0h.01M178.0 346.5h.01M176.2 364.0h.01M186.0 170.4h.01M59.6 189.7h.01M153.8 355.1h.01M226.4 262.2h.01M132.5 304.5h.01M138.5 347.8h.01M211.6 350.1h.01M172.6 349.8h.01M200.4 243.5h.01M203.3 336.3h.01M161.2 347.5h.01M207.7 349.9h.01M78.5 191.8h.01M122.4 309.4h.01M162.5 324.2h.01M181.1 258.7h.01M119.2 324.7h.01M177.2 164.0h.01M116.4 317.8h.01M181.0 347.2h.01M208.5 258.2h.01M56.6 177.8h.01M108.4 276.0h.01M227.7 248.6h.01M212.3 233.7h.01M157.5 346.0h.01M146.5 319.5h.01M154.2 171.3h.01M170.7 175.0h.01M132.0 320.5h.01M80.7 194.7h.01M191.5 368.3h.01M59.7 234.2h.01M107.5 313.0h.01M135.7 185.1h.01M187.3 155.0h.01M218.5 337.4h.01M130.3 317.9h.01M200.4 333.1h.01M175.0 303.6h.01M211.2 263.8h.01M180.6 356.6h.01M205.5 396.6h.01M173.6 317.4h.01M181.7 353.2h.01M71.4 248.5h.01M207.0 321.5h.01M130.6 330.1h.01M205.4 352.1h.01M256.8 170.4h.01M157.1 314.3h.01M176.8 324.5h.01M213.6 240.8h.01M246.1 258.4h.01M74.5 207.3h.01M157.7 252.7h.01M159.2 171.9h.01M202.1 370.7h.01M105.5 283.3h.01M77.4 230.1h.01M128.5 304.1h.01M199.6 367.0h.01M76.8 221.5h.01M138.8 329.0h.01M77.4 213.7h.01M59.2 203.1h.01M71.4 198.3h.01M184.2 350.5h.01M206.9 358.5h.01M137.5 351.5h.01M253.5 166.9h.01M197.5 340.5h.01M220.2 246.2h.01M172.4 361.1h.01M165.8 342.4h.01M144.5 349.2h.01M225.4 345.2h.01M174.4 334.6h.01M253.3 154.2h.01M156.0 333.7h.01M186.6 349.7h.01M184.4 167.4h.01M184.9 262.2h.01M82.5 208.0h.01M134.9 332.6h.01M153.2 365.8h.01M180.4 330.8h.01M143.8 357.4h.01M162.7 294.2h.01M269.0 235.5h.01M140.9 245.3h.01M145.3 156.3h.01M190.2 335.4h.01"/>
</svg>