<svg xmlns="http://www.w3.org/2000/svg" viewBox="0 0 360 432" role="img">
<path stroke="#1a1a1a" stroke-width="1.43" stroke-linecap="round" fill="none" d="M222.3 398.2h.01M140.5 243.7h.01M105.0 353.9h.01M93.7 354.2h.01M236.2 379.3h.01M112.3 379.3h.01M90.7 344.9h.01M147.4 217.3h.01M48.0 388.7h.01M86.4 367.0h.01M95.5 339.2h.01M89.5 79.0h.01M78.0 415.9h.01M151.1 380.1h.01M150.4 223.5h.01M186.8 409.2h.01M358.6 103.3h.01M98.6 347.6h.01M358.6 291.3h.01M252.4 425.8h.01M166.4 34.5h.01M84.3 358.5h.01M140.0 218.9h.01M139.0 374.1h.01M0.4 106.1h.01M228.2 391.5h.01M96.2 369.6h.01M243.0 359.8h.01M91.6 330.8h.01M143.0 226.2h.01M112.2 361.2h.01M89.2 374.2h.01M55.4 218.6h.01M119.8 370.1h.01M156.3 243.8h.01M243.3 428.0h.01M99.1 379.0h.01M282.6 177.3h.01M252.6 62.7h.01M243.2 419.4h.01M233.0 386.6h.01M91.9 361.8h.01M107.1 370.3h.01M101.1 361.6h.01M134.8 430.5h.01M88.3 422.2h.01M101.4 394.4h.01M137.7 257.2h.01M229.5 404.8h.01M86.4 350.8h.01M0.4 286.7h.01M106.5 387.6h.01"/>
<path stroke="#1a1a1a" stroke-width="1.92" stroke-linecap="round" fill="none" d="M148.8 159.4h.01M206.6 152.0h.01M250.6 217.8h.01M187.4 119.6h.01M197.5 201.3h.01M231.1 270.6h.01M195.8 118.9h.01M244.0 251.5h.01M208.8 168.3h.01M110.3 346.7h.01M83.6 417.3h.01M199.1 275.9h.01M209.1 289.1h.01M188.7 152.1h.01M206.3 112.7h.01M163.1 238.6h.01M122.5 271.4h.01M358.6 206.0h.01M159.5 233.3h.01M125.0 47.8h.01M189.2 282.0h.01M239.8 369.5h.01M236.0 171.8h.01M69.7 219.6h.01M53.5 388.7h.01M191.0 340.5h.01M184.9 270.8h.01M133.5 220.8h.01M197.7 104.9h.01M225.2 245.6h.01M175.1 219.2h.01M230.9 398.0h.01M152.4 134.2h.01M272.2 266.7h.01M248.8 415.6h.01M234.4 119.1h.01M203.1 122.7h.01M237.5 407.6h.01M150.0 267.4h.01M141.9 265.4h.01M39.1 377.0h.01M169.6 136.7h.01M186.7 102.2h.01M127.1 292.8h.01M196.9 160.6h.01M241.5 386.9h.01M164.2 230.1h.01M80.5 346.9h.01M121.2 254.9h.01M166.5 167.6h.01M191.7 165.1h.01M160.0 115.1h.01M263.4 243.6h.01M179.4 340.1h.01M201.1 281.8h.01M79.0 353.4h.01M149.6 119.8h.01M181.3 91.7h.01M143.7 141.7h.01M186.0 111.1h.01M226.3 176.7h.01M169.7 229.3h.01M170.5 105.3h.01M289.7 197.2h.01M203.9 108.1h.01M149.0 246.7h.01M191.4 201.1h.01M176.4 429.6h.01M240.2 282.8h.01M176.9 224.7h.01M245.8 223.6h.01M180.2 230.5h.01M187.5 186.3h.01M191.8 106.2h.01M185.9 126.9h.01M80.2 411.7h.01M209.3 122.6h.01M202.3 215.7h.01M161.8 157.5h.01M158.4 98.2h.01M202.7 243.8h.01M195.3 336.7h.01M204.1 403.5h.01M254.4 236.2h.01M151.2 274.4h.01M90.3 323.2h.01M185.2 350.8h.01M158.0 250.7h.01M261.0 238.6h.01M172.0 151.4h.01M219.0 151.1h.01M149.7 430.5h.01M182.1 139.9h.01M174.5 156.8h.01M225.7 232.9h.01M0.4 136.3h.01M198.0 132.1h.01M181.4 221.6h.01M175.2 139.6h.01M142.7 211.9h.01M204.7 142.9h.01M253.6 262.5h.01M217.6 100.2h.01M224.7 256.1h.01M139.1 161.6h.01M236.0 260.0h.01M114.1 219.0h.01M94.8 388.4h.01M182.3 345.9h.01M233.3 223.5h.01M155.3 157.4h.01M224.7 149.4h.01M241.1 317.0h.01M129.5 304.5h.01M262.1 309.7h.01M237.1 149.7h.01M185.5 157.4h.01M132.1 314.8h.01M229.3 219.3h.01M135.0 248.9h.01M243.3 276.5h.01M236.3 241.8h.01M250.6 249.8h.01M148.4 209.4h.01M175.3 101.6h.01M141.2 234.9h.01M213.1 112.6h.01M181.1 103.6h.01M247.3 157.8h.01M172.9 96.4h.01M204.7 188.2h.01M185.9 163.4h.01M124.9 207.8h.01M195.8 247.0h.01M186.5 238.8h.01M195.3 292.5h.01M234.5 393.3h.01M243.8 244.6h.01M83.4 341.8h.01M232.6 159.5h.01M252.4 270.7h.01M284.7 151.9h.01M237.8 247.8h.01M222.4 171.0h.01M242.0 262.5h.01M76.8 250.9h.01M232.0 410.8h.01M147.5 136.3h.01M223.7 119.1h.01M358.6 258.7h.01M186.6 170.3h.01M180.0 167.6h.01M169.2 235.6h.01M173.3 117.7h.01M206.9 176.5h.01M153.7 122.6h.01M198.9 403.9h.01M202.4 164.8h.01M160.1 164.1h.01M60.0 398.2h.01M140.6 40.7h.01M194.2 215.5h.01M178.6 311.4h.01M166.3 123.5h.01M239.6 231.8h.01M127.5 184.6h.01M157.9 221.5h.01M137.8 151.8h.01M147.5 147.8h.01M230.4 257.0h.01M146.1 259.9h.01M198.8 287.9h.01M210.9 117.2h.01M242.0 269.0h.01M193.3 91.0h.01M177.1 334.7h.01M180.5 97.3h.01M184.0 285.0h.01M226.0 134.9h.01M62.9 212.0h.01M135.1 368.7h.01M101.6 427.2h.01M240.1 161.1h.01M223.7 239.2h.01M170.3 217.1h.01M125.4 237.9h.01M144.3 272.1h.01M118.0 206.9h.01M129.3 298.6h.01M248.0 257.2h.01M358.6 157.8h.01M204.8 94.0h.01M196.2 221.3h.01M147.1 315.9h.01M147.0 322.9h.01M183.6 248.4h.01M148.5 231.5h.01M143.3 151.7h.01M235.1 253.0h.01M231.7 246.8h.01M257.5 251.8h.01M201.4 148.6h.01M79.6 365.3h.01M191.6 157.9h.01M113.1 212.9h.01M197.2 138.6h.01M132.4 158.8h.01M141.6 136.2h.01M137.5 0.4h.01M184.4 311.0h.01M227.9 251.3h.01M263.1 219.5h.01M225.5 215.6h.01M209.0 104.1h.01M227.0 266.5h.01M195.0 188.2h.01M127.8 216.4h.01M358.6 132.7h.01M230.9 174.3h.01M219.8 404.7h.01M135.8 269.9h.01M161.2 145.1h.01M245.5 339.3h.01M186.9 192.6h.01M155.2 141.7h.01M70.9 230.6h.01M190.0 275.1h.01M160.3 214.2h.01M214.5 173.2h.01M136.8 156.3h.01M161.8 344.0h.01M200.2 258.1h.01M188.0 178.4h.01M180.9 387.6h.01M175.8 113.2h.01M180.7 152.7h.01M203.7 99.1h.01M179.7 124.9h.01M168.2 117.9h.01M168.0 159.4h.01M220.7 389.0h.01M236.8 279.2h.01M156.7 111.3h.01M161.8 109.8h.01M224.8 140.8h.01M196.7 209.6h.01M222.5 114.7h.01M215.0 404.4h.01M243.3 312.6h.01M219.3 165.3h.01M189.8 288.9h.01M127.5 274.2h.01M175.6 290.4h.01M149.4 153.6h.01M113.4 253.9h.01M192.9 173.6h.01M216.9 119.1h.01M173.7 170.8h.01M190.5 227.0h.01M0.4 219.3h.01M183.3 34.4h.01M206.9 159.5h.01M226.3 162.8h.01M112.7 242.0h.01M84.5 323.6h.01M118.8 224.9h.01M256.5 217.8h.01M203.4 117.1h.01M82.2 335.8h.01M164.4 217.8h.01M135.9 228.8h.01M221.4 131.0h.01M140.1 306.3h.01M219.0 144.0h.01M164.5 223.6h.01M130.8 282.8h.01M158.3 151.1h.01M286.8 139.0h.01M123.5 249.1h.01M213.3 101.7h.01M191.6 146.7h.01M228.9 119.5h.01M162.0 119.6h.01M241.3 348.1h.01M192.6 124.9h.01M196.6 168.2h.01M189.1 213.2h.01M0.4 163.3h.01M234.2 165.7h.01M238.4 397.5h.01M206.6 283.8h.01M219.6 158.2h.01M162.8 430.1h.01M153.5 148.5h.01M164.8 133.2h.01M72.1 246.8h.01M240.0 412.4h.01M88.4 337.1h.01M139.1 312.8h.01M254.6 229.2h.01M181.4 175.0h.01M0.4 190.5h.01M248.6 189.3h.01M147.1 239.5h.01M170.4 242.4h.01M154.2 215.1h.01M259.0 224.2h.01M200.8 251.1h.01M226.1 156.1h.01M203.5 103.5h.01M135.0 319.8h.01M201.0 156.3h.01M157.1 105.4h.01M120.2 212.9h.01M219.1 125.0h.01M230.7 276.4h.01M236.0 218.5h.01M169.6 128.9h.01M150.3 127.3h.01M358.6 231.3h.01M116.8 236.3h.01M126.1 260.7h.01M179.9 160.2h.01M158.9 123.7h.01M134.5 238.2h.01M173.3 123.7h.01M210.3 108.7h.01M174.2 258.3h.01M229.0 114.0h.01M228.7 145.1h.01M220.2 177.1h.01M180.5 117.9h.01M257.1 244.9h.01M237.4 422.6h.01M239.5 225.7h.01M194.8 278.7h.01M251.1 243.1h.01M146.4 164.3h.01M126.5 280.2h.01M181.1 109.7h.01M241.6 220.2h.01M256.0 267.0h.01M192.5 98.4h.01M136.3 212.2h.01M173.6 164.0h.01M44.3 383.0h.01M191.7 406.5h.01M198.5 177.1h.01M232.9 229.8h.01M231.3 214.8h.01M168.5 100.1h.01M152.1 110.9h.01M170.1 144.8h.01M201.2 207.3h.01M253.6 256.2h.01M285.2 208.0h.01M224.5 221.6h.01M145.6 130.2h.01M261.3 232.0h.01M234.7 402.2h.01M190.1 312.1h.01M160.7 257.9h.01M231.9 210.1h.01M116.1 248.4h.01M197.0 144.3h.01M94.8 423.6h.01M191.8 113.2h.01M215.0 181.1h.01M266.0 297.0h.01M113.4 230.4h.01M191.0 207.7h.01M247.4 238.1h.01M252.2 169.0h.01M124.3 360.5h.01M227.2 128.9h.01M55.0 394.4h.01M138.9 276.6h.01M184.4 226.3h.01M195.8 152.5h.01M248.4 304.5h.01M153.2 260.4h.01M216.0 107.2h.01M175.5 107.5h.01M224.2 124.4h.01M358.6 181.5h.01M212.1 148.7h.01M237.1 155.5h.01M242.5 366.6h.01M181.5 290.1h.01M149.3 115.1h.01M84.9 330.1h.01M270.1 278.9h.01M112.5 204.7h.01M63.6 402.9h.01M193.6 181.8h.01M149.7 142.0h.01M199.1 233.8h.01M129.7 232.5h.01M173.9 339.7h.01M208.8 98.7h.01M235.9 314.1h.01M137.5 141.8h.01M165.0 114.3h.01M131.6 288.6h.01M174.6 131.6h.01M72.8 214.3h.01M231.8 264.2h.01M125.8 286.5h.01M165.2 140.5h.01M68.7 407.3h.01M158.2 132.4h.01M231.5 125.0h.01M164.0 264.4h.01M182.5 0.4h.01M143.1 252.1h.01M187.1 94.5h.01M212.2 142.2h.01M236.6 267.2h.01M164.6 105.9h.01M190.2 243.3h.01M241.2 256.4h.01M141.4 146.5h.01M127.4 225.0h.01M120.3 242.7h.01M176.3 346.0h.01M185.1 146.2h.01M205.0 341.9h.01M224.4 109.3h.01M121.6 219.2h.01M251.8 223.6h.01M43.1 372.5h.01M198.3 97.8h.01M210.8 135.9h.01M228.4 168.7h.01M269.7 0.4h.01M140.2 125.2h.01M240.6 237.7h.01M190.4 140.2h.01M133.2 308.8h.01M203.1 201.0h.01M125.1 162.7h.01M65.5 217.3h.01M129.5 254.2h.01M159.4 137.9h.01M228.2 226.5h.01M240.4 167.3h.01M246.4 284.0h.01M191.9 234.2h.01M251.8 282.3h.01M191.8 350.0h.01M177.8 146.4h.01M218.5 137.2h.01M155.5 128.3h.01M247.3 269.7h.01M213.3 163.3h.01M155.6 228.1h.01M229.7 240.4h.01M198.5 111.9h.01M241.9 354.4h.01M213.7 125.4h.01M180.2 132.3h.01M203.4 229.7h.01M133.1 262.3h.01M265.3 226.4h.01M196.0 239.7h.01M193.7 256.9h.01M208.8 182.6h.01M64.7 341.8h.01M210.0 239.8h.01M146.2 123.5h.01M136.1 135.0h.01M119.1 260.9h.01M154.1 237.0h.01M143.1 157.6h.01M61.5 346.0h.01M231.2 151.9h.01M211.5 250.8h.01M164.6 245.3h.01M204.1 238.0h.01M150.8 38.7h.01M203.2 223.4h.01M222.6 226.7h.01M235.5 428.6h.01M121.5 231.1h.01M0.4 250.6h.01M196.7 227.8h.01M245.7 162.2h.01M231.9 138.7h.01M129.2 244.5h.01M207.1 129.4h.01M74.2 411.1h.01M181.1 306.8h.01M200.1 193.6h.01M110.4 224.3h.01M247.4 230.9h.01M192.9 194.7h.01M234.3 144.9h.01M227.0 261.2h.01M201.7 182.9h.01M139.8 130.8h.01M232.8 235.5h.01M130.5 210.4h.01M108.8 236.2h.01M235.3 416.3h.01M108.4 209.3h.01M201.2 310.0h.01M91.4 0.4h.01M128.5 267.9h.01M174.8 229.6h.01M165.1 151.0h.01M189.1 220.5h.01M206.9 254.6h.01M185.9 134.4h.01M215.4 131.2h.01M202.0 171.8h.01M199.0 126.2h.01M170.4 348.6h.01M191.5 132.3h.01M157.7 266.0h.01M169.4 110.9h.01M132.7 276.7h.01M163.0 127.9h.01M249.3 276.8h.01M141.4 324.8h.01M74.3 240.9h.01M248.0 263.7h.01M203.9 288.2h.01M145.4 278.9h.01M226.0 0.4h.01M68.5 211.8h.01M141.2 318.3h.01M255.2 275.9h.01M153.0 163.9h.01M204.0 135.9h.01M151.8 253.7h.01M212.7 156.0h.01M205.4 207.0h.01"/>
<path stroke="#1a1a1a" stroke-width="2.36" stroke-linecap="round" fill="none" d="M135.2 128.2h.01M228.6 336.8h.01M69.4 204.7h.01M284.8 237.5h.01M136.9 95.9h.01M222.1 211.7h.01M251.6 116.2h.01M139.2 181.3h.01M157.2 272.8h.01M191.0 316.7h.01M202.7 74.7h.01M213.5 229.8h.01M167.0 363.7h.01M212.0 95.1h.01M259.2 258.8h.01M212.5 292.5h.01M197.2 78.5h.01M141.8 120.7h.01M177.2 284.6h.01M231.0 92.4h.01M201.9 359.4h.01M79.1 245.1h.01M71.9 183.5h.01M163.2 88.6h.01M223.8 292.7h.01M208.5 90.3h.01M210.4 342.3h.01M242.8 172.6h.01M88.8 317.5h.01M200.4 338.0h.01M216.3 292.1h.01M177.0 304.3h.01M134.8 164.8h.01M177.8 84.9h.01M107.7 258.4h.01M169.0 207.4h.01M118.8 285.0h.01M164.8 202.2h.01M118.3 110.4h.01M200.4 344.1h.01M195.7 309.9h.01M230.7 108.9h.01M105.4 253.6h.01M220.9 282.1h.01M222.5 338.1h.01M74.6 405.9h.01M204.0 86.3h.01M236.2 335.5h.01M247.6 91.3h.01M135.9 325.4h.01M217.9 257.5h.01M159.3 76.9h.01M145.5 309.3h.01M174.1 279.6h.01M113.6 119.9h.01M142.1 283.2h.01M128.2 81.7h.01M169.3 91.2h.01M284.9 227.0h.01M121.7 165.4h.01M82.3 317.6h.01M145.6 73.6h.01M129.0 92.1h.01M140.4 90.0h.01M150.6 307.2h.01M208.1 79.6h.01M169.3 309.4h.01M219.4 293.7h.01M182.9 87.2h.01M149.7 106.5h.01M204.0 276.4h.01M165.1 332.6h.01M234.2 318.8h.01M208.4 233.4h.01M234.9 323.9h.01M194.0 427.1h.01M252.2 301.5h.01M209.9 84.8h.01M228.1 77.6h.01M187.7 72.8h.01M226.2 202.4h.01M171.5 304.9h.01M223.9 379.7h.01M243.2 134.1h.01M105.9 213.5h.01M187.9 87.0h.01M141.1 107.2h.01M74.3 208.7h.01M251.7 149.2h.01M159.0 92.5h.01M62.0 393.0h.01M266.5 215.2h.01M181.5 256.3h.01M110.3 199.5h.01M155.1 348.9h.01M240.0 293.1h.01M161.5 320.9h.01M162.4 101.1h.01M236.9 388.9h.01M62.0 221.0h.01M212.7 77.6h.01M122.2 146.2h.01M232.3 339.6h.01M234.7 299.6h.01M70.4 191.6h.01M117.5 171.1h.01M223.6 286.6h.01M207.8 64.0h.01M121.3 201.6h.01M83.0 311.7h.01M64.1 244.4h.01M285.8 198.7h.01M176.9 251.9h.01M256.0 113.1h.01M235.6 113.6h.01M135.7 197.6h.01M123.8 302.1h.01M109.4 265.0h.01M144.1 291.2h.01M68.5 241.7h.01M198.0 315.8h.01M171.1 356.7h.01M85.8 306.7h.01M240.2 364.1h.01M194.7 284.7h.01M285.8 183.7h.01M104.1 248.3h.01M173.7 211.5h.01M171.5 295.9h.01M243.0 211.6h.01M251.6 110.0h.01M119.0 195.5h.01M75.0 347.4h.01M246.1 204.3h.01M214.7 329.3h.01M219.6 326.9h.01M233.6 309.5h.01M188.8 346.2h.01M183.4 64.5h.01M154.4 293.6h.01M112.0 270.0h.01M217.0 205.4h.01M256.4 117.8h.01M261.5 157.9h.01M243.4 305.5h.01M226.8 94.5h.01M239.2 326.0h.01M258.0 134.3h.01M165.3 95.0h.01M169.8 275.5h.01M152.8 101.1h.01M138.8 102.0h.01M134.1 108.2h.01M212.0 187.0h.01M174.6 383.8h.01M161.2 328.6h.01M69.0 401.2h.01M171.5 285.3h.01M106.0 242.7h.01M73.7 143.9h.01M197.3 360.9h.01M181.7 331.6h.01M239.5 96.9h.01M235.4 294.2h.01M136.8 119.4h.01M262.4 144.6h.01M162.1 82.2h.01M175.6 234.9h.01M119.2 354.8h.01M127.1 146.6h.01M206.0 272.3h.01M188.2 359.5h.01M194.2 272.6h.01M178.2 180.5h.01M175.5 307.8h.01M157.5 297.3h.01M134.3 114.4h.01M156.7 204.5h.01M160.3 202.6h.01M75.7 341.7h.01M181.8 364.2h.01M215.9 67.5h.01M258.6 141.0h.01M169.8 342.3h.01M186.5 203.3h.01M119.2 162.4h.01M264.5 76.6h.01M101.9 238.0h.01M224.3 318.0h.01M219.4 234.5h.01M263.2 249.4h.01M144.6 346.2h.01M103.2 233.2h.01M249.0 141.9h.01M271.2 227.6h.01M166.9 80.5h.01M137.9 83.8h.01M145.7 102.6h.01M117.6 166.6h.01M181.6 201.9h.01M179.4 67.4h.01M97.3 224.9h.01M115.3 96.4h.01M272.0 87.7h.01M185.8 340.9h.01M136.6 283.1h.01M125.4 102.2h.01M126.0 152.6h.01M190.0 58.3h.01M216.8 248.8h.01M119.8 139.1h.01M229.2 320.3h.01M217.0 94.7h.01M235.1 88.9h.01M225.6 89.3h.01M200.6 392.2h.01M206.8 260.1h.01M185.9 198.0h.01M194.7 343.5h.01M58.5 204.2h.01M256.5 194.1h.01M242.8 92.8h.01M219.6 287.4h.01M118.5 129.2h.01M249.4 129.0h.01M283.6 157.1h.01M80.1 322.9h.01M121.9 106.9h.01M123.6 80.3h.01M152.7 319.9h.01M220.9 272.3h.01M238.9 52.9h.01M130.4 135.2h.01M155.5 117.5h.01M193.1 34.6h.01M217.6 71.2h.01M206.2 69.1h.01M195.7 384.8h.01M209.5 274.3h.01M221.5 85.2h.01M174.7 272.0h.01M234.3 98.2h.01M205.9 293.5h.01M97.9 233.6h.01M157.0 344.5h.01M259.9 277.3h.01M242.8 87.9h.01M167.7 295.4h.01M143.5 334.2h.01M235.8 107.6h.01M257.6 130.3h.01M58.4 212.7h.01M181.1 196.5h.01M129.9 118.7h.01M237.3 304.7h.01M256.6 148.5h.01M185.9 78.7h.01M109.5 248.5h.01M210.2 215.3h.01M73.8 401.0h.01M160.4 350.5h.01M196.8 262.9h.01M220.3 344.1h.01M122.8 113.8h.01M282.8 200.8h.01M114.1 195.6h.01M216.0 281.9h.01M258.6 155.1h.01M80.6 406.9h.01M134.7 206.6h.01M138.4 336.7h.01M195.0 303.8h.01M284.9 231.8h.01M107.0 422.1h.01M61.8 226.5h.01M241.7 114.4h.01M246.3 150.4h.01M152.9 88.6h.01M240.8 379.3h.01M239.2 90.5h.01M246.2 118.3h.01M222.9 77.5h.01M214.1 89.4h.01M253.3 157.9h.01M253.2 104.4h.01M254.8 122.0h.01M217.4 76.3h.01M101.0 202.8h.01M226.8 341.7h.01M60.6 231.3h.01M254.4 136.0h.01M191.3 307.4h.01M61.9 192.1h.01M147.0 329.7h.01M269.6 221.4h.01M97.2 205.3h.01M136.0 147.6h.01M237.8 209.8h.01M60.7 235.4h.01M187.4 255.4h.01M214.9 347.1h.01M216.3 388.1h.01M68.3 180.8h.01M122.2 277.4h.01M192.6 331.1h.01M179.0 62.0h.01M128.3 113.3h.01M114.6 164.5h.01M221.3 252.2h.01M121.3 266.0h.01M238.6 383.8h.01M281.9 111.6h.01M284.6 217.0h.01M219.9 321.5h.01M150.8 280.6h.01M170.5 202.2h.01M160.3 208.9h.01M160.7 356.4h.01M221.7 259.2h.01M218.1 222.4h.01M134.4 89.3h.01M229.7 206.8h.01M213.2 277.1h.01M151.4 335.1h.01M222.6 99.3h.01M264.2 208.1h.01M168.7 428.2h.01M221.0 73.4h.01M242.5 154.1h.01M210.5 389.8h.01M166.7 67.5h.01M169.0 76.8h.01M222.1 93.8h.01M200.4 428.0h.01M216.8 240.1h.01M215.3 287.1h.01M124.5 308.4h.01M161.4 280.9h.01M148.1 374.5h.01M197.5 84.7h.01M197.7 58.6h.01M77.4 235.6h.01M126.4 313.1h.01M172.0 68.0h.01M136.2 301.8h.01M168.0 328.5h.01M131.9 102.4h.01M212.9 224.0h.01M175.5 425.6h.01M254.8 153.1h.01M196.4 352.9h.01M205.4 356.9h.01M175.5 240.0h.01M117.8 275.1h.01M131.7 96.6h.01M184.3 217.8h.01M241.5 287.4h.01M231.2 281.5h.01M224.8 73.9h.01M211.2 281.3h.01M264.8 261.5h.01M130.3 129.8h.01M288.3 203.7h.01M131.1 324.9h.01M166.9 212.3h.01M158.1 291.0h.01M123.0 126.5h.01M132.9 182.7h.01M234.8 82.7h.01M129.3 87.0h.01M191.5 83.4h.01M261.0 147.8h.01M206.8 247.8h.01M260.7 151.3h.01M150.4 346.9h.01M171.5 315.2h.01M199.7 91.1h.01M117.9 428.5h.01M187.2 363.4h.01M109.7 428.1h.01M222.4 276.9h.01M237.3 129.0h.01M152.2 285.6h.01M64.5 202.8h.01M127.5 107.7h.01M165.6 346.6h.01M239.6 309.2h.01M99.8 220.2h.01M120.9 169.4h.01M216.8 210.0h.01M181.9 190.1h.01M243.7 290.9h.01M134.1 295.3h.01M176.0 71.2h.01M239.1 321.3h.01M191.7 363.4h.01M214.6 215.3h.01M101.7 216.0h.01M120.6 158.5h.01M125.4 167.9h.01M125.5 96.8h.01M177.0 357.9h.01M57.3 193.9h.01M185.9 232.4h.01M182.5 82.1h.01M99.5 229.1h.01M164.2 289.9h.01M260.9 212.9h.01M231.7 80.0h.01M119.8 134.0h.01M182.9 182.5h.01M61.1 196.1h.01M200.5 69.3h.01M185.9 307.0h.01M191.0 386.3h.01M260.7 264.1h.01M168.3 270.1h.01M151.3 297.0h.01M200.2 304.1h.01M181.5 73.5h.01M147.5 337.8h.01M238.4 140.5h.01M146.0 350.5h.01M133.3 335.9h.01M198.2 356.3h.01M128.2 140.7h.01M164.5 324.6h.01M179.5 352.5h.01M120.3 94.9h.01M240.5 403.4h.01M173.0 311.3h.01M213.3 268.0h.01M132.8 123.4h.01M227.0 104.1h.01M250.2 121.3h.01M63.3 188.7h.01M121.2 150.0h.01M113.8 168.5h.01M160.9 286.1h.01M149.3 83.8h.01M115.5 282.5h.01M230.3 325.1h.01M218.3 228.5h.01M156.3 279.2h.01M231.9 290.6h.01M183.9 315.7h.01M100.0 246.4h.01M262.0 140.5h.01M89.9 417.0h.01M75.3 231.9h.01M247.6 60.4h.01M169.9 335.0h.01M76.3 217.6h.01M202.2 353.8h.01M144.6 301.7h.01M183.9 213.1h.01M178.3 204.6h.01M155.7 199.1h.01M254.2 140.7h.01M124.7 131.7h.01M238.7 331.0h.01M103.3 224.2h.01M126.5 157.9h.01M240.1 214.9h.01M227.5 291.1h.01M253.3 130.9h.01M156.5 285.5h.01M163.8 74.5h.01M140.2 296.6h.01M211.9 337.5h.01M220.4 384.0h.01M208.1 73.9h.01M268.4 239.3h.01M248.2 172.5h.01M243.6 123.2h.01M180.5 417.3h.01M212.1 351.5h.01M268.2 233.5h.01M175.4 296.0h.01M159.0 170.8h.01M156.1 307.1h.01M285.3 146.0h.01M196.9 73.1h.01M165.8 306.8h.01M134.5 44.0h.01M120.4 154.2h.01M142.2 165.9h.01M217.2 353.6h.01M174.1 330.4h.01M246.8 316.2h.01M163.4 276.1h.01M208.5 227.1h.01M113.7 259.4h.01M90.4 411.9h.01M170.4 223.6h.01M173.6 87.3h.01M219.9 350.2h.01M106.4 229.2h.01M223.9 346.0h.01M44.8 378.0h.01M258.0 144.3h.01M232.7 333.6h.01M225.3 327.8h.01M131.3 152.6h.01M75.0 255.9h.01M253.0 191.5h.01M245.3 138.0h.01M65.9 224.2h.01M243.9 321.7h.01M162.7 270.5h.01M212.8 72.0h.01M180.8 236.6h.01M208.6 347.0h.01M206.1 311.8h.01M152.0 326.9h.01M202.6 348.7h.01M184.4 207.6h.01M247.5 146.0h.01M116.9 270.3h.01M66.7 248.9h.01M245.3 216.3h.01M158.3 312.4h.01M245.6 96.2h.01M220.8 217.8h.01M95.3 416.0h.01M216.3 273.4h.01M183.8 335.7h.01M117.8 144.4h.01M210.7 332.0h.01M246.7 106.7h.01M206.1 392.8h.01M252.1 297.5h.01M188.5 66.9h.01M181.0 242.7h.01M191.0 295.7h.01M246.3 167.2h.01M225.8 333.2h.01M251.6 288.3h.01M142.6 96.3h.01M187.2 261.1h.01M69.9 173.6h.01M193.1 69.6h.01M124.0 90.3h.01M221.6 207.6h.01M119.2 90.0h.01M203.4 429.7h.01M217.0 335.3h.01M260.4 126.4h.01M251.5 163.4h.01M171.7 34.8h.01M233.7 285.5h.01M223.5 313.5h.01M257.0 160.7h.01M168.3 85.5h.01M287.1 212.4h.01M146.8 285.8h.01M123.9 85.1h.01M204.0 316.0h.01M246.8 308.9h.01M207.3 279.1h.01M114.3 265.3h.01M173.4 81.4h.01M193.5 358.4h.01M246.8 296.1h.01M231.3 86.7h.01M178.5 215.3h.01M235.6 213.3h.01M227.3 310.0h.01M207.1 212.1h.01M174.0 75.7h.01M161.1 308.4h.01M174.1 176.6h.01M124.7 136.9h.01M185.6 293.6h.01M268.6 245.5h.01M239.1 176.3h.01M101.4 209.0h.01M261.7 170.0h.01M150.7 352.0h.01M105.4 341.3h.01M235.7 93.8h.01M214.6 323.9h.01M179.6 209.7h.01M178.7 78.2h.01M261.2 268.5h.01M80.1 327.8h.01M148.3 96.7h.01M176.9 363.3h.01M157.5 325.0h.01M114.3 111.1h.01M219.8 245.0h.01M133.2 82.3h.01M171.6 361.9h.01M116.2 104.3h.01M154.4 208.7h.01M139.4 330.4h.01M237.5 124.0h.01M177.2 315.7h.01M184.6 413.1h.01M166.2 357.3h.01M182.5 359.7h.01M211.2 285.5h.01M205.7 329.7h.01M216.8 262.0h.01M128.5 318.8h.01M230.1 329.9h.01M189.1 392.1h.01M114.1 422.7h.01M187.9 62.2h.01M237.2 273.6h.01M248.8 125.2h.01M143.5 84.3h.01M95.0 209.7h.01M261.8 162.9h.01M60.5 216.2h.01M216.7 269.5h.01M175.9 92.0h.01M220.7 105.2h.01M206.4 398.0h.01M165.8 352.3h.01M281.8 169.2h.01M199.2 331.1h.01M224.3 323.1h.01M146.7 90.2h.01M123.6 142.1h.01M161.3 69.7h.01M188.7 303.8h.01M57.3 385.1h.01M250.0 153.9h.01M179.8 295.1h.01M249.5 97.9h.01M263.7 255.3h.01M258.9 137.7h.01M228.3 380.6h.01M213.0 244.5h.01M250.8 137.8h.01M234.8 328.9h.01M220.7 331.8h.01M227.5 84.8h.01M150.6 290.4h.01M119.6 100.3h.01M106.5 204.7h.01M246.8 300.5h.01M175.9 245.7h.01M136.2 290.4h.01M253.4 187.5h.01M50.3 383.1h.01M143.0 340.5h.01M69.9 225.6h.01M242.8 296.6h.01M164.1 206.9h.01M154.9 331.8h.01M207.7 220.2h.01M212.6 257.2h.01M241.6 301.3h.01M118.1 123.4h.01M116.2 149.8h.01M259.1 272.1h.01M192.0 263.5h.01M140.6 346.1h.01M70.4 252.8h.01M215.3 83.2h.01M66.0 395.9h.01M237.7 134.4h.01M256.5 286.9h.01M251.2 293.9h.01M123.9 120.1h.01M249.0 133.8h.01M255.7 126.1h.01M180.0 268.2h.01M172.9 326.4h.01M185.9 386.9h.01M152.6 340.9h.01M71.3 236.1h.01M168.1 280.6h.01M145.4 110.9h.01M150.1 77.4h.01M59.3 389.3h.01M222.9 268.4h.01M198.9 388.0h.01M85.2 411.2h.01M242.2 187.1h.01M243.5 128.6h.01M244.3 56.6h.01M225.4 206.6h.01M218.3 277.1h.01M127.7 124.7h.01M205.9 195.2h.01M257.2 166.4h.01M169.0 72.1h.01M184.9 355.8h.01M132.8 140.6h.01M206.4 307.0h.01M152.7 312.9h.01M162.2 315.9h.01M218.3 112.8h.01M173.7 352.3h.01M122.1 283.1h.01M165.8 284.9h.01M213.7 235.3h.01M209.5 356.5h.01M164.8 338.6h.01M194.5 390.2h.01M258.4 189.8h.01M122.4 295.4h.01M260.0 121.1h.01M118.0 279.7h.01M162.5 294.1h.01M212.1 210.0h.01M191.7 77.0h.01M211.3 67.3h.01M196.8 348.1h.01M116.7 200.3h.01M243.0 100.5h.01M243.5 399.9h.01M178.6 275.4h.01M256.8 281.5h.01M191.8 429.9h.01M100.1 198.0h.01M202.1 263.8h.01M165.1 251.7h.01M247.5 290.6h.01M202.7 80.5h.01M133.8 330.8h.01M184.0 69.0h.01M203.0 58.9h.01M118.3 117.1h.01M131.8 146.3h.01M212.8 271.5h.01M139.5 112.8h.01M193.2 63.1h.01M107.2 219.0h.01M155.5 354.1h.01M169.3 290.3h.01M147.7 342.8h.01M121.4 289.6h.01M259.2 71.5h.01M96.9 214.2h.01M100.9 420.1h.01M104.7 199.9h.01M232.0 132.2h.01M203.0 64.1h.01M248.0 102.1h.01M154.8 80.5h.01M249.4 312.2h.01M238.4 85.4h.01M138.5 341.9h.01M159.2 361.2h.01M225.8 280.6h.01M170.8 248.9h.01M66.0 230.9h.01M143.7 116.5h.01M237.0 288.9h.01M168.6 255.2h.01M184.5 276.6h.01M157.4 85.7h.01M240.1 103.8h.01M227.0 211.0h.01M159.8 333.6h.01M200.7 397.4h.01M238.5 298.0h.01M219.1 89.5h.01M174.2 205.8h.01M107.0 270.5h.01M220.1 80.7h.01M207.0 351.7h.01M109.8 193.9h.01M157.2 317.8h.01M50.4 378.4h.01M240.9 109.3h.01M204.5 388.0h.01M255.3 291.9h.01M94.9 201.1h.01M190.1 249.8h.01M241.4 147.0h.01M226.1 81.1h.01M197.9 64.6h.01M189.0 334.9h.01M218.2 214.4h.01M99.7 242.2h.01M215.9 310.3h.01M225.9 273.9h.01M171.5 196.4h.01M143.6 78.7h.01M227.9 286.0h.01M229.6 314.7h.01M129.8 163.7h.01M253.1 144.9h.01M156.4 192.1h.01M243.5 142.3h.01M153.4 94.3h.01M140.0 288.4h.01M206.0 335.7h.01M123.9 187.9h.01M216.4 341.3h.01M158.0 338.6h.01M200.7 293.9h.01M233.9 102.9h.01M115.8 191.0h.01M240.3 119.3h.01M216.3 41.4h.01M245.6 407.9h.01M180.7 280.3h.01M228.9 99.2h.01M190.2 354.7h.01M283.2 116.4h.01M63.4 206.9h.01M140.8 206.6h.01M246.8 112.4h.01"/>
<path stroke="#1a1a1a" stroke-width="2.86" stroke-linecap="round" fill="none" d="M243.4 327.2h.01M182.3 429.1h.01M203.0 54.1h.01M88.3 217.0h.01M273.1 216.6h.01M239.0 351.0h.01M111.6 99.2h.01M265.1 143.4h.01M58.2 218.6h.01M116.3 176.0h.01M142.8 64.5h.01M81.3 252.8h.01M259.3 96.4h.01M263.6 96.0h.01M207.9 54.0h.01M104.0 165.1h.01M166.9 316.4h.01M71.0 179.1h.01M157.8 51.0h.01M195.3 411.5h.01M98.3 254.6h.01M203.4 325.2h.01M251.5 309.0h.01M270.7 126.8h.01M195.1 395.1h.01M113.2 145.7h.01M285.2 221.9h.01M235.9 191.1h.01M182.2 368.5h.01M111.4 190.4h.01M255.3 67.7h.01M177.1 193.9h.01M95.1 220.6h.01M150.9 65.9h.01M107.8 188.3h.01M121.3 325.1h.01M247.7 82.1h.01M67.7 339.0h.01M157.6 365.9h.01M143.6 58.1h.01M153.6 50.1h.01M194.2 45.6h.01M89.2 137.5h.01M274.3 238.9h.01M161.6 51.9h.01M218.3 266.4h.01M265.9 157.7h.01M267.4 272.5h.01M104.4 170.3h.01M46.7 373.3h.01M262.7 100.9h.01M201.9 49.1h.01M89.8 200.9h.01M95.5 246.6h.01M108.3 155.0h.01M225.0 68.9h.01M131.0 63.5h.01M275.0 221.6h.01M215.8 319.5h.01M108.6 142.2h.01M123.2 317.5h.01M239.9 338.2h.01M186.9 429.6h.01M183.1 324.7h.01M198.4 52.9h.01M88.5 232.5h.01M114.9 306.9h.01M123.3 182.7h.01M252.5 93.4h.01M267.2 110.3h.01M110.9 123.5h.01M154.0 53.3h.01M101.6 161.0h.01M146.9 62.1h.01M99.4 184.3h.01M111.7 87.7h.01M180.4 49.1h.01M104.4 114.5h.01M90.1 142.9h.01M243.6 83.2h.01M212.0 54.5h.01M267.5 129.1h.01M94.1 166.8h.01M113.4 275.0h.01M117.5 324.5h.01M220.2 309.8h.01M223.3 306.4h.01M280.3 239.1h.01M154.1 57.8h.01M198.7 267.5h.01M102.1 126.8h.01M280.2 233.7h.01M160.9 198.7h.01M282.7 186.0h.01M75.1 183.0h.01M131.5 168.1h.01M95.7 182.0h.01M215.4 196.8h.01M107.2 181.4h.01M109.8 289.0h.01M95.6 250.6h.01M223.3 198.1h.01M266.7 178.3h.01M114.2 180.3h.01M160.6 369.3h.01M221.1 64.5h.01M133.1 201.3h.01M142.5 61.0h.01M76.8 196.7h.01M100.0 139.0h.01M194.5 268.3h.01M175.2 64.8h.01M125.2 327.2h.01M260.4 111.3h.01M197.4 325.8h.01M95.9 196.8h.01M110.2 94.1h.01M89.9 407.1h.01M106.8 109.4h.01M101.3 102.4h.01M277.3 203.7h.01M137.8 202.2h.01M241.0 334.3h.01M59.3 186.3h.01M131.5 343.5h.01M106.4 287.1h.01M158.4 59.8h.01M49.9 371.4h.01M115.5 83.5h.01M146.9 53.6h.01M188.9 421.9h.01M103.7 283.9h.01M78.8 402.7h.01M153.4 169.4h.01M112.3 310.1h.01M222.3 297.9h.01M240.0 358.0h.01M139.8 73.4h.01M229.3 196.7h.01M146.5 296.0h.01M117.0 186.4h.01M115.4 133.6h.01M236.1 339.3h.01M174.5 55.1h.01M176.6 324.0h.01M187.5 49.9h.01M223.8 409.2h.01M230.2 61.1h.01M95.8 121.5h.01M155.6 68.2h.01M108.9 90.1h.01M178.5 368.3h.01M268.9 206.5h.01M102.0 258.3h.01M87.7 224.3h.01M110.1 179.1h.01M211.3 319.9h.01M68.6 199.0h.01M105.3 415.7h.01M139.5 55.5h.01M254.0 98.4h.01M84.5 401.9h.01M260.8 115.6h.01M213.5 264.6h.01M105.7 185.5h.01M259.9 291.7h.01M228.0 346.8h.01M55.8 378.5h.01M148.1 58.0h.01M58.9 208.5h.01M112.3 176.1h.01M114.5 319.7h.01M121.0 330.0h.01M161.8 365.5h.01M91.9 205.7h.01M263.4 166.9h.01M248.3 319.7h.01M77.0 188.8h.01M108.7 137.3h.01M215.9 253.8h.01M231.7 305.4h.01M165.7 298.6h.01M146.7 67.3h.01M211.1 310.3h.01M102.1 142.8h.01M56.9 199.2h.01M215.4 393.2h.01M103.6 179.3h.01M231.0 180.4h.01M170.3 323.5h.01M93.3 192.9h.01M171.4 319.7h.01M266.1 148.0h.01M257.2 296.0h.01M178.7 185.8h.01M133.3 73.0h.01M196.9 425.5h.01M231.8 422.4h.01M77.7 398.5h.01M178.1 57.7h.01M203.7 298.7h.01M176.4 50.9h.01M188.6 54.0h.01M131.5 77.2h.01M138.7 167.0h.01M228.4 73.4h.01M129.0 334.9h.01M105.6 263.3h.01M100.0 251.0h.01M145.2 372.9h.01M135.7 65.9h.01M179.6 53.8h.01M280.7 212.9h.01M205.9 364.6h.01M164.8 63.5h.01M213.3 219.5h.01M74.4 395.9h.01M115.5 87.6h.01M103.3 99.0h.01M119.9 190.0h.01M161.7 299.2h.01M155.2 63.2h.01M89.2 228.6h.01M102.8 109.3h.01M232.4 373.7h.01M212.5 360.7h.01M151.6 61.1h.01M131.3 67.8h.01M115.7 139.2h.01M99.8 414.3h.01M170.1 366.6h.01M90.2 220.8h.01M112.6 141.8h.01M110.4 148.7h.01M134.1 186.6h.01M95.9 185.6h.01M214.0 50.6h.01M85.5 405.9h.01M274.2 91.5h.01M264.9 270.1h.01M77.6 192.7h.01M98.0 106.1h.01M224.9 384.4h.01M139.1 51.5h.01M206.0 426.6h.01M162.5 59.6h.01M269.2 107.7h.01M103.6 157.3h.01M97.1 149.8h.01M137.4 77.8h.01M269.1 84.3h.01M73.9 199.8h.01M95.9 155.7h.01M127.6 64.4h.01M241.2 77.1h.01M252.6 305.3h.01M235.5 344.5h.01M167.5 260.2h.01M230.6 301.1h.01M134.8 344.5h.01M95.8 409.9h.01M115.4 155.2h.01M124.9 332.1h.01M266.2 133.9h.01M139.0 185.7h.01M246.4 209.0h.01M66.1 236.2h.01M204.4 383.7h.01M96.2 117.5h.01M213.5 298.5h.01M145.9 354.9h.01M91.8 224.6h.01M196.9 429.7h.01M110.2 166.6h.01M254.5 88.7h.01M258.6 312.5h.01M193.9 55.0h.01M234.9 73.3h.01M212.0 58.3h.01M270.2 132.2h.01M93.9 228.4h.01M138.0 44.3h.01M261.0 200.6h.01M117.0 294.7h.01M142.6 177.7h.01M212.0 261.0h.01M124.8 336.4h.01M86.4 287.3h.01M283.4 243.8h.01M67.1 177.0h.01M121.6 69.7h.01M93.2 232.1h.01M103.0 268.5h.01M170.2 63.0h.01M99.4 166.4h.01M264.0 173.6h.01M245.3 70.5h.01M112.4 283.5h.01M101.1 263.7h.01M254.6 212.3h.01M105.4 304.9h.01M180.5 421.5h.01M267.8 123.5h.01M166.3 186.5h.01M188.6 46.9h.01M226.6 298.4h.01M112.8 288.1h.01M98.4 189.1h.01M257.1 316.6h.01M212.7 200.3h.01M122.3 338.9h.01M213.6 356.2h.01M209.0 315.9h.01M261.4 287.8h.01M94.7 174.7h.01M90.5 212.8h.01M98.2 171.1h.01M264.3 125.5h.01M207.5 409.0h.01M115.2 79.6h.01M64.3 174.6h.01M101.1 187.1h.01M62.8 239.7h.01M123.1 171.8h.01M203.4 424.7h.01M154.9 359.1h.01M268.4 152.5h.01M175.7 189.1h.01M106.3 145.3h.01M151.5 202.8h.01M245.9 78.4h.01M106.5 149.3h.01M183.9 51.9h.01M134.0 340.2h.01M269.1 174.3h.01M76.5 361.4h.01M128.5 169.4h.01M262.5 91.1h.01M135.6 70.0h.01M124.1 65.7h.01M221.8 203.2h.01M57.8 189.5h.01M136.7 346.8h.01M210.0 191.5h.01M197.4 48.2h.01M109.7 279.8h.01M201.2 364.1h.01M243.1 207.5h.01M69.8 391.6h.01M86.8 292.2h.01M91.6 179.0h.01M108.9 129.3h.01M195.8 365.0h.01M267.2 165.7h.01M95.9 178.5h.01M150.1 196.6h.01M111.7 303.8h.01M218.9 315.7h.01M107.2 100.9h.01M199.4 299.1h.01M262.8 136.1h.01M110.3 317.6h.01M146.7 199.0h.01M265.4 104.9h.01M109.2 300.1h.01M166.4 192.8h.01M107.3 133.6h.01M123.0 194.1h.01M234.4 51.3h.01M108.9 113.6h.01M193.2 320.9h.01M103.7 291.2h.01M113.8 127.3h.01M166.6 58.9h.01M258.0 101.4h.01M278.5 102.9h.01M193.3 368.4h.01M109.6 313.2h.01M116.9 332.5h.01M103.5 130.8h.01M133.9 178.4h.01M191.6 414.4h.01M172.7 192.6h.01M101.3 192.9h.01M65.2 389.6h.01M270.7 255.6h.01M91.9 183.7h.01M116.4 55.0h.01M146.7 40.6h.01M263.7 117.6h.01M228.6 65.4h.01M150.5 357.1h.01M225.9 54.1h.01M129.6 204.6h.01M207.0 38.7h.01M120.5 77.4h.01M209.0 296.3h.01M99.8 151.5h.01M101.3 106.3h.01M285.2 133.0h.01M217.3 201.8h.01M108.5 173.6h.01M129.7 339.9h.01M64.2 181.4h.01M255.0 84.1h.01M192.9 423.6h.01M170.4 54.6h.01M105.3 195.9h.01M174.3 60.1h.01M230.1 295.6h.01M88.4 85.2h.01M118.5 320.5h.01M212.3 204.8h.01M108.8 296.4h.01M244.6 74.4h.01M103.0 135.2h.01M231.4 344.1h.01M217.4 381.5h.01M60.3 381.7h.01M109.5 274.7h.01M278.5 242.8h.01M197.5 321.1h.01M265.7 202.3h.01M172.7 50.9h.01M261.1 283.4h.01M47.8 368.3h.01M154.0 182.1h.01M114.3 92.0h.01M185.2 319.7h.01M270.1 136.6h.01M126.4 339.5h.01M242.3 203.1h.01M79.2 259.2h.01M111.2 158.2h.01M165.1 50.0h.01M58.0 223.2h.01M158.2 55.5h.01M209.6 325.4h.01M77.4 120.8h.01M222.4 354.9h.01M139.1 67.7h.01M116.5 290.6h.01M244.3 190.6h.01M105.9 277.0h.01M119.9 309.6h.01M251.2 82.8h.01M102.2 279.8h.01M216.6 54.8h.01M91.5 171.5h.01M224.7 350.8h.01M235.0 206.4h.01M97.5 330.3h.01M118.1 316.4h.01M88.2 297.2h.01M198.4 415.7h.01M247.0 86.3h.01M206.9 361.0h.01M74.7 226.8h.01M208.2 200.8h.01M276.0 122.3h.01M228.2 47.0h.01M263.7 197.0h.01M125.9 201.8h.01M267.6 138.5h.01M123.0 321.5h.01M121.2 313.6h.01M239.6 354.8h.01M129.3 188.5h.01M197.6 421.2h.01M109.2 284.5h.01M274.5 232.3h.01M96.0 132.4h.01M128.4 72.7h.01M105.8 175.9h.01M240.9 392.9h.01M104.5 300.4h.01M208.8 300.8h.01M107.8 164.1h.01M117.3 328.4h.01M170.5 58.5h.01M190.3 426.5h.01M270.2 103.1h.01M127.0 323.3h.01M175.7 199.4h.01M242.1 63.6h.01M195.3 298.9h.01M99.2 134.1h.01M183.5 56.6h.01M75.5 138.1h.01M211.1 40.2h.01M112.1 293.1h.01M263.7 274.8h.01M57.7 227.9h.01M240.1 81.0h.01M113.3 115.4h.01M116.4 71.9h.01M268.3 169.9h.01M179.4 425.8h.01M113.7 315.1h.01M162.1 303.7h.01M143.0 69.2h.01M232.4 70.4h.01M119.6 73.3h.01M112.1 76.8h.01M236.2 77.8h.01M105.6 152.5h.01M213.8 315.0h.01M150.0 301.5h.01M115.0 350.7h.01M221.2 68.7h.01M204.9 46.4h.01M54.6 382.1h.01M263.5 280.2h.01M221.7 263.8h.01M213.7 385.4h.01M231.0 55.9h.01M268.6 143.1h.01M59.4 182.4h.01M112.3 137.0h.01M206.9 320.9h.01M121.2 334.4h.01M104.8 92.7h.01M207.6 429.8h.01M142.4 200.3h.01M113.6 323.6h.01M75.7 129.4h.01M270.1 115.9h.01M154.5 363.4h.01M288.4 187.3h.01M77.7 333.0h.01M111.7 131.8h.01M165.1 368.9h.01M271.4 122.6h.01M261.0 105.9h.01M108.2 118.8h.01M170.1 370.5h.01M105.8 104.9h.01M175.3 320.1h.01M149.5 50.5h.01M113.8 172.6h.01M119.5 305.2h.01M102.7 274.3h.01M284.0 190.3h.01M253.0 174.3h.01M276.2 212.7h.01M289.0 191.7h.01M206.6 50.3h.01M75.4 186.1h.01M135.4 357.3h.01M70.5 395.9h.01M111.3 108.3h.01M210.8 364.5h.01M278.3 260.5h.01M259.4 197.1h.01M101.7 287.5h.01M265.1 139.8h.01M97.5 192.8h.01M209.9 269.5h.01M166.9 320.5h.01M185.0 302.0h.01M138.6 63.4h.01M270.8 112.6h.01M141.3 354.3h.01M74.7 222.1h.01M266.4 266.2h.01M131.6 347.4h.01M267.5 118.5h.01M105.6 123.3h.01M240.0 361.0h.01M165.1 312.1h.01M211.9 429.8h.01M111.0 104.1h.01M230.5 199.6h.01M74.1 191.3h.01M251.0 209.9h.01M262.6 190.2h.01M67.4 188.5h.01M139.3 59.3h.01M62.8 199.5h.01M192.0 326.0h.01M134.1 63.3h.01M211.1 395.8h.01M212.0 62.3h.01M251.3 204.1h.01M269.3 212.0h.01M169.4 49.7h.01M167.3 176.0h.01M221.1 55.1h.01M189.6 367.5h.01M108.0 85.6h.01M281.1 255.5h.01M220.1 199.0h.01M257.6 92.7h.01M263.8 109.9h.01M197.9 368.2h.01M250.7 88.0h.01M225.4 63.8h.01M96.8 161.3h.01M180.5 301.9h.01M228.5 69.5h.01M115.8 302.1h.01M261.0 193.6h.01M113.9 297.6h.01M50.2 375.1h.01M123.9 73.4h.01M216.5 63.4h.01M256.5 302.8h.01M61.3 178.0h.01M146.4 204.2h.01M103.4 189.4h.01M169.5 189.5h.01M109.9 170.3h.01M264.6 121.4h.01M267.2 99.8h.01M249.9 76.9h.01M183.4 60.3h.01M266.1 114.2h.01M103.9 296.2h.01M183.7 45.8h.01M95.5 241.9h.01M269.3 274.9h.01M111.6 162.3h.01M282.7 249.5h.01M188.3 322.6h.01M264.5 153.1h.01M208.8 206.3h.01M160.0 64.5h.01M268.5 258.9h.01M193.1 50.2h.01M129.0 330.0h.01M268.6 251.3h.01M236.7 69.0h.01M92.9 216.9h.01M92.2 236.1h.01M106.8 126.7h.01M106.6 96.3h.01M252.0 326.7h.01M255.6 299.5h.01M62.3 385.7h.01M191.0 418.5h.01M217.2 359.0h.01M92.8 153.4h.01M216.4 59.5h.01M106.1 191.9h.01M150.0 361.6h.01M248.6 213.0h.01M143.3 54.3h.01M99.0 145.9h.01M119.1 299.5h.01M99.8 123.0h.01M150.5 71.3h.01M135.6 59.7h.01M100.7 175.1h.01M186.9 328.7h.01M126.1 77.0h.01M108.1 303.4h.01M84.1 94.2h.01M162.7 189.0h.01M127.9 61.1h.01M219.2 194.8h.01M179.3 327.4h.01M209.3 385.0h.01M267.5 281.6h.01M158.1 188.6h.01M177.8 45.6h.01M102.6 153.4h.01M107.3 292.0h.01M116.3 311.7h.01M78.1 228.8h.01M186.5 425.4h.01M239.7 206.5h.01M144.7 183.5h.01M127.0 68.8h.01M131.6 59.9h.01M240.5 374.2h.01M231.8 75.2h.01M100.5 113.0h.01M100.5 117.8h.01M166.7 54.0h.01M109.0 307.7h.01M273.3 209.0h.01M91.4 196.3h.01M114.4 346.6h.01M200.6 384.2h.01M277.5 251.8h.01M161.9 183.6h.01M155.6 73.3h.01M119.4 81.5h.01M135.5 353.6h.01M262.4 305.3h.01M102.7 183.2h.01M200.3 423.5h.01M97.5 258.4h.01M111.5 82.8h.01M104.9 139.3h.01M115.4 159.8h.01M280.9 173.4h.01M263.9 129.3h.01M201.8 320.7h.01M98.4 128.4h.01M106.6 160.0h.01M116.6 76.4h.01M217.9 300.0h.01M172.0 424.1h.01M150.5 54.8h.01M94.3 188.9h.01M238.8 73.3h.01M174.4 266.8h.01M185.6 366.7h.01M149.7 183.9h.01M267.2 161.6h.01M103.9 119.9h.01M272.3 118.9h.01M79.1 212.3h.01M221.1 59.9h.01M119.4 85.5h.01M78.4 113.5h.01M126.9 180.1h.01M99.5 156.4h.01M113.3 279.4h.01M207.6 59.0h.01M174.4 367.8h.01M138.3 350.1h.01M162.7 55.6h.01M95.9 237.6h.01M91.0 240.8h.01M258.7 88.0h.01M163.3 173.6h.01M261.5 131.8h.01M180.2 320.1h.01M116.0 286.7h.01M163.6 361.4h.01M256.9 107.8h.01M112.1 152.4h.01M66.2 194.6h.01M80.0 106.4h.01M97.7 110.2h.01M234.8 178.8h.01M230.5 203.7h.01M141.6 350.7h.01M198.0 36.3h.01M257.5 172.1h.01M102.2 148.1h.01"/>
<path stroke="#1a1a1a" stroke-width="3.34" stroke-linecap="round" fill="none" d="M97.9 268.1h.01M194.0 38.6h.01M122.6 349.3h.01M72.6 195.4h.01M73.5 333.5h.01M269.7 263.9h.01M82.7 264.2h.01M129.1 56.2h.01M158.8 38.8h.01M95.1 297.7h.01M167.2 37.6h.01M145.8 360.2h.01M76.3 133.4h.01M141.4 363.0h.01M84.2 393.6h.01M83.4 243.8h.01M66.4 384.7h.01M284.0 129.4h.01M52.8 368.6h.01M78.7 224.0h.01M147.9 169.6h.01M271.9 98.6h.01M189.0 36.7h.01M98.0 319.8h.01M191.4 41.4h.01M103.1 336.9h.01M275.4 195.7h.01M229.1 417.9h.01M55.9 371.6h.01M277.5 247.2h.01M64.2 381.5h.01M87.4 186.1h.01M234.5 59.3h.01M93.7 256.4h.01M276.3 226.4h.01M122.7 56.1h.01M131.2 47.0h.01M92.0 115.0h.01M88.0 245.0h.01M238.9 60.8h.01M218.9 363.3h.01M85.5 275.1h.01M96.7 283.1h.01M134.3 350.2h.01M81.0 393.9h.01M92.8 135.3h.01M275.1 199.9h.01M99.6 179.9h.01M271.9 177.1h.01M241.6 70.4h.01M248.1 323.7h.01M218.8 378.3h.01M88.2 267.3h.01M218.4 191.0h.01M256.2 177.5h.01M113.6 330.1h.01M280.2 107.2h.01M58.1 374.6h.01M259.7 307.2h.01M92.1 385.7h.01M236.5 357.1h.01M157.8 184.7h.01M98.6 272.7h.01M95.4 309.6h.01M174.0 182.1h.01M90.1 190.8h.01M142.2 358.9h.01M176.3 421.2h.01M103.3 85.9h.01M139.4 197.1h.01M101.1 319.7h.01M113.4 327.0h.01M274.7 159.9h.01M93.6 129.5h.01M110.2 335.5h.01M201.1 418.0h.01M110.0 65.7h.01M150.9 368.4h.01M98.5 323.4h.01M102.8 322.1h.01M132.5 359.2h.01M95.0 103.5h.01M229.3 376.8h.01M132.3 191.5h.01M99.5 296.5h.01M87.8 120.5h.01M88.8 237.0h.01M154.1 44.4h.01M216.6 187.8h.01M105.8 68.7h.01M209.2 369.0h.01M122.6 346.0h.01M226.8 182.4h.01M233.2 202.0h.01M244.1 331.4h.01M131.0 51.8h.01M93.3 110.4h.01M50.5 365.0h.01M129.5 177.5h.01M259.5 299.5h.01M94.9 275.0h.01M88.4 181.1h.01M88.1 151.9h.01M282.2 163.4h.01M85.9 279.6h.01M170.4 264.6h.01M92.0 319.4h.01M125.9 191.7h.01M253.4 207.4h.01M275.8 148.1h.01M152.3 47.5h.01M140.6 44.8h.01M86.9 283.4h.01M280.4 122.4h.01M87.0 263.3h.01M221.7 44.6h.01M150.8 191.8h.01M94.4 325.2h.01M266.2 90.5h.01M72.4 384.5h.01M176.0 36.0h.01M92.8 143.7h.01M205.0 302.7h.01M268.7 88.1h.01M252.9 71.7h.01M97.0 263.1h.01M164.6 196.9h.01M86.7 147.8h.01M112.4 72.5h.01M95.1 125.4h.01M89.1 145.3h.01M94.8 107.3h.01M275.9 144.7h.01M92.4 244.8h.01M120.2 65.9h.01M162.5 38.0h.01M247.4 185.1h.01M271.0 164.4h.01M119.2 340.9h.01M85.8 89.9h.01M105.6 313.6h.01M77.0 179.5h.01M273.6 134.9h.01M103.1 317.2h.01M204.1 41.9h.01M98.0 100.2h.01M242.0 200.0h.01M84.6 217.2h.01M99.8 92.3h.01M75.8 175.4h.01M230.1 51.1h.01M100.8 313.8h.01M142.7 195.4h.01M78.3 389.8h.01M100.4 74.8h.01M181.3 383.0h.01M219.5 429.2h.01M193.1 372.4h.01M223.4 427.4h.01M74.8 391.6h.01M272.1 186.9h.01M152.9 187.9h.01M170.2 178.7h.01M263.2 301.2h.01M90.3 148.8h.01M274.9 256.9h.01M91.4 259.6h.01M202.3 37.6h.01M89.7 131.4h.01M145.2 50.3h.01M81.5 124.7h.01M134.7 50.4h.01M92.9 77.0h.01M279.1 218.0h.01M143.5 45.5h.01M128.3 345.4h.01M267.7 198.3h.01M81.5 185.7h.01M274.2 156.9h.01M240.6 56.8h.01M218.8 423.9h.01M274.0 243.5h.01M179.1 42.0h.01M85.8 137.4h.01M200.2 44.5h.01M106.4 281.4h.01M84.4 212.3h.01M276.1 169.1h.01M113.0 342.5h.01M124.6 175.5h.01M261.2 78.6h.01M198.3 408.3h.01M228.3 372.3h.01M242.4 341.9h.01M83.7 108.5h.01M215.4 364.3h.01M145.3 42.8h.01M90.3 110.8h.01M82.4 248.2h.01M231.6 191.1h.01M136.8 193.4h.01M92.7 307.1h.01M87.0 160.1h.01M94.5 286.9h.01M142.4 43.0h.01M93.3 252.9h.01M120.2 185.3h.01M106.2 82.8h.01M109.3 324.7h.01M103.0 311.2h.01M214.1 424.4h.01M101.5 306.2h.01M271.4 161.1h.01M72.8 388.3h.01M251.2 69.2h.01M172.1 38.3h.01M195.2 406.5h.01M262.8 86.0h.01M74.8 154.8h.01M247.8 327.6h.01M174.5 372.6h.01M255.4 320.2h.01M85.4 236.3h.01M221.3 359.1h.01M89.6 253.4h.01M249.7 200.2h.01M185.0 370.0h.01M86.7 141.7h.01M151.9 176.9h.01M260.8 74.7h.01M243.6 60.4h.01M268.1 195.1h.01M68.2 184.7h.01M81.7 398.7h.01M134.1 170.0h.01M270.9 201.8h.01M256.0 71.5h.01M243.7 66.9h.01M101.6 410.2h.01M218.5 367.3h.01M248.8 73.0h.01M110.9 186.5h.01M107.2 72.3h.01M210.6 304.3h.01M211.0 407.0h.01M106.5 321.3h.01M98.5 303.9h.01M155.4 177.4h.01M93.4 149.8h.01M276.7 177.8h.01M185.0 38.1h.01M128.7 58.7h.01M142.9 173.5h.01M204.3 414.5h.01M222.7 302.6h.01M237.9 203.3h.01M276.6 99.3h.01M271.9 193.8h.01M92.0 283.0h.01M109.3 60.7h.01M113.9 334.7h.01M255.2 308.1h.01M97.0 316.2h.01M261.1 295.3h.01M264.6 292.8h.01M270.5 180.3h.01M93.1 290.4h.01M273.0 261.2h.01M161.6 47.6h.01M182.4 372.1h.01M146.8 174.6h.01M274.5 163.2h.01M104.5 333.2h.01M270.7 91.4h.01M88.0 196.2h.01M96.2 312.8h.01M86.6 154.9h.01M104.3 74.5h.01M91.2 299.8h.01M88.9 167.7h.01M268.7 182.7h.01M88.4 399.6h.01M203.4 420.3h.01M108.4 80.2h.01M167.9 381.7h.01M256.2 305.9h.01M100.8 95.9h.01M89.5 100.4h.01M135.7 54.7h.01M98.7 277.8h.01M85.8 201.2h.01M154.6 40.0h.01M248.9 331.5h.01M107.4 337.6h.01M115.1 67.8h.01M280.3 128.6h.01M182.4 298.9h.01M87.4 108.9h.01M215.6 428.2h.01M272.9 110.3h.01M158.3 180.1h.01M115.9 336.7h.01M262.7 186.6h.01M276.0 110.7h.01M279.4 229.1h.01M273.5 130.3h.01M225.9 58.9h.01M145.5 47.2h.01M103.3 80.1h.01M84.4 231.9h.01M133.9 364.2h.01M88.4 163.8h.01M271.8 154.1h.01M136.9 169.8h.01M274.4 102.4h.01M245.3 200.1h.01M189.6 411.1h.01M272.4 143.7h.01M97.5 71.6h.01M103.5 308.0h.01M52.9 372.3h.01M280.3 181.9h.01M206.5 264.5h.01M173.9 46.2h.01M91.3 273.3h.01M219.7 50.3h.01M278.0 114.3h.01M275.6 141.3h.01M131.5 172.1h.01M239.2 65.9h.01M77.9 394.4h.01M100.3 333.4h.01M256.2 198.4h.01M88.5 116.7h.01M187.4 42.0h.01M150.5 173.1h.01M149.6 179.3h.01M159.1 45.5h.01M86.4 127.6h.01M166.2 182.0h.01M79.3 200.8h.01M149.5 46.6h.01M96.9 142.9h.01M183.0 424.2h.01M266.7 277.6h.01M96.0 113.7h.01M81.6 115.9h.01M129.6 354.5h.01M108.6 76.0h.01M235.7 200.8h.01M81.1 208.2h.01M99.8 86.0h.01M137.1 361.7h.01M233.4 197.4h.01M251.5 66.2h.01M83.9 148.6h.01M85.6 397.1h.01M235.1 63.7h.01M162.2 42.9h.01M54.5 375.3h.01M139.0 357.0h.01M83.8 269.2h.01M138.9 173.6h.01M145.5 364.1h.01M82.4 128.4h.01M213.3 381.8h.01M272.5 172.2h.01M119.5 350.6h.01M272.4 94.6h.01M275.5 183.8h.01M279.7 177.5h.01M87.7 209.1h.01M279.5 145.8h.01M246.2 334.9h.01M103.0 83.0h.01M228.2 352.9h.01M110.9 417.2h.01M82.3 223.6h.01M84.6 122.9h.01M214.4 192.0h.01M272.4 167.1h.01M102.2 302.8h.01M275.4 187.6h.01M274.4 126.3h.01M72.7 176.3h.01M107.6 411.4h.01M273.3 150.8h.01M278.6 150.4h.01M281.0 132.6h.01M81.7 236.4h.01M87.8 134.5h.01M106.5 317.5h.01M275.7 95.8h.01M82.0 100.6h.01M117.5 62.9h.01M187.0 298.6h.01M271.6 197.6h.01M130.2 351.0h.01M208.3 43.9h.01M276.5 137.9h.01M276.4 153.0h.01M101.4 329.5h.01M102.1 89.4h.01M278.3 125.9h.01M99.6 310.4h.01M209.2 266.6h.01M105.0 77.5h.01M274.5 115.0h.01M87.8 271.5h.01M243.1 337.4h.01M172.7 185.8h.01M86.3 255.3h.01M239.4 344.8h.01M272.4 139.5h.01M170.0 44.7h.01M71.3 187.6h.01M126.5 53.5h.01M107.6 331.9h.01M135.6 47.3h.01M253.6 75.4h.01M105.5 328.4h.01M253.3 195.5h.01M110.4 183.4h.01M85.1 221.4h.01M68.8 387.3h.01M210.5 48.0h.01M143.9 169.4h.01M246.1 64.1h.01M254.9 314.2h.01M237.6 353.9h.01M273.3 247.6h.01M236.9 360.5h.01M252.0 318.3h.01M253.1 79.3h.01M258.7 305.0h.01M254.9 311.1h.01M105.3 88.6h.01M252.3 322.5h.01M90.5 156.8h.01M56.7 355.9h.01M246.0 177.0h.01M157.5 379.0h.01M270.8 147.8h.01M81.0 132.3h.01M156.5 47.5h.01M222.0 376.3h.01M138.4 365.9h.01M222.6 183.0h.01M219.2 185.1h.01M90.4 286.6h.01M178.6 372.4h.01M257.0 79.7h.01M91.6 295.9h.01M141.9 48.8h.01M251.6 314.9h.01M279.4 141.4h.01M198.9 40.4h.01M122.5 342.6h.01M85.2 131.4h.01M91.0 293.2h.01M277.4 181.1h.01M236.3 55.8h.01M90.7 139.7h.01M260.8 204.5h.01M110.4 321.3h.01M81.5 227.4h.01M207.1 382.2h.01M249.1 64.3h.01M157.8 42.3h.01M263.1 297.6h.01M94.6 279.5h.01M277.9 134.8h.01M224.3 49.1h.01M279.2 198.0h.01M184.8 420.3h.01M96.8 300.6h.01M165.9 45.9h.01M99.8 316.7h.01M138.0 177.1h.01M210.9 196.0h.01M117.0 182.9h.01M139.0 47.8h.01M86.9 205.3h.01M74.6 149.9h.01M249.3 177.2h.01M119.8 181.4h.01M92.4 93.6h.01M85.8 240.6h.01M70.1 337.0h.01M54.5 359.7h.01M274.1 179.7h.01M156.5 370.5h.01M120.1 53.4h.01M270.8 184.6h.01M113.4 62.9h.01M94.4 260.9h.01M109.4 342.4h.01M74.2 179.6h.01M182.9 41.2h.01M214.4 304.5h.01M94.8 303.4h.01M238.3 341.7h.01M216.8 46.2h.01M186.4 372.9h.01M203.9 268.3h.01M80.5 231.9h.01M110.2 69.6h.01M187.8 413.1h.01M154.0 368.0h.01M132.3 195.5h.01M94.2 405.7h.01M92.3 161.3h.01M109.6 328.4h.01M243.1 178.3h.01M265.9 288.6h.01M90.1 402.7h.01M273.0 182.5h.01M75.9 204.3h.01M203.3 372.3h.01M90.5 186.9h.01M91.5 123.3h.01M133.2 56.8h.01M91.7 264.0h.01M148.0 44.5h.01M123.6 51.3h.01M100.3 300.1h.01M215.0 378.2h.01M270.5 157.6h.01M212.8 44.2h.01M187.7 370.0h.01M91.3 249.0h.01M200.0 412.2h.01M59.4 378.2h.01M87.4 249.2h.01M279.8 223.1h.01M94.7 87.9h.01M265.9 284.7h.01M96.5 290.8h.01M92.0 119.5h.01M85.2 227.3h.01M247.9 193.6h.01M84.4 144.2h.01M116.4 343.4h.01M92.0 303.5h.01M273.9 204.8h.01M83.7 259.9h.01M247.9 68.3h.01M276.7 155.8h.01M150.0 365.1h.01M63.5 378.0h.01M258.4 309.3h.01M99.9 283.1h.01M93.2 268.6h.01M238.4 187.2h.01M93.7 140.7h.01M89.0 303.8h.01M95.0 401.6h.01M112.0 338.7h.01M251.0 185.2h.01M128.8 198.5h.01M259.8 82.9h.01M257.4 75.6h.01M184.5 416.6h.01M96.2 138.0h.01M280.4 118.5h.01M212.2 368.2h.01M121.8 61.2h.01M133.4 174.9h.01M111.4 332.4h.01M239.7 192.4h.01M64.2 185.0h.01M235.2 347.9h.01M283.5 121.1h.01M229.7 349.8h.01M89.6 290.1h.01M89.7 256.9h.01M118.4 178.3h.01M125.7 57.4h.01M80.0 240.1h.01M232.6 348.6h.01M118.9 58.4h.01M194.3 420.3h.01M95.9 294.1h.01M276.6 118.6h.01M150.9 42.1h.01M248.7 206.2h.01M265.8 84.5h.01M98.0 287.5h.01M122.7 178.4h.01M100.1 83.1h.01M170.2 300.8h.01M84.6 157.3h.01M169.8 40.8h.01M98.9 405.3h.01M97.9 307.2h.01M216.9 373.9h.01M276.9 131.1h.01M114.0 187.1h.01M102.6 403.0h.01M232.3 66.3h.01M87.6 105.9h.01M146.6 367.4h.01M274.7 191.4h.01M114.0 184.0h.01M80.2 219.9h.01M224.8 195.2h.01M85.7 192.8h.01M94.1 146.5h.01M256.7 186.3h.01M140.5 170.5h.01M105.5 324.8h.01M100.3 292.2h.01M175.1 41.1h.01M209.9 426.4h.01M260.4 302.7h.01M188.2 416.6h.01M85.8 102.9h.01M225.4 374.8h.01M106.3 309.9h.01M269.8 269.9h.01M190.8 45.2h.01M179.9 37.4h.01M124.8 61.1h.01M196.2 371.0h.01M160.9 193.8h.01M214.8 368.6h.01M146.4 178.5h.01M274.7 174.9h.01M178.1 262.2h.01M88.0 124.5h.01M87.4 259.6h.01M131.0 54.6h.01M195.9 42.8h.01M87.1 190.2h.01M280.4 137.6h.01M78.5 117.6h.01M205.5 368.6h.01M126.4 348.9h.01M124.1 356.3h.01M268.1 95.0h.01M169.7 182.9h.01M258.5 208.2h.01M90.5 127.5h.01M119.1 336.7h.01M115.8 340.0h.01M101.5 325.7h.01M90.9 102.9h.01M201.5 368.7h.01M272.7 106.5h.01M167.7 198.9h.01M84.9 251.8h.01M279.6 208.1h.01M100.4 68.9h.01M165.6 41.2h.01M222.7 191.8h.01M280.4 203.1h.01M190.1 371.7h.01M129.9 362.5h.01M76.7 329.8h.01M126.2 343.3h.01M128.1 49.5h.01M265.6 192.4h.01M90.2 278.3h.01"/>
<path stroke="#1a1a1a" stroke-width="3.85" stroke-linecap="round" fill="none" d="M82.6 375.5h.01M72.9 366.9h.01M75.5 146.8h.01M283.6 135.8h.01M223.1 421.9h.01M75.3 380.6h.01M83.2 135.2h.01M79.1 369.3h.01M81.1 216.0h.01M244.1 184.9h.01M255.0 181.0h.01M278.9 193.3h.01M78.8 186.3h.01M221.8 412.4h.01M72.1 376.4h.01M79.9 110.2h.01M145.4 370.0h.01M80.0 189.5h.01M83.0 194.5h.01M198.4 376.5h.01M279.2 189.5h.01M280.5 114.8h.01M80.5 171.5h.01M85.3 171.3h.01M189.5 382.0h.01M232.3 355.6h.01M76.2 158.6h.01M196.1 378.7h.01M225.3 358.3h.01M73.0 337.5h.01M233.4 369.5h.01M75.8 365.5h.01M251.8 181.5h.01M80.5 179.3h.01M79.3 135.7h.01M278.5 158.2h.01M64.6 353.1h.01M140.9 370.0h.01M237.8 180.6h.01M234.5 183.6h.01M88.2 93.1h.01M63.9 350.7h.01M87.9 380.9h.01M207.5 372.5h.01M53.6 363.0h.01M190.3 268.3h.01M68.0 367.0h.01M170.5 378.3h.01M154.5 301.7h.01M88.6 312.8h.01M78.5 155.5h.01M82.5 256.3h.01M192.5 409.7h.01M235.0 354.2h.01M102.2 71.6h.01M79.8 385.8h.01M95.0 319.0h.01M137.1 189.8h.01M228.3 193.6h.01M94.1 397.8h.01M220.6 370.1h.01M237.9 348.0h.01M84.6 118.4h.01M269.2 192.0h.01M81.6 380.8h.01M126.6 172.8h.01M95.2 91.4h.01M68.9 374.1h.01M124.3 352.8h.01M178.0 379.0h.01M272.5 169.5h.01M280.0 155.5h.01M191.0 375.3h.01M91.9 314.4h.01M238.0 184.0h.01M222.6 362.4h.01M251.4 196.6h.01M69.1 364.1h.01M177.9 382.4h.01M70.6 358.4h.01M193.4 381.8h.01M128.5 194.6h.01M223.9 417.6h.01M77.4 124.5h.01M282.3 146.8h.01M174.6 379.4h.01M84.9 97.2h.01M212.2 413.6h.01M193.9 376.3h.01M91.0 81.7h.01M75.9 167.6h.01M86.2 99.7h.01M83.5 189.8h.01M106.1 63.9h.01M93.7 99.1h.01M235.1 194.3h.01M191.1 300.8h.01M156.8 374.5h.01M214.1 374.8h.01M79.2 139.3h.01M233.7 360.2h.01M194.7 416.1h.01M225.3 364.3h.01M61.0 374.5h.01M79.6 162.5h.01M89.2 388.2h.01M243.2 193.7h.01M78.2 382.6h.01M240.8 180.6h.01M253.1 201.8h.01M160.6 376.4h.01M99.9 80.7h.01M71.6 341.4h.01M85.2 196.5h.01M65.6 364.7h.01M62.0 365.0h.01M226.2 186.5h.01M97.4 397.7h.01M280.1 165.9h.01M55.0 366.1h.01M218.8 419.5h.01M72.4 363.9h.01M222.3 366.5h.01M73.6 369.2h.01M147.4 188.7h.01M59.5 371.2h.01M98.3 88.7h.01M68.6 352.9h.01M185.9 381.1h.01M84.8 378.8h.01M64.0 374.5h.01M73.9 372.4h.01M240.9 184.1h.01M71.9 380.3h.01M217.1 412.4h.01M226.7 361.2h.01M278.7 185.5h.01M91.9 399.1h.01M177.9 375.8h.01M83.0 112.1h.01M67.5 371.7h.01M210.0 263.8h.01M266.5 189.0h.01M85.6 387.4h.01M254.2 183.9h.01M81.0 148.5h.01M129.5 174.0h.01M196.0 374.3h.01M238.5 195.7h.01M72.7 360.9h.01M276.5 164.7h.01M166.0 302.3h.01M200.1 380.3h.01M162.9 373.9h.01M258.8 180.4h.01M239.1 199.9h.01M71.1 372.9h.01M155.2 173.5h.01M89.8 89.3h.01M186.7 265.6h.01M87.7 112.3h.01M78.7 128.7h.01M66.4 349.6h.01M236.0 351.0h.01M58.4 359.4h.01M96.3 74.7h.01M76.4 337.2h.01M80.4 196.5h.01M95.4 392.0h.01M227.2 304.2h.01M81.9 204.2h.01M97.4 326.9h.01M281.9 159.7h.01M94.9 322.1h.01M198.6 271.2h.01M230.1 359.3h.01M236.4 198.0h.01M212.9 410.6h.01M278.9 110.6h.01M83.5 163.5h.01M283.1 125.5h.01M159.5 372.6h.01M257.5 183.0h.01M72.3 354.4h.01M81.5 145.0h.01M68.3 361.5h.01M249.0 181.5h.01M282.6 195.9h.01M66.3 358.8h.01M65.8 344.4h.01M88.6 308.5h.01M83.3 139.4h.01M259.8 185.1h.01M74.9 357.4h.01M262.5 177.7h.01M280.8 152.6h.01M82.4 389.3h.01M226.9 190.2h.01M67.8 355.8h.01M142.2 188.3h.01M265.9 186.1h.01M99.7 400.3h.01M273.7 251.9h.01M230.4 188.2h.01M153.8 372.4h.01M265.1 80.7h.01M216.7 370.9h.01M74.9 376.6h.01M241.6 196.9h.01M104.6 407.0h.01M163.3 179.1h.01M78.7 374.9h.01M85.4 114.6h.01M84.0 384.0h.01M82.9 159.6h.01M148.8 370.4h.01M88.3 175.4h.01M92.1 394.4h.01M91.5 310.6h.01M68.3 342.5h.01M91.5 390.7h.01M232.6 352.0h.01M151.2 372.1h.01M62.8 348.6h.01M57.5 368.5h.01M93.9 316.2h.01M262.4 181.7h.01M170.5 374.6h.01M171.4 381.8h.01M102.6 65.9h.01M256.8 201.7h.01M69.0 350.0h.01M71.5 370.0h.01M151.1 375.2h.01M212.1 378.6h.01M188.5 378.3h.01M64.3 367.1h.01M259.3 175.9h.01M82.9 199.1h.01M82.1 182.6h.01M224.9 369.6h.01M154.2 376.5h.01M211.4 417.9h.01M243.1 182.1h.01M86.8 390.6h.01M88.7 384.5h.01M214.6 420.6h.01M278.2 174.3h.01M276.6 106.5h.01M100.0 77.8h.01M181.1 376.2h.01M83.4 152.0h.01M76.1 369.4h.01M113.7 58.3h.01M276.0 172.0h.01M220.1 372.9h.01M210.4 422.2h.01M96.3 95.8h.01M76.2 171.5h.01M78.7 378.3h.01M201.6 376.8h.01M65.0 362.0h.01M80.0 152.2h.01M69.5 382.5h.01M76.6 373.2h.01M158.4 302.1h.01M233.2 365.3h.01M88.4 393.5h.01M282.6 149.8h.01M120.4 174.6h.01M219.5 408.5h.01M76.9 152.2h.01M81.2 192.5h.01M83.1 104.7h.01M270.5 189.4h.01M89.8 96.7h.01M60.4 355.3h.01M128.2 358.1h.01M66.5 374.0h.01M70.5 367.0h.01M208.5 413.3h.01M166.5 373.6h.01M211.7 372.5h.01M78.4 145.6h.01M64.1 355.9h.01M205.2 375.1h.01M245.5 196.6h.01M283.6 139.2h.01M95.7 78.3h.01M249.1 196.7h.01M222.0 188.1h.01M223.1 372.6h.01M60.4 351.7h.01M67.2 380.1h.01M66.0 369.5h.01M197.3 381.5h.01M161.6 380.1h.01M206.7 422.5h.01M209.6 376.3h.01M142.5 367.1h.01M146.3 193.4h.01M174.2 300.9h.01M62.2 361.2h.01M141.4 191.8h.01M59.6 362.7h.01M56.9 363.3h.01M218.8 375.4h.01M97.1 80.8h.01M79.6 166.9h.01M89.6 396.4h.01M182.6 262.8h.01M95.6 394.9h.01M75.7 163.0h.01M232.0 194.1h.01M203.2 409.3h.01M207.4 418.2h.01M71.9 345.0h.01M96.6 84.4h.01M283.2 154.3h.01M92.2 85.6h.01M227.0 366.5h.01M174.5 376.0h.01M72.4 350.5h.01M215.3 416.2h.01M75.8 385.8h.01M277.3 167.1h.01M228.2 356.1h.01M59.1 365.9h.01M234.3 187.2h.01M69.2 346.8h.01M209.0 380.0h.01M83.8 186.9h.01M76.4 142.4h.01M93.9 81.8h.01M124.1 197.8h.01M278.9 170.7h.01M229.6 368.4h.01M78.5 182.9h.01M202.1 271.0h.01M278.4 161.4h.01M85.3 182.9h.01M236.4 364.6h.01M205.5 378.3h.01M253.3 199.3h.01M277.1 235.9h.01M252.7 178.3h.01M230.6 184.6h.01M182.8 374.7h.01M83.4 175.2h.01M118.8 346.2h.01M268.3 185.8h.01M79.6 175.5h.01M199.5 372.9h.01M218.7 304.9h.01M81.5 371.7h.01M183.2 380.6h.01M83.8 167.4h.01M203.1 380.6h.01M265.7 182.7h.01M82.3 155.1h.01M256.0 204.8h.01M177.5 300.0h.01M62.4 358.1h.01M78.0 149.0h.01M136.1 173.4h.01M67.0 377.0h.01M246.0 181.5h.01M80.1 158.6h.01M80.8 142.1h.01M192.2 378.8h.01M166.3 377.4h.01M91.4 106.4h.01M61.1 368.3h.01M84.8 178.8h.01M63.4 370.7h.01M159.8 176.1h.01M81.4 120.6h.01M69.1 369.9h.01M219.9 415.8h.01M230.0 363.4h.01M283.2 142.5h.01M181.1 378.8h.01M188.1 375.2h.01M65.5 346.8h.01M286.0 194.2h.01M215.6 408.4h.01M206.7 268.4h.01M226.1 413.7h.01M185.1 376.7h.01M69.7 377.5h.01M164.7 381.0h.01"/>
</svg>