<svg xmlns="http://www.w3.org/2000/svg" viewBox="0 0 360 432" role="img">
<path stroke="#1a1a1a" stroke-width="1.57" stroke-linecap="round" fill="none" d="M126.2 191.7h.01M176.6 76.2h.01M203.4 145.3h.01M279.5 232.2h.01M186.9 133.5h.01M188.2 85.2h.01M70.4 167.3h.01M144.3 68.5h.01M128.3 124.3h.01M148.9 74.9h.01M0.4 128.3h.01M201.3 115.0h.01M186.0 143.5h.01M160.7 136.1h.01M137.1 125.3h.01M157.4 76.3h.01M158.8 202.8h.01M137.8 209.5h.01M179.7 136.9h.01M144.3 416.0h.01M301.7 397.5h.01M157.3 94.1h.01M183.1 428.9h.01M0.4 101.5h.01M162.2 69.2h.01M178.4 64.9h.01M130.8 138.5h.01M173.4 112.7h.01M167.1 77.9h.01M139.9 86.5h.01M268.8 423.2h.01M189.0 107.9h.01M226.2 430.2h.01M130.5 207.2h.01M120.8 413.4h.01M191.8 100.0h.01M199.0 122.6h.01M358.6 98.1h.01M197.8 205.9h.01M134.9 192.4h.01M158.3 103.5h.01M134.2 93.9h.01M251.6 403.2h.01M58.7 399.0h.01M358.6 299.7h.01M199.5 430.3h.01M138.3 430.2h.01M269.8 242.1h.01M150.5 120.3h.01M219.1 94.8h.01M157.8 84.9h.01M156.8 112.0h.01M79.3 415.1h.01M152.1 135.1h.01M192.3 138.2h.01M190.9 69.5h.01M144.4 211.0h.01M358.6 122.2h.01M130.1 130.9h.01M114.1 417.7h.01M239.6 408.7h.01M180.4 128.3h.01M145.8 128.5h.01M120.5 419.3h.01M143.6 104.9h.01M150.7 105.8h.01M197.3 65.8h.01M168.5 199.9h.01M129.4 199.1h.01M133.7 81.4h.01M115.4 409.3h.01M212.3 430.6h.01M142.9 196.2h.01M203.1 153.6h.01M139.4 172.5h.01M186.0 217.1h.01M177.1 84.9h.01M93.7 203.0h.01M143.5 137.5h.01M189.1 204.8h.01M155.2 128.0h.01M168.7 119.7h.01M175.7 207.2h.01M177.7 214.8h.01M141.8 96.4h.01M170.9 68.7h.01M153.1 68.2h.01M34.4 370.3h.01M214.8 111.9h.01M131.7 175.4h.01M166.5 104.6h.01M137.4 201.2h.01M127.2 417.7h.01M134.4 183.1h.01M166.8 207.0h.01M196.0 130.3h.01M160.4 119.6h.01M207.0 108.7h.01M52.0 391.2h.01M199.0 84.0h.01M183.0 71.3h.01M191.1 426.0h.01M45.2 382.6h.01M196.2 152.4h.01M140.4 76.5h.01M184.9 119.4h.01M207.7 90.2h.01M182.7 101.4h.01M212.0 101.0h.01M281.7 414.1h.01M95.2 425.9h.01M165.3 111.9h.01M192.4 115.0h.01M177.9 119.3h.01M148.2 90.2h.01M147.7 112.6h.01M174.7 105.3h.01M172.6 127.1h.01M122.6 430.5h.01M133.3 420.3h.01M167.3 87.1h.01M184.3 92.8h.01M174.2 95.8h.01M245.8 296.4h.01M195.3 91.7h.01M287.9 410.4h.01M358.6 275.8h.01M150.1 97.8h.01M248.7 415.1h.01M174.6 428.9h.01M0.4 288.6h.01M306.1 392.0h.01M148.3 82.3h.01M295.8 403.3h.01M170.4 134.1h.01M88.4 199.2h.01M163.6 128.6h.01M202.1 98.2h.01M198.0 75.3h.01M188.0 78.0h.01"/>
<path stroke="#1a1a1a" stroke-width="1.96" stroke-linecap="round" fill="none" d="M192.3 46.6h.01M156.3 216.9h.01M278.5 208.4h.01M141.6 179.8h.01M162.3 280.0h.01M145.4 54.9h.01M0.4 201.0h.01M110.3 198.8h.01M229.1 153.8h.01M186.2 183.5h.01M225.4 124.0h.01M255.9 408.8h.01M110.4 178.6h.01M253.9 148.1h.01M145.9 313.7h.01M240.5 83.1h.01M227.1 65.8h.01M118.9 68.5h.01M163.7 306.7h.01M180.3 49.0h.01M161.0 48.8h.01M141.2 303.7h.01M104.7 202.8h.01M73.0 408.5h.01M152.2 251.9h.01M234.5 163.7h.01M106.5 72.8h.01M148.8 61.8h.01M207.8 81.0h.01M143.7 218.0h.01M126.2 79.8h.01M182.7 229.9h.01M191.3 222.8h.01M157.3 142.3h.01M164.6 187.1h.01M218.9 120.4h.01M257.8 224.7h.01M289.5 217.2h.01M124.0 141.8h.01M132.9 117.5h.01M235.9 118.5h.01M157.5 235.4h.01M222.0 104.1h.01M192.9 199.1h.01M104.4 427.7h.01M134.1 244.9h.01M150.2 258.3h.01M112.4 76.4h.01M260.8 426.3h.01M358.6 142.3h.01M248.6 135.5h.01M141.6 164.0h.01M253.8 397.1h.01M137.8 272.5h.01M164.1 430.6h.01M215.5 187.3h.01M274.7 139.4h.01M241.9 73.3h.01M254.9 139.0h.01M155.1 284.6h.01M130.7 146.6h.01M117.9 403.1h.01M125.6 297.9h.01M103.6 105.9h.01M97.6 120.6h.01M169.2 259.7h.01M218.3 51.0h.01M187.7 276.0h.01M238.8 112.2h.01M112.4 82.9h.01M150.7 274.5h.01M222.7 113.1h.01M125.0 71.3h.01M184.9 163.5h.01M207.3 210.0h.01M132.2 270.9h.01M281.6 244.9h.01M165.5 246.1h.01M180.2 221.5h.01M114.5 102.9h.01M289.4 403.8h.01M211.3 204.5h.01M217.4 168.0h.01M151.9 55.3h.01M256.9 161.9h.01M207.8 158.5h.01M103.7 136.0h.01M131.9 73.6h.01M116.5 298.5h.01M104.7 198.2h.01M227.6 200.2h.01M219.2 141.5h.01M146.1 242.4h.01M133.8 411.4h.01M160.7 221.6h.01M198.3 106.6h.01M224.0 174.8h.01M151.6 298.1h.01M115.4 110.4h.01M130.2 100.1h.01M173.5 44.0h.01M278.7 252.1h.01M254.0 113.8h.01M170.5 289.7h.01M237.9 146.0h.01M145.0 253.6h.01M182.1 200.0h.01M159.9 312.9h.01M204.8 128.5h.01M240.1 125.6h.01M243.7 146.5h.01M200.9 136.4h.01M39.2 376.3h.01M193.8 217.0h.01M166.5 53.4h.01M100.3 205.7h.01M230.3 74.4h.01M230.9 187.9h.01M0.4 152.9h.01M243.2 105.5h.01M207.3 253.6h.01M140.2 315.4h.01M262.1 213.6h.01M162.6 213.7h.01M218.7 193.0h.01M189.7 230.6h.01M236.9 186.8h.01M232.4 83.4h.01M256.8 108.1h.01M216.8 69.3h.01M120.6 125.2h.01M208.8 72.9h.01M186.0 225.0h.01M239.8 195.1h.01M165.6 61.4h.01M143.5 145.3h.01M106.6 78.8h.01M204.8 188.8h.01M156.6 43.5h.01M184.9 269.2h.01M87.7 419.7h.01M172.7 296.1h.01M148.5 192.4h.01M130.4 65.0h.01M96.2 215.3h.01M131.5 109.4h.01M103.2 126.4h.01M228.4 164.6h.01M122.9 307.4h.01M156.7 302.0h.01M173.3 141.3h.01M264.3 145.8h.01M127.3 57.0h.01M136.7 143.6h.01M358.6 219.5h.01M212.0 143.1h.01M157.6 417.1h.01M192.2 211.0h.01M66.4 405.2h.01M159.3 55.2h.01M260.7 113.6h.01M219.3 128.4h.01M180.8 279.4h.01M116.5 210.4h.01M235.5 69.0h.01M92.7 220.3h.01M163.1 228.1h.01M200.4 48.3h.01M141.7 119.4h.01M255.7 264.8h.01M188.9 151.9h.01M229.3 98.6h.01M73.9 126.9h.01M261.2 166.5h.01M151.3 199.9h.01M238.6 167.8h.01M124.7 118.5h.01M188.6 259.6h.01M185.3 281.8h.01M149.7 141.7h.01M110.8 116.9h.01M150.8 214.1h.01M160.9 251.2h.01M216.4 159.8h.01M121.4 301.0h.01M246.6 113.6h.01M202.7 175.6h.01M265.7 190.3h.01M146.0 0.4h.01M226.3 409.7h.01M63.7 239.3h.01M98.0 126.5h.01M65.5 319.4h.01M179.8 56.2h.01M120.8 88.4h.01M267.8 137.2h.01M153.5 311.5h.01M205.7 52.8h.01M227.0 182.2h.01M265.9 256.7h.01M181.4 151.8h.01M131.2 297.8h.01M117.4 94.2h.01M243.7 120.1h.01M111.5 97.0h.01M23.8 352.6h.01M139.6 54.7h.01M153.2 242.0h.01M139.1 111.6h.01M109.6 125.6h.01M151.5 147.3h.01M100.6 211.3h.01M91.1 145.0h.01M170.5 213.8h.01M164.5 419.7h.01M261.7 262.5h.01M253.1 186.5h.01M195.3 276.3h.01M100.8 116.7h.01M244.3 164.8h.01M88.5 216.0h.01M148.1 302.2h.01M228.2 158.8h.01M181.8 110.9h.01M155.5 228.7h.01M170.4 148.5h.01M190.8 264.8h.01M271.8 234.9h.01M247.7 81.5h.01M82.2 195.0h.01M148.9 287.1h.01M137.9 278.7h.01M128.4 169.4h.01M140.1 187.7h.01M281.6 213.9h.01M229.9 110.4h.01M212.2 163.1h.01M262.1 220.5h.01M152.1 430.6h.01M121.9 407.8h.01M192.1 270.8h.01M247.7 99.8h.01M242.7 172.0h.01M51.8 383.7h.01M200.9 213.3h.01M176.6 226.7h.01M248.7 151.6h.01M282.7 156.4h.01M130.4 405.6h.01M220.8 203.6h.01M241.2 203.0h.01M358.6 160.1h.01M127.2 303.7h.01M221.9 162.0h.01M221.5 209.6h.01M162.5 300.2h.01M199.2 197.9h.01M261.6 252.7h.01M81.0 0.4h.01M117.9 144.8h.01M236.9 77.5h.01M231.0 170.8h.01M238.8 98.8h.01M269.7 262.3h.01M277.1 239.8h.01M112.4 89.8h.01M280.4 161.7h.01M134.8 59.5h.01M240.3 199.4h.01M84.2 209.8h.01M272.7 194.5h.01M152.4 187.6h.01M259.4 190.0h.01M216.5 77.7h.01M187.4 53.0h.01M110.5 395.3h.01M250.8 392.5h.01M250.6 120.4h.01M169.0 422.3h.01M154.4 181.1h.01M222.1 155.3h.01M95.6 209.3h.01M169.9 228.6h.01M138.5 414.9h.01M156.9 307.1h.01M193.4 59.7h.01M0.4 226.8h.01M123.5 208.7h.01M269.7 250.6h.01M148.0 308.3h.01M272.1 133.8h.01M119.2 76.1h.01M156.3 256.3h.01M179.0 42.2h.01M257.0 183.5h.01M131.2 249.3h.01M132.6 214.2h.01M113.3 189.0h.01M195.4 144.7h.01M173.0 221.3h.01M209.6 150.3h.01M192.9 182.5h.01M90.6 210.4h.01M160.6 288.0h.01M86.6 222.5h.01M358.6 190.5h.01M155.2 194.8h.01M148.0 247.6h.01M108.5 103.1h.01M261.2 182.0h.01M112.3 302.8h.01M263.7 229.1h.01M217.0 85.8h.01M232.2 144.7h.01M137.7 133.4h.01M212.1 47.9h.01M225.1 81.5h.01M270.1 415.6h.01M165.9 234.0h.01M286.6 186.1h.01M154.1 223.3h.01M227.8 130.3h.01M105.3 120.4h.01M109.4 138.1h.01M115.1 131.1h.01M149.6 237.0h.01M169.2 304.0h.01M60.9 323.8h.01M116.4 396.4h.01M215.0 209.1h.01M212.2 127.9h.01M186.2 287.3h.01M242.0 139.2h.01M195.4 228.2h.01M215.7 135.3h.01M288.2 223.8h.01M204.0 67.8h.01M114.6 122.3h.01M84.3 273.8h.01M214.6 154.3h.01M277.0 193.1h.01M240.6 397.3h.01M141.1 247.7h.01M139.7 309.6h.01M258.5 145.0h.01M280.5 183.9h.01M189.9 124.7h.01M256.7 119.2h.01M112.0 402.2h.01M144.7 203.6h.01M223.6 168.5h.01M254.9 126.3h.01M105.3 91.7h.01M163.0 195.8h.01M242.8 132.2h.01M197.3 167.7h.01M124.7 112.1h.01M267.1 195.7h.01M113.0 0.4h.01M232.8 125.3h.01M127.2 182.2h.01M127.4 411.1h.01M120.7 100.0h.01M271.2 210.9h.01M245.2 88.0h.01M148.7 180.4h.01M209.4 119.9h.01M185.8 61.9h.01M158.8 149.3h.01M126.5 214.5h.01M172.8 58.7h.01M259.0 231.4h.01M202.4 250.2h.01M255.4 194.3h.01M275.4 418.2h.01M235.0 105.3h.01M289.2 212.1h.01M210.8 63.9h.01M176.1 232.2h.01M82.3 213.8h.01M119.9 60.5h.01M0.4 176.6h.01M146.0 185.7h.01M295.1 397.8h.01M216.1 200.0h.01M82.4 200.3h.01M204.0 195.4h.01M165.6 142.4h.01M20.8 347.7h.01M168.1 251.5h.01M125.5 94.9h.01M266.0 179.8h.01M174.3 263.8h.01M86.8 205.2h.01M280.2 188.8h.01M207.4 244.7h.01M264.9 162.5h.01M195.8 53.2h.01M231.5 194.7h.01M219.6 62.0h.01M172.2 185.7h.01M212.9 194.4h.01M245.5 0.4h.01M250.1 107.4h.01M221.3 187.4h.01M117.5 304.7h.01M144.2 276.4h.01M227.1 194.8h.01M256.6 258.3h.01M247.9 180.9h.01M251.1 428.5h.01M133.9 304.3h.01M130.9 275.8h.01M203.9 204.0h.01M273.6 257.0h.01M217.3 174.9h.01M263.4 185.8h.01M106.9 86.0h.01M141.8 61.6h.01M182.3 188.1h.01M277.8 0.4h.01M223.5 72.8h.01M113.1 70.7h.01M198.0 221.9h.01M208.1 136.5h.01M193.3 255.5h.01M222.1 197.2h.01M124.4 63.7h.01M178.2 145.9h.01M264.4 418.1h.01M116.3 138.4h.01M120.1 106.9h.01M107.7 131.8h.01M83.2 218.9h.01M26.6 357.6h.01M123.1 202.2h.01M211.9 266.1h.01M242.9 93.8h.01M358.6 255.2h.01M281.1 151.7h.01M108.9 409.4h.01M223.7 55.4h.01M235.4 181.9h.01M29.6 363.9h.01M125.9 104.8h.01M160.9 182.6h.01M203.0 59.5h.01M185.7 44.7h.01M260.8 151.6h.01M125.2 403.4h.01M299.8 389.1h.01M156.7 210.0h.01M250.0 93.3h.01M236.8 174.4h.01M139.0 241.9h.01M169.6 188.9h.01M183.8 209.3h.01M235.8 90.8h.01M118.1 116.4h.01M163.3 256.9h.01M156.9 61.6h.01M268.9 85.3h.01M196.4 420.9h.01M254.7 132.4h.01M165.2 96.4h.01M165.6 292.7h.01M128.7 87.7h.01M167.7 45.7h.01M261.8 139.6h.01M228.8 118.3h.01M358.6 236.4h.01M358.6 204.5h.01M122.9 133.3h.01M154.1 49.2h.01M136.6 103.5h.01M137.1 251.3h.01M261.9 133.5h.01M173.3 50.9h.01M152.2 414.6h.01M217.0 148.1h.01M81.7 268.2h.01M358.6 176.0h.01M231.4 177.7h.01M100.1 219.4h.01M136.9 68.0h.01M226.6 90.3h.01M247.9 127.5h.01M157.4 246.3h.01M0.4 255.2h.01M179.5 0.4h.01M121.5 196.5h.01M226.6 206.3h.01M219.9 181.2h.01M213.4 56.4h.01M109.6 109.8h.01M105.0 113.1h.01M98.4 199.5h.01M115.4 180.6h.01M266.0 175.1h.01M82.0 263.0h.01M162.0 240.3h.01M208.2 199.6h.01M200.7 185.1h.01M118.9 82.6h.01M262.2 171.8h.01M147.1 49.1h.01M278.7 145.7h.01M213.0 0.4h.01M80.2 205.2h.01M121.7 399.0h.01M283.2 225.0h.01M134.2 165.1h.01M158.3 187.4h.01M206.3 44.5h.01M166.8 220.6h.01"/>
<path stroke="#1a1a1a" stroke-width="2.40" stroke-linecap="round" fill="none" d="M233.9 367.1h.01M148.1 293.7h.01M179.6 424.0h.01M99.9 88.0h.01M105.0 297.6h.01M90.5 293.1h.01M194.0 40.2h.01M140.6 152.1h.01M91.8 121.0h.01M102.9 312.0h.01M261.4 96.2h.01M221.4 219.2h.01M266.2 411.3h.01M120.4 213.8h.01M106.4 388.6h.01M242.0 152.9h.01M191.9 164.2h.01M202.0 243.4h.01M237.5 256.4h.01M178.0 183.8h.01M231.0 135.2h.01M229.7 262.4h.01M286.5 382.1h.01M107.6 301.2h.01M45.3 374.8h.01M200.2 233.1h.01M283.9 401.6h.01M81.2 229.4h.01M101.6 305.8h.01M83.2 259.1h.01M266.2 104.0h.01M137.7 261.5h.01M167.5 298.7h.01M206.2 402.2h.01M210.2 189.4h.01M65.0 398.3h.01M278.8 219.9h.01M266.2 98.6h.01M229.9 368.9h.01M292.8 385.5h.01M107.2 305.5h.01M273.1 91.0h.01M77.4 222.0h.01M93.8 136.0h.01M57.2 386.8h.01M276.6 156.6h.01M253.4 245.2h.01M78.4 272.9h.01M249.2 240.1h.01M276.8 112.4h.01M235.5 139.1h.01M250.5 162.4h.01M270.1 164.9h.01M220.6 242.0h.01M254.3 155.4h.01M148.8 319.3h.01M279.2 167.4h.01M277.9 173.4h.01M86.5 102.3h.01M211.0 282.3h.01M204.0 219.5h.01M229.4 250.8h.01M253.5 179.0h.01M207.0 165.9h.01M167.8 181.6h.01M127.2 288.7h.01M92.6 85.2h.01M230.2 364.0h.01M225.1 229.5h.01M183.3 157.5h.01M84.8 412.2h.01M262.1 207.2h.01M180.6 264.4h.01M106.6 309.6h.01M241.3 178.7h.01M198.3 355.9h.01M220.8 372.6h.01M123.9 280.2h.01M228.5 256.5h.01M157.7 318.1h.01M179.0 250.5h.01M200.9 280.4h.01M172.1 243.9h.01M101.7 381.1h.01M123.1 270.8h.01M64.6 246.9h.01M240.3 260.2h.01M236.9 212.5h.01M204.4 264.6h.01M245.4 238.0h.01M271.1 199.3h.01M82.9 107.8h.01M85.8 291.1h.01M203.1 258.1h.01M235.9 282.3h.01M225.3 275.4h.01M270.2 95.1h.01M232.6 237.4h.01M235.5 192.2h.01M97.5 286.8h.01M241.6 210.3h.01M227.7 218.4h.01M224.0 260.8h.01M224.4 144.8h.01M232.4 396.8h.01M194.9 358.2h.01M106.6 193.2h.01M119.3 150.7h.01M230.8 273.5h.01M113.4 202.5h.01M243.6 256.6h.01M182.6 259.6h.01M261.1 90.6h.01M246.9 175.7h.01M95.9 225.2h.01M190.7 418.9h.01M219.4 226.1h.01M266.8 110.7h.01M97.4 144.4h.01M257.3 218.6h.01M179.2 254.9h.01M188.2 38.8h.01M152.4 152.4h.01M193.2 404.9h.01M95.5 77.4h.01M246.5 201.8h.01M106.5 271.5h.01M250.9 381.8h.01M200.1 351.9h.01M114.0 63.9h.01M77.3 209.4h.01M290.9 199.0h.01M254.4 102.6h.01M291.1 204.0h.01M269.0 142.8h.01M85.7 283.8h.01M174.4 302.4h.01M279.2 197.2h.01M168.9 273.3h.01M90.4 412.6h.01M215.6 219.6h.01M102.3 82.8h.01M143.9 319.2h.01M208.1 226.0h.01M270.8 106.2h.01M225.0 358.7h.01M206.4 269.6h.01M249.2 143.3h.01M208.5 179.4h.01M283.9 147.3h.01M240.5 276.7h.01M105.9 208.4h.01M137.4 217.4h.01M79.1 150.2h.01M216.5 399.9h.01M196.1 282.7h.01M268.3 150.3h.01M111.2 144.2h.01M278.8 126.6h.01M276.2 121.5h.01M93.8 274.7h.01M249.1 258.7h.01M109.9 414.6h.01M159.4 273.1h.01M216.2 280.8h.01M169.8 267.4h.01M184.6 246.5h.01M130.9 260.6h.01M99.6 100.4h.01M94.6 180.1h.01M268.8 184.4h.01M236.2 202.9h.01M239.4 242.0h.01M88.2 133.4h.01M253.4 74.4h.01M254.7 167.6h.01M103.1 301.7h.01M233.5 231.4h.01M148.2 39.7h.01M100.2 77.5h.01M277.7 225.2h.01M88.0 107.8h.01M139.9 48.9h.01M81.4 224.1h.01M101.1 68.2h.01M223.2 135.6h.01M88.9 127.2h.01M260.9 157.5h.01M253.2 226.7h.01M277.2 116.9h.01M179.2 313.7h.01M216.5 372.3h.01M215.8 385.2h.01M222.9 370.2h.01M213.9 368.2h.01M199.3 294.4h.01M183.7 291.9h.01M293.8 389.5h.01M209.5 220.5h.01M288.8 207.3h.01M100.5 295.5h.01M251.9 87.2h.01M99.0 94.6h.01M113.6 294.5h.01M230.3 404.0h.01M283.5 142.0h.01M134.3 151.7h.01M120.7 53.9h.01M203.9 349.2h.01M205.8 281.2h.01M133.4 311.2h.01M87.0 96.7h.01M225.8 242.1h.01M85.7 164.3h.01M143.1 289.8h.01M98.3 277.1h.01M246.5 206.9h.01M169.4 309.3h.01M230.0 241.4h.01M261.4 195.9h.01M79.9 408.4h.01M212.0 411.3h.01M62.2 385.7h.01M159.9 260.6h.01M240.6 252.2h.01M198.2 189.8h.01M225.9 247.2h.01M241.9 65.7h.01M266.3 156.0h.01M198.5 175.1h.01M89.1 280.0h.01M94.2 149.8h.01M175.3 308.4h.01M235.3 262.5h.01M142.6 296.8h.01M83.2 135.7h.01M94.8 419.3h.01M145.5 259.6h.01M73.0 160.7h.01M148.7 221.5h.01M174.7 422.5h.01M101.6 289.4h.01M265.6 92.6h.01M229.9 374.2h.01M287.1 399.8h.01M87.8 140.1h.01M104.3 213.7h.01M256.8 206.8h.01M100.0 139.1h.01M129.5 316.9h.01M179.6 273.9h.01M211.2 402.2h.01M74.4 212.5h.01M212.1 272.2h.01M95.1 90.3h.01M224.4 265.6h.01M275.4 246.0h.01M253.0 387.8h.01M74.3 204.3h.01M232.7 382.1h.01M160.4 294.8h.01M271.1 100.5h.01M275.8 411.6h.01M227.6 140.1h.01M244.9 190.7h.01M143.7 283.0h.01M92.5 116.5h.01M242.1 392.2h.01M210.8 249.3h.01M233.7 221.3h.01M87.3 116.7h.01M257.7 212.2h.01M214.0 389.3h.01M93.5 99.6h.01M222.4 150.0h.01M242.5 245.6h.01M284.5 209.1h.01M273.8 145.6h.01M86.5 85.0h.01M138.0 291.7h.01M133.0 292.3h.01M41.2 362.7h.01M99.0 182.8h.01M133.4 256.0h.01M198.3 269.0h.01M212.9 277.1h.01M213.3 255.6h.01M179.4 236.3h.01M191.0 290.3h.01M151.2 207.0h.01M239.8 265.5h.01M267.5 206.9h.01M224.8 223.7h.01M91.5 111.3h.01M201.6 344.4h.01M113.2 194.3h.01M194.5 306.9h.01M231.1 246.1h.01M220.7 231.9h.01M155.8 278.1h.01M244.6 290.8h.01M276.0 178.7h.01M210.5 233.8h.01M105.0 142.7h.01M97.3 291.9h.01M109.2 204.3h.01M171.9 236.6h.01M226.0 383.2h.01M173.1 181.1h.01M275.1 215.7h.01M127.4 253.2h.01M66.9 275.5h.01M111.3 184.4h.01M226.1 372.5h.01M221.0 237.0h.01M98.8 178.0h.01M261.5 121.5h.01M97.3 249.7h.01M156.8 297.1h.01M204.2 414.3h.01M227.3 398.8h.01M132.8 47.2h.01M214.9 415.5h.01M91.8 104.8h.01M178.5 246.1h.01M281.7 203.1h.01M237.6 207.2h.01M247.7 75.7h.01M71.4 401.4h.01M254.1 231.6h.01M163.2 37.6h.01M74.4 149.7h.01M215.8 236.5h.01M102.8 181.6h.01M139.7 256.7h.01M84.8 129.3h.01M108.3 67.6h.01M201.5 286.8h.01M219.2 376.2h.01M196.5 247.5h.01M175.3 37.0h.01M230.0 223.3h.01M169.4 37.7h.01M84.7 182.2h.01M248.0 244.7h.01M105.1 97.6h.01M251.8 254.2h.01M222.3 270.6h.01M250.3 249.1h.01M202.0 227.1h.01M254.2 240.3h.01M138.1 157.6h.01M91.8 194.5h.01M280.0 137.5h.01M198.9 160.8h.01M118.4 310.5h.01M192.6 188.7h.01M189.7 355.8h.01M231.7 203.9h.01M244.9 262.2h.01M118.7 191.7h.01M236.9 236.3h.01M126.5 50.2h.01M78.6 216.3h.01M222.4 395.9h.01M219.7 257.6h.01M193.5 240.4h.01M215.9 247.2h.01M265.6 267.4h.01M104.7 64.3h.01M258.9 85.5h.01M203.2 169.6h.01M85.2 158.3h.01M52.0 377.6h.01M89.1 275.2h.01M231.9 284.9h.01M188.2 253.8h.01M45.9 368.6h.01M74.5 135.2h.01M168.4 240.2h.01M233.0 257.5h.01M262.1 107.6h.01M78.1 403.6h.01M265.7 116.5h.01M271.8 124.3h.01M221.5 251.2h.01M213.4 182.0h.01M260.3 102.0h.01M162.6 42.8h.01M217.3 381.0h.01M214.3 230.2h.01M187.8 169.3h.01M219.0 275.2h.01M144.2 43.7h.01M252.9 211.6h.01M290.6 398.0h.01M165.4 314.0h.01M238.8 247.8h.01M60.1 392.9h.01M225.6 376.4h.01M273.4 173.6h.01M271.4 116.6h.01M222.5 379.5h.01M185.7 235.4h.01M202.7 420.3h.01M141.8 262.7h.01M212.7 374.1h.01M241.5 311.6h.01M89.9 89.6h.01M121.8 262.4h.01M112.0 207.9h.01M98.9 281.8h.01M197.4 262.1h.01M76.9 199.6h.01M98.6 300.5h.01M280.2 408.3h.01M112.4 308.5h.01M226.3 392.5h.01M124.6 275.2h.01M40.8 368.7h.01M79.8 277.1h.01M92.0 76.6h.01M250.2 208.8h.01M132.6 286.9h.01M242.2 184.3h.01M190.9 244.3h.01M105.4 293.0h.01M274.0 151.7h.01M35.6 364.0h.01M99.6 236.2h.01M164.1 264.5h.01M95.7 159.5h.01M126.0 247.1h.01M132.5 281.8h.01M118.6 270.4h.01M210.7 214.9h.01M94.7 140.2h.01M190.5 310.9h.01M164.7 150.7h.01M167.2 284.4h.01M250.0 197.4h.01M185.9 423.1h.01M214.6 378.1h.01M181.9 37.3h.01M114.7 57.2h.01M220.6 357.9h.01M210.9 169.7h.01M126.6 163.8h.01M176.9 290.4h.01M267.4 129.5h.01M96.8 82.4h.01M32.3 357.5h.01M109.3 61.1h.01M27.0 345.4h.01M94.6 296.8h.01M208.7 407.6h.01M197.4 301.9h.01M223.1 353.4h.01M93.9 278.6h.01M236.2 131.8h.01M244.0 242.0h.01M227.5 285.7h.01M247.8 226.5h.01M197.0 414.5h.01M258.4 418.8h.01M146.4 151.5h.01M265.2 235.0h.01M254.7 423.2h.01M232.2 215.3h.01M235.5 400.5h.01M173.7 153.4h.01M208.2 352.2h.01M128.2 309.9h.01M154.1 292.0h.01M66.5 174.8h.01M231.9 209.5h.01M247.8 186.2h.01M229.8 58.4h.01M220.8 284.6h.01M85.4 90.5h.01M101.0 422.3h.01M246.9 157.8h.01M211.4 397.2h.01M220.9 246.7h.01M278.5 98.6h.01M244.1 388.4h.01M114.9 313.7h.01M179.8 285.7h.01M102.1 190.6h.01M226.1 213.0h.01M150.8 43.4h.01M235.2 288.2h.01M202.6 409.9h.01M181.6 308.5h.01M94.5 244.1h.01M85.3 112.2h.01M286.2 231.2h.01M235.5 62.1h.01M96.3 113.1h.01M267.4 122.0h.01M253.8 216.2h.01M214.6 291.0h.01M75.3 193.9h.01M275.2 162.6h.01M297.0 393.2h.01M206.2 396.8h.01M216.6 394.8h.01M116.8 198.5h.01M202.4 405.1h.01M216.6 270.2h.01M124.6 148.8h.01M182.4 241.4h.01M218.9 265.1h.01M173.9 273.6h.01M198.1 255.0h.01M190.5 249.2h.01M272.1 188.2h.01M214.2 242.5h.01M244.9 196.2h.01M93.3 125.5h.01M188.2 159.0h.01M87.0 269.2h.01M94.1 282.7h.01M270.4 175.6h.01M290.8 393.5h.01M223.7 388.2h.01M90.4 163.0h.01M235.3 390.7h.01M289.8 193.4h.01M96.2 72.1h.01M225.2 190.0h.01M101.0 72.9h.01M173.7 248.6h.01M223.0 405.7h.01M210.3 392.6h.01M99.5 132.1h.01M255.4 97.2h.01M30.3 350.8h.01M146.4 175.3h.01M242.8 206.4h.01M176.5 259.3h.01M233.2 371.8h.01M261.9 127.3h.01M235.1 242.0h.01M215.6 261.0h.01M144.9 169.9h.01M235.1 247.0h.01M201.8 274.3h.01M219.4 390.5h.01M88.7 296.9h.01M224.7 254.0h.01M234.5 278.0h.01M229.2 386.9h.01M82.2 94.1h.01M234.6 157.1h.01M101.0 225.6h.01M88.4 288.0h.01M110.6 271.6h.01M84.1 279.0h.01M284.3 406.2h.01M80.6 282.5h.01M214.1 224.6h.01M106.9 239.9h.01M230.6 392.3h.01M258.3 78.0h.01M246.9 385.0h.01M118.9 274.7h.01M250.3 191.6h.01M274.4 168.8h.01M206.5 231.2h.01M81.3 140.9h.01M272.3 110.6h.01M93.5 131.1h.01M240.3 190.1h.01M196.2 409.5h.01M229.0 379.3h.01M91.3 285.2h.01M283.9 238.5h.01M229.6 279.4h.01M117.9 204.7h.01M87.3 121.9h.01M199.8 42.1h.01M251.7 221.5h.01M105.2 178.0h.01M90.3 226.3h.01M218.2 214.4h.01M225.1 281.5h.01M92.0 94.7h.01M110.2 297.5h.01M216.9 252.3h.01M234.6 198.5h.01M265.5 201.7h.01M227.5 269.4h.01M274.2 229.7h.01M244.9 249.0h.01M241.7 271.2h.01M278.0 132.3h.01M95.5 304.5h.01M259.7 177.4h.01M115.1 269.7h.01M222.8 366.2h.01M275.2 104.8h.01M119.3 259.5h.01M210.6 383.9h.01M226.6 367.9h.01M93.4 289.7h.01M90.0 80.8h.01M256.9 172.7h.01M246.0 212.3h.01M99.9 110.1h.01M236.3 273.8h.01M110.3 313.3h.01M235.6 151.5h.01M248.4 169.0h.01M233.6 377.2h.01M226.0 236.7h.01M252.4 236.0h.01M240.2 159.5h.01M254.5 81.7h.01M155.8 38.4h.01M249.5 215.4h.01M124.2 313.5h.01M84.0 124.1h.01M187.8 240.1h.01M208.9 388.1h.01M202.2 164.4h.01M265.8 224.3h.01M258.4 237.2h.01M239.3 285.9h.01M107.3 183.3h.01M173.7 254.3h.01M219.1 411.3h.01M270.9 158.2h.01M284.6 218.4h.01M149.4 264.3h.01M236.4 269.1h.01M149.4 280.3h.01M259.6 201.5h.01M193.3 158.6h.01M83.2 119.3h.01M256.1 250.7h.01M209.0 417.4h.01M254.9 200.2h.01M251.8 204.1h.01M106.2 419.9h.01M102.1 249.9h.01M90.2 180.9h.01M122.2 284.9h.01M273.7 128.8h.01M137.9 284.6h.01M125.9 258.3h.01M95.6 413.5h.01M207.1 287.0h.01M138.6 43.8h.01M232.0 267.3h.01M249.2 230.9h.01M120.9 294.7h.01M136.7 297.2h.01M220.7 384.5h.01M198.4 239.4h.01M118.2 185.4h.01M167.0 192.2h.01M251.9 173.2h.01M176.5 241.1h.01M209.8 239.3h.01M107.8 189.3h.01M85.6 228.5h.01M122.7 186.8h.01M86.1 147.0h.01M204.7 292.7h.01M255.9 91.5h.01M284.8 136.9h.01M228.7 148.9h.01M129.2 241.2h.01M184.0 252.6h.01M262.9 81.7h.01M248.9 332.2h.01M151.9 315.8h.01M193.8 234.8h.01M260.4 412.7h.01M131.6 158.0h.01M220.9 279.8h.01M96.9 105.7h.01M133.4 52.8h.01M209.2 260.1h.01M76.7 264.2h.01M271.2 409.2h.01M207.5 275.7h.01M248.0 69.4h.01M196.1 288.9h.01M116.7 256.1h.01M191.0 282.8h.01"/>
<path stroke="#1a1a1a" stroke-width="2.88" stroke-linecap="round" fill="none" d="M226.1 331.8h.01M72.3 179.5h.01M117.0 278.5h.01M224.9 313.7h.01M100.6 416.5h.01M156.7 154.7h.01M208.3 337.1h.01M227.9 300.6h.01M85.5 191.0h.01M66.8 240.6h.01M219.0 297.5h.01M210.9 379.1h.01M232.9 296.3h.01M198.8 383.6h.01M67.3 236.4h.01M90.4 241.5h.01M262.9 240.3h.01M194.5 339.0h.01M74.8 154.5h.01M245.2 266.5h.01M100.1 252.5h.01M183.7 345.5h.01M204.8 384.9h.01M221.3 341.4h.01M65.1 233.1h.01M94.1 155.0h.01M35.9 354.0h.01M123.8 174.5h.01M183.8 413.1h.01M183.1 301.4h.01M202.5 394.8h.01M232.6 333.3h.01M230.2 227.8h.01M269.0 89.8h.01M283.5 131.9h.01M222.0 328.9h.01M117.4 286.6h.01M216.2 405.8h.01M127.8 279.2h.01M77.3 259.3h.01M229.6 355.1h.01M76.1 399.1h.01M161.4 191.5h.01M190.4 193.6h.01M205.1 345.1h.01M187.1 370.1h.01M237.3 342.3h.01M118.4 320.9h.01M201.0 368.2h.01M72.4 171.9h.01M67.4 225.3h.01M96.8 317.3h.01M120.4 245.0h.01M197.8 343.8h.01M258.6 243.3h.01M184.8 311.6h.01M79.3 189.5h.01M164.5 275.0h.01M67.1 198.4h.01M111.2 243.0h.01M226.0 363.1h.01M82.8 167.5h.01M289.4 389.5h.01M80.0 251.5h.01M74.1 165.7h.01M209.2 311.2h.01M82.5 244.7h.01M237.9 314.9h.01M282.5 395.0h.01M75.1 245.5h.01M101.6 146.5h.01M206.9 357.2h.01M73.8 220.3h.01M274.9 95.6h.01M104.7 392.3h.01M235.4 293.0h.01M241.0 306.1h.01M223.3 300.2h.01M120.8 249.9h.01M105.5 221.1h.01M240.4 325.2h.01M96.0 185.4h.01M70.6 276.1h.01M220.3 362.6h.01M210.0 370.1h.01M184.5 404.4h.01M69.5 257.5h.01M233.8 323.9h.01M135.4 317.1h.01M233.1 312.6h.01M72.9 272.4h.01M223.3 318.7h.01M204.5 335.0h.01M221.7 347.6h.01M114.4 247.0h.01M198.4 360.8h.01M190.0 323.1h.01M119.8 316.4h.01M195.1 346.3h.01M210.0 326.7h.01M74.0 233.5h.01M266.9 406.0h.01M218.2 293.5h.01M202.6 380.9h.01M122.6 219.0h.01M159.0 268.5h.01M199.2 347.6h.01M175.4 189.6h.01M234.9 338.0h.01M228.5 304.9h.01M286.5 190.9h.01M110.1 287.2h.01M234.6 328.9h.01M72.4 268.2h.01M216.0 285.6h.01M89.8 151.7h.01M111.0 268.2h.01M81.2 145.7h.01M262.2 407.8h.01M102.9 284.1h.01M150.0 157.1h.01M196.6 375.8h.01M278.6 397.2h.01M239.0 388.1h.01M286.2 396.3h.01M209.2 332.5h.01M217.6 331.1h.01M202.1 358.7h.01M276.9 203.1h.01M57.5 380.4h.01M93.8 190.0h.01M158.8 177.1h.01M213.8 300.8h.01M196.0 312.1h.01M228.9 327.7h.01M241.3 214.7h.01M234.3 357.4h.01M79.0 247.4h.01M176.8 350.4h.01M68.7 203.1h.01M241.6 281.1h.01M120.4 278.6h.01M241.9 383.9h.01M241.3 237.9h.01M78.2 108.1h.01M77.2 157.7h.01M133.4 321.9h.01M220.0 315.5h.01M205.0 371.5h.01M210.5 315.7h.01M75.6 241.7h.01M208.1 318.7h.01M282.0 398.4h.01M69.4 193.7h.01M72.5 280.8h.01M211.8 287.3h.01M192.1 301.9h.01M76.5 269.0h.01M162.5 415.4h.01M229.5 359.5h.01M210.0 364.8h.01M195.1 381.3h.01M239.0 294.6h.01M125.4 158.5h.01M84.5 255.5h.01M65.7 257.9h.01M288.8 385.3h.01M186.8 191.4h.01M91.1 267.6h.01M186.9 320.4h.01M107.1 319.7h.01M178.4 197.3h.01M115.9 241.5h.01M106.5 148.4h.01M200.0 364.4h.01M235.4 226.0h.01M179.3 162.2h.01M114.2 323.1h.01M121.5 155.5h.01M192.7 314.9h.01M180.8 351.3h.01M69.1 189.0h.01M81.2 126.3h.01M215.6 325.5h.01M84.5 405.0h.01M188.8 351.1h.01M103.0 271.5h.01M104.9 253.7h.01M237.0 218.2h.01M121.9 254.4h.01M218.0 353.1h.01M194.7 173.5h.01M73.0 261.7h.01M220.4 309.7h.01M70.5 212.5h.01M237.1 370.8h.01M191.5 370.1h.01M189.6 413.5h.01M268.1 169.7h.01M98.6 150.2h.01M193.9 325.9h.01M273.9 206.8h.01M208.8 296.9h.01M208.7 347.1h.01M79.7 121.8h.01M106.1 225.9h.01M228.4 335.9h.01M83.2 248.7h.01M101.7 194.5h.01M87.7 264.0h.01M179.0 354.0h.01M232.4 300.9h.01M246.2 278.8h.01M89.2 255.8h.01M201.8 400.0h.01M271.3 404.4h.01M98.5 313.9h.01M134.1 238.2h.01M70.3 240.4h.01M199.7 340.5h.01M183.6 297.2h.01M242.0 218.7h.01M206.8 380.4h.01M105.1 414.1h.01M202.3 327.5h.01M182.6 317.2h.01M228.6 296.1h.01M195.1 367.7h.01M173.5 284.6h.01M227.2 291.5h.01M168.4 195.7h.01M198.6 396.6h.01M275.1 401.1h.01M86.6 247.3h.01M72.1 227.9h.01M195.6 341.5h.01M225.0 309.3h.01M190.9 401.3h.01M45.5 362.9h.01M233.9 305.5h.01M71.1 253.0h.01M84.9 152.5h.01M107.1 315.4h.01M187.1 197.5h.01M218.2 320.8h.01M68.6 179.2h.01M41.0 356.6h.01M170.2 278.8h.01M216.2 358.6h.01M71.3 236.5h.01M217.1 311.9h.01M264.4 247.0h.01M234.1 346.9h.01M197.9 332.9h.01M105.4 235.7h.01M221.9 324.2h.01M127.0 263.3h.01M124.2 241.2h.01M90.3 247.1h.01M230.3 346.0h.01M191.4 360.1h.01M274.0 221.6h.01M219.0 289.0h.01M155.2 411.7h.01M239.4 298.5h.01M242.8 296.3h.01M114.0 215.9h.01M68.3 171.3h.01M99.6 255.3h.01M228.7 316.5h.01M77.5 126.7h.01M106.1 275.3h.01M230.0 309.5h.01M109.7 291.7h.01M87.9 186.0h.01M183.2 359.9h.01M226.9 350.8h.01M118.5 218.0h.01M215.0 363.4h.01M210.5 360.3h.01M213.0 346.0h.01M66.1 212.0h.01M241.4 233.5h.01M193.2 337.0h.01M74.2 168.9h.01M194.5 334.4h.01M234.5 252.1h.01M256.7 271.8h.01M188.7 306.7h.01M282.3 111.9h.01M78.5 168.3h.01M200.6 376.1h.01M95.4 309.1h.01M71.9 198.5h.01M201.2 313.0h.01M108.3 277.3h.01M78.5 286.6h.01M179.5 409.6h.01M212.5 355.7h.01M97.8 241.1h.01M78.2 112.8h.01M197.9 337.4h.01M195.6 317.9h.01M204.8 361.7h.01M171.1 176.4h.01M122.9 290.4h.01M246.5 274.1h.01M175.8 279.5h.01M178.7 299.8h.01M194.4 296.3h.01M181.4 368.4h.01M91.1 271.4h.01M101.4 175.5h.01M207.4 306.9h.01M174.8 165.8h.01M274.6 183.9h.01M74.1 183.1h.01M87.6 259.5h.01M80.6 155.0h.01M76.9 117.9h.01M127.4 284.1h.01M204.9 365.1h.01M96.0 272.1h.01M207.4 301.6h.01M128.5 293.2h.01M250.0 269.1h.01M280.0 403.3h.01M66.1 206.8h.01M233.4 386.9h.01M260.8 269.9h.01M207.3 173.1h.01M84.4 294.5h.01M278.7 108.4h.01M199.7 391.3h.01M173.5 348.7h.01M218.6 367.5h.01M239.6 222.9h.01M229.1 233.3h.01M244.3 230.5h.01M282.9 121.9h.01M232.0 350.3h.01M64.5 222.1h.01M196.0 350.7h.01M106.0 287.9h.01M88.3 233.1h.01M157.1 324.9h.01M78.5 135.7h.01M196.6 370.0h.01M234.6 353.3h.01M241.4 227.1h.01M286.0 390.0h.01M99.4 309.2h.01M278.2 400.4h.01M236.8 374.7h.01M66.8 383.4h.01M247.5 234.8h.01M97.8 230.6h.01M184.3 366.2h.01M167.9 319.8h.01M204.4 237.1h.01M81.5 115.6h.01M240.2 290.7h.01M186.3 363.5h.01M163.3 318.7h.01M113.4 318.1h.01M204.6 376.3h.01M81.5 99.2h.01M233.5 360.3h.01M195.0 365.0h.01M178.9 191.9h.01M117.6 292.3h.01M209.9 292.1h.01M205.0 390.5h.01M213.3 335.9h.01M222.8 305.0h.01M74.6 177.0h.01M237.8 379.6h.01M113.9 289.9h.01M212.9 351.1h.01M282.6 117.1h.01M67.0 243.8h.01M126.5 219.7h.01M87.5 251.6h.01M245.3 222.9h.01M192.7 343.3h.01M235.3 362.8h.01M70.8 175.4h.01M69.9 232.0h.01M264.7 86.8h.01M87.6 304.5h.01M124.7 293.4h.01M275.6 100.7h.01M124.8 320.3h.01M202.6 323.3h.01M237.1 383.8h.01M178.6 295.2h.01M237.7 230.7h.01M71.8 223.8h.01M173.1 194.5h.01M82.7 239.7h.01M255.8 390.8h.01M153.9 320.9h.01M110.3 150.6h.01M82.6 287.6h.01M222.6 335.5h.01M237.4 394.4h.01M78.1 237.7h.01M110.4 212.6h.01M73.6 395.6h.01M177.7 268.8h.01M74.3 286.5h.01M189.1 295.4h.01M198.9 328.2h.01M233.4 342.5h.01M185.5 357.3h.01M221.6 401.2h.01M80.1 103.5h.01M184.4 349.6h.01M187.8 360.3h.01M203.5 354.0h.01M200.9 335.6h.01M236.9 308.9h.01M231.1 290.6h.01M70.0 184.3h.01M214.0 296.2h.01M68.3 279.7h.01M213.6 308.3h.01M198.1 403.5h.01M280.3 104.4h.01M121.6 179.9h.01M75.8 144.9h.01M74.4 216.5h.01M217.3 348.0h.01M190.2 365.2h.01M76.9 250.2h.01M74.9 276.1h.01M76.3 283.4h.01M52.5 368.7h.01M71.2 208.2h.01M114.5 149.8h.01M75.6 254.6h.01M206.0 314.6h.01M173.5 312.8h.01M226.1 345.9h.01M79.1 243.0h.01M184.9 305.1h.01M113.6 285.4h.01M187.9 300.6h.01M67.6 250.4h.01M78.0 232.8h.01M246.0 283.8h.01M224.4 296.2h.01M198.7 372.2h.01M202.0 331.5h.01M202.0 372.5h.01M151.8 329.0h.01M97.7 189.1h.01M264.8 352.6h.01M188.4 404.9h.01M207.4 341.9h.01M204.5 310.0h.01M103.0 151.5h.01M89.4 406.4h.01M193.9 373.2h.01M76.2 173.9h.01M246.1 380.6h.01M176.7 356.3h.01M227.4 322.4h.01M80.3 164.4h.01M203.6 339.7h.01M83.6 252.3h.01M76.7 227.4h.01M102.6 275.1h.01M49.1 365.4h.01M271.6 400.7h.01M236.8 301.3h.01M206.2 368.3h.01M271.1 180.0h.01M81.5 178.7h.01M154.5 266.8h.01M275.6 199.4h.01M87.0 300.8h.01M213.0 329.8h.01M127.4 153.5h.01M205.9 325.5h.01M91.9 301.5h.01M246.8 218.4h.01M35.6 348.6h.01M211.9 341.4h.01M230.2 340.2h.01M170.2 315.8h.01M37.6 359.2h.01M210.9 304.7h.01M250.2 263.8h.01M111.3 387.3h.01M215.3 316.8h.01M114.8 390.1h.01M73.3 257.3h.01M212.0 175.2h.01M194.8 193.9h.01M138.9 321.5h.01M217.8 336.5h.01M114.4 274.5h.01M243.3 286.3h.01M94.1 248.7h.01M80.6 131.0h.01M96.2 255.0h.01M198.8 324.6h.01M275.7 405.9h.01M79.4 255.6h.01M74.0 188.4h.01M284.2 126.9h.01M68.3 246.7h.01M242.7 302.1h.01M258.8 247.5h.01M253.4 269.3h.01M110.1 251.8h.01M239.5 319.6h.01M85.9 177.7h.01M213.0 320.5h.01M130.8 219.7h.01M63.0 380.0h.01M134.1 263.6h.01M102.9 241.9h.01M115.2 251.9h.01M111.6 238.0h.01M75.8 122.5h.01M208.3 374.6h.01M105.8 248.8h.01M112.1 257.6h.01M144.6 265.6h.01M222.5 292.8h.01M92.1 186.4h.01M174.9 316.7h.01M218.9 301.8h.01M246.8 253.1h.01M191.9 348.8h.01M202.6 304.8h.01M82.9 234.8h.01M202.6 299.3h.01M117.6 282.6h.01M182.1 355.4h.01M199.5 308.2h.01M94.2 407.5h.01M32.4 343.7h.01M205.9 329.8h.01M107.7 245.4h.01M74.0 250.0h.01M83.7 298.7h.01M75.0 291.0h.01M100.4 245.9h.01M216.9 342.5h.01M154.5 262.0h.01M187.8 315.1h.01M286.5 393.0h.01M198.9 379.5h.01M89.9 157.6h.01M190.8 318.4h.01M101.9 165.6h.01M110.8 275.3h.01M103.0 231.3h.01M69.1 395.2h.01M80.9 160.2h.01M196.3 329.4h.01M93.7 253.7h.01M237.9 333.2h.01M93.1 230.9h.01M174.4 199.4h.01M70.5 216.8h.01M50.4 372.6h.01M223.8 288.0h.01M181.7 180.3h.01M177.6 157.7h.01M194.9 362.2h.01M233.3 318.9h.01M193.4 353.8h.01M225.8 340.9h.01M99.4 163.6h.01M72.4 295.4h.01M242.4 379.2h.01M65.5 390.9h.01M143.5 237.1h.01M110.4 321.8h.01M76.5 171.2h.01"/>
<path stroke="#1a1a1a" stroke-width="3.40" stroke-linecap="round" fill="none" d="M175.1 366.1h.01M106.8 216.3h.01M263.5 366.4h.01M168.8 385.4h.01M146.5 327.7h.01M136.5 326.4h.01M83.5 327.6h.01M132.9 345.7h.01M154.2 345.6h.01M89.3 400.3h.01M165.1 393.4h.01M138.7 336.9h.01M105.9 280.1h.01M213.2 312.7h.01M74.0 238.9h.01M153.5 325.9h.01M166.4 362.6h.01M195.2 391.9h.01M89.4 361.4h.01M91.0 260.3h.01M166.9 334.6h.01M123.4 266.4h.01M283.4 389.6h.01M135.9 345.2h.01M100.5 411.4h.01M150.3 336.1h.01M178.5 394.9h.01M99.1 321.0h.01M160.8 322.2h.01M83.4 311.4h.01M152.0 332.5h.01M99.0 167.1h.01M272.0 379.2h.01M238.6 368.7h.01M133.6 341.4h.01M121.6 337.3h.01M64.8 375.5h.01M62.5 371.6h.01M117.4 341.6h.01M90.0 176.4h.01M85.3 400.1h.01M187.5 343.0h.01M169.7 323.6h.01M71.2 390.7h.01M249.6 376.5h.01M181.9 332.4h.01M119.2 385.9h.01M89.5 310.7h.01M186.3 400.5h.01M125.2 340.3h.01M181.5 363.3h.01M246.8 269.5h.01M238.2 350.9h.01M171.6 335.9h.01M91.3 306.9h.01M175.4 408.6h.01M280.6 392.2h.01M193.8 384.8h.01M67.9 379.1h.01M104.6 379.0h.01M101.0 159.0h.01M154.8 158.9h.01M74.1 300.0h.01M172.9 320.7h.01M160.7 349.5h.01M142.1 347.7h.01M112.6 377.3h.01M149.7 227.6h.01M152.1 175.5h.01M102.6 317.6h.01M258.5 404.1h.01M267.4 356.3h.01M269.4 360.2h.01M267.7 397.5h.01M86.0 339.0h.01M102.0 326.8h.01M71.9 371.7h.01M151.4 340.6h.01M76.5 295.8h.01M190.4 374.9h.01M103.4 323.1h.01M240.2 376.3h.01M172.8 364.5h.01M240.3 372.6h.01M153.8 338.0h.01M147.4 343.3h.01M112.9 230.8h.01M121.7 161.2h.01M123.5 390.3h.01M266.2 364.3h.01M123.4 343.6h.01M185.2 353.6h.01M67.4 262.0h.01M178.0 379.5h.01M66.1 228.9h.01M273.1 396.6h.01M240.5 367.1h.01M106.1 371.3h.01M181.0 379.7h.01M115.4 219.6h.01M190.5 336.0h.01M88.5 339.3h.01M237.4 355.7h.01M94.9 175.4h.01M264.1 357.1h.01M76.4 160.9h.01M190.3 393.5h.01M196.5 321.7h.01M178.6 328.9h.01M164.1 359.3h.01M76.6 279.7h.01M185.0 324.8h.01M175.1 338.2h.01M106.8 327.5h.01M262.7 369.3h.01M165.4 324.5h.01M161.5 155.8h.01M145.7 334.3h.01M117.9 159.0h.01M271.6 389.5h.01M150.6 161.4h.01M163.2 342.7h.01M179.8 325.3h.01M178.0 363.0h.01M168.4 359.4h.01M155.6 329.8h.01M275.0 391.0h.01M190.6 329.4h.01M111.6 155.0h.01M282.0 387.5h.01M170.4 399.5h.01M267.3 401.4h.01M71.6 243.6h.01M161.9 345.8h.01M66.0 253.6h.01M132.9 328.6h.01M158.3 173.4h.01M163.0 173.5h.01M195.4 400.1h.01M104.0 174.1h.01M178.3 405.3h.01M181.7 336.2h.01M119.1 391.1h.01M130.8 343.5h.01M81.5 302.6h.01M174.9 380.6h.01M176.3 384.8h.01M183.4 170.3h.01M182.5 398.6h.01M93.2 402.0h.01M72.5 379.7h.01M154.1 334.6h.01M209.8 322.8h.01M80.5 296.3h.01M166.2 342.5h.01M112.9 383.7h.01M277.0 372.9h.01M107.9 229.9h.01M161.8 326.5h.01M130.8 333.6h.01M173.7 368.8h.01M182.5 393.9h.01M110.4 279.7h.01M188.8 390.4h.01M169.2 354.9h.01M268.9 382.3h.01M102.5 370.5h.01M192.9 321.2h.01M49.2 356.5h.01M275.8 393.6h.01M139.2 331.2h.01M175.0 405.0h.01M180.0 360.0h.01M129.3 324.0h.01M106.7 382.7h.01M45.1 355.0h.01M142.5 337.5h.01M110.3 233.9h.01M171.5 361.1h.01M161.5 385.8h.01M143.4 329.3h.01M149.7 323.6h.01M188.9 326.4h.01M99.2 372.1h.01M70.4 286.9h.01M266.8 212.2h.01M200.9 387.2h.01M172.0 419.2h.01M198.8 316.0h.01M281.7 382.7h.01M182.0 377.3h.01M179.6 304.7h.01M263.0 403.0h.01M122.3 394.5h.01M79.0 395.3h.01M179.7 386.9h.01M140.3 327.6h.01M159.2 345.5h.01M103.9 163.0h.01M123.5 329.9h.01M176.0 417.6h.01M164.6 349.2h.01M193.7 377.8h.01M115.8 236.1h.01M139.6 405.9h.01M159.5 352.6h.01M131.5 348.9h.01M91.6 172.8h.01M170.5 367.5h.01M76.7 371.2h.01M99.3 270.0h.01M110.5 334.3h.01M120.0 288.9h.01M188.9 337.7h.01M176.7 346.2h.01M193.5 330.9h.01M170.4 341.6h.01M273.9 387.3h.01M163.6 352.6h.01M179.3 414.1h.01M186.7 374.4h.01M265.6 360.6h.01M180.0 419.1h.01M186.1 330.0h.01M146.7 336.9h.01M166.7 397.4h.01M266.1 368.7h.01M105.7 401.4h.01M100.7 376.6h.01M191.2 340.5h.01M148.1 347.8h.01M111.6 375.0h.01M187.3 346.8h.01M100.2 260.5h.01M190.4 380.2h.01M175.2 402.1h.01M95.5 268.3h.01M121.0 236.4h.01M105.9 405.3h.01M279.8 376.5h.01M171.6 338.9h.01M270.6 394.9h.01M92.9 311.9h.01M98.7 154.9h.01M179.0 168.2h.01M181.3 342.5h.01M261.4 353.6h.01M162.6 363.3h.01M269.5 368.5h.01M136.1 405.1h.01M267.1 379.8h.01M67.0 267.3h.01M96.8 260.7h.01M108.6 283.5h.01M120.4 340.4h.01M274.2 368.7h.01M182.4 328.1h.01M166.2 380.0h.01M137.3 340.7h.01M178.4 338.6h.01M180.4 347.2h.01M104.1 167.4h.01M119.6 222.2h.01M138.6 235.6h.01M188.3 178.0h.01M74.3 375.0h.01M168.0 338.7h.01M282.0 379.8h.01M56.2 372.3h.01M271.4 364.2h.01M179.8 375.5h.01M102.5 278.6h.01M126.5 397.6h.01M170.1 347.3h.01M173.0 354.8h.01M280.0 389.0h.01M135.9 332.9h.01M165.8 355.2h.01M171.9 371.1h.01M38.6 344.8h.01M174.1 342.2h.01M167.5 365.6h.01M115.3 338.7h.01M272.7 373.8h.01M266.4 390.0h.01M158.2 341.5h.01M87.0 345.3h.01M78.8 300.0h.01M97.1 378.7h.01M145.4 323.9h.01M80.9 292.4h.01M269.9 215.7h.01M109.9 218.4h.01M104.5 186.0h.01M107.4 173.8h.01M172.6 344.7h.01M119.9 329.1h.01M93.5 257.6h.01M190.4 387.4h.01M170.0 394.0h.01M243.4 373.9h.01M93.4 236.4h.01M176.3 376.5h.01M178.1 334.6h.01M174.2 396.1h.01M277.7 381.7h.01M79.6 184.3h.01M265.8 393.1h.01M83.5 187.1h.01M76.8 164.2h.01M271.9 203.5h.01M48.8 360.5h.01M68.2 271.6h.01M173.8 360.3h.01M128.1 328.8h.01M79.3 307.3h.01M155.5 352.5h.01M152.8 349.8h.01M89.5 190.2h.01M133.9 337.1h.01M146.6 331.5h.01M275.9 396.3h.01M179.7 382.5h.01M172.9 160.0h.01M108.1 324.6h.01M147.0 340.0h.01M80.3 369.5h.01M159.4 412.3h.01M165.9 163.6h.01M129.9 400.0h.01M171.1 351.6h.01M97.4 368.0h.01M161.5 356.3h.01M242.2 369.4h.01M162.1 396.5h.01M268.5 372.5h.01M170.0 363.5h.01M178.3 365.9h.01M237.0 346.8h.01M182.8 384.6h.01M115.1 261.8h.01M168.8 344.3h.01M149.3 330.9h.01M165.4 269.9h.01M184.8 341.5h.01M71.4 247.8h.01M106.4 375.6h.01M129.7 339.2h.01M114.5 334.3h.01M111.8 380.0h.01M78.3 290.6h.01M156.4 344.1h.01M177.1 360.1h.01M103.1 267.5h.01M276.0 377.9h.01M117.6 337.0h.01M200.3 320.5h.01M69.3 283.6h.01M157.7 355.6h.01M169.6 377.1h.01M172.0 404.4h.01M151.1 232.2h.01M126.4 393.7h.01M119.9 239.8h.01M157.6 382.3h.01M277.0 389.7h.01M167.8 156.0h.01M107.4 162.6h.01M271.2 385.0h.01M77.5 180.5h.01M91.3 251.7h.01M151.7 353.7h.01M188.9 384.2h.01M205.5 321.5h.01M167.7 350.1h.01M286.9 201.6h.01M85.5 342.3h.01M184.9 388.2h.01M175.1 412.2h.01M172.6 384.2h.01M139.6 346.6h.01M184.6 417.9h.01M57.6 368.1h.01M150.7 346.7h.01M268.9 228.6h.01M86.1 242.9h.01M173.0 415.0h.01M179.7 357.2h.01M186.3 396.3h.01M84.7 336.4h.01M103.1 257.6h.01M170.4 412.4h.01M178.5 372.5h.01M87.0 308.4h.01M160.9 341.4h.01M107.5 154.3h.01M40.2 352.1h.01M189.9 332.9h.01M187.3 378.4h.01M97.0 193.9h.01M147.0 163.7h.01M95.3 164.8h.01M175.1 362.9h.01M283.4 199.0h.01M177.4 369.1h.01M92.6 360.1h.01M164.8 389.0h.01M104.7 397.1h.01M285.1 204.8h.01M90.0 349.8h.01M80.5 171.7h.01M180.8 402.5h.01M161.9 381.6h.01M170.3 380.9h.01M165.1 384.1h.01M279.1 394.5h.01M87.9 237.9h.01M155.3 271.0h.01M176.2 177.7h.01M268.9 376.4h.01M144.7 157.7h.01M41.7 348.2h.01M185.4 382.5h.01M174.9 358.1h.01M170.4 331.8h.01M139.7 343.8h.01M88.2 352.8h.01M115.0 330.4h.01M98.0 258.0h.01M239.4 336.6h.01M126.6 333.0h.01M109.8 383.0h.01M99.3 267.0h.01M164.3 177.2h.01M107.9 261.1h.01M90.5 355.3h.01M162.8 334.5h.01M276.9 386.7h.01M274.1 383.0h.01M186.0 334.5h.01M111.0 263.0h.01M257.5 344.1h.01M167.8 169.6h.01M59.5 375.6h.01M149.4 326.8h.01M263.7 384.5h.01M115.1 381.9h.01M104.2 409.2h.01M157.0 333.5h.01M270.7 219.2h.01M173.9 388.6h.01M71.3 291.0h.01M190.3 345.1h.01M189.8 397.5h.01M165.8 402.0h.01M259.0 399.4h.01M110.1 330.6h.01M185.8 337.9h.01M108.5 378.3h.01M98.6 408.0h.01M158.5 387.2h.01M83.8 304.8h.01M191.1 409.2h.01M277.5 392.5h.01M142.2 341.2h.01M77.5 376.2h.01M177.6 342.4h.01M156.9 348.5h.01M193.3 389.5h.01M261.8 349.5h.01M104.5 330.4h.01M101.6 366.5h.01M270.1 398.1h.01M263.8 398.7h.01M282.9 392.1h.01M115.2 379.1h.01M44.9 358.5h.01M69.1 387.0h.01M263.7 380.5h.01M141.8 324.1h.01M106.6 333.2h.01M127.1 268.0h.01M258.3 394.8h.01M122.4 333.6h.01M149.9 411.0h.01M103.3 155.5h.01M91.9 365.3h.01M178.2 319.0h.01M125.0 325.8h.01M151.5 343.8h.01M178.3 399.6h.01M115.8 385.9h.01M76.1 130.9h.01M160.1 333.2h.01M172.5 170.5h.01M118.6 333.2h.01M287.4 197.5h.01M73.7 367.7h.01M172.9 377.3h.01M54.3 365.4h.01M44.5 351.7h.01M75.8 392.4h.01M121.2 324.4h.01M192.6 397.0h.01M164.5 338.5h.01M203.1 317.8h.01M145.0 348.0h.01M113.3 282.0h.01M103.1 374.3h.01M83.6 308.0h.01M283.7 384.7h.01M258.7 347.9h.01M65.9 216.9h.01M106.2 267.5h.01M81.4 373.5h.01M175.5 353.2h.01M84.5 395.6h.01M158.7 394.2h.01M133.9 402.1h.01M100.5 186.4h.01M182.6 339.1h.01M279.5 385.3h.01M75.7 140.1h.01M70.4 264.9h.01M161.4 378.1h.01M237.7 365.0h.01M216.8 305.5h.01M92.4 315.3h.01M157.3 378.5h.01M172.9 325.5h.01M176.7 331.5h.01M183.0 193.3h.01M68.8 220.9h.01M52.2 362.5h.01M264.6 376.4h.01M125.8 336.7h.01M269.4 392.4h.01M81.1 399.3h.01M285.8 386.8h.01M122.1 348.0h.01M94.1 357.0h.01M112.1 327.1h.01M102.4 385.7h.01M87.1 312.8h.01M273.1 392.6h.01M188.0 340.3h.01M103.3 261.1h.01M171.4 357.6h.01M272.1 225.7h.01M268.8 388.2h.01M267.1 385.2h.01M184.0 379.5h.01M183.8 375.5h.01M167.9 173.6h.01M157.4 337.2h.01M144.2 344.8h.01M175.1 372.4h.01M153.5 380.7h.01M160.6 337.8h.01M155.9 389.7h.01M159.0 264.8h.01M115.8 154.9h.01M142.1 409.3h.01M182.7 371.9h.01M107.9 257.0h.01M196.7 387.7h.01M127.5 343.5h.01M99.7 273.3h.01M95.8 364.1h.01M155.3 340.7h.01M85.0 333.8h.01M36.9 340.8h.01M113.9 278.5h.01M108.7 373.3h.01M70.2 375.9h.01M279.0 391.0h.01"/>
<path stroke="#1a1a1a" stroke-width="3.87" stroke-linecap="round" fill="none" d="M79.0 390.5h.01M85.1 384.9h.01M165.2 376.8h.01M150.8 269.1h.01M88.6 333.2h.01M244.6 329.0h.01M147.5 391.9h.01M160.1 170.3h.01M137.7 348.0h.01M114.9 374.9h.01M61.9 340.4h.01M56.4 357.4h.01M172.1 374.1h.01M117.7 379.0h.01M70.9 320.4h.01M163.4 169.8h.01M266.4 395.4h.01M125.4 386.6h.01M68.2 320.5h.01M138.8 222.1h.01M255.5 357.6h.01M182.0 407.0h.01M130.5 231.5h.01M243.9 346.6h.01M100.8 397.5h.01M143.0 370.6h.01M130.4 374.0h.01M192.0 177.8h.01M118.3 167.9h.01M75.5 325.7h.01M96.8 359.8h.01M71.7 326.2h.01M105.4 263.7h.01M75.1 384.8h.01M165.5 371.5h.01M107.3 354.3h.01M179.8 172.7h.01M180.1 176.2h.01M120.3 377.8h.01M169.3 327.5h.01M58.8 343.3h.01M72.0 337.5h.01M118.2 361.1h.01M127.8 372.5h.01M168.1 160.5h.01M152.2 398.6h.01M149.0 406.5h.01M79.5 379.4h.01M88.1 336.0h.01M251.2 369.1h.01M255.2 363.4h.01M85.8 324.8h.01M242.7 338.2h.01M88.6 327.2h.01M97.5 355.6h.01M255.8 382.0h.01M96.3 388.9h.01M133.2 374.8h.01M117.2 175.2h.01M78.2 361.0h.01M85.1 361.5h.01M266.8 219.5h.01M92.6 264.5h.01M67.1 351.3h.01M102.0 355.5h.01M144.4 376.9h.01M48.6 344.7h.01M76.2 304.1h.01M64.1 360.6h.01M109.6 359.5h.01M109.2 369.1h.01M64.9 342.2h.01M55.4 351.9h.01M261.3 378.3h.01M257.5 364.8h.01M141.9 360.4h.01M71.3 361.5h.01M66.1 354.8h.01M146.6 269.5h.01M87.5 378.7h.01M80.1 353.7h.01M136.8 377.0h.01M135.6 354.6h.01M125.0 375.0h.01M97.8 395.8h.01M169.1 417.0h.01M115.6 364.0h.01M122.1 386.8h.01M111.0 162.5h.01M144.5 379.8h.01M78.6 346.1h.01M164.8 367.3h.01M78.0 383.8h.01M115.8 165.5h.01M83.5 174.3h.01M145.0 351.0h.01M128.6 346.5h.01M251.5 357.5h.01M265.3 216.2h.01M256.6 360.8h.01M79.6 327.1h.01M67.6 372.2h.01M254.1 340.9h.01M67.5 347.3h.01M119.7 366.1h.01M116.9 357.7h.01M154.6 167.5h.01M95.0 386.0h.01M96.5 171.6h.01M130.0 352.5h.01M151.6 358.8h.01M137.4 230.9h.01M145.5 366.7h.01M144.5 354.5h.01M139.0 381.5h.01M71.3 348.4h.01M136.4 388.7h.01M137.1 385.4h.01M86.2 348.4h.01M103.9 171.1h.01M259.0 376.0h.01M68.9 364.8h.01M83.5 315.5h.01M101.1 171.8h.01M99.2 352.5h.01M110.9 356.3h.01M82.4 338.2h.01M191.3 172.7h.01M249.4 363.1h.01M247.3 351.1h.01M156.8 169.8h.01M109.5 222.5h.01M81.8 363.1h.01M61.3 367.7h.01M68.5 339.5h.01M109.4 158.8h.01M254.2 368.1h.01M61.0 333.8h.01M246.2 343.6h.01M249.3 340.9h.01M65.0 331.0h.01M151.6 403.3h.01M150.1 374.9h.01M240.5 346.0h.01M84.0 319.7h.01M97.4 403.6h.01M240.8 348.9h.01M142.3 269.4h.01M139.7 389.9h.01M91.4 346.5h.01M116.0 347.5h.01M140.5 351.5h.01M119.8 370.3h.01M145.6 361.9h.01M74.2 363.3h.01M121.7 382.1h.01M162.1 269.9h.01M77.9 176.9h.01M140.1 357.1h.01M153.3 386.9h.01M111.7 371.5h.01M144.9 383.3h.01M250.8 372.3h.01M157.5 403.5h.01M269.1 223.1h.01M59.2 359.4h.01M108.3 170.6h.01M145.2 357.8h.01M127.7 349.4h.01M256.0 374.0h.01M83.6 379.1h.01M165.0 166.7h.01M149.5 394.9h.01M130.8 235.7h.01M113.4 158.7h.01M127.2 237.4h.01M118.2 226.5h.01M185.8 392.5h.01M261.2 357.3h.01M122.7 353.1h.01M172.0 408.5h.01M82.3 349.7h.01M134.2 226.5h.01M137.7 398.4h.01M195.1 395.2h.01M81.8 358.2h.01M250.8 344.4h.01M258.5 371.0h.01M69.4 368.4h.01M138.8 401.6h.01M261.1 361.1h.01M128.1 361.3h.01M244.9 370.3h.01M112.2 337.6h.01M135.0 349.2h.01M252.5 361.3h.01M103.6 336.4h.01M96.1 331.8h.01M102.4 352.5h.01M165.8 407.0h.01M92.6 328.6h.01M162.1 400.8h.01M100.0 330.1h.01M115.7 228.9h.01M108.6 265.3h.01M97.5 391.9h.01M99.8 338.1h.01M195.4 178.1h.01M167.5 369.0h.01M92.2 333.5h.01M101.7 339.7h.01M155.1 163.5h.01M166.9 411.6h.01M126.4 352.6h.01M90.3 382.5h.01M177.0 322.4h.01M116.7 265.6h.01M253.1 372.9h.01M91.2 167.5h.01M163.6 411.6h.01M96.7 343.8h.01M82.1 392.8h.01M247.5 356.8h.01M145.5 395.7h.01M124.2 235.6h.01M56.3 346.8h.01M143.9 389.3h.01M175.4 173.0h.01M98.3 382.6h.01M74.2 333.5h.01M123.3 169.1h.01M101.6 264.6h.01M149.5 172.0h.01M69.8 344.6h.01M160.9 391.0h.01M72.7 329.5h.01M158.5 370.8h.01M84.0 382.0h.01M90.4 319.0h.01M243.1 362.4h.01M246.5 354.0h.01M116.6 368.0h.01M58.3 339.9h.01M72.0 383.4h.01M63.9 348.8h.01M78.7 332.1h.01M121.9 165.7h.01M66.9 323.6h.01M134.0 384.8h.01M65.5 368.1h.01M179.5 390.3h.01M131.0 359.9h.01M68.4 327.8h.01M132.7 362.5h.01M82.9 385.9h.01M100.9 389.5h.01M244.8 366.5h.01M116.5 223.5h.01M264.7 372.5h.01M89.7 342.3h.01M141.3 232.0h.01M86.6 330.5h.01M84.6 351.9h.01M160.7 405.0h.01M127.5 376.1h.01M90.3 330.7h.01M260.3 386.5h.01M82.5 341.0h.01M162.2 370.9h.01M105.5 351.5h.01M129.4 388.1h.01M101.6 405.4h.01M108.5 363.0h.01M148.4 351.4h.01M142.9 392.6h.01M62.5 353.0h.01M105.8 356.8h.01M151.5 165.3h.01M123.5 358.4h.01M240.4 329.8h.01M87.9 390.6h.01M163.4 159.9h.01M101.5 401.5h.01M134.4 233.6h.01M133.1 352.5h.01M163.2 407.1h.01M130.0 365.7h.01M257.7 353.0h.01M258.4 379.5h.01M117.5 233.2h.01M142.2 333.6h.01M91.4 393.4h.01M95.1 340.6h.01M112.7 344.3h.01M162.2 367.7h.01M68.4 337.1h.01M151.9 384.2h.01M108.5 344.3h.01M243.9 341.3h.01M65.5 334.3h.01M156.1 397.2h.01M79.0 387.0h.01M137.5 351.5h.01M134.4 221.9h.01M127.0 390.5h.01M122.7 223.5h.01M159.8 366.7h.01M95.1 372.8h.01M238.9 358.6h.01M72.4 341.1h.01M119.6 350.9h.01M73.0 344.5h.01M120.1 171.7h.01M160.8 167.1h.01M146.6 369.4h.01M259.0 373.5h.01M126.6 356.7h.01M52.5 359.0h.01M131.8 224.5h.01M82.6 345.6h.01M148.8 384.0h.01M259.9 367.4h.01M106.1 169.4h.01M203.7 180.7h.01M51.6 353.4h.01M105.6 158.6h.01M133.6 229.8h.01M110.9 346.7h.01M124.9 347.9h.01M241.5 354.0h.01M94.7 382.3h.01M122.3 229.1h.01M156.5 367.9h.01M114.6 355.4h.01M260.9 371.1h.01M134.6 267.4h.01M128.6 224.4h.01M74.9 388.4h.01M260.0 382.6h.01M253.0 376.0h.01M113.1 222.1h.01M118.6 381.6h.01M146.4 386.4h.01M120.8 226.5h.01M87.7 169.2h.01M139.5 369.3h.01M55.9 361.4h.01M76.1 380.4h.01M59.1 354.9h.01M250.5 349.0h.01M100.3 363.2h.01M121.0 232.5h.01M92.8 342.9h.01M75.2 309.2h.01M112.9 348.7h.01M118.2 353.6h.01M93.6 354.0h.01M154.6 401.7h.01M69.9 323.9h.01M284.9 195.1h.01M248.5 366.0h.01M149.3 361.3h.01M140.4 377.6h.01M68.3 342.1h.01M242.4 351.6h.01M257.1 386.1h.01M98.7 173.6h.01M53.5 355.8h.01M52.5 346.1h.01M153.6 407.3h.01M253.3 379.4h.01M64.5 327.5h.01M92.7 397.5h.01M168.7 404.4h.01M145.5 225.5h.01M127.5 233.3h.01M76.2 343.8h.01M94.2 320.5h.01M146.3 409.9h.01M163.1 374.3h.01M90.3 375.6h.01M146.1 232.8h.01M97.1 399.6h.01M130.4 356.4h.01M160.5 409.4h.01M70.7 353.0h.01M138.7 266.9h.01M78.0 365.9h.01M148.8 398.5h.01M151.0 389.4h.01M92.2 379.1h.01M136.1 371.3h.01M65.1 338.6h.01M124.5 226.5h.01M157.3 407.8h.01M136.8 374.0h.01M247.4 347.1h.01M262.7 392.3h.01M142.6 366.0h.01M104.3 362.5h.01M76.3 329.5h.01M79.1 319.2h.01M85.1 391.3h.01M139.8 373.3h.01M70.1 334.7h.01M101.1 393.7h.01M100.4 360.1h.01M134.5 395.0h.01M77.1 356.8h.01M134.5 365.4h.01M95.3 375.8h.01M261.8 374.5h.01M69.3 316.6h.01M46.1 339.7h.01M155.6 384.9h.01M131.0 385.2h.01M62.4 336.8h.01M90.3 389.4h.01M94.8 395.0h.01M125.8 363.8h.01M137.7 359.3h.01M150.4 369.9h.01M130.5 394.8h.01M142.9 385.6h.01M113.4 165.2h.01M97.9 349.5h.01M168.8 408.5h.01M93.8 391.2h.01M173.7 329.3h.01M252.4 365.6h.01M153.3 376.2h.01M145.4 399.1h.01M79.6 337.0h.01M84.1 170.6h.01M251.1 336.9h.01M263.5 388.5h.01M163.7 330.1h.01M242.7 334.0h.01M60.5 346.9h.01M60.5 331.0h.01M123.3 366.7h.01M157.9 165.8h.01M107.9 340.7h.01M154.8 357.1h.01M93.6 170.4h.01M62.9 357.4h.01M174.4 392.3h.01M253.8 384.6h.01M83.1 366.6h.01M244.7 358.9h.01M119.0 348.0h.01M91.0 339.0h.01M147.9 377.7h.01M87.4 357.9h.01M116.8 376.4h.01M184.4 176.0h.01M111.2 166.7h.01M96.1 352.7h.01M93.6 350.5h.01M106.9 360.3h.01M124.7 378.9h.01M54.5 341.5h.01M120.4 356.9h.01M132.7 370.1h.01M67.3 360.9h.01M73.0 357.9h.01M87.2 365.2h.01M142.5 351.5h.01M128.5 378.1h.01M141.9 381.6h.01M261.2 363.8h.01M73.4 322.9h.01M114.1 226.3h.01M111.8 363.7h.01M167.1 330.1h.01M131.6 378.8h.01M122.1 362.2h.01M102.9 348.7h.01M144.0 405.6h.01M89.1 368.7h.01M115.3 170.4h.01M127.8 381.0h.01M80.2 342.8h.01M103.6 359.3h.01M113.5 360.0h.01M118.5 230.0h.01M247.7 372.5h.01M152.8 366.1h.01M74.0 316.8h.01M135.8 381.7h.01M158.5 399.4h.01M96.0 264.5h.01M108.2 336.8h.01M140.7 227.3h.01M104.0 342.0h.01M244.9 350.1h.01M160.0 374.5h.01M240.0 361.5h.01M158.8 160.6h.01M246.4 334.3h.01M140.0 349.5h.01M138.5 365.5h.01M122.4 376.4h.01M41.8 340.6h.01M81.0 384.7h.01M64.1 364.4h.01M109.4 351.1h.01M244.2 354.5h.01M259.4 390.4h.01M101.7 169.0h.01M50.3 341.2h.01M246.0 362.5h.01M135.1 378.8h.01M56.8 331.0h.01M152.1 391.7h.01M128.1 384.4h.01M77.7 322.8h.01M158.0 363.6h.01M74.5 320.0h.01M82.0 389.0h.01M135.8 368.0h.01M153.9 371.3h.01M245.8 376.3h.01M182.0 321.7h.01M255.8 371.0h.01M136.2 361.8h.01M254.0 346.4h.01M138.2 394.1h.01M241.6 365.0h.01M130.4 227.8h.01M84.6 355.3h.01M149.0 387.6h.01M246.5 338.3h.01M153.2 395.4h.01M44.3 344.7h.01M102.3 333.3h.01M81.5 376.8h.01M148.3 402.4h.01M104.0 345.2h.01M249.0 353.8h.01M92.7 370.2h.01M97.0 336.3h.01M258.8 357.9h.01M155.5 392.8h.01M133.0 388.2h.01M199.2 180.1h.01M81.5 334.4h.01M150.2 380.4h.01M76.8 336.0h.01M118.4 163.4h.01M140.7 363.2h.01M88.0 322.0h.01M141.6 396.2h.01M129.5 369.3h.01M147.1 381.4h.01M105.5 365.2h.01M87.4 316.6h.01M90.9 336.1h.01M147.6 372.5h.01M144.9 402.4h.01M95.7 168.0h.01M95.1 334.1h.01M174.4 399.1h.01M110.6 226.4h.01M75.6 313.4h.01M159.0 359.8h.01M112.1 352.6h.01M137.2 226.1h.01M69.7 331.7h.01M156.7 374.5h.01M88.0 386.2h.01M117.1 326.3h.01M51.4 349.6h.01M254.4 354.6h.01M112.2 174.4h.01M170.1 165.7h.01M110.9 341.0h.01M125.8 368.8h.01M63.6 344.6h.01M48.2 352.4h.01M85.3 375.3h.01M94.0 261.2h.01M127.2 228.5h.01M256.0 377.2h.01M78.5 349.6h.01M111.5 170.5h.01M47.0 348.5h.01M124.8 382.8h.01M77.9 340.4h.01M79.3 311.5h.01M105.7 338.7h.01M95.2 346.6h.01M107.7 166.2h.01M142.8 223.0h.01M133.6 398.4h.01M119.6 344.6h.01M125.0 372.0h.01M99.4 334.5h.01M142.1 374.3h.01M109.2 366.0h.01M79.2 315.6h.01M148.6 355.8h.01M74.8 338.8h.01M114.0 341.5h.01M122.3 372.1h.01M93.9 337.4h.01M282.0 193.3h.01M254.7 350.1h.01M54.7 334.5h.01M262.2 395.6h.01M159.4 329.5h.01M126.2 223.1h.01M98.5 386.3h.01M123.9 232.1h.01M99.0 169.7h.01M59.1 350.5h.01M169.2 371.5h.01M88.3 395.1h.01M99.7 346.5h.01M115.8 344.9h.01M113.0 265.5h.01M118.8 373.9h.01M74.7 348.5h.01M97.4 324.9h.01M96.3 328.5h.01M148.9 365.3h.01M88.0 372.7h.01M115.3 371.5h.01M134.1 357.8h.01M100.2 357.4h.01M87.4 173.4h.01M251.6 353.0h.01M131.5 382.0h.01M93.0 388.3h.01M240.9 343.2h.01M80.2 175.3h.01M60.5 327.6h.01M92.1 324.3h.01M154.7 172.9h.01M169.0 389.7h.01M175.9 325.8h.01M239.3 354.1h.01M141.9 400.8h.01M98.8 263.6h.01M114.9 352.1h.01M130.6 266.3h.01M112.7 367.5h.01M144.9 229.2h.01M125.5 230.5h.01M140.0 354.1h.01M116.1 349.9h.01M51.8 337.3h.01M130.5 391.0h.01M68.6 357.4h.01M248.7 359.8h.01M74.8 352.9h.01M58.1 336.6h.01M173.7 333.5h.01M166.3 415.4h.01M84.8 370.0h.01M81.7 323.1h.01M242.2 357.2h.01M119.9 266.6h.01M85.2 388.0h.01M82.4 331.2h.01M165.5 346.0h.01M140.0 385.5h.01M187.4 173.4h.01M167.5 374.5h.01M152.2 169.4h.01M148.4 167.8h.01M185.8 409.1h.01M105.6 368.0h.01M239.8 339.9h.01M107.4 348.0h.01M134.5 391.7h.01M257.0 368.0h.01M145.2 373.9h.01M248.0 369.0h.01M58.9 364.0h.01M99.6 342.5h.01M91.5 385.6h.01M71.6 312.9h.01M114.5 161.8h.01M207.0 184.3h.01M97.1 338.9h.01M87.1 382.4h.01M64.1 323.6h.01M61.2 361.5h.01M161.5 163.7h.01M80.8 382.0h.01M154.3 361.9h.01"/>
</svg>