<svg xmlns="http://www.w3.org/2000/svg" viewBox="0 0 360 432" role="img">
<path stroke="#1a1a1a" stroke-width="1.42" stroke-linecap="round" fill="none" d="M138.1 30.3h.01M297.7 153.1h.01M172.5 90.8h.01M180.2 94.4h.01M98.2 71.5h.01M292.9 145.3h.01M158.6 77.9h.01M77.1 105.6h.01M195.3 81.9h.01M229.6 338.8h.01M146.7 92.4h.01M179.8 29.0h.01M304.8 244.9h.01M340.8 173.7h.01M204.2 80.2h.01M51.7 146.6h.01M63.1 135.3h.01M316.9 134.0h.01M187.8 98.3h.01M135.5 72.3h.01M203.6 65.2h.01M250.6 54.7h.01M131.5 123.8h.01M139.3 83.9h.01M204.2 95.7h.01M329.5 132.3h.01M334.1 179.0h.01M152.8 129.3h.01M0.4 118.1h.01M144.1 66.4h.01M156.4 90.7h.01M110.0 0.7h.01M171.7 100.3h.01M0.4 283.0h.01M78.5 95.8h.01M162.8 197.5h.01M358.6 98.1h.01M172.9 0.7h.01M286.7 97.5h.01M316.7 120.5h.01M112.8 430.6h.01M163.4 85.3h.01M86.3 90.8h.01M358.5 190.0h.01M124.5 50.0h.01M74.0 114.4h.01M67.0 124.6h.01M106.2 191.8h.01M136.9 61.3h.01M214.9 33.1h.01M312.3 235.2h.01M94.8 58.7h.01M336.6 244.2h.01M61.2 144.6h.01M44.7 140.6h.01M310.5 150.5h.01M64.7 70.7h.01M266.2 68.1h.01M150.5 84.6h.01M179.3 71.9h.01M328.9 168.0h.01M162.2 54.2h.01M167.6 72.4h.01M320.9 144.2h.01M313.0 219.9h.01M185.5 57.1h.01M190.9 65.2h.01M90.3 83.9h.01M177.2 53.3h.01M314.7 181.5h.01M257.5 60.9h.01M180.3 82.7h.01M187.8 87.0h.01M49.2 81.8h.01M291.9 118.0h.01M358.6 301.0h.01M174.4 63.3h.01M195.0 91.5h.01M328.0 222.1h.01M307.4 110.6h.01M234.5 332.9h.01M330.8 212.4h.01M331.4 150.5h.01M43.3 152.1h.01M163.6 430.4h.01M112.2 45.9h.01M287.0 126.3h.01M188.2 75.3h.01M198.1 72.8h.01M112.6 57.0h.01M307.2 138.6h.01M162.3 63.5h.01M178.8 430.5h.01M79.5 64.6h.01M290.6 134.7h.01M164.5 94.5h.01M305.9 124.4h.01M151.3 59.6h.01M325.8 236.1h.01M243.9 430.6h.01M293.7 91.6h.01M339.7 161.0h.01M335.9 229.2h.01M300.8 100.5h.01M321.1 156.6h.01M171.7 80.2h.01M151.0 118.8h.01M227.3 36.5h.01M317.5 207.1h.01M132.0 430.6h.01M167.1 205.0h.01M291.0 107.3h.01M358.0 167.7h.01M161.9 130.2h.01M146.3 76.4h.01M154.8 69.9h.01M158.9 34.3h.01"/>
<path stroke="#1a1a1a" stroke-width="1.89" stroke-linecap="round" fill="none" d="M219.8 84.0h.01M217.8 75.1h.01M116.8 198.6h.01M226.1 91.4h.01M285.1 147.7h.01M168.3 263.2h.01M169.8 125.0h.01M175.1 139.3h.01M275.4 73.7h.01M118.8 64.0h.01M229.6 68.8h.01M205.5 142.1h.01M215.2 203.2h.01M204.4 37.9h.01M168.4 142.5h.01M230.8 46.4h.01M299.7 213.5h.01M226.9 103.8h.01M0.4 241.0h.01M238.2 99.9h.01M106.8 132.9h.01M284.8 88.1h.01M221.7 67.9h.01M218.3 60.5h.01M226.9 62.0h.01M196.4 285.8h.01M212.5 80.6h.01M164.7 186.8h.01M275.0 134.5h.01M170.0 134.2h.01M87.0 125.2h.01M110.5 64.6h.01M160.0 121.8h.01M52.5 169.4h.01M212.9 115.1h.01M86.7 116.5h.01M188.0 123.6h.01M154.7 296.3h.01M178.2 105.1h.01M188.7 424.2h.01M266.8 105.2h.01M125.7 72.2h.01M99.2 190.3h.01M218.7 92.8h.01M200.5 137.8h.01M245.4 79.8h.01M100.2 130.4h.01M283.0 120.1h.01M174.3 195.2h.01M133.8 101.2h.01M179.6 45.2h.01M169.2 117.7h.01M138.6 109.0h.01M172.3 210.1h.01M123.1 196.3h.01M72.3 306.4h.01M119.7 79.1h.01M186.5 213.7h.01M202.5 430.6h.01M308.4 187.6h.01M196.0 101.2h.01M112.1 194.7h.01M167.1 193.6h.01M60.6 288.5h.01M339.3 194.0h.01M46.7 169.8h.01M72.3 140.9h.01M255.4 69.1h.01M168.5 215.3h.01M171.1 293.6h.01M105.1 68.2h.01M158.2 291.1h.01M209.2 59.1h.01M162.6 297.0h.01M200.0 109.3h.01M229.5 145.8h.01M104.5 83.4h.01M223.8 98.1h.01M280.2 104.6h.01M194.4 139.6h.01M112.3 102.8h.01M192.6 108.8h.01M343.1 184.9h.01M285.4 141.3h.01M137.0 128.7h.01M210.1 126.9h.01M216.1 109.0h.01M79.8 0.5h.01M240.9 74.9h.01M137.1 188.6h.01M188.5 138.8h.01M157.0 198.1h.01M152.8 260.7h.01M275.0 152.2h.01M193.6 204.3h.01M84.6 99.1h.01M281.7 131.7h.01M157.3 263.9h.01M119.3 112.7h.01M97.3 85.7h.01M105.8 76.6h.01M185.2 107.3h.01M217.5 41.0h.01M75.1 124.3h.01M237.2 67.6h.01M278.7 125.8h.01M148.2 102.8h.01M163.6 137.7h.01M112.2 73.7h.01M147.2 46.0h.01M238.3 92.9h.01M218.3 137.7h.01M214.4 54.0h.01M130.3 56.5h.01M358.6 212.5h.01M343.3 200.8h.01M80.8 138.2h.01M213.3 142.4h.01M137.7 210.0h.01M118.4 70.9h.01M242.5 50.2h.01M295.7 161.0h.01M195.6 117.3h.01M181.7 221.8h.01M151.5 290.1h.01M89.4 109.8h.01M156.4 136.6h.01M80.7 119.9h.01M184.4 131.2h.01M237.1 44.4h.01M232.6 89.2h.01M282.7 112.2h.01M358.6 145.8h.01M305.6 194.2h.01M177.5 113.9h.01M182.2 138.5h.01M235.1 211.3h.01M153.5 51.7h.01M186.6 219.6h.01M93.8 114.2h.01M187.7 45.8h.01M97.7 97.5h.01M170.4 189.5h.01M178.8 122.2h.01M269.8 98.5h.01M195.9 200.4h.01M140.1 135.3h.01M174.0 203.8h.01M160.7 142.9h.01M79.3 314.6h.01M202.1 204.3h.01M216.9 129.2h.01M163.9 210.8h.01M60.5 163.1h.01M80.9 129.0h.01M98.0 79.1h.01M165.0 291.1h.01M123.4 126.8h.01M146.3 111.4h.01M208.6 204.4h.01M120.2 99.8h.01M204.5 103.0h.01M128.1 64.7h.01M99.1 197.0h.01M91.1 97.3h.01M189.8 291.2h.01M122.1 57.1h.01M260.9 74.3h.01M76.2 311.3h.01M169.8 108.7h.01M208.6 73.2h.01M207.8 50.1h.01M157.7 215.3h.01M288.0 153.5h.01M211.9 103.2h.01M217.6 121.8h.01M231.5 97.4h.01M142.8 54.6h.01M208.7 109.5h.01M339.5 209.9h.01M186.3 115.6h.01M334.7 202.1h.01M219.6 114.9h.01M313.4 171.6h.01M130.0 194.2h.01M211.6 88.3h.01M180.2 302.2h.01M170.1 199.0h.01M116.4 128.7h.01M263.2 99.2h.01M128.3 96.1h.01M85.8 105.0h.01M125.4 110.2h.01M148.2 430.5h.01M267.8 77.5h.01M334.5 187.9h.01M118.9 106.4h.01M144.6 127.2h.01M202.4 131.1h.01M176.9 131.4h.01M58.8 168.9h.01M119.3 121.4h.01M209.6 120.3h.01M58.5 152.2h.01M305.6 169.1h.01M243.7 87.5h.01M221.4 364.5h.01M127.8 131.4h.01M210.3 134.9h.01M195.9 125.4h.01M116.6 87.7h.01M140.6 118.8h.01M132.9 115.5h.01M275.8 81.0h.01M44.9 162.0h.01M154.6 107.9h.01M242.6 56.4h.01M192.7 132.3h.01M115.3 95.3h.01M234.2 73.9h.01M170.8 46.3h.01M212.2 96.2h.01M275.9 0.4h.01M160.8 113.3h.01M159.7 191.0h.01M289.2 159.8h.01M125.4 118.2h.01M94.4 91.2h.01M141.3 101.8h.01M162.8 104.0h.01M203.0 87.7h.01M227.1 83.9h.01M221.6 145.3h.01M141.0 0.5h.01M358.6 255.1h.01M213.3 66.9h.01M112.0 82.1h.01M162.8 262.4h.01M74.5 132.9h.01M204.2 115.0h.01M358.6 277.2h.01M113.3 123.0h.01M313.3 163.0h.01M276.9 96.4h.01M81.6 111.7h.01M224.2 55.9h.01M143.7 291.2h.01M168.2 33.1h.01M107.8 122.6h.01M161.9 181.0h.01M137.9 93.8h.01M305.4 160.0h.01M222.7 108.8h.01M276.8 88.2h.01M129.8 79.5h.01M0.4 202.0h.01M103.2 95.4h.01M109.2 89.7h.01M358.6 123.3h.01M125.8 103.3h.01M65.7 152.3h.01M124.1 85.2h.01M248.0 60.4h.01M101.3 136.4h.01M221.4 430.6h.01M131.6 107.5h.01M162.1 46.9h.01M238.1 83.8h.01M156.7 185.3h.01M93.2 103.6h.01M213.4 210.2h.01M226.2 138.7h.01M0.5 162.3h.01M297.1 226.3h.01M201.2 56.2h.01M102.0 89.9h.01M202.9 123.4h.01M155.2 208.6h.01M207.0 0.4h.01M108.8 128.2h.01M122.2 92.5h.01M225.4 76.1h.01M131.3 88.7h.01M232.9 80.2h.01M194.9 51.9h.01M212.9 220.3h.01M155.5 99.1h.01M282.9 80.3h.01M337.5 218.9h.01M159.7 204.1h.01M241.6 0.4h.01M358.6 233.8h.01M218.6 102.1h.01M187.7 197.6h.01"/>
<path stroke="#1a1a1a" stroke-width="2.39" stroke-linecap="round" fill="none" d="M196.4 37.0h.01M112.2 152.8h.01M270.0 116.7h.01M260.3 213.9h.01M83.5 213.6h.01M132.4 213.1h.01M194.7 291.5h.01M78.5 262.6h.01M203.6 397.8h.01M171.6 287.5h.01M248.7 243.4h.01M96.6 249.0h.01M91.4 159.1h.01M278.1 198.4h.01M123.3 391.2h.01M236.9 176.0h.01M152.9 307.5h.01M231.0 191.8h.01M246.4 135.1h.01M236.1 270.0h.01M143.0 186.2h.01M201.1 309.0h.01M259.4 80.9h.01M236.4 290.2h.01M193.2 195.9h.01M225.8 284.8h.01M126.0 152.3h.01M113.7 285.8h.01M115.2 116.8h.01M201.8 253.7h.01M218.0 226.4h.01M263.9 203.9h.01M241.8 215.3h.01M91.6 120.6h.01M124.0 137.8h.01M234.3 264.9h.01M73.2 228.6h.01M55.9 157.4h.01M270.3 214.3h.01M237.3 144.1h.01M207.3 251.4h.01M162.8 309.8h.01M126.5 394.7h.01M177.1 308.1h.01M207.0 258.3h.01M166.9 268.1h.01M221.2 160.0h.01M141.6 260.5h.01M212.9 272.4h.01M151.5 215.2h.01M223.9 257.1h.01M178.8 210.9h.01M55.1 233.8h.01M195.3 241.6h.01M226.1 207.0h.01M100.0 262.9h.01M225.1 294.2h.01M172.9 265.7h.01M163.2 217.6h.01M248.3 265.4h.01M131.7 208.7h.01M176.6 296.8h.01M237.6 108.3h.01M232.3 159.1h.01M139.9 216.2h.01M233.4 233.6h.01M71.5 206.2h.01M180.4 314.5h.01M105.2 101.6h.01M194.6 299.1h.01M95.5 211.2h.01M203.0 282.1h.01M244.7 276.2h.01M247.5 107.3h.01M191.4 146.7h.01M228.2 234.9h.01M287.5 182.3h.01M281.7 240.5h.01M235.7 51.8h.01M219.4 153.4h.01M217.5 276.5h.01M217.9 220.2h.01M218.5 270.1h.01M265.2 135.2h.01M110.7 273.5h.01M256.2 145.1h.01M150.0 139.3h.01M211.0 386.1h.01M151.2 302.2h.01M244.2 139.0h.01M101.5 113.0h.01M244.2 68.5h.01M112.9 110.0h.01M248.6 234.7h.01M108.5 354.8h.01M195.4 42.7h.01M228.8 111.4h.01M223.9 233.7h.01M227.6 230.1h.01M289.8 188.7h.01M110.4 212.1h.01M280.7 152.1h.01M241.1 155.3h.01M109.9 240.4h.01M106.0 351.5h.01M263.6 85.1h.01M219.9 231.8h.01M157.5 313.4h.01M77.8 145.0h.01M270.0 91.9h.01M178.8 267.0h.01M94.3 192.9h.01M154.6 143.2h.01M173.1 146.3h.01M111.8 237.0h.01M146.8 134.5h.01M242.6 124.5h.01M236.8 120.8h.01M308.2 176.4h.01M120.5 383.2h.01M185.7 145.6h.01M202.2 304.9h.01M254.5 76.0h.01M217.0 164.3h.01M145.8 302.7h.01M174.2 38.2h.01M253.5 106.7h.01M172.9 302.3h.01M119.0 280.7h.01M112.7 140.1h.01M224.5 117.8h.01M96.9 296.3h.01M268.0 127.0h.01M177.5 263.0h.01M232.0 281.9h.01M166.9 153.6h.01M143.3 211.3h.01M258.1 218.6h.01M202.9 277.4h.01M190.6 311.1h.01M282.4 159.6h.01M244.9 95.4h.01M223.8 222.9h.01M133.3 292.1h.01M265.9 208.9h.01M200.8 244.0h.01M97.4 108.9h.01M230.3 153.4h.01M238.5 160.7h.01M251.5 173.7h.01M260.3 122.4h.01M179.1 144.7h.01M245.9 260.1h.01M279.2 145.3h.01M126.0 219.1h.01M249.6 238.7h.01M93.6 254.0h.01M216.3 158.6h.01M103.6 266.6h.01M251.9 125.2h.01M209.8 159.3h.01M177.0 290.3h.01M135.8 195.6h.01M207.8 269.7h.01M244.0 144.1h.01M101.8 346.5h.01M233.1 105.0h.01M185.8 282.6h.01M263.6 117.1h.01M50.7 175.3h.01M71.4 255.4h.01M257.5 117.2h.01M218.4 306.0h.01M165.2 304.5h.01M150.0 203.3h.01M97.1 258.7h.01M60.9 190.8h.01M253.1 159.6h.01M202.4 291.9h.01M96.0 124.8h.01M206.0 310.6h.01M128.8 289.3h.01M251.6 82.3h.01M250.1 141.5h.01M248.7 251.4h.01M263.6 91.8h.01M247.2 247.7h.01M145.6 214.9h.01M102.3 186.8h.01M206.7 392.9h.01M125.7 293.9h.01M139.2 303.6h.01M260.4 112.2h.01M232.5 275.2h.01M114.1 228.0h.01M298.7 173.5h.01M84.9 208.9h.01M199.6 296.7h.01M104.7 211.7h.01M197.2 275.9h.01M196.9 145.0h.01M269.5 138.7h.01M269.0 203.3h.01M236.2 149.7h.01M229.3 224.7h.01M58.8 183.8h.01M147.7 419.3h.01M81.4 205.3h.01M158.2 301.6h.01M180.2 215.8h.01M276.2 120.2h.01M73.4 232.9h.01M226.2 346.0h.01M109.9 116.8h.01M236.0 284.7h.01M253.7 130.5h.01M231.7 216.0h.01M204.5 149.6h.01M207.6 154.5h.01M226.4 158.1h.01M263.1 128.2h.01M293.4 171.4h.01M212.6 226.1h.01M273.7 103.1h.01M223.2 227.4h.01M237.2 217.4h.01M146.4 286.4h.01M264.4 307.4h.01M92.5 130.1h.01M151.8 421.4h.01M248.9 73.0h.01M69.3 196.1h.01M249.8 147.7h.01M105.3 107.2h.01M231.7 288.7h.01M171.0 307.9h.01M234.8 114.4h.01M274.0 128.7h.01M119.3 227.5h.01M212.4 167.5h.01M170.9 183.3h.01M184.4 296.7h.01M281.1 204.4h.01M242.1 111.5h.01M188.5 38.1h.01M113.6 280.5h.01M275.8 256.2h.01M174.8 215.5h.01M111.2 244.4h.01M123.0 298.6h.01M95.5 136.5h.01M181.6 286.2h.01M143.1 204.9h.01M250.1 88.9h.01M190.8 285.2h.01M254.2 121.4h.01M222.5 185.2h.01M238.5 138.6h.01M271.0 188.0h.01M75.9 206.7h.01M168.3 298.8h.01M135.0 217.4h.01M150.4 266.7h.01M232.0 125.9h.01M154.2 43.2h.01M274.5 161.7h.01M269.9 192.9h.01M178.0 199.4h.01M60.7 201.0h.01M269.8 85.1h.01M161.2 40.4h.01M247.1 121.6h.01M136.5 298.6h.01M151.6 187.8h.01M240.4 133.6h.01M123.2 224.3h.01M305.4 182.8h.01M234.7 133.1h.01M143.3 414.9h.01M151.5 197.9h.01M71.9 200.7h.01M171.2 270.4h.01M243.7 244.4h.01M247.6 113.9h.01M209.6 277.5h.01M104.3 118.3h.01M215.7 263.6h.01M277.0 182.0h.01M272.0 183.0h.01M268.4 144.5h.01M78.1 187.9h.01M165.6 147.8h.01M193.4 227.3h.01M287.0 250.7h.01M148.1 208.7h.01M101.1 142.0h.01M146.5 263.3h.01M241.9 117.7h.01M211.9 258.5h.01M197.8 293.9h.01M131.0 136.7h.01M64.9 167.6h.01M122.4 218.3h.01M119.7 134.6h.01M276.8 114.6h.01M255.9 135.1h.01M280.4 137.8h.01M229.3 131.8h.01M176.3 284.8h.01M100.7 206.5h.01M243.9 161.7h.01M233.7 62.0h.01M117.6 141.9h.01M92.9 244.8h.01M243.0 103.4h.01M232.5 138.9h.01M77.4 248.5h.01M272.4 147.9h.01M200.2 238.9h.01M147.7 192.3h.01M221.7 203.2h.01M99.6 213.8h.01M248.1 255.7h.01M196.5 311.5h.01M240.7 263.8h.01M159.4 148.2h.01M156.2 422.2h.01M136.1 203.7h.01M242.4 251.0h.01M106.7 262.8h.01M224.5 125.1h.01M153.8 192.3h.01M257.3 155.8h.01M258.2 94.6h.01M117.5 300.3h.01M63.2 186.9h.01M246.5 158.2h.01M256.6 100.9h.01M254.0 112.1h.01M142.4 307.7h.01M266.8 111.4h.01M202.3 44.7h.01M102.1 124.1h.01M60.7 196.4h.01M230.1 119.7h.01M53.7 238.3h.01M109.2 97.0h.01M201.4 154.6h.01M245.1 218.9h.01M235.7 155.4h.01M280.7 185.6h.01M123.5 287.5h.01M192.6 273.5h.01M250.0 100.9h.01M133.5 49.9h.01M89.6 213.2h.01M249.5 66.1h.01M245.7 152.6h.01M52.1 163.2h.01M193.3 233.3h.01M270.9 156.2h.01M143.1 267.1h.01M82.3 261.3h.01M277.6 157.5h.01M261.6 152.2h.01M191.3 305.9h.01M220.5 260.8h.01M148.4 295.9h.01M111.5 360.4h.01M189.1 301.0h.01M199.8 288.8h.01M196.8 281.0h.01M219.2 210.1h.01M228.2 278.6h.01M226.5 289.9h.01M238.8 274.9h.01M121.4 303.6h.01M222.8 279.3h.01M91.0 249.6h.01M240.3 257.1h.01M223.0 132.2h.01M137.7 287.8h.01M56.6 174.1h.01M98.6 169.6h.01M203.7 248.4h.01M224.0 273.5h.01M183.1 192.1h.01M98.3 118.6h.01M256.0 140.1h.01M242.6 148.9h.01M49.6 155.9h.01M86.7 143.1h.01M127.8 301.5h.01M118.8 288.3h.01M182.0 292.4h.01M197.1 235.4h.01M271.6 123.1h.01M228.2 186.8h.01M249.4 163.4h.01M238.6 279.9h.01M264.1 157.1h.01M94.6 217.8h.01M269.2 132.3h.01M138.4 293.5h.01M252.3 94.9h.01M99.8 103.5h.01M92.6 332.5h.01M107.4 112.1h.01M248.6 129.0h.01M186.1 288.5h.01M243.8 130.0h.01M215.8 148.3h.01M142.6 298.1h.01M259.7 131.7h.01M198.0 208.4h.01M259.9 106.5h.01M106.2 243.8h.01M257.3 126.2h.01M209.6 147.9h.01M253.2 241.4h.01M245.8 204.4h.01M99.9 254.4h.01M132.9 285.6h.01M167.7 40.2h.01M265.4 122.1h.01M90.0 207.6h.01M256.9 88.0h.01M274.9 141.4h.01M159.4 175.9h.01M87.0 134.0h.01M107.4 138.0h.01M293.6 231.4h.01M251.4 117.4h.01M145.9 198.6h.01M140.0 46.7h.01M243.3 269.8h.01M289.7 166.9h.01M64.5 196.5h.01M113.4 134.4h.01M237.8 127.8h.01M167.9 312.4h.01M207.2 306.8h.01M175.4 270.4h.01M60.2 177.9h.01M187.9 277.8h.01M199.1 270.4h.01M273.8 109.5h.01M178.7 205.6h.01M262.2 146.9h.01M250.2 154.7h.01M239.2 209.8h.01M243.7 238.4h.01M209.0 283.6h.01M190.3 296.0h.01M298.3 167.0h.01M118.0 222.9h.01M267.3 151.1h.01M223.3 45.3h.01M263.0 141.5h.01M232.3 228.6h.01M219.4 283.7h.01M254.9 150.8h.01M209.6 43.1h.01M207.1 221.7h.01M161.9 153.3h.01M280.4 260.4h.01"/>
<path stroke="#1a1a1a" stroke-width="2.84" stroke-linecap="round" fill="none" d="M76.4 274.7h.01M183.2 185.3h.01M244.4 226.0h.01M257.4 242.2h.01M145.4 257.5h.01M191.3 417.8h.01M109.1 277.6h.01M178.7 411.5h.01M122.7 276.6h.01M239.5 240.4h.01M63.1 173.4h.01M226.8 50.4h.01M274.3 203.4h.01M127.9 240.1h.01M152.9 284.3h.01M134.2 315.5h.01M66.9 252.7h.01M223.3 245.2h.01M265.5 188.9h.01M134.3 406.4h.01M96.0 272.1h.01M103.3 293.9h.01M191.4 222.9h.01M275.7 187.1h.01M66.8 257.6h.01M75.1 259.0h.01M63.3 208.9h.01M254.0 221.0h.01M127.3 234.7h.01M234.5 255.3h.01M242.3 206.8h.01M87.1 248.3h.01M77.0 197.1h.01M194.3 267.9h.01M99.9 152.2h.01M192.4 316.1h.01M54.0 221.0h.01M122.0 312.0h.01M268.5 160.2h.01M287.0 202.5h.01M112.0 262.7h.01M197.0 224.5h.01M138.9 406.2h.01M253.9 249.9h.01M196.5 315.6h.01M88.8 222.9h.01M280.8 247.1h.01M108.3 293.6h.01M70.1 215.4h.01M255.5 164.1h.01M254.1 234.4h.01M54.5 249.3h.01M86.3 174.3h.01M117.4 158.5h.01M123.6 258.0h.01M182.2 150.0h.01M131.2 261.7h.01M89.3 278.8h.01M79.9 280.7h.01M226.6 340.3h.01M51.4 193.8h.01M127.8 258.1h.01M73.3 211.3h.01M89.3 176.8h.01M139.0 142.9h.01M185.7 253.0h.01M265.1 193.7h.01M236.8 229.7h.01M181.2 320.3h.01M232.4 187.0h.01M113.1 144.7h.01M107.6 142.7h.01M124.1 188.8h.01M256.3 206.8h.01M125.2 306.7h.01M226.5 246.5h.01M48.7 180.1h.01M76.9 215.6h.01M163.6 158.3h.01M245.8 208.2h.01M251.1 213.3h.01M265.7 256.7h.01M180.9 416.7h.01M107.2 152.3h.01M260.4 137.3h.01M120.0 308.2h.01M183.2 421.8h.01M128.6 160.1h.01M65.4 247.7h.01M59.3 246.9h.01M80.0 276.5h.01M86.9 160.5h.01M258.8 160.9h.01M218.2 187.9h.01M188.8 267.9h.01M189.4 233.3h.01M71.8 154.5h.01M170.8 151.1h.01M183.5 264.7h.01M153.4 148.4h.01M180.9 244.7h.01M264.8 262.4h.01M196.8 304.4h.01M214.4 281.5h.01M260.5 255.4h.01M200.2 231.2h.01M249.5 277.0h.01M191.3 252.4h.01M252.1 167.0h.01M52.8 229.5h.01M251.3 230.9h.01M63.6 292.4h.01M111.8 158.9h.01M67.0 183.4h.01M244.4 198.4h.01M288.9 240.7h.01M301.7 189.2h.01M257.0 224.9h.01M239.4 173.2h.01M179.4 280.9h.01M84.2 222.6h.01M108.6 161.7h.01M250.1 271.4h.01M111.0 148.6h.01M270.8 225.4h.01M162.4 285.0h.01M191.6 155.2h.01M203.7 389.4h.01M248.7 177.7h.01M113.6 291.5h.01M109.0 258.7h.01M82.6 246.9h.01M273.1 197.7h.01M239.1 184.1h.01M226.3 298.9h.01M80.6 272.0h.01M295.8 189.6h.01M88.3 227.9h.01M103.5 283.5h.01M248.6 210.1h.01M256.7 315.1h.01M246.9 214.3h.01M267.7 184.3h.01M203.3 235.0h.01M73.3 188.4h.01M151.2 312.8h.01M270.0 260.3h.01M269.9 236.3h.01M183.1 249.0h.01M88.7 265.6h.01M240.5 285.4h.01M114.4 270.7h.01M173.6 254.0h.01M93.7 263.0h.01M76.3 253.5h.01M273.7 178.6h.01M251.4 206.5h.01M54.9 261.6h.01M188.6 151.5h.01M110.8 248.8h.01M291.5 227.4h.01M56.4 200.9h.01M226.6 242.4h.01M241.8 176.2h.01M174.4 313.3h.01M55.7 225.4h.01M139.2 270.1h.01M91.5 274.1h.01M232.9 259.9h.01M82.9 227.7h.01M178.0 422.0h.01M267.0 219.8h.01M171.9 413.6h.01M207.7 227.5h.01M129.9 216.8h.01M236.4 224.9h.01M206.8 292.0h.01M225.5 181.7h.01M282.8 192.9h.01M148.3 282.6h.01M62.8 157.2h.01M185.3 318.7h.01M292.7 183.8h.01M131.7 279.9h.01M222.9 266.3h.01M140.7 198.9h.01M217.6 183.2h.01M117.3 274.6h.01M152.4 415.6h.01M157.6 250.6h.01M222.7 197.8h.01M223.8 164.2h.01M268.0 198.1h.01M196.7 254.8h.01M230.6 246.4h.01M54.8 243.7h.01M49.7 189.2h.01M139.5 410.8h.01M70.0 265.6h.01M221.8 241.4h.01M74.2 264.4h.01M89.6 232.3h.01M152.9 251.5h.01M225.1 253.0h.01M231.6 238.3h.01M215.0 231.2h.01M137.8 309.6h.01M58.1 194.9h.01M220.1 289.4h.01M93.4 278.8h.01M274.9 244.8h.01M95.4 144.2h.01M220.4 50.8h.01M170.9 177.8h.01M139.4 264.8h.01M261.6 222.7h.01M109.3 233.6h.01M55.4 187.4h.01M265.1 213.9h.01M118.2 154.1h.01M109.1 267.7h.01M190.0 243.0h.01M251.0 135.6h.01M119.5 258.9h.01M133.3 309.5h.01M73.2 244.2h.01M279.6 189.8h.01M173.0 422.2h.01M86.6 270.6h.01M285.3 187.8h.01M124.2 271.7h.01M239.4 205.1h.01M204.8 287.0h.01M130.4 187.1h.01M240.7 227.7h.01M69.7 186.8h.01M185.6 202.6h.01M265.0 244.6h.01M288.0 231.3h.01M177.9 224.8h.01M271.6 208.9h.01M77.2 267.6h.01M74.6 238.6h.01M217.5 236.2h.01M201.9 393.7h.01M235.7 180.7h.01M68.8 243.3h.01M178.9 183.8h.01M140.2 236.7h.01M115.6 241.2h.01M115.1 210.7h.01M190.7 164.0h.01M256.3 212.3h.01M161.4 422.2h.01M187.9 248.2h.01M72.7 183.1h.01M82.1 200.4h.01M134.7 140.6h.01M201.1 313.7h.01M185.1 244.0h.01M239.3 245.2h.01M249.0 170.3h.01M211.7 381.0h.01M168.9 253.2h.01M205.9 314.2h.01M67.2 200.7h.01M65.1 233.0h.01M227.6 202.6h.01M153.8 179.9h.01M185.7 225.3h.01M248.0 199.8h.01M199.6 389.7h.01M255.8 193.8h.01M119.2 294.3h.01M214.3 287.0h.01M93.4 291.3h.01M86.2 262.7h.01M125.2 311.9h.01M154.0 316.7h.01M71.5 249.4h.01M218.3 300.3h.01M264.8 268.3h.01M123.7 230.7h.01M136.7 243.3h.01M90.3 288.6h.01M131.0 200.4h.01M106.2 238.7h.01M70.9 179.5h.01M126.8 263.0h.01M50.5 185.1h.01M85.5 275.0h.01M183.2 277.7h.01M88.6 218.0h.01M94.0 170.4h.01M91.6 163.8h.01M241.1 291.9h.01M141.2 245.8h.01M176.8 150.5h.01M240.8 221.6h.01M234.9 242.0h.01M64.0 243.1h.01M252.2 225.7h.01M302.4 200.5h.01M101.4 245.7h.01M66.5 190.9h.01M151.6 221.2h.01M231.7 199.1h.01M211.3 253.0h.01M210.7 310.4h.01M215.4 47.1h.01M186.7 239.8h.01M175.7 416.6h.01M121.1 242.6h.01M196.1 392.0h.01M121.8 316.7h.01M91.6 303.3h.01M283.7 209.6h.01M139.5 181.6h.01M86.7 236.6h.01M169.1 157.8h.01M298.8 184.2h.01M211.7 295.1h.01M255.5 202.2h.01M57.8 217.4h.01M244.5 282.0h.01M113.6 297.0h.01M188.1 191.6h.01M243.0 202.7h.01M224.3 351.2h.01M221.5 237.4h.01M178.7 178.5h.01M190.9 237.8h.01M185.6 312.4h.01M296.1 179.0h.01M114.0 180.9h.01M235.9 192.1h.01M275.7 192.6h.01M215.8 310.5h.01M87.7 244.5h.01M68.0 211.0h.01M243.5 211.1h.01M128.0 275.3h.01M269.9 241.3h.01M98.9 311.8h.01M94.3 284.5h.01M203.6 159.2h.01M267.8 230.1h.01M51.9 199.1h.01M247.5 173.6h.01M134.9 264.6h.01M73.8 224.0h.01M233.1 177.2h.01M53.2 203.7h.01M62.4 254.5h.01M249.7 219.1h.01M95.0 206.5h.01M192.7 246.8h.01M195.0 308.1h.01M248.1 228.4h.01M169.5 418.3h.01M119.1 268.7h.01M118.0 237.2h.01M78.2 227.5h.01M100.4 173.5h.01M269.7 247.5h.01M97.3 243.8h.01M200.6 401.7h.01M82.2 218.0h.01M263.0 217.9h.01M108.1 299.0h.01M65.9 295.4h.01M117.3 262.9h.01M204.0 198.6h.01M218.6 198.0h.01M277.0 231.1h.01M200.5 147.8h.01M99.8 268.8h.01M281.5 253.6h.01M282.2 181.6h.01M94.8 155.9h.01M100.1 302.6h.01M59.8 236.7h.01M263.1 199.1h.01M191.6 394.2h.01M274.8 260.8h.01M214.4 313.8h.01M134.0 303.4h.01M131.7 402.3h.01M244.8 180.9h.01M210.6 314.1h.01M79.1 233.0h.01M90.2 200.0h.01M261.1 209.1h.01M157.8 283.9h.01M254.6 255.3h.01M247.7 223.1h.01M99.3 341.5h.01M281.6 176.7h.01M55.0 196.6h.01M235.1 171.1h.01M202.0 260.1h.01M244.3 232.4h.01M67.0 220.5h.01M149.7 258.0h.01M133.0 239.9h.01M198.3 169.7h.01M220.0 254.7h.01M123.0 237.0h.01M165.0 173.8h.01M163.0 315.6h.01M126.9 213.8h.01M255.6 238.1h.01M253.6 317.9h.01M88.1 240.6h.01M261.3 228.0h.01M104.8 302.5h.01M100.1 285.8h.01M191.9 279.7h.01M113.7 366.1h.01M105.3 271.3h.01M260.5 190.1h.01M214.9 303.4h.01M205.0 239.2h.01M116.3 312.6h.01M111.7 302.4h.01M231.0 334.4h.01M61.6 213.4h.01M274.0 268.7h.01M135.4 234.9h.01M54.6 255.5h.01M269.7 291.4h.01M112.0 312.7h.01M76.9 192.3h.01M100.4 219.6h.01M123.5 282.2h.01M99.0 156.9h.01M270.0 287.4h.01M187.8 272.8h.01M212.1 163.4h.01M259.4 176.9h.01M145.5 316.2h.01M252.3 197.1h.01M176.7 318.7h.01M209.2 299.6h.01M178.4 251.8h.01M107.6 281.8h.01M228.8 264.9h.01M71.3 261.0h.01M117.5 316.5h.01M225.9 238.6h.01M240.0 233.2h.01M130.0 305.9h.01M78.4 243.2h.01M209.5 198.9h.01M139.7 173.8h.01M96.0 300.9h.01M291.1 235.9h.01M200.6 316.9h.01M227.4 193.6h.01M148.8 145.6h.01M227.3 198.7h.01M171.5 317.7h.01M237.3 236.8h.01M258.0 199.0h.01M139.4 279.9h.01M63.2 181.6h.01M158.2 307.4h.01M63.7 203.9h.01M237.7 327.5h.01M85.7 179.5h.01M65.0 238.0h.01M158.6 269.3h.01M164.1 417.8h.01M183.7 154.2h.01M53.5 213.9h.01M229.1 255.6h.01M82.4 267.2h.01M88.4 293.0h.01M115.8 305.0h.01M286.1 257.6h.01M131.2 297.1h.01M302.0 177.6h.01M58.0 252.0h.01M108.0 207.0h.01M120.7 160.9h.01M260.6 194.9h.01M231.2 301.5h.01M186.5 417.1h.01M241.5 62.7h.01M265.2 250.6h.01M130.7 318.1h.01M102.3 297.9h.01M141.3 284.2h.01M237.1 57.9h.01M144.3 141.9h.01M232.3 251.0h.01M136.2 248.0h.01M210.4 303.8h.01M128.5 309.9h.01M234.1 183.7h.01M217.0 294.6h.01M127.5 227.4h.01M88.2 324.0h.01M90.6 284.0h.01M262.0 232.4h.01M95.0 305.6h.01M131.5 235.0h.01M222.1 218.7h.01M289.1 208.5h.01M76.6 202.1h.01M259.6 204.0h.01M254.1 245.8h.01M85.6 258.0h.01M104.8 217.2h.01M157.1 152.3h.01M131.5 245.1h.01M228.6 270.3h.01M253.3 216.4h.01M245.1 176.4h.01M61.7 220.2h.01M264.8 238.4h.01M270.9 272.8h.01M254.7 266.9h.01M102.7 170.8h.01M213.6 307.1h.01M156.0 220.6h.01M185.8 304.9h.01M97.4 281.7h.01M274.6 222.3h.01M199.6 300.9h.01M259.5 250.1h.01M194.7 396.0h.01M59.8 230.2h.01M104.9 276.0h.01M177.0 220.0h.01M135.9 156.3h.01M84.5 319.3h.01M167.4 422.6h.01M79.6 257.3h.01M297.5 220.5h.01M53.8 208.0h.01M78.6 221.7h.01M82.1 194.8h.01M189.5 227.6h.01M272.3 218.9h.01M260.3 245.2h.01M207.3 210.6h.01M83.8 233.0h.01M127.2 279.6h.01M244.0 172.4h.01M71.9 193.0h.01M182.6 240.6h.01M129.4 230.6h.01M266.0 234.2h.01M58.6 206.0h.01M106.2 248.1h.01M162.4 268.8h.01M153.9 269.1h.01M72.1 174.9h.01M230.8 55.4h.01M128.8 398.7h.01M199.3 197.6h.01M234.9 246.8h.01M90.9 139.7h.01M82.1 190.5h.01M98.2 307.4h.01M147.7 309.0h.01M88.8 255.1h.01M202.0 167.3h.01M112.8 316.9h.01M86.1 251.9h.01M256.5 230.2h.01M96.7 288.1h.01M286.7 214.6h.01M233.9 220.9h.01M86.2 197.8h.01M184.0 180.7h.01M131.4 152.8h.01M203.6 295.6h.01M136.0 282.1h.01M114.1 233.1h.01M253.0 260.9h.01M233.2 296.1h.01M130.0 313.3h.01M223.2 189.6h.01M259.2 260.6h.01M69.7 237.2h.01M68.3 171.8h.01M72.9 149.2h.01M54.3 180.8h.01M167.0 285.3h.01M277.5 209.3h.01M215.5 214.9h.01M67.3 228.9h.01M145.4 246.1h.01M255.7 175.6h.01M78.9 210.6h.01M226.7 260.8h.01M204.5 273.2h.01M167.0 221.2h.01M91.2 259.4h.01M103.2 241.5h.01M58.2 257.6h.01M212.8 184.8h.01M91.7 299.4h.01M226.8 168.0h.01M116.3 371.5h.01M253.1 209.6h.01M72.9 219.2h.01M98.9 292.3h.01M161.5 222.1h.01M128.2 223.6h.01M229.8 294.5h.01M95.4 267.1h.01M272.1 264.7h.01M87.3 203.5h.01M82.0 253.3h.01M101.5 249.9h.01M65.3 215.7h.01M237.1 250.9h.01M197.8 406.5h.01M221.2 295.8h.01M139.3 314.8h.01M223.2 249.7h.01M69.0 300.4h.01M222.3 307.4h.01M59.4 241.8h.01M228.2 249.9h.01M124.5 160.2h.01M103.7 289.2h.01M287.7 195.2h.01M210.9 264.9h.01M249.1 204.1h.01M108.0 305.3h.01M219.6 250.0h.01M266.1 225.2h.01M202.5 218.9h.01M91.9 295.6h.01M91.5 269.1h.01M114.2 266.4h.01M183.5 269.6h.01M253.8 278.0h.01M259.5 312.4h.01M255.0 189.1h.01M197.1 248.7h.01M103.0 307.7h.01M224.8 151.6h.01M83.2 240.7h.01M57.8 211.2h.01M275.3 250.3h.01M268.5 295.2h.01M133.0 256.7h.01M68.9 224.3h.01M285.3 263.2h.01M203.6 299.5h.01M104.2 157.0h.01M92.9 240.5h.01M171.6 219.6h.01M246.5 167.3h.01M83.8 278.9h.01M181.1 38.2h.01M213.9 299.2h.01M62.0 225.1h.01M143.8 312.4h.01M210.2 230.9h.01M277.6 176.6h.01M76.0 179.3h.01M230.4 242.4h.01M213.5 153.7h.01M104.0 258.2h.01M128.6 284.0h.01M93.1 223.8h.01M214.0 291.5h.01M119.4 208.3h.01M283.1 198.6h.01M251.8 201.9h.01M229.5 171.7h.01M66.8 177.4h.01M55.5 191.5h.01M269.6 179.0h.01M67.6 206.1h.01M209.6 289.1h.01M83.6 284.0h.01M182.2 308.5h.01M137.8 256.6h.01M135.8 260.6h.01M108.4 287.5h.01M260.3 265.9h.01M91.4 180.3h.01M271.2 278.3h.01M196.6 229.8h.01M79.7 237.6h.01M229.3 220.3h.01M285.5 236.1h.01M118.9 232.1h.01"/>
<path stroke="#1a1a1a" stroke-width="3.35" stroke-linecap="round" fill="none" d="M259.3 185.9h.01M139.0 233.2h.01M253.3 181.6h.01M209.0 246.6h.01M272.7 230.1h.01M134.5 177.0h.01M266.6 281.8h.01M87.3 149.2h.01M141.2 147.2h.01M159.7 158.6h.01M211.6 192.5h.01M104.2 319.0h.01M173.7 223.4h.01M72.8 275.1h.01M219.1 168.2h.01M236.6 198.5h.01M156.1 246.6h.01M199.1 375.7h.01M150.2 279.6h.01M202.5 374.3h.01M95.3 236.6h.01M278.8 268.9h.01M75.1 280.0h.01M138.9 159.4h.01M288.5 219.2h.01M207.3 325.2h.01M202.6 266.6h.01M259.5 270.5h.01M90.6 189.1h.01M185.7 163.7h.01M187.1 209.6h.01M84.5 292.5h.01M188.7 205.6h.01M64.4 263.8h.01M126.3 142.5h.01M96.2 161.9h.01M104.9 203.5h.01M77.8 160.9h.01M127.1 319.6h.01M270.1 283.2h.01M219.4 310.5h.01M208.2 383.7h.01M262.7 282.3h.01M159.0 318.5h.01M233.3 309.4h.01M137.4 252.5h.01M204.4 322.7h.01M236.9 166.6h.01M212.9 234.9h.01M249.6 188.9h.01M266.7 172.5h.01M126.9 156.5h.01M253.0 292.0h.01M291.3 177.1h.01M263.3 184.3h.01M134.6 145.9h.01M182.8 169.5h.01M153.1 243.8h.01M275.2 240.1h.01M107.9 310.0h.01M94.2 188.3h.01M191.5 320.5h.01M205.3 180.7h.01M292.6 218.6h.01M243.1 288.6h.01M109.9 216.8h.01M62.3 259.2h.01M197.1 378.6h.01M104.3 161.9h.01M249.8 296.5h.01M78.2 283.6h.01M137.9 319.1h.01M133.8 230.6h.01M192.0 257.9h.01M183.6 206.6h.01M118.6 175.9h.01M152.9 247.7h.01M273.9 174.3h.01M288.6 223.5h.01M284.2 229.5h.01M241.4 325.7h.01M70.1 166.8h.01M207.1 187.0h.01M164.5 411.6h.01M264.5 295.7h.01M67.2 272.0h.01M225.3 313.0h.01M200.3 221.8h.01M141.9 319.9h.01M252.4 177.7h.01M204.9 214.9h.01M205.8 170.0h.01M241.7 165.6h.01M130.6 179.5h.01M188.0 176.8h.01M262.8 178.3h.01M101.4 279.0h.01M86.3 183.9h.01M246.5 323.1h.01M111.7 308.0h.01M81.5 179.4h.01M192.2 180.1h.01M55.5 266.9h.01M236.5 204.1h.01M188.4 322.1h.01M187.2 257.7h.01M179.1 154.9h.01M219.2 193.1h.01M249.8 320.4h.01M174.1 154.6h.01M262.5 288.7h.01M130.9 148.6h.01M123.5 320.1h.01M291.2 213.6h.01M198.2 216.9h.01M108.8 176.5h.01M215.5 372.6h.01M293.4 205.4h.01M197.9 320.2h.01M94.6 232.5h.01M123.2 212.6h.01M105.9 169.9h.01M236.7 187.1h.01M276.5 214.8h.01M122.4 175.4h.01M167.2 273.1h.01M91.5 147.4h.01M126.7 173.6h.01M148.0 415.4h.01M64.2 272.7h.01M139.0 193.9h.01M152.5 255.3h.01M182.9 175.1h.01M195.8 151.2h.01M249.9 192.4h.01M57.3 276.1h.01M87.6 301.5h.01M146.2 174.0h.01M196.7 186.7h.01M142.8 241.2h.01M109.5 181.1h.01M205.1 382.1h.01M217.4 240.5h.01M140.9 151.2h.01M255.6 184.6h.01M80.6 289.7h.01M153.0 154.3h.01M260.1 181.6h.01M147.1 269.4h.01M131.0 176.0h.01M200.0 183.1h.01M116.3 148.5h.01M173.6 159.2h.01M292.9 222.9h.01M266.4 288.7h.01M260.9 295.6h.01M160.2 416.2h.01M143.3 236.2h.01M186.5 188.5h.01M144.2 280.7h.01M202.2 210.6h.01M167.2 413.9h.01M284.2 218.9h.01M261.2 309.3h.01M181.6 325.0h.01M117.8 184.1h.01M125.7 244.2h.01M120.8 324.7h.01M285.9 177.2h.01M268.9 267.4h.01M261.0 275.0h.01M194.7 323.4h.01M66.0 267.8h.01M295.6 215.9h.01M226.3 304.1h.01M188.5 395.5h.01M281.9 214.4h.01M91.2 153.0h.01M147.8 411.3h.01M176.5 244.5h.01M96.9 186.2h.01M217.8 368.3h.01M263.2 174.6h.01M191.9 324.4h.01M121.9 386.3h.01M61.9 269.9h.01M178.9 276.5h.01M88.4 305.5h.01M136.8 401.7h.01M86.8 298.0h.01M230.2 306.9h.01M261.1 240.0h.01M287.3 172.7h.01M135.9 150.2h.01M135.5 277.4h.01M216.2 257.2h.01M251.3 285.9h.01M103.6 146.4h.01M198.3 179.4h.01M286.4 244.7h.01M148.5 167.4h.01M97.8 202.2h.01M140.6 250.7h.01M145.5 277.0h.01M206.0 302.3h.01M203.5 190.5h.01M257.8 278.8h.01M227.3 210.7h.01M210.5 188.4h.01M212.8 317.6h.01M187.0 407.0h.01M187.1 168.1h.01M153.9 225.4h.01M84.4 288.9h.01M133.7 321.4h.01M198.0 160.0h.01M143.9 170.8h.01M259.3 283.6h.01M222.1 301.7h.01M114.0 188.4h.01M299.8 195.1h.01M207.5 296.1h.01M200.8 187.8h.01M180.8 196.2h.01M103.8 150.4h.01M148.5 254.3h.01M236.9 307.8h.01M162.4 253.0h.01M128.8 170.2h.01M86.8 164.8h.01M96.3 173.9h.01M83.6 296.3h.01M189.3 181.9h.01M60.9 266.6h.01M170.8 282.4h.01M67.8 162.7h.01M268.0 276.4h.01M120.5 248.7h.01M253.2 170.6h.01M72.8 160.6h.01M279.0 219.6h.01M62.2 250.4h.01M117.2 178.9h.01M197.6 190.8h.01M86.9 286.6h.01M178.1 324.0h.01M82.5 147.4h.01M87.7 154.6h.01M105.9 233.7h.01M198.8 396.2h.01M270.4 168.6h.01M204.2 225.9h.01M249.8 181.3h.01M215.6 194.3h.01M201.9 163.6h.01M149.5 317.8h.01M102.7 176.0h.01M227.4 214.6h.01M254.7 282.5h.01M142.6 179.3h.01M144.5 250.6h.01M123.6 248.0h.01M236.3 299.2h.01M146.5 177.3h.01M168.0 248.4h.01M89.0 171.6h.01M190.4 403.7h.01M257.9 290.6h.01M244.6 293.5h.01M135.9 172.0h.01M195.1 178.2h.01M278.6 166.2h.01M130.0 220.2h.01M146.7 163.9h.01M148.2 242.1h.01M94.3 228.4h.01M118.4 218.2h.01M229.6 175.7h.01M122.3 172.1h.01M196.5 386.8h.01M129.3 267.2h.01M265.4 180.1h.01M207.4 191.6h.01M170.6 274.7h.01M259.5 171.2h.01M144.8 411.1h.01M188.4 399.4h.01M204.4 184.5h.01M115.3 309.3h.01M216.2 317.0h.01M148.5 250.6h.01M156.1 271.7h.01M104.9 253.0h.01M195.4 219.8h.01M215.8 320.0h.01M121.2 180.0h.01M133.3 397.7h.01M207.8 320.6h.01M116.4 245.6h.01M204.4 318.2h.01M60.3 283.6h.01M130.2 271.1h.01M231.2 181.7h.01M187.7 185.0h.01M77.5 288.0h.01M196.6 156.2h.01M59.1 262.9h.01M108.2 315.2h.01M126.0 148.3h.01M131.6 157.5h.01M194.3 171.1h.01M149.9 151.4h.01M281.3 234.0h.01M96.7 183.0h.01M85.7 170.1h.01M76.5 175.4h.01M201.8 384.5h.01M239.6 169.6h.01M243.5 194.3h.01M142.9 164.1h.01M250.0 281.6h.01M97.1 276.8h.01M95.4 150.6h.01M60.6 274.1h.01M292.4 199.6h.01M106.4 178.1h.01M189.1 411.6h.01M291.9 193.2h.01M213.5 238.9h.01M178.0 247.7h.01M156.1 417.2h.01M119.3 313.4h.01M80.8 285.9h.01M99.9 184.3h.01M147.1 237.9h.01M209.3 240.5h.01M188.7 316.2h.01M295.6 195.5h.01M255.6 286.6h.01M181.1 227.3h.01M207.0 233.2h.01M67.2 261.3h.01M144.0 407.5h.01M156.8 412.3h.01M144.2 322.9h.01M145.7 149.3h.01M79.1 181.2h.01M99.4 227.3h.01M184.7 236.4h.01M160.6 411.1h.01M219.5 245.0h.01M277.4 236.0h.01M240.1 200.4h.01M183.9 328.2h.01M192.3 399.2h.01M86.9 282.1h.01M88.6 182.0h.01M267.2 299.2h.01M126.5 315.7h.01M119.5 320.9h.01M100.7 273.8h.01M112.7 177.5h.01M247.3 195.0h.01M80.6 184.6h.01M193.2 408.0h.01M73.2 170.0h.01M208.4 316.9h.01M100.1 241.4h.01M191.1 192.9h.01M215.2 171.6h.01M205.8 243.7h.01M264.6 285.4h.01M142.6 175.9h.01M232.5 195.6h.01M141.3 273.9h.01M259.4 287.1h.01M156.9 156.1h.01M201.3 320.6h.01M128.1 176.8h.01M137.2 323.4h.01M200.7 226.0h.01M130.0 144.0h.01M213.9 179.6h.01M260.5 302.7h.01M101.3 315.9h.01M251.4 185.4h.01M197.9 212.5h.01M256.6 180.0h.01M275.3 170.2h.01M193.7 382.7h.01M281.9 266.4h.01M93.8 177.1h.01M195.1 183.1h.01M158.9 225.7h.01M125.1 177.8h.01M84.0 176.8h.01M165.9 225.4h.01M74.6 284.6h.01M253.2 295.3h.01M144.5 233.5h.01M233.6 164.1h.01M149.5 246.1h.01M156.4 321.8h.01M115.8 319.6h.01M91.6 236.3h.01M186.8 328.3h.01M235.5 303.9h.01M143.5 271.5h.01M233.1 201.8h.01M143.1 218.9h.01M215.3 243.6h.01M95.1 180.7h.01M268.0 176.1h.01M193.1 160.3h.01M98.3 176.2h.01M184.2 412.2h.01M264.7 278.1h.01M194.8 319.5h.01M61.9 279.2h.01M131.5 172.5h.01M229.1 163.6h.01M270.4 172.5h.01M124.2 267.2h.01M192.1 390.4h.01M90.1 167.8h.01M163.7 273.2h.01M115.8 258.7h.01M134.4 180.1h.01M141.4 160.7h.01M207.3 387.8h.01M135.2 272.2h.01M137.8 239.1h.01M264.7 303.3h.01M223.5 193.5h.01M168.8 408.9h.01M134.7 174.4h.01M173.3 249.0h.01M222.1 357.3h.01M74.2 270.4h.01M261.7 292.4h.01M104.1 312.7h.01M221.2 180.1h.01M169.9 224.5h.01M253.0 289.1h.01M76.0 307.9h.01M273.3 234.7h.01M134.8 268.5h.01M232.8 206.0h.01M138.2 221.3h.01M263.5 299.5h.01M190.4 172.5h.01M284.5 165.0h.01M179.0 188.6h.01M116.3 249.3h.01M209.4 182.0h.01M179.1 272.2h.01M132.5 274.9h.01M285.8 226.2h.01M212.8 248.0h.01M201.5 214.2h.01M211.4 215.2h.01M92.1 173.7h.01M176.4 257.2h.01M261.0 279.4h.01M160.7 275.7h.01M194.5 403.1h.01M275.9 226.5h.01M64.7 276.3h.01M276.9 265.0h.01M212.9 376.8h.01M223.5 215.3h.01M214.6 189.1h.01M262.7 162.9h.01M265.4 272.7h.01M74.3 165.1h.01M107.9 173.1h.01M155.0 280.4h.01M240.0 180.3h.01M157.1 254.3h.01M237.8 294.7h.01M126.2 202.2h.01M200.4 324.4h.01M91.6 307.9h.01M56.9 271.0h.01M186.1 229.5h.01M96.5 336.9h.01M76.4 184.2h.01M194.1 412.5h.01M145.1 167.4h.01M109.2 201.8h.01M127.5 248.8h.01M90.6 192.2h.01M122.0 263.2h.01M222.0 313.2h.01M259.1 235.5h.01M207.0 164.5h.01M255.9 171.0h.01M140.7 156.6h.01M125.4 181.6h.01M97.6 223.5h.01M223.6 211.4h.01M173.9 409.7h.01M219.4 214.9h.01M197.0 399.9h.01M105.3 174.4h.01M174.8 279.7h.01M270.4 253.9h.01M86.4 191.8h.01M188.3 160.2h.01M214.6 198.3h.01M205.4 372.4h.01M124.7 169.8h.01M218.5 314.6h.01M226.2 218.5h.01M150.5 271.9h.01M255.6 273.5h.01M148.0 218.9h.01M80.1 175.8h.01M108.8 319.5h.01M142.5 194.0h.01M232.0 168.0h.01M167.2 318.1h.01M58.1 280.5h.01M121.7 144.2h.01M208.0 215.2h.01M118.8 189.0h.01M202.4 178.7h.01M263.4 170.6h.01M211.4 320.6h.01M247.0 285.9h.01M181.7 255.5h.01M183.2 273.5h.01M283.5 169.5h.01M173.9 322.2h.01M265.5 292.2h.01M68.0 158.0h.01M141.4 277.1h.01M148.8 223.8h.01M186.2 157.1h.01M299.6 206.9h.01M90.7 185.6h.01"/>
<path stroke="#1a1a1a" stroke-width="3.93" stroke-linecap="round" fill="none" d="M201.1 366.1h.01M234.6 325.5h.01M151.6 169.8h.01M141.1 357.4h.01M118.0 340.0h.01M225.0 331.5h.01M195.5 174.6h.01M189.7 330.8h.01M138.2 167.0h.01M146.6 273.4h.01M168.8 371.8h.01M165.4 245.0h.01M158.0 161.8h.01M239.6 301.9h.01M130.3 163.7h.01M217.4 341.6h.01M186.0 359.5h.01M146.3 347.8h.01M166.1 355.6h.01M70.1 269.7h.01M185.1 337.7h.01M155.3 174.7h.01M155.7 396.8h.01M127.0 167.2h.01M159.5 357.0h.01M73.7 288.9h.01M189.1 344.4h.01M175.2 385.5h.01M153.6 365.8h.01M120.3 379.4h.01M156.0 159.1h.01M115.0 361.7h.01M68.0 283.0h.01M151.7 173.5h.01M133.6 358.9h.01M111.6 357.0h.01M245.5 297.3h.01M93.1 323.8h.01M155.1 371.1h.01M153.8 379.2h.01M217.8 336.0h.01M141.4 337.6h.01M205.2 330.1h.01M133.8 388.0h.01M103.1 179.1h.01M175.8 364.5h.01M193.9 263.2h.01M212.8 357.3h.01M162.8 388.6h.01M173.4 335.0h.01M164.9 398.3h.01M265.7 164.6h.01M117.6 348.9h.01M67.3 287.4h.01M181.3 393.6h.01M138.9 337.1h.01M121.1 373.1h.01M147.4 333.6h.01M192.5 357.5h.01M211.9 372.5h.01M118.8 172.5h.01M143.7 190.0h.01M170.9 381.1h.01M121.5 254.1h.01M126.6 337.7h.01M100.6 161.2h.01M196.7 259.9h.01M131.0 331.3h.01M130.5 393.7h.01M179.3 350.1h.01M166.5 277.6h.01M102.5 331.7h.01M171.7 353.2h.01M227.9 330.9h.01M166.3 322.3h.01M166.1 359.3h.01M153.9 273.9h.01M209.1 332.4h.01M81.9 311.6h.01M118.8 352.5h.01M141.6 364.4h.01M70.5 286.3h.01M113.5 167.2h.01M169.3 385.1h.01M173.5 231.0h.01M106.1 342.3h.01M116.6 204.5h.01M130.4 167.1h.01M162.8 321.1h.01M146.7 368.9h.01M225.5 178.0h.01M198.6 343.4h.01M174.8 275.0h.01M109.9 224.4h.01M216.9 358.7h.01M229.4 312.1h.01M111.6 326.6h.01M172.6 340.1h.01M238.4 321.1h.01M178.3 363.9h.01M155.0 161.7h.01M187.0 333.0h.01M105.1 346.4h.01M134.9 327.2h.01M244.5 320.0h.01M113.4 222.9h.01M158.6 345.8h.01M249.0 310.5h.01M111.2 342.6h.01M164.3 374.0h.01M257.5 305.7h.01M151.2 341.2h.01M209.4 375.8h.01M182.0 408.3h.01M153.0 158.0h.01M237.6 317.6h.01M160.7 371.0h.01M101.5 323.2h.01M102.0 229.7h.01M187.5 362.4h.01M135.8 373.6h.01M257.1 167.9h.01M174.0 241.5h.01M197.6 351.1h.01M164.0 235.5h.01M119.6 215.0h.01M113.8 330.4h.01M132.6 356.1h.01M169.0 403.8h.01M127.6 381.1h.01M168.6 399.6h.01M182.2 371.6h.01M243.3 169.1h.01M208.6 357.4h.01M229.4 320.4h.01M174.8 342.7h.01M235.0 321.0h.01M127.8 351.1h.01M72.2 297.4h.01M163.4 371.9h.01M244.2 190.5h.01M198.0 382.7h.01M215.7 333.3h.01M139.3 333.6h.01M144.6 388.1h.01M283.6 222.7h.01M243.4 301.0h.01M160.0 342.8h.01M78.8 166.0h.01M105.4 323.3h.01M252.4 313.5h.01M140.6 391.9h.01M171.1 234.8h.01M246.0 311.8h.01M118.1 359.6h.01M232.3 318.7h.01M85.6 307.0h.01M212.8 334.7h.01M156.1 339.1h.01M93.9 319.2h.01M213.7 340.8h.01M175.1 346.5h.01M178.5 328.3h.01M193.9 351.1h.01M83.3 182.5h.01M102.8 224.3h.01M138.1 229.6h.01M124.5 387.8h.01M201.8 360.4h.01M97.5 178.8h.01M127.3 360.7h.01M207.5 353.5h.01M97.7 239.4h.01M134.5 342.0h.01M114.1 342.9h.01M215.5 326.7h.01M280.7 228.9h.01M129.1 253.8h.01M161.2 167.0h.01M244.5 304.5h.01M167.5 325.2h.01M167.4 235.6h.01M269.4 164.4h.01M137.9 393.6h.01M112.9 184.4h.01M224.4 324.5h.01M251.0 304.5h.01M227.7 323.1h.01M161.1 239.4h.01M118.8 375.9h.01M203.5 326.5h.01M230.1 316.4h.01M99.3 147.2h.01M132.8 160.6h.01M122.2 155.8h.01M181.6 330.1h.01M147.6 159.8h.01M202.5 336.5h.01M84.1 152.8h.01M144.9 375.8h.01M161.0 365.5h.01M174.7 390.5h.01M197.5 360.5h.01M122.8 343.5h.01M187.1 371.6h.01M140.5 389.0h.01M211.9 196.1h.01M198.4 347.4h.01M142.5 227.5h.01M124.5 376.9h.01M149.6 366.6h.01M160.3 349.1h.01M100.5 328.0h.01M183.9 333.1h.01M241.2 297.2h.01M130.1 338.5h.01M156.1 257.7h.01M127.1 347.6h.01M232.6 322.3h.01M156.2 352.5h.01M246.7 318.1h.01M72.5 302.0h.01M171.5 395.5h.01M107.5 165.3h.01M243.3 310.9h.01M175.6 351.8h.01M162.8 227.3h.01M117.2 169.0h.01M149.9 156.9h.01M101.1 165.7h.01M189.6 374.4h.01M162.1 243.1h.01M143.5 361.3h.01M115.4 334.1h.01M155.7 356.5h.01M228.9 179.3h.01M167.3 336.4h.01M184.0 397.1h.01M184.3 388.8h.01M189.4 262.3h.01M152.7 320.6h.01M177.5 335.5h.01M137.9 274.8h.01M209.2 337.9h.01M233.2 313.4h.01M191.3 217.3h.01M108.8 253.5h.01M255.3 297.9h.01M113.6 340.2h.01M147.6 377.0h.01M169.9 172.9h.01M200.0 369.0h.01M161.5 162.5h.01M149.5 374.7h.01M101.0 238.1h.01M152.7 406.3h.01M123.8 334.4h.01M175.2 185.6h.01M166.9 328.3h.01M162.9 355.6h.01M143.9 230.9h.01M147.1 154.6h.01M99.8 181.0h.01M197.4 164.9h.01M177.7 232.7h.01M297.4 201.7h.01M136.5 182.6h.01M116.1 323.7h.01M127.4 364.2h.01M208.2 373.3h.01M150.4 380.2h.01M241.3 306.0h.01M144.3 399.5h.01M82.0 300.6h.01M123.8 370.6h.01M156.8 382.5h.01M246.2 315.0h.01M68.8 296.8h.01M176.1 338.7h.01M96.5 328.5h.01M203.0 363.0h.01M173.2 383.5h.01M160.3 381.7h.01M173.0 227.5h.01M240.6 319.1h.01M180.1 259.1h.01M159.4 335.6h.01M160.1 171.6h.01M219.1 321.9h.01M126.9 206.5h.01M248.0 305.0h.01M160.7 399.4h.01M119.2 165.5h.01M127.0 390.1h.01M174.0 379.0h.01M135.6 224.9h.01M111.2 164.9h.01M162.5 395.0h.01M116.9 366.0h.01M175.0 189.7h.01M97.8 165.3h.01M161.1 280.8h.01M213.5 368.5h.01M200.3 193.8h.01M179.9 332.6h.01M226.0 174.3h.01M130.4 389.6h.01M216.3 338.4h.01M157.5 363.4h.01M147.6 337.7h.01M234.3 329.5h.01M177.6 230.0h.01M193.7 347.3h.01M153.4 402.9h.01M186.4 354.1h.01M106.2 226.4h.01M82.7 163.7h.01M245.7 307.8h.01M183.0 354.7h.01M181.0 365.0h.01M211.8 243.3h.01M144.4 224.7h.01M172.7 387.5h.01M159.5 387.8h.01M120.1 343.4h.01M123.5 166.6h.01M107.5 339.4h.01M77.4 302.0h.01M178.7 401.9h.01M82.6 173.2h.01M158.8 367.9h.01M165.1 348.6h.01M146.3 183.5h.01M192.4 333.9h.01M130.0 377.2h.01M221.1 335.2h.01M113.9 252.2h.01M162.9 277.7h.01M144.7 392.4h.01M157.6 403.6h.01M209.6 361.4h.01M195.7 335.5h.01M179.4 397.3h.01M189.5 355.5h.01M200.0 358.2h.01M163.4 248.0h.01M122.4 163.8h.01M112.3 335.0h.01M185.1 374.8h.01M142.1 166.9h.01M126.8 185.5h.01M174.4 367.9h.01M255.1 309.1h.01M199.8 363.5h.01M173.7 357.9h.01M160.5 391.5h.01M100.3 337.3h.01M109.0 334.0h.01M118.6 252.4h.01M216.6 353.9h.01M149.3 323.0h.01M82.9 315.8h.01M135.0 221.4h.01M232.0 327.2h.01M84.1 157.7h.01M128.5 356.7h.01M169.6 232.3h.01M182.0 230.6h.01M106.1 181.7h.01M159.6 373.8h.01M256.6 301.6h.01M146.5 380.0h.01M125.8 384.9h.01M121.5 203.5h.01M163.9 340.0h.01M190.3 381.6h.01M207.4 195.6h.01M156.5 392.3h.01M220.5 353.8h.01M217.5 363.5h.01M222.5 317.3h.01M77.1 151.0h.01M116.9 255.4h.01M242.9 316.7h.01M172.7 350.2h.01M162.8 407.7h.01M141.0 230.4h.01M138.3 357.0h.01M170.8 362.0h.01M106.8 330.0h.01M197.1 355.9h.01M249.0 308.0h.01M168.3 164.2h.01M167.5 380.5h.01M119.5 335.9h.01M144.6 253.9h.01M148.2 180.5h.01M179.4 359.7h.01M198.8 264.2h.01M177.3 388.6h.01M205.5 359.7h.01M112.2 338.8h.01M87.3 187.4h.01M156.9 348.6h.01M158.9 273.4h.01M222.6 329.7h.01M163.0 359.5h.01M176.7 361.4h.01M279.8 172.4h.01M196.9 373.3h.01M102.7 334.8h.01M209.2 236.5h.01M165.4 239.4h.01M158.0 371.0h.01M180.6 375.6h.01M168.8 366.7h.01M184.9 380.9h.01M158.8 395.5h.01M167.1 374.3h.01M151.8 397.6h.01M83.3 308.7h.01M182.7 351.5h.01M178.7 343.9h.01M237.3 312.8h.01M166.3 370.1h.01M132.4 362.3h.01M213.3 361.7h.01M76.4 156.0h.01M254.0 306.7h.01M136.3 383.0h.01M189.4 326.4h.01M114.3 156.1h.01M148.7 233.8h.01M151.9 411.9h.01M119.4 212.1h.01M111.9 344.9h.01M177.4 348.2h.01M192.4 366.5h.01M149.5 227.3h.01M176.7 331.9h.01M71.3 282.4h.01M125.8 353.5h.01M153.3 164.1h.01M119.7 328.5h.01M155.3 335.1h.01M153.0 233.3h.01M158.0 374.2h.01M150.7 361.3h.01M172.2 237.9h.01M257.7 294.6h.01M133.6 168.5h.01M162.9 363.3h.01M195.0 363.5h.01M93.7 311.1h.01M158.1 407.3h.01M109.9 330.4h.01M137.4 340.1h.01M180.1 340.1h.01M181.1 356.2h.01M250.4 316.6h.01M64.6 283.1h.01M152.4 376.9h.01M111.4 332.9h.01M69.8 294.0h.01M159.6 230.9h.01M170.7 161.8h.01M226.7 334.1h.01M220.3 338.5h.01M188.7 385.8h.01M189.0 340.7h.01M234.6 316.4h.01M212.5 344.0h.01M94.3 198.2h.01M151.8 237.1h.01M208.4 349.6h.01M75.3 299.2h.01M177.3 406.4h.01M273.2 165.9h.01M137.1 389.3h.01M159.3 353.9h.01M106.1 332.7h.01M149.9 408.8h.01M94.4 166.6h.01M140.5 382.7h.01M144.6 396.1h.01M150.3 352.1h.01M181.6 164.1h.01M139.3 377.6h.01M129.4 385.6h.01M204.0 230.4h.01M131.6 327.3h.01M76.3 296.2h.01M117.7 331.8h.01M136.5 350.1h.01M240.5 189.1h.01M109.4 186.3h.01M197.2 324.6h.01M146.4 320.5h.01M105.7 185.7h.01M189.2 336.2h.01M165.2 377.4h.01M182.2 200.5h.01M112.1 353.6h.01M189.5 348.2h.01M170.4 332.4h.01M147.4 230.6h.01M151.6 160.8h.01M149.0 394.8h.01M113.6 162.6h.01M205.4 338.6h.01M107.1 335.9h.01M133.6 252.5h.01M115.5 351.4h.01M103.0 339.8h.01M147.0 363.6h.01M135.7 331.4h.01M161.9 351.7h.01M201.8 345.6h.01M196.5 194.3h.01M155.1 342.9h.01M194.6 210.2h.01M134.4 391.1h.01M131.2 381.9h.01M203.6 342.8h.01M155.2 170.8h.01M172.8 365.1h.01M216.2 349.6h.01M203.9 356.4h.01M222.0 321.7h.01M165.1 169.6h.01M112.6 204.8h.01M153.5 330.2h.01M220.6 349.5h.01M110.8 337.8h.01M226.2 309.0h.01M174.6 175.2h.01M112.6 322.0h.01M227.0 325.7h.01M166.4 344.7h.01M108.6 157.0h.01M75.6 304.7h.01M95.4 315.2h.01M140.7 386.0h.01M158.3 244.4h.01M145.6 329.6h.01M280.0 224.7h.01M166.6 229.8h.01M165.1 165.6h.01M122.1 185.0h.01M140.6 367.7h.01M153.8 382.0h.01M192.6 328.9h.01M170.4 323.1h.01M137.5 347.0h.01M150.7 183.4h.01M222.7 346.0h.01M81.3 304.7h.01M143.3 153.5h.01M130.2 360.0h.01M86.0 313.6h.01M183.2 344.5h.01M200.5 176.1h.01M102.4 235.8h.01M163.5 326.0h.01M229.0 327.8h.01M133.8 164.6h.01M178.8 172.8h.01M123.4 350.4h.01M144.2 228.6h.01M115.7 165.3h.01M64.7 289.3h.01M208.6 379.3h.01M166.0 363.3h.01M173.1 361.7h.01M178.5 386.0h.01M156.3 367.0h.01M117.0 343.0h.01M76.6 171.0h.01M151.7 230.0h.01M148.9 391.4h.01M152.7 240.5h.01M206.5 366.0h.01M171.9 346.3h.01M218.6 332.2h.01M150.8 345.8h.01M178.0 377.8h.01M128.9 369.4h.01M179.1 383.5h.01M141.0 354.0h.01M242.7 185.4h.01M152.8 373.6h.01M138.0 162.3h.01M115.5 340.0h.01M134.7 376.7h.01M140.8 345.3h.01M230.6 209.2h.01M209.9 171.9h.01M170.9 368.7h.01M136.2 362.0h.01M129.7 182.5h.01M136.0 199.5h.01M182.5 385.2h.01M151.5 334.5h.01M199.1 335.1h.01M130.0 345.0h.01M175.4 400.7h.01M171.9 245.0h.01M82.9 167.7h.01M195.8 327.5h.01M152.6 384.8h.01M184.4 341.4h.01M191.3 363.1h.01M239.5 193.6h.01M143.5 346.3h.01M143.7 334.0h.01M174.4 234.4h.01M175.4 396.7h.01M148.3 387.5h.01M131.2 249.8h.01M221.5 341.3h.01M88.1 310.2h.01M168.0 340.8h.01M192.2 370.6h.01M174.1 330.2h.01M119.2 356.0h.01M109.4 323.4h.01M106.6 221.7h.01M103.0 182.5h.01M210.4 365.3h.01M79.8 297.8h.01M151.7 338.0h.01M131.5 373.0h.01M155.7 373.9h.01M197.9 366.9h.01M224.5 342.5h.01M142.1 375.6h.01M127.6 327.1h.01M129.9 323.1h.01M102.5 233.0h.01M124.5 340.5h.01M176.4 237.8h.01M193.1 339.0h.01M160.7 257.5h.01M175.5 359.5h.01M152.1 358.4h.01M198.4 173.6h.01M66.5 279.5h.01M92.1 328.1h.01M214.9 365.5h.01M127.2 373.4h.01M212.7 325.6h.01M209.0 177.1h.01M228.8 333.4h.01M174.4 371.4h.01M115.5 357.6h.01M93.3 202.9h.01M178.5 240.7h.01M191.4 208.6h.01M186.3 402.3h.01M183.2 360.8h.01M157.4 331.6h.01M182.0 405.0h.01M167.4 243.1h.01M115.9 327.2h.01M127.8 341.5h.01M177.4 158.6h.01M174.8 181.1h.01M150.2 327.4h.01M140.8 169.5h.01M113.3 349.1h.01M149.9 384.0h.01M160.0 247.8h.01M157.7 277.7h.01M222.5 327.2h.01M133.8 367.8h.01M142.7 379.5h.01M122.5 337.4h.01M107.7 146.8h.01M97.5 324.0h.01M218.1 328.9h.01M125.2 345.2h.01M112.7 171.6h.01M81.5 161.1h.01M205.0 349.0h.01M209.6 328.5h.01M73.1 293.5h.01M115.2 354.5h.01M126.5 163.8h.01M142.9 326.7h.01M240.8 314.2h.01M169.7 228.4h.01M191.0 212.5h.01M173.0 259.3h.01M163.5 380.5h.01M138.2 369.9h.01M133.5 339.4h.01M153.5 277.1h.01M159.6 360.4h.01M185.5 347.3h.01M199.7 328.8h.01M248.3 299.4h.01M203.6 194.7h.01M146.3 402.9h.01M169.3 348.3h.01M162.7 345.1h.01M178.7 168.4h.01M80.6 157.4h.01M186.5 350.8h.01M219.3 318.7h.01M70.5 278.6h.01M131.0 204.2h.01M204.6 176.1h.01M216.9 323.4h.01M202.0 379.1h.01M240.0 309.7h.01M120.8 348.0h.01M152.3 363.5h.01M145.5 342.7h.01M213.2 330.3h.01M153.1 393.2h.01M138.3 327.7h.01M194.9 367.7h.01M144.0 383.5h.01M147.0 383.5h.01M139.4 373.6h.01M211.9 353.1h.01M247.3 302.1h.01M123.7 347.0h.01M152.4 354.6h.01M144.3 366.9h.01M135.8 160.5h.01M177.7 161.9h.01M159.8 324.2h.01M133.4 184.3h.01M150.2 370.5h.01M153.9 350.4h.01M210.3 323.8h.01M205.5 377.0h.01M175.2 354.9h.01M125.1 367.5h.01M157.2 168.3h.01M80.2 170.8h.01M206.6 173.6h.01M165.7 389.6h.01M169.9 168.2h.01M90.3 314.5h.01M156.9 237.9h.01M197.0 353.5h.01M123.7 381.7h.01M165.8 406.0h.01M150.5 349.0h.01M146.3 351.2h.01M67.3 291.6h.01M107.6 326.6h.01M123.6 327.9h.01M113.1 258.5h.01M148.5 171.6h.01M165.9 393.1h.01M110.2 351.2h.01M126.9 210.0h.01M162.1 384.6h.01M247.7 183.5h.01M141.4 222.7h.01M190.8 168.8h.01M137.3 379.9h.01M84.5 303.3h.01M116.9 337.1h.01M98.4 231.6h.01M171.9 376.4h.01M166.0 281.3h.01M242.4 322.6h.01M161.3 403.8h.01M154.7 388.4h.01M183.6 377.9h.01M206.9 341.6h.01M121.0 149.0h.01M104.1 327.7h.01M170.3 343.5h.01M132.4 349.8h.01M188.9 378.2h.01M188.4 365.6h.01M138.4 177.7h.01M136.9 359.1h.01M140.6 399.9h.01M173.0 405.1h.01M126.1 331.1h.01M246.2 186.3h.01M180.7 362.1h.01M102.3 200.6h.01M177.9 366.9h.01M157.8 379.5h.01M153.3 324.9h.01M133.6 346.9h.01M140.1 164.4h.01M180.2 390.1h.01M148.4 355.6h.01M165.6 366.6h.01M135.9 355.7h.01M149.5 330.6h.01M186.3 172.6h.01M138.2 353.5h.01M162.1 375.9h.01M179.7 357.3h.01M194.0 166.6h.01M217.9 174.4h.01M115.1 219.3h.01M165.2 256.4h.01M124.0 364.5h.01M170.4 328.1h.01M215.6 345.4h.01M141.5 255.0h.01M98.9 332.9h.01M163.5 335.7h.01M194.0 343.4h.01M201.8 349.2h.01M169.1 376.6h.01M104.7 337.3h.01M123.4 208.3h.01M169.7 364.1h.01M80.2 153.4h.01M161.5 373.5h.01M222.2 175.9h.01M89.6 195.5h.01M255.0 312.1h.01M170.5 359.2h.01M157.4 376.1h.01M262.2 167.6h.01M134.1 334.9h.01M154.2 346.5h.01M132.9 385.2h.01M185.8 392.6h.01M164.9 352.4h.01M207.8 335.5h.01M189.5 368.6h.01M175.8 227.6h.01M80.2 293.5h.01M153.0 166.8h.01M78.9 305.9h.01M96.0 332.4h.01M186.5 383.8h.01M200.4 371.9h.01M197.1 364.4h.01M177.3 356.6h.01M70.4 290.4h.01M215.9 252.1h.01M117.4 162.5h.01M108.5 344.5h.01M171.7 355.8h.01M212.1 348.5h.01M120.9 360.1h.01M212.8 175.2h.01M201.2 339.8h.01M136.8 164.7h.01M120.6 168.5h.01M203.5 352.7h.01M149.4 275.8h.01M190.5 351.5h.01M230.6 324.4h.01M109.5 229.0h.01M142.6 371.4h.01M204.8 334.2h.01M224.0 338.2h.01M200.0 351.8h.01M156.8 327.2h.01M184.5 364.7h.01M169.5 240.5h.01M115.0 215.5h.01M248.1 289.8h.01M170.5 278.5h.01M224.0 335.0h.01M125.3 323.4h.01M188.5 389.4h.01M192.5 386.5h.01M163.7 231.7h.01M181.9 159.1h.01M134.0 365.0h.01M180.6 380.6h.01M109.8 168.2h.01M167.9 395.7h.01M193.5 360.6h.01M164.2 330.2h.01M155.8 385.7h.01M266.6 168.4h.01M259.4 165.4h.01M178.1 192.5h.01M140.9 226.2h.01M100.7 178.0h.01M134.5 394.1h.01M249.0 313.2h.01M160.6 235.3h.01M176.9 370.1h.01M124.1 360.9h.01M181.5 347.5h.01M137.4 397.4h.01M105.3 229.7h.01M147.5 359.5h.01M170.5 337.3h.01M203.5 369.2h.01M83.7 186.9h.01M165.7 161.4h.01M132.1 226.4h.01M126.7 343.9h.01M131.1 335.2h.01M200.2 355.0h.01M259.5 299.0h.01M148.3 405.7h.01M203.5 366.0h.01M169.1 257.8h.01M206.6 345.6h.01M196.0 331.5h.01M251.9 308.8h.01M176.6 381.4h.01M162.7 368.8h.01M133.4 344.3h.01M131.0 342.0h.01M150.1 401.2h.01M193.5 377.7h.01M134.3 352.7h.01M184.5 260.5h.01M207.1 369.3h.01M113.9 346.2h.01M124.7 356.1h.01M110.0 347.8h.01M214.1 322.7h.01M179.3 353.3h.01M136.2 336.9h.01M146.5 372.3h.01M225.9 328.1h.01M206.2 264.3h.01M169.2 389.4h.01M192.1 175.5h.01M79.4 309.0h.01M151.9 388.7h.01M240.3 196.7h.01M155.6 360.4h.01M127.7 334.5h.01M137.5 169.4h.01M216.2 247.5h.01M237.6 323.9h.01M254.2 303.8h.01M159.0 385.0h.01M164.7 402.3h.01M168.5 352.3h.01M146.2 227.3h.01M174.4 326.5h.01M130.6 353.4h.01M218.0 178.0h.01M121.9 357.7h.01M252.0 300.5h.01M193.5 354.1h.01M92.8 183.4h.01M160.5 328.7h.01M155.9 229.1h.01M219.3 345.1h.01M212.2 337.7h.01M138.7 225.4h.01M295.4 210.6h.01M144.4 338.9h.01M142.5 403.6h.01M110.2 341.0h.01M179.5 369.5h.01M109.7 170.9h.01M140.6 324.3h.01M155.7 377.6h.01M111.4 219.8h.01M141.2 341.6h.01M88.9 319.1h.01M178.9 235.3h.01M130.4 365.8h.01M114.3 337.0h.01M144.4 353.7h.01M137.6 365.0h.01M181.8 233.9h.01M118.8 363.2h.01M63.3 286.2h.01M104.2 166.4h.01M193.6 373.7h.01M171.1 392.0h.01M227.0 336.9h.01M257.9 309.4h.01M181.8 367.9h.01M175.4 375.4h.01M160.3 377.7h.01M157.0 389.3h.01M222.6 171.2h.01M172.0 400.0h.01M184.7 357.2h.01M132.3 222.7h.01M194.5 215.0h.01M135.7 228.1h.01M145.5 221.5h.01M141.2 330.2h.01M209.6 345.4h.01M146.5 325.7h.01M248.5 293.4h.01M107.1 348.5h.01M150.6 176.9h.01M136.6 385.9h.01M112.1 255.4h.01M261.3 305.9h.01M210.1 369.4h.01M231.0 330.8h.01M98.7 235.3h.01M191.9 186.8h.01M117.5 346.0h.01M119.2 369.4h.01M182.5 401.4h.01M114.3 170.0h.01M225.3 320.5h.01M98.7 319.3h.01M137.4 343.6h.01M180.9 237.5h.01M196.6 370.1h.01M133.7 380.1h.01M206.4 363.1h.01M147.4 187.4h.01M125.0 358.5h.01M125.0 252.7h.01M69.2 274.8h.01M154.6 409.2h.01M161.4 332.4h.01M178.0 373.2h.01M144.4 357.4h.01M189.4 359.4h.01M111.3 174.2h.01M195.6 357.8h.01M177.3 165.3h.01M220.1 360.9h.01M139.7 360.7h.01M121.0 340.0h.01M130.0 348.2h.01M174.2 170.1h.01M209.9 341.4h.01M157.5 165.0h.01M115.4 173.9h.01M156.9 241.4h.01M149.9 163.6h.01M156.1 400.1h.01M121.4 331.9h.01M181.5 336.3h.01M201.4 332.1h.01M140.9 350.1h.01M134.5 370.5h.01M166.4 332.6h.01M120.8 366.4h.01M159.9 339.5h.01M221.9 332.1h.01M138.0 153.4h.01M141.3 395.3h.01M168.8 356.5h.01M185.3 324.0h.01M197.5 339.5h.01M121.9 362.9h.01M173.5 165.0h.01M144.3 157.5h.01M76.4 292.2h.01M176.4 393.5h.01M121.9 353.6h.01M226.6 316.8h.01M165.6 384.9h.01M148.4 343.6h.01M156.6 234.3h.01M193.5 190.7h.01M185.5 233.2h.01M202.1 172.2h.01M168.0 361.5h.01M147.7 398.1h.01M196.0 349.5h.01M219.8 325.4h.01M109.7 336.7h.01M102.8 343.0h.01M144.5 161.5h.01M185.3 368.5h.01M153.2 369.2h.01M171.7 372.7h.01"/>
</svg>