<svg xmlns="http://www.w3.org/2000/svg" viewBox="0 0 360 432" role="img">
<path stroke="#1a1a1a" stroke-width="1.43" stroke-linecap="round" fill="none" d="M185.7 47.2h.01M71.9 270.2h.01M84.3 278.0h.01M280.7 295.6h.01M282.5 239.1h.01M262.0 379.5h.01M59.8 284.2h.01M51.2 289.6h.01M271.6 407.2h.01M50.7 274.9h.01M262.3 387.4h.01M66.4 401.3h.01M357.9 292.1h.01M326.9 366.9h.01M158.1 67.0h.01M311.3 272.7h.01M257.2 325.0h.01M295.7 262.5h.01M303.7 392.4h.01M266.0 423.2h.01M308.7 285.5h.01M105.0 388.0h.01M270.1 382.7h.01M53.3 382.7h.01M54.4 363.0h.01M358.6 102.0h.01M143.0 428.5h.01M245.0 156.7h.01M254.7 217.6h.01M301.7 279.4h.01M141.5 73.2h.01M45.2 317.7h.01M127.0 419.2h.01M3.4 304.0h.01M75.8 394.2h.01M44.2 372.4h.01M40.3 347.3h.01M301.1 291.2h.01M67.3 383.9h.01M358.2 267.6h.01M12.4 325.9h.01M319.3 379.8h.01M273.9 415.1h.01M246.9 428.0h.01M135.5 423.0h.01M27.9 345.7h.01M43.8 296.2h.01M237.7 158.4h.01M35.2 300.7h.01M133.4 402.4h.01M306.5 264.8h.01M93.7 417.2h.01M296.2 396.3h.01M25.6 306.6h.01M166.3 60.5h.01M78.5 263.2h.01M243.2 387.7h.01M104.9 405.3h.01M92.9 368.7h.01M148.9 59.0h.01M260.0 373.1h.01M72.6 343.7h.01M256.0 426.9h.01M0.4 102.8h.01M131.5 390.4h.01M106.3 414.4h.01M200.9 55.4h.01M141.0 407.6h.01M79.4 384.1h.01M130.5 428.4h.01M85.5 377.7h.01M59.2 392.8h.01M114.8 407.3h.01M281.7 317.9h.01M121.2 395.8h.01M345.2 322.2h.01M106.4 426.8h.01M62.9 361.0h.01M326.3 306.9h.01M275.9 368.0h.01M332.8 342.0h.01M234.6 134.6h.01M256.8 391.4h.01M330.3 313.7h.01M232.3 114.3h.01M275.8 376.5h.01M87.6 389.6h.01M164.0 47.5h.01M322.3 298.5h.01M95.8 384.3h.01M331.5 360.2h.01M285.3 405.5h.01M88.9 272.1h.01M97.1 395.5h.01M89.2 361.6h.01M69.6 281.0h.01M298.3 272.9h.01M332.8 353.0h.01M147.3 79.2h.01M71.7 362.6h.01M17.4 315.1h.01M275.1 288.7h.01M337.6 325.6h.01M265.4 412.6h.01M68.3 370.0h.01M301.0 255.7h.01M323.2 316.3h.01M290.5 312.3h.01M18.9 336.7h.01M307.3 381.2h.01M260.8 418.1h.01M316.2 291.1h.01M155.3 428.7h.01M245.2 381.6h.01M252.5 384.2h.01M268.8 372.8h.01M120.5 427.4h.01M139.3 416.3h.01M337.7 335.6h.01M315.2 304.0h.01M67.5 351.9h.01M344.7 333.1h.01M285.2 246.2h.01M115.9 418.0h.01M312.0 386.9h.01M75.4 375.9h.01M278.4 277.9h.01M248.6 391.9h.01M340.7 345.0h.01M282.1 370.4h.01M96.6 375.2h.01M189.6 266.2h.01M107.4 397.2h.01M124.6 388.1h.01M184.3 59.4h.01M290.8 252.7h.01M150.4 421.1h.01M94.2 406.2h.01M46.5 357.0h.01M59.0 373.2h.01M78.2 409.0h.01M301.5 385.1h.01M86.0 399.1h.01M331.9 330.7h.01M308.0 297.3h.01M80.2 368.1h.01M202.5 46.2h.01M158.0 56.5h.01M22.7 325.3h.01M128.0 397.2h.01M237.5 120.6h.01M30.0 333.1h.01M63.8 274.4h.01M142.5 64.0h.01M156.5 49.6h.01M0.4 283.3h.01M77.8 357.5h.01M151.8 72.4h.01M253.3 376.8h.01M51.2 324.0h.01M33.0 359.5h.01"/>
<path stroke="#1a1a1a" stroke-width="1.91" stroke-linecap="round" fill="none" d="M265.9 257.3h.01M293.6 279.8h.01M223.4 423.3h.01M174.3 418.1h.01M224.6 159.0h.01M142.8 215.6h.01M176.8 138.2h.01M246.5 376.5h.01M58.3 311.8h.01M137.1 368.8h.01M204.2 136.0h.01M97.2 298.2h.01M82.5 300.4h.01M65.2 325.2h.01M171.8 398.5h.01M321.2 372.1h.01M0.4 206.5h.01M209.0 234.0h.01M205.7 81.8h.01M202.2 284.5h.01M289.8 380.9h.01M216.0 53.8h.01M264.2 335.6h.01M235.9 208.7h.01M213.6 148.2h.01M219.1 277.7h.01M137.6 376.3h.01M266.9 227.5h.01M189.3 409.3h.01M178.7 85.6h.01M123.7 404.5h.01M240.8 150.3h.01M250.6 229.7h.01M69.5 288.0h.01M140.2 82.0h.01M212.2 141.7h.01M119.8 71.1h.01M238.4 393.6h.01M251.8 316.4h.01M236.9 291.3h.01M228.3 80.2h.01M264.1 368.1h.01M284.9 311.4h.01M358.6 131.3h.01M317.0 349.6h.01M99.8 363.7h.01M300.4 378.0h.01M212.2 134.5h.01M186.3 111.8h.01M213.3 126.2h.01M237.8 382.8h.01M305.0 374.3h.01M164.7 109.1h.01M239.8 214.8h.01M227.2 92.9h.01M80.7 270.1h.01M180.0 428.7h.01M0.4 221.9h.01M210.5 214.9h.01M227.4 234.3h.01M128.2 77.4h.01M273.2 335.5h.01M272.3 217.7h.01M267.7 345.9h.01M206.0 128.7h.01M185.8 417.3h.01M231.8 154.7h.01M209.3 72.3h.01M209.9 425.1h.01M201.6 227.8h.01M207.7 153.9h.01M92.3 277.9h.01M207.6 148.4h.01M164.4 414.6h.01M235.4 266.3h.01M329.6 347.4h.01M104.1 339.1h.01M324.2 342.3h.01M190.2 142.5h.01M270.3 196.9h.01M131.0 411.6h.01M246.6 179.7h.01M260.1 196.8h.01M135.8 60.9h.01M236.6 399.1h.01M193.6 252.0h.01M270.6 273.1h.01M243.0 103.6h.01M210.0 288.8h.01M165.0 396.4h.01M217.3 84.5h.01M268.2 285.1h.01M221.2 104.8h.01M203.3 162.6h.01M257.0 149.2h.01M218.5 158.6h.01M313.0 324.5h.01M0.4 236.4h.01M247.3 281.9h.01M0.4 172.1h.01M179.1 288.0h.01M310.5 317.4h.01M276.7 323.0h.01M177.9 151.3h.01M242.3 174.5h.01M117.2 375.8h.01M216.8 258.9h.01M262.6 232.8h.01M323.1 354.2h.01M190.8 157.7h.01M262.9 153.0h.01M184.9 128.7h.01M77.8 304.8h.01M243.6 132.3h.01M219.4 152.0h.01M220.0 60.5h.01M292.7 306.6h.01M358.6 245.7h.01M197.6 300.4h.01M31.6 325.0h.01M288.6 374.8h.01M283.4 228.1h.01M213.4 162.2h.01M207.1 76.7h.01M109.4 365.8h.01M195.8 107.2h.01M240.2 192.6h.01M246.1 145.6h.01M321.4 285.5h.01M258.2 263.3h.01M80.7 125.4h.01M212.4 250.4h.01M240.4 403.8h.01M281.8 196.6h.01M168.7 290.6h.01M263.1 158.0h.01M199.5 142.3h.01M189.1 307.6h.01M229.3 128.1h.01M256.4 228.4h.01M82.5 285.7h.01M289.8 387.6h.01M208.3 112.6h.01M215.3 91.4h.01M165.9 153.5h.01M265.9 246.3h.01M227.8 100.5h.01M209.7 56.0h.01M131.3 368.0h.01M213.3 244.0h.01M132.9 262.4h.01M183.0 134.3h.01M78.5 293.4h.01M215.8 74.8h.01M237.5 127.9h.01M220.1 130.9h.01M172.3 119.0h.01M170.2 108.9h.01M202.8 200.8h.01M170.4 138.6h.01M261.1 223.9h.01M211.0 220.3h.01M75.6 286.6h.01M82.2 319.3h.01M335.7 311.0h.01M296.7 315.9h.01M234.7 78.7h.01M139.7 221.5h.01M173.2 104.3h.01M184.4 154.7h.01M210.9 420.8h.01M232.8 423.7h.01M170.4 76.0h.01M291.1 269.9h.01M212.7 78.8h.01M178.2 100.1h.01M160.8 75.9h.01M257.5 329.9h.01M275.1 313.6h.01M243.4 115.5h.01M187.3 123.8h.01M35.3 312.8h.01M200.7 112.1h.01M140.3 372.7h.01M182.8 146.3h.01M219.9 78.8h.01M86.3 263.6h.01M243.0 331.4h.01M285.9 257.2h.01M151.1 380.1h.01M206.8 196.2h.01M205.9 261.4h.01M208.1 88.9h.01M203.6 93.4h.01M217.8 266.6h.01M68.4 164.3h.01M269.2 235.2h.01M180.9 66.5h.01M260.1 143.8h.01M295.3 381.5h.01M184.4 87.9h.01M214.8 204.3h.01M198.4 159.4h.01M168.6 126.1h.01M263.4 133.7h.01M258.5 178.1h.01M104.7 378.8h.01M199.2 223.4h.01M94.0 265.6h.01M172.1 132.2h.01M247.2 420.7h.01M195.1 137.9h.01M178.0 106.6h.01M264.7 312.0h.01M224.6 270.4h.01M242.0 286.5h.01M42.3 308.7h.01M92.1 333.9h.01M288.4 263.9h.01M187.7 251.2h.01M221.1 71.8h.01M61.7 299.1h.01M183.3 99.0h.01M212.7 260.7h.01M220.9 211.3h.01M209.7 43.4h.01M250.9 403.2h.01M64.6 317.8h.01M251.9 267.6h.01M58.1 343.5h.01M329.1 298.4h.01M273.1 345.8h.01M223.7 113.2h.01M316.4 355.3h.01M289.3 318.8h.01M273.9 296.3h.01M262.7 239.7h.01M108.3 332.3h.01M289.8 182.7h.01M192.3 95.3h.01M246.3 109.3h.01M134.3 375.4h.01M128.0 0.4h.01M141.2 383.7h.01M176.6 410.0h.01M268.4 212.7h.01M180.7 111.7h.01M110.3 338.8h.01M178.0 130.9h.01M358.6 203.5h.01M162.3 188.3h.01M186.4 428.7h.01M244.6 123.9h.01M195.0 147.0h.01M211.9 84.6h.01M247.5 261.8h.01M245.1 268.2h.01M246.2 298.4h.01M66.1 340.7h.01M195.8 268.2h.01M66.3 305.7h.01M242.1 422.8h.01M249.9 211.4h.01M246.6 200.9h.01M230.4 270.7h.01M301.1 321.4h.01M123.5 355.8h.01M305.0 306.8h.01M268.7 337.1h.01M259.5 246.5h.01M323.4 331.4h.01M254.2 276.3h.01M272.3 223.2h.01M276.4 301.5h.01M198.9 62.6h.01M279.5 305.4h.01M256.8 124.0h.01M200.0 118.2h.01M201.7 207.3h.01M223.6 292.6h.01M199.2 424.0h.01M214.6 210.6h.01M301.1 311.4h.01M295.6 388.3h.01M128.0 70.4h.01M272.3 247.6h.01M269.5 355.0h.01M46.2 337.0h.01M139.3 263.6h.01M263.1 268.2h.01M146.8 267.3h.01M172.7 404.9h.01M257.8 113.4h.01M298.5 285.1h.01M226.6 136.1h.01M227.0 247.3h.01M168.9 173.5h.01M189.5 258.8h.01M167.9 420.9h.01M197.2 154.0h.01M179.6 405.2h.01M28.0 317.0h.01M185.7 117.7h.01M187.6 422.6h.01M259.5 76.8h.01M138.9 394.9h.01M77.4 312.0h.01M250.0 151.3h.01M175.6 36.9h.01M256.9 131.1h.01M130.7 363.0h.01M358.6 181.0h.01M213.3 154.8h.01M175.2 70.7h.01M216.1 110.7h.01M268.7 364.9h.01M123.6 74.7h.01M134.4 371.5h.01M124.1 361.2h.01M86.1 257.5h.01M288.0 362.9h.01M166.7 133.6h.01M358.6 157.3h.01M289.1 395.7h.01M235.7 177.9h.01M237.5 0.4h.01M320.7 365.1h.01M190.2 271.1h.01M296.4 246.1h.01M177.9 157.0h.01M225.6 276.4h.01M227.7 120.5h.01M211.8 227.2h.01M113.0 349.8h.01M117.8 77.2h.01M110.5 328.0h.01M203.4 290.7h.01M201.6 268.8h.01M83.2 156.1h.01M129.2 62.2h.01M251.7 205.5h.01M281.9 214.8h.01M87.4 324.7h.01M192.3 59.7h.01M167.1 68.6h.01M237.8 428.8h.01M92.2 313.9h.01M252.8 143.1h.01M86.5 336.9h.01M189.7 107.1h.01M268.4 292.8h.01M250.8 119.1h.01M257.3 210.5h.01M285.1 325.3h.01M57.4 319.3h.01M53.6 298.8h.01M142.4 399.9h.01M325.4 359.9h.01M149.1 52.3h.01M208.0 159.1h.01M202.6 105.5h.01M265.7 194.6h.01M145.3 395.3h.01M167.0 103.0h.01M317.2 319.5h.01M31.9 288.6h.01M208.4 203.4h.01M228.3 421.1h.01M209.0 283.6h.01M79.9 325.7h.01M112.4 382.3h.01M327.5 326.6h.01M118.1 353.9h.01M258.8 118.3h.01M97.0 356.6h.01M64.6 311.3h.01M204.7 420.9h.01M134.1 79.8h.01M318.0 343.5h.01M208.1 209.4h.01M229.2 107.2h.01M144.1 260.1h.01M238.0 108.8h.01M201.6 274.2h.01M229.7 289.2h.01M221.6 96.8h.01M199.1 79.8h.01M288.1 190.5h.01M193.0 312.7h.01M240.0 141.0h.01M245.7 194.5h.01M198.3 132.0h.01M186.8 93.8h.01M225.2 315.2h.01M101.0 311.9h.01M57.3 353.3h.01M198.5 414.4h.01M213.7 61.1h.01M219.3 144.8h.01M210.1 66.5h.01M200.0 124.8h.01M157.9 170.9h.01M271.1 254.5h.01M150.9 396.9h.01M38.6 336.5h.01M174.4 112.3h.01M238.6 85.4h.01M261.8 128.2h.01M250.9 126.2h.01M204.2 428.1h.01M0.4 129.7h.01M76.6 278.3h.01M254.4 199.3h.01M325.5 336.3h.01M226.3 144.3h.01M37.8 320.5h.01M192.8 304.0h.01M202.8 156.1h.01M221.1 123.7h.01M233.4 214.2h.01M155.5 81.2h.01M194.6 67.6h.01M227.7 86.8h.01M193.1 127.4h.01M207.7 273.7h.01M184.0 262.6h.01M231.2 263.1h.01M196.9 91.3h.01M265.6 272.7h.01M329.9 336.2h.01M215.1 69.9h.01M183.7 105.5h.01M188.1 149.1h.01M134.9 250.4h.01M189.9 133.9h.01M264.1 207.8h.01M244.1 398.6h.01M102.2 352.0h.01M267.9 188.4h.01M278.4 382.7h.01M257.1 137.8h.01M269.7 261.9h.01M234.0 148.0h.01M205.7 61.8h.01M192.5 428.7h.01M232.9 140.9h.01M263.9 325.9h.01M162.4 173.3h.01M299.1 298.4h.01M323.2 322.0h.01M246.6 405.1h.01M59.0 292.4h.01M69.4 182.9h.01M207.6 120.3h.01M215.9 99.6h.01M211.0 105.0h.01M174.1 424.2h.01M133.6 73.3h.01M330.5 321.0h.01M92.6 341.0h.01M235.1 102.4h.01M215.5 47.0h.01M317.0 279.7h.01M114.7 343.4h.01M37.9 328.6h.01M145.0 204.3h.01M210.9 415.8h.01M195.6 85.1h.01M188.2 66.8h.01M279.9 310.1h.01M260.2 275.9h.01M121.9 412.2h.01M210.5 95.6h.01M228.9 207.3h.01M89.4 353.8h.01M70.4 319.7h.01M217.7 223.7h.01M202.4 68.6h.01M264.0 148.5h.01M187.9 101.1h.01M261.9 215.3h.01M50.3 346.4h.01M209.6 429.7h.01M204.8 189.8h.01M0.4 250.8h.01M258.1 155.6h.01M230.8 300.5h.01M103.0 370.2h.01M266.0 220.0h.01M0.4 152.3h.01M203.6 176.0h.01M219.6 271.8h.01M176.7 144.6h.01M186.1 288.6h.01M212.7 278.9h.01M319.6 326.6h.01M255.7 252.7h.01M105.7 358.9h.01M171.1 285.7h.01M93.9 321.1h.01M158.9 387.5h.01M110.4 373.6h.01M191.8 80.0h.01M118.3 387.7h.01M257.3 270.2h.01M179.7 93.2h.01M112.8 390.8h.01M240.3 204.2h.01M263.9 251.7h.01M202.3 74.4h.01M72.1 306.0h.01M212.5 319.7h.01M287.8 305.2h.01M0.4 190.0h.01M283.7 304.0h.01M208.3 164.3h.01M69.2 331.5h.01M180.9 422.2h.01M218.3 66.0h.01M264.3 318.7h.01M186.9 274.9h.01M166.0 0.4h.01M240.3 98.0h.01M229.2 428.7h.01M234.7 284.0h.01M285.0 383.2h.01M89.9 282.9h.01M184.8 80.7h.01M296.3 309.3h.01M250.6 398.0h.01M221.3 90.1h.01M238.0 378.5h.01M190.2 87.5h.01M174.3 62.1h.01M198.6 429.0h.01M274.2 0.4h.01M287.5 281.5h.01M245.1 80.7h.01M251.7 176.3h.01M196.6 73.7h.01M233.0 83.7h.01M200.4 194.6h.01M174.5 125.7h.01M153.5 173.9h.01M225.6 151.6h.01M325.0 292.3h.01M212.3 294.5h.01M62.9 264.7h.01M180.2 123.8h.01M156.8 190.7h.01M193.8 101.4h.01M171.7 151.0h.01M198.2 179.4h.01M259.1 319.2h.01M225.8 283.0h.01M61.5 335.0h.01M221.8 245.3h.01M259.1 204.0h.01M202.7 183.0h.01M219.5 138.1h.01M251.4 113.3h.01M161.5 392.1h.01M53.2 335.0h.01M212.6 168.3h.01M244.6 309.7h.01M259.6 257.0h.01M89.8 347.1h.01M199.1 98.5h.01M137.4 67.2h.01M251.0 133.4h.01M270.0 183.4h.01M179.1 117.6h.01M291.3 239.6h.01M84.9 313.6h.01M192.8 113.4h.01M241.2 303.5h.01M172.4 429.1h.01M85.2 292.8h.01M249.4 223.3h.01M233.3 95.8h.01M201.3 218.3h.01M123.3 82.1h.01M90.4 288.3h.01M273.5 351.4h.01M141.9 377.8h.01M221.9 429.0h.01M252.4 322.6h.01M122.2 379.9h.01M45.3 328.2h.01M270.7 302.8h.01M243.7 208.6h.01M246.8 139.0h.01M270.0 316.2h.01M213.3 271.6h.01M151.3 86.0h.01M270.2 324.3h.01M167.5 114.7h.01M272.6 341.1h.01M247.9 274.8h.01M193.4 422.4h.01M215.3 429.0h.01M206.8 252.0h.01M294.5 375.1h.01M141.9 271.7h.01M201.4 149.0h.01M197.1 175.2h.01M165.4 120.6h.01M253.3 259.5h.01M208.6 50.1h.01M233.4 277.4h.01M178.6 308.9h.01M115.8 399.5h.01M80.6 333.8h.01M272.9 229.9h.01M332.5 304.7h.01M195.1 411.1h.01M205.7 142.6h.01M299.0 371.3h.01M139.9 255.5h.01M85.9 330.3h.01M323.1 348.3h.01M206.5 228.9h.01M276.3 361.1h.01M221.8 49.1h.01M237.1 297.8h.01M165.3 427.8h.01M217.5 284.8h.01M192.9 119.9h.01M241.7 408.9h.01M48.9 304.7h.01M215.7 118.2h.01M320.1 359.7h.01M132.7 256.3h.01M38.3 284.3h.01M199.2 165.6h.01M231.8 246.5h.01M88.1 0.4h.01M83.2 308.0h.01M58.2 305.2h.01M253.8 419.0h.01M226.7 265.2h.01M155.1 384.9h.01M170.3 144.6h.01M201.8 86.6h.01M224.7 75.8h.01M124.4 66.6h.01M89.3 306.9h.01M99.1 325.7h.01M229.9 178.3h.01M205.7 222.2h.01M283.2 378.3h.01M273.8 357.3h.01M207.9 184.8h.01M192.2 152.9h.01M246.2 216.5h.01M148.6 412.6h.01M204.7 214.6h.01M358.6 225.0h.01M316.7 313.6h.01M57.8 328.0h.01M96.2 348.6h.01M223.3 83.6h.01M150.6 170.1h.01M51.0 312.9h.01M202.0 0.4h.01M184.4 139.7h.01M135.5 267.9h.01M91.7 294.2h.01M84.8 343.1h.01M0.4 266.2h.01M206.0 99.9h.01M141.8 56.7h.01M83.8 149.1h.01M313.6 380.7h.01M25.1 292.6h.01M235.8 388.1h.01M256.1 192.1h.01M85.4 235.1h.01"/>
<path stroke="#1a1a1a" stroke-width="2.38" stroke-linecap="round" fill="none" d="M151.7 307.9h.01M173.6 165.0h.01M284.0 190.6h.01M248.7 371.9h.01M279.6 192.3h.01M214.8 237.2h.01M169.0 303.0h.01M176.7 162.0h.01M164.1 299.8h.01M172.7 83.4h.01M256.5 80.4h.01M156.7 268.7h.01M202.0 249.4h.01M150.0 385.1h.01M228.8 309.9h.01M196.9 261.1h.01M156.0 154.4h.01M228.2 325.9h.01M79.7 179.1h.01M107.4 262.9h.01M277.7 105.4h.01M124.3 264.4h.01M127.1 88.7h.01M128.3 221.9h.01M225.2 195.2h.01M106.5 219.2h.01M232.4 412.5h.01M175.1 313.9h.01M280.3 135.6h.01M219.9 228.9h.01M151.5 111.8h.01M183.4 411.2h.01M82.4 190.8h.01M88.5 319.0h.01M159.2 138.8h.01M160.2 150.9h.01M155.8 284.1h.01M122.6 249.8h.01M261.8 342.3h.01M228.1 70.1h.01M152.6 214.5h.01M244.6 74.6h.01M91.7 125.0h.01M229.9 317.2h.01M221.5 235.5h.01M134.1 206.1h.01M180.0 323.4h.01M221.2 205.5h.01M169.7 38.2h.01M163.0 127.4h.01M162.7 230.7h.01M170.4 309.7h.01M207.5 268.1h.01M70.1 157.6h.01M130.3 291.1h.01M226.7 201.0h.01M167.5 242.7h.01M243.6 414.5h.01M266.4 340.9h.01M111.6 234.0h.01M126.8 371.2h.01M131.2 270.7h.01M225.7 397.7h.01M182.7 171.1h.01M274.5 307.6h.01M107.7 225.4h.01M262.9 163.7h.01M89.9 119.5h.01M229.8 295.4h.01M175.7 245.8h.01M138.1 306.7h.01M211.9 314.0h.01M173.8 91.0h.01M140.0 116.7h.01M113.7 81.1h.01M241.7 69.3h.01M90.7 174.4h.01M228.6 172.1h.01M136.4 148.9h.01M291.5 324.3h.01M186.6 192.5h.01M292.7 302.2h.01M112.9 201.4h.01M149.9 289.1h.01M239.2 312.8h.01M160.6 303.5h.01M119.4 110.4h.01M247.3 320.5h.01M305.0 338.6h.01M251.5 69.1h.01M178.4 317.4h.01M256.1 289.9h.01M160.7 402.2h.01M182.9 319.3h.01M188.6 217.8h.01M109.5 319.7h.01M109.8 216.0h.01M117.1 214.8h.01M152.8 278.4h.01M127.7 104.0h.01M108.7 345.4h.01M139.9 292.5h.01M250.6 189.5h.01M268.1 122.6h.01M267.1 127.5h.01M109.4 104.1h.01M112.6 360.0h.01M251.4 307.5h.01M98.0 335.1h.01M273.0 151.0h.01M103.8 345.8h.01M146.2 378.7h.01M136.8 123.8h.01M187.4 312.9h.01M233.1 336.2h.01M181.9 313.5h.01M77.7 151.8h.01M183.0 277.7h.01M118.5 222.9h.01M254.2 282.6h.01M146.3 388.2h.01M112.8 224.1h.01M100.5 108.9h.01M159.6 145.6h.01M105.4 166.3h.01M159.6 95.5h.01M212.9 198.1h.01M258.6 92.7h.01M84.7 124.3h.01M254.7 76.6h.01M127.1 260.2h.01M117.2 147.7h.01M176.1 321.3h.01M165.3 177.5h.01M136.4 273.4h.01M174.2 308.9h.01M115.7 226.5h.01M126.1 132.0h.01M136.6 119.4h.01M204.5 408.7h.01M242.0 261.4h.01M169.1 385.0h.01M145.5 85.2h.01M113.1 194.0h.01M158.9 296.9h.01M248.0 98.7h.01M115.4 251.6h.01M313.1 370.9h.01M312.6 345.9h.01M299.6 326.3h.01M138.6 144.0h.01M141.7 389.9h.01M136.6 299.3h.01M269.5 139.6h.01M112.0 265.2h.01M72.6 293.1h.01M205.3 397.9h.01M196.6 235.4h.01M157.7 322.2h.01M186.9 161.0h.01M133.2 96.0h.01M138.2 339.2h.01M76.6 229.3h.01M320.9 336.5h.01M149.4 283.5h.01M182.2 240.6h.01M103.1 246.7h.01M171.4 245.8h.01M298.9 304.2h.01M149.5 222.9h.01M162.2 268.3h.01M172.1 241.1h.01M175.3 292.5h.01M18.6 296.1h.01M188.6 205.2h.01M177.1 241.4h.01M107.2 211.6h.01M199.1 396.5h.01M131.8 217.3h.01M159.1 262.9h.01M337.6 317.7h.01M135.5 100.1h.01M151.6 193.4h.01M168.4 251.4h.01M185.2 246.5h.01M190.2 195.9h.01M133.7 336.1h.01M249.2 91.5h.01M224.7 240.3h.01M244.6 93.9h.01M179.9 253.0h.01M157.0 274.2h.01M285.8 195.3h.01M139.0 175.1h.01M150.7 92.9h.01M250.5 235.1h.01M316.2 333.1h.01M116.6 197.4h.01M107.2 207.1h.01M193.2 178.1h.01M71.1 313.1h.01M87.2 131.1h.01M93.1 149.2h.01M119.9 183.1h.01M166.7 407.6h.01M118.6 141.9h.01M232.3 252.3h.01M195.1 245.3h.01M124.3 137.9h.01M270.4 147.5h.01M81.8 227.2h.01M148.5 140.4h.01M233.4 89.6h.01M164.5 321.7h.01M282.4 120.9h.01M189.8 73.8h.01M154.0 402.4h.01M184.3 268.8h.01M224.5 66.1h.01M106.0 325.5h.01M115.5 231.1h.01M139.6 100.6h.01M142.4 128.4h.01M117.5 187.6h.01M186.8 241.7h.01M192.8 36.8h.01M234.5 171.9h.01M135.8 330.8h.01M160.1 120.4h.01M195.0 282.3h.01M253.1 182.2h.01M68.6 299.4h.01M137.7 189.9h.01M248.0 313.8h.01M116.0 219.8h.01M234.9 69.9h.01M115.4 159.0h.01M316.2 338.0h.01M78.4 183.1h.01M249.1 255.5h.01M236.3 242.3h.01M103.4 104.2h.01M116.2 93.7h.01M167.8 247.6h.01M115.1 102.3h.01M149.5 375.0h.01M264.4 96.4h.01M251.1 294.2h.01M110.0 272.4h.01M128.1 98.4h.01M209.9 239.7h.01M109.3 80.7h.01M277.6 226.1h.01M154.9 101.9h.01M126.2 286.0h.01M231.3 396.2h.01M163.2 292.7h.01M265.5 351.3h.01M241.2 279.6h.01M217.4 292.2h.01M154.5 258.9h.01M188.1 280.3h.01M125.8 280.5h.01M147.8 114.7h.01M71.5 173.7h.01M88.8 146.5h.01M280.0 201.6h.01M162.2 134.0h.01M81.2 210.8h.01M254.9 412.7h.01M276.5 119.8h.01M311.2 351.1h.01M84.8 142.9h.01M145.5 144.5h.01M167.7 87.2h.01M284.9 162.5h.01M144.8 125.7h.01M193.4 183.1h.01M106.0 177.9h.01M110.9 229.1h.01M114.7 176.8h.01M111.0 238.5h.01M236.4 332.1h.01M107.1 255.4h.01M262.9 122.6h.01M118.2 98.2h.01M192.9 289.5h.01M72.9 325.2h.01M224.6 230.2h.01M175.9 179.3h.01M199.8 243.2h.01M198.6 212.4h.01M183.5 251.9h.01M279.0 130.1h.01M108.9 95.8h.01M290.6 168.1h.01M85.3 166.5h.01M288.5 343.1h.01M72.4 152.9h.01M106.2 114.1h.01M314.8 329.1h.01M310.8 341.2h.01M235.8 190.3h.01M271.1 206.5h.01M179.9 297.3h.01M89.9 300.1h.01M153.3 137.5h.01M138.1 334.4h.01M192.9 406.8h.01M142.7 174.9h.01M75.4 185.2h.01M95.6 303.8h.01M166.5 402.0h.01M290.3 296.3h.01M132.5 331.0h.01M108.2 202.0h.01M203.7 39.0h.01M190.0 284.7h.01M118.9 200.8h.01M260.1 98.0h.01M121.0 238.0h.01M227.8 51.0h.01M189.9 169.7h.01M247.3 69.3h.01M77.9 198.8h.01M160.3 279.5h.01M96.0 309.5h.01M120.8 114.9h.01M225.5 180.1h.01M232.3 60.0h.01M100.4 97.4h.01M283.8 125.9h.01M154.9 242.1h.01M141.5 362.6h.01M250.4 196.1h.01M140.0 111.0h.01M216.6 419.4h.01M145.5 292.4h.01M269.6 268.2h.01M255.3 396.5h.01M87.9 125.8h.01M130.2 136.9h.01M126.5 294.4h.01M126.3 153.1h.01M172.4 250.8h.01M200.3 408.9h.01M270.3 93.8h.01M172.7 318.6h.01M85.9 173.0h.01M204.9 279.3h.01M277.2 216.8h.01M168.6 269.9h.01M148.5 318.5h.01M126.1 365.9h.01M123.2 186.6h.01M135.5 279.8h.01M142.7 96.5h.01M256.9 305.3h.01M264.2 112.2h.01M79.2 148.1h.01M223.2 407.1h.01M150.3 303.6h.01M56.5 269.1h.01M125.5 270.5h.01M152.5 123.1h.01M147.4 131.0h.01M202.2 233.3h.01M160.1 156.5h.01M295.7 321.5h.01M166.6 225.0h.01M190.2 247.6h.01M289.8 173.0h.01M73.9 336.3h.01M135.5 109.0h.01M250.0 74.5h.01M107.8 187.5h.01M226.7 61.0h.01M250.9 250.7h.01M12.1 300.3h.01M116.8 116.4h.01M284.5 131.6h.01M146.8 276.9h.01M231.3 236.7h.01M144.3 366.5h.01M104.3 222.2h.01M265.7 117.5h.01M106.9 235.4h.01M197.2 184.4h.01M217.2 424.2h.01M239.1 91.7h.01M154.2 149.2h.01M149.6 211.7h.01M70.6 189.4h.01M254.5 107.6h.01M116.4 241.7h.01M146.3 135.8h.01M274.5 185.9h.01M122.0 283.0h.01M105.9 92.5h.01M119.7 245.0h.01M151.6 294.6h.01M122.4 88.6h.01M145.3 199.0h.01M198.2 294.2h.01M139.4 209.7h.01M175.4 282.6h.01M268.2 102.9h.01M110.1 248.9h.01M264.3 91.5h.01M183.9 293.8h.01M216.0 232.3h.01M252.6 300.6h.01M179.1 258.0h.01M108.0 125.2h.01M78.9 188.0h.01M168.3 296.4h.01M264.2 262.8h.01M260.2 108.3h.01M275.8 190.2h.01M138.6 128.4h.01M223.1 251.6h.01M120.1 261.8h.01M88.5 170.0h.01M155.1 142.3h.01M244.1 256.3h.01M228.5 415.7h.01M212.9 266.1h.01M260.3 285.7h.01M230.6 197.9h.01M166.7 389.4h.01M249.5 104.0h.01M275.6 162.5h.01M142.8 107.0h.01M202.3 332.5h.01M244.8 187.6h.01M123.1 222.6h.01M225.6 403.2h.01M156.3 90.0h.01M316.2 361.7h.01M131.2 285.8h.01M112.6 269.6h.01M316.1 374.9h.01M267.1 299.6h.01M76.4 318.8h.01M106.4 108.9h.01M134.1 86.8h.01M195.3 317.6h.01M261.1 87.7h.01M277.3 169.6h.01M112.3 126.7h.01M118.4 83.6h.01M130.7 281.3h.01M188.2 392.0h.01M181.3 204.1h.01M131.4 101.5h.01M304.2 344.3h.01M130.3 248.8h.01M80.2 222.2h.01M254.0 246.7h.01M121.6 257.8h.01M214.0 172.9h.01M269.6 135.5h.01M276.3 238.5h.01M111.2 205.5h.01M184.7 302.8h.01M156.5 380.0h.01M112.7 208.9h.01M137.2 284.2h.01M106.4 239.8h.01M134.9 133.1h.01M293.6 368.3h.01M289.1 158.8h.01M121.1 93.9h.01M147.1 107.3h.01M135.5 289.0h.01M117.2 210.3h.01M192.4 277.6h.01M216.8 305.1h.01M145.0 374.3h.01M108.7 86.4h.01M113.3 216.5h.01M166.7 309.4h.01M234.3 322.7h.01M234.5 202.0h.01M148.9 260.0h.01M290.1 163.2h.01M168.3 93.7h.01M158.6 315.8h.01M151.7 206.3h.01M156.3 115.8h.01M134.0 211.4h.01M102.9 182.2h.01M114.4 133.0h.01M193.2 417.0h.01M201.1 315.7h.01M186.6 188.9h.01M85.2 223.1h.01M110.4 242.5h.01M168.7 321.2h.01M276.7 152.6h.01M236.9 221.8h.01M127.3 109.4h.01M196.0 394.2h.01M161.4 312.6h.01M112.8 186.1h.01M150.9 271.9h.01M276.0 202.4h.01M81.6 196.2h.01M190.9 322.3h.01M179.7 415.3h.01M151.9 107.3h.01M108.6 222.5h.01M190.6 396.2h.01M139.1 105.9h.01M130.8 241.0h.01M277.4 206.8h.01M150.5 153.7h.01M230.4 192.0h.01M239.9 418.0h.01M271.6 201.0h.01M204.7 168.0h.01M170.4 393.3h.01M130.1 129.8h.01M190.3 235.0h.01M93.1 114.7h.01M120.0 206.6h.01M143.9 226.9h.01M233.8 417.7h.01M274.8 133.1h.01M165.6 80.8h.01M120.9 154.9h.01M270.8 115.5h.01M233.1 54.4h.01M141.3 337.0h.01M266.9 277.6h.01M125.3 247.3h.01M123.0 98.4h.01M231.9 257.8h.01M116.4 168.9h.01M134.2 193.0h.01M175.5 221.8h.01M102.2 238.2h.01M164.6 97.8h.01M126.2 147.8h.01M257.3 295.6h.01M192.6 205.0h.01M83.3 206.2h.01M147.0 97.5h.01M255.3 317.5h.01M268.8 98.3h.01M133.7 223.0h.01M144.9 313.0h.01M107.1 245.6h.01M185.2 406.2h.01M235.4 248.4h.01M274.8 330.0h.01M179.1 273.4h.01M260.5 102.8h.01M282.9 169.5h.01M113.6 96.1h.01M267.9 152.1h.01M172.0 157.9h.01M80.1 232.6h.01M135.8 196.5h.01M185.0 211.2h.01M175.1 236.7h.01M177.6 278.4h.01M155.7 317.6h.01M272.3 178.4h.01M73.0 200.5h.01M179.4 248.5h.01M182.0 214.4h.01M116.6 106.3h.01M129.6 196.1h.01M235.7 196.6h.01M130.3 374.7h.01M44.5 279.4h.01M241.9 164.2h.01M293.9 343.0h.01M230.9 162.7h.01M111.4 91.6h.01M108.1 183.0h.01M276.4 196.7h.01M107.0 215.5h.01M174.1 303.9h.01M236.8 260.9h.01M204.9 243.6h.01M224.3 173.6h.01M276.4 175.6h.01M162.6 317.1h.01M79.3 345.7h.01M165.3 313.1h.01M283.7 156.7h.01M142.0 148.0h.01M115.9 204.8h.01M304.7 317.1h.01M289.5 338.4h.01M300.4 336.0h.01M254.9 97.4h.01M179.4 267.4h.01M177.8 172.4h.01M287.2 233.9h.01M106.1 77.0h.01M224.2 412.1h.01M280.0 186.5h.01M198.6 278.9h.01M103.6 88.0h.01M225.9 391.4h.01M285.1 151.8h.01M120.4 267.1h.01M122.8 242.2h.01M160.5 84.7h.01M192.7 231.4h.01M249.3 326.9h.01M272.3 172.7h.01M165.5 264.4h.01M163.1 246.4h.01M127.6 244.1h.01M239.9 227.0h.01M142.5 139.8h.01M119.2 178.0h.01M195.0 171.2h.01M118.2 193.6h.01M239.9 266.3h.01M140.6 230.2h.01M222.8 168.7h.01M274.0 99.9h.01M128.9 157.6h.01M161.6 114.4h.01M194.8 221.5h.01M177.0 398.7h.01M275.0 166.5h.01M111.1 73.9h.01M113.4 245.5h.01M126.3 93.9h.01M230.3 401.8h.01M185.9 197.0h.01M237.4 58.0h.01M171.3 264.9h.01M193.8 325.5h.01M174.4 213.0h.01M129.0 206.5h.01M173.9 208.1h.01M185.3 166.6h.01M221.4 191.3h.01M180.9 244.8h.01M228.9 408.5h.01M152.4 187.3h.01M231.1 390.7h.01M142.1 132.6h.01M125.3 190.6h.01M279.4 221.7h.01M108.6 170.2h.01M74.2 147.6h.01M178.5 208.2h.01M157.4 205.0h.01M128.1 200.8h.01M181.7 396.9h.01M189.5 413.6h.01M238.2 413.3h.01M276.7 181.6h.01M119.9 102.9h.01M179.6 236.4h.01M238.3 64.7h.01M157.9 397.3h.01M118.4 173.3h.01M199.9 188.8h.01M160.8 209.6h.01M137.3 381.0h.01M182.6 200.0h.01M132.7 276.2h.01M147.4 298.7h.01M140.5 278.6h.01M234.3 404.5h.01M131.6 123.6h.01M156.9 237.5h.01M262.6 281.2h.01M257.9 84.5h.01M215.5 180.5h.01M182.2 208.8h.01M173.0 202.8h.01M154.7 167.6h.01M197.6 201.9h.01M133.3 232.8h.01M156.9 290.3h.01M73.3 256.5h.01M131.9 296.5h.01M289.7 177.9h.01M218.7 171.7h.01M277.5 345.7h.01M231.3 384.0h.01M198.2 313.1h.01M143.9 283.4h.01M166.1 381.4h.01M207.9 246.8h.01M295.4 338.2h.01M146.2 170.8h.01M170.1 314.6h.01M109.0 174.7h.01M217.1 217.1h.01M122.1 127.6h.01M190.8 293.8h.01M139.0 136.0h.01M222.3 265.1h.01M170.1 213.0h.01M230.3 241.3h.01M122.4 144.6h.01M115.7 257.6h.01M111.3 166.8h.01M273.3 143.2h.01M120.3 253.5h.01M244.3 325.0h.01M213.5 410.8h.01M164.1 240.2h.01M116.4 269.3h.01M74.8 299.4h.01M165.7 169.3h.01M221.0 176.6h.01M183.1 187.5h.01M192.5 216.7h.01M112.5 99.6h.01M286.0 287.4h.01M269.4 309.1h.01M138.5 203.4h.01M267.9 157.0h.01M150.0 311.5h.01M121.4 218.0h.01M213.9 299.9h.01M171.7 275.7h.01M182.8 307.5h.01M306.3 322.4h.01M285.4 137.8h.01M294.4 298.7h.01M151.1 99.3h.01M218.3 254.0h.01M158.8 176.3h.01M299.3 342.4h.01M197.0 229.9h.01M125.1 351.5h.01M199.5 418.9h.01M130.3 150.2h.01M181.6 36.2h.01M154.9 96.7h.01M130.5 236.2h.01M123.6 346.4h.01M283.3 262.4h.01M109.5 161.5h.01M237.2 422.3h.01M151.0 117.5h.01M79.8 203.5h.01M254.8 311.5h.01M116.9 127.5h.01M65.7 292.8h.01M258.6 166.3h.01M150.5 241.7h.01M197.0 308.3h.01M234.3 327.6h.01M126.7 254.2h.01M180.3 223.1h.01M222.8 417.6h.01M98.9 316.7h.01M203.8 335.6h.01M278.2 124.6h.01M86.8 136.7h.01M77.6 207.9h.01M188.6 255.1h.01M195.9 207.7h.01M136.2 114.0h.01M131.0 107.0h.01M160.7 381.6h.01M178.6 212.8h.01M176.9 393.1h.01M123.3 275.5h.01M145.3 209.8h.01M118.6 137.0h.01M114.9 182.3h.01M124.9 290.4h.01M132.2 111.8h.01M140.5 198.1h.01M140.1 302.6h.01M253.3 84.3h.01M127.1 142.7h.01M68.3 260.4h.01M222.8 220.7h.01M138.2 94.1h.01M179.5 166.7h.01M261.7 190.2h.01M98.7 86.6h.01M140.2 49.7h.01M307.5 347.4h.01M169.0 230.0h.01M285.0 335.7h.01M203.7 256.5h.01M255.9 368.7h.01M93.5 328.3h.01M235.0 316.5h.01M241.3 273.8h.01M137.2 152.9h.01M149.3 103.2h.01M171.9 177.9h.01M156.8 110.9h.01M73.6 207.9h.01M269.0 109.7h.01M274.2 110.3h.01M127.9 348.9h.01M141.7 287.8h.01M138.7 170.5h.01M116.4 369.3h.01M252.1 94.4h.01M143.0 188.2h.01M119.3 233.3h.01M72.2 166.5h.01M79.1 339.8h.01M142.6 168.6h.01M192.7 200.0h.01M152.7 314.7h.01M263.5 330.9h.01M254.7 101.9h.01M78.9 253.1h.01M151.2 145.4h.01M163.6 385.4h.01M245.3 232.5h.01M134.2 128.0h.01M132.2 142.3h.01M172.3 388.5h.01M114.9 273.9h.01M84.9 187.0h.01M259.3 313.8h.01M227.4 56.0h.01M173.5 298.2h.01M180.6 389.9h.01M103.2 82.3h.01M82.3 183.5h.01M164.3 141.1h.01M84.0 179.3h.01M153.3 408.6h.01M120.6 132.3h.01M170.8 412.5h.01M152.6 128.0h.01M232.1 65.1h.01M195.1 189.6h.01M124.6 209.1h.01M269.5 241.4h.01M188.2 318.1h.01M117.6 248.1h.01M286.9 182.0h.01M132.0 66.7h.01M231.1 329.6h.01M90.4 140.7h.01M183.3 400.9h.01M147.3 176.1h.01M187.8 224.1h.01M265.0 181.3h.01M316.3 367.7h.01M155.9 210.6h.01M218.4 240.9h.01M263.6 290.2h.01M119.1 348.5h.01M167.1 280.2h.01M228.9 333.1h.01M281.5 355.2h.01M148.1 217.8h.01M266.5 144.0h.01M158.7 376.1h.01M135.8 139.4h.01M238.3 74.2h.01M265.0 201.5h.01M147.3 149.5h.01M224.7 300.1h.01M283.4 330.3h.01M133.1 302.9h.01M174.1 231.9h.01M225.7 165.0h.01M115.8 263.3h.01M165.3 147.6h.01M132.8 54.3h.01M147.4 403.9h.01M187.4 298.8h.01M145.8 382.9h.01M68.6 170.5h.01M119.6 334.9h.01M138.3 234.7h.01M155.3 311.8h.01M155.8 307.4h.01M118.0 89.6h.01M116.0 237.1h.01M103.9 172.5h.01M278.8 157.9h.01M194.5 161.8h.01M294.4 293.8h.01M251.6 369.9h.01M190.7 242.9h.01M269.5 131.2h.01M194.3 167.1h.01M164.3 306.4h.01M253.5 157.5h.01M267.1 165.2h.01M271.8 192.2h.01M132.2 146.4h.01M277.1 337.9h.01M121.5 150.1h.01M178.8 302.4h.01M277.6 355.9h.01M132.9 379.5h.01M276.0 115.2h.01M134.7 184.7h.01M183.5 226.1h.01M272.8 105.4h.01M97.1 99.3h.01M282.4 252.2h.01M174.3 269.9h.01M177.8 78.4h.01M263.6 139.1h.01M311.2 311.6h.01M280.0 172.0h.01M152.0 201.0h.01M239.1 256.7h.01M123.3 197.8h.01M159.6 243.1h.01M284.8 201.6h.01M108.0 268.0h.01M135.1 104.4h.01M147.7 121.5h.01M128.7 299.0h.01M207.8 179.1h.01M160.0 408.6h.01M195.3 273.7h.01M150.8 371.4h.01M169.0 207.1h.01M157.7 125.5h.01M97.1 104.4h.01M155.2 119.9h.01M123.3 193.9h.01M144.7 118.8h.01M183.0 283.3h.01M166.8 317.4h.01M256.2 241.5h.01M279.9 327.5h.01M137.8 359.9h.01M160.7 107.1h.01M162.8 90.9h.01M137.0 216.7h.01M245.1 227.8h.01M256.6 235.2h.01M244.6 86.9h.01M172.6 97.9h.01M185.5 323.9h.01M113.9 190.5h.01M271.7 155.2h.01M243.0 317.5h.01M197.6 249.3h.01M289.5 275.9h.01M148.5 314.9h.01M218.0 323.5h.01M279.0 333.4h.01M281.9 147.1h.01M213.8 255.3h.01M162.3 167.9h.01M169.7 236.6h.01M187.3 35.8h.01M124.4 102.7h.01M164.2 274.0h.01M120.7 227.8h.01M174.0 170.3h.01M270.4 330.8h.01M187.5 201.1h.01M111.3 220.1h.01M193.1 225.9h.01M142.2 309.0h.01M128.1 275.7h.01M235.7 408.6h.01M267.7 176.9h.01M275.3 138.2h.01M135.6 294.0h.01M278.4 399.4h.01M156.8 415.3h.01M132.3 117.6h.01M103.6 242.7h.01M207.3 297.2h.01M101.0 92.5h.01M258.8 161.1h.01M207.1 171.6h.01M228.2 305.2h.01M183.0 73.5h.01M191.0 191.1h.01M249.7 86.8h.01M132.1 91.7h.01M107.9 100.2h.01M241.2 244.2h.01M152.5 264.9h.01M267.8 89.0h.01M189.1 228.3h.01M165.4 210.9h.01M94.7 109.6h.01M126.1 238.3h.01M102.4 332.0h.01M75.3 224.4h.01M152.3 133.1h.01M255.2 89.1h.01M186.5 237.5h.01M266.4 160.9h.01M110.7 259.6h.01M311.9 356.5h.01M263.8 296.3h.01M111.5 253.8h.01M200.3 171.0h.01M112.0 212.5h.01M197.4 287.2h.01M250.3 80.2h.01M292.4 284.7h.01M126.1 227.3h.01M221.8 55.5h.01M145.2 222.5h.01M119.7 278.5h.01M218.2 414.3h.01M228.7 338.2h.01M272.3 121.5h.01M274.4 158.1h.01M274.2 211.7h.01M126.2 216.4h.01M120.0 272.4h.01M279.7 257.3h.01M265.0 85.4h.01M217.4 248.2h.01M141.5 122.5h.01M264.5 105.6h.01M310.8 375.5h.01M144.8 318.0h.01M77.6 193.8h.01M240.2 79.9h.01M122.0 212.9h.01M129.0 192.0h.01M130.9 383.0h.01M155.3 392.6h.01M194.9 398.4h.01M244.3 292.8h.01M104.1 98.8h.01M142.1 297.4h.01M180.1 218.3h.01M159.8 309.0h.01M147.3 189.5h.01M206.7 400.9h.01M165.6 234.3h.01M129.0 266.0h.01M87.9 242.8h.01M123.5 232.9h.01M277.8 233.3h.01M156.3 106.0h.01M199.1 256.3h.01M143.2 114.7h.01M160.7 421.5h.01M161.2 236.3h.01M234.6 305.2h.01M242.6 221.7h.01M123.6 203.5h.01M113.0 172.6h.01M175.8 251.4h.01M204.7 414.4h.01M184.9 205.5h.01M128.1 358.1h.01M145.1 255.6h.01M139.9 88.8h.01M196.7 217.4h.01M75.6 330.8h.01M121.2 190.3h.01M128.8 212.1h.01M111.3 112.1h.01M145.1 91.6h.01M237.0 271.3h.01M193.3 298.4h.01M138.4 225.9h.01M160.3 101.6h.01M112.1 107.3h.01M153.5 299.0h.01M127.8 232.4h.01M271.1 162.3h.01M282.8 207.9h.01M249.5 161.2h.01M133.1 200.8h.01M219.1 164.8h.01M98.9 342.0h.01M182.0 161.5h.01M273.5 127.4h.01M131.1 227.5h.01M146.9 308.2h.01M113.9 87.3h.01M141.5 152.4h.01M157.4 131.7h.01M160.5 320.8h.01M108.1 351.8h.01M210.0 192.3h.01M304.0 350.8h.01M190.1 164.8h.01M279.1 350.4h.01M163.0 377.9h.01M285.6 142.9h.01M128.7 83.5h.01M113.5 139.7h.01M249.2 288.0h.01M156.1 303.0h.01M241.1 375.6h.01M163.2 286.2h.01M148.4 125.9h.01M189.2 209.3h.01M277.0 147.0h.01M151.9 318.4h.01M144.7 303.6h.01M136.0 229.6h.01M68.6 175.8h.01M218.8 409.1h.01M240.0 247.7h.01M230.9 74.8h.01"/>
<path stroke="#1a1a1a" stroke-width="2.81" stroke-linecap="round" fill="none" d="M184.8 373.1h.01M140.3 250.1h.01M283.5 182.7h.01M262.8 174.3h.01M99.0 142.3h.01M133.9 173.3h.01M129.2 56.3h.01M148.7 359.4h.01M221.2 338.5h.01M91.1 210.5h.01M167.4 325.7h.01M305.1 368.0h.01M100.9 128.1h.01M112.1 150.0h.01M207.3 313.4h.01M164.2 194.8h.01M115.8 295.5h.01M98.9 265.7h.01M291.0 347.9h.01M91.5 134.8h.01M130.6 341.0h.01M263.3 169.0h.01M87.4 207.9h.01M100.8 177.6h.01M285.6 272.2h.01M200.9 387.6h.01M91.5 101.5h.01M171.7 323.9h.01M82.8 201.0h.01M166.5 159.1h.01M194.5 384.8h.01M219.4 299.2h.01M103.5 320.1h.01M109.6 191.1h.01M120.9 296.3h.01M77.7 155.4h.01M89.6 195.2h.01M106.9 118.7h.01M195.4 195.6h.01M156.7 350.1h.01M206.2 371.7h.01M153.2 157.7h.01M201.8 308.4h.01M156.3 355.5h.01M102.4 198.0h.01M147.6 165.6h.01M99.6 216.2h.01M94.6 174.1h.01M96.1 127.1h.01M165.4 164.0h.01M85.8 198.4h.01M144.2 102.3h.01M92.6 190.1h.01M111.3 155.4h.01M92.5 235.4h.01M193.1 211.9h.01M143.0 333.0h.01M173.9 348.1h.01M134.3 341.1h.01M287.4 147.6h.01M168.9 361.1h.01M146.5 345.2h.01M193.4 239.3h.01M81.3 132.8h.01M126.0 125.2h.01M102.0 118.5h.01M100.1 241.2h.01M99.6 192.6h.01M155.8 333.3h.01M154.6 247.0h.01M203.0 373.5h.01M90.3 165.9h.01M103.9 123.4h.01M182.4 368.7h.01M101.9 254.4h.01M94.8 185.4h.01M182.6 353.2h.01M283.6 397.3h.01M100.0 168.9h.01M120.9 160.3h.01M269.3 168.4h.01M176.6 359.5h.01M208.2 331.1h.01M171.9 190.6h.01M89.9 106.1h.01M160.4 328.6h.01M124.1 313.2h.01M94.1 231.2h.01M239.1 327.1h.01M110.5 283.5h.01M197.0 333.1h.01M133.8 308.7h.01M110.8 298.2h.01M164.4 372.5h.01M180.7 333.3h.01M146.3 355.3h.01M221.4 311.2h.01M125.0 340.6h.01M175.6 217.1h.01M246.5 250.6h.01M281.6 360.3h.01M227.0 213.7h.01M138.2 348.7h.01M267.1 332.7h.01M89.2 220.9h.01M169.1 365.8h.01M89.2 233.8h.01M233.2 186.6h.01M199.9 238.5h.01M107.7 291.9h.01M118.1 359.1h.01M78.5 159.7h.01M83.7 350.3h.01M183.3 338.0h.01M132.3 326.1h.01M266.9 172.1h.01M93.2 214.8h.01M119.3 312.7h.01M73.0 176.8h.01M129.6 307.8h.01M177.3 345.9h.01M124.6 317.5h.01M217.6 342.3h.01M89.2 238.9h.01M146.6 242.2h.01M96.0 131.6h.01M122.6 373.7h.01M103.1 161.1h.01M220.1 399.9h.01M103.4 194.4h.01M176.3 387.5h.01M120.7 304.7h.01M133.8 320.8h.01M92.3 204.7h.01M166.2 339.5h.01M167.7 202.4h.01M280.4 179.9h.01M208.3 326.0h.01M101.0 132.6h.01M75.7 178.6h.01M105.3 129.0h.01M273.4 265.5h.01M211.4 308.4h.01M133.8 245.2h.01M259.2 365.9h.01M150.8 344.7h.01M143.7 341.2h.01M211.4 336.5h.01M140.7 327.3h.01M147.9 367.5h.01M254.4 163.3h.01M74.0 181.6h.01M168.2 180.1h.01M151.9 352.5h.01M158.3 41.2h.01M99.4 212.6h.01M123.3 179.1h.01M276.9 252.9h.01M94.8 138.7h.01M141.0 315.2h.01M240.1 336.6h.01M160.4 215.3h.01M136.1 326.1h.01M307.8 354.7h.01M100.8 273.0h.01M193.8 340.3h.01M93.5 239.5h.01M186.8 185.2h.01M96.8 252.8h.01M103.2 210.0h.01M232.2 342.7h.01M182.5 191.5h.01M120.3 300.4h.01M109.5 130.9h.01M218.9 329.8h.01M249.7 245.2h.01M293.6 289.1h.01M200.0 336.8h.01M221.5 395.6h.01M156.6 216.4h.01M148.9 238.3h.01M186.4 342.4h.01M240.8 182.2h.01M103.5 215.5h.01M240.9 198.7h.01M136.0 175.5h.01M155.2 196.9h.01M150.9 390.5h.01M125.9 160.8h.01M93.3 194.6h.01M255.0 72.6h.01M125.0 116.2h.01M104.6 140.6h.01M188.5 376.8h.01M99.9 201.4h.01M162.1 325.1h.01M138.2 312.0h.01M309.6 329.5h.01M122.0 170.7h.01M224.9 224.7h.01M144.2 47.3h.01M251.4 239.8h.01M206.5 366.8h.01M135.0 237.9h.01M161.6 226.5h.01M189.8 362.1h.01M300.0 354.0h.01M145.2 330.7h.01M115.7 278.1h.01M212.1 188.3h.01M206.4 404.5h.01M144.8 251.6h.01M257.6 185.1h.01M291.6 353.2h.01M170.7 335.2h.01M174.5 197.9h.01M127.7 303.1h.01M84.9 218.1h.01M87.1 176.9h.01M141.4 319.6h.01M210.4 404.0h.01M229.1 376.7h.01M90.0 186.4h.01M185.9 388.2h.01M280.3 152.5h.01M288.6 291.6h.01M96.7 235.8h.01M102.5 190.2h.01M189.8 371.9h.01M145.0 322.5h.01M71.6 162.1h.01M109.0 195.3h.01M104.6 286.5h.01M134.4 345.4h.01M188.3 176.7h.01M166.7 335.5h.01M85.1 230.5h.01M300.0 348.6h.01M105.3 251.0h.01M167.3 191.6h.01M191.3 328.4h.01M97.8 227.7h.01M201.8 398.3h.01M178.9 191.6h.01M220.4 199.7h.01M99.1 123.2h.01M110.1 121.5h.01M209.3 341.1h.01M178.5 371.1h.01M160.3 332.0h.01M136.0 156.5h.01M161.5 179.7h.01M125.5 308.2h.01M284.4 389.4h.01M289.0 154.1h.01M104.0 265.5h.01M100.7 219.7h.01M75.1 203.4h.01M158.7 249.6h.01M167.6 355.8h.01M164.2 361.1h.01M203.3 369.5h.01M185.4 230.3h.01M220.7 257.4h.01M152.2 226.2h.01M111.0 179.4h.01M194.0 380.0h.01M124.6 175.5h.01M147.9 330.1h.01M187.5 335.9h.01M311.5 366.7h.01M95.6 210.2h.01M106.7 197.4h.01M135.8 51.4h.01M207.6 335.9h.01M149.4 336.6h.01M197.7 378.3h.01M98.6 147.1h.01M148.6 228.0h.01M148.6 340.9h.01M186.3 332.4h.01M241.7 61.0h.01M104.3 146.0h.01M179.9 327.7h.01M129.1 334.2h.01M158.0 231.3h.01M216.9 184.0h.01M192.5 366.0h.01M136.7 316.7h.01M187.6 400.8h.01M203.1 312.1h.01M225.3 330.0h.01M70.3 179.4h.01M149.7 245.4h.01M169.3 167.1h.01M189.2 339.4h.01M122.5 106.9h.01M90.6 178.8h.01M160.1 194.9h.01M170.9 260.2h.01M143.6 328.6h.01M100.0 249.5h.01M184.8 220.7h.01M83.3 128.2h.01M196.7 373.8h.01M225.8 259.7h.01M291.8 333.8h.01M178.6 353.4h.01M105.2 134.6h.01M142.6 236.2h.01M181.4 357.2h.01M102.6 305.8h.01M159.3 369.3h.01M155.3 338.9h.01M138.4 166.5h.01M295.8 327.8h.01M130.2 317.9h.01M171.1 340.1h.01M96.5 152.9h.01M144.8 247.2h.01M126.2 168.5h.01M101.9 151.0h.01M152.5 338.0h.01M126.8 325.3h.01M81.9 137.3h.01M194.0 257.1h.01M85.7 212.7h.01M159.2 365.4h.01M175.2 193.4h.01M133.7 313.8h.01M223.9 334.5h.01M141.0 350.3h.01M138.5 324.3h.01M115.5 111.0h.01M187.0 172.3h.01M162.6 342.5h.01M164.6 328.7h.01M145.5 230.6h.01M142.3 345.4h.01M153.1 324.8h.01M219.4 334.8h.01M73.0 192.7h.01M144.6 325.9h.01M96.7 189.6h.01M287.8 351.3h.01M99.4 207.8h.01M164.0 365.5h.01M115.9 306.4h.01M186.4 354.0h.01M202.6 324.6h.01M284.7 353.9h.01M111.0 277.0h.01M284.9 179.2h.01M155.3 163.5h.01M163.5 356.0h.01M295.2 351.0h.01M170.1 346.6h.01M262.0 406.5h.01M223.7 321.1h.01M133.2 359.1h.01M148.7 184.9h.01M157.5 337.0h.01M153.1 43.1h.01M281.2 166.1h.01M215.8 310.4h.01M96.5 217.4h.01M170.6 198.8h.01M93.1 227.4h.01M75.7 218.4h.01M165.5 350.4h.01M120.5 321.2h.01M187.7 328.2h.01M245.5 64.7h.01M160.2 358.8h.01M87.1 182.4h.01M84.7 249.8h.01M107.5 280.1h.01M285.3 172.6h.01M168.1 331.3h.01M245.5 237.2h.01M128.0 179.7h.01M76.1 213.0h.01M102.2 234.6h.01M108.9 143.8h.01M231.7 219.3h.01M261.9 184.9h.01M114.4 163.8h.01M100.6 138.0h.01M106.7 157.4h.01M156.2 371.7h.01M185.5 359.7h.01M177.0 255.6h.01M181.7 346.9h.01M92.5 257.2h.01M170.0 187.4h.01M96.1 273.6h.01M72.5 170.4h.01M246.8 410.0h.01M98.4 244.8h.01M71.7 185.4h.01M102.7 227.2h.01M113.0 301.0h.01M154.0 376.1h.01M194.5 370.1h.01M181.4 376.2h.01M153.9 360.0h.01M247.9 303.7h.01M177.1 203.9h.01M92.1 157.2h.01M262.2 81.5h.01M158.8 166.3h.01M88.1 110.7h.01M174.8 187.1h.01M98.4 257.4h.01M186.5 181.8h.01M113.3 291.8h.01M215.6 338.5h.01M147.9 333.4h.01M97.0 269.9h.01M118.6 163.8h.01M152.9 335.0h.01M176.7 374.6h.01M158.6 340.6h.01M89.5 200.3h.01M149.7 250.0h.01M189.4 357.5h.01M93.7 219.7h.01M111.9 116.8h.01M107.3 275.5h.01M287.7 331.0h.01M117.1 329.6h.01M134.7 349.4h.01M163.8 39.1h.01M100.2 113.8h.01M190.7 186.2h.01M154.7 346.8h.01M116.7 283.3h.01M193.2 375.3h.01M171.3 329.2h.01M194.5 402.5h.01M278.2 341.8h.01M108.0 301.8h.01M166.4 220.2h.01M196.7 337.5h.01M227.8 187.7h.01M91.8 252.1h.01M127.9 187.1h.01M184.0 257.0h.01M149.8 362.6h.01M209.4 370.4h.01M150.7 348.8h.01M225.5 385.2h.01M219.3 262.3h.01M202.6 338.6h.01M135.4 385.2h.01M190.4 221.2h.01M182.9 183.1h.01M106.1 192.0h.01M176.2 330.2h.01M77.0 164.9h.01M198.1 363.7h.01M192.9 336.3h.01M122.4 61.5h.01M169.5 162.1h.01M92.3 170.2h.01M157.6 361.7h.01M178.8 349.8h.01M239.4 321.6h.01M175.2 325.9h.01M182.4 195.4h.01M127.4 120.4h.01M190.1 180.8h.01M241.7 240.5h.01M85.0 120.2h.01M281.1 115.9h.01M93.2 223.5h.01M105.5 271.9h.01M96.6 204.5h.01M260.9 337.5h.01M208.7 317.2h.01M222.5 306.0h.01M213.3 342.4h.01M121.2 292.7h.01M104.5 201.1h.01M176.3 262.9h.01M145.2 111.1h.01M279.1 263.0h.01M98.8 173.9h.01M85.4 194.4h.01M117.5 291.6h.01M180.6 176.4h.01M158.6 344.9h.01M165.0 215.9h.01M196.1 389.1h.01M163.7 199.8h.01M271.2 360.5h.01M112.8 281.0h.01M174.5 351.9h.01M97.6 135.1h.01M182.8 342.9h.01M259.7 308.8h.01M197.5 367.3h.01M213.4 326.9h.01M139.3 330.3h.01M141.6 182.9h.01M230.7 167.9h.01M209.1 256.3h.01M74.7 189.2h.01M173.8 256.2h.01M285.1 176.0h.01M209.0 397.9h.01M116.6 338.7h.01M121.6 166.6h.01M212.9 331.7h.01M96.9 118.0h.01M158.7 220.4h.01M102.2 155.7h.01M159.0 200.0h.01M177.8 365.9h.01M150.2 328.2h.01M192.0 332.5h.01M166.6 344.3h.01M110.9 305.7h.01M152.7 218.6h.01M183.7 393.2h.01M288.3 186.6h.01M86.3 115.5h.01M104.4 258.9h.01M244.5 168.6h.01M101.2 261.8h.01M209.4 175.1h.01M109.4 137.0h.01M158.3 334.6h.01M120.4 364.6h.01M280.5 175.6h.01M244.7 371.5h.01M280.1 162.1h.01M174.2 342.8h.01M152.0 331.6h.01M164.3 332.5h.01M179.6 187.4h.01M173.5 366.0h.01M172.8 376.3h.01M148.2 326.3h.01M144.8 154.1h.01M128.1 379.6h.01M146.2 349.8h.01M101.2 223.8h.01M138.3 343.9h.01M82.5 170.0h.01M106.4 297.5h.01M163.7 368.9h.01M179.7 230.2h.01M308.8 369.4h.01M77.4 171.1h.01M137.2 389.6h.01M217.0 177.1h.01M128.8 114.6h.01M136.3 242.0h.01M91.8 129.9h.01M89.1 229.5h.01M94.4 121.7h.01M144.4 359.8h.01M79.1 140.4h.01M99.4 164.2h.01M154.2 364.6h.01M155.4 342.6h.01M123.9 328.6h.01M166.0 255.2h.01M154.4 321.3h.01M191.5 174.0h.01M114.8 314.7h.01M121.1 331.2h.01M183.7 234.0h.01M129.0 313.0h.01M132.5 177.8h.01M122.2 369.1h.01M143.4 242.9h.01M229.4 321.6h.01M151.2 177.9h.01M114.9 121.4h.01M174.8 334.5h.01M200.0 374.7h.01M205.9 305.4h.01M128.0 330.0h.01M180.3 361.8h.01M77.9 175.6h.01M102.3 269.2h.01M219.6 403.6h.01M94.9 178.6h.01M98.1 232.9h.01M187.6 367.6h.01M210.2 303.3h.01M116.6 310.3h.01M108.2 286.8h.01M125.2 183.0h.01M89.9 247.2h.01M101.0 230.7h.01M183.9 364.3h.01M204.6 317.4h.01M89.0 216.0h.01M239.6 231.9h.01M132.2 154.0h.01M129.9 322.5h.01M96.3 199.0h.01M95.0 248.0h.01M161.9 347.2h.01M192.9 392.5h.01M107.1 151.0h.01M248.5 165.7h.01M209.2 408.9h.01M176.4 227.0h.01M129.6 175.0h.01M80.0 167.1h.01M123.8 302.8h.01M184.4 349.9h.01M265.6 305.0h.01M235.9 165.7h.01M125.4 164.4h.01M205.0 238.8h.01M196.7 405.7h.01M164.0 250.7h.01M156.6 329.7h.01M188.5 213.6h.01M178.6 195.6h.01M124.5 298.4h.01M181.4 380.5h.01M119.1 316.7h.01M148.0 322.5h.01M113.4 334.0h.01M177.6 337.8h.01M137.4 320.7h.01M205.6 339.9h.01M201.8 361.2h.01M200.5 319.8h.01M175.9 355.7h.01M176.6 378.6h.01M116.2 302.8h.01M160.8 334.9h.01M238.2 250.8h.01M206.1 362.1h.01M142.9 233.0h.01M82.3 162.6h.01M112.7 355.2h.01M114.5 69.3h.01M120.8 287.7h.01M96.2 193.6h.01M178.3 199.7h.01M185.5 380.0h.01M88.6 225.7h.01M173.7 361.7h.01M279.4 110.9h.01M124.8 321.6h.01M102.9 186.5h.01M96.2 92.2h.01M204.0 300.7h.01M200.8 304.5h.01M106.2 227.9h.01M286.4 346.8h.01M110.7 294.8h.01M191.4 400.4h.01M171.9 224.8h.01M186.5 396.7h.01M199.8 370.2h.01M206.7 321.4h.01M170.2 351.9h.01M93.2 243.5h.01M122.1 120.0h.01M152.5 238.0h.01M121.2 308.6h.01M197.4 323.3h.01M136.3 364.2h.01M98.9 186.5h.01M144.9 194.2h.01M116.1 287.4h.01M124.1 157.3h.01M155.2 178.2h.01M221.1 182.3h.01M167.9 370.0h.01M163.3 205.1h.01M183.5 328.7h.01M87.9 161.2h.01M240.7 186.8h.01M292.9 363.1h.01M103.7 281.0h.01M184.9 216.4h.01M222.6 326.2h.01M248.2 415.5h.01M296.0 346.7h.01M150.9 356.0h.01M284.5 186.5h.01M153.4 328.3h.01M93.3 96.5h.01M124.0 335.3h.01M171.9 357.0h.01M186.5 384.6h.01M73.0 196.5h.01M111.7 288.1h.01M291.6 328.9h.01M133.0 159.4h.01M286.5 167.9h.01M120.1 325.7h.01M130.5 170.4h.01M170.6 218.4h.01M215.7 334.3h.01M97.5 223.2h.01M156.0 184.7h.01M279.7 141.6h.01M86.9 203.3h.01M154.1 222.2h.01M103.1 276.3h.01M157.1 325.6h.01M312.3 360.4h.01M145.1 183.7h.01M130.4 166.5h.01M260.0 333.2h.01M195.7 329.0h.01M190.2 381.3h.01M88.1 191.0h.01M93.8 144.1h.01M97.2 239.7h.01M200.3 380.6h.01M153.7 233.6h.01M95.5 168.3h.01M120.1 342.7h.01M173.4 382.1h.01M132.7 188.8h.01M116.5 153.4h.01M123.9 111.4h.01M208.9 374.4h.01M204.0 328.8h.01M235.6 236.7h.01M116.7 298.5h.01M92.3 182.4h.01M173.2 370.6h.01M102.9 205.1h.01M138.5 185.0h.01M198.3 384.1h.01M134.5 165.9h.01M98.1 291.6h.01M146.6 238.6h.01M278.7 211.7h.01M79.7 172.7h.01M152.3 341.3h.01M92.8 198.9h.01M134.5 169.4h.01M98.0 181.9h.01M169.5 373.8h.01M99.2 196.2h.01M115.8 363.8h.01M94.0 162.5h.01M82.5 175.0h.01M95.3 261.2h.01M119.4 122.9h.01M217.1 315.4h.01M212.0 177.7h.01M239.4 169.8h.01M283.4 349.8h.01M239.1 237.2h.01M179.0 341.8h.01M215.6 404.5h.01M213.5 369.5h.01M304.2 356.0h.01M106.2 231.4h.01M145.6 337.1h.01M162.7 159.5h.01M97.4 287.3h.01M125.7 58.3h.01M141.6 323.2h.01M190.1 403.9h.01M245.0 247.3h.01M190.4 343.4h.01M150.9 322.4h.01M88.5 153.5h.01M130.2 183.9h.01M111.9 310.5h.01M112.1 197.7h.01M242.0 251.9h.01M113.3 145.0h.01M150.0 365.5h.01M80.6 216.3h.01M97.5 158.4h.01M150.3 254.9h.01"/>
<path stroke="#1a1a1a" stroke-width="3.32" stroke-linecap="round" fill="none" d="M130.9 346.8h.01M198.1 37.1h.01M258.4 171.1h.01M158.9 162.1h.01M212.3 388.8h.01M253.5 171.8h.01M216.7 371.5h.01M220.6 370.9h.01M204.2 358.3h.01M149.5 235.0h.01M170.3 255.1h.01M255.4 336.6h.01M209.7 382.4h.01M202.6 383.9h.01M203.2 401.9h.01M300.9 366.5h.01M277.5 243.2h.01M126.2 172.3h.01M138.4 246.5h.01M203.5 346.2h.01M159.7 183.4h.01M184.4 179.1h.01M138.0 354.9h.01M252.2 330.4h.01M214.0 386.0h.01M225.2 341.0h.01M248.7 345.0h.01M75.0 173.6h.01M261.8 363.7h.01M221.5 342.6h.01M282.3 283.2h.01M247.7 342.3h.01M219.5 375.5h.01M286.1 358.7h.01M106.9 313.6h.01M200.7 404.8h.01M231.5 183.3h.01M161.9 258.1h.01M200.0 347.5h.01M180.4 180.4h.01M281.5 385.6h.01M196.5 346.2h.01M227.6 373.4h.01M218.7 388.0h.01M133.1 181.1h.01M193.6 358.3h.01M222.7 216.1h.01M171.6 183.2h.01M134.4 162.9h.01M283.7 341.6h.01M191.2 388.7h.01M223.5 368.5h.01M288.2 355.7h.01M218.4 195.4h.01M177.4 382.4h.01M79.1 144.7h.01M186.9 346.4h.01M167.5 196.8h.01M157.2 226.0h.01M205.3 386.6h.01M128.5 337.8h.01M204.9 380.6h.01M215.0 393.0h.01M217.8 383.9h.01M295.9 355.4h.01M206.0 375.0h.01M203.0 393.4h.01M247.1 240.8h.01M141.4 160.6h.01M144.2 158.6h.01M208.9 378.7h.01M137.7 159.1h.01M167.1 184.0h.01M254.5 354.0h.01M156.0 159.9h.01M217.0 367.2h.01M143.0 353.3h.01M211.7 392.3h.01M100.5 284.3h.01M291.8 357.9h.01M284.8 393.4h.01M211.5 376.0h.01M209.8 362.9h.01M194.1 348.7h.01M265.1 403.4h.01M110.1 315.3h.01M190.3 385.3h.01M280.1 393.9h.01M198.4 401.2h.01M206.6 383.3h.01M282.7 277.8h.01M258.1 409.2h.01M308.9 360.2h.01M116.6 321.0h.01M188.5 350.2h.01M113.5 318.4h.01M126.6 375.9h.01M140.3 193.3h.01M217.0 187.4h.01M75.4 168.7h.01M190.3 353.6h.01M254.9 340.1h.01M150.6 231.6h.01M304.1 326.3h.01M140.9 164.3h.01M149.9 158.7h.01M253.9 186.4h.01M161.3 253.5h.01M149.2 196.7h.01M176.4 189.8h.01M154.7 368.6h.01M296.4 332.6h.01M160.7 352.4h.01M227.0 380.7h.01M253.5 167.7h.01M74.4 158.0h.01M236.9 349.0h.01M151.5 161.8h.01M214.0 364.7h.01M272.7 399.5h.01M305.7 360.1h.01M217.0 379.2h.01M207.7 393.1h.01M151.6 367.8h.01M217.7 362.2h.01M220.9 360.4h.01M213.5 347.1h.01M201.9 343.9h.01M301.4 358.6h.01M154.0 229.5h.01M295.2 360.3h.01M281.8 345.4h.01M198.1 359.4h.01M201.9 341.1h.01M202.6 377.4h.01M198.7 343.9h.01M184.3 175.6h.01M212.3 372.8h.01M206.0 378.0h.01M275.3 259.8h.01M210.6 395.4h.01M251.0 347.3h.01M223.7 377.6h.01M275.4 386.9h.01M118.7 65.3h.01M222.9 364.2h.01M75.2 162.4h.01M306.2 312.2h.01M235.4 339.7h.01M221.5 381.4h.01M208.8 358.4h.01M223.0 186.3h.01M228.8 253.6h.01M199.5 328.5h.01M257.9 338.9h.01M205.6 343.4h.01M248.1 171.5h.01M199.4 391.8h.01M220.4 366.2h.01M191.4 346.8h.01M147.3 156.9h.01M263.2 347.2h.01M304.5 363.6h.01M245.4 243.7h.01M209.5 386.3h.01M212.6 378.7h.01M215.5 375.1h.01M301.0 362.4h.01M218.3 346.4h.01M166.3 259.9h.01M204.0 390.4h.01M259.7 301.3h.01M166.0 376.0h.01M191.7 350.0h.01M266.8 391.1h.01M236.9 253.2h.01M144.2 164.3h.01M131.7 350.6h.01M228.6 342.9h.01M162.3 222.1h.01M179.2 183.6h.01M129.7 354.5h.01M218.3 393.4h.01M182.9 384.9h.01M313.0 364.2h.01M252.5 408.2h.01M193.7 355.1h.01M274.5 269.2h.01M277.9 248.0h.01M223.6 373.4h.01M276.0 395.9h.01M144.8 370.6h.01M161.2 373.2h.01M198.6 340.9h.01M162.2 163.3h.01M242.0 235.5h.01M250.7 412.5h.01M202.3 365.5h.01M147.1 161.6h.01M171.4 194.4h.01M103.3 292.1h.01M308.4 364.4h.01M200.2 355.6h.01M96.7 283.3h.01M151.4 165.2h.01M282.9 268.1h.01M208.0 389.6h.01M197.0 349.0h.01M147.4 233.0h.01M130.1 162.7h.01M140.8 156.5h.01M213.6 382.5h.01M145.8 235.8h.01M194.5 343.8h.01M272.0 388.7h.01M210.7 367.0h.01M137.6 162.3h.01M163.3 336.6h.01M140.2 239.5h.01M141.0 357.6h.01M207.0 309.5h.01M215.6 389.8h.01M161.3 338.7h.01M281.4 338.1h.01M140.7 367.8h.01M180.1 384.9h.01M194.6 362.1h.01M213.6 360.5h.01M148.8 45.3h.01"/>
<path stroke="#1a1a1a" stroke-width="3.99" stroke-linecap="round" fill="none" d="M245.5 357.0h.01M234.6 351.6h.01M248.0 351.0h.01M226.7 360.0h.01M238.1 355.6h.01M257.7 362.4h.01M206.5 355.4h.01M260.9 349.2h.01M212.4 398.7h.01M216.7 353.1h.01M254.7 333.4h.01M247.1 360.1h.01M234.4 346.5h.01M202.9 354.6h.01M242.3 353.0h.01M277.6 272.0h.01M240.5 354.7h.01M229.1 351.6h.01M245.0 350.8h.01M237.1 352.2h.01M242.2 359.4h.01M239.0 358.3h.01M206.9 348.2h.01M235.3 343.5h.01M250.8 333.3h.01M232.2 363.2h.01M244.8 359.7h.01M224.9 357.5h.01M154.8 252.3h.01M278.9 268.1h.01M243.1 368.1h.01M232.0 352.0h.01M233.0 359.0h.01M253.0 346.5h.01M248.0 354.0h.01M247.1 363.2h.01M227.3 183.8h.01M296.9 365.1h.01M209.8 345.5h.01M222.2 346.7h.01M222.6 387.2h.01M228.5 257.2h.01M241.7 350.1h.01M255.0 357.0h.01M253.8 359.2h.01M100.9 288.8h.01M145.7 363.6h.01M251.6 342.0h.01M242.7 365.1h.01M217.0 349.8h.01M134.8 353.7h.01M115.4 325.8h.01M257.0 345.5h.01M258.6 404.0h.01M306.7 333.9h.01M252.1 344.5h.01M260.3 355.0h.01M211.3 181.3h.01M244.3 363.0h.01M238.8 340.0h.01M215.5 191.9h.01M241.5 342.5h.01M221.4 391.2h.01M106.2 305.3h.01M253.9 348.8h.01M205.6 395.1h.01M250.7 354.1h.01M256.4 400.5h.01M199.4 351.8h.01M266.1 356.0h.01M258.0 353.7h.01M202.4 350.9h.01M249.3 366.9h.01M264.1 398.4h.01M251.6 336.1h.01M234.0 356.0h.01M212.8 352.2h.01M244.5 183.9h.01M268.1 400.3h.01M219.5 354.9h.01M236.2 368.8h.01M102.7 300.9h.01M246.0 366.0h.01M239.9 347.9h.01M237.6 185.5h.01M246.3 368.8h.01M221.9 349.9h.01M226.2 366.9h.01M258.0 343.5h.01M238.9 372.3h.01M102.8 296.7h.01M259.9 396.9h.01M233.8 373.5h.01M236.1 358.1h.01M242.0 371.5h.01M205.1 352.3h.01M225.4 345.8h.01M248.9 184.7h.01M196.0 352.0h.01M112.7 322.8h.01M175.5 183.5h.01M260.5 358.1h.01M242.6 339.6h.01M258.0 351.0h.01M234.1 361.9h.01M223.9 360.6h.01M230.9 366.9h.01M252.4 352.0h.01M236.7 364.2h.01M278.5 387.9h.01M268.8 395.8h.01M261.4 351.9h.01M225.9 363.7h.01M163.4 182.7h.01M235.7 182.6h.01M255.1 342.9h.01M256.6 355.8h.01M255.8 365.0h.01M225.6 255.4h.01M227.3 219.6h.01M261.0 401.1h.01M248.1 337.1h.01M240.0 363.2h.01M228.9 354.9h.01M244.6 336.3h.01M98.0 276.8h.01M143.6 179.5h.01M140.2 243.7h.01M210.4 349.4h.01M244.6 343.8h.01M264.5 361.3h.01M139.9 179.8h.01M230.5 360.5h.01M225.5 351.8h.01M243.4 356.7h.01M236.0 354.7h.01M247.2 347.6h.01M222.1 356.6h.01M298.0 359.2h.01M169.8 379.2h.01M233.0 369.2h.01M235.1 232.1h.01M214.8 356.1h.01M106.8 309.5h.01M280.8 389.9h.01M235.9 371.8h.01M240.9 345.1h.01M193.1 352.1h.01M252.9 366.6h.01M227.0 349.0h.01M257.5 359.0h.01M231.9 348.8h.01M239.6 351.7h.01M246.4 339.7h.01M270.2 391.5h.01M239.8 369.8h.01M253.2 362.8h.01M250.6 349.8h.01M236.8 360.9h.01M228.3 365.0h.01M247.8 333.2h.01M158.2 255.2h.01M250.5 359.8h.01M243.6 347.4h.01M255.3 361.0h.01M237.9 345.9h.01M276.3 265.0h.01M98.7 280.2h.01M263.9 394.4h.01M212.7 184.5h.01M238.0 343.0h.01M263.3 354.1h.01M255.0 404.9h.01M241.3 357.0h.01M215.3 400.8h.01M267.7 359.9h.01M240.0 360.5h.01M260.3 345.5h.01M150.7 181.9h.01M260.5 360.8h.01M255.4 350.7h.01M236.5 375.1h.01M208.2 352.0h.01M228.9 225.6h.01M157.4 180.7h.01M203.8 348.9h.01M232.1 223.6h.01M232.0 354.7h.01M230.3 370.2h.01M245.0 354.0h.01M228.3 362.0h.01M258.5 356.5h.01M300.4 331.0h.01M230.7 364.3h.01M254.5 345.5h.01M257.5 347.8h.01M223.0 256.6h.01M210.2 354.8h.01M234.7 227.3h.01M276.0 391.5h.01M251.5 339.0h.01M250.1 363.4h.01M230.7 357.0h.01M304.1 331.0h.01M281.4 273.0h.01M228.5 368.0h.01M272.6 394.2h.01M242.7 361.7h.01M228.1 357.9h.01M136.8 180.0h.01M229.6 346.3h.01M238.2 366.7h.01M222.5 260.5h.01M225.6 354.9h.01M263.2 357.4h.01M231.1 229.8h.01M217.7 357.7h.01M212.2 357.4h.01M233.0 378.0h.01M100.4 294.7h.01M128.3 344.2h.01M147.5 180.2h.01M217.6 397.4h.01M311.3 335.1h.01M258.4 341.2h.01M153.5 181.4h.01M226.6 370.3h.01M231.1 373.4h.01M248.2 357.0h.01M221.6 352.9h.01M234.3 255.5h.01M234.0 365.8h.01M252.0 357.0h.01M240.7 367.0h.01M214.6 396.0h.01M144.0 239.0h.01M197.0 355.4h.01"/>
</svg>