<svg xmlns="http://www.w3.org/2000/svg" viewBox="0 0 360 432" role="img">
<path stroke="#1a1a1a" stroke-width="1.53" stroke-linecap="round" fill="none" d="M201.0 242.5h.01M358.6 117.3h.01M169.1 204.1h.01M190.9 205.6h.01M48.3 386.4h.01M307.6 391.4h.01M208.9 429.4h.01M358.6 284.3h.01M262.6 425.8h.01M175.7 224.2h.01M269.3 423.3h.01M76.2 412.3h.01M317.0 381.4h.01M226.7 396.1h.01M216.9 425.6h.01M191.8 248.2h.01M230.7 402.8h.01M220.1 413.5h.01M178.0 120.2h.01M162.3 207.6h.01M233.9 393.2h.01M84.1 419.4h.01M176.1 214.8h.01M39.1 375.4h.01M25.4 358.3h.01M0.4 293.1h.01M181.3 239.0h.01M182.8 154.4h.01M170.4 408.6h.01M168.6 220.5h.01M43.2 381.1h.01M272.1 296.9h.01M69.4 407.4h.01M58.4 398.4h.01M92.7 423.5h.01M311.0 385.6h.01M176.0 206.2h.01M276.7 418.1h.01M29.0 363.9h.01M0.4 104.1h.01M53.1 391.3h.01M224.7 405.7h.01M64.6 402.1h.01M228.8 221.1h.01M301.6 397.5h.01M34.5 370.3h.01"/>
<path stroke="#1a1a1a" stroke-width="1.93" stroke-linecap="round" fill="none" d="M97.4 188.6h.01M126.6 370.0h.01M171.0 190.4h.01M223.3 146.9h.01M186.5 123.4h.01M231.7 276.8h.01M213.6 162.0h.01M238.1 139.0h.01M267.7 221.9h.01M205.1 120.2h.01M229.0 172.0h.01M204.8 83.3h.01M233.4 117.1h.01M174.6 158.1h.01M165.3 152.8h.01M132.8 378.9h.01M245.2 139.0h.01M253.8 131.0h.01M166.6 158.9h.01M144.5 230.5h.01M193.4 100.3h.01M196.2 254.7h.01M228.5 213.5h.01M182.3 218.4h.01M171.1 114.4h.01M269.0 155.0h.01M94.8 219.3h.01M255.6 211.5h.01M141.3 349.7h.01M135.6 150.4h.01M179.5 102.7h.01M206.4 268.6h.01M159.5 134.2h.01M72.1 400.8h.01M171.3 123.2h.01M220.8 97.6h.01M257.3 193.6h.01M58.0 387.0h.01M223.0 106.1h.01M126.4 199.7h.01M233.8 227.0h.01M96.4 227.0h.01M174.8 150.6h.01M202.6 159.7h.01M271.5 201.2h.01M219.6 113.9h.01M236.4 110.4h.01M200.7 396.4h.01M92.0 189.9h.01M195.8 233.3h.01M214.6 134.4h.01M241.9 134.0h.01M211.4 229.7h.01M109.3 234.4h.01M268.3 238.1h.01M253.2 425.0h.01M199.8 97.5h.01M257.2 134.2h.01M234.6 151.6h.01M192.6 107.0h.01M231.4 105.3h.01M224.3 126.0h.01M133.6 137.2h.01M170.1 366.0h.01M219.3 140.5h.01M233.3 194.9h.01M132.7 347.8h.01M210.0 379.2h.01M247.6 188.4h.01M144.1 125.5h.01M80.2 405.2h.01M215.0 199.1h.01M216.4 86.6h.01M99.2 242.2h.01M156.4 153.3h.01M164.4 139.3h.01M225.6 262.0h.01M323.8 371.1h.01M177.5 245.6h.01M265.3 209.7h.01M269.4 233.1h.01M95.5 235.7h.01M145.9 383.1h.01M87.4 219.0h.01M90.4 233.1h.01M161.5 171.1h.01M163.3 199.0h.01M215.4 284.3h.01M190.2 140.6h.01M319.4 375.4h.01M79.9 226.9h.01M142.7 197.9h.01M164.8 259.4h.01M264.5 248.6h.01M204.5 110.5h.01M78.9 194.7h.01M157.3 210.8h.01M130.9 180.4h.01M189.5 133.4h.01M209.4 246.8h.01M162.2 102.8h.01M209.9 196.0h.01M144.2 205.7h.01M49.8 379.7h.01M76.2 215.0h.01M194.8 36.7h.01M154.5 115.0h.01M223.2 173.5h.01M141.9 191.1h.01M28.6 355.0h.01M215.6 191.8h.01M279.7 174.6h.01M203.9 181.0h.01M203.1 290.1h.01M185.7 104.9h.01M199.1 226.8h.01M210.9 172.9h.01M212.4 142.1h.01M159.8 126.6h.01M224.2 119.2h.01M155.9 228.3h.01M157.6 377.8h.01M214.1 397.1h.01M138.5 203.9h.01M248.1 132.9h.01M257.9 109.5h.01M152.1 215.6h.01M149.2 194.2h.01M214.5 120.4h.01M244.3 109.5h.01M208.6 202.9h.01M171.2 388.4h.01M135.6 350.8h.01M238.1 278.0h.01M177.6 109.4h.01M269.5 206.5h.01M104.5 427.2h.01M245.4 121.8h.01M133.3 368.6h.01M154.5 173.9h.01M80.0 202.1h.01M260.6 129.1h.01M223.2 91.1h.01M42.1 345.2h.01M158.1 185.6h.01M193.5 240.7h.01M99.1 213.7h.01M161.5 116.2h.01M260.6 146.8h.01M243.5 144.9h.01M183.5 202.3h.01M246.0 197.2h.01M225.4 160.8h.01M262.3 152.0h.01M138.0 374.3h.01M142.5 387.5h.01M216.4 102.7h.01M149.8 165.2h.01M207.1 241.1h.01M204.9 191.8h.01M137.8 142.8h.01M301.7 391.3h.01M177.6 197.4h.01M198.8 105.6h.01M232.6 136.0h.01M229.7 166.5h.01M229.8 182.5h.01M140.2 215.9h.01M0.4 157.3h.01M174.9 92.1h.01M58.6 392.4h.01M166.5 130.2h.01M171.4 137.1h.01M199.5 193.3h.01M136.6 387.1h.01M183.4 114.7h.01M164.6 191.7h.01M203.9 143.3h.01M130.8 194.6h.01M239.0 98.3h.01M131.7 383.8h.01M225.4 278.1h.01M75.0 405.2h.01M98.3 427.3h.01M204.1 102.8h.01M147.4 186.8h.01M227.0 99.5h.01M219.9 187.2h.01M34.6 364.6h.01M0.4 199.0h.01M161.0 217.4h.01M192.4 85.3h.01M272.0 212.3h.01M283.2 412.7h.01M180.3 87.3h.01M157.5 193.6h.01M156.9 166.6h.01M205.0 280.3h.01M163.4 90.7h.01M124.0 195.1h.01M134.5 0.4h.01M198.1 113.9h.01M166.3 236.9h.01M195.5 430.5h.01M136.6 197.5h.01M147.5 132.4h.01M138.0 354.6h.01M250.5 106.6h.01M199.2 248.6h.01M142.2 355.8h.01M208.5 210.0h.01M89.8 81.4h.01M194.0 128.2h.01M152.3 239.6h.01M208.6 223.7h.01M90.0 185.2h.01M172.8 399.2h.01M239.9 221.4h.01M212.1 266.4h.01M158.5 109.2h.01M252.7 199.1h.01M131.5 172.3h.01M279.2 336.1h.01M96.6 72.3h.01M156.2 201.0h.01M145.7 212.5h.01M219.8 45.4h.01M209.8 104.7h.01M140.2 220.9h.01M157.4 368.1h.01M161.4 386.9h.01M76.1 155.6h.01M140.3 226.0h.01M216.7 266.3h.01M237.4 156.9h.01M151.2 373.4h.01M79.0 186.8h.01M98.7 207.4h.01M148.9 226.1h.01M213.4 240.0h.01M176.5 260.7h.01M210.7 189.2h.01M82.8 214.0h.01M194.6 92.5h.01M234.6 217.5h.01M169.5 90.9h.01M153.0 188.7h.01M224.8 178.8h.01M128.4 427.9h.01M202.6 206.6h.01M262.0 228.2h.01M358.6 242.6h.01M197.9 137.1h.01M179.0 80.2h.01M232.0 142.5h.01M182.7 261.7h.01M304.5 385.1h.01M259.2 117.2h.01M231.8 123.6h.01M199.7 270.1h.01M225.7 227.5h.01M229.9 176.8h.01M259.5 200.3h.01M228.1 154.5h.01M105.3 231.9h.01M214.5 205.9h.01M215.6 246.1h.01M209.4 181.5h.01M189.4 235.8h.01M132.8 203.2h.01M269.2 227.7h.01M145.3 377.3h.01M277.1 271.1h.01M202.1 130.7h.01M183.0 210.6h.01M213.8 177.3h.01M146.7 220.2h.01M139.0 366.9h.01M151.9 398.8h.01M236.8 130.3h.01M186.3 243.8h.01M192.0 154.6h.01M159.2 159.7h.01M250.4 142.9h.01M128.5 358.5h.01M142.6 146.6h.01M232.3 160.7h.01M176.5 269.2h.01M166.6 396.0h.01M130.9 199.7h.01M106.1 224.5h.01M64.1 394.8h.01M196.9 211.2h.01M150.9 386.8h.01M295.7 402.7h.01M139.0 210.5h.01M222.2 133.4h.01M215.1 212.3h.01M209.5 89.3h.01M252.7 112.9h.01M130.2 186.5h.01M162.1 232.1h.01M358.6 162.7h.01M69.0 397.3h.01M0.4 240.7h.01M139.1 381.0h.01M188.8 254.5h.01M214.3 184.2h.01M221.2 202.1h.01M221.3 216.1h.01M235.4 202.2h.01M256.6 428.3h.01M126.9 205.2h.01M207.9 156.5h.01M265.4 201.5h.01M212.4 97.1h.01M39.8 366.0h.01M136.1 185.4h.01M235.3 166.6h.01M132.3 363.2h.01M177.2 279.7h.01M199.8 123.6h.01M220.9 195.3h.01M214.8 225.3h.01M170.4 260.8h.01M229.6 130.5h.01M124.8 159.5h.01M150.8 125.9h.01M225.2 184.6h.01M177.6 189.9h.01M126.6 349.5h.01M130.8 156.4h.01M214.1 154.9h.01M202.0 234.7h.01M106.6 216.0h.01M227.9 112.2h.01M171.2 197.0h.01M165.0 244.4h.01M126.3 376.9h.01M264.0 157.7h.01M175.1 85.0h.01M156.6 141.4h.01M122.0 351.3h.01M173.2 99.2h.01M167.2 97.7h.01M191.6 227.5h.01M105.1 238.6h.01M182.5 146.0h.01M146.8 178.2h.01M239.4 104.4h.01M199.1 284.3h.01M212.7 385.5h.01M183.2 226.0h.01M190.2 213.9h.01M95.0 195.4h.01M133.5 356.5h.01M221.7 208.9h.01M170.6 105.3h.01M240.0 162.8h.01M241.0 116.5h.01M271.2 217.3h.01M86.6 85.9h.01M206.7 186.3h.01M207.8 285.9h.01M154.7 221.9h.01M238.7 123.6h.01M151.8 137.2h.01M0.4 179.1h.01M196.5 159.3h.01M152.6 181.7h.01M210.9 392.0h.01M200.5 186.3h.01M218.4 167.1h.01M242.3 151.7h.01M202.4 90.9h.01M143.8 138.8h.01M187.6 88.9h.01M182.9 92.7h.01M253.0 205.8h.01M184.5 232.2h.01M97.3 418.3h.01M142.6 184.0h.01M163.4 251.3h.01M187.6 96.9h.01M33.0 359.8h.01M92.5 207.5h.01M174.9 130.3h.01M217.3 127.2h.01M36.0 348.7h.01M154.1 130.7h.01M176.6 232.8h.01M151.6 379.7h.01M255.7 217.9h.01M91.8 417.1h.01M158.9 257.8h.01M126.6 363.3h.01M226.7 49.0h.01M137.9 158.8h.01M216.5 390.8h.01M311.4 379.1h.01M188.9 220.9h.01M101.0 235.3h.01M217.6 173.4h.01M206.6 96.5h.01M147.4 120.4h.01M216.5 148.2h.01M169.3 230.2h.01M173.6 393.7h.01M138.3 345.7h.01M234.7 209.5h.01M129.8 353.1h.01M0.4 264.8h.01M208.8 217.0h.01M196.7 145.5h.01M219.1 180.2h.01M205.3 251.4h.01M122.7 427.8h.01M233.6 99.3h.01M238.9 393.2h.01M224.1 167.3h.01M223.0 0.4h.01M148.2 143.0h.01M86.9 414.8h.01M243.7 128.2h.01M248.7 429.1h.01M256.9 124.6h.01M157.6 373.0h.01M161.2 96.2h.01M149.5 171.5h.01M182.0 137.2h.01M198.6 85.3h.01M196.4 200.6h.01M156.1 234.8h.01M172.1 239.5h.01M208.1 163.7h.01M244.5 158.6h.01M247.7 115.9h.01M149.2 200.8h.01M211.7 279.4h.01M221.1 154.3h.01M90.3 0.4h.01M219.4 261.2h.01M239.1 56.2h.01M151.3 207.4h.01M146.9 391.5h.01M77.7 208.9h.01M263.2 193.8h.01M164.9 109.5h.01M251.9 137.6h.01M133.4 214.9h.01M226.0 190.8h.01M255.0 149.3h.01M228.6 205.3h.01M229.4 147.5h.01M157.5 397.5h.01M256.9 187.6h.01M226.3 139.1h.01M219.5 161.0h.01M75.7 146.7h.01M133.1 208.3h.01M234.0 398.2h.01M182.3 129.5h.01M189.1 198.1h.01M179.5 96.7h.01M237.2 262.8h.01M190.9 35.5h.01M193.2 119.5h.01M159.6 239.9h.01M260.0 242.6h.01M290.2 407.8h.01M259.9 206.8h.01M218.8 240.8h.01M160.7 147.0h.01M203.2 198.6h.01M282.7 150.1h.01M0.4 132.8h.01M221.6 283.4h.01M168.2 212.6h.01M256.2 143.6h.01M189.5 148.3h.01M91.1 225.7h.01M266.5 243.2h.01M101.1 221.1h.01M216.2 92.5h.01M168.6 145.8h.01M290.0 344.3h.01M214.8 219.1h.01M220.9 222.8h.01M165.1 121.2h.01M231.5 189.1h.01M261.3 221.2h.01M228.4 198.1h.01M135.4 191.2h.01M248.8 148.5h.01M82.3 411.7h.01M144.9 236.3h.01M162.5 225.1h.01M268.7 418.3h.01M32.7 355.4h.01M85.3 189.1h.01M169.4 254.0h.01M252.9 120.0h.01M181.7 256.3h.01M262.3 235.2h.01M110.8 427.4h.01M175.6 253.7h.01M116.8 429.1h.01M200.9 151.7h.01M73.6 312.2h.01M202.7 214.2h.01M189.7 112.8h.01M183.1 194.8h.01M137.1 360.9h.01M46.2 374.9h.01M148.2 152.3h.01M205.7 392.5h.01M358.6 203.5h.01M127.0 190.5h.01M178.5 0.4h.01M134.1 222.1h.01M196.1 220.0h.01M213.5 290.2h.01M249.7 154.6h.01M209.4 127.7h.01M156.4 389.7h.01M183.1 250.0h.01M176.0 142.4h.01M0.4 218.9h.01M255.8 225.2h.01M131.4 373.7h.01M145.1 158.9h.01M208.7 148.8h.01M256.9 155.0h.01M237.4 145.8h.01M207.2 136.5h.01M245.8 101.1h.01M141.7 132.1h.01M209.5 115.0h.01M205.0 228.9h.01M157.0 383.5h.01M141.2 153.2h.01M152.1 393.8h.01M170.5 247.4h.01M32.4 351.6h.01M152.7 147.6h.01M76.9 305.4h.01M214.6 109.8h.01M263.0 215.1h.01M250.0 126.1h.01M152.0 159.0h.01M268.6 0.4h.01M205.9 386.0h.01M155.6 121.3h.01M157.3 251.8h.01M237.6 389.2h.01"/>
<path stroke="#1a1a1a" stroke-width="2.37" stroke-linecap="round" fill="none" d="M199.1 38.4h.01M175.7 273.8h.01M198.4 168.5h.01M154.2 260.9h.01M243.0 291.9h.01M223.2 429.4h.01M189.5 60.6h.01M212.6 297.3h.01M219.4 289.4h.01M282.8 142.3h.01M183.6 36.2h.01M193.8 375.6h.01M240.1 296.5h.01M132.7 333.5h.01M182.6 356.0h.01M79.6 220.4h.01M85.3 240.0h.01M66.9 200.0h.01M140.9 117.8h.01M141.6 342.1h.01M230.8 412.2h.01M112.7 341.5h.01M70.9 387.9h.01M236.6 303.2h.01M238.0 60.3h.01M147.6 361.4h.01M199.9 57.7h.01M193.4 57.2h.01M114.0 291.8h.01M267.7 117.4h.01M270.2 249.0h.01M191.0 47.1h.01M268.4 141.2h.01M106.8 130.7h.01M91.6 213.3h.01M109.6 262.7h.01M233.0 314.3h.01M141.8 250.1h.01M217.8 80.8h.01M151.6 257.1h.01M146.1 340.4h.01M141.4 240.6h.01M201.3 68.5h.01M295.8 396.9h.01M181.9 279.8h.01M120.3 337.1h.01M113.8 189.4h.01M121.0 325.4h.01M143.0 73.4h.01M223.6 300.7h.01M186.1 68.3h.01M184.3 62.7h.01M196.4 53.5h.01M240.9 168.2h.01M116.0 135.4h.01M161.6 59.5h.01M51.7 373.7h.01M222.3 60.2h.01M205.6 70.1h.01M102.1 198.0h.01M203.1 311.0h.01M262.8 92.1h.01M125.9 332.4h.01M110.1 125.0h.01M180.7 57.8h.01M125.1 147.5h.01M109.9 228.4h.01M245.4 165.9h.01M229.9 266.7h.01M275.4 228.0h.01M106.8 273.6h.01M263.5 85.3h.01M125.9 316.0h.01M265.9 182.8h.01M155.0 102.8h.01M236.0 85.0h.01M134.7 176.1h.01M208.9 256.4h.01M100.9 229.3h.01M180.1 360.5h.01M172.5 375.1h.01M173.2 72.3h.01M282.6 137.0h.01M111.9 303.3h.01M116.9 364.3h.01M151.9 251.7h.01M144.7 58.9h.01M280.9 234.6h.01M118.3 354.2h.01M83.0 400.0h.01M122.5 115.3h.01M121.4 374.8h.01M263.4 104.6h.01M240.8 88.2h.01M279.5 131.6h.01M244.4 272.8h.01M227.4 59.3h.01M278.7 193.2h.01M88.3 193.5h.01M226.9 73.1h.01M138.0 165.5h.01M118.3 156.0h.01M166.7 383.6h.01M77.6 176.1h.01M119.1 301.8h.01M281.0 240.1h.01M122.1 109.4h.01M267.9 100.1h.01M136.4 59.7h.01M185.4 74.9h.01M140.8 271.9h.01M108.8 359.2h.01M120.2 360.1h.01M186.2 345.1h.01M121.8 122.1h.01M166.4 357.0h.01M246.5 182.6h.01M106.2 347.8h.01M141.6 337.4h.01M73.1 203.4h.01M118.8 150.9h.01M175.0 49.6h.01M89.4 410.6h.01M235.2 273.0h.01M159.2 84.4h.01M115.3 312.1h.01M215.3 309.4h.01M162.4 402.3h.01M214.6 60.7h.01M119.9 307.9h.01M144.6 83.6h.01M123.4 137.3h.01M98.7 329.4h.01M232.7 308.5h.01M159.1 292.1h.01M166.1 266.0h.01M178.7 351.3h.01M232.9 61.2h.01M188.7 308.5h.01M112.3 133.3h.01M229.8 256.0h.01M156.8 429.2h.01M250.2 214.5h.01M172.9 265.7h.01M299.3 386.7h.01M148.6 287.2h.01M159.5 343.3h.01M214.0 252.2h.01M160.5 264.3h.01M184.9 302.6h.01M118.2 140.1h.01M220.3 70.4h.01M168.2 371.3h.01M197.2 72.4h.01M110.4 329.9h.01M117.9 297.1h.01M171.3 184.7h.01M273.3 190.4h.01M127.1 142.3h.01M229.6 281.6h.01M85.3 406.5h.01M171.0 164.3h.01M204.1 262.9h.01M146.2 335.2h.01M138.3 127.1h.01M138.3 136.3h.01M171.0 270.7h.01M131.1 326.3h.01M136.3 252.1h.01M103.8 65.3h.01M115.0 337.9h.01M274.6 148.6h.01M218.6 57.5h.01M211.3 321.1h.01M200.6 51.4h.01M110.2 346.6h.01M110.3 109.9h.01M263.4 187.6h.01M190.4 265.3h.01M216.6 380.9h.01M111.7 362.9h.01M155.2 403.3h.01M268.9 106.8h.01M149.3 56.1h.01M128.7 84.0h.01M86.4 178.8h.01M44.0 361.4h.01M227.1 318.3h.01M274.1 184.4h.01M113.7 332.8h.01M218.5 230.2h.01M113.9 351.2h.01M275.6 232.9h.01M159.5 55.4h.01M199.1 180.9h.01M246.4 266.9h.01M68.9 178.0h.01M229.4 87.7h.01M257.5 74.9h.01M199.2 276.6h.01M111.0 315.2h.01M241.1 76.9h.01M186.9 370.9h.01M207.8 76.0h.01M260.4 80.6h.01M112.9 367.4h.01M272.7 414.0h.01M243.3 61.4h.01M100.4 334.4h.01M121.8 201.7h.01M42.7 370.2h.01M116.3 370.2h.01M127.9 305.1h.01M253.3 242.4h.01M205.3 374.4h.01M128.0 94.1h.01M126.4 126.0h.01M138.4 65.1h.01M206.3 398.6h.01M159.6 78.9h.01M150.6 98.6h.01M186.5 362.2h.01M106.3 125.7h.01M234.1 178.0h.01M180.4 69.3h.01M129.7 150.5h.01M161.8 181.4h.01M195.3 61.3h.01M281.3 166.3h.01M226.9 245.9h.01M264.4 168.1h.01M111.3 115.4h.01M229.0 416.2h.01M230.7 323.3h.01M250.9 78.7h.01M225.9 269.3h.01M193.3 310.4h.01M145.5 426.2h.01M168.5 402.9h.01M246.1 228.7h.01M143.3 245.5h.01M255.6 231.8h.01M176.5 355.8h.01M248.1 274.9h.01M133.8 234.1h.01M224.8 256.6h.01M250.2 67.1h.01M239.0 310.6h.01M124.1 339.8h.01M273.9 154.3h.01M253.6 160.1h.01M267.9 190.4h.01M161.2 358.8h.01M203.9 61.9h.01M134.0 65.2h.01M241.2 316.3h.01M152.5 59.2h.01M120.1 82.0h.01M273.9 142.4h.01M275.6 207.2h.01M189.8 79.0h.01M87.4 402.2h.01M207.0 40.0h.01M277.6 410.9h.01M142.0 333.1h.01M157.3 90.0h.01M214.4 54.4h.01M260.8 98.0h.01M116.8 118.4h.01M241.6 201.6h.01M133.2 89.9h.01M134.5 342.8h.01M254.2 95.1h.01M206.4 317.0h.01M237.3 73.1h.01M250.4 266.0h.01M156.2 58.8h.01M91.8 289.5h.01M131.4 262.8h.01M146.0 351.1h.01M87.0 292.8h.01M113.7 178.4h.01M188.2 290.5h.01M152.0 425.6h.01M191.5 71.9h.01M198.6 292.8h.01M37.0 356.8h.01M270.9 146.3h.01M199.8 370.1h.01M170.5 48.1h.01M118.2 347.7h.01M240.2 272.7h.01M116.5 304.9h.01M241.4 70.0h.01M171.5 54.2h.01M167.2 272.5h.01M128.4 210.7h.01M174.4 66.8h.01M52.2 369.6h.01M106.7 302.3h.01M76.7 231.7h.01M63.7 388.5h.01M262.7 141.4h.01M215.1 44.0h.01M128.9 107.7h.01M266.0 129.3h.01M220.5 251.5h.01M191.5 187.4h.01M247.8 242.9h.01M74.6 395.3h.01M117.5 166.6h.01M171.9 428.1h.01M119.9 87.3h.01M111.2 320.3h.01M174.5 370.0h.01M113.3 308.2h.01M201.6 257.4h.01M140.2 96.9h.01M164.7 362.4h.01M114.4 357.7h.01M168.9 168.5h.01M134.4 429.0h.01M146.5 254.5h.01M130.1 130.8h.01M121.3 331.3h.01M120.0 293.8h.01M129.1 269.3h.01M243.1 179.1h.01M166.1 56.4h.01M124.3 79.0h.01M231.0 288.0h.01M108.7 134.7h.01M122.3 188.1h.01M231.3 373.7h.01M116.5 202.3h.01M134.0 228.4h.01M181.4 186.2h.01M169.9 84.3h.01M143.7 265.3h.01M228.2 305.0h.01M176.7 379.3h.01M246.5 71.1h.01M105.8 320.9h.01M140.4 90.5h.01M73.2 175.5h.01M111.1 138.7h.01M219.7 372.8h.01M193.3 294.4h.01M234.2 184.6h.01M277.7 262.0h.01M218.4 234.6h.01M132.4 316.4h.01M127.6 324.8h.01M297.8 349.4h.01M218.1 277.3h.01M165.6 282.6h.01M273.5 178.9h.01M257.4 103.6h.01M225.3 373.1h.01M251.8 184.0h.01M300.7 380.9h.01M191.9 361.4h.01M139.6 81.0h.01M255.4 281.6h.01M154.5 290.2h.01M151.9 245.3h.01M174.2 284.6h.01M107.9 286.0h.01M231.2 244.8h.01M143.5 171.3h.01M164.9 85.4h.01M80.4 236.7h.01M127.6 73.4h.01M184.6 379.8h.01M114.1 93.0h.01M242.3 429.6h.01M120.8 313.4h.01M107.0 296.2h.01M79.2 394.6h.01M202.8 220.9h.01M142.0 107.4h.01M121.1 342.3h.01M158.3 63.3h.01M246.4 88.1h.01M164.3 70.6h.01M160.9 67.2h.01M110.0 299.4h.01M144.6 69.0h.01M119.9 127.9h.01M282.7 407.0h.01M184.7 48.6h.01M107.0 249.8h.01M184.7 160.6h.01M105.4 259.7h.01M182.1 307.6h.01M204.4 368.5h.01M144.8 290.5h.01M185.4 366.9h.01M183.3 374.5h.01M83.7 196.4h.01M136.4 325.2h.01M138.5 267.0h.01M245.5 223.5h.01M258.6 86.2h.01M239.1 397.5h.01M225.2 387.7h.01M249.6 285.2h.01M166.0 345.6h.01M150.3 233.2h.01M172.4 289.4h.01M113.3 152.0h.01M71.3 219.8h.01M139.1 102.7h.01M226.9 285.4h.01M193.2 193.6h.01M174.5 178.7h.01M279.9 218.3h.01M128.9 113.3h.01M214.0 258.8h.01M80.5 180.4h.01M178.1 374.5h.01M156.3 359.2h.01M223.8 323.1h.01M262.7 419.5h.01M269.7 186.1h.01M155.4 339.7h.01M262.2 135.4h.01M150.7 273.9h.01M215.0 368.4h.01M305.8 379.2h.01M129.4 335.6h.01M192.0 355.1h.01M172.8 343.0h.01M241.2 207.4h.01M144.3 286.4h.01M117.9 212.8h.01M278.0 140.7h.01M196.2 188.6h.01M127.8 421.5h.01M109.1 158.5h.01M198.2 400.4h.01M152.2 108.4h.01M198.1 382.0h.01M141.5 255.5h.01M145.6 94.9h.01M94.0 244.7h.01M123.2 303.4h.01M142.3 113.1h.01M178.6 63.4h.01M119.7 132.8h.01M222.0 267.4h.01M135.1 169.1h.01M117.0 423.7h.01M255.8 78.5h.01M239.2 283.5h.01M248.5 94.2h.01M162.6 380.4h.01M268.8 195.4h.01M140.9 261.2h.01M145.5 366.5h.01M163.7 279.4h.01M117.7 341.9h.01M36.6 352.4h.01M275.1 131.4h.01M278.3 188.1h.01M128.9 218.8h.01M166.2 389.6h.01M271.9 136.1h.01M172.6 36.2h.01M138.8 329.7h.01M215.3 75.0h.01M185.4 267.0h.01M264.8 415.2h.01M251.2 73.9h.01M277.3 136.1h.01M104.9 203.2h.01M250.5 222.0h.01M162.2 50.7h.01M123.2 97.6h.01M163.5 301.9h.01M118.3 197.2h.01M144.1 54.0h.01M165.1 185.9h.01M223.3 273.7h.01M151.8 279.0h.01M106.0 208.9h.01M124.1 416.5h.01M178.5 35.9h.01M248.3 82.6h.01M73.6 197.7h.01M259.1 160.2h.01M254.1 70.8h.01M132.1 144.3h.01M151.1 367.9h.01M189.7 271.8h.01M190.8 349.2h.01M164.1 165.4h.01M119.8 103.3h.01M166.7 50.6h.01M227.4 377.8h.01M209.2 58.4h.01M105.9 136.9h.01M110.5 336.4h.01M113.0 168.0h.01M154.8 350.3h.01M195.4 78.7h.01M167.7 173.7h.01M136.9 257.1h.01M206.6 298.3h.01M122.2 142.3h.01M124.4 183.2h.01M206.3 305.0h.01M39.0 361.1h.01M183.8 297.9h.01M149.6 264.4h.01M204.6 54.8h.01M242.6 185.9h.01M225.0 64.5h.01M240.4 249.6h.01M138.1 121.8h.01M67.9 390.4h.01M114.9 146.5h.01M208.2 168.7h.01M127.9 89.1h.01M193.6 279.5h.01M176.6 365.1h.01M152.1 284.1h.01M128.8 244.8h.01M278.4 182.1h.01M204.9 171.8h.01M129.0 99.5h.01M242.9 300.5h.01M113.8 193.9h.01M85.5 225.6h.01M247.1 290.4h.01M125.5 381.9h.01M147.2 248.9h.01M211.2 81.6h.01M195.3 183.2h.01M151.4 92.0h.01M170.9 61.1h.01M119.8 146.2h.01M147.5 41.4h.01M193.9 288.1h.01M133.7 83.2h.01M168.6 378.1h.01M277.6 201.6h.01M124.7 213.7h.01M273.1 162.7h.01M67.2 193.6h.01M209.2 64.7h.01M227.1 425.8h.01M124.0 153.5h.01M157.0 270.6h.01M120.9 370.1h.01M135.0 130.9h.01M195.8 388.6h.01M124.0 222.2h.01M234.1 283.0h.01M158.0 178.1h.01M70.1 213.0h.01M180.4 369.6h.01M134.5 96.0h.01M252.3 88.2h.01M180.1 48.8h.01M150.5 353.5h.01M162.0 270.3h.01M291.2 397.0h.01M208.8 234.8h.01M136.7 334.1h.01M217.9 302.1h.01M155.7 300.8h.01M229.6 93.6h.01M191.3 65.7h.01M91.3 406.2h.01M190.1 300.0h.01M235.1 256.8h.01M122.8 346.3h.01M193.6 394.9h.01M203.9 176.1h.01M122.0 217.8h.01M221.7 246.6h.01M263.2 254.1h.01M136.2 273.8h.01M201.0 176.0h.01M112.6 295.9h.01M146.8 88.4h.01M315.6 370.1h.01M152.2 85.2h.01M135.6 239.1h.01M187.8 305.2h.01M168.2 74.2h.01M187.7 357.4h.01M148.6 62.7h.01M54.0 383.6h.01M187.3 191.0h.01M125.2 309.4h.01M177.9 389.2h.01M138.7 235.9h.01M79.7 106.0h.01M235.4 288.2h.01M152.7 356.8h.01M270.7 112.6h.01M220.1 367.8h.01M137.2 286.5h.01M240.2 229.7h.01M148.1 73.5h.01M180.8 275.1h.01M133.1 337.9h.01M100.9 264.0h.01M208.1 292.7h.01M100.6 192.4h.01M187.9 50.8h.01M194.7 164.8h.01M245.9 76.4h.01M243.8 285.6h.01M189.8 312.7h.01M247.1 204.0h.01M115.8 88.8h.01M154.5 66.2h.01M110.2 120.1h.01M217.7 320.9h.01M244.6 279.5h.01M213.2 168.3h.01M133.5 103.3h.01M234.8 295.8h.01M265.9 146.5h.01M165.4 62.7h.01M134.2 423.9h.01M98.2 201.5h.01M163.4 367.6h.01M108.6 342.2h.01M239.3 196.6h.01M279.5 146.0h.01M252.7 100.4h.01M113.6 128.8h.01M152.7 362.8h.01M134.0 322.1h.01M113.5 101.7h.01M197.1 355.1h.01M208.8 310.9h.01M140.7 60.6h.01M167.6 425.6h.01M279.8 212.7h.01M129.8 67.5h.01M115.7 107.0h.01M147.8 297.9h.01M116.4 207.4h.01M182.7 288.5h.01M117.7 333.8h.01M238.7 290.3h.01M149.7 79.6h.01M84.9 208.4h.01M131.1 274.0h.01M186.1 56.8h.01M124.1 85.4h.01M109.4 353.3h.01M155.1 275.5h.01M182.3 292.9h.01M116.6 328.9h.01M134.0 117.0h.01M139.9 278.5h.01M274.8 222.5h.01M110.0 238.9h.01M111.9 421.3h.01M107.2 338.5h.01M140.2 423.9h.01M190.5 367.6h.01M147.0 108.8h.01M240.7 213.8h.01M149.6 429.6h.01M184.0 283.8h.01M191.6 384.8h.01M182.2 346.9h.01M281.0 198.5h.01M177.5 53.6h.01M109.4 325.3h.01M244.1 426.2h.01M132.3 124.0h.01M263.3 122.6h.01M145.2 278.3h.01M289.9 401.7h.01M274.0 237.8h.01M245.5 217.4h.01M186.2 44.9h.01M318.4 366.2h.01M163.4 340.2h.01M145.4 346.0h.01M156.5 283.5h.01M129.3 311.8h.01M124.6 178.0h.01M189.4 390.8h.01M117.7 181.9h.01M101.4 422.2h.01M119.0 93.5h.01M114.7 300.1h.01M157.9 72.8h.01M129.0 137.1h.01M138.0 86.0h.01M281.3 206.4h.01M150.4 348.9h.01M190.3 54.3h.01M154.9 79.8h.01M118.2 160.9h.01M63.0 383.4h.01M201.6 77.2h.01M113.2 156.8h.01M275.8 159.0h.01M275.0 171.9h.01M172.3 78.7h.01M209.5 52.7h.01M234.0 250.2h.01M136.0 110.4h.01M142.0 361.4h.01M196.0 299.4h.01M117.4 186.8h.01M159.6 336.2h.01M153.0 73.1h.01M141.0 44.5h.01M246.4 210.3h.01M71.0 393.1h.01M215.0 66.7h.01M233.9 172.6h.01M223.8 236.6h.01M75.8 131.1h.01M183.0 53.0h.01M279.8 170.2h.01M106.2 267.3h.01M116.3 112.4h.01M115.4 172.8h.01M134.2 77.5h.01M71.4 186.8h.01M157.4 51.3h.01M95.8 183.2h.01M200.6 389.9h.01M267.0 135.5h.01M236.6 429.8h.01M170.0 360.9h.01M108.8 280.5h.01M249.6 247.3h.01M138.5 180.2h.01M249.1 163.0h.01M77.8 399.6h.01M231.4 261.3h.01M207.7 176.5h.01M140.0 174.8h.01M266.8 89.7h.01M281.5 127.0h.01M111.4 248.7h.01M58.9 381.3h.01M158.7 297.1h.01M274.0 119.7h.01M173.0 278.4h.01M127.5 173.9h.01M175.3 58.7h.01M109.5 291.3h.01M255.5 237.3h.01M138.6 75.4h.01M219.8 386.7h.01M125.0 336.1h.01M169.8 283.0h.01M131.6 256.5h.01M235.2 319.2h.01M268.5 150.9h.01M200.1 171.7h.01M143.8 371.7h.01M171.5 355.2h.01M134.2 329.4h.01M109.0 254.3h.01M122.6 165.2h.01M129.2 340.1h.01M150.2 344.0h.01M163.3 374.2h.01M165.5 79.8h.01M143.4 165.2h.01M95.7 412.2h.01M206.5 323.4h.01M175.0 170.1h.01M259.5 250.2h.01M180.3 384.2h.01M118.9 192.0h.01M222.8 382.3h.01M185.8 396.3h.01M104.1 252.9h.01M172.8 383.2h.01M178.7 285.4h.01M84.3 232.6h.01M255.4 253.4h.01M157.7 245.4h.01M233.5 68.5h.01M231.8 73.8h.01M283.4 131.9h.01M179.0 74.8h.01M192.7 400.5h.01M211.5 70.8h.01M181.9 364.7h.01M250.4 279.7h.01M108.5 166.7h.01M164.3 429.5h.01M278.4 151.1h.01M93.2 201.8h.01M155.3 265.7h.01M153.3 305.1h.01M172.9 174.1h.01M124.7 321.4h.01M133.0 243.6h.01M122.0 171.4h.01M116.0 317.1h.01M223.4 84.0h.01M237.7 191.6h.01M129.2 78.7h.01M146.7 356.4h.01M157.5 354.1h.01M257.5 139.0h.01M267.9 255.3h.01M203.6 380.3h.01M214.8 375.0h.01M268.8 260.9h.01M121.8 421.2h.01M133.5 71.8h.01M40.6 353.7h.01M128.8 226.1h.01M131.5 249.4h.01M221.4 377.5h.01M91.3 179.9h.01M115.4 123.7h.01M311.3 373.6h.01M155.8 96.1h.01M226.2 68.9h.01M119.9 77.1h.01M130.3 344.7h.01M227.9 383.0h.01M112.8 199.1h.01M54.5 377.9h.01M114.6 345.7h.01M141.1 283.0h.01M96.1 406.7h.01M84.5 183.9h.01M245.2 65.7h.01M144.6 78.1h.01M281.2 160.5h.01M115.2 324.1h.01M232.1 51.9h.01M235.2 326.2h.01M220.2 315.4h.01M254.3 83.2h.01M218.6 295.4h.01M277.9 163.5h.01M242.3 267.0h.01M186.1 351.7h.01M150.6 333.9h.01M228.5 232.8h.01M210.0 372.0h.01M242.8 94.2h.01M211.8 303.8h.01M123.1 91.4h.01M148.4 115.0h.01M209.3 262.2h.01M176.8 346.0h.01M227.2 421.0h.01M179.5 265.6h.01M147.2 241.9h.01M162.5 75.2h.01M218.6 256.1h.01M279.7 155.5h.01M108.7 310.9h.01M149.7 67.7h.01M114.1 141.6h.01M119.5 176.8h.01M197.8 65.2h.01M243.1 191.6h.01M101.2 68.0h.01M66.2 188.4h.01M230.9 82.2h.01M181.4 270.4h.01M221.8 308.2h.01M146.3 260.2h.01M126.2 343.9h.01M122.3 365.5h.01M62.4 338.4h.01M107.7 243.6h.01M263.8 112.2h.01M279.0 251.4h.01M193.7 260.5h.01M140.4 289.3h.01M119.9 319.5h.01M239.3 322.7h.01M133.6 268.4h.01M219.8 64.5h.01M255.3 247.5h.01M201.5 298.6h.01M90.4 241.5h.01M248.9 423.9h.01M146.2 102.1h.01M140.9 429.2h.01M158.8 279.7h.01M221.8 76.1h.01M99.7 287.2h.01M168.6 67.2h.01M296.8 392.1h.01M169.0 277.5h.01M81.4 102.6h.01M184.8 82.4h.01M161.4 393.8h.01M125.0 131.9h.01M230.0 64.8h.01M127.8 166.9h.01M198.8 263.1h.01M112.6 162.6h.01M271.9 242.5h.01M227.2 78.6h.01M275.5 125.7h.01M125.0 103.6h.01M187.7 294.8h.01M187.5 260.1h.01M194.5 274.5h.01M83.1 95.6h.01M224.6 241.2h.01M68.8 207.1h.01M58.5 375.3h.01M158.7 363.6h.01M248.3 295.7h.01M200.1 304.8h.01M231.8 379.5h.01M180.0 170.3h.01M171.8 349.6h.01M187.3 278.0h.01M117.6 98.4h.01M269.3 123.6h.01M123.7 356.6h.01M269.6 159.8h.01M129.8 330.7h.01M251.0 192.3h.01M193.1 50.5h.01M138.6 69.8h.01M257.7 91.5h.01M229.5 272.3h.01M109.2 306.4h.01M163.9 176.9h.01M235.9 91.9h.01M276.9 177.1h.01M257.8 420.6h.01M150.4 291.0h.01M279.9 244.3h.01M135.9 261.8h.01M242.3 82.4h.01M137.2 339.2h.01M203.6 166.7h.01M41.7 357.2h.01M122.0 207.9h.01M274.3 196.4h.01M100.4 257.4h.01M112.8 286.3h.01M125.3 328.2h.01M73.4 225.7h.01M74.0 191.4h.01M146.9 282.4h.01M132.0 162.2h.01M150.7 338.9h.01M143.2 64.8h.01M127.7 119.4h.01M174.9 360.7h.01M199.4 375.4h.01M238.1 65.2h.01M226.5 312.2h.01M168.2 342.4h.01M145.7 269.3h.01M66.7 183.1h.01M163.8 275.3h.01M235.4 78.6h.01M270.9 129.3h.01M199.5 164.0h.01M138.6 231.2h.01M233.9 268.6h.01"/>
<path stroke="#1a1a1a" stroke-width="2.86" stroke-linecap="round" fill="none" d="M101.3 363.7h.01M101.2 154.5h.01M213.8 325.7h.01M70.2 323.3h.01M187.3 329.3h.01M152.9 296.3h.01M204.0 48.6h.01M249.4 387.1h.01M120.4 231.3h.01M139.6 419.5h.01M170.7 317.5h.01M119.5 259.9h.01M112.5 184.8h.01M239.5 385.7h.01M155.0 309.0h.01M232.8 383.9h.01M159.6 275.1h.01M105.4 306.5h.01M143.0 416.3h.01M255.9 295.2h.01M191.4 319.8h.01M283.7 342.3h.01M72.6 361.6h.01M191.0 39.5h.01M271.6 371.3h.01M271.8 291.0h.01M177.9 315.4h.01M95.8 177.8h.01M106.8 420.2h.01M258.2 291.3h.01M289.0 392.8h.01M238.7 254.4h.01M279.0 402.5h.01M139.2 297.4h.01M130.4 410.9h.01M208.4 327.7h.01M116.2 418.0h.01M93.8 144.3h.01M63.3 377.9h.01M168.4 322.3h.01M136.9 247.4h.01M48.7 353.6h.01M272.9 102.0h.01M143.2 395.0h.01M90.2 167.1h.01M185.4 312.4h.01M197.2 320.7h.01M138.7 49.8h.01M109.5 189.2h.01M172.5 324.3h.01M98.0 137.0h.01M267.9 370.6h.01M111.1 210.4h.01M283.3 364.6h.01M197.7 360.1h.01M106.7 141.8h.01M305.8 373.9h.01M86.9 368.6h.01M161.8 354.0h.01M109.0 385.5h.01M170.6 308.8h.01M109.6 93.1h.01M235.4 372.9h.01M145.1 303.2h.01M87.0 375.7h.01M88.3 135.6h.01M229.8 387.4h.01M42.2 350.8h.01M106.3 92.4h.01M201.2 352.9h.01M100.2 175.1h.01M292.5 392.3h.01M186.9 333.4h.01M75.7 351.9h.01M234.8 239.3h.01M219.3 326.9h.01M95.9 353.4h.01M127.0 265.0h.01M82.5 380.3h.01M132.6 306.4h.01M159.2 349.0h.01M243.8 422.8h.01M268.2 265.9h.01M115.5 75.4h.01M182.5 429.1h.01M126.7 236.7h.01M123.3 61.2h.01M135.8 290.9h.01M266.1 280.7h.01M100.2 180.0h.01M103.2 294.5h.01M102.0 132.5h.01M104.2 157.4h.01M159.1 414.6h.01M176.8 291.3h.01M256.8 286.5h.01M94.8 159.1h.01M97.2 373.2h.01M78.4 118.4h.01M172.7 295.5h.01M94.4 370.5h.01M272.4 367.6h.01M272.3 258.6h.01M99.6 251.7h.01M259.9 375.6h.01M176.0 304.9h.01M52.1 351.1h.01M92.3 355.3h.01M163.4 316.0h.01M71.6 357.6h.01M203.8 274.0h.01M126.1 241.8h.01M222.8 232.4h.01M260.3 274.0h.01M103.5 378.5h.01M98.7 367.4h.01M206.5 337.9h.01M200.5 316.2h.01M245.8 251.2h.01M270.0 180.9h.01M93.6 78.4h.01M67.9 384.9h.01M265.1 277.3h.01M89.0 362.7h.01M235.1 351.6h.01M100.3 167.2h.01M251.1 228.2h.01M206.3 332.7h.01M135.5 279.0h.01M68.1 330.2h.01M110.1 144.4h.01M146.1 409.8h.01M104.2 171.0h.01M109.7 76.1h.01M202.9 362.8h.01M140.9 325.6h.01M259.1 260.3h.01M135.9 283.3h.01M106.3 113.7h.01M129.4 416.1h.01M120.3 52.6h.01M131.4 278.6h.01M147.6 45.7h.01M279.2 117.9h.01M172.8 320.9h.01M107.4 389.0h.01M251.8 322.4h.01M248.1 341.4h.01M182.2 314.2h.01M262.2 294.4h.01M276.2 252.9h.01M179.3 396.3h.01M104.2 342.6h.01M275.0 245.4h.01M94.4 149.4h.01M80.4 172.5h.01M259.8 268.9h.01M77.9 355.7h.01M87.5 145.3h.01M89.1 355.4h.01M111.4 381.9h.01M82.2 153.7h.01M103.9 150.7h.01M115.4 278.6h.01M255.2 382.6h.01M99.1 384.3h.01M167.2 38.1h.01M103.5 298.6h.01M115.7 273.8h.01M121.9 264.2h.01M108.2 199.2h.01M131.0 238.7h.01M251.4 312.7h.01M122.7 412.5h.01M257.8 311.1h.01M137.2 319.5h.01M102.9 282.0h.01M253.8 325.3h.01M197.8 176.2h.01M176.0 164.8h.01M111.5 276.1h.01M98.6 127.4h.01M131.3 283.1h.01M81.4 298.7h.01M263.8 259.1h.01M253.4 419.8h.01M95.8 357.7h.01M104.1 368.0h.01M177.0 45.0h.01M121.0 384.0h.01M151.5 269.5h.01M96.5 289.5h.01M100.9 106.9h.01M122.5 271.5h.01M112.5 215.1h.01M185.8 318.2h.01M243.1 245.6h.01M104.9 190.0h.01M104.7 355.4h.01M243.6 345.1h.01M139.0 392.6h.01M111.7 89.0h.01M100.5 406.1h.01M207.2 357.1h.01M102.7 248.1h.01M274.5 364.3h.01M248.2 390.1h.01M91.0 175.2h.01M101.4 270.6h.01M257.9 265.0h.01M93.9 113.1h.01M92.4 359.6h.01M147.2 331.0h.01M100.0 324.1h.01M167.6 313.4h.01M115.7 84.0h.01M147.3 416.7h.01M86.3 166.4h.01M178.0 181.9h.01M161.3 425.1h.01M78.9 348.3h.01M181.8 39.7h.01M234.6 56.3h.01M242.0 260.2h.01M96.8 145.9h.01M196.2 349.8h.01M105.4 194.7h.01M138.8 55.1h.01M104.9 104.5h.01M194.9 327.0h.01M220.1 395.5h.01M110.8 204.7h.01M209.4 367.1h.01M244.8 171.4h.01M191.2 333.6h.01M153.5 46.0h.01M85.6 371.7h.01M208.0 362.2h.01M250.1 418.1h.01M195.4 40.8h.01M120.5 67.9h.01M136.4 315.1h.01M139.2 293.5h.01M253.4 257.9h.01M158.6 407.2h.01M105.3 119.6h.01M122.2 245.1h.01M190.3 380.0h.01M82.0 329.5h.01M243.4 255.6h.01M180.1 301.8h.01M113.2 231.7h.01M164.1 289.9h.01M106.2 185.8h.01M86.7 130.0h.01M96.2 381.8h.01M235.9 181.1h.01M156.2 411.0h.01M133.7 418.8h.01M82.8 145.4h.01M258.1 385.4h.01M84.3 295.7h.01M134.7 295.4h.01M71.6 181.9h.01M110.0 105.1h.01M97.3 112.5h.01M95.2 173.3h.01M181.1 318.6h.01M272.9 254.4h.01M208.9 273.9h.01M122.1 240.4h.01M230.4 56.1h.01M119.3 415.0h.01M149.0 50.8h.01M100.4 121.1h.01M119.6 277.6h.01M203.1 328.5h.01M122.2 235.9h.01M117.7 289.7h.01M164.9 308.6h.01M278.5 247.7h.01M313.6 362.8h.01M109.4 194.0h.01M217.2 347.0h.01M120.5 249.7h.01M248.1 320.2h.01M193.6 304.7h.01M280.7 224.5h.01M242.4 403.4h.01M176.4 40.0h.01M268.1 412.3h.01M203.2 335.8h.01M183.1 391.0h.01M105.2 291.0h.01M112.5 270.7h.01M285.4 385.2h.01M101.1 319.3h.01M262.9 388.1h.01M39.4 348.7h.01M85.0 139.0h.01M104.4 329.8h.01M65.7 363.1h.01M103.0 338.2h.01M118.6 269.2h.01M213.1 315.8h.01M151.0 409.1h.01M168.4 292.6h.01M80.3 390.2h.01M286.2 397.4h.01M98.5 401.2h.01M90.7 147.3h.01M94.9 349.1h.01M75.5 181.7h.01M104.5 391.5h.01M88.4 170.7h.01M90.8 347.0h.01M80.3 383.9h.01M116.8 218.0h.01M172.4 43.9h.01M255.8 321.2h.01M261.7 287.4h.01M224.6 289.9h.01M102.6 163.4h.01M257.5 302.1h.01M103.5 351.1h.01M170.2 421.4h.01M124.0 268.2h.01M167.9 298.6h.01M176.9 324.3h.01M267.0 272.0h.01M119.5 286.2h.01M99.4 378.2h.01M68.9 378.0h.01M250.8 327.0h.01M73.1 385.1h.01M163.4 348.8h.01M102.6 142.8h.01M96.4 155.4h.01M255.8 276.1h.01M74.6 355.9h.01M147.9 306.5h.01M247.9 324.8h.01M109.4 171.5h.01M47.7 343.5h.01M125.0 230.9h.01M127.2 299.9h.01M244.3 330.4h.01M186.2 323.3h.01M117.4 235.1h.01M115.7 79.5h.01M225.0 335.4h.01M96.2 391.6h.01M103.1 100.7h.01M176.1 318.9h.01M96.8 108.2h.01M239.9 182.8h.01M200.7 332.8h.01M276.2 406.0h.01M244.2 239.8h.01M223.8 55.0h.01M269.2 269.4h.01M239.8 241.0h.01M92.6 137.1h.01M101.2 160.5h.01M84.8 135.2h.01M239.4 351.6h.01M189.4 374.9h.01M178.1 296.7h.01M94.9 118.4h.01M127.7 253.4h.01M71.4 381.1h.01M246.6 420.4h.01M86.1 154.5h.01M261.1 383.6h.01M163.7 295.3h.01M254.8 414.7h.01M102.1 138.2h.01M71.3 352.9h.01M104.6 311.0h.01M96.3 122.9h.01M269.2 406.6h.01M197.2 48.1h.01M273.7 283.0h.01M272.4 267.1h.01M84.7 159.2h.01M94.8 140.3h.01M270.0 165.9h.01M154.9 345.1h.01M239.0 235.8h.01M104.8 180.9h.01M122.9 255.1h.01M88.9 359.2h.01M128.0 55.8h.01M215.6 330.2h.01M275.0 108.3h.01M296.4 378.9h.01M252.4 273.6h.01M166.8 351.9h.01M230.1 299.0h.01M106.5 162.1h.01M274.5 249.4h.01M110.6 371.1h.01M195.4 173.9h.01M93.9 153.3h.01M223.8 392.3h.01M269.6 381.5h.01M48.1 368.8h.01M127.4 287.1h.01M235.4 377.9h.01M105.0 176.0h.01M214.3 360.8h.01M113.5 235.5h.01M137.7 415.9h.01M238.1 175.6h.01M95.5 376.7h.01M163.0 38.8h.01M285.9 392.5h.01M99.4 359.6h.01M112.4 266.2h.01M244.1 326.5h.01M252.6 290.6h.01M213.2 350.2h.01M310.5 367.6h.01M86.6 351.4h.01M229.7 238.2h.01M228.4 333.0h.01M96.4 362.9h.01M211.1 331.4h.01M242.2 174.2h.01M173.9 300.6h.01M206.2 345.6h.01M86.1 347.4h.01M195.0 315.6h.01M224.9 295.3h.01M258.8 165.1h.01M246.8 261.8h.01M132.2 59.4h.01M238.0 268.0h.01M153.6 40.8h.01M111.5 220.0h.01M88.5 393.3h.01M114.4 228.2h.01M93.0 125.2h.01M224.7 367.5h.01M215.3 49.0h.01M92.8 378.6h.01M86.4 174.3h.01M239.0 426.3h.01M90.9 120.6h.01M301.0 376.1h.01M188.2 286.5h.01M185.2 273.6h.01M279.9 122.6h.01M275.1 167.1h.01M104.6 166.6h.01M233.9 409.1h.01M100.5 146.3h.01M125.5 248.7h.01M140.8 321.1h.01M117.9 243.4h.01M75.0 390.2h.01M194.8 267.8h.01M200.1 44.4h.01M111.3 84.1h.01M175.6 309.1h.01M144.8 420.6h.01M165.8 44.4h.01M260.6 182.8h.01M243.2 306.4h.01M189.3 182.8h.01M232.3 418.0h.01M45.4 352.0h.01M82.5 149.5h.01M190.2 161.6h.01M66.4 375.0h.01M202.2 348.6h.01M270.4 374.1h.01M252.7 303.9h.01M117.9 71.8h.01M90.5 367.2h.01M270.1 385.3h.01M238.5 178.9h.01M251.0 252.3h.01M138.7 311.4h.01M102.1 393.5h.01M167.7 287.1h.01M254.1 165.1h.01M122.8 298.3h.01M233.2 334.9h.01M218.4 271.6h.01M126.5 273.0h.01M109.4 181.9h.01M261.4 283.1h.01M194.5 178.7h.01M266.7 374.6h.01M180.6 164.2h.01M86.9 357.9h.01M102.3 116.0h.01M190.0 166.8h.01M230.1 292.5h.01M84.8 391.1h.01M232.0 329.9h.01M260.1 298.1h.01M82.8 319.4h.01M266.5 163.3h.01M96.4 129.8h.01M227.4 53.1h.01M256.1 315.5h.01M280.4 230.0h.01M107.2 381.7h.01M107.9 100.7h.01M248.3 329.5h.01M87.7 141.3h.01M83.7 395.0h.01M252.0 317.8h.01M228.6 369.3h.01M159.5 45.9h.01M229.9 429.4h.01M105.0 146.4h.01M85.9 365.3h.01M66.8 381.1h.01M187.4 36.6h.01M222.1 49.3h.01M111.5 79.1h.01M259.0 256.3h.01M103.4 286.9h.01M184.2 171.8h.01M251.5 261.9h.01M79.4 352.4h.01M91.6 375.0h.01M106.3 334.0h.01M259.9 278.8h.01M133.2 53.3h.01M119.8 379.7h.01M280.0 362.5h.01M101.7 345.9h.01M101.6 416.3h.01M99.0 150.8h.01M96.8 133.3h.01M273.0 263.6h.01M77.5 387.0h.01M188.7 171.0h.01M123.6 280.2h.01M279.9 376.4h.01M266.5 304.2h.01M263.0 411.4h.01M198.8 327.6h.01M117.6 222.3h.01M239.4 404.8h.01M276.1 113.9h.01M82.1 345.4h.01M78.5 378.8h.01M149.9 301.6h.01M99.0 393.6h.01M218.2 363.0h.01M98.8 141.7h.01M173.2 313.7h.01M123.5 284.7h.01M113.7 69.8h.01M116.8 265.5h.01M147.8 293.8h.01M107.8 153.6h.01M247.8 301.9h.01M252.9 169.6h.01M124.9 67.6h.01M210.0 353.5h.01M236.5 244.8h.01M223.7 329.8h.01M234.0 233.8h.01M116.4 382.5h.01M234.0 426.5h.01M243.9 321.7h.01M237.9 171.2h.01M195.0 44.5h.01M64.6 368.3h.01M158.9 287.5h.01M92.4 363.4h.01M134.0 311.1h.01M237.7 187.4h.01M158.6 330.8h.01M116.4 67.2h.01M132.0 288.0h.01M263.2 290.7h.01M116.3 375.3h.01M119.4 273.6h.01M94.7 401.4h.01M123.4 408.4h.01M104.0 325.3h.01M70.5 364.8h.01M275.3 374.9h.01M265.9 378.8h.01M185.2 166.3h.01M283.6 382.3h.01M68.4 360.1h.01M90.5 157.0h.01M194.9 364.8h.01M105.0 108.9h.01M241.9 394.7h.01M101.2 185.2h.01M118.2 238.4h.01M145.9 273.9h.01M271.7 272.2h.01M190.1 178.9h.01M87.8 379.4h.01M129.9 320.5h.01M82.7 141.7h.01M185.7 385.4h.01M193.9 169.9h.01M85.0 383.2h.01M277.4 366.7h.01M244.3 234.7h.01M88.8 384.2h.01M94.5 366.7h.01M255.5 262.0h.01M101.1 111.4h.01M111.5 377.5h.01M260.2 306.6h.01M123.3 275.5h.01M281.5 368.0h.01M82.3 312.8h.01M113.1 244.1h.01M91.2 400.3h.01M89.3 126.5h.01M45.6 357.0h.01M213.2 364.3h.01M95.1 168.3h.01M237.7 401.3h.01M44.6 347.4h.01M278.2 237.3h.01M180.0 327.6h.01M169.7 337.9h.01M98.9 171.0h.01M235.5 405.2h.01M91.4 133.1h.01M205.5 44.4h.01M92.0 381.8h.01M193.2 323.2h.01M98.2 396.6h.01M265.0 263.6h.01M84.7 333.3h.01M219.5 52.8h.01M73.6 348.7h.01M169.0 304.1h.01M86.3 149.1h.01M125.0 294.8h.01M253.0 390.1h.01M254.5 266.3h.01M98.4 116.2h.01M98.8 158.2h.01M106.2 371.9h.01M89.9 152.0h.01M95.7 325.6h.01M263.7 268.8h.01M160.3 309.1h.01M159.3 304.7h.01M179.4 340.5h.01M252.5 269.8h.01M279.5 371.2h.01M126.6 411.4h.01M242.9 390.2h.01M115.8 248.8h.01M102.3 276.7h.01M104.2 386.9h.01M119.6 63.2h.01M147.3 326.3h.01M66.4 334.5h.01M127.5 50.5h.01M114.8 56.2h.01M119.7 281.4h.01M117.2 226.3h.01M143.4 294.4h.01M115.0 378.9h.01M153.5 51.9h.01M256.4 270.7h.01M156.9 423.9h.01M62.3 372.4h.01M92.3 170.5h.01M143.3 298.7h.01M189.9 316.2h.01M100.2 389.0h.01M151.0 411.9h.01M302.2 351.8h.01M89.7 339.6h.01M249.4 307.7h.01M210.1 335.4h.01M230.0 337.8h.01M266.3 385.5h.01M108.4 87.9h.01M127.1 277.4h.01M52.6 365.3h.01M269.8 276.2h.01M118.4 254.6h.01M277.9 256.7h.01M87.4 343.3h.01M144.0 49.0h.01M245.4 311.5h.01M192.0 330.4h.01M213.4 272.6h.01M267.3 300.6h.01M196.1 331.9h.01M90.8 351.5h.01M273.5 383.2h.01M249.6 237.9h.01M273.7 379.0h.01M76.0 382.7h.01M127.5 281.8h.01M112.2 96.9h.01M89.8 371.7h.01M284.4 402.5h.01M307.5 363.8h.01M272.3 409.2h.01M107.4 96.6h.01M215.2 334.4h.01M261.6 264.3h.01M79.2 332.6h.01M176.8 428.9h.01M269.4 171.0h.01M117.1 231.2h.01M102.8 382.8h.01M268.5 95.2h.01M185.7 185.9h.01M144.7 322.8h.01M249.6 233.1h.01M181.2 322.8h.01M227.7 327.7h.01M266.2 177.7h.01M210.6 347.4h.01M305.7 369.2h.01M112.5 73.3h.01M92.8 385.4h.01M88.1 397.3h.01M248.3 256.8h.01M103.5 374.7h.01M153.8 420.6h.01M282.9 373.9h.01M88.2 161.8h.01M57.3 364.1h.01M254.9 307.8h.01M165.1 335.0h.01M100.8 371.6h.01M170.9 40.1h.01M209.6 48.1h.01M149.1 422.2h.01M214.8 344.7h.01M239.3 344.7h.01M91.0 141.7h.01M112.4 224.0h.01M202.5 40.4h.01M252.8 298.8h.01M175.9 338.3h.01M109.3 148.9h.01M87.0 203.0h.01M247.0 316.1h.01M198.0 310.2h.01M241.1 348.4h.01M162.0 284.5h.01M181.6 43.6h.01M134.5 412.8h.01M242.2 399.6h.01M160.6 313.5h.01M92.6 161.5h.01M101.2 411.1h.01M114.2 254.2h.01M114.2 240.0h.01M48.6 348.6h.01M248.8 176.7h.01M189.9 282.7h.01M45.5 365.4h.01M190.3 43.4h.01M167.0 180.7h.01M138.3 243.6h.01M247.3 344.6h.01M153.6 415.1h.01M244.9 396.7h.01M268.6 367.5h.01M258.4 169.4h.01M239.9 328.1h.01M107.4 377.4h.01M266.2 284.9h.01M245.1 392.6h.01M267.5 309.7h.01M227.1 251.1h.01M115.7 283.0h.01M186.6 40.5h.01M126.0 259.7h.01M166.3 318.9h.01M270.8 175.3h.01M122.3 73.1h.01M201.8 322.3h.01M178.4 311.6h.01M127.9 61.6h.01M133.8 47.4h.01M122.2 226.5h.01M82.0 325.8h.01M143.9 328.4h.01M91.6 164.6h.01M129.7 232.4h.01M98.0 163.0h.01M131.1 389.3h.01M170.4 178.4h.01M261.5 379.5h.01M95.6 165.2h.01M53.5 341.2h.01M277.1 241.5h.01M275.5 370.4h.01M109.7 176.2h.01M281.5 398.8h.01M109.5 374.5h.01M57.2 369.6h.01M111.6 258.1h.01M102.5 125.9h.01M259.8 414.8h.01M83.3 387.1h.01M294.7 387.9h.01M159.1 40.7h.01M220.3 332.9h.01M106.2 316.2h.01M87.1 329.3h.01M210.7 42.8h.01M154.9 333.9h.01M114.8 260.9h.01M89.3 198.7h.01M264.1 273.9h.01M92.5 129.8h.01M234.5 414.2h.01M296.6 383.4h.01"/>
<path stroke="#1a1a1a" stroke-width="3.31" stroke-linecap="round" fill="none" d="M92.2 393.8h.01M288.1 385.7h.01M101.9 307.0h.01M270.5 364.2h.01M114.7 64.1h.01M285.0 378.3h.01M263.0 302.0h.01M126.4 386.7h.01M102.8 73.1h.01M80.1 373.2h.01M97.9 89.9h.01M278.2 394.7h.01M156.7 312.9h.01M82.5 114.7h.01M239.7 333.1h.01M98.2 247.9h.01M254.3 386.7h.01M123.8 394.2h.01M296.3 371.9h.01M150.6 329.3h.01M82.5 349.7h.01M130.2 406.9h.01M264.6 297.6h.01M239.7 355.0h.01M89.7 388.9h.01M82.8 164.1h.01M265.0 369.0h.01M260.3 315.8h.01M108.9 412.6h.01M89.7 332.6h.01M285.6 367.7h.01M224.1 341.9h.01M239.3 409.0h.01M247.7 383.2h.01M256.0 327.8h.01M119.8 391.5h.01M70.8 335.3h.01M86.6 326.0h.01M237.2 336.9h.01M90.5 335.7h.01M241.5 337.5h.01M85.5 108.0h.01M66.4 339.2h.01M96.4 81.5h.01M77.2 328.9h.01M95.0 296.3h.01M228.1 359.2h.01M87.1 104.6h.01M150.2 402.8h.01M270.0 377.3h.01M223.2 363.1h.01M309.9 359.2h.01M237.6 357.4h.01M140.7 305.4h.01M242.1 374.4h.01M91.9 110.0h.01M76.1 360.7h.01M132.6 397.4h.01M84.4 316.3h.01M77.9 358.8h.01M85.9 299.0h.01M154.4 329.5h.01M234.6 420.7h.01M154.6 322.9h.01M86.1 354.9h.01M158.4 322.7h.01M102.4 315.0h.01M245.2 337.9h.01M300.6 360.6h.01M103.5 75.9h.01M225.1 354.3h.01M276.4 266.0h.01M72.4 331.2h.01M96.0 311.0h.01M265.0 372.0h.01M234.3 343.8h.01M250.7 332.4h.01M81.0 359.0h.01M155.3 316.5h.01M218.4 341.8h.01M255.7 180.9h.01M72.4 318.3h.01M119.4 410.5h.01M258.0 389.5h.01M55.8 349.0h.01M264.1 173.5h.01M198.0 336.5h.01M68.1 355.2h.01M90.6 115.3h.01M84.6 111.4h.01M85.8 124.9h.01M177.6 175.9h.01M108.4 367.6h.01M92.6 389.8h.01M183.4 340.8h.01M220.9 359.8h.01M253.7 375.1h.01M261.3 408.2h.01M84.1 359.4h.01M262.6 163.3h.01M210.0 343.9h.01M78.5 342.1h.01M285.6 371.4h.01M88.9 101.6h.01M96.5 293.5h.01M82.6 308.7h.01M257.6 379.6h.01M293.0 383.2h.01M225.8 350.8h.01M274.5 277.7h.01M81.5 128.4h.01M61.4 362.1h.01M87.5 119.6h.01M102.8 83.2h.01M149.2 314.5h.01M220.3 354.9h.01M98.7 307.5h.01M147.4 318.3h.01M98.3 304.0h.01M226.4 344.1h.01M81.0 355.8h.01M64.6 357.4h.01M54.6 361.0h.01M78.7 114.5h.01M275.4 259.6h.01M143.7 403.1h.01M81.8 107.8h.01M100.3 94.3h.01M301.2 371.3h.01M162.3 331.1h.01M80.1 168.0h.01M61.7 348.0h.01M268.4 297.1h.01M79.6 306.8h.01M83.8 305.1h.01M174.1 327.6h.01M97.9 296.7h.01M66.8 345.5h.01M82.6 132.1h.01M147.0 402.7h.01M93.6 91.6h.01M141.4 408.4h.01M146.6 310.8h.01M236.8 417.9h.01M190.0 337.6h.01M218.6 337.0h.01M270.1 284.9h.01M68.8 368.1h.01M294.6 351.2h.01M103.5 79.7h.01M233.6 339.6h.01M190.1 326.6h.01M93.5 105.9h.01M201.7 338.9h.01M93.9 291.7h.01M187.4 340.6h.01M91.0 89.0h.01M78.7 311.8h.01M88.3 111.2h.01M293.0 347.5h.01M139.6 404.5h.01M121.2 406.6h.01M80.5 322.5h.01M291.4 385.6h.01M58.4 359.6h.01M86.5 115.5h.01M105.3 72.0h.01M235.7 386.4h.01M258.8 319.4h.01M259.0 370.6h.01M89.8 106.3h.01M169.3 333.5h.01M231.7 423.3h.01M76.5 309.8h.01M95.9 85.3h.01M282.6 391.9h.01M278.0 358.7h.01M65.2 351.8h.01M205.3 353.1h.01M117.7 408.1h.01M248.4 337.2h.01M93.4 327.9h.01M243.5 351.7h.01M48.8 362.2h.01M238.6 422.4h.01M282.0 347.9h.01M275.9 331.4h.01M80.1 336.9h.01M189.6 344.0h.01M251.0 338.5h.01M70.3 340.2h.01M152.5 313.2h.01M83.2 353.0h.01M242.8 341.4h.01M199.6 345.4h.01M274.4 269.5h.01M94.1 95.7h.01M207.0 349.5h.01M297.3 374.5h.01M83.9 356.1h.01M70.2 327.2h.01M278.6 345.1h.01M203.1 342.4h.01M60.7 356.7h.01M133.7 408.4h.01M261.6 372.7h.01M57.6 345.0h.01M193.0 345.1h.01M93.5 342.8h.01M100.0 291.5h.01M101.6 88.6h.01M93.9 87.6h.01M127.0 291.6h.01M95.0 333.3h.01M182.7 336.1h.01M98.1 340.9h.01M303.3 365.2h.01M49.4 357.6h.01M108.0 81.4h.01M103.4 96.6h.01M61.1 366.8h.01M271.7 320.5h.01M106.3 78.2h.01M194.7 370.3h.01M236.3 331.6h.01M82.2 369.9h.01M136.9 303.6h.01M280.3 380.5h.01M221.9 338.8h.01M293.1 375.5h.01M196.0 345.0h.01M292.8 379.5h.01M177.0 330.8h.01M266.6 293.6h.01M81.5 124.7h.01M78.5 150.1h.01M92.5 295.0h.01M211.8 358.0h.01M215.5 340.4h.01M81.0 120.8h.01M249.0 170.1h.01M102.4 302.5h.01M306.5 355.9h.01M165.5 418.2h.01M109.5 69.3h.01M58.6 340.6h.01M247.7 333.8h.01M218.4 351.0h.01M151.6 317.1h.01M248.4 270.5h.01M156.1 415.8h.01M150.9 320.3h.01M97.0 94.0h.01M123.1 402.9h.01M282.7 395.2h.01M289.6 374.3h.01M257.4 410.7h.01M74.3 326.7h.01M210.6 339.4h.01M239.6 379.0h.01M72.0 344.1h.01M98.2 314.5h.01M126.6 406.3h.01M299.5 368.2h.01M281.6 352.6h.01M275.5 361.3h.01M136.0 404.4h.01M127.3 391.1h.01M239.1 375.6h.01M234.2 368.3h.01M227.8 363.6h.01M111.6 416.0h.01M83.8 105.0h.01M83.1 373.7h.01M238.9 371.4h.01M85.6 362.1h.01M154.5 320.0h.01M139.7 412.5h.01M80.8 362.1h.01M129.1 395.1h.01M84.8 322.4h.01M79.0 315.7h.01M263.0 374.5h.01M77.5 374.5h.01M233.1 389.2h.01M75.5 334.3h.01M102.1 397.7h.01M299.9 356.8h.01M94.5 396.4h.01M241.3 419.2h.01M74.0 367.4h.01M245.3 417.2h.01M257.1 375.1h.01M144.5 406.2h.01M82.7 341.2h.01M266.7 364.3h.01M267.4 401.5h.01M183.3 329.4h.01M100.1 80.7h.01M76.4 364.3h.01M77.1 135.9h.01M207.3 341.5h.01M252.6 334.8h.01M277.6 354.4h.01M186.3 337.4h.01M100.0 298.5h.01M271.4 403.7h.01M105.8 395.6h.01M257.3 325.5h.01M90.5 95.0h.01M100.3 355.1h.01M230.0 354.3h.01M263.5 376.8h.01M74.9 315.1h.01M145.0 314.5h.01M130.4 296.8h.01M55.9 357.1h.01M84.1 170.1h.01M143.6 318.2h.01M231.0 349.1h.01M71.6 375.6h.01M232.3 359.2h.01M89.4 92.0h.01M274.4 401.5h.01M251.5 384.3h.01M85.5 91.2h.01M253.7 379.3h.01M106.3 74.9h.01M270.7 280.1h.01M105.3 410.1h.01M78.0 319.3h.01M302.7 355.4h.01M230.6 343.5h.01M250.6 380.9h.01M236.0 347.7h.01M214.0 337.5h.01M245.7 348.4h.01M99.3 85.3h.01M131.7 301.8h.01M105.2 88.9h.01M212.6 342.4h.01M148.0 406.3h.01M75.2 339.0h.01M221.9 349.0h.01M253.9 328.9h.01M98.3 301.1h.01M102.6 401.8h.01M82.8 117.9h.01M51.9 345.2h.01M162.5 414.9h.01M236.0 360.3h.01M160.5 420.0h.01M69.4 349.0h.01M84.3 121.3h.01M96.0 387.4h.01M150.4 310.0h.01M79.0 155.2h.01M142.4 311.4h.01M80.7 364.7h.01M238.0 341.0h.01M226.6 347.1h.01M82.5 377.0h.01M198.4 340.9h.01M288.1 389.0h.01M76.8 370.7h.01M304.7 360.0h.01M114.8 60.5h.01M136.5 396.6h.01M160.1 326.5h.01M277.4 339.4h.01M272.1 287.7h.01M123.3 55.4h.01M252.5 330.5h.01M68.2 371.8h.01M155.7 326.3h.01M74.5 379.3h.01M115.5 412.8h.01M113.1 373.7h.01M78.6 163.2h.01M280.2 341.7h.01M120.0 396.2h.01M284.5 388.6h.01M158.6 318.2h.01M77.8 140.9h.01M100.4 311.3h.01M251.0 393.5h.01M224.0 357.9h.01M265.8 408.5h.01M274.6 273.7h.01M122.9 290.0h.01M249.0 414.4h.01M270.0 293.6h.01M77.5 324.2h.01M282.1 357.1h.01M75.9 345.2h.01M110.7 60.4h.01M84.6 101.5h.01M148.3 322.5h.01M251.1 411.7h.01M94.3 102.4h.01M100.1 294.9h.01M89.7 98.4h.01M98.7 102.9h.01M83.1 99.1h.01M194.3 335.6h.01M135.6 299.8h.01M193.1 338.3h.01M95.0 306.3h.01M74.0 322.0h.01M182.4 401.9h.01M150.9 418.3h.01M85.1 337.6h.01M202.7 358.1h.01M289.4 371.1h.01M147.3 413.2h.01M82.8 175.1h.01M258.8 174.0h.01M143.3 307.7h.01M80.0 159.2h.01M150.7 415.0h.01M263.3 310.6h.01M169.4 326.7h.01M125.0 398.3h.01M265.0 405.2h.01M199.1 365.2h.01M100.7 70.5h.01M265.2 382.3h.01M130.9 292.4h.01M74.9 375.4h.01M111.1 66.1h.01M279.1 349.7h.01M105.6 69.0h.01M133.8 392.7h.01M100.8 76.8h.01M140.7 301.5h.01M108.1 63.2h.01M102.7 92.2h.01M234.8 355.2h.01M228.8 391.7h.01M91.7 298.5h.01M262.0 370.0h.01M236.7 382.3h.01M277.4 398.1h.01M93.9 99.1h.01M242.6 370.1h.01M248.1 393.7h.01M161.9 320.7h.01M243.4 333.7h.01M290.9 388.8h.01M103.7 86.1h.01M195.1 340.7h.01M62.9 343.1h.01M137.5 408.8h.01M163.9 323.9h.01M98.8 98.5h.01M157.2 419.0h.01M217.3 357.9h.01M80.9 137.0h.01M245.5 401.8h.01M256.4 393.5h.01M287.9 346.7h.01M215.1 354.1h.01M83.7 301.6h.01M78.6 367.6h.01M118.9 57.8h.01M60.1 352.1h.01M151.6 325.1h.01M106.4 84.4h.01M245.4 387.0h.01M78.8 145.1h.01M86.9 387.8h.01M108.4 72.4h.01M191.3 174.6h.01M241.6 416.1h.01M82.7 366.9h.01M179.3 334.3h.01M72.5 371.4h.01M174.0 334.9h.01M221.1 344.4h.01M137.6 307.7h.01M105.9 415.1h.01M227.1 340.1h.01M78.8 132.0h.01M267.4 289.3h.01M250.3 377.5h.01M140.5 315.7h.01"/>
<path stroke="#1a1a1a" stroke-width="3.92" stroke-linecap="round" fill="none" d="M165.7 330.3h.01M261.3 367.2h.01M187.3 176.0h.01M164.4 421.9h.01M147.3 397.9h.01M268.9 344.4h.01M90.4 292.8h.01M262.5 323.0h.01M259.6 323.9h.01M255.1 332.5h.01M275.4 335.8h.01M119.9 404.2h.01M129.3 399.7h.01M214.2 233.2h.01M263.4 335.5h.01M260.2 400.4h.01M249.5 357.7h.01M287.4 364.4h.01M249.4 407.6h.01M289.5 361.3h.01M293.0 372.0h.01M115.6 403.2h.01M80.0 302.5h.01M272.7 339.1h.01M262.2 313.5h.01M264.1 366.0h.01M112.8 406.5h.01M240.9 357.9h.01M257.1 360.3h.01M254.5 341.5h.01M259.8 356.1h.01M253.0 395.8h.01M296.5 362.0h.01M285.9 353.5h.01M277.0 390.5h.01M111.3 396.9h.01M252.8 340.1h.01M281.1 384.1h.01M108.3 405.3h.01M267.2 395.9h.01M271.7 390.1h.01M248.7 403.5h.01M241.1 413.2h.01M109.2 408.5h.01M271.6 346.7h.01M113.1 387.2h.01M99.3 350.3h.01M295.0 355.5h.01M250.3 373.5h.01M286.8 375.5h.01M249.3 361.5h.01M256.0 343.3h.01M253.1 349.1h.01M260.1 361.2h.01M241.5 363.7h.01M77.6 126.8h.01M258.8 365.9h.01M113.9 398.7h.01M112.4 410.9h.01M273.7 397.5h.01M266.0 340.5h.01M271.8 350.5h.01M92.8 82.7h.01M133.1 401.5h.01M231.2 365.4h.01M172.5 331.3h.01M239.4 360.8h.01M245.5 413.5h.01M273.5 353.8h.01M270.2 399.3h.01M274.8 389.3h.01M267.8 320.1h.01M266.1 354.8h.01M85.6 312.0h.01M86.4 97.2h.01M116.8 399.0h.01M260.9 337.9h.01M247.8 400.0h.01M90.6 320.6h.01M251.3 398.6h.01M89.8 312.2h.01M258.0 341.5h.01M154.7 407.3h.01M252.6 404.5h.01M286.7 357.3h.01M269.9 316.3h.01M271.9 324.6h.01M116.3 394.4h.01M253.6 408.5h.01M289.7 382.4h.01M243.3 382.3h.01M96.5 321.2h.01M256.2 398.2h.01M269.0 329.0h.01M293.6 366.8h.01M169.5 415.5h.01M248.5 366.6h.01M264.2 398.3h.01M247.1 351.1h.01M277.7 383.9h.01M295.6 369.1h.01M252.8 352.1h.01M275.0 386.0h.01M106.7 66.4h.01M262.3 363.5h.01M273.7 357.4h.01M260.7 392.6h.01M237.5 364.5h.01M265.0 316.4h.01M126.4 402.5h.01M264.6 306.9h.01M103.5 70.0h.01M115.5 391.0h.01M90.4 325.9h.01M167.2 413.2h.01M271.7 387.2h.01M239.0 367.7h.01M77.9 122.5h.01M248.5 396.9h.01M140.4 397.7h.01M173.1 417.1h.01M185.4 180.8h.01M111.9 391.9h.01M249.1 354.2h.01M108.8 392.1h.01M151.4 405.7h.01M259.4 344.4h.01M181.7 180.8h.01M164.6 411.1h.01M237.8 411.9h.01M256.0 339.7h.01M98.1 75.0h.01M91.9 330.3h.01M178.5 424.5h.01M296.4 365.4h.01M88.1 88.7h.01M104.4 406.2h.01M289.3 367.6h.01M110.2 400.5h.01M289.8 350.0h.01M106.0 363.7h.01M87.0 303.0h.01M161.1 410.1h.01M260.5 178.0h.01M259.6 334.9h.01M262.0 343.2h.01M136.6 400.3h.01M272.6 343.6h.01M111.2 404.2h.01M263.4 351.4h.01M123.2 388.7h.01M252.7 355.5h.01M242.7 407.7h.01M258.6 338.2h.01M246.3 378.4h.01M256.2 363.6h.01M260.5 340.9h.01M269.4 337.4h.01M256.5 402.5h.01M97.0 77.7h.01M274.2 393.3h.01M266.3 344.7h.01M252.5 366.3h.01M289.6 378.4h.01M252.4 401.1h.01M176.6 402.8h.01M144.1 399.5h.01M97.1 345.8h.01M256.3 352.6h.01M175.1 421.4h.01M181.1 175.9h.01M95.2 299.3h.01M51.8 359.6h.01M93.0 322.8h.01M267.4 313.3h.01M262.6 358.4h.01M253.0 343.0h.01M264.7 329.3h.01M106.8 398.9h.01M243.3 355.5h.01M108.9 395.4h.01M268.8 333.5h.01M297.2 358.8h.01M97.2 317.6h.01M259.0 347.5h.01M113.0 394.5h.01M244.2 366.2h.01M285.1 360.9h.01M132.7 405.0h.01M267.2 351.7h.01M252.3 362.9h.01M265.6 332.4h.01M89.9 305.5h.01M269.4 341.1h.01M56.3 353.6h.01M240.1 382.2h.01M266.1 336.6h.01M267.5 389.1h.01M250.9 343.9h.01M277.0 380.5h.01M256.9 336.9h.01M86.4 94.1h.01M258.0 332.0h.01M253.8 346.0h.01M266.4 358.4h.01M120.0 400.5h.01M264.8 392.5h.01M246.0 354.0h.01M88.4 315.6h.01M243.4 359.6h.01M271.9 360.6h.01M271.1 395.3h.01M184.0 176.6h.01M300.0 364.3h.01M293.6 358.9h.01M281.5 386.8h.01M262.2 347.5h.01M238.3 415.1h.01M260.5 404.5h.01M52.6 355.4h.01M256.6 356.4h.01M246.0 362.3h.01M262.5 354.6h.01M242.8 411.2h.01M129.8 403.4h.01M244.5 374.5h.01M267.3 324.7h.01M94.5 337.8h.01M106.4 402.4h.01M290.8 353.6h.01M264.1 344.1h.01M246.2 357.5h.01M263.6 402.2h.01M272.2 333.2h.01M251.7 347.0h.01M261.9 319.4h.01M246.4 409.6h.01M92.5 309.0h.01M279.2 391.7h.01M255.6 367.8h.01M291.9 369.1h.01M88.3 323.0h.01M275.3 346.8h.01M268.9 348.6h.01M245.6 405.6h.01M100.2 72.9h.01M169.4 329.9h.01M249.3 347.8h.01M278.0 387.0h.01M286.9 381.3h.01M263.4 325.9h.01M273.8 328.1h.01M298.5 353.3h.01M255.5 371.2h.01M293.1 362.2h.01M254.2 337.1h.01M257.8 329.6h.01M115.2 408.2h.01M257.2 406.5h.01M143.4 412.7h.01M90.5 85.5h.01M280.6 389.4h.01M256.2 349.0h.01M191.4 341.3h.01M285.5 349.7h.01M254.6 176.3h.01M284.7 345.2h.01M269.3 392.2h.01M265.6 348.4h.01M243.0 378.6h.01M93.0 314.5h.01M263.2 339.5h.01M111.5 389.0h.01M261.8 328.5h.01M88.5 296.3h.01M268.8 360.7h.01M259.5 351.3h.01M93.2 318.2h.01M259.4 328.3h.01M88.6 309.3h.01M116.1 387.8h.01M291.5 364.6h.01M233.9 363.1h.01M246.8 370.4h.01M113.3 401.8h.01M86.2 307.4h.01M269.7 356.5h.01M93.7 302.7h.01M275.6 350.4h.01M256.0 334.5h.01M269.7 353.2h.01M89.5 301.3h.01M250.0 351.0h.01M140.5 400.9h.01M275.4 342.2h.01M87.7 319.2h.01M264.8 320.8h.01M256.1 345.9h.01M119.2 387.4h.01M255.5 330.5h.01M260.6 396.4h.01M114.8 385.0h.01M247.0 374.5h.01M80.3 110.9h.01M188.0 401.7h.01M264.7 361.3h.01M165.3 326.9h.01M261.5 332.2h.01M290.4 357.4h.01M253.5 359.3h.01M117.2 404.9h.01M103.9 359.6h.01M251.6 370.1h.01"/>
</svg>