<svg xmlns="http://www.w3.org/2000/svg" viewBox="0 0 360 432" role="img">
<path stroke="#1a1a1a" stroke-width="1.41" stroke-linecap="round" fill="none" d="M207.9 52.0h.01M267.8 425.3h.01M264.0 87.3h.01M112.8 173.9h.01M201.9 37.8h.01M134.5 222.0h.01M126.4 232.2h.01M133.1 162.1h.01M149.2 48.6h.01M213.3 130.3h.01M200.3 153.8h.01M188.3 220.9h.01M164.7 130.2h.01M198.4 396.9h.01M229.4 149.8h.01M179.5 172.9h.01M86.1 304.9h.01M126.3 224.1h.01M233.2 175.2h.01M95.6 211.2h.01M223.6 155.6h.01M139.0 114.4h.01M211.7 162.6h.01M197.6 428.9h.01M256.4 110.0h.01M116.7 165.5h.01M0.4 96.3h.01M249.4 427.7h.01M184.7 149.3h.01M176.6 165.8h.01M280.0 334.3h.01M119.1 114.0h.01M190.5 401.9h.01M272.3 326.5h.01M131.0 112.4h.01M120.1 174.5h.01M177.0 225.8h.01M116.8 430.6h.01M176.6 155.3h.01M110.7 222.8h.01M273.8 103.5h.01M180.8 403.7h.01M208.0 121.2h.01M110.9 209.8h.01M131.2 215.7h.01M69.6 204.3h.01M185.6 37.7h.01M142.3 93.5h.01M140.7 226.7h.01M201.5 211.1h.01M231.6 47.1h.01M188.1 142.3h.01M208.2 169.1h.01M161.7 119.5h.01M231.4 156.2h.01M157.9 148.9h.01M123.4 157.9h.01M248.4 135.9h.01M115.2 215.6h.01M252.0 127.7h.01M193.7 149.6h.01M198.6 223.7h.01M181.6 382.9h.01M156.5 429.4h.01M184.3 251.5h.01M68.6 210.6h.01M277.5 416.9h.01M171.5 42.2h.01M97.5 217.4h.01M140.3 133.4h.01M70.6 218.9h.01M266.2 114.5h.01M255.7 79.2h.01M193.5 367.1h.01M188.0 171.0h.01M168.2 150.4h.01M190.4 411.4h.01M181.0 219.7h.01M121.9 201.1h.01M131.3 133.7h.01M158.2 140.0h.01M152.6 161.1h.01M238.2 136.3h.01M203.8 146.7h.01M121.1 132.2h.01M237.9 161.3h.01M193.4 209.6h.01M243.3 427.6h.01M75.2 93.9h.01M146.7 56.9h.01M243.9 142.5h.01M99.1 201.4h.01M197.9 404.6h.01M173.6 380.2h.01M256.3 134.6h.01M186.7 429.9h.01M162.1 222.9h.01M273.4 111.6h.01M212.8 147.7h.01M61.3 220.4h.01M146.7 142.1h.01M110.4 190.2h.01M80.6 298.5h.01M114.7 181.5h.01M207.6 155.5h.01M210.0 139.7h.01M147.6 222.6h.01M185.0 236.8h.01M76.8 207.4h.01M136.6 142.8h.01M197.5 140.6h.01M116.7 120.7h.01M218.1 61.4h.01M138.8 103.5h.01M149.3 121.6h.01M195.9 204.7h.01M273.4 421.9h.01M203.5 217.5h.01M177.2 144.8h.01M203.0 162.5h.01M243.8 169.2h.01M136.0 387.1h.01M257.0 142.0h.01M186.7 387.8h.01M117.2 195.0h.01M111.5 200.6h.01M126.8 143.5h.01M183.8 124.6h.01M169.6 225.0h.01M130.2 151.9h.01M202.4 132.0h.01M142.7 166.1h.01M118.4 222.0h.01M175.2 245.2h.01M169.1 243.6h.01M247.7 181.0h.01M138.3 83.7h.01M105.5 177.8h.01M253.5 59.7h.01M189.7 378.3h.01M126.7 208.2h.01M195.0 158.6h.01M158.1 54.5h.01M191.0 132.9h.01M132.5 172.2h.01M260.1 66.5h.01M233.5 117.7h.01M135.3 400.0h.01M242.8 53.9h.01M65.8 263.5h.01M358.6 290.0h.01M196.1 119.7h.01M0.4 292.4h.01M132.6 228.5h.01M112.6 156.2h.01M152.6 131.8h.01M251.1 146.3h.01M183.9 226.6h.01M262.2 129.1h.01M183.7 164.7h.01M200.7 170.4h.01M215.6 155.0h.01M107.9 169.0h.01M257.9 120.3h.01M283.4 414.6h.01M173.7 119.4h.01M174.3 130.9h.01M0.4 117.2h.01M139.0 152.1h.01M123.7 216.1h.01M190.8 230.2h.01M287.0 409.3h.01M60.4 190.2h.01M127.1 122.8h.01M104.2 206.2h.01M247.3 117.8h.01M102.5 213.3h.01M74.5 123.1h.01M177.3 391.1h.01M118.0 140.9h.01M64.2 201.3h.01M181.8 136.5h.01M149.8 65.9h.01M108.0 216.4h.01M142.2 413.3h.01M236.1 428.6h.01M169.2 140.4h.01M98.5 183.1h.01M100.2 190.6h.01M251.9 168.8h.01M268.4 95.9h.01M148.1 152.0h.01M105.4 185.3h.01M290.7 0.4h.01M171.9 172.4h.01M104.6 196.7h.01M189.4 246.3h.01M193.9 384.4h.01M256.3 95.3h.01M245.9 69.6h.01M192.8 421.1h.01M193.5 215.8h.01M192.8 392.8h.01M240.1 175.6h.01M229.5 130.3h.01M139.7 429.2h.01M108.2 162.0h.01M186.8 157.0h.01M236.7 145.6h.01M244.1 86.5h.01M218.3 41.5h.01M217.0 169.5h.01M197.8 373.9h.01M136.7 124.2h.01M173.5 237.7h.01M264.5 104.8h.01M265.8 122.2h.01M171.9 429.3h.01M161.3 158.1h.01M248.9 174.9h.01M219.3 162.0h.01M163.1 171.2h.01M261.5 428.0h.01M229.3 140.5h.01M180.6 242.5h.01M168.7 162.4h.01M241.1 182.4h.01M74.7 200.8h.01M154.5 227.0h.01M147.8 367.2h.01M130.3 100.5h.01M118.3 207.4h.01M220.8 122.2h.01M186.7 108.6h.01M273.8 121.7h.01M120.7 229.3h.01M185.8 395.7h.01M241.3 128.0h.01M181.9 374.4h.01M266.5 323.1h.01M125.5 167.3h.01M194.1 238.7h.01M261.5 303.1h.01M193.5 165.6h.01M139.8 216.8h.01M229.6 170.3h.01M220.5 136.6h.01M127.4 178.6h.01M119.0 150.1h.01M221.1 146.3h.01M358.6 112.3h.01M92.1 313.5h.01M178.8 233.5h.01M159.8 43.5h.01M224.4 166.0h.01"/>
<path stroke="#1a1a1a" stroke-width="1.88" stroke-linecap="round" fill="none" d="M222.6 180.5h.01M221.2 416.6h.01M230.5 186.0h.01M219.7 239.3h.01M223.4 174.1h.01M60.7 205.0h.01M258.2 149.5h.01M211.4 227.7h.01M270.4 78.7h.01M129.7 242.4h.01M267.0 165.9h.01M155.8 218.8h.01M177.5 251.5h.01M240.2 188.2h.01M159.7 301.9h.01M139.0 244.3h.01M281.6 126.0h.01M217.0 189.0h.01M270.2 139.2h.01M188.1 366.7h.01M205.1 256.2h.01M115.4 228.1h.01M102.0 231.9h.01M91.7 237.6h.01M239.6 422.8h.01M66.9 145.7h.01M71.0 127.4h.01M204.5 370.3h.01M190.6 178.3h.01M252.0 257.0h.01M270.2 157.8h.01M249.5 238.7h.01M255.2 180.2h.01M83.4 84.0h.01M237.6 153.1h.01M270.4 150.3h.01M111.7 145.0h.01M230.0 400.1h.01M254.8 252.7h.01M140.8 240.2h.01M218.8 382.6h.01M92.6 257.5h.01M186.5 257.8h.01M286.8 345.2h.01M94.2 232.1h.01M98.3 235.9h.01M244.9 163.0h.01M160.5 256.6h.01M98.9 176.1h.01M235.5 255.9h.01M210.3 188.2h.01M263.1 137.6h.01M114.9 254.5h.01M244.9 156.5h.01M265.9 72.6h.01M103.4 243.3h.01M254.7 243.4h.01M210.4 393.3h.01M141.6 308.5h.01M0.4 263.2h.01M195.0 173.8h.01M98.5 228.6h.01M69.4 173.3h.01M213.5 253.5h.01M105.3 267.4h.01M206.3 224.2h.01M205.5 406.8h.01M110.6 235.5h.01M227.1 390.4h.01M213.6 192.4h.01M170.0 370.0h.01M104.7 67.7h.01M279.3 136.8h.01M145.8 237.4h.01M236.1 384.3h.01M91.7 244.1h.01M233.1 422.5h.01M204.5 193.2h.01M103.6 257.6h.01M65.7 226.8h.01M212.3 386.4h.01M229.4 235.8h.01M151.0 237.4h.01M92.3 220.7h.01M147.4 297.7h.01M261.4 170.2h.01M263.9 422.5h.01M143.4 296.1h.01M215.5 394.7h.01M202.9 376.4h.01M147.4 301.4h.01M279.1 117.5h.01M273.7 143.1h.01M157.5 297.4h.01M204.7 188.0h.01M225.1 240.0h.01M131.8 54.6h.01M102.0 170.9h.01M158.4 249.5h.01M264.3 152.6h.01M234.9 244.3h.01M126.9 189.0h.01M240.3 234.2h.01M204.4 394.2h.01M238.7 261.6h.01M275.4 154.2h.01M155.0 301.2h.01M61.0 197.0h.01M102.3 164.6h.01M108.7 240.7h.01M200.8 416.6h.01M134.6 209.8h.01M68.2 178.7h.01M157.7 293.8h.01M135.0 234.1h.01M214.8 419.3h.01M98.4 247.6h.01M239.3 249.1h.01M222.9 386.5h.01M258.5 157.6h.01M283.5 225.9h.01M358.6 186.5h.01M113.4 259.4h.01M80.3 0.4h.01M62.4 166.0h.01M0.4 238.7h.01M358.6 254.0h.01M210.6 400.1h.01M108.3 150.7h.01M219.3 376.9h.01M202.7 365.5h.01M110.5 0.4h.01M116.0 234.2h.01M220.8 428.7h.01M185.6 214.6h.01M270.1 133.7h.01M64.2 192.2h.01M249.6 245.1h.01M100.6 71.6h.01M140.8 234.1h.01M103.5 262.2h.01M109.4 254.8h.01M224.7 401.7h.01M211.5 181.9h.01M257.1 233.8h.01M212.0 174.8h.01M200.5 231.1h.01M271.0 127.9h.01M268.1 420.3h.01M206.9 236.7h.01M251.7 162.0h.01M233.4 389.1h.01M131.9 246.9h.01M258.4 165.0h.01M233.8 249.3h.01M72.7 166.8h.01M204.6 244.1h.01M272.3 416.9h.01M196.0 259.3h.01M232.5 416.9h.01M261.1 237.5h.01M168.4 301.2h.01M214.5 0.4h.01M92.3 226.7h.01M97.8 241.4h.01M250.0 251.9h.01M68.2 186.8h.01M228.0 245.7h.01M96.0 75.2h.01M204.6 205.5h.01M220.4 398.3h.01M191.5 0.4h.01M122.2 348.7h.01M163.1 215.9h.01M228.3 179.7h.01M251.9 233.8h.01M113.9 243.8h.01M246.9 233.6h.01M243.0 263.2h.01M221.9 190.6h.01M124.6 239.7h.01M67.7 197.5h.01M265.4 187.9h.01M97.7 223.7h.01M97.5 254.2h.01M0.4 216.4h.01M255.4 238.2h.01M220.6 422.6h.01M186.7 183.3h.01M135.7 246.1h.01M236.6 168.2h.01M277.1 147.2h.01M98.1 260.2h.01M205.2 199.5h.01M130.4 184.8h.01M241.4 255.9h.01M269.6 185.0h.01M221.2 392.5h.01M207.6 382.9h.01M201.1 388.8h.01M121.5 107.1h.01M133.7 178.8h.01M219.5 411.1h.01M199.3 201.1h.01M252.0 154.4h.01M204.1 400.8h.01M216.7 388.7h.01M113.0 129.5h.01M287.7 403.3h.01M199.4 191.0h.01M202.7 250.0h.01M174.4 218.5h.01M256.8 248.3h.01M225.0 396.6h.01M69.1 192.1h.01M70.5 278.6h.01M206.7 230.7h.01M230.7 379.1h.01M245.1 187.8h.01M234.6 235.5h.01M0.4 155.2h.01M76.9 196.0h.01M244.9 250.4h.01M211.0 407.0h.01M207.5 413.8h.01M193.0 183.5h.01M167.8 231.5h.01M256.9 174.7h.01M76.5 213.8h.01M72.7 172.7h.01M246.3 367.9h.01M358.6 220.4h.01M228.4 428.4h.01M62.8 177.1h.01M62.6 185.8h.01M103.3 157.9h.01M254.5 0.4h.01M194.1 196.1h.01M106.6 232.8h.01M149.9 172.3h.01M201.5 382.3h.01M147.6 216.4h.01M0.4 195.0h.01M66.6 132.8h.01M168.7 217.7h.01M206.8 428.2h.01M142.4 302.8h.01M95.8 196.4h.01M138.3 75.4h.01M213.8 427.6h.01M244.6 150.1h.01M180.9 256.8h.01M279.7 411.2h.01M234.1 181.2h.01M256.8 185.8h.01M201.2 238.1h.01M229.3 384.7h.01M115.5 125.2h.01M245.1 419.5h.01M274.6 329.8h.01M136.4 184.2h.01M80.7 201.6h.01M78.6 88.8h.01M262.4 182.3h.01M224.9 380.0h.01M358.6 151.8h.01M62.7 181.5h.01M226.5 190.0h.01M161.5 230.1h.01M113.1 135.5h.01M230.5 162.9h.01M129.9 236.6h.01M157.0 367.7h.01M290.8 359.4h.01M198.9 254.3h.01M176.6 179.5h.01M61.2 232.0h.01M155.6 234.0h.01M250.8 186.1h.01M207.9 378.1h.01M205.5 176.4h.01M163.2 298.4h.01M117.5 188.5h.01M216.0 230.6h.01M238.3 417.7h.01M61.6 171.3h.01M184.8 176.9h.01M255.3 428.2h.01M109.5 246.2h.01M223.9 185.5h.01M152.1 296.4h.01M217.3 177.9h.01M139.5 0.4h.01M99.8 267.2h.01M229.9 394.7h.01M265.0 144.9h.01M176.3 369.6h.01M109.2 262.6h.01M247.1 264.5h.01M134.8 240.5h.01M124.8 244.7h.01M141.8 69.9h.01M198.8 179.2h.01M263.4 176.5h.01M172.3 303.9h.01M0.4 174.6h.01M60.9 212.5h.01M191.7 253.6h.01M271.9 0.4h.01M235.2 394.1h.01M205.3 182.6h.01M90.6 215.4h.01M71.5 232.3h.01M103.9 237.7h.01M181.0 181.1h.01M75.2 289.6h.01M207.4 388.3h.01M246.7 257.9h.01M243.5 237.7h.01M147.9 230.7h.01M199.3 196.0h.01M95.3 205.7h.01M171.7 250.1h.01M72.6 226.1h.01M243.0 243.5h.01M238.0 239.6h.01M230.4 252.5h.01M209.5 256.7h.01M259.3 242.5h.01M114.0 239.2h.01M130.8 90.5h.01M242.4 413.5h.01M0.4 136.3h.01M278.0 131.0h.01M201.5 422.8h.01M148.8 324.3h.01M264.5 160.5h.01M157.1 173.9h.01M190.0 188.8h.01M257.2 318.2h.01M162.4 251.9h.01M267.4 170.8h.01M194.8 189.6h.01M213.3 234.8h.01M281.4 406.4h.01M196.0 248.9h.01M121.6 235.3h.01M114.0 265.7h.01M91.9 250.7h.01M118.7 239.7h.01M226.8 421.6h.01M208.3 249.9h.01M231.4 240.4h.01M217.1 184.2h.01M229.9 405.2h.01M200.6 410.6h.01M68.2 182.5h.01M163.1 370.0h.01M173.1 231.4h.01M235.5 0.4h.01M63.6 152.7h.01M103.2 221.0h.01M199.1 185.5h.01M168.0 176.4h.01M108.5 334.7h.01M105.6 248.9h.01M208.9 195.2h.01M104.9 226.5h.01M110.6 229.5h.01M122.6 184.2h.01M103.4 253.1h.01M119.9 243.9h.01M139.1 298.5h.01M155.6 326.7h.01M236.1 186.0h.01M166.5 0.4h.01M281.8 141.9h.01M198.5 244.0h.01M225.7 250.6h.01M234.5 262.1h.01M216.3 400.8h.01M191.2 259.5h.01M112.9 249.8h.01M140.0 53.1h.01M130.6 203.1h.01"/>
<path stroke="#1a1a1a" stroke-width="2.37" stroke-linecap="round" fill="none" d="M225.0 364.0h.01M171.9 337.2h.01M229.7 257.3h.01M269.6 180.0h.01M72.9 150.8h.01M248.1 272.8h.01M237.6 272.7h.01M243.9 226.2h.01M242.3 273.7h.01M149.4 211.1h.01M265.9 229.1h.01M238.1 407.4h.01M236.6 292.0h.01M88.3 254.0h.01M114.0 116.6h.01M136.5 306.9h.01M251.0 365.4h.01M72.3 188.1h.01M258.8 229.7h.01M234.7 403.2h.01M105.6 144.2h.01M289.0 392.2h.01M244.5 392.0h.01M176.1 257.0h.01M113.1 276.2h.01M179.3 279.6h.01M125.9 251.6h.01M146.7 243.6h.01M79.5 171.3h.01M273.6 175.0h.01M184.3 307.1h.01M256.7 206.1h.01M160.3 341.1h.01M247.7 358.1h.01M70.9 274.8h.01M272.2 163.6h.01M285.2 152.6h.01M277.5 166.2h.01M140.9 287.6h.01M154.3 332.6h.01M133.5 297.0h.01M261.9 322.4h.01M268.7 285.7h.01M254.1 229.8h.01M127.1 258.7h.01M153.0 309.0h.01M249.0 229.0h.01M257.7 201.3h.01M69.6 136.2h.01M234.4 367.5h.01M121.6 252.6h.01M77.0 228.9h.01M86.3 228.4h.01M223.8 194.8h.01M245.0 339.9h.01M180.2 305.2h.01M165.7 235.9h.01M216.7 243.8h.01M170.2 279.6h.01M237.0 232.1h.01M251.2 379.1h.01M227.1 415.8h.01M76.2 100.1h.01M207.9 373.2h.01M155.7 186.5h.01M76.4 233.8h.01M223.1 267.0h.01M151.4 312.5h.01M189.7 194.0h.01M245.6 277.4h.01M275.9 408.3h.01M276.1 404.1h.01M242.2 371.3h.01M143.9 211.3h.01M215.2 262.4h.01M144.2 315.6h.01M140.5 292.8h.01M287.9 210.5h.01M262.5 247.1h.01M136.2 311.4h.01M149.3 329.1h.01M239.8 301.1h.01M198.0 293.3h.01M172.2 180.0h.01M86.5 242.4h.01M89.6 265.3h.01M230.1 346.2h.01M152.9 260.5h.01M154.5 290.7h.01M262.6 251.8h.01M228.1 228.3h.01M89.1 270.1h.01M152.5 317.2h.01M222.5 262.5h.01M278.3 95.7h.01M137.8 188.5h.01M177.5 302.0h.01M227.0 265.5h.01M234.6 398.3h.01M122.9 192.5h.01M165.5 254.9h.01M276.2 160.2h.01M102.7 152.9h.01M121.3 265.8h.01M226.1 261.0h.01M180.1 193.4h.01M64.4 161.7h.01M234.5 375.3h.01M214.9 366.8h.01M276.0 90.1h.01M93.4 177.4h.01M244.6 362.1h.01M209.0 420.8h.01M86.3 248.2h.01M109.0 139.4h.01M83.3 190.2h.01M240.9 340.9h.01M222.1 258.2h.01M268.9 326.4h.01M259.7 261.9h.01M244.0 286.9h.01M95.8 272.4h.01M240.2 336.1h.01M122.3 260.8h.01M182.1 209.5h.01M187.1 210.1h.01M280.4 150.8h.01M240.1 375.4h.01M107.5 276.0h.01M171.6 329.1h.01M121.9 256.5h.01M144.0 174.7h.01M77.6 190.8h.01M163.9 240.9h.01M68.0 140.8h.01M134.1 254.4h.01M212.2 371.5h.01M243.6 297.6h.01M194.1 327.9h.01M225.2 255.8h.01M164.1 332.3h.01M176.8 185.1h.01M225.4 198.2h.01M278.4 172.9h.01M281.4 170.1h.01M148.3 252.0h.01M122.3 59.2h.01M163.7 304.5h.01M66.6 259.6h.01M106.7 272.3h.01M256.0 419.3h.01M115.9 272.6h.01M249.9 390.4h.01M243.9 345.2h.01M183.5 281.3h.01M78.1 248.9h.01M251.8 368.4h.01M241.1 353.2h.01M277.2 199.2h.01M140.4 201.9h.01M255.5 378.6h.01M240.4 228.8h.01M75.8 105.0h.01M230.6 190.6h.01M244.0 402.2h.01M65.2 172.7h.01M273.3 169.6h.01M136.3 290.4h.01M213.4 247.1h.01M118.0 251.6h.01M126.5 262.3h.01M147.4 184.2h.01M74.8 238.5h.01M248.7 395.0h.01M183.5 262.6h.01M151.5 303.5h.01M220.9 355.3h.01M240.4 358.0h.01M159.6 243.3h.01M244.6 269.2h.01M238.9 345.8h.01M256.4 226.3h.01M90.7 200.5h.01M187.0 334.4h.01M150.8 290.9h.01M269.1 412.2h.01M77.1 117.8h.01M280.6 338.7h.01M184.9 192.9h.01M244.9 335.3h.01M147.8 309.1h.01M135.9 294.5h.01M203.5 359.4h.01M121.0 271.7h.01M168.1 187.0h.01M275.6 265.5h.01M264.0 416.8h.01M75.4 110.3h.01M176.4 192.2h.01M209.0 212.1h.01M66.6 175.4h.01M221.8 364.2h.01M93.1 190.3h.01M76.7 221.7h.01M285.8 162.1h.01M139.4 59.4h.01M236.4 360.5h.01M242.3 366.0h.01M123.0 280.7h.01M255.3 382.9h.01M131.9 258.2h.01M268.5 416.5h.01M159.9 321.8h.01M273.7 270.1h.01M189.6 198.7h.01M82.9 251.7h.01M211.9 221.7h.01M281.0 397.1h.01M89.6 211.0h.01M145.8 312.2h.01M159.8 262.4h.01M159.6 330.9h.01M216.4 224.5h.01M213.5 376.2h.01M268.3 228.4h.01M219.9 269.1h.01M86.7 219.1h.01M89.9 261.1h.01M218.9 367.5h.01M274.1 412.7h.01M167.0 250.0h.01M239.9 296.0h.01M230.1 411.6h.01M189.1 306.0h.01M91.9 181.2h.01M61.0 226.8h.01M118.2 257.3h.01M171.7 342.1h.01M206.2 310.9h.01M165.9 328.1h.01M154.4 202.6h.01M148.8 315.4h.01M213.6 413.3h.01M276.2 178.5h.01M238.8 390.7h.01M82.1 220.9h.01M191.4 202.4h.01M223.5 374.1h.01M241.6 387.1h.01M194.3 308.2h.01M169.0 325.7h.01M238.7 267.6h.01M164.2 260.2h.01M181.2 341.8h.01M277.7 187.8h.01M129.5 254.7h.01M130.5 250.8h.01M160.2 335.6h.01M149.5 201.1h.01M156.5 265.0h.01M140.1 207.6h.01M244.9 354.9h.01M83.7 264.4h.01M217.5 250.5h.01M277.3 192.5h.01M139.3 179.0h.01M272.6 210.0h.01M82.6 196.4h.01M183.2 337.3h.01M244.3 349.8h.01M220.8 233.6h.01M118.1 262.1h.01M178.8 326.6h.01M230.7 353.8h.01M72.6 177.6h.01M179.7 189.3h.01M163.7 337.3h.01M193.4 304.6h.01M256.2 259.0h.01M174.7 280.1h.01M155.4 305.8h.01M242.6 280.0h.01M248.3 288.7h.01M126.8 196.6h.01M97.8 168.0h.01M224.8 411.1h.01M117.6 278.8h.01M246.3 380.5h.01M152.4 181.9h.01M220.9 352.1h.01M226.3 358.6h.01M94.9 171.3h.01M254.9 190.4h.01M213.3 258.9h.01M183.7 311.3h.01M233.3 408.5h.01M69.6 237.7h.01M261.8 258.6h.01M244.8 397.0h.01M269.3 212.1h.01M231.7 363.7h.01M84.9 214.7h.01M218.0 259.5h.01M147.5 293.2h.01M148.2 319.4h.01M265.7 231.9h.01M245.7 218.8h.01M221.5 252.6h.01M175.6 325.5h.01M113.7 339.4h.01M250.4 384.3h.01M249.3 220.4h.01M179.2 330.5h.01M260.7 419.5h.01M282.4 401.7h.01M250.8 345.4h.01M218.9 195.0h.01M234.1 357.9h.01M263.9 241.5h.01M235.4 363.7h.01M244.9 375.6h.01M213.0 307.6h.01M248.8 349.2h.01M254.0 203.4h.01M131.2 84.5h.01M232.2 266.6h.01M213.9 197.3h.01M259.3 204.7h.01M175.5 329.4h.01M247.5 363.2h.01M68.0 150.5h.01M235.8 334.9h.01M209.4 206.8h.01M252.3 270.5h.01M179.1 334.7h.01M186.4 330.5h.01M283.4 342.0h.01M260.4 225.5h.01M275.3 183.3h.01M284.0 146.7h.01M94.8 263.9h.01M147.3 305.7h.01M219.2 361.9h.01M195.1 301.7h.01M241.7 292.1h.01M102.5 273.0h.01M254.0 388.2h.01M210.8 201.0h.01M246.1 386.4h.01M245.5 291.9h.01M193.9 264.4h.01M209.4 243.1h.01M169.0 211.9h.01M232.3 342.7h.01M142.9 251.2h.01M218.0 255.6h.01M204.0 307.3h.01M80.9 225.7h.01M230.2 369.3h.01M190.5 331.9h.01M165.8 277.5h.01M183.1 332.4h.01M156.0 255.2h.01M230.2 262.1h.01M235.9 224.6h.01M237.0 191.2h.01M261.1 207.1h.01M73.2 194.7h.01M228.1 349.5h.01M174.4 333.8h.01M254.7 374.4h.01M102.7 147.7h.01M98.9 272.8h.01M239.7 224.1h.01M284.2 158.0h.01M69.2 168.5h.01M238.4 368.3h.01M238.3 350.5h.01M281.1 234.8h.01M227.5 366.6h.01M125.2 273.9h.01M260.6 189.1h.01M289.3 397.3h.01M126.5 57.0h.01M177.4 338.3h.01M215.8 406.8h.01M218.6 199.8h.01M271.8 408.9h.01M88.8 232.5h.01M234.5 352.9h.01M232.5 338.4h.01M114.4 62.4h.01M93.8 268.9h.01M236.5 412.6h.01M117.8 247.5h.01M110.6 269.9h.01M273.0 189.3h.01M280.2 155.9h.01M163.2 246.5h.01M121.6 276.7h.01M64.6 157.3h.01M167.2 306.9h.01M167.3 336.5h.01M247.3 294.9h.01M159.9 307.0h.01M236.5 379.1h.01M206.8 364.4h.01M265.6 235.9h.01M280.7 161.6h.01M168.9 332.5h.01M187.8 338.5h.01M219.2 263.9h.01M250.8 261.8h.01M229.0 194.7h.01M141.8 183.9h.01M231.5 231.4h.01M151.3 242.9h.01M240.2 284.1h.01M188.7 264.0h.01M197.0 361.9h.01M250.0 375.0h.01M216.7 272.1h.01M241.4 381.6h.01M153.3 322.3h.01M142.6 246.0h.01M85.6 267.9h.01M221.3 246.5h.01M151.3 186.9h.01M188.5 310.3h.01M144.6 322.3h.01M233.6 192.4h.01M139.0 250.0h.01M228.7 373.5h.01M222.7 359.1h.01M135.1 251.0h.01M185.0 188.4h.01M121.8 101.7h.01M226.0 354.2h.01M220.6 405.0h.01M174.5 298.8h.01M244.1 230.7h.01M125.9 93.5h.01M148.9 334.1h.01M240.2 396.3h.01M262.0 233.0h.01M178.8 261.2h.01M99.1 161.3h.01M85.4 236.9h.01M125.4 265.6h.01M239.7 363.0h.01M273.7 84.5h.01M212.8 267.9h.01M259.2 254.4h.01M92.3 77.5h.01M216.3 266.9h.01M273.2 215.2h.01M144.9 289.3h.01M239.1 401.5h.01M108.7 132.6h.01M179.8 310.1h.01M138.5 173.6h.01M189.1 329.1h.01M65.5 250.9h.01M181.4 367.3h.01M167.2 295.7h.01M252.2 226.1h.01M77.3 175.6h.01M213.4 381.0h.01M96.6 318.1h.01M290.2 205.3h.01M144.8 179.9h.01M156.9 318.4h.01M136.3 302.2h.01M179.4 214.0h.01M130.4 262.7h.01M237.4 355.9h.01M213.1 240.0h.01M116.9 286.5h.01M131.8 310.3h.01M144.3 204.2h.01M171.3 296.6h.01M79.8 237.4h.01M155.7 240.3h.01M140.3 197.6h.01M65.5 255.5h.01M225.7 406.6h.01M145.0 198.8h.01M262.7 228.4h.01M236.4 340.9h.01M148.2 206.2h.01M181.7 185.7h.01M85.7 208.5h.01M213.3 299.7h.01M189.6 301.0h.01M85.1 261.2h.01M253.4 350.9h.01M210.5 312.7h.01M153.3 251.5h.01M163.1 292.8h.01M220.1 228.1h.01M175.9 307.2h.01M155.4 313.8h.01M114.2 282.9h.01M252.2 422.4h.01M254.8 264.0h.01M75.7 171.5h.01M134.7 58.0h.01M258.6 265.3h.01M153.9 213.7h.01M224.6 227.7h.01M217.3 372.0h.01M82.0 231.8h.01M214.3 303.5h.01M230.7 358.7h.01M285.6 397.5h.01M273.0 273.8h.01M122.7 248.4h.01M156.8 259.7h.01M126.1 269.7h.01M234.2 347.8h.01M136.5 198.0h.01M136.0 203.3h.01M258.4 423.8h.01M187.6 284.5h.01M241.6 217.0h.01M209.9 367.8h.01M82.0 207.0h.01M125.4 255.4h.01M155.1 246.0h.01M250.7 267.0h.01M118.2 60.2h.01M161.5 326.5h.01M201.3 259.3h.01M273.2 195.2h.01M210.6 304.4h.01M209.5 217.2h.01M234.8 371.7h.01M172.8 254.4h.01M127.6 247.7h.01M225.6 233.2h.01M87.1 223.8h.01M277.5 196.0h.01M173.9 212.5h.01M243.4 359.2h.01M280.7 178.2h.01M223.6 349.5h.01M283.1 165.9h.01M183.9 301.7h.01M63.4 237.4h.01M139.6 314.2h.01M268.9 192.0h.01M223.4 369.3h.01M247.5 344.2h.01M269.2 174.8h.01M110.6 63.5h.01M242.5 221.3h.01M208.4 307.3h.01M198.6 307.7h.01M213.3 271.1h.01M267.9 289.5h.01M142.2 63.2h.01M228.1 361.9h.01M261.4 202.9h.01M117.6 268.3h.01M248.4 371.3h.01M160.5 237.3h.01"/>
<path stroke="#1a1a1a" stroke-width="2.85" stroke-linecap="round" fill="none" d="M250.8 205.5h.01M250.7 197.6h.01M250.5 190.5h.01M215.8 283.5h.01M179.1 297.9h.01M69.4 263.6h.01M108.2 66.6h.01M285.7 170.0h.01M206.0 329.0h.01M149.9 271.0h.01M129.5 294.7h.01M77.0 186.7h.01M159.4 283.9h.01M81.5 245.8h.01M162.5 263.7h.01M91.9 278.5h.01M215.7 355.4h.01M249.5 216.6h.01M252.4 290.5h.01M275.8 220.1h.01M156.6 337.3h.01M93.4 287.8h.01M247.9 412.6h.01M235.8 329.6h.01M96.0 276.7h.01M270.8 404.5h.01M166.8 269.2h.01M254.3 293.6h.01M90.8 299.0h.01M122.2 96.9h.01M241.5 328.3h.01M133.8 190.0h.01M73.7 190.7h.01M165.0 313.8h.01M271.7 205.1h.01M184.5 346.1h.01M264.8 208.0h.01M156.0 341.4h.01M76.6 167.0h.01M177.0 209.6h.01M286.2 389.6h.01M231.0 225.6h.01M174.3 260.8h.01M281.9 107.6h.01M148.9 287.4h.01M199.9 334.4h.01M116.4 108.7h.01M242.1 203.5h.01M167.9 322.1h.01M174.9 311.3h.01M259.8 279.1h.01M74.7 161.9h.01M228.4 339.9h.01M200.0 303.7h.01M177.3 347.9h.01M167.7 286.4h.01M81.7 256.9h.01M172.3 207.3h.01M181.1 324.8h.01M164.1 183.0h.01M69.0 155.0h.01M253.6 355.5h.01M103.9 139.5h.01M289.4 387.4h.01M83.8 272.0h.01M175.6 205.8h.01M264.7 272.9h.01M187.9 288.8h.01M241.3 198.5h.01M151.3 341.3h.01M192.0 318.2h.01M243.8 213.8h.01M81.3 177.6h.01M136.0 284.1h.01M212.2 264.3h.01M201.7 331.3h.01M201.0 321.0h.01M185.6 341.8h.01M177.3 313.8h.01M158.3 269.5h.01M234.4 213.5h.01M177.4 289.1h.01M206.6 285.5h.01M160.0 313.7h.01M63.6 246.0h.01M249.4 200.8h.01M261.2 200.1h.01M262.6 218.5h.01M253.8 288.0h.01M271.0 228.5h.01M269.8 247.4h.01M81.9 279.3h.01M217.2 207.8h.01M164.5 322.9h.01M189.5 326.8h.01M223.9 345.9h.01M236.9 228.6h.01M234.7 301.6h.01M91.4 173.9h.01M245.0 200.0h.01M82.9 167.8h.01M208.1 269.4h.01M198.4 327.8h.01M229.4 217.9h.01M148.3 195.7h.01M98.3 149.4h.01M253.6 311.2h.01M201.5 310.9h.01M254.6 370.6h.01M193.0 311.8h.01M264.5 294.4h.01M268.6 215.3h.01M189.4 275.4h.01M186.1 326.6h.01M162.3 317.2h.01M167.6 258.2h.01M189.5 314.9h.01M171.1 321.7h.01M137.9 274.7h.01M233.7 196.3h.01M213.1 208.9h.01M256.6 353.5h.01M177.6 202.9h.01M164.9 179.3h.01M264.3 192.9h.01M265.8 261.0h.01M153.4 176.9h.01M243.7 331.5h.01M69.6 131.0h.01M151.7 196.8h.01M250.9 285.7h.01M166.8 290.7h.01M198.1 288.0h.01M83.3 282.5h.01M111.6 287.3h.01M153.7 268.5h.01M217.5 298.0h.01M287.8 137.5h.01M238.2 278.3h.01M272.4 239.5h.01M266.3 225.6h.01M96.8 280.9h.01M207.3 316.1h.01M253.7 346.7h.01M265.6 211.6h.01M162.0 267.9h.01M70.4 260.5h.01M154.2 272.6h.01M105.7 135.0h.01M201.4 263.3h.01M173.1 196.0h.01M268.8 206.3h.01M286.8 132.4h.01M203.2 314.2h.01M226.9 343.6h.01M76.6 243.3h.01M148.9 262.0h.01M175.9 341.7h.01M233.7 228.1h.01M164.7 210.0h.01M265.4 202.1h.01M165.7 318.9h.01M157.6 190.4h.01M289.8 199.9h.01M181.4 275.9h.01M169.6 318.5h.01M276.7 212.5h.01M82.0 173.9h.01M283.9 187.8h.01M268.5 209.0h.01M148.9 178.2h.01M140.0 283.0h.01M130.0 193.1h.01M159.2 290.1h.01M255.2 393.2h.01M269.5 363.5h.01M96.5 158.6h.01M89.5 205.4h.01M225.3 272.4h.01M251.0 358.3h.01M155.1 198.5h.01M258.7 386.1h.01M171.4 275.1h.01M82.3 88.2h.01M157.7 287.1h.01M278.4 393.0h.01M183.3 317.2h.01M232.8 307.7h.01M162.8 272.8h.01M238.0 202.4h.01M240.2 305.6h.01M256.5 268.5h.01M194.1 323.6h.01M105.1 279.8h.01M278.3 217.6h.01M161.5 345.2h.01M254.6 359.0h.01M187.4 278.7h.01M92.2 274.1h.01M271.0 366.2h.01M223.7 204.4h.01M229.8 273.3h.01M214.1 359.4h.01M113.7 111.8h.01M109.7 125.0h.01M197.9 283.3h.01M108.7 283.6h.01M88.5 274.8h.01M191.2 324.4h.01M151.6 275.8h.01M209.4 261.5h.01M205.4 262.1h.01M185.0 198.0h.01M158.5 204.8h.01M258.6 209.7h.01M217.3 309.2h.01M254.0 199.9h.01M69.5 257.2h.01M214.4 275.5h.01M257.7 356.5h.01M185.6 322.3h.01M261.3 297.8h.01M232.1 221.7h.01M259.7 281.9h.01M148.5 275.4h.01M281.5 200.4h.01M78.4 253.6h.01M283.6 393.6h.01M239.3 213.5h.01M131.4 299.4h.01M142.3 318.7h.01M69.0 267.3h.01M267.3 196.1h.01M253.1 338.3h.01M246.9 203.7h.01M211.5 363.2h.01M198.6 264.9h.01M131.8 304.1h.01M84.7 275.8h.01M81.8 241.2h.01M120.2 284.0h.01M274.2 201.8h.01M176.4 321.3h.01M210.1 322.4h.01M270.1 232.0h.01M159.1 200.2h.01M205.4 324.4h.01M187.5 271.7h.01M139.7 326.4h.01M266.8 218.0h.01M205.9 320.2h.01M289.0 156.5h.01M249.3 277.9h.01M67.7 246.3h.01M278.9 203.4h.01M233.5 217.5h.01M215.1 297.8h.01M270.3 281.9h.01M138.4 359.5h.01M191.1 272.4h.01M157.8 310.2h.01M136.8 257.5h.01M208.6 278.6h.01M187.6 319.1h.01M219.7 302.9h.01M185.5 313.9h.01M133.9 314.4h.01M250.4 293.1h.01M236.8 220.7h.01M227.4 223.0h.01M104.4 130.1h.01M81.5 211.7h.01M281.4 196.5h.01M274.4 224.3h.01M250.8 341.4h.01M193.6 290.2h.01M182.0 201.9h.01M236.8 199.5h.01M236.4 297.4h.01M183.8 205.2h.01M281.0 184.1h.01M168.7 261.4h.01M95.7 163.9h.01M268.3 239.9h.01M141.0 330.4h.01M75.8 263.1h.01M227.1 213.3h.01M159.6 212.2h.01M181.0 267.1h.01M158.6 273.7h.01M164.2 341.5h.01M145.5 254.5h.01M256.7 272.8h.01M262.5 412.9h.01M82.0 181.5h.01M221.5 218.3h.01M230.4 213.8h.01M287.5 165.6h.01M274.9 397.5h.01M196.9 318.0h.01M162.4 206.5h.01M229.4 198.4h.01M264.8 220.8h.01M225.5 216.2h.01M101.0 311.0h.01M204.5 303.8h.01M79.4 163.7h.01M262.1 210.5h.01M263.4 223.7h.01M110.9 121.3h.01M158.4 280.0h.01M288.5 349.3h.01M263.9 263.8h.01M277.4 395.6h.01M237.3 195.7h.01M156.5 209.1h.01M172.1 184.4h.01M258.2 284.1h.01M192.6 277.0h.01M218.9 211.6h.01M264.0 214.3h.01M263.9 269.5h.01M168.8 345.0h.01M270.8 329.2h.01M237.6 217.1h.01M186.5 316.5h.01M192.0 320.8h.01M69.5 250.4h.01M208.3 274.4h.01M219.0 275.1h.01M137.2 65.8h.01M85.0 202.9h.01M250.8 361.9h.01M73.5 258.0h.01M142.3 195.0h.01M243.4 303.0h.01M65.3 241.8h.01M281.6 190.0h.01M223.6 276.5h.01M188.3 206.0h.01M71.1 242.7h.01M208.2 360.7h.01M255.3 366.8h.01M130.0 60.1h.01M270.7 224.6h.01M247.5 297.9h.01M225.8 219.1h.01M152.7 206.7h.01M259.4 415.4h.01M76.3 179.0h.01M172.3 350.9h.01M99.5 283.4h.01M266.9 204.7h.01M173.3 188.3h.01M167.0 342.8h.01M172.7 324.1h.01M243.3 407.6h.01M222.6 200.6h.01M144.3 327.5h.01M79.5 264.3h.01M190.6 293.1h.01M85.8 279.2h.01M253.5 277.6h.01M172.9 346.6h.01M257.6 349.4h.01M81.1 185.5h.01M146.0 248.7h.01M271.2 219.7h.01M131.6 291.6h.01M166.8 282.6h.01M281.4 192.9h.01M239.2 331.6h.01M163.8 200.6h.01M168.5 192.3h.01M196.3 336.1h.01M134.3 358.3h.01M72.7 156.6h.01M191.0 268.3h.01M280.7 101.4h.01M253.9 362.6h.01M171.5 258.1h.01M233.8 276.0h.01M179.5 206.1h.01M136.5 287.0h.01M201.7 317.6h.01M85.2 180.9h.01M233.3 270.8h.01M208.7 326.3h.01M185.2 275.8h.01M200.1 299.1h.01M148.4 338.4h.01M145.2 283.9h.01M197.9 313.1h.01M242.1 191.7h.01M276.0 333.0h.01M250.5 417.0h.01M255.4 221.9h.01M236.5 306.0h.01M108.1 128.6h.01M87.6 80.3h.01M214.6 217.8h.01M232.7 199.7h.01M210.6 298.2h.01M200.4 358.6h.01M136.9 318.2h.01M168.1 272.9h.01M72.5 272.4h.01M227.7 269.4h.01M276.6 261.6h.01M210.8 272.8h.01M207.5 302.1h.01M255.1 415.2h.01M171.6 308.9h.01M202.4 327.6h.01M172.2 288.8h.01M99.9 143.8h.01M252.4 395.5h.01M76.8 266.9h.01M268.0 222.1h.01M257.8 223.5h.01M172.9 319.3h.01M79.1 279.6h.01M289.8 196.0h.01M89.7 289.4h.01M231.9 334.9h.01M261.7 266.7h.01M218.0 358.2h.01M193.7 281.2h.01M129.8 266.2h.01M72.8 181.0h.01M186.0 267.3h.01M256.9 287.4h.01M193.7 315.2h.01M217.6 305.8h.01M69.4 164.1h.01M66.2 166.3h.01M215.4 315.7h.01M211.5 318.5h.01M251.7 296.1h.01M247.3 192.3h.01M191.3 336.5h.01M96.5 285.5h.01M172.0 314.2h.01M80.0 216.7h.01M65.4 232.3h.01M173.4 202.6h.01M78.7 181.3h.01M203.4 300.5h.01M265.1 409.0h.01M219.4 349.1h.01M257.3 277.3h.01M183.0 322.5h.01M86.1 193.3h.01M248.9 333.3h.01M265.4 255.8h.01M188.7 323.7h.01M216.6 203.0h.01M227.2 202.3h.01M218.2 220.3h.01M74.2 255.1h.01M231.7 202.8h.01M135.7 70.5h.01M144.7 333.0h.01M216.5 351.8h.01M91.3 185.8h.01M177.4 265.0h.01M65.9 170.0h.01M206.5 357.2h.01M278.5 243.1h.01M269.6 235.5h.01M271.0 198.4h.01M247.1 224.3h.01M192.9 286.0h.01M284.3 194.1h.01M285.6 119.9h.01M194.1 338.7h.01M139.9 254.5h.01M74.0 284.9h.01M251.0 281.5h.01M181.2 314.6h.01M288.8 142.8h.01M100.9 277.9h.01M98.1 155.1h.01M174.9 317.2h.01M165.6 265.1h.01M132.4 79.5h.01M249.2 337.8h.01M223.9 213.9h.01M163.2 310.2h.01M180.4 294.3h.01M216.9 301.2h.01M189.5 343.2h.01M134.1 62.7h.01M277.3 400.2h.01M151.0 256.0h.01M254.3 343.1h.01M287.3 126.3h.01M197.0 322.9h.01M100.5 321.5h.01M178.1 317.3h.01M222.7 280.7h.01M160.3 188.6h.01M77.3 277.3h.01M78.7 292.8h.01M211.1 357.6h.01M143.1 257.1h.01M75.8 183.5h.01M73.1 247.2h.01M278.4 207.6h.01M80.0 260.6h.01M267.1 244.7h.01M277.3 336.3h.01M125.2 284.3h.01M267.0 250.5h.01M210.5 301.0h.01M280.4 391.2h.01M161.0 178.4h.01M252.4 274.5h.01M175.1 294.4h.01M145.4 188.3h.01M147.7 258.2h.01M189.9 280.9h.01M183.5 320.0h.01M176.1 276.0h.01M215.6 362.6h.01M86.9 292.8h.01M240.5 194.6h.01M248.1 400.6h.01M73.4 261.5h.01M176.4 345.0h.01M164.7 189.9h.01M161.3 277.7h.01M239.3 288.6h.01M166.0 202.9h.01M140.3 322.2h.01M201.0 324.4h.01M172.1 284.1h.01M182.6 328.4h.01M219.2 278.1h.01M181.6 196.3h.01M69.7 254.0h.01M196.8 340.1h.01M187.9 321.7h.01M177.4 196.4h.01M73.8 251.5h.01M246.8 283.2h.01M274.9 206.8h.01M81.6 267.8h.01M284.6 179.9h.01M180.5 346.0h.01M116.4 290.3h.01M80.9 275.7h.01M235.8 283.0h.01M77.2 257.9h.01M246.4 301.3h.01M110.5 117.5h.01M260.2 275.2h.01M169.0 254.4h.01M182.2 286.5h.01M268.2 407.6h.01M249.1 353.7h.01M150.5 247.7h.01M77.7 96.3h.01M254.0 218.6h.01M268.0 200.2h.01M152.5 337.3h.01M260.6 271.1h.01M251.9 222.9h.01M136.6 322.6h.01M79.8 92.6h.01M168.7 348.0h.01M221.9 272.4h.01M214.4 311.9h.01M177.2 284.4h.01M289.0 148.0h.01M129.4 283.9h.01M221.8 224.3h.01M73.8 269.2h.01M155.7 276.7h.01M184.0 291.4h.01M162.7 287.9h.01M183.9 324.8h.01M79.4 269.8h.01M269.8 202.5h.01M110.1 279.9h.01M72.5 184.6h.01M92.0 292.9h.01M121.1 288.9h.01M85.7 257.1h.01M131.8 197.9h.01M167.9 339.7h.01M246.6 214.5h.01M256.5 291.4h.01M196.9 298.5h.01M254.5 284.3h.01M168.4 182.2h.01M278.6 252.6h.01M263.8 205.0h.01M202.9 292.5h.01M172.5 192.6h.01M223.4 221.5h.01M78.1 121.0h.01M90.2 195.0h.01M266.0 413.4h.01M183.3 271.2h.01M156.8 180.2h.01M159.4 183.7h.01M284.7 174.8h.01M163.2 186.3h.01M92.6 166.4h.01M168.1 311.0h.01M213.4 204.5h.01M69.6 270.6h.01M271.6 369.0h.01M191.9 340.7h.01M197.2 331.5h.01M255.3 280.7h.01M162.7 282.6h.01M69.3 160.1h.01M233.0 311.4h.01M140.4 259.3h.01M193.7 333.1h.01M105.7 329.5h.01M169.5 202.0h.01M283.0 390.0h.01M220.1 300.0h.01M208.3 265.4h.01M202.6 288.0h.01M151.4 265.4h.01M133.7 261.4h.01M282.1 230.6h.01M141.4 188.6h.01M168.3 206.9h.01"/>
<path stroke="#1a1a1a" stroke-width="3.35" stroke-linecap="round" fill="none" d="M283.6 203.4h.01M260.1 358.7h.01M170.0 263.7h.01M198.0 271.8h.01M144.4 337.4h.01M98.5 296.3h.01M79.3 273.4h.01M262.0 373.0h.01M127.7 301.9h.01M182.5 349.5h.01M289.6 192.5h.01M110.7 113.9h.01M72.7 281.3h.01M168.0 355.5h.01M219.2 292.0h.01M187.9 346.3h.01M95.7 145.9h.01M237.4 310.8h.01M210.1 354.6h.01M132.4 287.2h.01M270.1 378.1h.01M221.2 305.1h.01M128.9 287.7h.01M73.2 130.5h.01M271.7 251.3h.01M75.5 274.6h.01M273.6 333.3h.01M259.6 367.4h.01M124.5 65.7h.01M105.0 301.5h.01M195.8 274.8h.01M245.7 324.4h.01M88.3 182.2h.01M220.5 289.2h.01M266.5 358.1h.01M272.0 373.5h.01M280.5 211.8h.01M267.3 368.8h.01M83.4 296.1h.01M271.8 397.4h.01M269.1 261.8h.01M258.9 301.2h.01M289.1 159.9h.01M262.3 369.9h.01M274.4 370.3h.01M132.9 75.0h.01M217.9 285.8h.01M259.5 289.7h.01M117.1 73.3h.01M289.3 383.4h.01M150.6 279.4h.01M147.0 342.2h.01M259.5 213.7h.01M206.3 298.5h.01M144.1 341.7h.01M271.9 360.6h.01M106.0 286.2h.01M98.5 308.8h.01M96.9 303.6h.01M206.2 281.5h.01M285.0 349.5h.01M252.0 298.7h.01M265.9 275.1h.01M97.5 131.7h.01M261.5 383.0h.01M127.8 81.7h.01M132.4 281.8h.01M205.3 331.9h.01M72.4 133.1h.01M143.1 272.9h.01M145.3 276.7h.01M262.9 279.9h.01M267.5 270.4h.01M102.2 294.5h.01M289.7 185.0h.01M271.9 332.1h.01M285.9 381.7h.01M257.9 390.6h.01M252.3 316.5h.01M117.9 97.8h.01M132.1 66.7h.01M224.6 284.7h.01M220.7 283.7h.01M92.7 282.9h.01M80.0 167.4h.01M213.2 283.5h.01M268.7 258.4h.01M86.2 299.8h.01M230.8 304.2h.01M94.1 310.1h.01M277.0 390.0h.01M255.0 194.0h.01M220.0 204.9h.01M132.7 267.8h.01M72.4 265.9h.01M83.8 97.6h.01M218.4 313.3h.01M141.5 276.0h.01M228.7 206.2h.01M273.7 247.0h.01M202.0 336.6h.01M208.2 334.0h.01M86.6 198.3h.01M114.2 66.5h.01M95.2 152.6h.01M113.6 293.1h.01M257.7 298.1h.01M153.2 286.4h.01M118.2 71.4h.01M273.5 379.0h.01M108.5 317.0h.01M181.4 353.5h.01M96.4 141.6h.01M266.8 280.9h.01M88.3 296.2h.01M171.5 355.1h.01M263.3 200.4h.01M138.1 332.2h.01M100.5 304.7h.01M180.4 318.9h.01M103.6 325.4h.01M261.1 194.4h.01M91.3 153.6h.01M261.9 376.3h.01M162.0 197.9h.01M175.8 358.1h.01M204.3 274.9h.01M267.2 330.4h.01M196.8 342.9h.01M269.7 264.9h.01M257.6 411.5h.01M221.3 343.8h.01M76.7 152.7h.01M177.5 200.3h.01M98.4 292.9h.01M91.3 80.7h.01M214.1 213.1h.01M218.0 294.9h.01M72.3 142.5h.01M173.4 263.9h.01M236.9 210.8h.01M273.9 384.5h.01M81.5 288.5h.01M77.5 286.0h.01M274.6 228.5h.01M269.7 331.5h.01M101.1 286.8h.01M90.7 162.6h.01M96.9 289.9h.01M232.2 289.7h.01M79.1 107.0h.01M266.1 403.7h.01M86.9 84.7h.01M170.4 292.6h.01M231.4 210.3h.01M263.9 282.1h.01M112.6 107.5h.01M257.6 364.6h.01M129.0 76.7h.01M277.9 340.5h.01M104.3 314.9h.01M120.6 66.8h.01M224.8 207.5h.01M179.4 272.1h.01M153.6 348.3h.01M249.7 300.1h.01M217.2 288.7h.01M117.6 64.5h.01M145.5 264.2h.01M81.0 96.0h.01M108.3 71.0h.01M93.6 156.4h.01M221.4 294.3h.01M193.6 343.7h.01M223.4 298.1h.01M261.4 409.4h.01M192.1 362.4h.01M263.0 358.5h.01M101.4 134.7h.01M258.6 376.2h.01M128.9 64.5h.01M255.3 308.3h.01M262.5 197.0h.01M266.0 364.7h.01M116.9 67.9h.01M282.5 206.3h.01M153.5 344.8h.01M262.1 284.7h.01M140.8 334.6h.01M132.5 324.3h.01M276.0 372.3h.01M279.8 388.0h.01M125.7 78.5h.01M122.5 296.3h.01M210.7 281.5h.01M281.1 381.6h.01M75.6 129.1h.01M231.6 283.6h.01M267.5 328.7h.01M272.6 336.2h.01M85.4 289.3h.01M266.7 355.1h.01M289.1 172.5h.01M105.5 293.3h.01M277.5 380.0h.01M257.6 345.7h.01M82.8 93.0h.01M101.6 290.4h.01M109.7 290.8h.01M256.5 361.9h.01M135.1 264.6h.01M204.5 271.6h.01M80.0 99.5h.01M272.0 243.4h.01M264.3 367.8h.01M196.5 268.0h.01M277.6 383.1h.01M258.6 373.0h.01M89.4 285.6h.01M206.1 277.4h.01M240.5 311.9h.01M176.8 269.3h.01M135.8 326.5h.01M95.5 307.2h.01M94.4 295.6h.01M132.2 277.5h.01M247.3 404.8h.01M231.4 314.9h.01M104.5 305.5h.01M127.3 311.8h.01M256.1 301.6h.01M84.3 171.4h.01M115.7 296.0h.01M246.9 326.2h.01M136.0 280.5h.01M202.4 296.5h.01M164.6 193.0h.01M281.9 209.5h.01M124.0 69.0h.01M135.7 272.2h.01M244.6 306.3h.01M105.5 121.7h.01M94.2 139.6h.01M113.1 73.1h.01M280.2 342.1h.01M215.3 348.7h.01M127.7 305.0h.01M127.9 318.6h.01M179.4 350.6h.01M101.2 314.0h.01M198.9 274.8h.01M290.1 352.5h.01M289.6 355.6h.01M201.0 272.0h.01M280.5 385.0h.01M177.8 353.6h.01M263.0 276.8h.01M218.5 281.5h.01M199.7 338.3h.01M232.0 279.5h.01M141.1 268.7h.01M86.0 186.0h.01M289.7 168.2h.01M164.6 354.1h.01M247.7 304.7h.01M265.3 375.9h.01M101.0 299.1h.01M79.7 103.4h.01M200.5 280.5h.01M124.5 72.0h.01M128.2 280.5h.01M241.7 308.1h.01M184.1 354.4h.01M175.1 354.8h.01M270.1 268.4h.01M129.5 314.5h.01M269.8 254.6h.01M274.7 232.3h.01M208.7 296.9h.01M90.3 169.6h.01M256.7 342.0h.01M201.5 275.0h.01M258.3 321.7h.01M215.6 319.0h.01M120.5 73.0h.01M248.0 307.7h.01M289.9 163.3h.01M289.5 152.5h.01M255.5 338.4h.01M121.0 70.0h.01M284.5 198.4h.01M154.6 351.1h.01M265.1 290.3h.01M173.8 267.1h.01M171.6 270.0h.01M117.7 342.4h.01M105.3 125.4h.01M76.5 271.6h.01M154.5 353.7h.01M85.4 176.0h.01M223.4 291.4h.01M259.1 197.8h.01M123.0 292.5h.01M145.2 270.7h.01M239.9 315.4h.01M263.6 379.4h.01M276.5 386.5h.01M261.2 216.1h.01M210.4 285.4h.01M269.0 373.5h.01M283.1 215.9h.01M186.4 202.0h.01M260.7 221.7h.01M130.5 270.4h.01M168.7 197.1h.01M252.7 215.4h.01M125.3 288.6h.01M212.0 326.7h.01M247.5 196.4h.01M196.5 278.5h.01M260.6 362.1h.01M175.5 350.2h.01M184.9 365.2h.01M223.6 211.0h.01M251.4 320.4h.01M168.2 315.7h.01M258.7 219.5h.01M101.6 125.7h.01M180.2 199.2h.01M73.7 277.5h.01M284.0 113.5h.01M133.3 273.4h.01M157.4 345.2h.01M222.9 301.4h.01M289.8 365.0h.01M274.7 335.9h.01M137.4 261.3h.01M141.8 263.8h.01M227.3 282.7h.01M102.5 308.2h.01M250.8 303.3h.01M175.0 199.2h.01M132.1 317.2h.01M277.0 338.5h.01M269.1 375.9h.01M261.1 346.8h.01M128.0 298.6h.01M109.1 295.0h.01M111.1 67.7h.01M264.4 284.8h.01M131.6 70.4h.01M262.4 325.9h.01M194.9 270.5h.01M210.8 330.3h.01M199.7 277.4h.01M209.6 289.1h.01M243.1 325.3h.01M159.0 348.2h.01M129.4 307.9h.01M204.1 266.9h.01M126.0 75.0h.01M86.1 88.0h.01M235.1 315.2h.01M102.2 302.5h.01M82.5 100.0h.01M263.4 353.4h.01M105.3 289.8h.01M215.2 289.2h.01M211.8 277.7h.01M265.6 326.7h.01M88.5 177.6h.01M93.4 304.2h.01M74.1 145.8h.01M266.7 266.5h.01M213.5 287.0h.01M278.4 228.7h.01M137.8 267.0h.01M259.6 380.1h.01M202.6 283.4h.01M92.6 142.6h.01M88.4 189.9h.01M286.1 385.6h.01M212.7 352.7h.01M261.7 365.1h.01M113.1 336.0h.01M143.5 266.8h.01M229.0 293.5h.01M83.9 90.6h.01M275.0 374.7h.01M254.2 318.5h.01M82.4 292.6h.01M243.0 310.7h.01M250.7 330.3h.01M256.9 196.8h.01M203.3 278.4h.01M287.8 354.2h.01M98.0 311.0h.01M136.3 329.9h.01M140.5 279.1h.01M78.0 112.9h.01M217.7 215.5h.01M259.9 352.0h.01M140.0 273.0h.01M195.3 346.0h.01M103.9 297.6h.01M258.0 360.0h.01M99.2 139.0h.01M179.6 322.4h.01M111.7 71.0h.01M225.7 314.4h.01M289.3 379.5h.01M254.0 196.9h.01M118.9 294.0h.01M283.9 383.3h.01M144.7 361.7h.01M244.4 194.9h.01M78.0 288.9h.01M103.9 310.9h.01M286.7 352.4h.01M92.9 149.6h.01M226.3 292.7h.01M284.6 218.8h.01M146.5 273.0h.01M273.6 235.5h.01M171.7 199.2h.01M188.6 296.9h.01M228.5 308.7h.01M185.3 351.0h.01M255.0 296.5h.01M232.8 293.5h.01M289.0 176.6h.01M253.7 300.5h.01M101.2 75.5h.01M283.0 386.8h.01M96.5 299.3h.01M89.0 165.8h.01M134.1 194.4h.01M227.5 297.5h.01M230.3 300.6h.01M76.7 156.8h.01M158.4 354.4h.01M252.6 334.7h.01M246.7 329.3h.01M81.2 284.8h.01M78.6 159.9h.01M260.5 286.9h.01M219.4 346.1h.01M200.5 268.7h.01M99.4 306.7h.01M106.0 312.0h.01M221.5 208.5h.01M144.3 260.8h.01M153.7 365.2h.01M175.0 272.5h.01M273.3 381.9h.01M271.9 401.3h.01M285.6 183.7h.01M121.0 92.7h.01M257.2 305.2h.01M254.4 208.5h.01M258.4 193.0h.01M278.3 224.4h.01M244.9 206.5h.01M127.2 291.6h.01M127.5 68.8h.01M280.0 215.3h.01M100.6 130.0h.01M271.3 276.7h.01M117.5 101.2h.01M116.5 104.5h.01M76.1 126.1h.01M158.6 350.9h.01M245.5 309.0h.01M251.5 307.0h.01M270.0 358.0h.01M104.5 318.0h.01M252.8 411.7h.01M247.3 311.0h.01M77.8 283.0h.01M127.1 351.2h.01M164.9 350.9h.01M221.2 214.8h.01M148.4 267.0h.01M84.2 95.1h.01M115.4 73.7h.01M193.6 296.8h.01M265.5 372.7h.01M251.6 194.2h.01M264.4 361.6h.01M250.5 309.3h.01M266.0 278.0h.01M220.2 297.1h.01M229.0 336.3h.01M124.7 299.3h.01M267.0 378.3h.01M215.5 294.9h.01M85.6 285.5h.01M212.6 296.1h.01M86.8 169.2h.01M135.1 268.9h.01M165.0 345.5h.01M102.8 282.7h.01M204.6 335.3h.01M248.0 408.5h.01M206.4 290.1h.01M280.6 221.3h.01M281.7 344.8h.01M163.5 348.5h.01M104.7 71.7h.01M136.7 277.4h.01M75.8 280.5h.01M238.0 327.5h.01M127.0 277.5h.01M91.1 307.3h.01M258.4 370.1h.01M121.5 63.3h.01M128.6 323.8h.01M166.4 367.1h.01M273.3 376.4h.01M274.5 393.6h.01M133.3 320.7h.01M227.8 276.5h.01M88.4 281.5h.01M264.0 350.7h.01M125.7 61.8h.01M232.0 297.1h.01M169.4 266.5h.01M284.6 346.9h.01M99.0 301.5h.01M235.7 205.1h.01M128.8 72.6h.01M270.0 381.0h.01M107.5 118.7h.01M129.9 320.7h.01M154.4 279.7h.01M224.6 295.4h.01M269.5 371.2h.01M193.7 272.8h.01M250.0 327.0h.01M258.4 294.9h.01M126.4 86.0h.01M118.3 69.3h.01M126.2 295.5h.01M268.4 360.9h.01M129.5 274.0h.01M93.6 300.8h.01M149.7 344.6h.01M124.8 303.5h.01M123.8 89.1h.01M155.7 283.5h.01M251.2 399.3h.01M161.5 352.5h.01M89.6 303.1h.01M227.5 209.7h.01M93.1 160.3h.01M261.7 355.7h.01M168.5 351.5h.01M88.0 173.1h.01M275.2 366.2h.01M265.1 198.6h.01M215.1 279.6h.01M234.5 287.1h.01"/>
<path stroke="#1a1a1a" stroke-width="3.91" stroke-linecap="round" fill="none" d="M117.2 298.7h.01M198.1 345.9h.01M141.9 339.7h.01M94.7 82.3h.01M249.1 316.9h.01M82.0 147.5h.01M173.2 359.4h.01M130.5 354.4h.01M112.4 304.2h.01M95.8 97.2h.01M78.5 145.1h.01M224.4 304.5h.01M107.8 314.0h.01M262.7 401.5h.01M277.2 358.6h.01M88.0 134.2h.01M82.0 160.0h.01M159.5 362.0h.01M114.0 83.0h.01M181.2 359.2h.01M152.5 282.5h.01M285.0 209.4h.01M233.2 331.0h.01M118.9 76.4h.01M109.1 310.6h.01M243.2 314.4h.01M285.5 379.0h.01M121.4 331.6h.01M139.0 345.3h.01M147.0 346.0h.01M283.5 222.7h.01M287.0 194.7h.01M182.5 363.9h.01M110.3 101.0h.01M267.1 392.9h.01M141.1 343.1h.01M240.0 324.9h.01M275.9 237.8h.01M113.3 91.2h.01M203.3 350.4h.01M226.3 334.8h.01M82.7 127.4h.01M105.1 88.9h.01M90.6 84.0h.01M116.0 308.5h.01M205.7 295.3h.01M110.9 83.9h.01M196.8 354.5h.01M116.4 90.5h.01M241.9 206.9h.01M186.1 355.9h.01M77.9 135.5h.01M253.8 304.7h.01M97.5 117.0h.01M129.2 348.2h.01M217.9 343.1h.01M182.5 357.0h.01M187.4 362.7h.01M121.3 78.5h.01M119.0 307.0h.01M91.8 119.6h.01M87.9 138.3h.01M196.5 351.0h.01M114.4 330.1h.01M109.5 105.5h.01M75.0 137.3h.01M165.3 196.2h.01M156.3 359.6h.01M126.4 325.9h.01M210.3 337.0h.01M194.0 348.3h.01M84.5 100.0h.01M125.5 333.9h.01M108.8 329.5h.01M228.1 324.8h.01M144.0 352.2h.01M82.8 163.2h.01M221.5 334.3h.01M131.9 333.3h.01M237.1 324.5h.01M187.8 350.9h.01M248.4 322.7h.01M200.6 348.7h.01M280.5 374.5h.01M83.3 139.4h.01M254.8 332.6h.01M236.1 321.9h.01M88.7 131.0h.01M85.6 157.9h.01M258.9 335.4h.01M273.2 264.1h.01M102.3 81.8h.01M247.4 207.7h.01M175.6 362.5h.01M116.4 79.9h.01M80.2 133.5h.01M276.8 354.2h.01M287.5 197.9h.01M107.9 301.1h.01M258.2 339.9h.01M93.5 99.2h.01M189.5 360.5h.01M142.3 349.0h.01M219.0 321.0h.01M207.0 353.9h.01M117.3 327.8h.01M266.6 333.2h.01M222.4 341.6h.01M122.0 304.0h.01M191.5 349.5h.01M260.9 334.3h.01M214.0 324.4h.01M107.3 84.5h.01M113.0 104.0h.01M281.0 358.3h.01M228.9 286.0h.01M278.3 236.2h.01M118.0 331.5h.01M227.5 332.0h.01M199.2 353.1h.01M209.8 340.1h.01M242.5 322.0h.01M106.2 80.6h.01M272.6 355.6h.01M184.9 360.1h.01M169.4 361.9h.01M88.0 104.0h.01M161.5 356.5h.01M280.7 347.0h.01M266.9 347.4h.01M216.2 335.3h.01M131.1 335.9h.01M112.0 307.0h.01M110.8 323.2h.01M251.3 209.5h.01M223.9 335.1h.01M285.4 376.0h.01M224.6 308.8h.01M106.9 297.6h.01M272.8 267.4h.01M75.8 142.1h.01M114.8 304.0h.01M85.7 139.6h.01M90.7 139.4h.01M136.9 340.9h.01M112.4 297.2h.01M205.5 345.0h.01M214.0 336.3h.01M100.0 79.1h.01M208.0 349.3h.01M261.1 392.4h.01M283.4 353.2h.01M229.3 333.1h.01M105.9 106.9h.01M286.0 363.3h.01M273.4 339.2h.01M263.4 386.1h.01M137.7 192.9h.01M85.3 136.1h.01M139.0 348.2h.01M96.9 127.6h.01M277.0 351.0h.01M104.0 110.0h.01M256.1 335.1h.01M119.8 298.5h.01M127.5 328.3h.01M218.1 326.2h.01M113.1 77.9h.01M268.4 398.9h.01M93.8 106.7h.01M103.2 96.3h.01M91.0 105.2h.01M178.3 361.1h.01M266.5 343.7h.01M99.1 100.1h.01M260.7 293.3h.01M284.6 355.2h.01M85.2 103.3h.01M216.3 345.6h.01M271.7 261.6h.01M118.4 85.9h.01M82.8 107.7h.01M116.8 306.4h.01M212.9 290.2h.01M209.4 347.2h.01M222.6 327.9h.01M266.9 283.9h.01M95.3 118.9h.01M143.8 191.5h.01M193.8 354.8h.01M88.9 88.4h.01M289.3 375.6h.01M98.7 103.4h.01M216.1 331.7h.01M286.5 206.2h.01M225.5 337.6h.01M164.9 356.9h.01M118.0 310.8h.01M109.1 91.5h.01M221.5 330.6h.01M213.4 332.4h.01M281.1 361.1h.01M123.8 329.2h.01M146.2 193.1h.01M227.8 322.0h.01M90.5 136.2h.01M253.4 404.3h.01M237.8 318.7h.01M177.5 365.5h.01M99.1 121.2h.01M94.3 115.0h.01M113.5 101.0h.01M272.5 257.6h.01M89.2 148.4h.01M125.5 338.7h.01M154.0 362.0h.01M271.3 386.3h.01M261.0 388.8h.01M81.0 140.5h.01M96.8 99.2h.01M245.1 312.7h.01M288.9 180.9h.01M262.7 332.5h.01M119.7 302.0h.01M93.6 124.6h.01M119.5 319.8h.01M265.0 331.7h.01M112.0 301.0h.01M98.2 82.0h.01M152.8 190.6h.01M77.2 148.5h.01M109.5 103.3h.01M103.5 78.5h.01M238.5 321.0h.01M257.2 396.6h.01M107.5 304.5h.01M107.6 115.1h.01M109.0 77.6h.01M173.6 366.5h.01M255.9 214.8h.01M213.3 346.0h.01M268.8 274.5h.01M108.8 99.2h.01M73.2 135.5h.01M124.0 317.0h.01M203.2 344.8h.01M263.1 338.9h.01M281.5 353.5h.01M257.2 408.1h.01M148.0 356.0h.01M275.1 254.5h.01M230.8 321.1h.01M105.0 117.2h.01M116.8 94.3h.01M75.7 132.2h.01M234.9 326.1h.01M227.0 279.9h.01M206.2 342.0h.01M112.5 94.2h.01M88.5 118.5h.01M124.0 312.5h.01M129.2 340.6h.01M78.8 141.7h.01M123.8 325.6h.01M111.3 314.4h.01M92.5 117.0h.01M96.6 78.8h.01M263.3 342.9h.01M81.7 136.8h.01M275.7 250.5h.01M114.2 326.5h.01M139.3 337.8h.01M110.1 303.7h.01M222.5 318.0h.01M104.4 102.8h.01M207.8 293.2h.01M254.7 397.9h.01M284.2 357.4h.01M270.7 338.3h.01M279.4 364.5h.01M107.1 109.5h.01M80.3 130.0h.01M142.3 355.5h.01M91.1 97.3h.01M162.6 363.1h.01M92.9 93.5h.01M242.0 211.4h.01M85.2 110.5h.01M274.1 260.3h.01M170.0 358.8h.01M216.3 291.9h.01M125.2 347.0h.01M84.9 133.7h.01M191.5 346.6h.01M137.5 351.9h.01M81.8 111.5h.01M97.5 135.3h.01M124.7 342.3h.01M91.1 109.8h.01M215.9 322.3h.01M258.3 399.2h.01M218.8 335.5h.01M108.7 95.3h.01M258.7 402.4h.01M192.7 358.5h.01M270.9 352.1h.01M81.4 118.5h.01M130.1 326.9h.01M282.9 369.1h.01M214.2 292.4h.01M93.9 85.8h.01M102.8 91.5h.01M97.0 89.0h.01M82.5 133.5h.01M94.6 91.4h.01M96.7 105.6h.01M128.5 336.7h.01M184.1 297.1h.01M287.7 187.2h.01M88.3 142.5h.01M269.6 349.1h.01M150.3 352.3h.01M160.1 366.0h.01M275.1 341.1h.01M227.7 318.9h.01M98.7 97.0h.01M260.8 339.7h.01M260.0 343.2h.01M124.4 310.5h.01M120.2 308.8h.01M224.8 288.4h.01M102.8 113.0h.01M148.2 361.4h.01M88.7 96.0h.01M120.8 317.0h.01M101.0 105.0h.01M75.8 134.7h.01M138.0 270.2h.01M254.8 322.5h.01M211.8 347.6h.01M218.4 328.9h.01M94.3 137.1h.01M136.1 347.4h.01M178.9 357.4h.01M133.0 328.0h.01M277.9 377.1h.01M108.5 320.6h.01M121.1 313.3h.01M192.0 352.0h.01M269.9 345.8h.01M225.8 328.7h.01M100.6 317.6h.01M90.4 114.6h.01M101.0 110.5h.01M135.0 333.0h.01M249.6 212.9h.01M253.1 401.1h.01M114.4 306.8h.01M89.3 123.9h.01M225.0 324.5h.01M82.1 143.6h.01M96.9 86.1h.01M140.8 192.0h.01M251.5 314.0h.01M80.6 121.6h.01M132.8 330.4h.01M285.8 200.9h.01M105.5 104.7h.01M98.0 314.6h.01M222.0 325.0h.01M88.3 160.3h.01M231.6 332.2h.01M223.8 316.2h.01M203.9 341.9h.01M262.5 290.7h.01M75.5 139.5h.01M275.2 352.2h.01M268.6 340.6h.01M102.2 99.6h.01M243.7 316.4h.01M255.8 401.5h.01M248.0 320.0h.01M100.0 107.3h.01M101.2 97.8h.01M207.3 345.3h.01M210.2 342.4h.01M188.1 353.9h.01M134.2 350.5h.01M201.0 340.9h.01M253.7 212.2h.01M79.9 151.0h.01M232.2 325.4h.01M281.1 227.1h.01M109.1 107.9h.01M180.1 363.6h.01M122.1 300.7h.01M148.6 358.1h.01M265.6 335.6h.01M260.6 329.2h.01M190.6 353.8h.01M112.0 309.5h.01M234.2 323.3h.01M140.9 351.6h.01M104.2 84.5h.01M253.1 326.8h.01M258.7 325.4h.01M102.2 101.4h.01M273.5 388.2h.01M154.0 194.4h.01M213.5 338.5h.01M277.2 257.6h.01M88.0 92.7h.01M86.5 163.2h.01M277.7 246.9h.01M114.9 310.3h.01M224.7 331.8h.01M224.5 311.8h.01M270.7 272.1h.01M109.8 74.4h.01M119.3 89.1h.01M189.4 349.3h.01M240.6 319.8h.01M120.4 327.1h.01M100.0 114.8h.01M141.2 271.4h.01M221.3 338.1h.01M150.7 193.1h.01M107.5 101.5h.01M123.6 308.8h.01M97.6 113.6h.01M273.5 363.3h.01M95.5 121.8h.01M105.2 97.0h.01M267.5 351.8h.01M133.7 341.2h.01M134.4 354.6h.01M110.2 110.7h.01M196.3 358.4h.01M95.9 312.7h.01M108.8 87.6h.01M196.9 348.2h.01M83.5 116.0h.01M281.8 378.4h.01M289.3 362.2h.01M126.8 316.3h.01M282.5 350.5h.01M79.5 109.8h.01M274.8 348.4h.01M285.4 213.7h.01M121.3 343.8h.01M258.0 337.5h.01M278.5 232.4h.01M113.8 302.4h.01M269.1 278.5h.01M98.9 84.4h.01M267.3 387.6h.01M94.0 134.0h.01M143.7 280.1h.01M87.0 90.5h.01M207.0 338.6h.01M116.1 335.8h.01M264.9 287.2h.01M129.1 333.1h.01M227.9 316.2h.01M258.1 331.4h.01M290.1 371.6h.01M87.3 113.6h.01M210.9 292.1h.01M221.6 286.5h.01M88.7 99.0h.01M254.4 330.1h.01M149.9 348.5h.01M284.8 351.7h.01M273.1 346.0h.01M166.8 359.0h.01M151.1 359.1h.01M287.5 370.0h.01M91.2 133.3h.01M228.6 289.4h.01M289.6 368.0h.01M246.7 317.2h.01M215.2 342.2h.01M121.4 339.4h.01M211.5 349.8h.01M114.5 70.0h.01M156.1 192.2h.01M122.8 75.4h.01M268.2 336.5h.01M145.9 354.9h.01M107.2 97.8h.01M96.3 115.0h.01M226.6 301.4h.01M93.5 88.8h.01M103.0 107.0h.01M71.9 138.8h.01M213.3 340.4h.01M279.3 350.2h.01M220.6 310.5h.01M82.8 103.3h.01M124.3 314.4h.01M238.6 206.6h.01M138.6 355.6h.01M78.6 128.0h.01M137.0 335.0h.01M121.3 310.3h.01M230.1 326.7h.01M210.3 294.9h.01M86.4 122.5h.01M205.8 351.3h.01M117.6 339.0h.01M256.8 212.2h.01M252.3 407.5h.01M85.1 130.7h.01M228.0 328.3h.01M194.1 350.9h.01M116.0 77.0h.01M156.2 356.4h.01M232.1 322.7h.01M91.1 121.8h.01M242.0 318.0h.01M133.2 331.7h.01M118.4 323.4h.01M209.0 351.7h.01M166.2 364.0h.01M271.2 342.7h.01M110.9 331.3h.01M102.8 116.3h.01M106.3 112.5h.01M262.9 336.2h.01M285.3 367.7h.01M265.5 383.6h.01M287.4 202.8h.01M286.4 356.2h.01M224.6 320.5h.01M282.4 355.8h.01M84.7 150.5h.01M211.6 334.5h.01M239.7 209.6h.01M80.2 155.0h.01M111.2 97.5h.01M90.8 90.8h.01M221.9 321.6h.01M153.9 358.9h.01M282.3 363.6h.01M86.5 99.5h.01M98.2 108.6h.01M105.6 75.6h.01M114.6 323.4h.01M106.5 103.0h.01M94.0 110.0h.01M111.3 327.4h.01M201.4 343.8h.01M78.7 115.9h.01M99.9 118.2h.01M265.6 398.0h.01M264.4 389.1h.01M86.5 97.5h.01M114.9 300.1h.01M107.4 325.4h.01M248.5 210.1h.01M109.3 307.0h.01M244.7 319.2h.01M88.7 107.4h.01M139.2 264.1h.01M287.3 373.3h.01M115.0 333.0h.01M264.0 392.5h.01M87.0 101.5h.01M123.2 319.9h.01M198.7 350.0h.01M281.3 351.7h.01M112.3 88.8h.01M90.1 157.6h.01M113.0 75.5h.01M250.4 403.7h.01M157.1 195.2h.01M265.9 339.4h.01M93.1 102.3h.01M274.0 354.0h.01M284.0 361.7h.01M263.9 329.1h.01M163.0 365.9h.01M106.6 308.5h.01M263.1 396.1h.01M144.8 358.0h.01M139.2 341.4h.01M278.1 370.9h.01M88.0 155.2h.01M172.5 363.5h.01M203.8 339.0h.01M78.0 131.5h.01M131.1 350.6h.01M234.6 319.3h.01M134.0 344.0h.01M282.0 348.8h.01M275.7 241.8h.01M284.5 371.6h.01M208.0 343.3h.01M218.9 332.1h.01M275.0 360.7h.01M130.1 330.1h.01M119.5 81.5h.01M162.0 195.0h.01M252.1 323.9h.01M163.0 359.8h.01M116.5 304.5h.01M112.3 80.4h.01M269.8 389.8h.01M207.7 346.7h.01M282.7 365.9h.01M125.6 321.6h.01M268.4 333.2h.01M94.0 95.7h.01M151.0 362.7h.01M117.3 302.0h.01M228.4 312.3h.01M146.6 349.6h.01M165.9 361.3h.01M259.2 394.6h.01M203.8 347.2h.01M280.4 355.8h.01M282.8 374.5h.01M130.6 344.2h.01M278.5 356.0h.01M169.6 365.5h.01M83.0 123.0h.01M85.6 166.0h.01M144.1 344.9h.01M106.3 100.0h.01M273.3 390.9h.01M91.0 145.6h.01M224.5 340.1h.01M109.3 81.4h.01M232.9 328.1h.01M277.2 367.6h.01M245.7 211.1h.01M97.7 111.6h.01M121.7 84.9h.01M92.1 127.9h.01M203.3 354.6h.01M182.0 361.0h.01M273.7 358.1h.01M80.7 125.7h.01M232.3 206.6h.01M104.5 321.5h.01M221.8 307.5h.01M112.1 311.9h.01M277.8 343.1h.01M81.1 114.9h.01M105.6 93.4h.01M269.3 384.1h.01M280.0 368.0h.01M278.1 348.3h.01M256.3 405.5h.01M84.5 119.5h.01M102.6 103.8h.01M270.1 355.0h.01M126.0 307.5h.01M147.4 280.3h.01M201.1 351.9h.01M112.5 317.6h.01M249.8 324.6h.01M147.2 352.3h.01M112.1 333.5h.01M189.5 356.8h.01M90.2 101.5h.01M141.9 346.1h.01M132.5 338.8h.01M86.1 146.3h.01M102.2 121.0h.01M244.9 321.9h.01M119.0 304.5h.01M270.3 394.0h.01M275.1 343.9h.01M84.9 143.2h.01M115.1 320.3h.01M118.4 314.5h.01M97.9 124.3h.01M86.5 95.0h.01M100.5 102.5h.01M153.5 356.0h.01M97.1 92.1h.01M287.7 190.2h.01M159.5 195.4h.01M101.6 85.7h.01M283.4 359.2h.01M219.3 318.6h.01M97.0 94.7h.01M199.5 356.0h.01M280.9 371.1h.01M85.5 106.3h.01M85.5 92.5h.01M116.4 317.2h.01M86.1 116.3h.01M210.5 345.0h.01M84.0 113.3h.01M263.9 347.5h.01M287.2 365.7h.01M114.1 97.6h.01M119.0 335.5h.01M112.1 86.1h.01M266.8 381.0h.01M219.5 316.2h.01M214.8 328.4h.01M104.5 100.0h.01M127.5 344.7h.01M100.2 88.6h.01M276.0 356.5h.01M184.2 362.4h.01M94.0 130.6h.01M93.5 112.7h.01M278.9 360.4h.01M249.9 311.9h.01M234.7 208.8h.01M115.1 86.4h.01M85.6 126.2h.01M261.1 398.4h.01M277.5 346.0h.01M279.4 239.4h.01M221.9 313.7h.01M219.1 323.9h.01M84.9 154.7h.01M82.4 152.8h.01M115.2 313.5h.01M88.7 127.6h.01M240.2 322.6h.01M231.4 317.9h.01M78.5 123.9h.01M272.9 350.3h.01M88.2 151.6h.01M145.9 268.6h.01M122.4 335.6h.01M230.0 330.0h.01M99.9 92.2h.01M156.9 363.6h.01M237.5 315.5h.01M286.0 359.0h.01M100.9 94.8h.01M219.3 341.0h.01M116.9 83.1h.01M149.4 283.7h.01M96.3 109.5h.01M88.2 110.6h.01M186.8 358.6h.01M287.5 360.3h.01M109.9 299.3h.01M247.7 314.2h.01M160.5 192.2h.01M141.7 360.0h.01M126.8 331.0h.01M243.5 209.0h.01M201.2 346.7h.01M279.3 353.0h.01M78.8 138.0h.01M90.3 94.0h.01M82.7 129.9h.01M261.3 405.5h.01M217.3 339.1h.01M212.9 343.1h.01M151.2 355.5h.01M205.8 348.2h.01M199.6 343.3h.01M122.4 306.7h.01M90.8 86.6h.01M159.3 358.9h.01M133.9 335.9h.01M276.9 362.7h.01M289.0 357.7h.01M84.9 160.5h.01M95.9 102.3h.01M81.7 157.2h.01M148.6 190.3h.01M136.0 338.0h.01M132.8 347.0h.01M123.6 81.8h.01M278.2 374.1h.01M257.8 216.6h.01M227.3 305.6h.01M122.2 323.2h.01M270.9 334.9h.01M256.1 327.1h.01M144.7 348.0h.01M136.9 343.9h.01M213.1 294.1h.01"/>
</svg>