<svg xmlns="http://www.w3.org/2000/svg" viewBox="0 0 360 432" role="img">
<path stroke="#1a1a1a" stroke-width="1.55" stroke-linecap="round" fill="none" d="M182.9 130.3h.01M221.3 81.0h.01M150.2 132.7h.01M178.2 209.0h.01M219.9 190.8h.01M203.7 79.0h.01M215.6 180.5h.01M213.0 77.4h.01M165.5 121.7h.01M164.2 205.4h.01M170.9 140.6h.01M168.3 217.2h.01M197.5 140.3h.01M184.5 205.5h.01M220.4 145.3h.01M199.2 70.4h.01M234.7 126.4h.01M258.5 128.6h.01M192.5 102.6h.01M211.0 112.9h.01M241.8 139.1h.01M253.4 114.1h.01M358.6 107.8h.01M267.1 147.2h.01M156.2 207.4h.01M224.3 213.4h.01M157.5 320.0h.01M234.1 134.5h.01M193.0 120.4h.01M216.4 135.7h.01M197.2 62.3h.01M177.1 136.5h.01M141.1 214.7h.01M230.5 430.6h.01M204.6 63.8h.01M157.5 312.9h.01M178.3 201.9h.01M176.4 92.7h.01M199.1 133.5h.01M191.5 127.5h.01M190.8 220.6h.01M248.6 430.6h.01M170.5 132.8h.01M188.4 80.9h.01M226.8 123.9h.01M174.3 126.5h.01M216.0 219.2h.01M251.1 130.3h.01M158.1 219.2h.01M242.4 131.5h.01M259.4 135.3h.01M218.0 98.6h.01M185.8 96.0h.01M184.6 115.8h.01M0.4 122.5h.01M164.2 129.9h.01M222.9 176.1h.01M212.7 85.0h.01M161.9 105.7h.01M220.5 117.1h.01M258.5 121.6h.01M150.5 214.5h.01M217.7 57.7h.01M218.5 127.8h.01M190.7 89.1h.01M214.3 190.0h.01M228.5 88.9h.01M170.2 101.2h.01M142.0 430.6h.01M210.4 103.9h.01M250.9 138.3h.01M207.3 138.1h.01M161.9 212.9h.01M178.5 101.4h.01M305.4 227.6h.01M168.7 92.2h.01M192.6 191.2h.01M230.5 116.1h.01M209.9 220.1h.01M215.4 172.8h.01M243.4 123.4h.01M217.1 212.1h.01M245.0 100.7h.01M197.1 204.7h.01M200.7 102.8h.01M252.3 106.3h.01M207.9 71.3h.01M232.1 142.1h.01M170.2 109.8h.01M178.2 109.8h.01M157.3 136.3h.01M358.6 285.5h.01M190.8 67.3h.01M174.6 68.9h.01M234.9 93.4h.01M193.0 112.1h.01M236.2 326.2h.01M218.3 204.9h.01M97.3 71.7h.01M226.0 132.0h.01M259.7 142.9h.01M221.9 196.4h.01M268.1 336.8h.01M203.4 118.5h.01M245.2 111.9h.01M285.4 311.7h.01M155.3 111.4h.01M222.7 65.1h.01M212.2 121.8h.01M242.7 91.8h.01M226.7 323.9h.01M205.2 96.5h.01M265.7 138.8h.01M164.1 138.7h.01M214.4 66.2h.01M219.5 107.8h.01M272.0 141.8h.01M288.0 282.8h.01M196.8 94.3h.01M237.3 109.1h.01M184.3 63.8h.01M211.9 92.9h.01M238.2 117.7h.01M233.0 336.1h.01M167.3 327.9h.01M204.6 88.2h.01M184.5 138.5h.01M163.3 113.7h.01M190.3 134.6h.01M221.6 183.8h.01M229.7 80.7h.01M229.1 72.1h.01M185.7 106.8h.01M157.2 127.9h.01M263.0 231.2h.01M0.4 272.8h.01M250.4 121.2h.01M227.1 98.4h.01M227.9 108.2h.01M182.7 87.1h.01M257.0 219.6h.01M118.0 430.6h.01M253.1 145.9h.01M201.4 110.5h.01M224.5 223.9h.01M148.4 207.6h.01M175.2 84.4h.01M156.7 119.3h.01M214.0 198.4h.01M148.4 118.3h.01M174.0 118.0h.01M214.3 430.6h.01M224.6 139.4h.01M196.3 220.3h.01M193.7 75.7h.01M236.0 101.1h.01M182.7 122.8h.01M208.5 130.0h.01M200.7 125.9h.01M257.8 226.9h.01M191.6 50.9h.01"/>
<path stroke="#1a1a1a" stroke-width="1.94" stroke-linecap="round" fill="none" d="M114.0 154.9h.01M119.1 155.9h.01M205.5 49.2h.01M159.2 294.7h.01M177.8 42.5h.01M220.4 363.5h.01M130.7 101.0h.01M232.0 246.7h.01M128.1 199.6h.01M185.2 222.9h.01M112.8 162.9h.01M109.1 405.9h.01M133.9 125.8h.01M119.7 145.5h.01M71.8 198.6h.01M238.2 254.9h.01M143.7 70.3h.01M271.0 222.0h.01M76.5 189.5h.01M195.9 326.7h.01M245.4 392.5h.01M157.9 44.0h.01M218.1 49.8h.01M186.2 194.7h.01M164.4 315.0h.01M264.3 217.1h.01M134.3 284.0h.01M177.9 176.9h.01M197.3 84.4h.01M242.8 207.4h.01M268.3 330.2h.01M260.5 112.4h.01M135.6 67.9h.01M148.8 55.4h.01M163.5 78.1h.01M135.5 60.7h.01M226.5 147.5h.01M240.1 259.7h.01M145.3 112.0h.01M160.0 337.3h.01M187.2 181.8h.01M162.1 331.8h.01M129.1 154.6h.01M203.6 181.3h.01M153.6 62.4h.01M117.7 164.7h.01M225.2 284.2h.01M120.5 109.5h.01M205.5 204.5h.01M156.5 226.2h.01M115.9 96.0h.01M242.7 322.9h.01M128.7 95.9h.01M181.0 331.0h.01M215.6 361.2h.01M192.5 331.8h.01M156.9 326.8h.01M150.7 321.4h.01M157.2 342.5h.01M180.5 430.6h.01M186.8 328.7h.01M155.9 307.1h.01M231.4 225.3h.01M179.2 320.0h.01M205.9 332.4h.01M160.6 90.2h.01M197.7 180.4h.01M64.7 182.5h.01M215.3 155.5h.01M142.6 78.9h.01M167.1 84.2h.01M149.9 327.5h.01M115.6 175.5h.01M135.7 97.7h.01M170.9 341.9h.01M215.1 284.0h.01M214.6 327.9h.01M118.2 90.7h.01M137.8 53.4h.01M231.1 212.7h.01M254.1 98.0h.01M162.7 323.0h.01M140.3 300.9h.01M0.4 220.9h.01M189.2 201.2h.01M291.9 232.6h.01M137.4 73.9h.01M139.0 141.7h.01M271.8 174.2h.01M278.0 220.2h.01M162.2 430.6h.01M159.8 199.7h.01M135.8 193.1h.01M222.5 169.1h.01M127.4 176.5h.01M218.6 357.5h.01M114.7 146.7h.01M153.9 332.9h.01M145.0 221.4h.01M81.0 87.7h.01M202.1 143.9h.01M140.0 85.6h.01M273.9 149.1h.01M277.9 238.9h.01M280.5 125.8h.01M79.2 236.6h.01M211.5 52.7h.01M122.3 166.8h.01M191.7 209.3h.01M114.3 113.5h.01M104.6 68.4h.01M192.5 184.5h.01M123.4 93.0h.01M272.1 121.2h.01M204.1 150.8h.01M148.4 302.0h.01M119.6 124.2h.01M243.3 310.3h.01M141.7 227.2h.01M178.1 243.4h.01M238.6 341.5h.01M82.2 231.0h.01M101.5 394.9h.01M184.8 322.1h.01M260.5 307.7h.01M233.3 193.9h.01M174.5 292.7h.01M150.1 106.7h.01M233.4 352.4h.01M144.2 105.0h.01M261.8 95.5h.01M255.6 318.5h.01M116.0 128.6h.01M120.6 190.5h.01M129.3 115.5h.01M230.7 53.1h.01M92.2 283.1h.01M237.1 245.5h.01M109.8 126.9h.01M268.6 170.9h.01M258.8 212.6h.01M236.3 207.3h.01M208.7 178.4h.01M150.1 124.6h.01M127.6 108.1h.01M233.7 228.8h.01M240.1 392.8h.01M269.1 324.2h.01M230.7 221.2h.01M173.5 324.5h.01M221.9 343.5h.01M110.9 158.6h.01M263.5 172.5h.01M231.0 207.7h.01M166.2 162.0h.01M242.2 396.6h.01M220.2 72.4h.01M144.8 299.3h.01M184.7 41.5h.01M168.3 185.5h.01M237.4 67.8h.01M205.0 223.8h.01M186.4 48.1h.01M158.5 69.0h.01M140.5 64.2h.01M140.4 134.8h.01M227.6 341.5h.01M224.8 56.6h.01M121.1 161.2h.01M147.0 180.6h.01M245.0 83.4h.01M176.1 54.5h.01M154.4 55.2h.01M293.3 199.9h.01M111.9 143.0h.01M87.7 173.6h.01M128.0 89.0h.01M211.8 167.7h.01M211.0 347.1h.01M123.2 140.3h.01M229.8 403.1h.01M129.4 121.6h.01M183.8 55.6h.01M127.2 212.0h.01M151.0 69.6h.01M302.0 175.0h.01M109.1 110.1h.01M123.4 202.7h.01M222.9 310.1h.01M106.7 166.4h.01M145.2 139.1h.01M253.2 386.9h.01M169.6 44.8h.01M265.0 118.9h.01M108.4 171.7h.01M223.8 229.2h.01M138.0 129.6h.01M118.3 103.3h.01M90.2 169.3h.01M271.5 235.0h.01M141.0 123.4h.01M154.1 162.0h.01M125.5 302.1h.01M122.5 0.4h.01M244.5 329.7h.01M149.5 84.2h.01M163.9 300.7h.01M358.6 211.5h.01M209.9 184.7h.01M278.9 120.2h.01M224.9 48.5h.01M134.5 79.4h.01M216.2 161.8h.01M236.7 249.8h.01M199.8 278.9h.01M214.1 341.7h.01M192.5 277.3h.01M228.3 349.1h.01M245.5 315.7h.01M161.7 97.5h.01M178.3 61.9h.01M224.4 201.6h.01M289.2 271.3h.01M114.3 406.9h.01M69.8 191.8h.01M147.2 62.9h.01M190.0 341.7h.01M277.6 234.1h.01M168.2 297.9h.01M123.4 172.4h.01M156.9 180.6h.01M83.3 214.4h.01M72.7 101.2h.01M182.3 341.4h.01M278.1 224.8h.01M358.6 177.6h.01M223.0 218.6h.01M125.9 151.1h.01M260.5 102.5h.01M173.3 234.4h.01M180.5 48.3h.01M207.3 343.6h.01M58.1 181.7h.01M241.4 225.4h.01M67.2 176.1h.01M79.2 219.3h.01M228.4 330.5h.01M153.4 93.4h.01M254.5 169.3h.01M142.1 146.3h.01M84.0 176.9h.01M144.7 323.2h.01M148.9 76.5h.01M232.1 186.9h.01M144.6 129.4h.01M134.3 91.5h.01M133.7 211.1h.01M220.2 159.5h.01M180.6 143.8h.01M171.7 60.7h.01M165.6 65.7h.01M267.0 166.7h.01M71.6 184.8h.01M127.7 127.9h.01M196.5 0.4h.01M121.5 184.9h.01M162.6 307.6h.01M197.6 211.6h.01M150.7 338.8h.01M248.1 304.8h.01M169.4 319.9h.01M134.9 119.2h.01M123.5 208.1h.01M216.3 365.5h.01M156.1 76.4h.01M125.4 145.5h.01M144.5 309.8h.01M171.5 244.8h.01M125.8 76.2h.01M117.1 151.3h.01M174.2 47.9h.01M130.6 148.0h.01M277.5 136.7h.01M187.0 334.8h.01M169.0 52.6h.01M236.3 223.7h.01M95.0 169.0h.01M180.6 78.5h.01M112.1 150.5h.01M236.1 311.9h.01M174.4 239.3h.01M76.4 231.8h.01M92.7 163.8h.01M90.5 178.2h.01M66.7 198.3h.01M192.8 214.4h.01M114.1 107.5h.01M194.1 225.9h.01M211.1 44.5h.01M208.3 146.7h.01M181.0 239.2h.01M226.9 189.5h.01M270.0 101.6h.01M221.4 153.3h.01M197.7 41.6h.01M104.7 126.4h.01M299.9 202.1h.01M151.4 140.1h.01M258.8 169.7h.01M222.5 349.4h.01M216.8 313.2h.01M217.4 351.5h.01M245.1 301.7h.01M121.8 98.2h.01M209.5 337.9h.01M234.9 60.3h.01M133.0 111.6h.01M166.6 72.3h.01M109.6 119.5h.01M208.5 355.4h.01M200.9 193.2h.01M186.7 216.8h.01M228.4 355.9h.01M98.5 387.8h.01M266.0 88.7h.01M147.4 332.8h.01M113.3 123.3h.01M231.5 318.3h.01M118.0 134.7h.01M151.8 221.9h.01M220.5 89.8h.01M190.6 58.3h.01M247.4 66.7h.01M228.5 196.3h.01M141.2 117.8h.01M208.7 309.6h.01M154.6 186.9h.01M100.4 200.0h.01M140.6 93.5h.01M209.3 325.9h.01M151.1 47.5h.01M198.2 341.1h.01M172.7 76.8h.01M61.4 156.7h.01M178.7 37.6h.01M146.5 90.2h.01M191.4 314.8h.01M0.4 172.7h.01M124.7 113.9h.01M199.2 149.2h.01M183.6 71.7h.01M214.6 334.9h.01M91.6 77.4h.01M164.3 294.8h.01M148.8 313.6h.01M144.3 305.1h.01M270.3 134.2h.01M198.3 187.0h.01M255.1 297.4h.01M200.9 199.8h.01M211.3 206.3h.01M244.4 255.2h.01M233.0 344.7h.01M226.8 254.0h.01M121.5 150.5h.01M118.4 170.9h.01M128.7 230.1h.01M122.0 86.3h.01M124.2 156.5h.01M198.1 47.8h.01M100.0 401.4h.01M135.5 146.8h.01M253.4 84.7h.01M145.0 201.0h.01M165.8 59.2h.01M267.9 96.5h.01M217.6 166.5h.01M163.8 47.3h.01M153.2 316.3h.01M154.3 101.3h.01M221.6 336.8h.01M162.1 185.3h.01M256.4 78.5h.01M77.1 95.3h.01M174.1 331.0h.01M250.0 91.5h.01M204.6 187.2h.01M168.5 335.3h.01M59.0 144.1h.01M229.5 63.4h.01M249.0 389.0h.01M207.3 172.8h.01M280.2 205.0h.01M103.5 170.6h.01M160.8 161.7h.01M247.1 259.5h.01M220.9 330.0h.01M274.6 128.7h.01M251.0 211.6h.01M132.0 132.9h.01M154.8 296.2h.01M164.1 341.4h.01M117.6 140.4h.01M175.5 316.5h.01M253.8 71.2h.01M129.2 67.6h.01M175.8 338.7h.01M170.9 208.2h.01M168.5 308.1h.01M227.3 153.6h.01M144.5 50.2h.01M248.8 383.8h.01M178.9 303.6h.01M199.3 349.2h.01M210.8 60.2h.01M97.9 163.0h.01M159.0 0.4h.01M98.7 376.9h.01M266.1 127.8h.01M249.9 218.6h.01M277.7 143.6h.01M275.2 229.0h.01M210.1 212.9h.01M146.4 98.3h.01M237.3 77.4h.01M113.4 399.8h.01M280.6 148.7h.01M261.7 84.3h.01M203.5 210.4h.01M157.4 50.3h.01M197.9 430.6h.01M273.1 0.4h.01M233.3 150.5h.01M130.2 73.3h.01M192.7 179.0h.01M270.0 364.2h.01M109.5 209.7h.01M162.5 53.9h.01M124.0 121.4h.01M120.2 117.1h.01M158.8 300.6h.01M224.1 316.3h.01M238.9 317.3h.01M208.4 281.9h.01M164.4 222.5h.01M358.6 246.1h.01M157.4 84.2h.01M234.9 306.0h.01M194.9 198.0h.01M239.0 213.5h.01M73.9 216.9h.01M139.5 101.8h.01M242.5 60.5h.01M85.0 240.1h.01M225.5 207.9h.01M272.3 107.0h.01M237.1 85.4h.01M159.4 60.4h.01M274.6 216.3h.01M358.6 143.9h.01M113.2 101.0h.01M87.3 206.3h.01M133.7 105.3h.01M200.3 223.8h.01M187.4 188.0h.01M217.7 226.7h.01M137.9 114.0h.01M70.4 162.7h.01M92.5 198.6h.01M135.9 301.8h.01M92.9 289.7h.01M238.5 145.3h.01M116.3 159.6h.01M239.4 200.9h.01M71.8 172.8h.01M243.2 73.2h.01M238.0 349.3h.01M122.1 130.0h.01M223.4 354.7h.01M246.0 146.0h.01M240.4 194.4h.01M207.1 198.6h.01M213.9 355.9h.01M204.2 55.8h.01M258.0 314.1h.01M218.3 43.7h.01M228.1 182.1h.01M207.9 192.4h.01M269.0 113.4h.01M174.3 309.0h.01M78.4 241.4h.01M204.1 42.8h.01M229.2 202.7h.01M249.5 309.6h.01M276.1 175.9h.01M174.3 215.5h.01M210.5 226.7h.01M134.8 138.2h.01M137.8 222.1h.01M140.0 207.3h.01M205.0 217.2h.01M113.4 295.0h.01M265.2 106.9h.01M152.2 178.9h.01M142.5 57.7h.01M191.4 42.7h.01M133.4 85.5h.01M233.9 200.7h.01M179.0 234.7h.01M182.4 179.6h.01M85.8 0.4h.01M127.8 81.8h.01M236.9 189.8h.01M262.4 78.6h.01M131.6 55.9h.01M124.8 103.1h.01M170.5 313.9h.01M219.2 322.0h.01M61.4 150.2h.01M275.4 113.0h.01M272.9 369.0h.01M126.0 161.9h.01M125.3 134.8h.01M249.3 76.7h.01M229.4 217.2h.01M197.6 54.9h.01M234.5 0.4h.01M203.0 175.9h.01M258.4 90.2h.01M105.7 217.6h.01M263.9 223.6h.01M130.0 140.8h.01M190.5 142.1h.01M104.1 404.3h.01M167.3 346.2h.01M213.9 143.1h.01M244.7 214.9h.01M269.3 228.4h.01M203.1 280.7h.01"/>
<path stroke="#1a1a1a" stroke-width="2.42" stroke-linecap="round" fill="none" d="M164.9 41.2h.01M125.0 355.4h.01M154.1 231.1h.01M133.1 169.0h.01M130.9 223.9h.01M261.6 241.1h.01M182.1 417.0h.01M179.0 412.5h.01M122.6 70.5h.01M256.2 233.3h.01M166.5 246.2h.01M207.6 360.1h.01M288.0 131.7h.01M135.9 245.2h.01M287.4 191.8h.01M111.3 182.9h.01M282.3 132.1h.01M113.7 357.7h.01M90.8 202.9h.01M261.6 287.2h.01M84.8 106.6h.01M154.6 286.4h.01M276.0 171.3h.01M123.9 372.1h.01M121.9 284.4h.01M103.6 382.7h.01M113.3 279.9h.01M107.2 161.1h.01M261.1 72.1h.01M138.6 233.0h.01M286.4 179.0h.01M158.5 290.5h.01M248.3 251.1h.01M113.9 387.4h.01M172.5 348.7h.01M300.2 146.2h.01M252.7 188.6h.01M241.4 188.8h.01M143.0 405.2h.01M232.4 389.4h.01M181.5 218.8h.01M271.1 245.9h.01M161.9 346.8h.01M168.8 303.2h.01M113.0 270.6h.01M105.9 183.9h.01M107.2 115.6h.01M239.1 230.0h.01M201.1 274.9h.01M163.8 146.0h.01M192.6 353.0h.01M114.1 310.9h.01M195.0 346.3h.01M278.2 244.0h.01M240.3 384.7h.01M121.7 80.5h.01M114.3 168.9h.01M130.3 159.2h.01M194.1 147.7h.01M162.5 290.4h.01M156.4 347.9h.01M100.0 186.5h.01M177.8 278.4h.01M220.1 369.1h.01M279.3 106.1h.01M194.1 305.5h.01M114.0 367.9h.01M111.6 196.6h.01M137.3 184.7h.01M230.1 177.5h.01M85.0 123.8h.01M104.3 120.6h.01M63.5 123.9h.01M85.3 169.5h.01M167.3 176.6h.01M267.7 271.5h.01M238.8 300.9h.01M266.3 307.4h.01M111.5 288.3h.01M88.8 195.2h.01M185.5 146.6h.01M181.7 164.0h.01M115.5 118.7h.01M179.4 325.6h.01M253.5 198.7h.01M127.5 217.4h.01M235.4 363.0h.01M141.1 255.2h.01M115.3 199.2h.01M289.0 200.2h.01M261.2 388.0h.01M104.6 200.1h.01M195.5 300.9h.01M84.7 115.7h.01M175.7 145.8h.01M174.7 417.8h.01M103.9 388.8h.01M97.5 368.7h.01M153.6 146.2h.01M233.7 287.9h.01M157.7 166.6h.01M199.2 249.1h.01M265.6 204.4h.01M263.4 374.3h.01M291.2 126.1h.01M74.8 243.2h.01M209.0 159.0h.01M119.8 373.8h.01M210.5 286.2h.01M254.4 310.7h.01M97.8 182.3h.01M82.8 132.8h.01M195.2 245.5h.01M132.6 401.0h.01M147.1 343.9h.01M185.8 297.5h.01M107.4 395.1h.01M116.0 216.0h.01M169.1 292.9h.01M298.3 183.8h.01M120.3 306.9h.01M194.6 309.5h.01M261.8 259.0h.01M284.6 225.5h.01M196.4 275.6h.01M210.6 153.7h.01M153.9 256.5h.01M248.3 346.5h.01M235.4 231.9h.01M179.1 289.7h.01M125.6 315.5h.01M135.4 322.4h.01M291.6 184.6h.01M160.5 356.1h.01M87.2 229.9h.01M210.5 303.7h.01M101.7 204.8h.01M284.9 188.5h.01M129.2 376.9h.01M283.1 293.7h.01M250.1 369.7h.01M255.0 358.8h.01M60.3 199.6h.01M179.0 311.7h.01M185.0 352.3h.01M88.9 199.7h.01M188.4 274.6h.01M234.8 401.4h.01M290.7 168.4h.01M89.6 123.9h.01M118.3 271.5h.01M110.5 166.5h.01M66.4 224.6h.01M158.1 144.1h.01M283.4 138.9h.01M129.0 287.6h.01M195.3 283.9h.01M136.5 333.1h.01M283.6 152.8h.01M257.4 395.5h.01M100.4 361.2h.01M226.8 259.1h.01M182.0 308.4h.01M97.8 292.9h.01M284.6 216.4h.01M139.5 320.2h.01M128.5 170.7h.01M134.0 289.2h.01M94.3 210.9h.01M190.0 36.5h.01M202.7 160.4h.01M152.1 344.6h.01M175.9 352.0h.01M76.3 116.9h.01M282.5 245.2h.01M141.2 168.0h.01M143.4 328.1h.01M108.6 178.0h.01M277.5 274.0h.01M190.3 325.0h.01M242.2 295.9h.01M111.5 202.2h.01M124.0 65.4h.01M146.5 402.1h.01M264.9 302.2h.01M186.6 312.4h.01M222.4 233.3h.01M112.0 174.0h.01M106.6 143.7h.01M302.2 167.2h.01M189.8 246.8h.01M249.4 325.6h.01M76.3 165.6h.01M167.3 350.9h.01M129.5 181.4h.01M122.2 261.7h.01M162.4 179.9h.01M289.6 257.8h.01M85.5 141.9h.01M98.0 127.4h.01M73.1 210.1h.01M84.6 180.8h.01M159.2 351.4h.01M252.5 228.8h.01M115.8 193.5h.01M260.4 377.0h.01M174.0 303.7h.01M149.9 232.9h.01M221.8 400.5h.01M127.3 269.9h.01M117.3 261.5h.01M215.7 289.4h.01M180.3 350.5h.01M173.1 165.1h.01M120.3 212.7h.01M171.7 199.3h.01M81.7 173.0h.01M117.3 327.7h.01M124.8 195.0h.01M125.4 181.3h.01M137.4 297.0h.01M254.2 323.1h.01M178.2 161.6h.01M143.2 171.5h.01M126.3 188.0h.01M96.0 392.9h.01M233.9 299.8h.01M252.6 380.7h.01M108.5 103.0h.01M286.1 275.3h.01M82.6 185.2h.01M131.8 186.6h.01M163.3 352.6h.01M266.3 277.2h.01M227.4 247.7h.01M263.9 378.9h.01M235.1 295.7h.01M254.1 337.6h.01M121.5 364.4h.01M214.8 369.3h.01M283.0 210.9h.01M80.8 245.3h.01M208.8 37.3h.01M260.0 149.7h.01M179.4 294.8h.01M154.3 397.8h.01M65.4 120.1h.01M62.3 211.6h.01M127.3 360.8h.01M108.8 311.2h.01M119.3 236.4h.01M219.8 404.9h.01M82.8 222.8h.01M204.3 285.2h.01M103.1 164.8h.01M181.2 283.5h.01M260.1 236.0h.01M206.0 232.3h.01M113.7 346.8h.01M213.7 308.1h.01M247.7 183.6h.01M111.6 254.3h.01M70.7 204.7h.01M90.5 190.9h.01M252.0 398.2h.01M162.4 248.1h.01M262.3 166.4h.01M104.6 151.8h.01M103.5 309.1h.01M79.5 209.5h.01M103.7 375.4h.01M205.6 350.3h.01M217.2 345.8h.01M116.0 255.8h.01M282.9 220.8h.01M99.6 113.1h.01M140.7 413.9h.01M68.5 219.4h.01M103.0 214.8h.01M117.4 302.0h.01M246.5 370.7h.01M113.9 179.5h.01M270.0 240.6h.01M102.3 195.8h.01M132.1 267.6h.01M242.0 371.5h.01M122.2 280.2h.01M179.9 336.2h.01M114.1 382.3h.01M280.6 114.0h.01M131.2 321.3h.01M130.6 257.1h.01M253.2 366.0h.01M229.9 297.7h.01M149.0 164.5h.01M134.2 154.0h.01M93.3 194.1h.01M239.7 354.4h.01M273.5 283.5h.01M243.8 230.2h.01M257.8 374.0h.01M245.6 264.5h.01M109.5 213.9h.01M243.5 298.8h.01M131.5 174.3h.01M94.1 122.3h.01M240.2 363.8h.01M86.2 246.2h.01M245.1 341.2h.01M107.3 399.8h.01M144.4 242.8h.01M89.6 212.7h.01M99.6 207.4h.01M108.9 390.8h.01M291.9 163.9h.01M120.2 197.6h.01M119.1 401.9h.01M95.7 398.8h.01M257.9 365.9h.01M105.3 106.1h.01M86.9 129.2h.01M194.3 416.3h.01M193.7 249.4h.01M243.0 381.6h.01M267.7 195.0h.01M244.8 386.4h.01M205.0 313.8h.01M232.5 255.4h.01M77.8 213.7h.01M102.9 303.9h.01M113.4 393.7h.01M104.6 189.8h.01M109.4 97.8h.01M149.4 307.3h.01M237.7 54.5h.01M129.8 206.2h.01M192.4 301.8h.01M72.0 237.2h.01M57.9 169.9h.01M100.1 192.0h.01M126.1 397.3h.01M125.9 401.6h.01M153.6 282.5h.01M102.2 180.5h.01M209.7 298.9h.01M210.8 290.9h.01M69.1 231.1h.01M106.1 156.3h.01M144.7 231.7h.01M120.5 378.5h.01M131.0 163.6h.01M96.2 199.7h.01M282.2 181.2h.01M135.0 293.5h.01M125.9 291.9h.01M190.5 281.6h.01M138.9 108.7h.01M98.8 117.9h.01M290.6 180.3h.01M241.2 305.8h.01M128.7 411.2h.01M162.8 195.1h.01M111.0 341.0h.01M122.1 265.4h.01M144.2 317.8h.01M246.9 172.4h.01M137.3 315.8h.01M170.5 158.8h.01M235.9 390.6h.01M250.2 224.5h.01M158.1 281.0h.01M209.9 315.3h.01M168.5 146.2h.01M135.3 307.0h.01M195.9 320.8h.01M204.9 364.2h.01M200.0 287.4h.01M99.9 135.2h.01M214.8 294.9h.01M120.5 288.5h.01M224.1 409.1h.01M241.6 244.8h.01M96.2 190.4h.01M104.2 176.2h.01M223.8 366.1h.01M228.0 280.6h.01M279.4 214.6h.01M122.5 388.2h.01M99.1 305.3h.01M80.9 136.6h.01M280.8 186.3h.01M108.4 148.0h.01M247.3 336.0h.01M135.2 228.3h.01M137.4 408.9h.01M88.4 164.1h.01M119.0 397.1h.01M188.6 318.5h.01M270.2 199.7h.01M255.0 306.1h.01M124.0 410.6h.01M114.0 290.6h.01M99.3 173.4h.01M105.7 347.8h.01M257.2 190.9h.01M284.2 184.7h.01M195.5 36.3h.01M108.9 367.3h.01M180.6 195.3h.01M202.1 345.5h.01M108.1 276.1h.01M185.2 227.8h.01M286.7 148.1h.01M118.2 249.6h.01M301.7 151.5h.01M139.5 251.8h.01M112.9 378.0h.01M251.4 341.8h.01M203.2 369.1h.01M265.4 236.7h.01M116.4 362.9h.01M264.2 200.0h.01M247.4 398.5h.01M99.0 310.1h.01M261.9 194.9h.01M234.7 357.6h.01M215.4 38.2h.01M102.7 157.5h.01M241.1 151.5h.01M180.8 226.5h.01M65.2 203.5h.01M77.8 181.8h.01M106.9 194.9h.01M290.4 241.6h.01M115.1 245.0h.01M202.4 229.4h.01M175.7 286.7h.01M249.1 58.2h.01M196.1 280.7h.01M217.6 231.9h.01M150.9 253.5h.01M121.7 248.9h.01M121.0 300.1h.01M186.1 307.0h.01M108.1 222.1h.01M83.7 165.7h.01M228.8 229.1h.01M189.5 407.8h.01M93.4 174.0h.01M272.9 191.8h.01M201.2 323.3h.01M279.4 199.8h.01M185.4 411.8h.01M288.2 212.7h.01M107.1 132.1h.01M100.1 299.4h.01M96.8 138.3h.01M244.9 361.8h.01M169.0 239.5h.01M104.7 210.1h.01M124.4 287.9h.01M181.4 230.1h.01M74.4 160.3h.01M147.3 168.6h.01M257.5 391.3h.01M269.8 215.0h.01M76.2 205.8h.01M223.1 359.8h.01M287.4 182.8h.01M247.6 365.4h.01M117.4 182.4h.01M230.9 361.0h.01M93.4 186.6h.01M285.2 286.0h.01M236.3 386.0h.01M145.7 190.0h.01M288.8 187.2h.01M87.6 187.7h.01M251.2 262.8h.01M215.8 407.3h.01M127.0 166.8h.01M176.2 248.1h.01M188.2 302.6h.01M257.6 380.1h.01M124.4 311.6h.01M115.5 187.7h.01M281.5 229.7h.01M182.4 190.3h.01M117.3 349.5h.01M194.3 337.3h.01M148.4 250.5h.01M288.2 267.3h.01M242.0 250.3h.01M210.2 413.5h.01M122.4 393.3h.01M230.0 303.1h.01M192.5 358.2h.01M106.7 292.6h.01M122.5 338.8h.01M238.2 372.1h.01M249.8 191.0h.01M125.1 222.4h.01M142.1 259.1h.01M240.1 171.7h.01M113.0 320.2h.01M246.2 246.8h.01M226.8 399.5h.01M161.2 277.9h.01M107.8 251.7h.01M182.8 315.3h.01M141.0 385.3h.01M136.7 267.1h.01M109.3 263.1h.01M178.4 359.7h.01M200.3 313.4h.01M127.2 386.9h.01M243.1 174.1h.01M181.7 355.7h.01M153.8 166.5h.01M250.0 375.3h.01M230.0 160.1h.01M263.1 312.7h.01M183.0 277.7h.01M259.7 202.9h.01M238.6 377.0h.01M119.0 176.4h.01M274.1 242.4h.01M206.7 320.6h.01M264.1 385.0h.01M259.2 370.1h.01M114.6 239.9h.01M112.3 137.9h.01M233.7 406.5h.01M116.3 275.2h.01M247.3 379.3h.01M135.4 338.0h.01M73.6 178.7h.01M109.0 153.6h.01M241.7 240.5h.01M259.4 295.5h.01M142.3 343.2h.01M245.9 352.1h.01M104.3 136.1h.01M110.5 191.6h.01M99.2 122.8h.01M186.2 238.9h.01M145.2 415.5h.01M277.8 154.1h.01M133.3 180.3h.01M203.5 339.0h.01M265.1 284.7h.01M124.3 59.8h.01M169.4 180.6h.01M135.5 278.7h.01M121.8 327.6h.01M149.0 227.6h.01M107.0 281.5h.01M181.3 251.4h.01M263.3 391.4h.01M268.0 189.5h.01M124.9 307.4h.01M104.1 317.8h.01M122.2 296.0h.01M176.4 253.1h.01M88.2 183.4h.01M148.5 406.1h.01M186.1 359.4h.01M195.0 313.2h.01M175.5 182.0h.01M109.7 65.7h.01M288.8 143.3h.01M93.9 368.5h.01M126.4 319.7h.01M77.0 225.3h.01M180.2 274.5h.01M224.1 163.5h.01M118.0 320.2h.01M115.5 315.5h.01M143.0 409.6h.01M127.4 282.5h.01M132.7 325.7h.01M245.8 189.0h.01M153.2 417.0h.01M283.1 236.2h.01M151.0 191.8h.01M99.3 333.6h.01M97.1 195.8h.01M119.0 369.0h.01M249.8 299.7h.01M150.4 296.7h.01M185.3 244.0h.01M238.1 381.3h.01M132.6 333.3h.01M190.7 169.3h.01M141.9 333.3h.01M231.5 365.5h.01M96.5 142.4h.01M240.4 388.5h.01M132.6 412.3h.01M99.3 237.8h.01M280.9 190.8h.01M235.8 395.0h.01M106.8 288.1h.01M189.7 298.7h.01M263.0 291.7h.01M251.7 393.0h.01M103.4 279.0h.01M250.0 170.3h.01M133.1 406.2h.01M103.6 113.0h.01M99.3 329.1h.01M227.4 365.8h.01M274.8 96.0h.01M182.3 184.2h.01M210.1 366.5h.01M219.9 298.5h.01M133.8 318.2h.01M108.6 302.5h.01M199.0 331.1h.01M113.0 352.8h.01M110.2 241.0h.01M138.7 199.5h.01M61.7 177.1h.01M127.9 405.9h.01M251.5 315.1h.01M276.4 181.2h.01M217.7 278.7h.01M108.2 298.0h.01M119.0 358.3h.01M296.7 211.6h.01M121.7 405.6h.01M131.9 395.9h.01M117.7 391.5h.01M112.2 132.7h.01M237.1 48.7h.01M225.4 304.7h.01M146.2 294.9h.01M200.0 361.9h.01M110.7 283.4h.01M127.1 391.9h.01M274.6 202.6h.01M66.5 164.6h.01M253.8 63.2h.01M283.7 143.8h.01M224.9 404.1h.01M176.7 229.9h.01M286.0 127.1h.01M132.4 341.1h.01M104.6 300.2h.01M196.7 175.0h.01M109.1 381.3h.01M109.6 315.9h.01M166.9 190.2h.01M189.2 226.3h.01M139.3 336.4h.01M231.2 284.6h.01M118.2 202.9h.01M211.5 231.6h.01M137.9 170.6h.01M129.5 61.5h.01M133.5 329.6h.01M254.1 292.4h.01M95.2 133.1h.01M226.2 391.4h.01M114.8 212.3h.01M109.4 371.5h.01M114.0 372.6h.01M256.8 385.4h.01M293.8 195.0h.01M284.2 202.0h.01M124.0 227.6h.01M180.1 257.2h.01M251.6 361.4h.01M155.0 252.6h.01M183.3 287.9h.01M211.5 361.4h.01M150.5 286.8h.01M85.2 210.3h.01M90.0 388.3h.01M133.9 202.2h.01M291.2 139.2h.01M117.1 297.0h.01M79.9 169.0h.01M191.8 285.5h.01M242.3 377.3h.01M259.5 301.4h.01M67.9 213.8h.01M200.2 217.0h.01M229.2 173.0h.01M107.7 354.0h.01M76.0 195.5h.01M226.6 361.4h.01M59.3 164.3h.01M72.8 227.6h.01M176.2 298.1h.01M147.1 411.2h.01M213.2 278.9h.01M263.9 322.5h.01M96.3 302.2h.01M118.6 385.7h.01M109.3 375.7h.01M273.1 273.8h.01M133.5 217.7h.01M153.0 302.1h.01M126.4 297.3h.01M108.5 359.0h.01M116.6 376.4h.01M173.2 278.8h.01M100.8 365.7h.01M158.3 418.1h.01M148.3 348.9h.01M121.9 217.6h.01M175.8 356.9h.01M100.7 371.8h.01M128.3 333.4h.01M250.9 255.9h.01M255.3 208.5h.01M205.6 289.3h.01M296.5 202.2h.01M138.0 399.8h.01M93.7 206.1h.01M106.6 226.5h.01M80.9 227.2h.01M232.1 398.1h.01M104.2 313.6h.01M113.2 300.5h.01M93.1 182.4h.01M79.9 114.2h.01M151.0 401.2h.01M170.4 250.2h.01M139.7 189.5h.01M230.9 251.0h.01M96.5 177.5h.01M219.3 304.6h.01M87.8 221.2h.01M196.0 293.1h.01M262.4 281.1h.01M188.8 255.1h.01M127.0 364.3h.01M268.6 153.0h.01M86.1 137.0h.01M250.5 355.6h.01M85.0 83.6h.01M183.6 293.2h.01M157.1 158.5h.01M115.0 251.5h.01M148.5 291.3h.01M139.9 306.5h.01M245.2 374.8h.01M236.5 263.7h.01M111.4 324.9h.01M161.8 282.6h.01M189.6 351.4h.01M184.5 36.2h.01M262.0 264.3h.01M187.2 166.4h.01M285.1 157.3h.01M214.4 300.6h.01M212.1 396.8h.01M96.6 203.4h.01M111.2 206.5h.01M206.2 277.2h.01M72.1 223.2h.01M139.3 329.7h.01M226.7 395.5h.01M101.5 108.1h.01M144.3 338.4h.01M117.6 267.2h.01M275.2 206.3h.01M270.8 91.1h.01M111.5 218.2h.01M189.7 347.1h.01M117.0 81.9h.01M233.8 156.6h.01M101.9 160.9h.01M112.3 275.7h.01M99.4 167.6h.01M193.1 296.7h.01M115.0 85.7h.01M254.0 371.0h.01M260.6 382.7h.01M294.3 170.7h.01M121.5 244.5h.01M110.8 363.0h.01M244.6 199.9h.01M154.2 291.0h.01M292.3 210.2h.01M155.2 353.0h.01M198.0 297.0h.01M260.5 206.9h.01M89.4 216.4h.01M265.9 242.7h.01M202.6 357.5h.01M108.7 385.9h.01M166.9 288.9h.01M301.9 157.2h.01M113.4 90.1h.01M108.8 257.9h.01M107.4 139.1h.01M122.3 352.6h.01M202.0 36.7h.01M222.9 252.1h.01M141.6 313.1h.01M191.4 293.4h.01M226.7 234.0h.01M125.8 249.0h.01M184.2 303.1h.01M88.7 119.3h.01M254.4 376.4h.01M148.9 147.1h.01M186.6 279.4h.01M143.4 185.0h.01M126.9 264.8h.01M133.5 297.1h.01M239.0 399.7h.01M90.9 209.0h.01M206.2 160.6h.01M138.2 404.6h.01M118.1 279.2h.01M89.9 143.6h.01M124.4 377.0h.01M231.2 393.8h.01M114.5 205.0h.01M85.2 235.1h.01M95.2 296.7h.01M276.6 101.2h.01M239.8 334.7h.01M118.0 207.9h.01M57.8 187.8h.01M228.7 288.5h.01M136.5 413.6h.01M231.5 45.8h.01M270.0 205.6h.01M126.0 259.0h.01M63.8 188.5h.01M200.2 301.2h.01M267.0 176.4h.01M62.8 160.8h.01M129.0 323.6h.01M267.5 319.8h.01M205.0 155.7h.01M292.2 147.1h.01M130.2 293.7h.01M224.9 298.6h.01M125.8 254.0h.01M118.8 409.7h.01M245.7 241.9h.01M232.5 385.7h.01M287.7 221.5h.01M151.4 199.0h.01M171.2 287.8h.01M248.0 205.2h.01M149.4 186.0h.01M139.6 152.0h.01M182.5 247.1h.01M151.2 168.0h.01M63.5 194.2h.01M92.6 128.5h.01M200.0 283.6h.01M243.7 402.2h.01M249.6 199.9h.01M177.7 345.1h.01M283.3 240.5h.01M287.4 278.5h.01M118.9 381.6h.01M229.4 310.3h.01M120.7 257.6h.01M291.5 191.0h.01M231.6 292.5h.01M219.9 287.2h.01M177.0 282.5h.01M249.3 320.1h.01M132.3 233.5h.01M108.3 200.3h.01M113.7 332.1h.01M118.5 230.1h.01M163.5 359.1h.01M97.4 382.6h.01M258.7 67.0h.01M172.4 39.5h.01M176.6 190.7h.01M135.4 174.6h.01M113.5 209.4h.01"/>
<path stroke="#1a1a1a" stroke-width="2.86" stroke-linecap="round" fill="none" d="M218.9 380.2h.01M120.3 335.4h.01M256.5 174.0h.01M131.9 345.8h.01M157.5 256.5h.01M106.2 341.6h.01M91.0 277.5h.01M257.3 239.9h.01M294.9 160.5h.01M251.0 195.1h.01M267.8 377.3h.01M269.2 311.3h.01M280.6 252.7h.01M129.0 274.9h.01M278.8 208.9h.01M95.3 155.8h.01M105.1 363.1h.01M222.6 373.2h.01M271.7 318.3h.01M119.0 63.1h.01M289.4 116.0h.01M206.2 401.1h.01M94.8 251.1h.01M218.4 373.5h.01M89.9 133.5h.01M262.1 318.0h.01M294.7 215.7h.01M196.0 352.3h.01M135.4 342.6h.01M106.1 245.2h.01M129.7 307.6h.01M93.4 227.8h.01M103.5 221.3h.01M267.9 288.6h.01M297.3 206.9h.01M228.5 385.6h.01M157.7 363.8h.01M147.8 236.4h.01M134.3 373.9h.01M91.4 138.5h.01M121.0 253.5h.01M98.5 353.8h.01M258.5 281.2h.01M281.3 271.4h.01M138.7 345.1h.01M82.8 119.5h.01M203.3 373.9h.01M170.2 275.1h.01M137.9 356.4h.01M139.0 349.5h.01M77.6 138.4h.01M153.8 393.6h.01M139.7 281.8h.01M247.9 358.3h.01M187.0 250.7h.01M100.2 154.5h.01M279.6 264.4h.01M255.8 195.5h.01M224.0 248.0h.01M107.1 306.4h.01M95.2 279.0h.01M128.4 304.6h.01M112.9 226.4h.01M263.9 254.0h.01M257.8 361.6h.01M99.6 324.4h.01M243.9 356.6h.01M219.5 410.6h.01M276.8 261.9h.01M200.0 157.5h.01M241.7 234.0h.01M197.5 305.2h.01M197.2 229.5h.01M220.0 236.4h.01M279.9 248.3h.01M116.0 342.8h.01M211.1 407.6h.01M210.4 403.6h.01M214.1 149.6h.01M160.7 243.8h.01M289.3 176.3h.01M139.8 324.7h.01M142.2 358.9h.01M181.3 299.0h.01M259.0 321.6h.01M80.0 142.0h.01M276.7 266.7h.01M228.8 389.5h.01M77.2 173.2h.01M64.0 217.7h.01M253.3 302.4h.01M275.0 248.0h.01M201.6 257.2h.01M95.6 75.4h.01M203.9 255.4h.01M141.9 266.3h.01M161.9 227.2h.01M128.7 353.4h.01M131.1 279.1h.01M256.5 200.7h.01M129.5 340.5h.01M104.2 265.2h.01M190.5 258.6h.01M90.8 264.2h.01M234.9 216.8h.01M286.7 172.9h.01M101.1 241.2h.01M110.7 93.4h.01M138.7 242.3h.01M102.7 332.0h.01M135.1 254.7h.01M137.5 180.2h.01M272.7 299.3h.01M101.7 289.8h.01M225.2 278.5h.01M209.5 236.3h.01M146.6 247.1h.01M302.2 161.5h.01M111.3 329.6h.01M130.6 300.2h.01M121.1 331.5h.01M267.5 387.2h.01M255.0 328.0h.01M294.6 187.6h.01M208.8 399.2h.01M287.6 136.9h.01M102.6 345.0h.01M142.9 355.3h.01M132.0 386.1h.01M280.1 178.3h.01M167.3 283.9h.01M199.1 290.8h.01M109.7 187.3h.01M124.9 368.0h.01M132.3 380.7h.01M237.0 367.8h.01M115.5 339.5h.01M143.3 292.2h.01M171.1 254.8h.01M183.0 232.5h.01M290.4 172.4h.01M129.7 315.0h.01M259.5 198.3h.01M242.4 367.3h.01M195.2 170.6h.01M203.3 168.5h.01M231.0 232.6h.01M217.6 388.4h.01M149.2 262.0h.01M287.5 235.6h.01M94.8 372.6h.01M221.7 39.9h.01M120.2 75.3h.01M107.8 206.1h.01M101.9 131.2h.01M231.2 281.0h.01M193.8 256.6h.01M241.3 264.5h.01M88.9 253.4h.01M103.3 252.6h.01M136.0 389.1h.01M165.2 364.8h.01M268.3 78.9h.01M110.0 245.8h.01M213.6 319.7h.01M131.3 336.6h.01M60.5 137.9h.01M236.8 171.7h.01M185.0 234.6h.01M254.7 185.0h.01M115.6 324.7h.01M99.7 320.0h.01M239.4 294.8h.01M127.9 382.1h.01M148.8 392.9h.01M201.2 318.0h.01M292.4 134.5h.01M127.7 337.4h.01M145.6 379.2h.01M291.8 228.4h.01M274.6 197.5h.01M124.4 233.6h.01M253.1 204.5h.01M163.1 286.1h.01M144.9 149.5h.01M85.6 111.1h.01M202.8 401.3h.01M214.6 412.1h.01M65.6 157.4h.01M257.2 289.3h.01M79.6 121.6h.01M134.2 353.0h.01M238.4 404.7h.01M228.4 243.4h.01M269.8 82.9h.01M236.4 242.2h.01M139.6 262.7h.01M92.6 154.3h.01M211.1 351.6h.01M247.0 296.7h.01M158.8 252.2h.01M224.6 370.5h.01M102.9 351.6h.01M145.3 375.5h.01M165.0 275.1h.01M267.5 247.3h.01M125.4 348.5h.01M283.1 263.7h.01M113.4 222.5h.01M277.0 287.0h.01M97.3 234.1h.01M223.4 383.0h.01M122.3 178.4h.01M224.2 288.9h.01M82.0 127.8h.01M217.0 400.0h.01M165.6 236.2h.01M97.9 268.1h.01M108.2 272.2h.01M105.8 372.0h.01M201.8 245.3h.01M128.9 330.1h.01M205.8 305.3h.01M116.4 335.5h.01M92.3 246.5h.01M190.7 236.5h.01M243.7 169.6h.01M203.0 293.4h.01M267.2 211.3h.01M150.4 396.2h.01M117.8 68.2h.01M200.0 415.4h.01M100.5 255.7h.01M200.6 353.7h.01M222.5 391.6h.01M300.9 182.2h.01M267.4 315.4h.01M89.6 268.6h.01M90.3 233.1h.01M255.9 332.9h.01M125.3 340.4h.01M207.0 371.0h.01M100.5 150.3h.01M257.7 244.4h.01M294.7 183.0h.01M105.6 233.2h.01M142.7 351.5h.01M239.5 359.7h.01M193.0 241.1h.01M109.9 349.7h.01M298.2 138.4h.01M244.6 237.0h.01M201.9 411.2h.01M89.1 257.4h.01M141.7 179.9h.01M301.1 170.6h.01M217.4 377.1h.01M215.2 390.8h.01M229.8 373.2h.01M284.0 193.3h.01M142.3 396.0h.01M85.6 146.8h.01M158.4 286.1h.01M265.6 74.6h.01M119.9 311.6h.01M235.4 281.2h.01M234.9 378.7h.01M121.0 316.0h.01M214.7 403.6h.01M199.4 335.9h.01M98.6 230.2h.01M220.8 292.8h.01M156.0 195.9h.01M63.4 133.7h.01M176.1 225.1h.01M139.3 361.0h.01M136.4 383.7h.01M285.4 244.4h.01M97.0 148.3h.01M126.8 343.5h.01M268.6 281.9h.01M143.2 284.2h.01M144.6 263.0h.01M132.3 304.0h.01M289.0 195.7h.01M141.0 295.7h.01M224.0 238.0h.01M284.5 250.4h.01M125.6 277.8h.01M192.1 289.6h.01M291.8 205.1h.01M172.7 187.6h.01M164.4 241.3h.01M95.2 159.6h.01M71.4 121.1h.01M135.9 377.8h.01M148.7 242.7h.01M63.3 129.5h.01M152.4 355.8h.01M166.5 356.1h.01M168.3 416.1h.01M122.4 269.8h.01M169.9 371.6h.01M139.5 175.9h.01M110.0 294.4h.01M290.0 159.9h.01M159.1 231.2h.01M66.4 208.8h.01M171.0 356.1h.01M137.2 364.8h.01M254.5 355.2h.01M143.1 246.1h.01M278.2 184.0h.01M200.9 240.2h.01M139.5 367.5h.01M118.9 241.7h.01M189.3 149.0h.01M296.3 156.1h.01M210.7 392.6h.01M72.1 125.5h.01M72.7 113.3h.01M262.8 189.9h.01M201.9 252.2h.01M99.5 279.8h.01M84.4 161.7h.01M239.1 287.6h.01M152.4 241.0h.01M78.2 110.6h.01M199.2 366.9h.01M268.5 296.5h.01M138.6 237.7h.01M129.4 372.1h.01M276.8 270.5h.01M257.3 284.6h.01M244.4 292.9h.01M285.0 232.5h.01M190.7 305.6h.01M98.1 215.4h.01M144.1 194.4h.01M146.1 355.5h.01M133.8 349.8h.01M85.6 226.0h.01M185.7 283.6h.01M203.2 327.7h.01M90.2 236.5h.01M116.5 287.3h.01M105.0 99.1h.01M144.1 367.8h.01M121.0 323.8h.01M101.0 246.2h.01M298.3 135.0h.01M258.4 185.6h.01M158.7 367.8h.01M242.7 347.6h.01M115.7 306.1h.01M102.6 295.4h.01M234.2 161.9h.01M186.0 162.5h.01M129.4 318.1h.01M110.0 335.3h.01M139.0 291.9h.01M272.2 167.2h.01M158.3 248.2h.01M80.1 164.3h.01M101.0 336.8h.01M225.8 380.8h.01M285.1 281.4h.01M132.1 363.6h.01M87.0 103.2h.01M154.7 235.5h.01M124.4 334.9h.01M100.8 340.4h.01M89.6 113.6h.01M253.0 250.6h.01M149.0 160.4h.01M127.9 242.6h.01M198.4 403.6h.01M105.5 284.4h.01M252.5 268.1h.01M95.1 102.1h.01M272.3 378.2h.01M243.5 53.2h.01M237.1 291.1h.01M284.4 197.5h.01M122.2 343.6h.01M262.1 275.1h.01M144.1 371.3h.01M274.9 258.7h.01M283.7 176.3h.01M178.1 185.9h.01M199.0 409.2h.01M123.0 359.5h.01M156.6 359.9h.01M200.1 172.3h.01M94.7 378.6h.01M170.4 193.7h.01M248.7 292.3h.01M123.9 238.8h.01M95.2 113.4h.01M167.3 360.6h.01M202.2 405.6h.01M190.7 361.8h.01M159.9 360.4h.01M122.6 319.8h.01M251.1 351.2h.01M242.9 221.0h.01M94.2 214.5h.01M226.7 42.5h.01M92.5 109.8h.01M272.8 265.0h.01M228.9 379.0h.01M208.0 294.5h.01M156.6 243.3h.01M103.9 323.0h.01M108.3 278.9h.01M222.0 257.4h.01M260.2 330.1h.01M125.6 323.0h.01M114.8 234.5h.01M130.0 367.3h.01M144.9 162.4h.01M192.4 173.8h.01M175.0 258.1h.01M221.4 280.4h.01M101.9 140.5h.01M105.1 329.1h.01M58.0 194.4h.01M162.3 156.4h.01M263.9 297.1h.01M258.2 277.3h.01M188.7 375.7h.01M118.1 345.5h.01M228.8 408.1h.01M189.2 242.3h.01M103.4 357.3h.01M281.1 158.7h.01M117.5 331.4h.01M174.5 366.9h.01M112.9 259.9h.01M222.5 379.6h.01M221.5 388.3h.01M214.4 255.5h.01M120.8 275.2h.01M138.7 287.0h.01M207.4 167.6h.01M89.3 155.5h.01M263.7 210.0h.01M265.9 260.7h.01M93.9 145.4h.01M119.1 224.8h.01M232.7 242.4h.01M101.2 284.9h.01M109.2 267.7h.01M92.9 117.4h.01M99.2 315.0h.01M105.2 204.7h.01M196.9 358.2h.01M224.9 243.1h.01M125.2 244.4h.01M263.3 367.3h.01M288.6 251.8h.01M166.4 156.6h.01M95.9 242.3h.01M130.3 194.3h.01M130.2 261.9h.01M105.7 237.8h.01M170.1 363.3h.01M132.7 359.4h.01M198.5 309.6h.01M104.1 273.9h.01M131.9 391.1h.01M218.6 392.6h.01M279.5 195.6h.01M194.1 166.8h.01M185.9 259.5h.01M78.1 106.5h.01M129.0 237.7h.01M188.4 416.7h.01M102.5 326.7h.01M105.7 378.7h.01M60.7 205.6h.01M275.1 294.3h.01M62.4 167.5h.01M293.3 174.8h.01M119.3 339.9h.01M271.3 209.8h.01M137.1 311.1h.01M233.2 372.3h.01M123.5 382.5h.01M270.8 251.0h.01M187.7 292.0h.01M191.3 412.2h.01M196.3 316.7h.01M132.8 273.5h.01M105.0 260.9h.01M98.4 158.0h.01M142.1 400.9h.01M166.6 367.7h.01M84.8 218.6h.01M271.9 154.8h.01M110.4 235.8h.01M174.7 274.4h.01M135.9 250.2h.01M277.4 280.2h.01M195.5 363.5h.01M263.6 371.0h.01M264.0 326.8h.01M212.1 163.4h.01M125.5 326.3h.01M175.0 408.4h.01M184.8 173.0h.01M120.8 292.3h.01M149.6 415.1h.01M179.1 363.7h.01M248.2 268.7h.01M157.1 371.4h.01M199.7 163.0h.01M174.8 158.6h.01M81.4 108.0h.01M279.3 257.7h.01M112.7 337.3h.01M168.6 232.8h.01M143.7 347.5h.01M134.5 368.9h.01M141.2 375.2h.01M129.4 350.3h.01M140.0 247.5h.01M146.8 387.0h.01M143.0 236.0h.01M133.2 247.2h.01M136.7 272.3h.01M233.7 279.5h.01M272.1 269.1h.01M295.9 191.4h.01M91.6 240.9h.01M111.3 69.6h.01M286.1 207.0h.01M149.2 353.5h.01M273.0 288.2h.01M99.9 219.0h.01M214.6 394.5h.01M246.4 273.3h.01M139.6 379.5h.01M291.3 150.4h.01M138.9 371.6h.01M91.2 229.7h.01M204.0 396.1h.01M289.2 156.2h.01M139.0 353.2h.01M104.3 368.0h.01M243.3 269.5h.01M129.5 327.2h.01M128.4 311.4h.01M75.9 201.0h.01M184.1 346.7h.01M107.7 326.3h.01M208.0 395.4h.01M139.7 392.6h.01M261.4 246.2h.01M288.4 163.9h.01M262.1 270.2h.01M164.8 279.6h.01M222.5 396.1h.01M238.2 155.0h.01M113.9 65.3h.01M296.8 196.6h.01M112.3 248.9h.01M145.6 384.1h.01M267.1 266.2h.01M75.4 122.7h.01M171.8 147.9h.01M212.5 400.3h.01M149.6 282.3h.01M226.2 293.5h.01M204.7 301.1h.01M171.8 283.2h.01M104.7 256.3h.01M235.6 284.3h.01M172.1 298.7h.01M284.9 100.0h.01M257.4 268.4h.01M139.1 340.4h.01M214.3 235.3h.01M233.9 382.2h.01M145.9 360.2h.01M116.9 292.2h.01M113.7 265.0h.01M255.3 153.1h.01M101.5 233.4h.01M277.2 277.0h.01M161.8 362.8h.01M228.5 369.9h.01M134.3 237.5h.01M88.9 225.9h.01M260.1 354.5h.01M225.3 386.6h.01M105.7 337.2h.01M295.8 167.7h.01M184.2 254.9h.01M239.6 284.3h.01M144.1 251.0h.01M92.6 105.0h.01M295.8 128.1h.01M197.6 257.9h.01M206.8 405.5h.01M232.9 368.8h.01M293.4 178.2h.01M88.8 261.6h.01M210.9 275.5h.01M141.6 240.7h.01M270.9 261.6h.01M82.5 189.5h.01M250.9 295.4h.01M287.1 228.9h.01M165.8 255.2h.01M250.7 331.4h.01M96.7 287.7h.01M280.9 268.3h.01M107.0 332.5h.01M107.8 75.5h.01M148.5 389.9h.01M100.0 211.9h.01M57.1 175.4h.01M142.7 288.7h.01M205.1 414.2h.01M158.2 414.6h.01M90.2 152.0h.01M300.1 192.4h.01M145.9 351.7h.01M109.7 78.4h.01M116.5 283.6h.01M217.3 384.7h.01M233.3 259.8h.01M189.2 176.8h.01M256.3 272.7h.01M293.5 221.1h.01M117.9 353.9h.01M111.6 306.2h.01M225.5 158.7h.01M218.5 396.4h.01M256.0 262.6h.01M264.7 360.3h.01M124.7 330.5h.01M260.0 251.0h.01M148.1 255.2h.01M161.7 365.9h.01M195.0 407.3h.01M151.9 237.7h.01M148.0 364.7h.01M145.9 239.6h.01M255.7 257.1h.01M117.6 220.1h.01M180.9 406.4h.01M68.9 109.5h.01M133.0 313.3h.01M138.1 166.4h.01M103.5 269.3h.01M121.6 348.1h.01M221.1 261.7h.01M132.9 309.9h.01M274.9 211.2h.01M168.3 279.2h.01M235.3 374.6h.01M77.6 161.5h.01M143.3 165.4h.01M250.6 152.0h.01M231.7 376.6h.01M234.4 180.0h.01M128.9 357.6h.01M156.5 356.7h.01M290.3 217.5h.01M81.5 146.3h.01M98.7 344.2h.01M273.5 279.2h.01M97.0 209.9h.01M128.7 346.4h.01M270.8 292.0h.01M152.1 157.6h.01M229.7 382.5h.01M109.7 345.1h.01M132.7 355.9h.01M136.2 326.6h.01M116.8 73.1h.01M263.3 332.8h.01M188.0 356.1h.01M288.8 152.7h.01M136.9 258.5h.01M100.1 145.0h.01M143.4 278.8h.01M108.1 321.0h.01M103.6 147.1h.01M143.0 363.9h.01M272.9 180.1h.01M142.6 380.9h.01"/>
<path stroke="#1a1a1a" stroke-width="3.36" stroke-linecap="round" fill="none" d="M99.4 271.7h.01M188.5 172.5h.01M158.4 384.6h.01M76.0 152.7h.01M249.1 166.4h.01M154.2 371.5h.01M110.6 85.5h.01M168.1 404.8h.01M199.5 381.5h.01M159.0 388.1h.01M92.7 254.7h.01M204.6 261.8h.01M194.5 264.3h.01M277.4 192.0h.01M78.8 125.8h.01M157.1 395.0h.01M190.5 262.6h.01M228.2 168.5h.01M160.7 374.8h.01M136.8 395.4h.01M245.8 152.8h.01M191.0 399.5h.01M240.3 272.4h.01M150.7 384.1h.01M285.5 259.5h.01M145.9 398.6h.01M192.7 375.1h.01M237.9 280.3h.01M100.7 259.8h.01M94.4 231.7h.01M285.1 161.2h.01M88.9 107.2h.01M97.4 358.0h.01M273.6 85.7h.01M194.4 378.5h.01M270.2 276.8h.01M195.7 411.9h.01M151.5 387.1h.01M108.2 68.8h.01M81.4 205.8h.01M293.5 117.6h.01M204.8 242.2h.01M157.6 391.7h.01M147.5 156.7h.01M190.3 368.9h.01M64.8 137.8h.01M99.9 264.2h.01M182.4 361.0h.01M294.0 153.4h.01M267.7 254.6h.01M188.0 399.8h.01M80.7 99.6h.01M89.6 272.8h.01M262.2 363.5h.01M146.5 287.6h.01M96.4 227.6h.01M146.5 395.3h.01M161.6 149.9h.01M179.8 215.8h.01M252.0 235.7h.01M281.2 275.5h.01M196.4 164.4h.01M216.8 238.3h.01M155.2 278.4h.01M179.8 222.4h.01M212.3 379.7h.01M88.0 81.5h.01M228.3 266.5h.01M207.6 375.4h.01M97.0 247.2h.01M102.4 228.5h.01M162.7 387.9h.01M71.2 128.6h.01M297.5 164.7h.01M100.1 72.7h.01M187.5 366.2h.01M279.4 93.2h.01M194.9 369.7h.01M67.0 153.6h.01M105.2 90.6h.01M69.2 157.5h.01M290.9 120.4h.01M151.8 375.9h.01M85.1 91.3h.01M181.6 370.6h.01M106.5 94.1h.01M238.0 234.0h.01M95.9 264.3h.01M261.8 343.7h.01M167.1 149.7h.01M152.1 350.3h.01M151.3 372.6h.01M229.0 262.5h.01M108.3 72.2h.01M273.5 313.0h.01M147.1 270.4h.01M67.9 123.3h.01M79.0 102.9h.01M197.0 386.0h.01M102.1 90.8h.01M164.5 259.6h.01M163.4 417.0h.01M154.1 413.8h.01M103.5 86.5h.01M298.8 157.7h.01M235.1 275.2h.01M114.1 71.1h.01M212.5 263.2h.01M162.0 190.0h.01M63.9 153.2h.01M168.0 411.3h.01M285.1 267.8h.01M251.0 183.4h.01M102.1 70.8h.01M169.1 259.0h.01M183.9 160.2h.01M74.6 106.8h.01M295.0 164.3h.01M93.4 266.9h.01M105.1 71.8h.01M167.1 228.1h.01M152.9 244.2h.01M190.7 372.2h.01M197.3 379.3h.01M160.7 411.7h.01M288.1 262.1h.01M195.7 287.9h.01M199.1 371.8h.01M213.5 387.0h.01M294.3 123.1h.01M65.6 149.0h.01M88.6 243.7h.01M285.4 104.7h.01M259.7 154.6h.01M210.4 260.0h.01M96.6 260.4h.01M298.0 170.9h.01M129.7 247.0h.01M204.6 408.7h.01M267.0 370.3h.01M148.9 377.4h.01M108.6 82.4h.01M257.1 181.6h.01M232.9 264.7h.01M161.5 390.3h.01M161.5 255.3h.01M259.0 325.7h.01M97.8 99.5h.01M169.6 224.0h.01M223.9 264.3h.01M158.6 397.4h.01M213.0 376.5h.01M79.3 177.1h.01M221.5 385.2h.01M88.4 97.4h.01M197.8 242.8h.01M167.9 153.4h.01M154.6 384.4h.01M270.6 303.7h.01M92.5 258.5h.01M199.8 169.1h.01M221.6 376.7h.01M249.7 242.7h.01M106.1 79.5h.01M72.0 117.6h.01M192.0 252.7h.01M207.8 410.0h.01M286.1 168.2h.01M298.0 188.1h.01M231.9 270.9h.01M217.5 258.4h.01M75.4 128.1h.01M272.0 372.2h.01M106.1 87.8h.01M146.5 282.8h.01M215.7 380.7h.01M85.0 191.9h.01M244.3 286.4h.01M63.4 146.4h.01M88.6 159.5h.01M254.2 347.0h.01M166.6 198.4h.01M91.2 397.0h.01M185.9 370.6h.01M151.0 410.0h.01M155.8 402.4h.01M164.3 412.2h.01M160.7 259.8h.01M201.4 305.0h.01M238.1 240.0h.01M164.5 251.1h.01M102.7 94.4h.01M82.1 158.2h.01M251.6 288.1h.01M147.6 278.5h.01M155.5 388.3h.01M95.2 274.5h.01M177.8 150.4h.01M276.2 251.7h.01M237.3 164.3h.01M162.6 369.3h.01M148.9 357.5h.01M152.3 368.6h.01M200.3 399.3h.01M231.9 166.2h.01M300.1 178.7h.01M190.0 382.1h.01M284.0 273.3h.01M259.6 255.6h.01M171.4 375.1h.01M149.1 151.4h.01M258.5 164.6h.01M63.6 142.3h.01M301.4 187.5h.01M278.8 283.5h.01M81.1 90.9h.01M199.3 395.6h.01M246.1 194.1h.01M173.3 221.9h.01M276.7 255.3h.01M183.5 213.7h.01M187.8 287.3h.01M85.3 158.2h.01M186.0 363.1h.01M151.5 279.1h.01M78.7 150.6h.01M171.9 228.4h.01M93.4 149.9h.01M178.6 377.1h.01M203.5 382.0h.01M109.3 89.2h.01M184.9 381.1h.01M201.1 392.4h.01M112.0 75.0h.01M264.4 153.1h.01M189.5 403.4h.01M173.1 175.1h.01M272.6 254.8h.01M279.0 296.1h.01M219.9 382.9h.01M90.8 223.0h.01M277.6 160.3h.01M234.3 175.0h.01M192.9 381.7h.01M79.9 202.1h.01M262.5 185.1h.01M99.1 252.0h.01M161.6 167.4h.01M250.6 232.2h.01M84.6 100.7h.01M197.0 160.8h.01M89.8 101.6h.01M266.5 382.0h.01M108.8 230.8h.01M258.2 356.9h.01M214.7 373.5h.01M92.5 384.5h.01M257.1 343.1h.01M289.2 232.4h.01M91.9 225.9h.01M232.7 170.3h.01M264.6 249.4h.01M138.0 162.4h.01M203.3 297.5h.01M194.3 158.9h.01M154.9 248.0h.01M167.6 272.3h.01M82.2 103.4h.01M86.9 151.9h.01M148.5 368.5h.01M96.7 152.5h.01M134.6 164.8h.01M290.3 112.2h.01M150.7 264.7h.01M270.3 383.5h.01M280.0 170.4h.01M267.5 374.1h.01M197.4 238.0h.01M96.0 363.6h.01M134.3 262.2h.01M253.2 239.4h.01M247.2 233.7h.01M141.3 389.2h.01M157.2 190.6h.01M285.9 122.0h.01M67.7 130.5h.01M281.5 260.5h.01M77.7 131.0h.01M71.5 105.5h.01M201.0 384.9h.01M296.4 174.0h.01M76.1 134.2h.01M174.1 361.6h.01M209.2 378.6h.01M221.4 246.4h.01M219.2 254.4h.01M102.6 78.9h.01M209.6 266.4h.01M155.0 154.7h.01M241.9 290.2h.01M93.3 388.9h.01M65.9 126.5h.01M219.5 250.6h.01M152.4 359.3h.01M280.3 174.4h.01M94.0 270.9h.01M205.3 378.7h.01M115.7 77.8h.01M251.9 166.1h.01M300.3 196.9h.01M202.9 308.9h.01M158.4 380.5h.01M238.9 159.8h.01M158.5 235.6h.01M84.2 151.5h.01M150.9 381.1h.01M148.0 372.9h.01M246.0 167.1h.01M205.2 165.0h.01M284.2 164.4h.01M290.6 225.1h.01M174.5 379.3h.01M284.7 117.3h.01M157.2 260.7h.01M139.5 276.9h.01M243.6 283.3h.01M197.0 399.2h.01M202.0 164.8h.01M107.1 85.5h.01M206.4 252.1h.01M256.0 247.7h.01M205.5 266.1h.01M81.9 150.4h.01M84.8 155.1h.01M286.6 255.3h.01M93.4 261.6h.01M288.2 108.1h.01M255.3 165.9h.01M112.9 230.6h.01M164.1 232.1h.01M154.7 381.1h.01M207.4 391.6h.01M293.2 157.5h.01M94.5 236.9h.01M200.8 377.2h.01M238.3 183.7h.01M227.8 239.3h.01M282.7 256.0h.01M228.0 164.4h.01M270.4 181.8h.01M105.0 75.5h.01M158.5 376.5h.01M255.8 351.7h.01M189.0 162.8h.01M167.9 374.7h.01M77.2 147.9h.01M90.3 250.0h.01M135.6 360.9h.01M75.1 169.3h.01M98.6 349.0h.01M211.0 372.1h.01M182.1 381.5h.01M204.1 390.9h.01M96.5 220.7h.01M185.1 404.1h.01M247.7 175.7h.01M159.8 371.5h.01M99.7 275.5h.01M152.2 364.9h.01M213.9 259.5h.01M296.7 179.2h.01M144.6 391.3h.01M158.5 174.5h.01M217.9 248.0h.01M258.4 347.1h.01M193.9 403.3h.01M148.2 274.6h.01M202.3 263.9h.01M152.5 390.6h.01M170.5 367.5h.01M285.4 270.8h.01M251.8 177.1h.01M180.4 148.8h.01M191.8 152.4h.01M99.9 80.8h.01M94.3 81.9h.01M94.2 223.2h.01M198.3 263.4h.01M281.6 279.7h.01M96.4 256.2h.01M104.4 249.0h.01M165.4 407.6h.01M97.1 105.4h.01M213.0 250.2h.01M80.5 197.4h.01M148.2 381.5h.01M104.9 242.1h.01M166.1 371.1h.01M187.7 378.9h.01M230.7 236.1h.01M215.7 251.4h.01M101.3 102.8h.01M208.8 163.6h.01M209.6 250.2h.01M282.6 266.6h.01M91.7 219.5h.01M131.8 242.1h.01M277.1 167.0h.01M144.2 270.0h.01M182.5 170.8h.01M137.7 157.1h.01M144.9 274.8h.01M190.2 309.7h.01M212.5 390.1h.01M152.1 378.9h.01M100.8 224.0h.01M185.7 374.0h.01M80.8 193.4h.01M75.1 110.6h.01M288.2 243.6h.01M74.8 141.3h.01M226.6 375.4h.01M124.3 273.4h.01M94.8 218.1h.01M163.2 373.2h.01M175.5 195.7h.01M159.0 153.9h.01M212.3 159.1h.01M191.9 365.7h.01M145.0 153.6h.01M80.7 160.6h.01M105.1 83.3h.01M135.6 346.8h.01M97.6 224.6h.01M96.8 283.3h.01M173.5 371.6h.01M253.6 243.4h.01M134.8 159.9h.01M178.9 367.4h.01M290.5 237.1h.01"/>
<path stroke="#1a1a1a" stroke-width="3.93" stroke-linecap="round" fill="none" d="M269.3 372.0h.01M247.8 163.5h.01M178.1 271.4h.01M164.4 270.0h.01M212.9 246.4h.01M71.0 150.0h.01M231.0 278.5h.01M158.3 267.1h.01M182.5 267.7h.01M231.7 267.8h.01M72.1 132.4h.01M160.1 394.7h.01M206.5 259.1h.01M73.5 146.7h.01M247.4 282.3h.01M251.1 272.8h.01M180.3 157.9h.01M182.9 150.6h.01M181.5 397.0h.01M251.5 246.7h.01M150.3 246.5h.01M191.0 378.9h.01M163.8 263.6h.01M89.8 93.3h.01M261.9 162.6h.01M172.7 404.5h.01M188.6 154.2h.01M187.4 270.1h.01M189.0 266.5h.01M194.7 260.9h.01M165.4 391.4h.01M99.0 75.4h.01M267.5 366.7h.01M255.0 177.1h.01M200.8 260.6h.01M215.1 269.7h.01M252.8 283.8h.01M230.6 274.2h.01M80.6 154.4h.01M82.8 199.8h.01M101.1 97.9h.01M162.4 385.1h.01M92.9 375.5h.01M197.1 253.3h.01M190.2 390.9h.01M155.5 366.9h.01M259.9 335.5h.01M298.2 142.7h.01M187.3 385.7h.01M89.5 85.4h.01M166.9 378.4h.01M257.2 160.5h.01M67.9 118.1h.01M159.0 170.5h.01M288.0 247.5h.01M253.6 276.4h.01M297.5 146.0h.01M206.2 384.9h.01M219.0 266.5h.01M193.2 232.7h.01M237.5 277.5h.01M194.4 236.1h.01M183.6 388.3h.01M177.5 374.2h.01M157.4 150.1h.01M210.6 257.1h.01M216.4 242.1h.01M269.9 368.8h.01M281.9 287.7h.01M186.2 263.4h.01M178.6 379.9h.01M188.9 230.6h.01M86.7 86.3h.01M243.5 160.3h.01M147.3 176.4h.01M255.0 179.8h.01M235.6 277.8h.01M168.1 169.8h.01M192.2 229.8h.01M158.2 275.5h.01M294.6 137.1h.01M210.2 385.1h.01M140.3 269.7h.01M191.8 396.0h.01M167.2 267.9h.01M252.2 173.9h.01M193.3 391.9h.01M174.9 270.5h.01M222.9 274.9h.01M151.7 171.3h.01M95.2 97.0h.01M76.8 155.1h.01M98.4 94.3h.01M194.2 268.8h.01M159.6 404.4h.01M162.3 266.5h.01M156.6 239.6h.01M234.2 272.1h.01M155.6 170.6h.01M269.8 258.0h.01M192.5 163.5h.01M171.0 385.7h.01M74.2 150.0h.01M234.6 234.8h.01M185.9 387.1h.01M160.2 239.4h.01M239.1 177.5h.01M177.5 155.3h.01M279.4 163.3h.01M189.4 385.3h.01M141.0 160.7h.01M184.8 391.6h.01M270.4 185.4h.01M187.7 211.9h.01M197.4 391.0h.01M184.0 394.5h.01M146.5 259.2h.01M245.8 277.2h.01M221.3 270.4h.01M181.2 264.2h.01M277.1 300.5h.01M170.9 154.4h.01M239.3 268.0h.01M152.0 249.5h.01M174.3 154.3h.01M81.6 93.3h.01M71.5 153.0h.01M174.2 400.2h.01M231.5 276.5h.01M257.8 177.5h.01M161.1 381.6h.01M207.5 255.6h.01M190.7 271.0h.01M72.0 109.5h.01M187.3 396.2h.01M96.8 89.7h.01M247.2 229.2h.01M67.6 144.4h.01M260.3 175.7h.01M235.6 167.6h.01M189.9 393.9h.01M75.6 103.4h.01M216.0 245.0h.01M238.8 218.9h.01M177.5 398.5h.01M237.1 271.7h.01M175.0 150.6h.01M93.7 85.9h.01M211.2 253.6h.01M220.4 243.3h.01M171.4 381.8h.01M172.6 170.1h.01M150.7 268.4h.01M205.7 387.9h.01M216.9 274.2h.01M161.4 407.4h.01M184.8 377.6h.01M183.1 153.9h.01M69.5 153.5h.01M154.5 174.5h.01M62.3 172.0h.01M253.2 159.8h.01M270.0 379.9h.01M172.5 412.8h.01M71.7 139.1h.01M280.6 97.1h.01M263.6 177.8h.01M228.7 276.5h.01M188.0 234.1h.01M178.4 390.0h.01M224.1 268.1h.01M90.8 80.8h.01M69.7 146.9h.01M298.6 176.0h.01M171.0 397.5h.01M84.6 95.2h.01M299.3 173.0h.01M98.4 86.8h.01M208.5 263.1h.01M232.8 273.6h.01M154.5 267.0h.01M97.6 83.1h.01M84.1 203.2h.01M198.6 271.5h.01M170.2 401.6h.01M218.0 270.6h.01M92.2 99.0h.01M271.3 375.0h.01M182.1 175.0h.01M181.9 377.6h.01M265.2 160.1h.01M249.3 276.5h.01M210.2 240.6h.01M183.4 384.8h.01M84.5 98.0h.01M195.5 382.7h.01M273.0 308.3h.01M153.2 270.5h.01M212.6 243.1h.01M141.5 273.5h.01M112.5 81.2h.01M228.7 270.0h.01M287.4 239.5h.01M255.8 157.3h.01M266.4 363.6h.01M245.4 225.0h.01M281.7 167.0h.01M161.5 273.0h.01M145.1 255.6h.01M204.7 273.2h.01M192.4 385.4h.01M101.0 85.5h.01M157.7 271.9h.01M183.2 167.9h.01M284.1 277.5h.01M228.7 272.9h.01M89.4 148.6h.01M171.4 393.6h.01M243.8 279.6h.01M247.6 155.8h.01M243.3 177.5h.01M292.9 130.6h.01M90.5 392.9h.01M65.9 169.1h.01M197.4 267.4h.01M88.5 89.6h.01M162.2 401.2h.01M80.2 96.4h.01M100.8 88.1h.01M264.7 181.3h.01M184.2 156.4h.01M268.0 179.8h.01M162.4 174.8h.01M240.2 237.2h.01M149.8 361.7h.01M160.9 392.4h.01M169.6 166.8h.01M150.4 154.3h.01M162.9 170.7h.01M225.3 271.6h.01M73.4 136.3h.01M167.9 263.1h.01M102.9 82.1h.01M187.4 389.6h.01M85.9 200.3h.01M205.2 248.1h.01M299.8 166.4h.01M243.0 156.5h.01M165.1 375.3h.01M251.7 163.1h.01M201.0 266.2h.01M179.6 172.6h.01M72.4 166.7h.01M183.2 366.2h.01M174.4 395.6h.01M87.2 93.5h.01M73.6 153.2h.01M170.6 266.2h.01M162.8 393.2h.01M274.9 157.9h.01M165.0 398.5h.01M209.5 388.2h.01M209.0 382.0h.01M68.2 150.3h.01M173.7 388.9h.01M185.7 176.4h.01M191.0 160.3h.01M168.0 394.3h.01M298.6 153.5h.01M180.6 392.9h.01M233.5 277.5h.01M180.4 401.3h.01M130.7 252.0h.01M97.0 80.3h.01M166.1 385.1h.01M242.7 183.1h.01M191.5 156.5h.01M266.6 184.9h.01M150.9 258.3h.01M242.5 166.6h.01M169.5 173.0h.01M231.3 239.3h.01M177.4 262.2h.01M274.2 163.0h.01M219.4 240.3h.01M174.5 266.3h.01M71.6 143.4h.01M178.2 394.8h.01M165.8 173.0h.01M99.1 90.9h.01M175.3 392.1h.01M151.7 275.7h.01M98.3 77.9h.01M185.4 266.8h.01M207.4 269.6h.01M154.5 362.6h.01M154.3 410.7h.01M248.5 285.4h.01M153.5 150.7h.01M85.3 197.3h.01M250.2 280.1h.01M207.9 273.5h.01M68.8 114.2h.01M216.8 263.0h.01M282.3 283.5h.01M76.7 99.6h.01M96.9 109.3h.01M199.9 234.4h.01M226.0 275.0h.01M248.9 238.0h.01M251.9 179.9h.01M269.4 162.8h.01M276.2 305.3h.01M170.3 378.5h.01M157.6 409.6h.01M271.4 159.9h.01M167.8 399.0h.01M213.5 383.5h.01M177.5 370.6h.01M260.4 158.1h.01M253.9 182.1h.01M155.8 270.1h.01M94.4 78.8h.01M164.5 382.8h.01M295.7 140.3h.01M233.7 237.0h.01M255.2 162.8h.01M206.7 239.2h.01M159.0 263.7h.01M165.5 167.3h.01M256.2 252.2h.01M281.2 102.0h.01M277.6 187.6h.01M187.1 393.1h.01M84.4 87.9h.01M176.4 171.5h.01M241.7 276.3h.01M282.7 108.6h.01M135.3 241.3h.01M187.4 158.1h.01M169.8 390.4h.01M218.7 244.9h.01M245.1 163.6h.01M68.2 140.2h.01M293.8 142.5h.01M150.4 272.1h.01M263.5 156.9h.01M69.4 168.0h.01M186.3 151.8h.01M196.3 232.9h.01M162.0 398.0h.01M76.8 144.5h.01M199.8 153.7h.01M92.2 380.5h.01M273.1 187.9h.01M265.4 163.0h.01M190.7 388.1h.01M222.3 241.5h.01M210.4 271.9h.01M298.6 161.4h.01M195.4 394.9h.01M160.5 269.5h.01M178.7 266.3h.01M141.7 156.1h.01M278.9 291.0h.01M195.5 152.6h.01M276.3 90.0h.01M260.1 160.8h.01M164.7 403.1h.01M171.4 270.4h.01M300.3 164.2h.01M249.0 179.6h.01M180.2 387.0h.01M164.5 380.2h.01M213.4 239.5h.01M240.7 281.3h.01M298.2 149.5h.01M180.9 270.5h.01M94.0 89.0h.01M74.7 157.2h.01M209.8 246.7h.01M68.9 135.2h.01M203.4 270.1h.01M247.3 159.4h.01M260.5 182.1h.01M203.4 236.9h.01M200.7 269.1h.01M198.8 166.8h.01M155.4 378.1h.01M170.4 408.0h.01M173.7 384.2h.01M182.0 261.1h.01M92.0 94.7h.01M143.7 176.2h.01M179.9 153.4h.01M154.7 406.3h.01M274.6 184.4h.01M298.9 168.3h.01M181.9 390.1h.01M171.5 151.0h.01M250.0 160.5h.01M254.5 280.4h.01M260.5 179.2h.01M176.5 382.5h.01M295.1 145.4h.01M96.2 85.2h.01M267.9 157.6h.01M235.3 268.5h.01M194.3 272.2h.01M184.6 399.2h.01M238.2 275.0h.01M196.7 375.1h.01M92.0 158.8h.01M214.0 273.7h.01M215.3 248.0h.01M185.8 231.0h.01M147.7 172.8h.01M100.8 83.6h.01M181.4 374.0h.01M91.7 83.4h.01M259.8 339.6h.01M95.1 93.8h.01M177.0 219.8h.01M84.0 195.2h.01M176.7 403.9h.01M154.5 264.0h.01M190.7 233.1h.01M91.2 88.7h.01M72.0 156.3h.01M102.0 76.0h.01M164.3 152.6h.01M166.3 388.3h.01M194.5 388.5h.01M247.1 289.3h.01M213.9 266.4h.01M93.4 91.6h.01M208.2 244.1h.01M239.4 167.7h.01M191.8 266.5h.01M162.2 395.6h.01M251.4 156.4h.01M285.1 112.2h.01M179.8 383.7h.01M168.1 382.4h.01M261.6 358.7h.01M235.1 239.1h.01M232.7 275.3h.01M168.8 386.7h.01M147.1 266.5h.01M176.1 167.5h.01M154.6 274.4h.01M186.2 170.0h.01M78.5 157.7h.01M200.8 388.2h.01M177.2 268.6h.01M102.2 73.6h.01M211.9 269.5h.01M179.6 168.3h.01M174.5 375.9h.01M245.7 180.4h.01M195.9 156.1h.01M243.2 273.5h.01M150.7 174.7h.01M241.4 163.5h.01M158.8 400.4h.01M155.4 374.8h.01M153.9 260.7h.01M184.2 271.8h.01M162.4 377.8h.01M144.4 158.6h.01M194.0 399.4h.01M296.3 132.8h.01M172.8 262.2h.01M165.0 395.0h.01M220.1 274.7h.01M239.9 278.1h.01M162.0 236.0h.01M286.1 264.5h.01M283.4 171.9h.01M237.1 236.9h.01M187.1 382.7h.01M176.7 386.4h.01M295.2 149.8h.01"/>
</svg>