<svg xmlns="http://www.w3.org/2000/svg" viewBox="0 0 360 432" role="img">
<path stroke="#1a1a1a" stroke-width="1.56" stroke-linecap="round" fill="none" d="M54.2 380.3h.01M249.9 430.7h.01M358.6 105.2h.01M110.1 430.7h.01M59.1 391.4h.01M123.8 355.4h.01M44.5 378.8h.01M72.8 407.5h.01M232.4 430.6h.01M198.4 430.6h.01M215.7 430.6h.01M0.4 123.7h.01M67.9 399.7h.01M127.6 430.6h.01M0.4 274.1h.01M144.3 430.6h.01M126.2 191.0h.01M161.6 430.6h.01M358.6 292.6h.01"/>
<path stroke="#1a1a1a" stroke-width="2.07" stroke-linecap="round" fill="none" d="M74.7 176.7h.01M94.7 121.0h.01M108.2 71.3h.01M99.3 246.3h.01M129.3 143.3h.01M317.7 196.3h.01M165.5 414.4h.01M122.1 132.3h.01M145.3 380.6h.01M117.8 192.7h.01M144.9 127.1h.01M141.7 87.2h.01M78.0 141.0h.01M145.5 107.2h.01M168.7 400.2h.01M130.5 274.3h.01M84.0 0.4h.01M73.3 256.3h.01M183.0 197.9h.01M158.0 112.8h.01M132.1 110.3h.01M113.3 129.6h.01M93.2 112.9h.01M72.9 127.1h.01M94.4 129.6h.01M139.2 114.0h.01M77.9 108.2h.01M121.9 106.1h.01M128.8 149.7h.01M113.0 207.3h.01M138.8 131.7h.01M130.8 63.8h.01M152.0 268.2h.01M138.0 122.9h.01M89.1 187.3h.01M145.4 119.8h.01M122.3 97.3h.01M110.4 283.6h.01M123.7 139.4h.01M110.7 219.8h.01M0.4 223.3h.01M73.7 196.4h.01M106.9 201.5h.01M88.5 125.5h.01M213.3 399.6h.01M102.3 121.5h.01M89.4 104.1h.01M72.5 133.5h.01M152.0 381.0h.01M118.0 115.9h.01M127.5 362.3h.01M108.9 84.7h.01M84.3 223.1h.01M88.5 203.3h.01M100.0 177.4h.01M136.0 266.7h.01M152.5 124.4h.01M78.4 114.6h.01M92.7 97.5h.01M78.5 134.3h.01M102.4 184.8h.01M126.7 126.4h.01M132.9 128.2h.01M187.4 191.4h.01M93.4 241.8h.01M112.9 363.0h.01M159.8 384.4h.01M75.3 119.9h.01M160.1 82.6h.01M128.7 157.4h.01M358.6 260.1h.01M141.8 69.2h.01M100.0 84.3h.01M90.1 217.1h.01M119.5 0.4h.01M153.1 96.3h.01M153.0 108.7h.01M77.3 371.1h.01M121.4 185.8h.01M280.6 89.7h.01M118.7 283.2h.01M155.4 88.4h.01M120.6 365.8h.01M134.8 70.5h.01M117.6 84.5h.01M97.7 228.4h.01M139.1 379.2h.01M113.9 289.7h.01M114.7 107.9h.01M105.9 107.6h.01M81.1 215.9h.01M134.0 369.0h.01M125.2 112.8h.01M83.2 376.8h.01M120.5 72.4h.01M81.2 102.4h.01M136.1 91.9h.01M108.5 100.2h.01M131.9 118.7h.01M143.1 80.9h.01M136.3 99.1h.01M89.3 228.5h.01M138.3 76.2h.01M74.4 188.7h.01M162.1 399.7h.01M165.5 93.4h.01M358.6 169.2h.01M142.2 94.2h.01M72.5 156.7h.01M129.5 94.8h.01M225.7 384.1h.01M232.0 0.4h.01M180.0 430.6h.01M203.6 409.3h.01M115.8 200.8h.01M154.4 81.6h.01M73.7 202.6h.01M95.3 235.0h.01M80.3 207.2h.01M277.6 367.6h.01M80.3 412.2h.01M136.4 145.8h.01M89.8 196.1h.01M100.4 135.9h.01M101.3 239.6h.01M151.1 394.3h.01M358.6 200.0h.01M72.3 139.4h.01M74.7 182.4h.01M125.1 287.3h.01M138.5 105.6h.01M88.7 133.5h.01M129.4 135.1h.01M94.4 181.4h.01M123.6 172.5h.01M188.6 378.1h.01M132.4 356.7h.01M86.9 117.4h.01M114.4 91.3h.01M186.4 408.5h.01M123.1 89.6h.01M84.1 96.3h.01M107.3 189.7h.01M156.0 0.4h.01M101.8 368.4h.01M96.5 188.0h.01M73.2 163.9h.01M82.9 189.2h.01M91.2 83.3h.01M164.9 392.4h.01M160.5 76.6h.01M139.8 385.5h.01M122.7 197.6h.01M87.6 89.8h.01M80.3 200.4h.01M161.4 407.3h.01M126.7 82.9h.01M62.6 380.3h.01M145.4 99.9h.01M131.0 171.0h.01M68.2 391.8h.01M122.8 276.9h.01M85.1 110.2h.01M148.6 70.9h.01M115.5 99.5h.01M129.0 102.8h.01M83.8 195.9h.01M83.4 130.9h.01M190.5 198.4h.01M111.1 121.5h.01M147.7 113.4h.01M159.3 93.5h.01M100.8 99.2h.01M130.0 196.4h.01M138.3 64.3h.01M156.7 70.9h.01M129.9 185.3h.01M97.3 106.5h.01M118.7 124.5h.01M99.3 215.3h.01M153.9 117.9h.01M120.5 179.0h.01M73.5 209.2h.01M110.5 114.9h.01M153.0 387.5h.01M124.7 119.8h.01M113.7 277.2h.01M144.0 74.4h.01M219.9 401.8h.01M116.7 136.2h.01M97.8 201.7h.01M223.4 390.4h.01M73.4 170.6h.01M123.0 66.5h.01M92.4 385.5h.01M105.7 92.0h.01M86.7 210.7h.01M216.7 393.1h.01M115.9 173.7h.01M148.5 373.6h.01M105.9 133.5h.01M192.6 169.2h.01M87.4 381.2h.01M78.4 193.3h.01M146.1 388.2h.01M133.2 161.9h.01M92.9 249.3h.01M193.5 0.4h.01M136.0 363.5h.01M109.0 226.5h.01M100.3 128.7h.01M103.8 231.8h.01M77.9 380.3h.01M152.9 102.5h.01M148.7 84.6h.01M73.4 216.3h.01M207.1 402.7h.01M223.4 396.9h.01M358.6 138.4h.01M94.9 222.4h.01M146.0 63.7h.01M113.4 187.1h.01M140.6 373.0h.01M155.0 400.8h.01M143.0 367.2h.01M194.0 191.4h.01M148.6 91.2h.01M135.4 138.2h.01M156.8 376.5h.01M109.2 213.6h.01M126.8 166.0h.01M170.2 407.9h.01M168.2 387.4h.01M132.1 77.4h.01M97.0 91.1h.01M315.7 207.0h.01M229.7 390.0h.01M148.8 78.1h.01M72.3 146.5h.01M199.2 165.9h.01M120.0 78.8h.01M358.6 230.2h.01M153.9 75.3h.01M94.7 208.9h.01M103.6 208.2h.01M194.9 409.1h.01M110.8 195.5h.01M135.9 83.0h.01M114.3 180.9h.01M71.2 378.5h.01M126.3 179.5h.01M143.4 267.3h.01M103.5 221.8h.01M119.6 292.3h.01M163.3 87.4h.01M102.1 194.6h.01M211.6 408.0h.01M158.3 392.5h.01M95.2 194.3h.01M153.9 408.3h.01M95.9 157.4h.01M107.1 179.9h.01M199.6 403.3h.01M134.5 191.5h.01M128.3 70.2h.01M138.1 273.0h.01M83.3 365.3h.01M102.0 114.8h.01M0.4 175.2h.01M78.2 126.9h.01M100.8 152.8h.01M271.9 0.4h.01M82.2 122.2h.01M106.7 126.8h.01M131.2 87.7h.01M179.7 132.5h.01"/>
<path stroke="#1a1a1a" stroke-width="2.47" stroke-linecap="round" fill="none" d="M157.0 274.9h.01M184.5 372.3h.01M82.0 177.7h.01M86.5 260.7h.01M162.4 275.3h.01M170.3 65.4h.01M135.9 43.7h.01M110.7 136.5h.01M307.8 315.5h.01M74.0 243.0h.01M182.8 76.7h.01M121.4 340.7h.01M85.6 270.5h.01M182.2 155.6h.01M147.8 400.7h.01M109.2 173.9h.01M173.3 154.2h.01M112.1 59.9h.01M97.4 376.3h.01M113.0 332.9h.01M144.2 395.4h.01M136.5 215.2h.01M130.1 211.4h.01M232.8 383.9h.01M234.9 393.6h.01M167.5 156.9h.01M137.2 186.7h.01M158.5 65.0h.01M218.8 386.4h.01M131.7 177.6h.01M181.7 107.5h.01M146.3 272.3h.01M77.5 256.4h.01M122.2 145.7h.01M188.0 115.0h.01M230.5 373.3h.01M217.7 162.0h.01M137.1 173.5h.01M135.5 197.3h.01M213.2 161.9h.01M124.2 346.4h.01M96.3 382.3h.01M219.2 407.7h.01M140.0 177.9h.01M95.9 76.8h.01M94.8 414.7h.01M201.7 380.2h.01M140.6 236.0h.01M102.7 171.7h.01M138.4 312.2h.01M117.7 271.2h.01M117.9 336.1h.01M102.1 284.8h.01M186.1 397.2h.01M128.6 300.9h.01M144.4 296.2h.01M189.5 385.2h.01M81.6 259.6h.01M185.1 210.4h.01M136.0 316.6h.01M156.4 262.5h.01M82.2 265.3h.01M130.7 215.8h.01M198.1 172.6h.01M125.7 225.8h.01M122.5 298.1h.01M200.1 178.5h.01M141.9 139.2h.01M191.8 219.7h.01M98.7 279.0h.01M87.6 180.1h.01M175.6 185.6h.01M188.8 160.6h.01M116.4 222.9h.01M176.8 112.1h.01M175.9 117.7h.01M138.2 58.2h.01M201.8 204.5h.01M112.6 77.7h.01M154.9 295.9h.01M175.2 61.2h.01M181.3 414.8h.01M146.1 319.4h.01M84.8 371.1h.01M100.7 70.4h.01M88.6 255.2h.01M118.6 166.7h.01M102.2 323.6h.01M185.6 179.0h.01M96.7 300.8h.01M187.8 89.3h.01M173.4 81.6h.01M196.1 88.8h.01M137.9 287.8h.01M189.9 206.4h.01M162.3 70.7h.01M181.4 191.7h.01M88.6 266.5h.01M186.1 172.1h.01M152.5 61.5h.01M97.5 318.2h.01M77.2 268.3h.01M155.2 303.4h.01M227.9 403.6h.01M169.3 375.7h.01M176.1 389.0h.01M177.6 382.8h.01M183.9 84.5h.01M95.0 367.3h.01M189.9 414.9h.01M187.3 165.8h.01M201.3 391.7h.01M128.8 201.6h.01M149.0 261.9h.01M111.9 150.1h.01M181.5 168.0h.01M175.8 67.3h.01M138.1 156.9h.01M90.2 139.8h.01M106.9 64.7h.01M81.2 253.0h.01M189.4 184.8h.01M96.8 306.5h.01M135.6 181.4h.01M222.2 160.6h.01M116.4 64.2h.01M135.1 238.3h.01M128.1 245.9h.01M117.1 216.5h.01M229.4 396.9h.01M103.4 303.2h.01M123.5 52.7h.01M150.1 286.3h.01M209.5 171.7h.01M91.8 271.6h.01M183.2 94.3h.01M178.5 408.8h.01M151.8 274.7h.01M195.0 380.4h.01M151.3 51.8h.01M132.8 243.2h.01M133.3 296.5h.01M160.2 58.8h.01M81.0 239.1h.01M182.8 161.4h.01M173.9 414.6h.01M142.3 216.8h.01M115.4 228.5h.01M113.7 297.1h.01M195.5 204.5h.01M244.0 385.9h.01M176.5 76.1h.01M133.4 309.8h.01M105.2 279.3h.01M215.0 171.8h.01M171.9 92.6h.01M223.7 232.5h.01M86.1 173.1h.01M159.3 268.9h.01M106.3 360.9h.01M92.3 378.3h.01M178.8 140.0h.01M217.1 167.2h.01M164.7 379.7h.01M180.4 71.3h.01M178.6 152.9h.01M86.3 249.4h.01M134.6 50.9h.01M236.5 372.4h.01M132.2 285.2h.01M247.6 393.3h.01M185.6 137.0h.01M179.4 81.8h.01M160.3 290.6h.01M194.1 180.0h.01M162.5 116.2h.01M175.7 169.2h.01M225.5 408.2h.01M201.3 385.5h.01M97.3 289.0h.01M94.2 295.1h.01M106.6 244.9h.01M94.3 149.7h.01M139.3 391.1h.01M175.6 402.4h.01M188.5 102.8h.01M94.6 257.1h.01M175.6 99.5h.01M107.6 327.7h.01M138.9 299.9h.01M192.8 83.8h.01M172.0 160.0h.01M144.3 303.1h.01M179.7 180.4h.01M160.3 296.5h.01M138.9 282.6h.01M169.4 86.4h.01M80.5 146.2h.01M197.3 185.1h.01M207.8 193.3h.01M145.8 56.7h.01M218.1 179.4h.01M166.8 59.5h.01M154.6 289.9h.01M153.4 46.8h.01M166.0 80.4h.01M228.9 241.8h.01M94.7 136.9h.01M140.6 51.3h.01M104.3 77.8h.01M102.0 374.3h.01M222.3 170.8h.01M126.6 239.3h.01M174.6 174.0h.01M84.0 159.1h.01M177.3 158.7h.01M122.9 151.7h.01M204.8 210.2h.01M81.4 271.9h.01M187.2 81.2h.01M204.8 43.0h.01M117.8 141.4h.01M130.4 236.0h.01M81.5 183.6h.01M201.2 191.7h.01M195.7 385.7h.01M240.6 375.7h.01M150.2 366.4h.01M177.3 164.1h.01M130.5 56.8h.01M195.8 391.4h.01M112.6 371.6h.01M203.1 102.3h.01M181.0 65.5h.01M190.3 392.6h.01M194.4 375.1h.01M194.6 103.2h.01M190.4 371.1h.01M87.7 235.7h.01M187.1 155.9h.01M182.3 378.3h.01M90.6 373.5h.01M210.6 223.6h.01M107.8 152.5h.01M92.4 175.0h.01M89.1 157.5h.01M175.0 377.5h.01M166.3 119.9h.01M200.2 375.8h.01M108.1 238.5h.01M196.7 217.3h.01M87.0 243.2h.01M87.3 413.3h.01M153.8 56.3h.01M191.8 132.5h.01M175.5 87.2h.01M305.7 235.6h.01M183.2 390.7h.01M203.4 185.5h.01M162.2 142.8h.01M134.9 278.9h.01M97.1 371.2h.01M171.4 382.6h.01M175.7 191.6h.01M164.6 65.2h.01M142.5 44.0h.01M187.6 108.3h.01M107.6 297.1h.01M161.1 100.1h.01M149.9 307.2h.01M112.8 168.4h.01M96.0 361.9h.01M123.6 60.1h.01M129.2 350.8h.01M171.7 109.3h.01M74.2 228.9h.01M245.8 379.7h.01M105.0 249.8h.01M160.2 122.9h.01M84.5 165.9h.01M214.0 183.5h.01M172.1 56.2h.01M239.6 381.6h.01M111.3 233.2h.01M251.3 382.6h.01M172.8 71.4h.01M242.2 392.3h.01M127.0 294.2h.01M175.9 105.3h.01M210.5 45.4h.01M192.6 92.7h.01M192.7 98.1h.01M87.2 298.4h.01M209.0 188.1h.01M181.9 101.1h.01M134.5 152.6h.01M157.2 285.6h.01M133.7 303.2h.01M199.1 415.1h.01M191.3 175.4h.01M117.9 56.2h.01M218.7 174.1h.01M162.2 372.7h.01M223.7 176.0h.01M249.3 387.9h.01M125.9 231.8h.01M239.1 397.8h.01M122.6 162.0h.01M137.0 167.7h.01M139.0 358.4h.01M142.4 145.7h.01M193.7 163.1h.01M170.1 115.1h.01M185.1 130.1h.01M207.3 161.7h.01M132.1 291.1h.01M192.5 156.3h.01M74.6 235.9h.01M94.8 283.4h.01M129.2 49.1h.01M183.1 402.7h.01M76.2 222.9h.01M147.6 279.1h.01M198.5 106.3h.01M153.4 280.8h.01M170.6 76.8h.01M202.1 159.6h.01M148.7 137.6h.01M165.9 270.6h.01M204.8 167.2h.01M198.5 96.8h.01M101.8 292.7h.01M76.9 399.7h.01M210.4 393.3h.01M184.7 203.8h.01M114.7 70.4h.01M182.1 185.5h.01M193.1 110.5h.01M100.5 267.3h.01M81.3 231.0h.01M221.1 378.7h.01M159.6 106.2h.01M212.1 177.3h.01M90.3 307.8h.01M139.0 293.4h.01M107.1 289.8h.01M78.8 276.1h.01M139.0 306.5h.01M206.6 388.9h.01M198.3 210.7h.01M168.9 98.6h.01M193.2 40.1h.01M183.2 384.8h.01M168.0 138.4h.01M76.3 151.3h.01M228.1 378.5h.01M144.3 283.7h.01M144.9 133.7h.01M187.4 96.9h.01M208.7 206.8h.01M128.9 267.5h.01M234.1 400.8h.01M196.5 397.3h.01M155.4 369.3h.01M207.9 201.9h.01M127.9 280.9h.01M148.4 406.3h.01M121.7 221.3h.01M79.4 172.1h.01M192.2 212.6h.01M117.5 150.3h.01M205.6 179.4h.01M198.0 198.1h.01M101.5 298.1h.01M133.6 376.1h.01M181.0 88.9h.01M126.1 76.2h.01M67.3 384.9h.01M159.8 52.5h.01M80.3 245.8h.01M98.6 252.6h.01M157.7 414.7h.01M94.7 312.5h.01M165.2 110.1h.01M177.7 94.0h.01M100.9 362.2h.01M144.1 289.5h.01M197.3 159.2h.01M174.6 179.3h.01M172.6 394.5h.01M204.1 397.2h.01M123.7 270.2h.01M80.4 405.2h.01M159.7 280.9h.01M204.7 173.7h.01M237.7 388.1h.01M207.2 219.9h.01M149.8 299.9h.01M187.0 215.0h.01M171.5 165.0h.01M101.9 414.8h.01M234.7 377.9h.01M202.3 215.8h.01M180.3 174.4h.01M174.1 134.1h.01M144.4 310.0h.01M211.5 166.5h.01M78.8 167.0h.01M204.4 198.0h.01M167.5 142.9h.01M123.1 203.4h.01M221.4 166.0h.01M142.1 277.4h.01M166.9 72.5h.01M84.4 139.6h.01M168.3 104.2h.01M149.3 292.9h.01M224.4 372.6h.01M139.1 321.6h.01M152.3 67.0h.01M191.4 402.1h.01M89.7 368.0h.01M192.7 139.2h.01M74.6 249.8h.01M182.4 113.4h.01M150.8 130.9h.01M179.0 396.4h.01M146.1 48.8h.01M209.0 182.9h.01"/>
<path stroke="#1a1a1a" stroke-width="2.94" stroke-linecap="round" fill="none" d="M208.9 151.8h.01M190.2 43.0h.01M178.1 220.3h.01M108.4 414.8h.01M176.3 277.3h.01M173.7 228.0h.01M116.0 155.5h.01M118.7 302.0h.01M188.6 37.8h.01M204.1 96.7h.01M171.0 121.9h.01M176.9 283.2h.01M182.1 293.9h.01M115.4 145.8h.01M134.0 348.5h.01M196.4 370.3h.01M160.9 257.6h.01M112.3 243.9h.01M111.5 270.0h.01M148.5 324.7h.01M115.2 386.5h.01M184.0 42.3h.01M172.7 280.6h.01M130.8 328.5h.01M154.5 311.4h.01M199.7 138.7h.01M111.0 394.3h.01M133.8 220.6h.01M211.1 242.7h.01M165.5 246.7h.01M114.7 367.3h.01M173.3 218.3h.01M105.1 377.9h.01M220.3 228.6h.01M145.8 229.0h.01M118.3 211.6h.01M100.9 381.2h.01M139.7 330.9h.01M178.6 54.9h.01M219.8 153.5h.01M122.3 263.9h.01M165.8 125.6h.01M132.2 262.3h.01M164.0 367.5h.01M201.9 276.7h.01M116.3 308.5h.01M188.5 285.8h.01M86.3 146.1h.01M253.2 392.8h.01M134.4 226.3h.01M186.8 290.2h.01M210.3 112.9h.01M140.7 198.3h.01M223.0 195.8h.01M104.4 156.9h.01M204.4 224.8h.01M202.3 90.9h.01M216.2 244.7h.01M118.0 371.0h.01M207.4 415.1h.01M182.7 284.8h.01M233.2 206.5h.01M215.6 382.1h.01M157.2 128.1h.01M185.0 261.2h.01M215.5 377.0h.01M188.2 63.1h.01M238.1 365.2h.01M222.4 240.6h.01M166.0 293.0h.01M166.5 162.6h.01M111.9 248.8h.01M180.7 280.3h.01M122.2 390.3h.01M170.9 145.6h.01M234.3 242.2h.01M232.1 237.2h.01M168.1 151.7h.01M255.3 387.1h.01M138.1 245.6h.01M208.8 93.8h.01M216.3 262.0h.01M217.0 220.5h.01M109.3 145.2h.01M209.2 258.2h.01M209.0 79.8h.01M121.1 228.1h.01M94.4 266.7h.01M213.3 149.2h.01M169.0 134.4h.01M195.8 223.5h.01M143.0 225.3h.01M194.6 258.2h.01M199.4 228.1h.01M316.8 182.8h.01M222.3 200.1h.01M231.0 169.0h.01M234.5 216.7h.01M212.2 196.8h.01M186.9 266.3h.01M124.4 395.1h.01M159.4 199.5h.01M211.8 83.9h.01M109.0 322.4h.01M205.8 139.3h.01M104.3 143.4h.01M143.2 170.5h.01M122.2 157.1h.01M173.0 140.8h.01M132.6 320.7h.01M204.1 235.0h.01M91.5 288.6h.01M190.1 126.8h.01M245.0 367.8h.01M192.0 269.4h.01M274.9 375.0h.01M83.5 277.7h.01M87.9 293.3h.01M166.7 53.0h.01M235.4 186.1h.01M139.2 221.4h.01M213.9 206.9h.01M155.1 41.1h.01M122.6 323.8h.01M206.3 155.7h.01M158.6 144.6h.01M165.8 302.8h.01M232.3 227.1h.01M106.5 166.1h.01M138.7 227.6h.01M116.9 314.3h.01M207.1 382.8h.01M159.1 45.9h.01M199.5 249.3h.01M205.8 85.8h.01M141.9 262.3h.01M142.4 315.8h.01M125.0 256.4h.01M159.1 137.2h.01M192.8 275.6h.01M218.8 256.3h.01M105.4 382.9h.01M122.4 235.0h.01M120.4 319.0h.01M92.2 408.9h.01M299.1 125.5h.01M113.9 319.0h.01M78.6 156.6h.01M236.6 210.9h.01M163.1 313.9h.01M126.3 387.2h.01M199.7 111.5h.01M108.4 259.2h.01M120.3 394.3h.01M228.3 195.4h.01M188.6 223.9h.01M159.4 332.2h.01M214.0 101.7h.01M164.1 263.4h.01M229.9 189.4h.01M170.4 267.2h.01M129.9 407.6h.01M167.0 168.1h.01M128.7 396.6h.01M160.7 302.3h.01M182.0 60.5h.01M258.6 383.7h.01M215.6 144.7h.01M124.6 328.3h.01M176.0 297.0h.01M132.4 256.5h.01M91.6 261.8h.01M220.8 244.9h.01M216.6 111.3h.01M86.6 406.1h.01M199.9 42.9h.01M240.5 220.1h.01M163.8 307.6h.01M171.3 237.1h.01M143.1 166.1h.01M210.2 142.2h.01M172.5 291.0h.01M109.6 253.6h.01M229.8 173.9h.01M255.6 372.6h.01M114.7 239.0h.01M106.5 139.5h.01M298.8 137.2h.01M170.6 170.4h.01M245.4 373.5h.01M111.8 310.6h.01M144.5 361.0h.01M135.6 232.6h.01M150.8 331.8h.01M222.1 260.0h.01M178.2 202.9h.01M151.6 212.8h.01M128.3 308.1h.01M109.2 389.5h.01M144.2 339.8h.01M174.5 44.7h.01M173.9 371.0h.01M145.7 330.1h.01M223.2 181.6h.01M109.5 385.4h.01M147.6 196.2h.01M115.6 264.6h.01M294.5 114.2h.01M305.6 243.5h.01M108.8 303.9h.01M240.8 369.5h.01M286.6 98.7h.01M126.5 414.3h.01M203.8 249.2h.01M205.0 113.4h.01M193.2 70.6h.01M292.3 108.7h.01M194.9 77.5h.01M104.3 255.3h.01M113.9 303.8h.01M113.6 390.9h.01M142.7 325.4h.01M314.1 303.1h.01M215.3 225.8h.01M217.6 195.0h.01M157.4 237.9h.01M225.9 166.1h.01M137.5 352.6h.01M318.1 190.3h.01M188.3 275.4h.01M130.4 402.0h.01M118.3 328.8h.01M167.1 240.6h.01M313.8 220.6h.01M158.9 308.9h.01M108.8 316.2h.01M219.8 235.8h.01M164.7 280.5h.01M218.0 199.9h.01M130.8 230.5h.01M187.8 58.0h.01M249.7 371.1h.01M140.0 191.9h.01M226.7 160.7h.01M232.8 195.4h.01M150.0 218.2h.01M148.2 337.1h.01M172.5 149.1h.01M171.4 295.6h.01M176.2 209.2h.01M150.0 230.9h.01M172.6 286.1h.01M141.3 182.9h.01M182.1 119.9h.01M225.4 191.9h.01M212.8 217.5h.01M115.9 380.5h.01M186.5 67.6h.01M101.8 308.9h.01M217.4 413.3h.01M226.0 150.6h.01M244.0 399.3h.01M207.6 214.9h.01M116.1 323.7h.01M209.3 234.1h.01M152.9 319.3h.01M161.1 39.1h.01M88.4 281.9h.01M237.3 228.4h.01M211.5 252.6h.01M185.8 151.7h.01M147.2 213.4h.01M131.5 337.2h.01M165.6 147.0h.01M227.7 179.1h.01M117.5 233.6h.01M175.8 197.5h.01M106.0 393.6h.01M127.0 391.8h.01M210.0 89.2h.01M170.5 182.6h.01M105.0 148.0h.01M211.3 211.5h.01M226.6 170.9h.01M137.7 201.5h.01M178.3 272.4h.01M126.4 319.3h.01M228.5 155.9h.01M222.2 205.6h.01M163.6 286.5h.01M168.6 283.2h.01M193.4 65.1h.01M195.2 253.0h.01M107.0 310.2h.01M230.0 163.8h.01M134.8 249.8h.01M147.9 247.0h.01M135.8 326.5h.01M234.6 406.1h.01M184.3 55.0h.01M149.4 242.4h.01M201.9 143.7h.01M235.2 232.3h.01M146.2 236.2h.01M221.8 222.5h.01M123.0 243.6h.01M170.1 215.7h.01M226.8 222.7h.01M224.0 215.9h.01M189.5 365.3h.01M202.0 371.9h.01M141.7 151.3h.01M219.5 372.5h.01M103.9 388.0h.01M145.1 191.3h.01M163.9 46.4h.01M209.2 99.4h.01M196.4 115.6h.01M170.2 176.5h.01M151.8 237.6h.01M143.6 186.9h.01M170.7 223.1h.01M82.7 152.0h.01M109.0 367.7h.01M154.7 232.0h.01M232.5 247.2h.01M122.6 250.1h.01M205.6 254.2h.01M200.5 256.2h.01M175.9 261.4h.01M209.4 228.9h.01M107.6 273.9h.01M97.5 262.4h.01M238.4 246.1h.01M250.9 376.5h.01M180.8 262.9h.01M122.8 384.9h.01M103.6 318.6h.01M236.7 237.1h.01M177.2 288.0h.01M90.2 362.8h.01M130.0 314.7h.01M191.1 281.3h.01M133.7 204.1h.01M162.5 159.1h.01M120.0 239.5h.01M130.0 224.4h.01M121.5 332.5h.01M156.1 329.2h.01M224.0 155.6h.01M100.0 393.6h.01M232.2 177.6h.01M127.7 261.0h.01M213.8 107.4h.01M124.1 313.5h.01M104.3 262.7h.01M187.2 72.4h.01M186.1 280.3h.01M139.5 162.2h.01M158.5 322.7h.01M206.1 145.1h.01M91.3 145.2h.01M195.2 148.7h.01M177.2 292.8h.01M155.0 133.5h.01M216.7 240.2h.01M185.3 271.5h.01M112.0 141.4h.01M182.6 222.6h.01M101.9 313.9h.01M76.1 262.5h.01M261.2 371.3h.01M149.4 313.9h.01M222.0 249.2h.01M117.9 245.9h.01M158.2 316.2h.01M176.1 267.2h.01M154.6 249.3h.01M170.5 188.7h.01M203.9 230.2h.01M221.5 144.3h.01M196.1 280.2h.01M113.1 383.2h.01M214.2 190.2h.01M254.1 367.2h.01M201.8 153.7h.01M190.6 262.3h.01M167.7 317.3h.01M220.6 190.5h.01M123.2 372.1h.01M162.6 153.7h.01M150.5 360.9h.01M204.2 79.9h.01M256.2 414.6h.01M143.9 242.7h.01M217.6 149.2h.01M213.5 236.6h.01M144.1 155.9h.01M196.0 44.8h.01M99.7 147.4h.01M117.3 391.0h.01M289.6 103.1h.01M128.6 251.5h.01M225.3 186.5h.01M115.8 252.4h.01M98.5 409.6h.01M269.8 80.3h.01M155.4 214.7h.01M303.3 146.5h.01M211.3 157.5h.01M193.4 59.7h.01M115.2 376.0h.01M104.5 410.0h.01M217.3 251.6h.01M183.3 50.5h.01M172.5 272.8h.01M73.5 387.1h.01M235.9 222.2h.01M249.4 366.2h.01M297.2 130.3h.01M119.4 386.9h.01M192.0 290.1h.01M308.4 229.2h.01M213.9 153.7h.01M316.8 271.5h.01M153.8 138.2h.01M127.1 368.3h.01M180.5 208.2h.01M113.7 258.3h.01M141.6 231.7h.01M195.5 264.7h.01M133.3 208.9h.01M110.2 380.2h.01M124.9 336.0h.01M208.8 247.7h.01M228.7 368.1h.01M262.2 378.8h.01M215.1 231.4h.01M311.1 309.8h.01M156.6 362.6h.01M317.3 284.8h.01M119.0 382.5h.01M101.9 273.8h.01M228.6 217.4h.01M302.2 240.6h.01M213.3 202.0h.01M205.0 267.4h.01M180.7 214.1h.01M75.0 393.9h.01M260.6 375.3h.01M123.8 215.9h.01M314.8 297.0h.01M198.0 134.0h.01M146.9 142.7h.01M275.7 85.7h.01M168.6 276.8h.01M155.4 335.1h.01M142.4 212.2h.01M82.0 282.9h.01M172.0 211.9h.01M178.6 373.4h.01M127.3 207.1h.01M302.3 132.8h.01M98.7 387.7h.01M127.2 340.7h.01M116.2 395.9h.01M139.7 240.4h.01M110.9 156.8h.01M177.0 148.9h.01M226.5 227.9h.01M176.2 123.1h.01M87.8 275.5h.01M230.3 183.6h.01M166.0 40.8h.01M201.1 221.2h.01M213.9 257.7h.01M97.1 272.1h.01M214.0 248.0h.01M226.2 245.9h.01M204.5 107.9h.01M84.8 288.3h.01M96.1 143.2h.01M217.3 157.4h.01M186.9 219.8h.01M143.2 335.0h.01M168.1 288.4h.01M165.8 298.0h.01M119.9 255.7h.01M160.6 233.1h.01M139.7 340.5h.01M146.1 180.9h.01M194.2 228.1h.01M239.9 234.4h.01M210.4 264.3h.01M316.1 290.4h.01M222.0 148.7h.01M197.5 273.9h.01M145.5 220.4h.01M148.8 42.4h.01M78.9 161.9h.01M209.1 105.9h.01M228.8 250.6h.01M204.4 243.9h.01M153.3 325.5h.01M200.3 262.4h.01M93.1 277.3h.01M231.3 221.8h.01M199.5 269.0h.01M155.0 143.8h.01M134.5 332.5h.01M199.1 73.7h.01M197.1 153.6h.01M90.7 164.7h.01M190.2 76.8h.01M304.9 253.7h.01M143.6 195.9h.01M214.4 95.6h.01M202.0 117.7h.01M174.7 223.1h.01M134.8 341.4h.01M157.9 140.6h.01M88.6 151.7h.01M199.9 84.2h.01M219.0 215.4h.01M130.2 344.6h.01M169.3 47.0h.01M163.2 138.7h.01M160.6 246.6h.01M203.3 71.1h.01M206.1 46.2h.01M303.1 140.3h.01M313.8 261.3h.01M182.5 275.8h.01M124.1 304.8h.01M168.5 370.5h.01M212.3 386.9h.01M191.1 151.2h.01M215.8 211.6h.01M154.9 243.6h.01M91.3 302.3h.01M226.5 237.1h.01M218.3 205.1h.01M307.2 248.8h.01M225.0 210.6h.01M229.6 232.4h.01M106.5 372.4h.01M210.0 146.8h.01M206.1 376.4h.01M174.6 50.6h.01M179.9 46.8h.01M205.9 74.7h.01M106.0 364.6h.01M171.2 40.7h.01M105.8 268.6h.01M199.6 79.0h.01M128.3 332.5h.01M109.9 376.2h.01M159.7 147.6h.01M256.1 378.7h.01M181.5 268.2h.01M127.5 219.7h.01M194.8 365.3h.01M231.6 158.9h.01M151.4 142.8h.01M219.1 185.7h.01M162.6 149.9h.01M100.6 141.2h.01M176.4 214.4h.01M220.1 209.9h.01M181.8 289.1h.01M160.0 365.8h.01M128.7 324.2h.01M170.4 261.3h.01M231.0 212.7h.01M120.9 308.9h.01M100.7 258.7h.01M161.8 240.9h.01M96.2 169.7h.01M93.2 393.4h.01M182.3 218.1h.01M117.2 160.4h.01M234.0 368.5h.01"/>
<path stroke="#1a1a1a" stroke-width="3.45" stroke-linecap="round" fill="none" d="M240.3 166.9h.01M254.2 158.0h.01M297.9 242.2h.01M292.1 330.2h.01M116.6 411.0h.01M152.9 148.0h.01M169.6 244.6h.01M227.3 278.4h.01M283.0 121.9h.01M248.6 352.0h.01M250.1 356.8h.01M247.8 202.9h.01M290.4 272.8h.01M211.8 119.6h.01M147.1 208.5h.01M270.4 97.6h.01M264.1 358.1h.01M291.0 287.0h.01M228.0 109.0h.01M188.7 120.7h.01M232.3 130.3h.01M251.6 362.2h.01M311.8 198.5h.01M236.5 357.7h.01M243.5 182.0h.01M282.3 318.9h.01M103.3 405.5h.01M228.8 297.0h.01M306.9 190.7h.01M242.4 248.7h.01M231.9 122.4h.01M255.6 113.6h.01M242.0 212.2h.01M290.0 147.1h.01M291.9 262.2h.01M147.9 165.3h.01M124.0 409.4h.01M172.7 313.9h.01M109.9 264.4h.01M187.0 294.5h.01M196.6 143.9h.01M210.7 270.4h.01M231.3 269.3h.01M281.1 130.3h.01M228.3 103.9h.01M301.3 246.2h.01M119.9 375.7h.01M214.8 72.4h.01M306.5 156.7h.01M164.1 134.3h.01M235.4 57.1h.01M246.6 179.6h.01M232.4 254.8h.01M253.0 137.2h.01M218.8 69.5h.01M294.3 333.5h.01M262.0 402.2h.01M156.5 189.3h.01M260.8 176.8h.01M223.1 110.1h.01M294.0 133.2h.01M229.4 282.4h.01M231.4 289.6h.01M163.6 181.5h.01M222.9 125.7h.01M281.9 98.8h.01M285.1 343.3h.01M295.2 253.6h.01M148.2 184.0h.01M226.5 91.5h.01M180.3 320.2h.01M289.5 173.9h.01M230.6 89.6h.01M301.2 218.2h.01M242.4 363.2h.01M278.6 97.4h.01M248.2 324.9h.01M240.7 293.5h.01M227.8 134.8h.01M291.2 253.6h.01M298.8 316.5h.01M194.8 285.6h.01M81.9 394.5h.01M284.1 329.6h.01M283.5 306.6h.01M158.0 222.9h.01M249.9 198.5h.01M246.2 347.8h.01M239.7 202.0h.01M189.6 252.9h.01M307.0 307.4h.01M193.1 119.3h.01M181.0 307.8h.01M155.8 342.2h.01M223.6 97.1h.01M210.3 133.9h.01M246.5 229.5h.01M251.5 223.8h.01M277.8 153.9h.01M251.0 111.2h.01M216.9 64.9h.01M278.9 109.2h.01M266.3 134.1h.01M297.7 252.1h.01M227.3 113.8h.01M223.9 104.4h.01M256.4 143.8h.01M265.9 373.6h.01M272.0 84.0h.01M303.3 227.0h.01M275.5 320.7h.01M283.4 323.1h.01M234.9 173.4h.01M192.6 302.6h.01M164.1 210.0h.01M312.9 183.5h.01M226.0 51.7h.01M169.0 208.1h.01M174.6 255.8h.01M300.2 222.8h.01M142.7 257.8h.01M231.6 359.9h.01M277.9 338.0h.01M220.8 283.4h.01M169.3 199.4h.01M246.5 241.9h.01M277.4 349.2h.01M190.6 306.8h.01M204.0 66.9h.01M159.1 205.2h.01M255.5 132.1h.01M314.5 191.7h.01M264.5 367.5h.01M261.8 162.7h.01M273.7 362.0h.01M272.7 354.8h.01M239.1 240.9h.01M142.9 344.3h.01M278.6 342.5h.01M257.5 179.2h.01M265.3 77.2h.01M178.6 311.7h.01M265.7 81.6h.01M186.2 298.4h.01M250.3 155.4h.01M318.0 278.1h.01M221.1 80.0h.01M163.5 321.0h.01M196.5 302.3h.01M265.5 113.9h.01M295.0 273.0h.01M295.0 322.3h.01M315.2 187.2h.01M269.0 117.0h.01M289.6 282.9h.01M148.8 168.7h.01M270.4 133.9h.01M303.7 231.6h.01M249.3 163.1h.01M277.5 331.1h.01M290.1 129.6h.01M124.3 210.9h.01M158.5 339.9h.01M125.9 382.0h.01M261.0 146.0h.01M228.2 363.5h.01M145.0 177.7h.01M147.8 343.2h.01M295.0 297.6h.01M300.0 262.2h.01M149.0 188.0h.01M243.0 244.1h.01M167.6 211.6h.01M226.8 86.0h.01M269.3 111.9h.01M164.0 171.6h.01M237.6 163.9h.01M142.6 354.3h.01M166.0 330.5h.01M195.4 298.6h.01M144.3 160.9h.01M247.3 114.0h.01M219.2 106.3h.01M271.6 88.5h.01M213.2 279.8h.01M236.1 169.1h.01M278.7 319.3h.01M235.4 284.6h.01M294.1 309.1h.01M237.7 206.0h.01M203.9 62.2h.01M247.2 141.5h.01M256.5 165.7h.01M168.9 231.9h.01M178.8 226.1h.01M288.8 179.7h.01M236.6 143.3h.01M259.3 132.0h.01M298.4 143.1h.01M232.0 260.0h.01M247.1 109.2h.01M291.2 337.0h.01M246.9 196.4h.01M95.8 163.6h.01M243.3 336.0h.01M283.6 180.6h.01M194.6 235.8h.01M276.1 163.3h.01M227.1 255.2h.01M129.7 379.6h.01M281.7 157.3h.01M211.0 375.3h.01M185.9 229.6h.01M142.0 248.5h.01M230.1 117.9h.01M283.0 107.1h.01M160.2 336.8h.01M211.5 49.3h.01M246.3 359.2h.01M274.1 124.8h.01M253.2 116.2h.01M254.3 168.2h.01M241.8 144.6h.01M282.8 112.2h.01M246.0 176.5h.01M101.3 161.1h.01M283.0 117.0h.01M305.9 217.7h.01M223.0 121.3h.01M173.8 233.4h.01M237.1 115.5h.01M170.2 300.7h.01M276.2 94.5h.01M281.8 185.7h.01M205.2 261.0h.01M308.5 295.3h.01M257.5 336.9h.01M308.8 213.0h.01M280.0 327.6h.01M310.4 224.2h.01M258.2 390.9h.01M163.6 206.6h.01M299.3 231.0h.01M154.0 220.0h.01M291.9 294.8h.01M182.0 148.9h.01M166.9 173.8h.01M256.9 321.3h.01M164.6 196.8h.01M285.2 132.1h.01M264.0 121.5h.01M271.9 140.5h.01M300.3 270.3h.01M238.5 183.0h.01M177.9 40.9h.01M252.3 141.6h.01M114.0 399.0h.01M216.5 367.9h.01M198.7 62.1h.01M237.1 100.0h.01M125.3 400.2h.01M288.9 328.1h.01M174.6 128.9h.01M304.1 152.3h.01M242.3 357.2h.01M151.5 208.4h.01M293.1 176.7h.01M268.3 138.0h.01M254.4 355.1h.01M254.6 108.9h.01M273.1 120.4h.01M215.0 51.7h.01M280.3 136.1h.01M296.7 156.6h.01M249.7 240.2h.01M267.9 129.9h.01M246.0 169.0h.01M268.5 334.8h.01M239.2 253.4h.01M149.9 193.0h.01M217.1 83.6h.01M274.8 365.4h.01M238.3 131.2h.01M293.5 142.0h.01M268.9 357.6h.01M184.7 362.0h.01M251.5 132.2h.01M142.2 208.0h.01M190.2 227.2h.01M265.5 158.3h.01M143.6 174.3h.01M259.0 118.5h.01M259.5 409.9h.01M157.6 172.9h.01M201.5 54.1h.01M227.6 144.2h.01M271.1 92.1h.01M219.5 100.6h.01M281.2 333.7h.01M244.2 253.0h.01M268.0 353.5h.01M287.0 106.2h.01M310.4 257.9h.01M261.6 127.7h.01M264.9 167.9h.01M240.7 178.8h.01M132.7 396.8h.01M213.3 415.4h.01M202.0 239.6h.01M153.0 198.2h.01M242.7 174.6h.01M291.5 184.9h.01M108.9 398.2h.01M291.2 169.9h.01M166.6 325.9h.01M153.5 225.5h.01M232.5 264.9h.01M280.5 357.3h.01M160.9 163.8h.01M215.5 267.7h.01M207.7 49.7h.01M225.8 139.9h.01M309.6 253.9h.01M265.5 394.8h.01M314.2 214.0h.01M235.2 272.2h.01M246.6 363.4h.01M188.5 303.0h.01M311.8 167.3h.01M275.2 344.8h.01M262.8 347.9h.01M274.5 328.0h.01M117.6 402.6h.01M199.2 363.5h.01M296.2 238.3h.01M313.4 282.7h.01M246.3 332.7h.01M194.1 125.3h.01M296.2 234.8h.01M210.7 380.1h.01M120.1 206.9h.01M243.4 89.5h.01M246.1 172.3h.01M258.9 367.2h.01M107.4 160.9h.01M243.4 202.8h.01M90.5 402.5h.01M252.9 322.1h.01M214.9 78.6h.01M175.0 300.8h.01M267.2 378.2h.01M174.3 308.9h.01M263.1 343.2h.01M263.8 117.4h.01M231.1 200.1h.01M288.4 257.1h.01M120.7 399.0h.01M166.6 185.5h.01M239.2 135.8h.01M186.6 46.5h.01M171.6 366.0h.01M288.6 291.0h.01M229.7 95.0h.01M210.9 74.9h.01M184.1 311.4h.01M196.8 290.1h.01M235.8 276.5h.01M203.7 367.9h.01M171.0 126.7h.01M251.2 211.2h.01M152.7 190.1h.01M215.0 89.4h.01M292.4 125.1h.01M164.4 229.3h.01M152.1 414.7h.01M148.9 153.1h.01M227.4 121.6h.01M252.9 171.6h.01M160.5 193.3h.01M179.6 257.3h.01M224.8 117.0h.01M200.7 281.2h.01M192.5 360.6h.01M294.2 303.3h.01M288.0 298.5h.01M310.2 288.5h.01M204.7 149.5h.01M247.5 225.6h.01M222.7 276.9h.01M122.0 379.7h.01M175.9 365.6h.01M169.2 322.0h.01M235.2 180.5h.01M286.8 302.8h.01M235.5 297.0h.01M234.4 190.4h.01M239.5 85.9h.01M262.6 100.2h.01M237.0 111.7h.01M240.4 108.8h.01M250.9 236.9h.01M237.5 104.5h.01M252.5 411.6h.01M293.3 267.8h.01M299.5 167.8h.01M267.3 339.3h.01M191.3 317.1h.01M232.1 113.8h.01M274.8 358.3h.01M249.5 174.0h.01M221.7 55.0h.01M248.3 137.0h.01M299.6 313.3h.01M247.5 94.5h.01M239.9 153.8h.01M83.8 400.0h.01M289.6 306.6h.01M148.8 172.7h.01M243.0 239.0h.01M291.2 300.5h.01M255.6 409.3h.01M272.6 94.6h.01M177.0 239.5h.01M238.0 176.0h.01M246.9 414.8h.01M255.4 147.9h.01M219.4 117.9h.01M239.4 215.7h.01M294.1 137.7h.01M299.8 250.3h.01M245.1 118.8h.01M260.2 123.3h.01M305.8 187.2h.01M220.6 50.1h.01M247.5 233.5h.01M184.0 226.2h.01M233.0 98.7h.01M290.9 312.5h.01M263.1 352.9h.01M261.6 172.0h.01M303.5 308.7h.01M274.1 103.1h.01M247.2 132.5h.01M114.5 415.1h.01M197.0 294.8h.01M308.9 184.7h.01M216.6 136.1h.01M222.3 85.2h.01M245.1 192.9h.01M297.2 329.4h.01M234.9 288.7h.01M221.4 134.0h.01M191.1 231.9h.01M222.7 137.0h.01M162.9 221.4h.01M258.1 351.9h.01M167.8 364.8h.01M245.3 354.0h.01M271.3 330.9h.01M141.9 349.2h.01M257.1 161.0h.01M234.6 119.3h.01M235.5 125.4h.01M181.5 230.4h.01M96.1 404.4h.01M193.6 309.6h.01M230.5 294.1h.01M294.9 165.1h.01M255.6 343.3h.01M279.4 167.1h.01M217.9 279.3h.01M245.5 145.4h.01M191.6 145.3h.01M240.5 224.8h.01M235.2 201.4h.01M311.9 292.6h.01M288.8 121.0h.01M177.4 304.7h.01M258.3 156.1h.01M236.1 107.8h.01M286.1 317.7h.01M219.7 140.2h.01M305.5 222.8h.01M192.1 294.6h.01M262.3 154.3h.01M304.4 262.3h.01M158.0 155.1h.01M100.7 166.1h.01M211.2 137.9h.01M189.0 51.1h.01M281.9 171.8h.01M167.8 256.2h.01M274.0 133.5h.01M159.2 211.1h.01M239.7 127.1h.01M298.9 148.2h.01M242.0 415.6h.01M156.9 150.3h.01M217.7 122.2h.01M243.7 135.1h.01M241.8 123.0h.01M263.2 363.0h.01M281.4 310.1h.01M253.5 346.3h.01M261.4 158.6h.01M172.1 325.2h.01M169.2 227.4h.01M155.4 208.4h.01M185.3 124.7h.01M252.5 327.5h.01M275.0 107.2h.01M284.7 141.0h.01M296.2 246.4h.01M159.5 177.5h.01M235.3 155.0h.01M242.0 351.5h.01M259.6 141.1h.01M298.1 267.1h.01M253.5 163.0h.01M224.0 366.7h.01M245.6 206.4h.01M282.5 339.3h.01M245.0 63.0h.01M244.8 222.8h.01M100.5 402.2h.01M194.9 50.0h.01M258.1 347.2h.01M253.0 350.8h.01M239.5 273.0h.01M263.9 150.1h.01M231.5 139.0h.01M240.2 189.9h.01M147.7 148.3h.01M237.4 257.4h.01M228.8 204.2h.01M273.8 151.9h.01M263.5 131.1h.01M237.2 193.1h.01M310.8 189.0h.01M226.5 265.4h.01M279.2 104.3h.01M233.9 165.1h.01M275.6 143.6h.01M222.6 91.7h.01M197.5 308.5h.01M180.6 324.8h.01M192.7 313.5h.01M152.5 185.2h.01M163.6 333.8h.01M261.0 183.4h.01M259.7 405.3h.01M168.4 220.0h.01M259.2 341.3h.01M152.7 338.0h.01M281.0 162.6h.01M247.2 184.3h.01M235.1 150.0h.01M176.0 322.7h.01M162.2 217.4h.01M257.7 169.7h.01M290.4 163.6h.01M177.6 316.2h.01M199.8 285.6h.01M188.8 257.8h.01M232.2 310.7h.01M257.0 174.0h.01M272.1 341.4h.01M249.8 67.0h.01M163.8 361.8h.01M206.5 370.9h.01M273.8 111.2h.01M179.9 126.3h.01M279.5 323.5h.01M241.3 265.2h.01M207.7 239.3h.01M214.9 116.3h.01M286.1 310.0h.01M187.2 147.5h.01M250.9 124.6h.01M190.9 298.8h.01M222.9 288.1h.01M251.4 166.6h.01M287.7 269.8h.01M150.1 176.7h.01M293.1 151.1h.01M230.5 55.3h.01M275.2 324.5h.01M240.3 149.7h.01M173.0 247.3h.01M283.0 94.7h.01M222.8 270.5h.01M232.4 109.1h.01M203.0 49.9h.01M137.8 209.1h.01M112.9 327.7h.01M314.4 177.7h.01M195.6 54.5h.01M225.5 80.3h.01M303.5 313.0h.01M249.9 179.5h.01M277.1 353.8h.01M215.1 140.3h.01M158.5 218.0h.01M164.1 202.0h.01M242.9 139.8h.01M195.0 248.6h.01M130.1 384.9h.01M251.2 415.4h.01M286.8 185.6h.01M288.8 340.9h.01M231.0 275.2h.01M253.9 104.0h.01M304.8 298.6h.01M180.4 298.5h.01M119.3 407.3h.01M237.2 281.5h.01M147.2 351.5h.01M307.5 311.6h.01M182.2 239.0h.01M279.1 92.9h.01M254.7 99.9h.01M198.9 244.1h.01M170.6 194.6h.01M199.3 234.2h.01M301.0 157.8h.01M184.7 301.9h.01M237.5 197.7h.01M165.3 235.6h.01M310.5 305.1h.01M242.5 112.2h.01M252.3 120.8h.01M103.4 397.9h.01M243.5 233.8h.01M258.4 100.1h.01M237.1 95.1h.01M155.7 194.4h.01M130.5 390.2h.01M239.0 354.6h.01M169.0 306.3h.01M241.8 163.1h.01M289.2 139.5h.01M288.9 260.8h.01M251.8 96.2h.01M251.3 233.6h.01M295.7 169.6h.01M272.4 350.1h.01M271.5 321.9h.01M161.8 225.3h.01M285.3 126.6h.01M268.9 369.4h.01M295.1 173.3h.01M269.5 158.7h.01M249.1 330.1h.01M304.8 211.7h.01M259.5 357.1h.01M163.3 167.0h.01M231.8 285.2h.01M184.5 367.0h.01M90.7 169.8h.01M110.7 410.5h.01M273.9 137.1h.01M267.2 349.1h.01M275.9 89.8h.01M147.5 356.2h.01M120.6 414.7h.01M202.7 58.1h.01M294.9 313.9h.01M290.8 317.9h.01M267.9 85.2h.01M313.3 275.9h.01M266.7 93.8h.01M285.6 336.0h.01M197.9 238.9h.01M290.8 323.5h.01M294.6 257.8h.01M251.5 150.8h.01M313.0 172.7h.01M183.1 315.9h.01M292.7 242.2h.01M243.6 129.2h.01M238.7 120.1h.01M295.1 318.7h.01M303.2 250.5h.01M168.3 130.4h.01M271.1 384.6h.01M246.9 122.9h.01M248.4 188.9h.01M309.7 160.6h.01M312.5 204.1h.01M162.6 129.5h.01M123.7 404.2h.01M220.7 113.9h.01M288.8 116.1h.01M202.9 296.4h.01M244.5 188.9h.01M173.0 202.3h.01M246.0 165.5h.01M198.3 57.2h.01M181.1 303.1h.01M207.2 119.5h.01M244.1 154.6h.01M166.3 224.1h.01M296.8 160.6h.01M245.1 161.3h.01M294.1 326.4h.01M310.7 217.8h.01M179.6 368.4h.01M287.5 111.2h.01M271.1 345.9h.01M300.0 256.8h.01M296.3 119.9h.01M275.9 147.7h.01M293.0 290.7h.01M232.8 364.3h.01M140.4 204.4h.01M269.9 126.2h.01M188.3 319.9h.01M284.0 314.3h.01M239.8 60.1h.01M218.3 273.1h.01M241.9 207.4h.01M249.8 215.3h.01M230.6 148.1h.01M208.4 64.9h.01M249.3 169.1h.01M289.2 276.8h.01M206.1 293.9h.01M112.4 162.6h.01M315.4 200.7h.01M241.2 347.8h.01M272.7 129.8h.01M164.3 338.9h.01M270.8 372.7h.01M255.1 153.0h.01M176.4 144.6h.01M262.9 337.2h.01M301.7 305.4h.01M278.7 361.6h.01M154.6 358.4h.01M209.0 276.8h.01M286.1 153.3h.01M233.6 293.1h.01M146.6 347.3h.01M282.1 152.2h.01M289.6 265.7h.01M268.7 361.5h.01M277.9 119.6h.01M247.7 151.6h.01M300.0 163.3h.01M250.2 146.1h.01M213.6 274.8h.01M308.6 175.9h.01M303.4 322.2h.01M276.9 128.9h.01M243.0 169.0h.01M305.1 257.8h.01M274.6 334.2h.01M286.2 325.3h.01M184.4 255.4h.01M158.3 228.2h.01M173.1 318.8h.01M224.9 204.3h.01M159.6 133.1h.01M219.5 366.7h.01M232.8 144.1h.01M193.9 245.1h.01M171.0 329.2h.01M238.1 146.8h.01M209.3 70.0h.01M265.3 163.2h.01M242.2 229.2h.01M288.2 245.0h.01M239.0 90.9h.01M257.9 362.5h.01M264.0 179.8h.01M285.5 348.0h.01M268.7 121.8h.01M235.7 160.1h.01M278.1 114.1h.01M147.6 411.1h.01M273.1 338.0h.01M149.0 157.5h.01M204.3 134.3h.01M315.2 266.4h.01M109.0 406.0h.01M163.3 177.0h.01M232.9 103.9h.01M287.5 313.9h.01M200.8 292.4h.01M249.8 219.8h.01M282.2 352.4h.01M227.1 291.3h.01M215.4 372.6h.01M219.1 75.2h.01M242.9 198.3h.01M237.7 139.9h.01M229.0 125.9h.01M260.5 73.9h.01M161.0 172.8h.01M199.5 299.0h.01M136.6 260.0h.01M288.5 143.4h.01M227.6 287.4h.01M223.3 253.4h.01M227.0 260.0h.01M168.2 311.3h.01M311.4 208.9h.01M205.2 273.1h.01M263.5 382.4h.01M197.9 121.6h.01M219.6 88.8h.01M173.0 206.5h.01M246.2 211.4h.01M148.5 161.5h.01M300.2 153.2h.01M277.6 101.0h.01M194.9 305.8h.01M241.6 185.9h.01M202.7 289.0h.01M137.5 336.3h.01M187.1 142.7h.01M250.1 159.6h.01M249.3 118.1h.01M220.6 266.0h.01M134.0 382.7h.01M244.4 101.8h.01M183.3 327.8h.01M229.0 208.7h.01M261.2 79.2h.01M257.6 137.1h.01M233.1 280.0h.01M246.6 237.4h.01M198.8 67.4h.01M253.1 176.2h.01M235.4 361.1h.01M289.3 135.0h.01M169.0 333.0h.01M268.6 142.9h.01M239.9 171.7h.01M180.9 243.0h.01M137.9 345.8h.01M165.4 218.2h.01M287.7 321.1h.01M237.3 292.4h.01M267.6 343.8h.01M209.5 372.2h.01M223.1 70.8h.01M274.4 98.4h.01M292.8 248.7h.01M231.8 299.0h.01M314.4 195.3h.01M213.2 370.1h.01M306.0 303.0h.01M200.2 367.0h.01M262.2 136.0h.01M300.9 235.9h.01M200.7 47.0h.01M288.1 250.1h.01M264.1 140.6h.01M167.2 336.4h.01M226.5 199.8h.01M299.1 309.6h.01M160.6 358.6h.01M243.8 106.9h.01M168.1 204.1h.01M162.2 213.8h.01M289.2 166.6h.01M198.0 128.3h.01M262.9 91.8h.01M161.5 327.5h.01M240.8 103.7h.01M281.0 346.4h.01M289.7 202.1h.01M215.9 47.6h.01M240.1 158.7h.01M237.3 267.6h.01M227.1 272.0h.01M182.2 143.6h.01M262.6 105.1h.01M185.9 306.9h.01M262.2 111.7h.01M283.6 102.4h.01M253.7 127.0h.01M296.0 219.5h.01M237.4 261.7h.01M200.0 148.5h.01M278.2 316.1h.01M151.3 342.3h.01M179.0 235.1h.01M205.6 280.2h.01M240.4 96.4h.01M310.1 299.7h.01M173.1 304.9h.01M166.9 179.4h.01M239.7 360.5h.01M227.7 99.4h.01M293.0 278.5h.01M236.0 250.6h.01M173.1 241.7h.01M257.4 127.1h.01M295.6 262.5h.01M191.3 54.6h.01M218.8 94.6h.01M255.0 359.5h.01M166.2 214.6h.01M266.9 154.2h.01M281.1 314.6h.01M241.2 194.9h.01M269.5 365.5h.01M151.1 180.7h.01M244.7 149.6h.01M271.3 146.8h.01M194.0 241.1h.01M268.7 162.4h.01M234.4 134.9h.01M241.8 116.3h.01M225.4 283.3h.01M246.2 200.2h.01M292.7 160.6h.01M230.8 152.7h.01M294.7 146.9h.01M271.2 376.5h.01M288.4 332.9h.01M206.4 287.6h.01M202.9 128.3h.01M191.8 47.3h.01M148.8 224.4h.01M204.9 284.3h.01M299.9 320.3h.01M250.1 347.5h.01M195.9 231.8h.01M240.0 284.0h.01M245.0 217.5h.01M177.4 230.8h.01"/>
<path stroke="#1a1a1a" stroke-width="3.86" stroke-linecap="round" fill="none" d="M206.7 323.9h.01M229.7 356.2h.01M240.6 341.2h.01M197.1 332.1h.01M287.6 228.4h.01M191.0 236.8h.01M273.1 199.1h.01M253.2 339.5h.01M304.0 161.0h.01M180.5 362.9h.01M248.0 245.7h.01M281.1 284.7h.01M180.7 252.1h.01M307.0 194.0h.01M255.5 268.4h.01M297.3 182.2h.01M274.5 219.0h.01M284.6 291.2h.01M262.6 391.8h.01M277.3 262.0h.01M254.5 253.5h.01M214.9 284.5h.01M274.1 260.6h.01M301.0 212.8h.01M223.4 66.4h.01M276.9 227.7h.01M221.2 59.4h.01M259.1 198.6h.01M265.4 108.6h.01M217.9 288.0h.01M265.3 216.0h.01M188.6 360.1h.01M195.5 316.7h.01M230.6 338.6h.01M257.1 244.6h.01M249.7 193.6h.01M278.0 188.9h.01M264.0 188.1h.01M201.6 360.7h.01M271.0 245.2h.01M203.6 336.2h.01M239.5 308.2h.01M252.4 280.8h.01M114.0 406.5h.01M302.2 204.9h.01M239.2 77.6h.01M181.0 347.0h.01M305.1 286.4h.01M154.9 175.9h.01M209.9 282.3h.01M233.4 79.8h.01M266.9 322.7h.01M227.5 336.8h.01M208.4 311.6h.01M176.2 361.9h.01M265.9 295.3h.01M189.7 336.3h.01M238.6 288.4h.01M258.8 273.3h.01M170.5 351.0h.01M240.0 73.7h.01M263.1 277.1h.01M220.7 331.5h.01M206.5 353.0h.01M203.3 332.9h.01M241.9 323.3h.01M310.1 266.2h.01M244.4 97.1h.01M230.1 342.3h.01M223.5 334.7h.01M169.1 355.8h.01M206.8 366.7h.01M216.9 60.2h.01M309.2 200.7h.01M301.9 288.3h.01M246.2 264.0h.01M221.6 319.3h.01M243.6 344.4h.01M242.4 275.7h.01M267.9 198.4h.01M264.4 304.6h.01M242.9 309.8h.01M178.2 340.5h.01M257.1 77.3h.01M260.1 317.4h.01M174.4 332.3h.01M264.0 308.5h.01M178.0 348.0h.01M297.0 205.0h.01M197.7 319.3h.01M272.4 318.1h.01M287.8 210.2h.01M238.4 64.1h.01M268.6 253.6h.01M256.5 201.3h.01M241.4 317.7h.01M274.5 223.6h.01M230.3 317.5h.01M281.4 144.7h.01M194.6 325.1h.01M229.2 81.2h.01M269.0 177.0h.01M202.1 308.0h.01M253.3 206.9h.01M221.3 354.0h.01M256.0 248.6h.01M186.7 329.8h.01M220.7 358.5h.01M251.3 407.7h.01M139.5 406.4h.01M155.1 179.3h.01M210.5 362.1h.01M197.3 343.6h.01M278.1 305.4h.01M233.9 348.8h.01M284.2 297.9h.01M265.4 125.7h.01M211.6 318.9h.01M135.4 404.0h.01M232.9 331.9h.01M274.2 167.7h.01M210.8 344.5h.01M202.4 323.3h.01M270.2 308.8h.01M97.6 398.5h.01M236.0 309.9h.01M253.8 313.3h.01M261.8 259.8h.01M213.2 67.2h.01M263.7 87.2h.01M226.5 316.7h.01M256.6 304.1h.01M253.6 333.3h.01M266.2 276.5h.01M277.7 296.5h.01M151.2 204.8h.01M256.0 316.1h.01M233.3 344.3h.01M214.5 326.5h.01M214.8 352.8h.01M273.4 264.6h.01M250.6 291.4h.01M255.0 295.2h.01M186.3 237.9h.01M265.2 230.5h.01M255.4 223.4h.01M277.8 250.2h.01M212.5 303.3h.01M270.1 325.8h.01M193.6 340.8h.01M309.0 284.5h.01M274.7 157.5h.01M254.6 233.1h.01M185.5 249.5h.01M252.7 398.1h.01M298.2 215.3h.01M271.7 380.5h.01M222.5 316.4h.01M287.3 218.3h.01M280.6 235.4h.01M279.3 125.0h.01M198.5 50.8h.01M264.7 226.5h.01M262.4 274.7h.01M270.5 292.7h.01M191.0 325.6h.01M256.2 396.3h.01M138.7 396.0h.01M272.2 273.2h.01M256.7 310.8h.01M253.1 298.6h.01M181.4 349.9h.01M226.1 294.8h.01M87.4 392.2h.01M217.2 338.2h.01M251.6 249.8h.01M216.6 349.4h.01M283.3 272.1h.01M183.0 355.5h.01M229.0 313.4h.01M252.8 199.5h.01M111.8 402.2h.01M230.9 307.2h.01M249.3 313.0h.01M192.5 353.8h.01M285.5 169.3h.01M269.4 166.8h.01M251.2 242.8h.01M288.9 233.4h.01M242.4 269.6h.01M200.6 356.9h.01M158.3 354.9h.01M226.0 319.9h.01M187.5 233.4h.01M247.2 401.8h.01M238.1 69.6h.01M213.1 124.4h.01M247.2 89.9h.01M264.9 264.1h.01M279.2 267.5h.01M186.7 334.5h.01M269.8 264.3h.01M168.8 339.8h.01M226.3 310.2h.01M263.3 196.6h.01M215.3 297.3h.01M252.3 257.4h.01M250.6 100.9h.01M218.2 341.3h.01M203.8 349.2h.01M261.9 83.4h.01M291.5 218.7h.01M245.8 316.5h.01M274.0 175.3h.01M176.4 327.8h.01M295.5 223.3h.01M264.0 288.5h.01M229.6 76.1h.01M284.2 226.7h.01M256.0 183.5h.01M292.3 207.0h.01M270.4 101.9h.01M303.5 275.9h.01M293.3 226.4h.01M237.5 314.6h.01M232.4 415.2h.01M256.1 121.7h.01M292.3 198.2h.01M215.7 319.9h.01M251.3 317.0h.01M305.3 180.0h.01M270.0 283.0h.01M247.7 302.1h.01M205.7 320.1h.01M267.4 172.0h.01M255.9 283.1h.01M280.3 206.0h.01M216.0 303.5h.01M258.6 90.9h.01M139.6 412.2h.01M248.3 410.2h.01M168.5 250.6h.01M256.3 271.1h.01M162.7 188.9h.01M250.7 87.5h.01M280.3 140.7h.01M153.6 153.1h.01M250.8 283.6h.01M233.8 61.1h.01M274.5 280.5h.01M241.4 99.8h.01M202.7 123.3h.01M162.1 184.7h.01M307.9 275.4h.01M178.9 335.8h.01M205.8 52.8h.01M213.6 365.0h.01M208.1 298.4h.01M219.6 335.4h.01M278.9 223.9h.01M177.9 350.7h.01M273.7 179.4h.01M78.7 389.3h.01M267.9 241.2h.01M260.9 95.8h.01M236.9 414.0h.01M251.3 261.8h.01M244.6 75.1h.01M273.1 240.9h.01M260.0 395.2h.01M282.4 210.1h.01M159.0 345.9h.01M276.0 276.4h.01M200.6 314.7h.01M261.3 265.3h.01M209.5 339.5h.01M291.3 229.5h.01M249.4 405.1h.01M269.3 249.3h.01M294.2 215.5h.01M259.6 203.1h.01M263.6 398.2h.01M180.6 354.7h.01M207.2 336.0h.01M212.8 311.2h.01M251.5 184.8h.01M235.1 75.2h.01M294.8 201.8h.01M289.7 157.0h.01M246.3 277.7h.01M259.1 399.5h.01M143.2 409.8h.01M234.6 335.6h.01M177.1 250.0h.01M263.3 247.5h.01M271.6 171.5h.01M259.1 332.2h.01M273.7 116.0h.01M245.6 157.8h.01M259.6 114.6h.01M304.6 266.5h.01M266.5 212.0h.01M243.1 291.1h.01M249.4 207.1h.01M256.3 95.1h.01M135.9 399.6h.01M217.6 127.2h.01M283.1 268.7h.01M159.1 181.6h.01M248.5 280.5h.01M273.4 214.0h.01M225.7 323.2h.01M277.5 309.3h.01M210.5 308.8h.01M232.0 326.3h.01M277.6 282.9h.01M266.7 245.8h.01M213.3 358.9h.01M289.6 225.6h.01M229.5 60.8h.01M277.4 271.8h.01M247.4 85.7h.01M248.9 254.1h.01M215.6 132.0h.01M305.0 270.8h.01M255.7 197.2h.01M164.1 355.4h.01M286.0 287.1h.01M154.2 168.7h.01M211.5 315.3h.01M265.9 222.9h.01M276.0 245.3h.01M303.5 174.9h.01M276.1 255.5h.01M223.9 313.1h.01M175.3 353.5h.01M275.8 267.4h.01M233.0 409.9h.01M219.0 324.0h.01M227.6 359.2h.01M209.6 365.1h.01M276.6 139.4h.01M221.6 338.4h.01M181.9 247.2h.01M233.9 322.4h.01M250.2 287.8h.01M171.2 361.2h.01M253.0 271.0h.01M258.4 217.3h.01M256.8 205.9h.01M257.5 265.5h.01M280.8 229.8h.01M193.4 336.6h.01M258.7 109.7h.01M189.7 243.5h.01M243.8 79.7h.01M267.7 233.8h.01M293.0 155.7h.01M300.8 208.5h.01M264.7 237.1h.01M147.7 415.6h.01M260.2 255.8h.01M293.9 180.5h.01M267.2 383.2h.01M140.8 400.9h.01M216.5 357.5h.01M310.6 193.4h.01M252.5 309.9h.01M291.0 194.1h.01M251.5 268.4h.01M196.6 313.0h.01M189.3 239.9h.01M284.0 241.3h.01M83.3 388.6h.01M187.7 315.1h.01M260.4 304.1h.01M259.9 247.1h.01M285.1 275.3h.01M257.6 297.4h.01M256.2 211.0h.01M266.7 219.5h.01M163.5 346.8h.01M283.1 222.6h.01M305.7 292.1h.01M310.0 180.2h.01M278.2 159.2h.01M194.0 329.3h.01M202.8 339.2h.01M300.9 291.6h.01M246.4 289.9h.01M268.1 261.5h.01M266.7 272.3h.01M303.5 193.6h.01M234.1 92.5h.01M273.6 249.9h.01M288.2 160.8h.01M251.4 301.7h.01M150.4 252.7h.01M287.1 294.6h.01M252.7 274.6h.01M265.3 259.5h.01M265.9 146.3h.01M264.1 193.0h.01M260.0 276.8h.01M214.3 306.9h.01M179.3 330.9h.01M299.5 274.8h.01M233.4 314.5h.01M210.1 286.5h.01M268.6 279.5h.01M308.4 204.5h.01M225.2 302.6h.01M287.4 222.6h.01M235.8 329.4h.01M261.4 228.1h.01M284.9 136.6h.01M225.7 331.9h.01M182.8 337.6h.01M160.9 350.8h.01M182.8 340.9h.01M215.6 313.6h.01M263.6 300.2h.01M250.2 343.6h.01M303.7 183.6h.01M191.6 350.5h.01M219.6 296.6h.01M145.8 205.0h.01M243.1 93.4h.01M274.6 316.3h.01M203.4 353.8h.01M185.6 243.7h.01M229.1 329.8h.01M166.2 191.7h.01M285.2 175.5h.01M283.3 191.6h.01M265.6 208.0h.01M259.4 308.4h.01M134.5 393.0h.01M267.4 286.9h.01M258.2 225.7h.01M153.8 157.7h.01M262.1 251.8h.01M241.2 330.6h.01M260.2 237.0h.01M262.9 204.8h.01M291.6 222.4h.01M235.6 87.6h.01M307.9 164.7h.01M274.4 284.4h.01M260.7 167.5h.01M221.0 63.5h.01M199.5 335.2h.01M246.6 268.9h.01M267.8 190.8h.01M293.8 190.1h.01M286.1 279.6h.01M166.1 351.1h.01M296.6 208.3h.01M274.7 299.0h.01M250.5 305.3h.01M162.1 342.5h.01M158.8 252.2h.01M284.9 163.8h.01M265.5 251.0h.01M236.6 342.4h.01M189.6 356.0h.01M276.4 235.9h.01M261.3 322.9h.01M187.9 343.6h.01M282.2 197.2h.01M301.1 179.3h.01M246.4 307.8h.01M212.3 348.8h.01M243.2 257.2h.01M174.8 359.2h.01M264.0 319.7h.01M252.8 245.7h.01M305.3 201.6h.01M259.1 186.7h.01M263.7 331.8h.01M263.7 243.5h.01M272.5 227.5h.01M216.7 309.2h.01M198.9 347.9h.01M171.5 336.0h.01M274.0 307.1h.01M198.2 323.4h.01M229.6 347.2h.01M212.0 129.1h.01M258.6 251.9h.01M253.6 286.9h.01M245.1 303.9h.01M275.9 313.4h.01M261.8 215.9h.01M278.1 195.0h.01M278.9 219.3h.01M268.3 225.9h.01M298.8 191.2h.01M260.6 290.1h.01M207.5 327.5h.01M209.4 321.2h.01M301.5 295.7h.01M148.7 202.7h.01M270.6 223.4h.01M207.0 346.4h.01M210.6 57.4h.01M152.3 165.5h.01M242.9 70.4h.01M271.4 209.5h.01M300.2 284.0h.01M156.2 350.3h.01M273.7 302.9h.01M285.5 264.9h.01M247.7 294.2h.01M93.4 398.3h.01M274.3 290.1h.01M266.6 102.4h.01M267.2 390.9h.01M269.1 181.7h.01M259.6 87.0h.01M267.2 298.1h.01M295.8 194.6h.01M190.0 330.9h.01M269.3 194.2h.01M274.0 370.0h.01M262.9 387.3h.01M267.3 89.5h.01M194.2 356.6h.01M254.1 291.7h.01M308.7 262.0h.01M279.5 176.7h.01M224.1 75.3h.01M143.0 415.3h.01M254.5 226.9h.01M143.7 404.9h.01M153.4 172.4h.01M238.5 338.4h.01M185.1 343.6h.01M242.9 300.0h.01M212.5 299.5h.01M204.7 312.0h.01M238.4 334.0h.01M187.1 347.4h.01M240.7 404.0h.01M268.8 305.2h.01M238.7 408.2h.01M190.0 248.0h.01M158.7 168.3h.01M219.7 344.5h.01M191.4 344.1h.01M255.6 191.9h.01M210.6 325.8h.01M250.9 202.8h.01M203.7 316.5h.01M284.2 282.9h.01M136.6 415.3h.01M205.8 341.8h.01M210.3 305.9h.01M260.5 299.5h.01M212.1 329.6h.01M205.6 360.6h.01M288.5 190.3h.01M261.0 211.9h.01M278.0 182.0h.01M259.8 190.5h.01M215.5 317.0h.01M283.6 214.0h.01M247.9 298.6h.01M248.7 398.2h.01M244.8 320.8h.01M249.4 336.6h.01M309.2 280.0h.01M172.9 251.9h.01M310.5 270.8h.01M277.7 201.2h.01M247.7 341.3h.01M257.7 82.9h.01M222.5 322.0h.01M257.6 229.6h.01M303.2 170.5h.01M182.8 352.3h.01M272.4 162.4h.01M189.8 340.5h.01M118.7 260.3h.01M227.2 326.1h.01M297.8 176.9h.01M265.1 315.8h.01M227.5 333.8h.01M180.2 358.8h.01M240.4 81.6h.01M253.8 230.1h.01M255.1 405.5h.01M204.8 363.8h.01M303.9 280.9h.01M210.6 368.4h.01M255.2 241.8h.01M154.1 346.0h.01M208.0 302.6h.01M148.9 199.9h.01M279.8 149.0h.01M225.3 351.6h.01M223.6 298.1h.01M254.2 278.5h.01M243.9 327.4h.01M207.7 331.5h.01M299.4 202.4h.01M147.5 256.3h.01M226.6 340.1h.01M261.5 295.2h.01M259.5 269.3h.01M232.0 85.0h.01M263.0 233.7h.01M220.4 416.0h.01M181.5 343.8h.01M229.2 411.7h.01M248.0 259.0h.01M221.6 130.3h.01M188.8 351.7h.01M256.3 327.8h.01M222.5 292.8h.01M260.9 285.2h.01M216.1 323.4h.01M269.1 289.8h.01M241.2 313.4h.01M258.3 105.0h.01M259.2 164.1h.01M271.8 286.8h.01M213.0 289.6h.01M272.8 235.9h.01M187.5 325.1h.01M263.4 240.1h.01M248.0 77.3h.01M215.9 345.7h.01M259.3 262.1h.01M257.6 286.6h.01M212.4 62.0h.01M196.3 352.1h.01M226.1 306.7h.01M207.7 316.0h.01M262.3 279.8h.01M251.9 190.2h.01M255.4 261.6h.01M158.0 159.9h.01M219.0 316.5h.01M190.2 347.4h.01M240.4 411.7h.01M296.7 287.9h.01M174.6 343.2h.01M154.1 256.2h.01M189.0 310.9h.01M210.2 334.0h.01M201.4 319.6h.01M269.2 187.1h.01M244.4 282.3h.01M260.2 327.0h.01M129.2 373.2h.01M299.4 172.8h.01M238.8 302.1h.01M194.5 345.7h.01M253.3 239.3h.01M300.5 195.3h.01M197.7 355.3h.01M184.6 321.5h.01M277.5 133.5h.01M299.2 325.2h.01M226.9 129.9h.01M286.4 205.6h.01M143.3 253.4h.01M203.4 300.5h.01M264.2 268.5h.01M258.0 293.4h.01M282.5 302.9h.01M271.5 312.8h.01M255.5 236.5h.01M243.2 261.3h.01M254.5 81.5h.01M227.4 299.6h.01M221.3 301.3h.01M256.6 289.7h.01M254.5 306.2h.01M250.5 92.0h.01M222.5 325.0h.01M156.2 164.0h.01M304.1 317.6h.01M302.2 189.1h.01M106.6 401.8h.01M237.1 351.0h.01M144.3 201.2h.01M274.2 311.2h.01M262.7 282.4h.01M288.1 239.8h.01M273.6 184.2h.01M278.6 301.2h.01M234.4 339.4h.01M250.5 229.0h.01M258.7 280.7h.01M222.7 341.7h.01M242.7 286.8h.01M245.6 273.3h.01M251.0 79.6h.01M256.1 300.9h.01M264.5 326.1h.01M223.2 345.4h.01M224.9 348.3h.01M281.6 288.9h.01M228.0 71.7h.01M271.2 155.7h.01M224.5 360.3h.01M207.9 60.4h.01M238.0 320.1h.01M285.2 147.8h.01M285.4 157.9h.01M193.0 321.0h.01M200.6 330.2h.01M246.4 82.4h.01M229.8 303.4h.01M298.0 198.4h.01M206.6 307.6h.01M217.9 353.9h.01M269.3 315.5h.01M258.5 221.3h.01M218.6 327.4h.01M298.1 226.4h.01M229.7 322.0h.01M202.1 344.4h.01M209.5 355.7h.01M277.1 210.1h.01M203.9 357.3h.01M204.5 329.5h.01M174.4 350.3h.01M270.4 204.3h.01M206.9 357.3h.01M308.7 196.6h.01M254.0 202.8h.01M280.4 260.3h.01M247.5 98.8h.01M207.2 130.1h.01M284.4 260.1h.01M203.0 326.5h.01M281.1 297.9h.01M217.5 300.5h.01M192.9 333.4h.01M238.0 345.8h.01M185.5 350.5h.01M266.8 301.5h.01M230.6 66.2h.01M198.4 327.4h.01M300.2 185.2h.01M281.0 245.4h.01M230.7 334.7h.01M236.4 82.1h.01M134.4 388.0h.01M199.6 304.0h.01M199.2 340.2h.01M257.0 277.2h.01M178.9 352.9h.01M255.6 274.2h.01M218.3 292.3h.01M297.4 305.5h.01M222.4 305.4h.01M223.3 412.6h.01M212.9 322.5h.01M206.5 56.5h.01M270.5 300.8h.01M247.2 249.6h.01M209.2 350.9h.01M255.9 401.9h.01M229.7 352.0h.01M200.4 351.9h.01M267.0 311.7h.01M226.6 415.4h.01M271.7 258.7h.01M186.5 339.0h.01M225.2 355.4h.01M269.2 237.5h.01M207.9 290.6h.01M301.9 200.0h.01M291.6 211.7h.01M250.7 72.1h.01M155.7 183.8h.01M265.9 280.6h.01M88.4 397.2h.01M268.5 229.3h.01M252.8 75.8h.01M221.8 363.0h.01M247.0 71.2h.01M249.8 276.1h.01M265.5 284.4h.01M214.3 56.9h.01M259.2 150.8h.01M284.9 236.0h.01M284.9 231.6h.01M251.6 402.1h.01M245.6 312.6h.01M234.3 301.9h.01M305.0 197.6h.01M265.9 184.2h.01M234.6 66.3h.01M210.8 53.5h.01M216.8 362.0h.01M253.5 265.3h.01M247.1 104.1h.01M255.0 86.8h.01M242.2 305.3h.01M221.0 309.0h.01M264.5 255.5h.01M278.9 312.7h.01M163.8 252.0h.01M269.4 215.1h.01M167.5 346.7h.01M304.0 166.1h.01M135.1 409.4h.01M218.6 305.2h.01M151.2 348.8h.01M266.1 97.4h.01M293.2 232.7h.01M267.3 329.2h.01M177.8 344.5h.01M296.3 186.9h.01M277.9 214.7h.01M243.4 85.4h.01M214.5 293.8h.01M217.8 54.8h.01M173.1 356.1h.01M238.9 278.6h.01M255.0 187.6h.01M174.6 347.1h.01M239.4 297.1h.01M253.2 180.5h.01M209.5 359.4h.01M184.0 347.2h.01M234.1 318.5h.01M277.2 171.6h.01M212.3 354.4h.01M258.3 233.5h.01M250.8 83.4h.01M224.6 338.2h.01M225.9 57.1h.01M213.5 338.5h.01M222.2 327.9h.01M177.0 245.2h.01M138.0 255.3h.01M254.5 219.5h.01M295.0 283.3h.01M266.8 202.7h.01M262.5 220.5h.01M242.4 279.4h.01M203.9 304.4h.01M210.6 294.4h.01M243.9 407.8h.01M186.2 354.3h.01M152.5 354.2h.01M280.3 256.5h.01M262.5 271.8h.01M256.9 258.1h.01M233.7 354.5h.01M224.6 329.4h.01M263.1 200.4h.01M244.4 296.0h.01M171.9 341.0h.01M235.7 305.6h.01M274.9 205.5h.01M295.7 211.6h.01M260.1 242.0h.01M281.8 293.8h.01M268.3 268.1h.01M249.5 271.7h.01M295.6 229.8h.01M273.8 193.9h.01M253.0 195.2h.01M237.7 325.4h.01M272.3 254.1h.01M208.0 125.0h.01M175.1 337.3h.01M247.1 285.2h.01M268.5 257.3h.01M307.8 170.7h.01M305.9 207.4h.01M255.4 71.2h.01M251.4 295.4h.01M261.4 312.8h.01M132.1 414.0h.01M269.9 106.8h.01M271.5 231.8h.01M257.5 239.5h.01M196.3 337.6h.01M185.0 357.8h.01M275.9 231.6h.01M283.9 248.5h.01M265.0 292.0h.01M227.3 67.2h.01M259.1 194.4h.01M250.6 106.1h.01M249.3 308.6h.01M300.9 301.8h.01M125.5 376.6h.01M272.1 269.4h.01M281.3 264.4h.01M289.7 151.9h.01M283.3 201.9h.01M248.4 128.0h.01M270.6 219.2h.01M261.4 230.9h.01M283.0 218.0h.01M218.9 320.6h.01M281.5 252.4h.01M194.6 349.1h.01M285.2 254.5h.01M298.5 298.8h.01M280.6 279.7h.01M171.2 345.9h.01M183.5 234.4h.01M200.2 310.9h.01M248.6 320.2h.01M268.0 387.3h.01M154.8 202.5h.01M254.9 215.1h.01M261.5 224.3h.01M152.7 161.5h.01M273.2 189.2h.01M280.4 275.2h.01M244.4 411.4h.01M278.5 240.5h.01M225.8 62.1h.01M219.4 312.6h.01M243.1 66.6h.01M260.1 208.2h.01M254.2 91.1h.01M298.4 279.1h.01M296.9 293.1h.01M167.3 359.8h.01M158.9 186.9h.01M296.4 152.1h.01M244.4 340.1h.01M220.4 349.1h.01M226.5 343.8h.01M269.3 151.0h.01M245.6 404.8h.01M216.4 330.6h.01M264.8 175.1h.01M213.0 334.0h.01M216.3 334.4h.01M291.3 237.0h.01M177.5 356.5h.01M270.7 296.4h.01M183.0 333.0h.01M166.8 342.9h.01M289.1 214.9h.01M213.9 342.3h.01M233.0 71.3h.01M269.4 275.2h.01M286.8 197.1h.01M274.3 294.5h.01M268.5 319.3h.01M278.0 292.0h.01M277.6 287.4h.01M196.9 359.9h.01M249.4 265.8h.01M272.0 278.0h.01"/>
</svg>