<svg xmlns="http://www.w3.org/2000/svg" viewBox="0 0 360 432" role="img">
<path stroke="#1a1a1a" stroke-width="1.73" stroke-linecap="round" fill="none" d="M330.6 361.5h.01M219.1 50.0h.01M159.5 415.7h.01M0.4 293.7h.01M178.4 235.7h.01M206.1 55.6h.01M169.7 400.3h.01M283.1 238.1h.01M231.4 406.1h.01M295.3 227.0h.01M265.7 125.8h.01M137.0 69.9h.01M231.3 389.4h.01M216.4 133.1h.01M238.6 112.3h.01M225.7 386.0h.01M215.7 126.5h.01M294.3 244.1h.01M238.4 379.8h.01M258.2 122.0h.01M85.2 0.4h.01M175.9 403.8h.01M206.0 138.4h.01M215.9 406.1h.01M308.4 391.6h.01M233.2 132.3h.01M240.3 369.1h.01M279.6 246.2h.01M156.1 411.1h.01M220.7 137.4h.01M194.2 416.8h.01M73.2 146.5h.01M212.8 141.7h.01M130.2 71.5h.01M212.3 50.0h.01M231.2 111.3h.01M234.6 118.8h.01M198.1 52.9h.01M280.9 414.0h.01M241.7 133.4h.01M193.4 57.9h.01M231.9 104.1h.01M0.4 265.8h.01M264.5 134.0h.01M180.6 229.0h.01M223.4 397.8h.01M202.0 131.2h.01M216.5 56.9h.01M176.3 423.0h.01M237.4 141.0h.01M150.9 408.8h.01M0.4 104.1h.01M218.3 399.2h.01M188.9 51.3h.01M241.9 374.3h.01M289.4 239.2h.01M287.0 245.9h.01M196.7 429.5h.01M226.6 165.9h.01M288.1 409.6h.01M223.3 406.1h.01M243.4 107.1h.01M0.4 132.2h.01M209.9 61.4h.01M207.5 125.9h.01M224.0 130.7h.01M229.6 125.2h.01M210.3 133.1h.01M105.1 423.9h.01M137.0 76.8h.01M300.9 398.8h.01M266.0 424.6h.01M188.7 409.3h.01M216.9 116.1h.01M244.5 359.8h.01M229.6 145.5h.01M186.9 429.1h.01M238.5 126.2h.01M278.4 253.6h.01M229.9 153.2h.01M201.2 63.4h.01M212.8 428.8h.01M232.9 245.2h.01M256.9 113.4h.01M222.3 151.6h.01M358.6 122.9h.01M358.6 276.6h.01M291.4 186.8h.01M274.8 0.4h.01M325.3 368.1h.01M199.8 421.0h.01M236.8 374.7h.01M243.2 120.5h.01M289.6 232.1h.01M206.7 39.5h.01M248.2 137.4h.01M222.3 112.5h.01M212.1 120.1h.01M251.4 120.0h.01M293.8 403.7h.01M237.3 150.0h.01M237.3 386.7h.01M221.4 122.8h.01M214.0 149.0h.01M257.5 427.6h.01M235.9 394.3h.01M226.7 117.8h.01M179.2 416.6h.01M314.8 382.9h.01M228.6 138.2h.01M283.2 231.5h.01M240.0 246.0h.01M216.6 156.5h.01M206.4 47.5h.01M284.8 252.3h.01M320.6 375.9h.01M200.7 45.0h.01"/>
<path stroke="#1a1a1a" stroke-width="2.05" stroke-linecap="round" fill="none" d="M182.8 39.6h.01M187.6 173.0h.01M197.9 147.7h.01M231.6 306.8h.01M221.1 76.1h.01M196.7 70.2h.01M218.9 162.6h.01M218.2 214.6h.01M201.3 37.9h.01M256.7 137.5h.01M184.9 268.8h.01M238.1 102.6h.01M237.4 266.3h.01M220.6 88.8h.01M200.1 140.0h.01M244.8 304.1h.01M186.2 227.7h.01M215.3 109.2h.01M158.2 171.8h.01M215.5 331.0h.01M273.7 130.1h.01M161.4 77.1h.01M243.3 283.7h.01M236.2 66.7h.01M149.8 68.0h.01M94.0 398.2h.01M176.3 43.7h.01M180.6 130.2h.01M217.7 317.1h.01M207.4 342.4h.01M268.8 173.2h.01M254.6 157.8h.01M0.4 156.3h.01M242.9 239.7h.01M163.4 94.3h.01M199.7 364.4h.01M204.7 165.5h.01M136.8 82.6h.01M220.5 170.1h.01M139.1 91.2h.01M211.4 359.7h.01M226.8 276.0h.01M204.4 77.9h.01M120.1 54.6h.01M250.9 181.6h.01M244.1 156.1h.01M149.0 145.3h.01M198.7 329.3h.01M250.9 62.2h.01M213.8 280.1h.01M167.2 160.8h.01M203.8 71.0h.01M142.7 82.3h.01M180.2 120.2h.01M164.7 127.8h.01M158.1 110.7h.01M124.7 63.6h.01M214.1 322.6h.01M258.1 181.0h.01M184.1 249.2h.01M176.2 222.0h.01M165.2 172.0h.01M213.8 101.4h.01M171.3 129.1h.01M266.0 102.9h.01M196.1 155.2h.01M258.5 242.7h.01M228.8 217.5h.01M232.3 89.1h.01M201.0 354.8h.01M220.7 279.7h.01M173.0 429.2h.01M251.2 227.2h.01M225.5 356.5h.01M223.7 220.6h.01M294.5 235.4h.01M224.1 69.9h.01M273.4 218.7h.01M163.2 138.9h.01M168.5 423.1h.01M248.2 127.9h.01M208.8 154.0h.01M242.7 96.5h.01M112.5 69.6h.01M173.2 395.3h.01M232.8 179.4h.01M171.5 69.2h.01M230.8 281.1h.01M285.5 153.9h.01M273.2 419.3h.01M98.3 408.4h.01M212.5 166.7h.01M209.2 265.7h.01M300.5 205.6h.01M251.6 107.6h.01M165.0 411.7h.01M190.0 363.2h.01M188.3 403.6h.01M282.9 326.1h.01M194.3 284.8h.01M158.4 90.5h.01M218.9 273.4h.01M272.9 106.3h.01M187.5 80.0h.01M208.7 322.1h.01M220.1 96.2h.01M259.7 297.3h.01M158.0 164.8h.01M214.6 249.8h.01M226.0 331.4h.01M191.0 250.0h.01M325.6 349.3h.01M65.2 243.6h.01M188.5 71.1h.01M274.4 224.8h.01M241.0 298.3h.01M273.4 154.6h.01M178.5 192.4h.01M308.8 382.7h.01M298.1 198.4h.01M179.6 162.8h.01M74.3 162.0h.01M248.8 200.7h.01M207.3 90.1h.01M177.2 179.7h.01M163.3 182.1h.01M205.8 317.4h.01M249.8 168.5h.01M226.2 92.8h.01M311.8 341.8h.01M157.8 159.1h.01M185.0 326.4h.01M160.2 65.2h.01M185.3 58.2h.01M168.9 82.7h.01M153.9 124.0h.01M172.0 60.0h.01M333.6 354.4h.01M203.5 101.5h.01M175.4 203.3h.01M195.2 37.6h.01M188.3 135.8h.01M153.2 171.8h.01M244.9 184.9h.01M124.9 69.2h.01M208.5 105.9h.01M234.5 219.4h.01M256.6 67.4h.01M148.5 100.0h.01M270.1 147.0h.01M147.5 399.5h.01M184.1 256.4h.01M168.7 44.4h.01M215.1 185.6h.01M243.5 253.5h.01M236.3 226.6h.01M171.8 207.0h.01M200.5 160.3h.01M227.2 350.5h.01M256.3 285.8h.01M223.9 185.8h.01M239.0 258.3h.01M222.3 352.3h.01M281.6 137.7h.01M175.8 124.7h.01M238.1 59.2h.01M205.6 146.3h.01M248.7 267.8h.01M271.3 138.0h.01M155.3 83.9h.01M292.2 251.7h.01M254.6 299.4h.01M120.5 72.3h.01M262.7 185.2h.01M281.6 131.1h.01M153.7 108.5h.01M165.4 89.0h.01M245.9 293.3h.01M250.1 427.9h.01M209.6 404.3h.01M264.4 230.8h.01M243.3 88.3h.01M238.4 328.4h.01M240.6 364.2h.01M164.4 192.5h.01M149.8 74.4h.01M271.9 206.4h.01M200.5 308.3h.01M233.6 300.9h.01M173.5 163.0h.01M192.5 76.4h.01M181.0 204.6h.01M212.1 41.4h.01M358.6 225.4h.01M226.1 100.0h.01M172.4 93.5h.01M216.9 71.0h.01M199.9 412.9h.01M138.6 63.3h.01M109.6 62.8h.01M246.8 113.8h.01M165.6 395.4h.01M244.8 206.2h.01M280.2 107.7h.01M101.3 332.7h.01M242.2 310.0h.01M248.3 299.0h.01M147.1 93.2h.01M156.7 129.1h.01M250.4 151.8h.01M143.5 74.8h.01M191.3 230.3h.01M136.9 45.3h.01M272.4 200.2h.01M193.9 108.4h.01M117.4 428.0h.01M227.5 85.6h.01M231.4 348.1h.01M177.0 168.6h.01M164.1 48.7h.01M64.0 163.1h.01M228.4 412.8h.01M239.1 182.0h.01M132.7 54.0h.01M225.3 325.4h.01M284.4 145.3h.01M256.4 267.3h.01M178.9 398.9h.01M196.7 90.3h.01M265.8 96.2h.01M235.5 311.1h.01M186.5 418.3h.01M247.3 366.2h.01M152.5 414.8h.01M185.8 162.8h.01M193.5 161.8h.01M134.5 395.8h.01M180.4 50.5h.01M275.1 235.1h.01M175.1 242.0h.01M257.0 167.1h.01M199.4 183.4h.01M232.9 341.4h.01M188.1 129.3h.01M143.5 68.0h.01M228.6 200.9h.01M283.4 169.4h.01M259.0 105.0h.01M203.7 289.7h.01M245.4 316.2h.01M242.5 429.1h.01M177.7 96.6h.01M176.0 83.6h.01M258.4 150.8h.01M194.3 45.6h.01M77.5 123.9h.01M284.4 189.1h.01M201.1 244.2h.01M183.4 86.8h.01M195.5 358.2h.01M171.4 88.3h.01M251.6 207.7h.01M140.4 396.9h.01M231.9 53.9h.01M168.4 165.6h.01M250.8 281.4h.01M255.0 198.9h.01M260.4 262.4h.01M264.5 191.3h.01M185.4 123.2h.01M237.7 93.6h.01M234.2 261.4h.01M267.5 180.4h.01M250.6 255.0h.01M162.5 425.8h.01M214.1 179.4h.01M278.4 100.5h.01M160.5 0.4h.01M87.2 89.9h.01M298.4 211.7h.01M268.3 223.9h.01M167.9 406.0h.01M240.9 218.8h.01M146.4 48.1h.01M231.8 330.9h.01M242.5 80.5h.01M204.3 271.4h.01M167.9 76.6h.01M256.7 83.1h.01M228.2 344.1h.01M152.9 96.1h.01M173.4 413.5h.01M258.1 229.3h.01M221.6 341.5h.01M175.0 135.9h.01M230.4 326.8h.01M227.1 339.0h.01M297.8 164.0h.01M261.8 89.3h.01M219.2 324.2h.01M149.2 105.8h.01M204.0 326.1h.01M250.8 240.9h.01M212.3 345.7h.01M197.0 252.1h.01M208.6 350.0h.01M266.5 210.8h.01M201.3 108.7h.01M189.2 309.7h.01M161.9 83.7h.01M177.5 185.9h.01M237.3 337.8h.01M247.7 220.3h.01M255.2 248.5h.01M153.2 56.8h.01M163.9 100.3h.01M240.9 322.2h.01M232.7 211.6h.01M212.8 310.1h.01M175.7 260.4h.01M182.5 423.2h.01M151.4 133.2h.01M288.1 173.8h.01M280.8 225.1h.01M115.2 63.8h.01M210.2 328.6h.01M182.3 156.8h.01M80.0 109.6h.01M208.2 176.8h.01M176.2 156.9h.01M188.5 334.6h.01M303.6 194.4h.01M180.8 173.9h.01M252.8 273.7h.01M189.9 101.5h.01M231.0 354.7h.01M213.6 173.0h.01M168.0 134.9h.01M204.8 416.6h.01M189.3 115.3h.01M187.7 143.6h.01M129.5 77.0h.01M235.8 158.7h.01M171.1 113.7h.01M271.9 248.7h.01M245.0 424.0h.01M214.3 93.7h.01M173.9 175.0h.01M273.8 113.6h.01M197.0 101.1h.01M158.7 116.5h.01M177.5 150.3h.01M290.1 200.1h.01M109.5 428.4h.01M177.6 69.6h.01M277.3 193.8h.01M292.6 211.4h.01M245.8 213.0h.01M177.6 36.6h.01M272.2 98.5h.01M221.6 336.0h.01M210.3 414.8h.01M177.0 248.7h.01M177.4 102.5h.01M162.7 163.1h.01M139.5 57.5h.01M246.7 276.7h.01M130.9 65.5h.01M235.1 325.2h.01M221.0 144.2h.01M217.6 346.6h.01M252.7 214.8h.01M156.2 39.5h.01M220.0 103.4h.01M163.0 39.7h.01M276.2 171.7h.01M249.6 85.2h.01M285.8 220.0h.01M260.2 272.0h.01M199.9 123.1h.01M217.4 64.2h.01M246.2 322.4h.01M231.6 72.6h.01M162.6 157.5h.01M247.7 247.6h.01M193.5 184.3h.01M184.6 345.4h.01M134.8 94.9h.01M306.5 189.1h.01M191.0 273.1h.01M219.7 182.6h.01M240.0 73.3h.01M172.7 50.6h.01M213.8 418.3h.01M262.5 198.3h.01M146.3 55.0h.01M213.3 243.3h.01M154.4 62.8h.01M254.3 187.3h.01M269.7 195.0h.01M268.2 78.0h.01M284.9 162.4h.01M183.7 339.4h.01M144.2 144.9h.01M173.2 108.1h.01M173.8 255.4h.01M188.1 262.9h.01M263.0 250.6h.01M246.6 233.4h.01M210.3 184.0h.01M257.8 204.5h.01M168.0 177.3h.01M174.7 265.0h.01M158.5 97.8h.01M162.7 168.0h.01M252.1 305.1h.01M167.8 110.4h.01M183.8 65.5h.01M219.8 243.3h.01M143.0 42.8h.01M270.7 166.9h.01M125.8 51.4h.01M253.4 99.6h.01M205.0 332.6h.01M272.8 212.4h.01M289.0 205.9h.01M261.9 174.7h.01M261.3 160.1h.01M249.5 174.9h.01M224.1 44.4h.01M262.1 217.2h.01M255.4 174.6h.01M0.4 178.1h.01M300.3 392.0h.01M233.2 362.9h.01M159.6 122.8h.01M262.7 72.6h.01M257.8 278.8h.01M201.9 85.3h.01M182.6 334.7h.01M192.8 174.0h.01M206.2 355.5h.01M177.3 209.8h.01M191.5 353.5h.01M280.9 260.5h.01M100.9 413.7h.01M275.6 92.5h.01M358.6 175.4h.01M236.5 320.2h.01M307.9 181.0h.01M145.8 394.4h.01M171.5 146.8h.01M170.0 260.7h.01M212.6 354.2h.01M157.3 153.6h.01M159.0 142.4h.01M181.5 222.1h.01M192.0 94.9h.01M200.8 320.8h.01M233.9 239.0h.01M159.4 53.7h.01M305.7 174.7h.01M278.8 150.4h.01M191.4 64.5h.01M198.3 173.2h.01M215.8 267.0h.01M239.6 290.2h.01M162.9 110.2h.01M264.1 167.1h.01M201.1 283.4h.01M183.5 101.4h.01M281.2 123.6h.01M139.6 51.0h.01M206.0 428.6h.01M303.5 200.2h.01M171.0 170.2h.01M205.7 361.2h.01M107.9 73.7h.01M248.9 287.7h.01M191.2 150.2h.01M187.6 35.8h.01M231.0 60.1h.01M86.4 94.5h.01M96.6 330.5h.01M191.0 167.7h.01M206.4 232.4h.01M256.2 129.7h.01M242.5 267.6h.01M145.0 161.2h.01M165.8 122.5h.01M273.3 121.4h.01M291.7 221.2h.01M183.8 168.6h.01M197.2 348.0h.01M206.1 311.4h.01M252.6 261.6h.01M167.4 64.5h.01M245.4 352.3h.01M254.7 91.0h.01M270.1 254.4h.01M210.1 67.8h.01M265.3 153.1h.01M206.3 242.4h.01M181.4 144.8h.01M205.2 182.5h.01M196.7 352.7h.01M187.8 222.2h.01M188.5 340.6h.01M181.8 137.8h.01M287.6 258.0h.01M187.0 108.2h.01M225.4 107.0h.01M184.9 355.7h.01M259.7 211.0h.01M233.8 378.5h.01M252.9 144.4h.01M270.8 187.6h.01M162.5 59.7h.01M258.2 255.7h.01M194.6 83.4h.01M291.7 194.1h.01M220.8 429.2h.01M217.2 382.4h.01M192.4 423.7h.01M220.9 82.6h.01M231.6 47.5h.01M242.8 170.9h.01M230.3 321.6h.01M176.5 114.7h.01M269.2 160.1h.01M268.8 90.4h.01M226.6 159.3h.01M171.9 101.7h.01M132.2 60.1h.01M185.0 94.3h.01M154.4 102.3h.01M184.6 45.8h.01M198.0 276.5h.01M238.6 211.6h.01M228.9 172.3h.01M214.1 87.1h.01M236.8 173.7h.01M211.8 273.1h.01M196.6 340.2h.01M146.6 61.6h.01M0.4 219.9h.01M263.6 283.2h.01M259.3 96.7h.01M238.5 52.1h.01M130.5 81.1h.01M161.1 187.5h.01M205.1 171.3h.01M177.7 63.2h.01M212.7 215.9h.01M164.7 389.7h.01M187.7 424.9h.01M96.0 402.7h.01M243.3 64.9h.01M238.1 304.8h.01M250.1 162.1h.01M174.9 229.0h.01M286.7 182.0h.01M258.0 192.3h.01M158.4 398.3h.01M268.2 217.3h.01M253.4 292.9h.01M297.4 172.0h.01M170.8 246.7h.01M231.9 288.0h.01M236.5 333.5h.01M169.4 141.0h.01M224.6 253.3h.01M221.1 330.4h.01M199.1 335.2h.01M124.9 75.0h.01M118.9 67.2h.01M208.0 305.5h.01M178.2 90.3h.01M197.4 232.5h.01M98.3 71.1h.01M248.3 310.0h.01M0.4 199.0h.01M244.3 146.1h.01M157.8 46.1h.01M195.5 179.0h.01M189.0 243.1h.01M234.7 166.3h.01M185.1 235.5h.01M250.2 420.9h.01M239.5 315.3h.01M167.3 55.1h.01M192.5 120.7h.01M215.6 339.5h.01M201.2 94.5h.01M209.9 237.8h.01M281.3 177.7h.01M210.3 336.0h.01M188.9 156.7h.01M248.6 93.4h.01M243.9 177.8h.01M197.9 167.4h.01M242.7 163.5h.01M165.1 146.2h.01M235.0 429.3h.01M164.3 152.4h.01M194.7 308.7h.01M220.3 249.8h.01M197.8 290.2h.01M265.3 117.4h.01M278.0 185.3h.01M279.7 158.0h.01M281.0 115.7h.01M226.0 244.9h.01M140.6 94.8h.01M255.5 221.1h.01M229.3 251.0h.01M169.2 156.9h.01M143.0 88.4h.01M254.4 234.9h.01M265.8 275.6h.01M235.6 252.5h.01M149.1 80.5h.01M234.2 79.4h.01M230.0 257.4h.01M126.2 57.7h.01M189.4 179.7h.01M181.1 263.0h.01M170.5 37.7h.01M196.8 240.1h.01M265.5 244.3h.01M179.4 255.5h.01M156.5 70.2h.01M229.2 66.2h.01M296.0 217.9h.01M180.1 108.1h.01M182.4 73.6h.01M152.5 50.0h.01M209.8 248.2h.01M157.1 135.9h.01M257.5 421.4h.01M235.0 294.9h.01M204.4 118.1h.01M208.4 97.2h.01M194.5 127.2h.01M246.9 101.3h.01M208.5 113.0h.01M203.5 348.4h.01M216.9 352.3h.01M0.4 241.7h.01M102.4 343.5h.01M189.0 255.9h.01M237.0 85.5h.01M185.2 216.1h.01M200.3 258.2h.01M303.6 168.3h.01M245.8 370.5h.01M272.3 85.0h.01M168.6 96.8h.01M209.2 160.7h.01M223.8 61.6h.01M291.1 167.2h.01M206.2 278.8h.01M223.4 346.6h.01M288.0 226.3h.01M183.1 114.2h.01M265.8 259.1h.01M136.3 88.3h.01M120.3 60.3h.01M182.0 242.6h.01M189.7 41.5h.01M155.7 405.4h.01M247.9 189.4h.01M210.1 286.5h.01M160.5 408.9h.01M164.6 116.4h.01M222.4 314.3h.01M165.5 429.7h.01M193.6 141.6h.01M284.7 405.1h.01M263.9 418.7h.01M229.3 225.4h.01M202.4 236.9h.01M194.5 224.2h.01M264.1 82.5h.01M211.8 315.9h.01M260.9 290.4h.01M200.7 314.4h.01M155.6 77.2h.01M305.5 386.8h.01M215.1 79.9h.01M184.2 210.2h.01M189.6 87.7h.01M249.2 77.5h.01M277.4 240.1h.01M323.5 359.5h.01M262.4 223.9h.01M261.9 237.1h.01M227.2 78.7h.01M317.2 370.0h.01M230.4 335.5h.01M171.5 212.1h.01M154.4 145.6h.01M256.7 75.6h.01M313.0 375.8h.01M122.5 0.4h.01M177.8 56.2h.01M198.7 77.8h.01M217.9 422.6h.01M194.1 257.1h.01M276.4 163.7h.01M287.8 213.8h.01M142.0 391.0h.01M203.2 338.9h.01M244.9 261.0h.01M174.8 76.4h.01M150.0 41.7h.01M150.0 126.6h.01M160.0 104.8h.01M265.4 204.2h.01M210.7 74.9h.01M178.1 215.7h.01M82.9 347.1h.01M225.9 50.1h.01M233.2 316.4h.01M270.6 230.3h.01M232.2 96.7h.01M191.7 218.0h.01M268.5 237.1h.01M82.3 104.0h.01M171.2 119.8h.01M199.6 343.7h.01M238.6 424.6h.01M131.4 48.2h.01M221.5 226.5h.01M195.2 134.1h.01M169.9 252.5h.01M262.9 143.5h.01M218.5 287.1h.01M217.5 237.6h.01M195.6 263.2h.01M114.5 58.5h.01M184.1 150.8h.01M218.0 42.9h.01M197.6 114.9h.01M160.2 387.6h.01M199.0 0.4h.01M298.4 191.3h.01M229.2 185.4h.01M265.5 110.1h.01M225.3 283.7h.01M208.7 82.6h.01M165.4 417.2h.01M248.4 70.4h.01M159.2 148.4h.01M164.2 70.9h.01M245.1 57.0h.01M166.9 104.7h.01M138.5 104.6h.01M220.2 176.2h.01M235.7 186.7h.01M295.6 204.8h.01M160.8 177.2h.01M226.1 178.7h.01M266.6 267.5h.01M132.2 85.2h.01M217.5 220.8h.01M225.7 374.2h.01M295.7 332.9h.01M201.8 177.6h.01M274.0 179.0h.01M272.2 242.4h.01M181.2 79.9h.01M239.0 233.0h.01M224.3 55.7h.01M162.1 132.4h.01M170.9 152.2h.01M291.7 330.6h.01M237.5 0.4h.01M221.8 377.8h.01M175.8 142.8h.01M191.5 236.8h.01M202.3 153.4h.01M276.7 143.3h.01M189.3 414.0h.01"/>
<path stroke="#1a1a1a" stroke-width="2.52" stroke-linecap="round" fill="none" d="M160.0 314.1h.01M172.9 199.1h.01M212.9 189.7h.01M149.0 182.4h.01M178.3 268.8h.01M178.3 427.0h.01M156.2 188.1h.01M123.2 378.2h.01M278.3 208.1h.01M172.2 418.7h.01M105.6 331.8h.01M75.3 141.6h.01M194.5 197.7h.01M171.7 327.0h.01M148.4 155.6h.01M160.6 323.1h.01M106.0 121.9h.01M226.2 210.7h.01M218.8 366.7h.01M242.8 272.9h.01M152.9 294.4h.01M206.9 187.8h.01M169.6 240.5h.01M107.7 348.0h.01M105.1 417.6h.01M186.0 373.3h.01M142.9 117.5h.01M166.1 256.0h.01M175.2 328.9h.01M133.5 253.7h.01M181.3 313.7h.01M102.4 73.9h.01M102.8 327.5h.01M180.5 362.8h.01M93.0 315.7h.01M171.7 364.6h.01M174.0 307.0h.01M191.6 347.9h.01M126.6 165.9h.01M106.4 116.1h.01M192.3 330.0h.01M116.7 220.0h.01M97.2 99.2h.01M176.0 312.1h.01M81.2 186.0h.01M126.8 152.5h.01M325.6 354.1h.01M189.2 377.0h.01M223.3 424.5h.01M145.3 128.2h.01M84.1 111.1h.01M158.4 357.1h.01M125.1 258.6h.01M222.8 200.2h.01M115.7 86.3h.01M124.2 125.2h.01M142.6 155.2h.01M229.2 311.8h.01M128.0 134.3h.01M294.9 397.1h.01M124.6 80.2h.01M168.4 203.4h.01M102.6 97.5h.01M178.9 342.2h.01M135.0 148.4h.01M208.3 191.3h.01M117.6 239.1h.01M164.4 358.2h.01M206.8 411.9h.01M149.6 289.6h.01M152.9 157.5h.01M300.5 385.5h.01M153.4 285.5h.01M129.0 252.3h.01M218.4 310.3h.01M181.1 321.7h.01M170.6 289.7h.01M211.3 222.0h.01M219.2 372.3h.01M178.2 332.4h.01M114.8 235.8h.01M149.9 216.4h.01M218.6 386.3h.01M138.9 216.8h.01M119.8 97.4h.01M105.4 339.6h.01M111.2 89.0h.01M145.7 346.7h.01M101.5 321.5h.01M198.7 193.3h.01M273.6 259.8h.01M205.8 396.2h.01M264.5 308.7h.01M86.3 358.1h.01M206.4 259.1h.01M118.9 251.8h.01M118.9 362.9h.01M180.1 328.4h.01M74.2 172.1h.01M95.9 75.7h.01M170.0 308.8h.01M173.5 339.5h.01M139.7 378.7h.01M277.9 229.9h.01M152.0 186.6h.01M89.0 287.9h.01M147.8 188.3h.01M236.6 353.0h.01M112.1 346.4h.01M137.1 165.8h.01M235.8 191.9h.01M211.2 255.4h.01M169.3 191.5h.01M99.9 92.7h.01M123.6 253.6h.01M128.0 100.8h.01M117.1 92.2h.01M244.5 379.2h.01M108.8 97.2h.01M115.5 248.5h.01M111.6 76.8h.01M122.5 101.7h.01M166.6 297.2h.01M182.5 295.8h.01M140.2 148.9h.01M190.9 279.9h.01M243.3 226.3h.01M207.1 218.4h.01M147.9 119.2h.01M209.5 391.8h.01M91.8 79.3h.01M138.5 99.2h.01M127.9 245.0h.01M92.0 127.3h.01M103.1 348.4h.01M303.5 183.3h.01M138.6 136.3h.01M135.2 129.2h.01M123.1 116.1h.01M206.6 294.5h.01M181.7 350.3h.01M232.2 232.5h.01M155.3 387.7h.01M123.4 427.7h.01M182.8 400.9h.01M171.8 216.9h.01M121.6 247.1h.01M169.7 225.8h.01M76.9 176.9h.01M178.4 198.3h.01M181.2 317.4h.01M129.7 157.5h.01M173.6 194.2h.01M108.9 101.9h.01M140.0 161.1h.01M232.2 425.6h.01M185.1 305.6h.01M188.4 205.4h.01M153.3 163.0h.01M148.7 166.5h.01M76.7 129.4h.01M152.4 139.7h.01M187.9 286.5h.01M163.7 201.3h.01M231.7 267.4h.01M194.0 378.2h.01M110.2 83.8h.01M146.3 139.0h.01M131.1 90.1h.01M145.6 238.8h.01M105.2 86.8h.01M279.7 219.5h.01M250.7 194.3h.01M190.3 188.8h.01M119.1 111.3h.01M87.2 127.4h.01M133.6 134.2h.01M124.2 156.4h.01M224.5 191.0h.01M132.8 226.6h.01M138.0 254.4h.01M210.0 385.7h.01M143.3 110.5h.01M220.3 256.7h.01M133.7 113.5h.01M138.8 122.5h.01M113.6 424.1h.01M217.5 378.4h.01M152.2 397.4h.01M106.9 67.0h.01M168.8 266.8h.01M239.3 196.0h.01M238.4 205.9h.01M196.7 216.8h.01M216.8 197.4h.01M93.1 110.0h.01M163.7 315.2h.01M113.4 352.3h.01M127.3 106.3h.01M89.2 84.9h.01M130.3 257.0h.01M200.4 368.6h.01M244.7 195.1h.01M182.6 309.8h.01M121.9 107.0h.01M103.8 102.6h.01M164.8 290.7h.01M143.9 104.6h.01M251.2 343.1h.01M300.9 187.0h.01M228.1 429.2h.01M180.2 429.7h.01M88.3 110.4h.01M94.8 84.3h.01M197.3 210.8h.01M132.3 152.8h.01M177.7 337.0h.01M207.6 253.2h.01M143.0 244.0h.01M157.1 295.3h.01M166.0 310.7h.01M172.3 285.3h.01M165.2 339.7h.01M242.4 331.7h.01M133.1 171.0h.01M151.5 221.0h.01M138.7 115.1h.01M139.9 129.0h.01M142.9 386.2h.01M143.9 123.4h.01M241.3 189.9h.01M66.4 236.2h.01M127.0 370.0h.01M158.8 193.4h.01M189.1 320.5h.01M195.2 362.5h.01M215.8 255.5h.01M118.9 366.2h.01M165.0 399.9h.01M173.4 322.6h.01M185.5 369.3h.01M144.5 216.6h.01M172.6 235.3h.01M137.9 110.0h.01M163.3 405.5h.01M134.7 238.6h.01M139.5 212.1h.01M162.2 197.1h.01M242.4 419.6h.01M85.7 116.7h.01M131.7 231.0h.01M236.4 283.5h.01M238.1 342.2h.01M208.1 365.1h.01M192.5 268.5h.01M121.8 164.1h.01M155.6 348.9h.01M140.1 221.4h.01M233.4 196.3h.01M167.7 233.2h.01M187.8 193.7h.01M175.3 315.8h.01M79.5 134.1h.01M319.0 364.5h.01M125.0 96.4h.01M205.1 248.2h.01M93.9 90.5h.01M152.8 114.1h.01M161.8 286.1h.01M132.5 386.8h.01M307.2 377.8h.01M90.4 375.9h.01M192.5 373.8h.01M75.0 135.6h.01M125.8 249.4h.01M250.9 408.0h.01M188.2 199.5h.01M213.1 390.3h.01M268.6 315.2h.01M224.9 289.4h.01M236.6 272.3h.01M198.3 268.6h.01M134.6 160.1h.01M134.4 248.9h.01M96.8 341.6h.01M138.3 182.2h.01M173.2 188.2h.01M146.3 150.5h.01M91.4 281.7h.01M178.6 273.4h.01M99.8 86.7h.01M228.9 360.4h.01M199.5 222.8h.01M70.5 166.6h.01M156.1 182.5h.01M125.1 120.0h.01M91.3 277.5h.01M198.5 376.8h.01M195.5 245.8h.01M208.8 299.4h.01M230.5 190.4h.01M138.4 406.9h.01M106.5 92.4h.01M206.1 388.0h.01M131.4 380.8h.01M171.5 313.1h.01M119.8 78.0h.01M109.4 112.1h.01M228.0 264.0h.01M147.3 405.6h.01M130.1 118.8h.01M187.1 350.2h.01M161.1 341.9h.01M202.0 188.5h.01M113.5 103.0h.01M123.2 371.3h.01M191.0 211.7h.01M221.4 389.1h.01M227.7 424.3h.01M260.9 413.5h.01M176.6 282.5h.01M212.5 232.6h.01M98.2 104.8h.01M156.2 392.6h.01M132.5 107.7h.01M200.5 393.5h.01M228.9 293.7h.01M176.6 346.3h.01M200.7 359.9h.01M116.1 74.2h.01M89.2 262.6h.01M194.0 370.2h.01M181.7 290.5h.01M235.7 347.3h.01M172.4 223.0h.01M131.0 138.8h.01M123.6 366.3h.01M215.0 304.3h.01M235.2 200.9h.01M219.8 357.7h.01M143.6 173.2h.01M126.2 90.5h.01M114.8 80.7h.01M187.2 313.8h.01M185.2 330.6h.01M134.6 142.5h.01M224.3 260.2h.01M53.4 183.3h.01M180.0 356.8h.01M136.6 176.4h.01M223.3 363.0h.01M118.0 104.6h.01M75.2 152.1h.01M246.6 347.3h.01M133.7 124.1h.01M153.5 119.1h.01M120.0 82.9h.01M97.7 335.6h.01M111.3 419.5h.01M173.0 269.3h.01M103.7 108.0h.01M163.1 348.1h.01M109.5 125.6h.01M128.5 214.0h.01M101.5 315.2h.01M242.1 200.9h.01M307.5 373.0h.01M109.5 352.0h.01M132.6 243.5h.01M121.7 92.2h.01M212.8 260.5h.01M171.1 182.1h.01M198.6 407.8h.01M193.3 336.6h.01M196.5 188.7h.01M134.9 119.0h.01M219.9 208.7h.01M109.0 107.0h.01M98.1 110.5h.01M148.0 112.3h.01M115.6 360.7h.01M146.6 413.9h.01M126.6 382.3h.01M135.2 221.2h.01M143.5 403.4h.01M160.4 420.9h.01M171.3 318.7h.01M99.5 80.9h.01M235.1 401.4h.01M185.2 322.7h.01M133.2 101.4h.01M137.5 154.5h.01M145.0 133.3h.01M173.9 355.6h.01M152.2 151.1h.01M182.1 182.4h.01M187.0 184.8h.01M112.5 93.7h.01M65.5 225.3h.01M218.6 189.6h.01M224.5 369.5h.01M153.8 177.4h.01M203.1 253.6h.01M136.3 391.0h.01M184.5 177.6h.01M279.2 213.7h.01M143.8 184.4h.01M177.2 319.3h.01M168.7 293.5h.01M177.2 366.0h.01M187.5 292.6h.01M214.2 227.1h.01M214.5 386.1h.01M184.4 280.5h.01M216.5 361.4h.01M202.0 227.9h.01M165.0 344.7h.01M164.9 260.4h.01M120.5 225.2h.01M98.1 325.0h.01M248.9 413.6h.01M140.8 382.2h.01M293.2 391.8h.01M192.1 343.4h.01M108.6 343.3h.01M196.0 315.4h.01M222.6 382.6h.01M138.4 171.4h.01M201.4 302.2h.01M204.8 383.9h.01M244.5 415.0h.01M167.5 186.5h.01M128.1 238.6h.01M185.0 378.2h.01M185.5 318.0h.01M287.8 400.4h.01M194.6 366.6h.01M111.6 233.9h.01M167.1 286.0h.01M126.5 85.0h.01M96.9 312.6h.01M229.2 366.6h.01M160.4 402.1h.01M143.1 225.9h.01M172.2 360.0h.01M278.9 406.9h.01M143.1 167.5h.01M128.0 123.4h.01M140.1 142.2h.01M92.2 102.9h.01M139.9 239.0h.01M79.2 325.7h.01M249.7 324.1h.01M231.5 382.1h.01M201.4 387.4h.01M114.1 108.1h.01M159.8 362.6h.01M103.2 113.1h.01M199.8 398.2h.01M168.4 197.5h.01M200.0 382.1h.01M140.5 249.4h.01M228.0 394.0h.01M213.3 381.0h.01M127.7 377.2h.01M154.7 352.9h.01M244.2 327.2h.01M92.8 96.3h.01M147.3 177.7h.01M226.7 305.2h.01M167.4 313.6h.01M311.4 368.9h.01M87.5 104.9h.01M137.8 227.1h.01M128.8 113.2h.01M138.0 244.4h.01M227.6 316.6h.01M109.9 118.7h.01M200.5 248.8h.01M189.0 358.6h.01M178.0 308.1h.01M121.4 87.2h.01M61.8 167.7h.01M143.8 98.4h.01M149.0 172.6h.01M164.9 264.4h.01M183.3 199.7h.01M115.3 98.8h.01M146.0 248.8h.01M223.1 214.5h.01M170.2 229.8h.01M114.4 113.5h.01M198.3 372.3h.01M207.5 213.2h.01M152.5 90.4h.01M235.8 358.3h.01M176.6 288.2h.01M184.8 274.6h.01M224.3 195.7h.01M234.7 421.3h.01M172.8 333.6h.01M79.9 115.1h.01M148.1 337.0h.01M128.6 428.7h.01M130.1 95.7h.01M214.6 375.9h.01M202.8 264.2h.01M74.8 156.9h.01M196.2 323.6h.01M274.2 411.6h.01M132.0 165.4h.01M133.1 179.9h.01M173.2 407.8h.01M292.7 178.4h.01M126.5 227.9h.01M254.6 416.9h.01M119.0 243.6h.01M225.6 238.6h.01M111.1 361.5h.01M213.8 371.0h.01M79.3 119.6h.01M297.3 182.4h.01M141.8 178.5h.01M177.3 352.3h.01M204.7 391.9h.01M148.7 86.2h.01M168.9 220.5h.01M106.7 80.8h.01M123.4 240.9h.01M75.4 168.3h.01M154.8 216.5h.01M56.7 166.0h.01M191.9 317.2h.01M84.7 122.1h.01M251.1 318.7h.01M213.1 365.9h.01M129.4 390.7h.01M103.4 78.0h.01M129.7 147.0h.01M224.4 309.7h.01M153.8 167.7h.01M153.8 291.0h.01M268.2 414.6h.01M191.0 324.3h.01M214.7 297.9h.01M169.8 352.3h.01M193.4 193.6h.01M130.1 373.6h.01M119.7 257.2h.01M85.6 99.1h.01M224.0 320.0h.01M197.5 387.2h.01M120.6 380.8h.01M211.9 293.1h.01M189.4 368.2h.01M149.3 161.0h.01M102.7 68.3h.01"/>
<path stroke="#1a1a1a" stroke-width="2.99" stroke-linecap="round" fill="none" d="M120.5 172.7h.01M249.9 382.7h.01M126.9 196.5h.01M82.8 248.2h.01M157.1 289.4h.01M146.6 314.5h.01M168.2 271.9h.01M85.6 313.9h.01M87.9 159.0h.01M252.2 314.0h.01M93.1 285.5h.01M306.2 368.8h.01M101.8 224.4h.01M84.5 309.8h.01M91.4 241.4h.01M121.0 180.5h.01M254.5 374.7h.01M135.7 401.6h.01M106.5 139.7h.01M91.7 160.7h.01M86.5 292.4h.01M84.5 218.7h.01M222.0 232.7h.01M115.2 180.5h.01M87.8 257.5h.01M202.0 218.3h.01M102.8 237.2h.01M184.1 383.2h.01M152.0 338.6h.01M68.8 212.1h.01M169.1 356.3h.01M96.7 140.3h.01M159.7 351.6h.01M260.0 366.2h.01M197.9 403.6h.01M198.2 205.0h.01M233.6 277.0h.01M89.6 269.5h.01M83.0 296.9h.01M70.7 232.0h.01M96.8 182.8h.01M77.9 227.9h.01M161.6 304.9h.01M241.6 409.7h.01M92.2 155.9h.01M257.0 366.1h.01M255.8 383.3h.01M129.0 182.5h.01M222.9 295.1h.01M92.2 201.4h.01M150.0 362.2h.01M295.4 387.2h.01M113.5 163.0h.01M172.2 296.8h.01M83.8 317.5h.01M119.9 147.4h.01M92.5 223.2h.01M82.8 131.3h.01M125.8 281.9h.01M70.8 253.3h.01M144.7 352.7h.01M129.6 130.3h.01M153.2 344.1h.01M91.6 218.4h.01M128.4 161.9h.01M115.6 157.6h.01M166.0 321.1h.01M124.2 374.4h.01M153.9 358.4h.01M138.2 344.4h.01M165.3 282.4h.01M158.5 346.0h.01M161.4 395.0h.01M74.2 224.6h.01M104.1 134.5h.01M246.1 393.9h.01M162.6 247.4h.01M111.1 158.1h.01M119.3 168.0h.01M80.6 252.3h.01M159.4 429.4h.01M70.0 172.8h.01M118.5 127.5h.01M79.9 154.1h.01M59.8 187.2h.01M55.3 194.9h.01M81.6 227.3h.01M112.5 176.8h.01M116.1 177.4h.01M83.2 256.3h.01M151.3 355.1h.01M162.4 354.9h.01M56.7 198.8h.01M114.6 149.0h.01M101.9 139.7h.01M107.0 233.3h.01M95.0 168.2h.01M84.8 350.4h.01M142.5 289.6h.01M203.9 400.2h.01M100.7 172.4h.01M148.3 342.4h.01M66.8 230.6h.01M123.0 266.7h.01M86.7 208.5h.01M164.1 363.7h.01M176.3 297.7h.01M133.3 290.4h.01M140.5 330.4h.01M201.2 197.0h.01M149.1 428.9h.01M97.6 212.8h.01M67.9 246.3h.01M120.8 262.5h.01M161.0 265.4h.01M208.7 370.0h.01M145.2 257.4h.01M111.0 251.9h.01M130.6 367.1h.01M107.0 335.2h.01M261.9 317.4h.01M161.0 254.4h.01M137.3 278.2h.01M90.0 197.8h.01M66.2 204.5h.01M116.3 356.6h.01M68.2 240.9h.01M140.4 258.7h.01M109.3 136.0h.01M87.4 133.4h.01M120.3 135.8h.01M110.7 149.3h.01M82.1 193.7h.01M267.0 409.9h.01M84.3 155.1h.01M83.6 150.4h.01M80.2 148.9h.01M85.3 186.1h.01M100.8 156.5h.01M161.3 310.7h.01M75.8 231.3h.01M84.8 146.0h.01M255.9 395.0h.01M222.9 420.2h.01M256.5 327.8h.01M230.3 272.4h.01M141.9 234.7h.01M107.1 130.3h.01M79.3 247.0h.01M150.5 332.5h.01M118.4 181.6h.01M119.6 121.6h.01M204.1 193.6h.01M110.4 246.0h.01M98.9 169.4h.01M106.9 171.2h.01M85.2 190.4h.01M113.8 128.8h.01M186.2 387.1h.01M113.4 365.7h.01M166.2 214.0h.01M105.7 353.5h.01M202.1 202.4h.01M118.3 141.4h.01M146.7 292.3h.01M237.5 406.8h.01M193.1 292.3h.01M188.7 298.3h.01M110.8 285.4h.01M130.8 335.2h.01M257.4 399.0h.01M124.4 111.2h.01M107.0 151.5h.01M95.1 160.3h.01M88.1 150.1h.01M75.6 242.6h.01M176.6 360.6h.01M106.1 147.6h.01M135.6 211.8h.01M136.6 233.6h.01M99.6 228.8h.01M281.3 400.1h.01M94.4 135.8h.01M87.2 242.6h.01M95.7 306.0h.01M93.4 259.4h.01M241.2 403.1h.01M289.3 395.5h.01M165.3 250.6h.01M283.0 216.2h.01M191.8 398.4h.01M152.8 255.5h.01M76.5 238.6h.01M111.9 132.7h.01M128.1 179.0h.01M101.6 119.1h.01M162.0 319.0h.01M120.9 230.0h.01M66.2 185.2h.01M99.2 307.9h.01M131.8 424.6h.01M132.4 405.2h.01M91.1 273.5h.01M72.4 240.3h.01M153.7 316.8h.01M83.2 173.5h.01M157.6 316.5h.01M312.5 363.2h.01M72.1 248.9h.01M86.2 246.6h.01M109.2 165.2h.01M119.6 270.4h.01M256.3 407.9h.01M256.1 403.3h.01M122.2 127.9h.01M155.1 230.2h.01M143.2 253.6h.01M160.2 281.8h.01M127.6 268.6h.01M188.5 390.9h.01M144.5 380.8h.01M81.5 206.6h.01M131.4 280.6h.01M112.1 153.8h.01M209.7 381.2h.01M124.6 137.6h.01M155.2 224.6h.01M140.2 428.5h.01M254.5 412.2h.01M109.2 144.8h.01M190.1 303.3h.01M105.8 363.3h.01M98.9 135.2h.01M136.6 282.8h.01M107.3 238.2h.01M149.8 235.8h.01M98.2 151.3h.01M147.3 253.5h.01M95.6 227.7h.01M251.8 399.7h.01M183.1 405.7h.01M149.0 284.7h.01M94.5 214.7h.01M81.9 306.4h.01M211.4 193.7h.01M90.8 121.6h.01M259.8 353.4h.01M110.7 140.1h.01M181.4 284.8h.01M210.5 375.8h.01M184.4 300.9h.01M121.8 421.8h.01M93.9 164.6h.01M88.6 212.2h.01M67.3 251.2h.01M71.6 244.4h.01M72.4 220.8h.01M162.0 296.3h.01M261.4 407.9h.01M90.5 207.6h.01M208.7 227.5h.01M195.4 382.2h.01M259.4 385.4h.01M115.2 263.6h.01M85.1 320.6h.01M89.0 144.6h.01M151.8 262.7h.01M92.1 266.7h.01M102.9 167.1h.01M222.8 393.4h.01M303.4 338.7h.01M142.2 410.9h.01M91.7 116.3h.01M102.8 125.9h.01M83.7 160.2h.01M169.9 346.3h.01M123.6 179.3h.01M129.7 126.8h.01M101.9 149.0h.01M141.7 230.4h.01M157.5 285.0h.01M187.4 399.0h.01M156.5 340.8h.01M76.2 251.2h.01M155.3 311.8h.01M134.4 215.9h.01M150.0 192.3h.01M220.0 194.3h.01M205.5 209.7h.01M123.0 313.4h.01M126.4 386.5h.01M168.5 324.1h.01M136.9 186.3h.01M117.9 267.1h.01M127.5 365.1h.01M117.4 173.5h.01M138.0 386.3h.01M79.6 209.8h.01M259.0 305.0h.01M130.3 265.9h.01M144.1 212.3h.01M203.3 297.9h.01M100.7 130.1h.01M255.4 369.6h.01M153.9 428.9h.01M145.7 309.0h.01M136.1 382.1h.01M150.5 423.5h.01M71.5 216.2h.01M260.7 310.6h.01M134.7 337.1h.01M147.5 243.7h.01M118.9 177.1h.01M92.2 330.2h.01M119.4 159.3h.01M226.9 232.3h.01M173.1 349.7h.01M97.6 347.4h.01M127.1 142.5h.01M129.7 261.2h.01M136.4 333.6h.01M72.5 228.2h.01M252.1 380.1h.01M184.8 363.2h.01M57.8 202.9h.01M139.6 402.0h.01M258.6 376.8h.01M109.0 161.7h.01M93.1 210.5h.01M245.2 398.3h.01M160.4 291.2h.01M115.7 145.4h.01M271.8 406.2h.01M170.4 281.0h.01M99.7 180.5h.01M110.5 240.7h.01M153.7 258.7h.01M135.2 347.6h.01M117.3 163.2h.01M118.2 376.4h.01M126.8 317.4h.01M105.5 227.6h.01M96.8 319.8h.01M96.7 157.0h.01M125.8 176.4h.01M124.0 160.6h.01M94.2 231.2h.01M81.9 201.8h.01M154.4 241.8h.01M132.9 184.8h.01M64.3 173.1h.01M297.9 377.6h.01M89.5 202.9h.01M249.3 361.2h.01M134.9 259.1h.01M110.0 258.7h.01M205.3 223.4h.01M146.6 333.1h.01M68.9 192.4h.01M72.4 177.1h.01M128.2 170.3h.01M88.6 221.6h.01M83.9 230.1h.01M86.8 194.5h.01M112.0 216.0h.01M117.3 353.3h.01M98.8 145.5h.01M165.8 227.4h.01M317.5 359.2h.01M134.1 321.2h.01M239.9 278.0h.01M250.8 403.4h.01M198.4 296.6h.01M201.8 213.2h.01M144.7 358.0h.01M77.3 165.5h.01M142.0 281.9h.01M283.9 210.1h.01M120.8 153.5h.01M120.9 235.1h.01M100.7 216.4h.01M92.9 149.3h.01M139.7 325.9h.01M256.0 331.4h.01M54.6 173.6h.01M232.1 372.0h.01M92.7 175.4h.01M217.4 231.3h.01M128.6 321.6h.01M122.4 142.6h.01M195.8 302.4h.01M167.6 361.2h.01M114.5 254.8h.01M80.2 144.1h.01M103.1 180.9h.01M81.5 216.5h.01M162.9 330.8h.01M146.3 232.8h.01M81.8 177.9h.01M132.0 399.9h.01M102.6 232.1h.01M118.0 116.8h.01M151.6 226.3h.01M252.3 385.0h.01M252.2 392.0h.01M97.2 177.4h.01M177.3 410.1h.01M60.9 206.0h.01M192.6 401.7h.01M193.5 207.1h.01M128.8 396.0h.01M156.3 424.9h.01M107.4 249.0h.01M138.3 287.5h.01M156.1 336.6h.01M103.0 153.4h.01M152.5 212.5h.01M120.1 211.2h.01M61.3 210.6h.01M218.9 416.6h.01M231.5 417.1h.01M87.5 172.2h.01M128.1 401.6h.01M251.9 372.2h.01M141.8 207.8h.01M108.1 281.6h.01M301.9 370.6h.01M181.2 369.7h.01M195.5 392.2h.01M156.8 361.1h.01M206.7 379.9h.01M283.8 204.7h.01M151.1 231.2h.01M113.7 119.8h.01M176.5 293.0h.01M83.9 303.0h.01M85.2 234.7h.01M92.1 289.9h.01M164.2 335.0h.01M126.1 263.8h.01M109.1 180.2h.01M167.4 317.2h.01M151.5 319.8h.01M86.9 306.9h.01M122.1 220.0h.01M98.4 289.3h.01M250.4 395.9h.01M112.3 357.0h.01M67.0 200.5h.01M90.3 139.5h.01M164.0 269.1h.01M110.2 263.7h.01M130.6 175.0h.01M93.1 255.6h.01M101.2 338.5h.01M239.0 413.5h.01M117.2 419.9h.01M194.6 405.1h.01M109.8 338.8h.01M141.6 347.0h.01M94.7 275.6h.01M81.5 314.3h.01M264.7 313.8h.01M152.9 362.4h.01M96.9 223.7h.01M195.7 396.3h.01M131.6 211.8h.01M80.8 167.1h.01M271.4 319.9h.01M152.5 328.0h.01M166.7 305.5h.01M114.1 243.1h.01M87.8 217.1h.01M228.1 299.2h.01M137.1 425.0h.01M255.1 325.1h.01M183.1 194.1h.01M81.7 126.6h.01M114.8 124.1h.01M98.8 205.4h.01M58.5 171.3h.01M255.6 353.3h.01M97.1 116.4h.01M90.7 252.2h.01M131.0 218.1h.01M218.2 261.4h.01M96.1 208.1h.01M115.2 259.5h.01M148.6 212.0h.01M202.9 374.1h.01M145.3 220.6h.01M229.7 420.8h.01M164.1 326.0h.01M127.3 286.1h.01M124.6 182.6h.01M79.5 139.0h.01M134.6 429.2h.01M140.9 351.4h.01M90.9 214.7h.01M212.4 196.7h.01M152.1 402.0h.01M94.1 144.6h.01M203.2 378.7h.01M142.4 341.9h.01M299.5 336.9h.01M207.0 374.9h.01M88.6 154.4h.01M104.2 163.3h.01M105.2 177.9h.01M117.0 152.5h.01M185.8 394.8h.01M166.5 223.8h.01M256.2 389.3h.01M128.1 272.8h.01M124.8 173.1h.01M83.3 181.9h.01M209.1 198.1h.01M147.2 228.6h.01M159.8 327.9h.01M184.3 414.1h.01M154.5 192.3h.01M150.6 418.4h.01M125.8 223.2h.01M302.1 374.9h.01M144.0 337.8h.01M148.1 328.3h.01M165.4 352.0h.01M154.0 307.5h.01M134.1 263.7h.01M228.7 194.9h.01M181.5 394.6h.01M144.7 423.3h.01M82.5 323.5h.01M115.1 137.6h.01M258.2 343.8h.01M169.7 341.0h.01M275.6 401.9h.01M250.8 388.2h.01M244.0 383.7h.01M120.2 355.6h.01M123.9 131.6h.01M53.7 191.4h.01M237.6 418.2h.01M96.3 129.6h.01M89.0 163.5h.01M105.3 243.5h.01M86.1 252.2h.01M113.2 142.8h.01M297.6 381.8h.01M133.6 375.6h.01M147.5 224.3h.01M302.7 380.5h.01M120.5 359.3h.01M117.2 132.5h.01M148.6 358.1h.01M97.1 123.0h.01M115.5 168.0h.01M177.7 394.5h.01M130.5 222.8h.01M318.0 354.2h.01M76.7 147.5h.01M151.0 348.4h.01M211.6 396.3h.01M160.9 258.3h.01M70.7 207.9h.01M105.4 183.3h.01M125.3 304.3h.01M115.1 172.5h.01M73.6 234.9h.01M225.5 269.6h.01M158.5 307.8h.01M246.0 403.0h.01M127.7 300.5h.01M208.9 399.8h.01M150.5 394.2h.01M147.2 388.6h.01M136.0 329.4h.01M147.1 279.7h.01M124.5 275.0h.01M93.2 246.9h.01M112.1 172.6h.01M254.9 378.5h.01M119.6 369.7h.01M245.7 408.0h.01M151.7 387.6h.01M121.9 176.4h.01M84.6 141.5h.01M119.5 304.9h.01M121.6 308.9h.01M144.8 428.3h.01M123.2 169.1h.01M135.4 274.0h.01M169.9 392.3h.01M78.0 304.3h.01M78.2 181.4h.01M105.6 158.9h.01M215.9 394.1h.01M285.0 195.7h.01M258.2 338.9h.01M177.9 324.2h.01M287.1 328.6h.01M307.5 342.4h.01M106.9 167.9h.01M179.1 277.9h.01M155.4 420.0h.01M65.6 208.6h.01M124.5 148.3h.01M85.5 324.8h.01M92.4 319.9h.01M84.2 205.5h.01M181.1 374.5h.01M159.1 333.2h.01M107.1 155.4h.01M173.1 273.5h.01M111.0 229.0h.01M266.2 319.3h.01M166.6 209.1h.01M95.4 279.1h.01M101.1 176.3h.01M100.1 220.4h.01M99.2 165.5h.01M53.6 187.5h.01M104.2 172.6h.01M207.6 195.3h.01M132.1 285.9h.01M168.3 334.3h.01M143.7 331.4h.01M79.4 241.9h.01M84.5 137.2h.01M166.3 244.4h.01M66.7 168.9h.01M208.9 422.6h.01M179.1 300.3h.01M74.8 255.6h.01M108.1 288.2h.01M173.3 368.2h.01M92.7 325.1h.01M130.7 234.9h.01M156.0 280.0h.01M95.8 219.1h.01M168.0 329.2h.01M111.9 168.0h.01M101.2 184.6h.01M160.0 262.2h.01M151.5 280.8h.01M151.4 243.1h.01M167.5 367.9h.01M193.6 298.5h.01M133.2 345.1h.01M204.8 198.7h.01M64.3 220.0h.01M106.7 254.1h.01M80.2 189.9h.01M100.2 210.1h.01M110.6 220.5h.01M81.0 332.1h.01M70.4 236.8h.01M205.7 404.3h.01M220.6 305.6h.01M108.3 175.6h.01M257.2 335.1h.01M154.8 364.8h.01M75.6 246.4h.01M260.1 347.9h.01M258.1 372.3h.01M96.5 173.0h.01M95.1 200.0h.01M130.6 197.3h.01M79.7 300.4h.01M80.5 213.1h.01M150.4 314.4h.01M126.5 308.9h.01M79.0 172.3h.01M283.7 395.3h.01M123.7 270.4h.01M124.3 215.0h.01M164.0 307.9h.01M166.3 237.1h.01M148.3 352.3h.01M86.5 203.8h.01M89.5 167.8h.01M91.9 385.5h.01M109.8 171.3h.01M91.6 133.2h.01M79.4 162.4h.01M79.1 158.6h.01M258.5 360.9h.01M81.6 197.4h.01M183.2 188.6h.01M168.5 387.7h.01M312.4 357.6h.01M103.7 144.0h.01M234.5 410.4h.01M144.8 286.0h.01M115.7 213.7h.01M86.0 176.8h.01M280.1 328.0h.01M201.5 404.0h.01M131.7 317.7h.01M77.6 235.0h.01M78.5 257.6h.01M150.3 391.0h.01"/>
<path stroke="#1a1a1a" stroke-width="3.40" stroke-linecap="round" fill="none" d="M146.7 362.5h.01M102.3 254.5h.01M127.1 422.4h.01M156.6 255.1h.01M241.2 394.5h.01M131.9 275.1h.01M156.3 264.6h.01M67.2 181.3h.01M282.5 337.0h.01M170.7 304.5h.01M91.0 227.1h.01M118.2 320.6h.01M247.1 390.2h.01M111.8 295.4h.01M108.1 298.6h.01M105.9 203.0h.01M320.0 349.2h.01M115.0 414.5h.01M88.2 327.2h.01M86.5 300.7h.01M121.1 273.4h.01M162.1 211.2h.01M115.9 209.4h.01M146.4 419.1h.01M217.9 390.6h.01M292.1 353.1h.01M143.3 276.8h.01M114.8 313.4h.01M224.3 204.0h.01M145.3 304.2h.01M122.0 199.7h.01M118.3 316.5h.01M103.2 356.3h.01M191.2 394.3h.01M107.8 294.3h.01M266.3 404.8h.01M102.8 310.7h.01M127.4 410.9h.01M120.8 206.5h.01M104.6 199.4h.01M157.2 320.8h.01M112.9 328.7h.01M261.6 371.0h.01M295.3 366.1h.01M217.7 292.8h.01M125.2 404.4h.01M158.6 218.2h.01M58.8 179.1h.01M76.8 203.2h.01M307.0 355.3h.01M175.1 391.4h.01M64.9 189.9h.01M146.9 384.5h.01M294.5 347.7h.01M113.1 370.6h.01M156.3 330.4h.01M103.3 274.8h.01M303.3 362.1h.01M107.7 404.2h.01M139.1 321.1h.01M82.3 223.9h.01M98.7 285.5h.01M288.2 341.7h.01M98.0 201.1h.01M287.6 345.2h.01M159.5 223.8h.01M108.4 269.2h.01M148.8 259.9h.01M84.9 330.3h.01M104.5 271.2h.01M134.2 414.8h.01M140.7 269.9h.01M108.5 303.0h.01M188.1 383.6h.01M243.4 335.7h.01M88.5 349.5h.01M117.0 402.9h.01M149.0 275.0h.01M117.3 295.9h.01M307.3 364.0h.01M91.3 339.1h.01M122.8 321.7h.01M288.7 336.8h.01M151.2 253.4h.01M80.7 232.1h.01M284.4 346.6h.01M97.8 247.1h.01M122.9 287.8h.01M204.4 370.4h.01M109.1 224.4h.01M162.5 216.2h.01M163.4 370.3h.01M299.6 341.4h.01M100.2 240.5h.01M117.4 301.0h.01M116.6 188.4h.01M285.4 334.2h.01M93.6 236.0h.01M248.9 370.8h.01M97.9 355.4h.01M106.0 284.6h.01M89.5 247.6h.01M106.9 216.7h.01M106.2 412.1h.01M57.3 183.1h.01M96.3 239.0h.01M201.4 208.1h.01M94.4 184.9h.01M157.0 243.6h.01M90.4 232.6h.01M267.5 327.5h.01M131.1 304.1h.01M108.7 356.9h.01M158.2 199.6h.01M252.8 334.2h.01M163.4 205.9h.01M86.3 346.7h.01M228.5 206.0h.01M109.5 397.8h.01M262.7 377.0h.01M299.0 363.5h.01M111.2 404.2h.01M295.6 336.4h.01M97.7 273.9h.01M105.3 307.2h.01M282.3 199.5h.01M258.9 314.4h.01M293.4 377.0h.01M143.4 318.5h.01M132.0 349.5h.01M129.9 345.6h.01M78.5 223.7h.01M129.3 194.8h.01M62.2 200.4h.01M290.1 348.6h.01M100.6 297.5h.01M118.7 276.0h.01M153.6 323.2h.01M95.1 263.0h.01M128.1 313.2h.01M102.7 365.9h.01M108.0 189.8h.01M121.7 283.1h.01M250.4 375.5h.01M94.6 394.5h.01M157.1 259.7h.01M104.5 278.5h.01M156.7 211.8h.01M134.6 420.7h.01M288.4 352.6h.01M89.2 369.1h.01M143.0 322.9h.01M137.4 190.4h.01M83.9 169.5h.01M133.5 189.2h.01M300.6 352.6h.01M261.6 399.5h.01M82.4 336.4h.01M149.8 309.1h.01M108.4 365.4h.01M300.6 359.6h.01M69.1 188.3h.01M103.2 248.8h.01M137.4 353.6h.01M254.9 356.7h.01M104.3 295.9h.01M138.0 356.9h.01M126.9 219.0h.01M160.9 337.4h.01M96.5 298.2h.01M125.7 417.3h.01M60.2 195.9h.01M292.1 338.5h.01M278.6 202.7h.01M261.3 395.8h.01M254.7 341.5h.01M91.8 180.9h.01M290.1 388.4h.01M108.4 201.0h.01M108.1 184.9h.01M110.4 368.6h.01M114.5 318.9h.01M106.1 273.8h.01M120.3 336.4h.01M136.3 377.1h.01M301.5 178.9h.01M222.0 265.7h.01M109.5 192.8h.01M106.5 401.8h.01M144.2 269.7h.01M83.5 239.6h.01M81.0 310.6h.01M102.9 281.9h.01M263.5 327.0h.01M131.6 410.0h.01M97.7 256.1h.01M95.7 193.1h.01M300.8 344.8h.01M102.3 304.4h.01M76.4 220.4h.01M272.0 329.3h.01M111.2 410.3h.01M244.1 387.4h.01M133.0 313.6h.01M100.9 276.1h.01M139.9 274.0h.01M72.0 195.6h.01M113.8 186.3h.01M219.5 298.7h.01M131.2 326.1h.01M72.1 199.5h.01M284.1 330.4h.01M118.3 201.4h.01M254.2 364.5h.01M110.5 290.9h.01M107.4 315.4h.01M69.3 225.8h.01M100.8 269.9h.01M305.0 351.1h.01M90.9 183.7h.01M296.5 344.2h.01M98.1 234.2h.01M307.0 359.4h.01M245.5 343.1h.01M112.1 271.5h.01M70.7 257.9h.01M145.0 193.3h.01M278.7 335.1h.01M77.9 308.5h.01M113.4 400.7h.01M194.1 410.4h.01M125.5 325.1h.01M97.8 270.7h.01M288.7 360.3h.01M226.6 380.5h.01M57.0 187.5h.01M135.2 302.1h.01M105.6 323.4h.01M88.1 296.9h.01M111.2 311.3h.01M82.9 340.4h.01M133.3 370.8h.01M139.5 374.4h.01M136.6 270.4h.01M254.0 360.6h.01M135.1 409.7h.01M123.6 196.2h.01M114.3 225.1h.01M215.5 193.5h.01M86.6 225.6h.01M124.1 413.1h.01M277.9 343.9h.01M305.4 346.4h.01M114.8 291.9h.01M121.9 278.4h.01M116.1 193.2h.01M147.8 204.7h.01M158.6 267.6h.01M270.7 323.4h.01M174.0 277.8h.01M109.6 400.9h.01M126.1 347.9h.01M165.1 274.3h.01M160.0 232.2h.01M98.9 263.5h.01M94.8 179.5h.01M82.8 243.6h.01M103.7 213.2h.01M95.6 288.5h.01M119.5 411.2h.01M87.7 363.7h.01M111.5 315.6h.01M107.2 206.6h.01M110.7 326.3h.01M105.0 221.3h.01M102.7 203.9h.01M81.7 261.3h.01M110.9 319.3h.01M154.0 333.2h.01M84.6 214.9h.01M93.7 345.3h.01M138.2 348.8h.01M67.3 196.7h.01M95.3 251.1h.01M115.7 369.4h.01M167.1 372.8h.01M294.6 350.9h.01M267.5 331.4h.01M74.4 206.8h.01M140.4 421.1h.01M132.5 269.8h.01M100.5 266.5h.01M97.9 162.3h.01M147.3 320.3h.01M81.0 236.9h.01M76.5 209.2h.01M109.2 323.4h.01M76.0 184.7h.01M100.0 259.7h.01M288.4 332.3h.01M229.9 376.7h.01M285.7 339.1h.01M193.4 202.2h.01M298.3 356.7h.01M98.4 190.4h.01M88.5 332.0h.01M89.0 322.1h.01M86.5 353.5h.01M117.5 332.7h.01M277.3 396.9h.01M157.6 303.4h.01M73.8 212.1h.01M159.3 214.6h.01M116.9 328.7h.01M127.6 277.9h.01M120.0 216.0h.01M302.6 366.4h.01M94.5 196.7h.01M154.7 251.0h.01M124.0 186.8h.01M147.2 208.2h.01M302.8 356.2h.01M109.9 414.6h.01M123.4 190.2h.01M149.6 201.1h.01M316.2 345.7h.01M141.3 355.8h.01M158.7 247.7h.01M118.3 311.8h.01M252.6 329.0h.01M127.0 344.5h.01M87.1 338.4h.01M120.5 185.0h.01M211.5 210.1h.01M107.4 327.4h.01M136.3 340.8h.01M163.9 240.6h.01M87.4 181.9h.01M90.6 352.6h.01M260.1 381.0h.01M308.8 349.3h.01M115.2 373.9h.01M141.6 265.4h.01M116.5 197.4h.01M139.9 416.1h.01M156.3 326.0h.01M145.0 265.5h.01M260.9 388.9h.01M144.9 326.1h.01M100.5 294.0h.01M107.2 211.0h.01M124.4 209.6h.01M130.5 418.7h.01M105.9 195.7h.01M124.7 398.8h.01M119.7 373.1h.01M121.0 384.0h.01M126.9 336.4h.01M129.2 191.9h.01M250.7 364.5h.01M159.4 240.0h.01M283.0 342.3h.01M261.8 358.2h.01M128.9 348.8h.01M99.4 251.3h.01M150.9 366.4h.01M68.5 221.1h.01M100.8 279.2h.01M136.7 306.7h.01M100.7 405.9h.01M87.6 238.8h.01M83.5 344.1h.01M161.3 366.7h.01M110.6 188.2h.01M78.8 205.5h.01M141.0 192.5h.01M140.5 188.0h.01M116.4 271.8h.01M152.5 276.9h.01M297.9 350.4h.01M93.6 389.3h.01M171.6 371.9h.01M149.7 250.4h.01M98.4 351.3h.01M154.3 196.6h.01M98.3 196.1h.01M142.3 376.0h.01M105.1 191.6h.01M135.2 198.0h.01M104.5 318.0h.01M100.8 358.8h.01M283.0 389.6h.01M76.4 188.3h.01M63.7 214.4h.01M95.1 243.1h.01M266.4 323.6h.01M286.8 390.7h.01M107.7 277.3h.01M296.0 360.5h.01M111.1 184.6h.01M165.8 218.3h.01M173.7 375.4h.01M121.8 403.2h.01M140.0 336.7h.01M204.9 205.3h.01M139.8 302.7h.01M223.5 301.4h.01M164.4 230.0h.01M123.7 329.7h.01M298.2 347.0h.01M94.5 189.7h.01M114.8 324.9h.01M255.9 349.7h.01M128.4 209.3h.01M296.7 370.6h.01M190.4 381.2h.01M246.8 374.4h.01M152.1 208.6h.01M136.8 266.7h.01M285.6 350.3h.01M104.1 300.7h.01M169.8 276.4h.01M148.3 265.2h.01M135.4 325.1h.01M89.0 341.8h.01M145.6 272.9h.01M78.8 317.4h.01M92.3 312.0h.01M94.5 336.9h.01M101.1 201.3h.01M72.6 187.2h.01M176.7 371.2h.01M101.3 362.5h.01M96.2 294.2h.01M111.4 210.2h.01M260.2 392.4h.01M196.4 400.5h.01M113.4 396.6h.01M98.8 281.6h.01M154.6 268.5h.01M279.7 392.3h.01M105.8 359.5h.01M149.7 295.5h.01M77.5 193.0h.01M113.4 304.1h.01M183.1 389.9h.01M105.2 258.9h.01M114.0 282.3h.01M141.5 360.8h.01M172.5 301.4h.01M274.0 346.7h.01M138.8 262.7h.01M289.7 380.6h.01M113.0 299.3h.01M291.7 334.5h.01M261.1 403.5h.01M119.7 350.7h.01M131.0 342.2h.01M62.6 186.2h.01M122.7 293.1h.01M271.2 334.0h.01M208.4 207.2h.01M111.9 195.3h.01M157.8 235.3h.01M103.9 262.9h.01M89.6 177.7h.01M88.6 187.1h.01M89.4 314.3h.01M163.9 278.5h.01M271.8 397.6h.01M198.1 199.9h.01M141.7 310.4h.01M132.9 208.3h.01M88.6 310.6h.01M149.4 324.1h.01M164.4 222.0h.01M95.1 153.2h.01M130.2 414.4h.01M155.4 246.4h.01M284.7 362.2h.01M123.5 341.0h.01M67.3 216.6h.01M291.9 345.1h.01M120.3 194.7h.01M133.0 195.7h.01M121.3 332.3h.01M101.5 352.8h.01M138.3 197.7h.01M252.8 323.9h.01M91.0 335.2h.01M128.2 407.0h.01M293.6 382.0h.01M100.4 244.5h.01M101.6 188.4h.01M92.2 187.2h.01M87.5 230.0h.01M102.3 285.5h.01M193.6 389.1h.01M123.5 337.4h.01M298.7 367.5h.01M61.4 191.3h.01M100.9 272.9h.01M150.0 384.1h.01M112.9 322.3h.01M92.5 341.8h.01M84.6 212.1h.01M130.8 308.7h.01M177.6 376.4h.01M127.8 328.9h.01M255.5 310.2h.01M97.5 186.7h.01M164.7 385.9h.01M204.7 408.6h.01M142.1 314.7h.01M137.9 312.2h.01M100.3 291.3h.01M91.7 193.9h.01M180.8 380.6h.01M154.3 262.1h.01M276.1 324.7h.01M80.6 220.4h.01M89.6 236.1h.01M160.6 228.8h.01M207.4 202.0h.01M239.2 398.2h.01M113.5 406.4h.01M96.4 267.4h.01M99.1 402.6h.01M91.9 171.8h.01M62.0 182.3h.01M254.7 320.2h.01M124.4 204.3h.01M71.8 203.4h.01M118.1 285.1h.01M119.8 190.1h.01M103.4 408.9h.01M251.9 348.2h.01M149.3 256.9h.01M127.3 340.5h.01M94.2 204.5h.01M88.9 304.5h.01M89.9 190.8h.01M182.2 411.0h.01M192.8 384.9h.01M157.7 276.4h.01M120.1 416.0h.01M103.2 207.8h.01M161.5 300.4h.01M108.9 273.4h.01M85.9 199.0h.01M131.0 339.0h.01M248.4 327.5h.01M102.1 288.9h.01M101.1 160.5h.01M113.4 190.8h.01M85.7 334.8h.01M121.0 327.0h.01M105.0 288.0h.01M115.2 308.1h.01M163.5 233.9h.01M125.5 192.5h.01M151.1 239.5h.01M143.2 416.3h.01M131.9 331.0h.01M142.4 293.4h.01M122.5 317.5h.01M114.1 200.7h.01M122.4 298.5h.01M251.5 368.4h.01M292.7 358.0h.01M144.1 189.8h.01M54.3 178.8h.01M303.6 342.4h.01M290.5 384.6h.01M84.7 222.1h.01M82.0 327.9h.01M157.7 227.6h.01M151.0 246.2h.01M136.7 417.3h.01M127.9 185.9h.01M94.3 271.2h.01M160.9 243.6h.01M86.1 342.4h.01M91.7 293.5h.01M106.6 311.8h.01M126.5 332.8h.01M64.1 194.7h.01M104.9 291.6h.01M109.7 307.6h.01M112.5 181.7h.01M129.3 188.8h.01M84.7 164.9h.01M274.6 337.2h.01M124.7 394.4h.01M124.3 362.3h.01M103.9 267.7h.01M235.4 368.0h.01M77.5 213.7h.01M106.9 265.4h.01M180.3 304.3h.01M68.3 177.4h.01M120.5 399.5h.01M116.2 229.8h.01M95.6 282.7h.01M281.6 350.6h.01M239.5 349.3h.01M115.4 277.9h.01M204.3 366.4h.01M222.0 386.0h.01M111.5 279.4h.01M128.0 205.8h.01M99.4 301.6h.01M138.0 293.3h.01M241.5 344.2h.01M171.8 388.7h.01M281.3 332.5h.01M107.7 319.6h.01M160.4 270.8h.01M161.5 237.0h.01M148.7 262.8h.01M162.5 225.5h.01M98.0 277.2h.01M114.5 287.3h.01M296.7 374.1h.01M57.6 191.6h.01M149.6 304.0h.01M101.5 193.1h.01M118.9 290.3h.01M215.5 210.7h.01M292.5 342.0h.01M138.0 412.3h.01M137.3 316.9h.01M75.5 261.3h.01M178.7 390.0h.01M314.3 350.3h.01M88.4 317.6h.01M269.8 401.1h.01M296.1 340.3h.01M155.9 238.7h.01M159.0 251.2h.01M83.2 209.6h.01M73.8 191.8h.01M152.2 266.3h.01M127.6 296.0h.01M254.8 345.6h.01M141.9 306.4h.01M125.6 233.0h.01M77.5 313.0h.01M116.5 184.5h.01M91.7 381.2h.01M161.6 220.6h.01M135.0 351.3h.01M153.9 234.7h.01M105.3 187.5h.01M75.2 216.4h.01M276.9 329.8h.01M218.4 412.3h.01M144.2 261.5h.01M79.6 321.2h.01M118.5 324.4h.01M127.8 291.0h.01M311.2 345.8h.01M262.0 322.1h.01M295.6 354.6h.01M113.0 267.8h.01M73.3 181.0h.01M156.8 221.0h.01"/>
<path stroke="#1a1a1a" stroke-width="3.92" stroke-linecap="round" fill="none" d="M266.5 389.3h.01M102.5 372.0h.01M132.9 362.8h.01M111.4 373.1h.01M165.0 382.5h.01M241.6 352.9h.01M112.8 383.1h.01M142.1 203.6h.01M272.9 380.8h.01M106.2 397.7h.01M155.9 382.4h.01M161.8 382.6h.01M124.4 390.4h.01M144.1 364.3h.01M107.8 407.6h.01M276.5 383.0h.01M109.6 330.9h.01M108.0 393.7h.01M242.8 348.1h.01M116.0 394.0h.01M90.3 300.5h.01M130.2 200.0h.01M281.6 369.3h.01M284.4 377.0h.01M94.7 379.7h.01M288.6 356.5h.01M144.8 204.0h.01M112.9 378.3h.01M259.8 326.5h.01M137.0 371.8h.01M148.6 299.9h.01M145.7 196.5h.01M110.5 198.6h.01M271.1 370.9h.01M124.4 359.1h.01M127.3 351.6h.01M118.7 346.5h.01M141.5 371.4h.01M123.5 356.1h.01M92.2 372.2h.01M92.6 297.4h.01M274.4 352.2h.01M267.8 394.0h.01M190.4 387.2h.01M177.1 382.1h.01M118.0 280.5h.01M275.5 361.0h.01M292.6 371.4h.01M275.4 376.1h.01M131.8 352.9h.01M91.4 304.0h.01M145.4 373.1h.01M134.8 205.2h.01M89.5 345.3h.01M271.2 350.0h.01M267.4 364.6h.01M125.6 351.7h.01M169.5 380.0h.01M171.5 383.7h.01M78.3 217.5h.01M269.7 358.4h.01M89.9 360.4h.01M267.4 349.4h.01M258.6 319.6h.01M96.5 368.5h.01M266.8 385.6h.01M279.9 383.4h.01M152.4 373.2h.01M133.0 294.5h.01M123.1 408.3h.01M92.5 308.6h.01M116.9 390.6h.01M282.9 358.6h.01M113.6 332.3h.01M97.9 375.9h.01M134.9 358.4h.01M268.2 337.1h.01M280.9 346.1h.01M155.5 378.3h.01M150.2 270.5h.01M153.5 303.4h.01M106.4 382.2h.01M98.8 365.8h.01M234.3 414.2h.01M122.8 352.8h.01M263.7 366.4h.01M147.8 368.9h.01M213.4 203.6h.01M143.6 199.6h.01M109.6 380.9h.01M138.7 204.5h.01M311.0 353.3h.01M109.0 385.5h.01M126.4 200.6h.01M274.1 342.0h.01M120.6 391.6h.01M159.3 204.1h.01M261.5 331.1h.01M152.4 200.0h.01M129.9 355.3h.01M114.3 341.5h.01M70.7 183.5h.01M151.4 204.9h.01M91.3 365.2h.01M119.0 406.5h.01M98.6 385.9h.01M263.3 362.6h.01M280.4 379.4h.01M279.1 339.8h.01M242.2 390.7h.01M152.5 299.3h.01M148.1 268.2h.01M96.0 372.5h.01M146.9 296.7h.01M143.0 368.0h.01M270.1 340.5h.01M141.5 196.3h.01M280.7 365.5h.01M277.7 368.3h.01M159.3 208.4h.01M263.9 382.3h.01M147.3 365.9h.01M275.4 393.4h.01M98.0 388.8h.01M152.2 379.7h.01M269.2 354.3h.01M219.4 200.9h.01M156.0 371.0h.01M266.6 378.9h.01M250.6 357.0h.01M112.6 387.6h.01M94.6 351.6h.01M247.0 382.0h.01M144.8 300.6h.01M174.9 384.9h.01M261.6 342.1h.01M151.4 369.2h.01M156.8 270.9h.01M158.6 383.8h.01M168.5 301.3h.01M286.5 385.0h.01M214.1 411.1h.01M103.0 393.5h.01M140.8 364.9h.01M264.3 392.3h.01M210.8 201.5h.01M265.7 396.7h.01M273.2 387.0h.01M104.6 400.2h.01M89.6 356.4h.01M106.4 378.6h.01M288.3 374.7h.01M100.6 391.2h.01M282.6 385.6h.01M164.7 301.9h.01M123.7 349.7h.01M134.5 309.9h.01M279.5 387.5h.01M275.7 357.7h.01M264.7 373.8h.01M160.3 376.6h.01M285.8 380.5h.01M246.5 333.6h.01M280.8 361.8h.01M103.0 397.5h.01M93.4 356.1h.01M167.2 278.2h.01M269.9 386.6h.01M137.0 201.3h.01M270.0 362.0h.01M138.1 193.9h.01M277.5 351.5h.01M108.2 371.9h.01M159.1 273.9h.01M131.7 204.2h.01M151.2 376.4h.01M247.3 337.7h.01M137.4 208.1h.01M115.8 344.9h.01M152.6 248.6h.01M128.8 361.3h.01M115.8 409.5h.01M275.0 366.2h.01M164.5 378.6h.01M119.9 343.5h.01M98.6 368.8h.01M265.5 369.7h.01M289.1 377.3h.01M103.7 404.4h.01M275.5 371.7h.01M102.6 378.4h.01M100.2 382.9h.01M210.7 205.3h.01M292.6 362.7h.01M268.6 368.2h.01M115.7 349.3h.01M99.0 373.5h.01M112.0 334.9h.01M278.1 348.3h.01M272.6 389.9h.01M265.5 400.5h.01M155.5 274.1h.01M163.5 374.5h.01M278.6 359.4h.01M103.8 388.5h.01M280.8 375.7h.01M137.3 363.3h.01M114.0 205.0h.01M148.7 381.2h.01M213.5 199.8h.01M100.6 371.8h.01M132.9 199.8h.01M136.0 195.2h.01M271.6 393.6h.01M132.9 298.5h.01M284.0 372.4h.01M111.4 275.8h.01M149.5 196.6h.01M232.9 205.9h.01M251.6 352.5h.01M255.8 316.2h.01M155.6 206.7h.01M276.3 389.5h.01M126.5 354.8h.01M273.0 368.5h.01M286.4 369.6h.01M64.0 177.9h.01M153.1 383.5h.01M116.5 383.5h.01M157.0 299.6h.01M263.7 349.9h.01M112.3 391.3h.01M276.8 379.3h.01M263.6 386.7h.01M273.6 363.3h.01M134.9 192.7h.01M153.0 272.1h.01M159.2 373.3h.01M101.5 197.5h.01M272.6 359.6h.01M269.4 390.5h.01M156.1 367.6h.01M279.1 372.8h.01M155.2 202.4h.01M148.0 376.0h.01M77.0 200.0h.01M248.4 379.7h.01M263.5 354.9h.01M114.5 274.5h.01M102.0 400.8h.01M104.9 391.6h.01M266.2 360.4h.01M261.9 336.4h.01M162.1 274.4h.01M100.0 377.5h.01M148.8 372.5h.01M143.9 296.7h.01M301.6 348.6h.01M248.0 377.3h.01M102.7 381.1h.01M141.1 298.3h.01M180.1 385.9h.01M284.7 355.4h.01M113.2 338.3h.01M116.3 387.3h.01M160.8 278.3h.01M168.7 376.5h.01M118.9 340.5h.01M137.3 360.2h.01M129.3 352.2h.01M284.8 366.3h.01M92.3 348.5h.01M219.7 204.6h.01M98.2 371.2h.01M210.0 408.6h.01M153.4 370.6h.01M93.3 361.3h.01M155.6 374.8h.01M103.9 376.1h.01M281.3 354.5h.01M173.6 379.7h.01M120.8 387.5h.01M96.2 359.0h.01M273.5 356.0h.01M116.7 398.5h.01M159.1 379.6h.01M97.6 362.4h.01M288.6 372.1h.01M268.2 373.8h.01M145.1 376.5h.01M106.6 388.2h.01M272.1 326.2h.01M100.9 395.1h.01M132.0 192.8h.01M291.9 366.3h.01M100.5 369.0h.01M95.2 364.8h.01M133.5 355.3h.01M253.2 338.3h.01M98.0 380.0h.01M93.7 368.5h.01M129.1 202.5h.01M131.6 358.6h.01M268.9 345.0h.01M240.2 357.4h.01M175.4 387.9h.01M274.8 332.7h.01M266.4 353.2h.01M276.5 385.8h.01M215.3 206.5h.01M216.2 202.0h.01M247.5 385.6h.01M289.4 368.4h.01M283.2 382.1h.01M106.5 374.8h.01M138.5 367.9h.01M94.5 375.7h.01M264.2 345.4h.01M97.1 398.4h.01M96.3 391.7h.01M109.8 376.4h.01M116.3 336.9h.01M59.8 175.3h.01M110.8 204.8h.01M76.3 196.6h.01M120.2 395.5h.01M95.1 301.2h.01M134.9 366.8h.01M127.7 357.7h.01M137.6 297.9h.01M99.9 398.4h.01M147.7 378.9h.01M270.5 378.2h.01M140.3 200.7h.01M116.3 379.7h.01M106.2 368.5h.01M123.7 344.5h.01M108.8 389.8h.01M101.9 386.4h.01M98.1 394.6h.01M243.4 339.7h.01M134.4 201.8h.01M105.1 395.1h.01M175.8 303.1h.01M93.7 303.9h.01M265.1 340.6h.01M266.6 357.1h.01M146.9 200.4h.01M272.0 374.5h.01M265.1 334.5h.01M121.8 347.5h.01M277.5 363.5h.01M111.0 394.4h.01M257.7 322.9h.01M167.9 383.2h.01M104.7 384.7h.01M247.1 330.6h.01M297.8 176.7h.01M117.2 205.2h.01M268.7 382.5h.01M103.0 369.0h.01M101.5 374.9h.01M159.5 369.9h.01M288.5 364.3h.01M237.7 362.8h.01M104.9 372.2h.01M271.0 365.2h.01M95.4 384.7h.01M271.6 354.3h.01M145.3 370.2h.01M272.5 384.0h.01M121.5 203.0h.01M278.1 355.5h.01"/>
</svg>