<svg xmlns="http://www.w3.org/2000/svg" viewBox="0 0 360 432" role="img">
<path stroke="#1a1a1a" stroke-width="1.51" stroke-linecap="round" fill="none" d="M180.5 128.4h.01M37.7 354.6h.01M128.5 428.4h.01M199.8 134.2h.01M189.0 136.4h.01M66.8 353.5h.01M170.7 428.1h.01M220.1 102.3h.01M51.9 381.0h.01M227.5 133.5h.01M195.6 142.0h.01M251.1 208.8h.01M204.8 108.9h.01M180.4 136.4h.01M61.7 360.0h.01M191.2 127.9h.01M50.8 358.9h.01M57.7 339.8h.01M51.2 344.3h.01M45.6 350.1h.01M358.6 116.7h.01M64.3 334.5h.01M218.4 128.9h.01M158.7 428.5h.01M278.9 417.4h.01M214.3 110.4h.01M192.4 101.2h.01M111.7 430.5h.01M44.1 368.5h.01M198.5 91.3h.01M62.9 376.2h.01M252.0 351.0h.01M57.2 367.3h.01M25.1 344.6h.01M76.1 385.7h.01M60.5 326.0h.01M64.2 344.5h.01M205.2 217.4h.01M118.5 419.9h.01M209.6 132.8h.01M186.9 111.0h.01M139.7 428.1h.01M204.1 143.9h.01M71.8 377.5h.01M62.1 391.1h.01M358.6 283.7h.01M200.8 100.9h.01M172.2 135.4h.01M49.3 336.1h.01M67.8 368.5h.01M148.9 428.0h.01M34.9 343.8h.01M210.3 100.8h.01M201.9 126.3h.01M196.0 111.0h.01M190.7 264.2h.01M261.0 356.7h.01"/>
<path stroke="#1a1a1a" stroke-width="1.91" stroke-linecap="round" fill="none" d="M209.6 428.5h.01M190.4 414.8h.01M183.6 77.3h.01M216.5 71.9h.01M163.2 89.4h.01M202.3 202.6h.01M281.2 411.0h.01M241.7 110.9h.01M203.5 152.5h.01M192.6 66.5h.01M260.1 229.2h.01M176.9 142.8h.01M265.6 226.6h.01M270.4 196.5h.01M196.4 73.6h.01M205.6 207.9h.01M166.4 199.7h.01M239.9 199.1h.01M164.9 123.8h.01M144.9 201.1h.01M0.4 274.8h.01M204.0 400.6h.01M253.4 223.8h.01M237.5 103.6h.01M172.3 119.7h.01M240.3 125.5h.01M213.9 182.2h.01M218.4 194.9h.01M180.7 87.5h.01M180.7 120.3h.01M216.1 93.4h.01M266.2 201.4h.01M208.8 70.6h.01M228.7 195.3h.01M219.1 138.0h.01M151.4 206.4h.01M73.2 362.3h.01M177.7 77.1h.01M232.8 226.3h.01M223.7 428.7h.01M210.3 220.8h.01M246.7 152.1h.01M152.2 224.3h.01M157.8 186.6h.01M187.5 93.3h.01M224.7 123.2h.01M170.1 142.2h.01M269.1 422.3h.01M242.5 205.7h.01M228.7 102.2h.01M205.4 194.7h.01M206.6 117.2h.01M251.1 216.5h.01M105.4 410.6h.01M237.9 133.9h.01M271.8 212.2h.01M209.4 151.2h.01M137.9 204.6h.01M253.6 427.5h.01M192.3 87.6h.01M282.0 186.8h.01M211.8 197.0h.01M232.7 202.8h.01M169.9 190.2h.01M193.6 300.9h.01M174.9 71.2h.01M205.8 420.3h.01M130.7 187.2h.01M170.7 78.1h.01M127.9 210.2h.01M234.1 96.2h.01M186.1 63.5h.01M181.9 308.0h.01M164.1 138.3h.01M252.3 201.8h.01M70.3 315.0h.01M226.2 184.7h.01M203.9 278.2h.01M126.3 421.2h.01M208.1 185.9h.01M0.4 177.1h.01M200.7 67.1h.01M89.2 0.4h.01M210.7 203.4h.01M186.6 268.8h.01M184.0 419.6h.01M157.1 192.5h.01M227.3 83.3h.01M135.5 211.5h.01M231.3 189.2h.01M211.1 124.0h.01M207.1 92.4h.01M221.2 180.1h.01M177.0 0.4h.01M205.1 406.5h.01M235.4 83.6h.01M267.2 218.2h.01M159.6 203.5h.01M223.4 77.4h.01M266.1 262.9h.01M198.2 81.7h.01M196.0 208.1h.01M161.0 408.0h.01M171.0 128.1h.01M220.8 86.1h.01M244.9 103.2h.01M292.2 228.2h.01M233.0 210.7h.01M358.6 202.5h.01M212.9 422.2h.01M145.4 216.2h.01M165.8 422.6h.01M134.4 420.6h.01M263.0 194.8h.01M65.1 320.0h.01M214.5 216.8h.01M162.4 132.0h.01M151.4 212.5h.01M247.8 132.8h.01M158.1 420.6h.01M173.9 91.9h.01M257.1 197.1h.01M200.4 212.0h.01M197.0 219.2h.01M184.4 103.0h.01M200.1 158.7h.01M149.8 193.5h.01M209.6 177.7h.01M190.7 408.2h.01M159.7 197.7h.01M224.8 199.8h.01M260.5 213.1h.01M197.3 150.2h.01M196.3 59.9h.01M221.2 216.5h.01M197.0 308.2h.01M216.7 79.3h.01M178.1 113.1h.01M170.2 110.9h.01M224.0 205.9h.01M278.4 300.6h.01M143.4 209.8h.01M89.5 395.8h.01M212.4 190.4h.01M211.0 211.3h.01M146.4 412.9h.01M192.4 270.1h.01M191.6 421.4h.01M197.2 169.8h.01M131.7 205.7h.01M138.9 218.1h.01M208.2 266.4h.01M135.7 192.0h.01M259.6 221.3h.01M154.9 413.0h.01M174.3 185.2h.01M197.6 266.9h.01M164.6 193.7h.01M204.0 165.6h.01M165.7 95.8h.01M232.9 125.1h.01M196.5 53.1h.01M188.3 428.1h.01M130.2 200.3h.01M198.8 419.8h.01M358.6 161.8h.01M259.4 205.1h.01M202.3 37.7h.01M198.3 197.6h.01M190.0 146.6h.01M188.6 295.6h.01M203.0 269.5h.01M224.7 93.8h.01M267.0 208.1h.01M191.7 313.4h.01M203.7 173.3h.01M153.0 199.5h.01M245.7 428.1h.01M243.6 191.4h.01M249.5 333.8h.01M197.7 273.7h.01M210.8 141.4h.01M233.1 110.1h.01M267.1 367.0h.01M236.3 193.9h.01M0.4 225.3h.01M237.7 186.8h.01M238.2 90.2h.01M171.7 99.8h.01M217.5 209.4h.01M68.6 326.5h.01M142.6 420.3h.01M162.5 415.0h.01M169.4 88.0h.01M142.8 193.7h.01M224.1 110.9h.01M225.0 142.8h.01M230.5 89.5h.01M42.1 340.4h.01M183.4 411.7h.01M242.4 213.5h.01M56.8 351.4h.01M196.1 428.0h.01M164.7 187.3h.01M169.9 416.7h.01M0.4 125.0h.01M223.7 190.2h.01M229.5 116.9h.01M358.6 241.6h.01M216.7 146.0h.01M191.3 79.1h.01M217.0 428.4h.01M182.3 69.9h.01M188.6 72.1h.01M247.1 198.1h.01M197.0 119.8h.01M203.5 180.3h.01M179.9 96.0h.01M273.7 414.6h.01M175.0 83.4h.01M291.9 221.4h.01M202.2 187.5h.01M212.4 85.7h.01M183.7 144.1h.01M198.4 405.1h.01M208.3 273.0h.01M204.9 412.9h.01M218.7 186.4h.01M272.1 223.1h.01M205.0 83.9h.01M157.2 155.7h.01M186.0 83.6h.01M202.8 427.7h.01M55.5 331.2h.01M276.0 217.0h.01M191.8 279.0h.01M187.8 274.6h.01M211.3 416.0h.01M176.6 419.8h.01M180.0 427.8h.01M182.6 259.4h.01M217.8 118.0h.01M165.3 103.5h.01M217.8 202.0h.01M210.1 77.6h.01M99.4 405.4h.01M150.6 420.2h.01M132.5 0.4h.01M261.2 426.7h.01M188.4 119.8h.01M219.2 222.5h.01M222.5 0.4h.01M197.6 412.2h.01M176.7 105.2h.01M226.2 211.5h.01M203.4 75.2h.01M268.6 0.4h.01M286.9 190.4h.01M189.4 56.2h.01"/>
<path stroke="#1a1a1a" stroke-width="2.38" stroke-linecap="round" fill="none" d="M259.8 248.4h.01M151.2 138.5h.01M184.2 51.1h.01M192.0 153.2h.01M238.6 152.5h.01M196.6 42.0h.01M268.9 106.4h.01M240.9 220.1h.01M268.7 133.8h.01M274.7 128.2h.01M189.7 307.2h.01M156.9 219.7h.01M161.7 71.1h.01M156.6 60.8h.01M72.5 222.0h.01M240.9 354.8h.01M162.3 182.0h.01M133.4 403.5h.01M242.9 177.5h.01M212.4 410.7h.01M273.6 251.5h.01M234.4 291.4h.01M255.1 231.1h.01M149.0 79.4h.01M178.9 64.3h.01M238.7 63.6h.01M267.8 171.8h.01M223.6 147.9h.01M209.3 58.3h.01M130.0 194.3h.01M186.3 402.6h.01M174.9 308.2h.01M147.5 110.0h.01M202.8 59.8h.01M148.5 175.6h.01M245.9 223.0h.01M234.2 274.5h.01M194.0 202.7h.01M292.1 193.0h.01M202.2 388.6h.01M179.4 149.9h.01M254.9 109.0h.01M231.2 320.1h.01M176.1 179.9h.01M264.8 123.7h.01M206.4 307.9h.01M213.3 334.3h.01M271.3 146.8h.01M284.5 225.1h.01M172.0 261.9h.01M292.5 187.7h.01M173.4 147.6h.01M167.0 403.2h.01M149.4 158.0h.01M86.3 389.8h.01M120.6 201.6h.01M276.1 108.6h.01M151.4 186.3h.01M85.9 281.1h.01M266.4 244.6h.01M272.8 277.6h.01M271.6 166.8h.01M254.7 151.5h.01M120.9 209.1h.01M224.2 70.7h.01M258.8 320.3h.01M227.0 292.7h.01M256.7 177.8h.01M124.7 197.1h.01M295.8 202.7h.01M260.2 83.6h.01M255.9 245.0h.01M158.8 93.5h.01M194.2 320.3h.01M270.1 305.4h.01M165.0 177.5h.01M146.0 404.3h.01M171.6 196.1h.01M248.2 179.8h.01M291.3 235.5h.01M106.1 403.8h.01M237.2 69.9h.01M229.3 54.0h.01M261.4 181.2h.01M245.5 138.6h.01M181.5 292.8h.01M173.0 405.6h.01M277.0 293.5h.01M174.8 59.3h.01M153.4 152.2h.01M261.2 163.1h.01M261.7 130.3h.01M146.6 74.4h.01M252.1 101.8h.01M168.7 182.1h.01M164.3 65.2h.01M264.7 88.9h.01M185.3 312.9h.01M294.2 209.0h.01M256.4 158.4h.01M177.0 276.5h.01M238.7 76.1h.01M177.0 269.3h.01M177.7 53.7h.01M203.0 313.2h.01M157.7 140.1h.01M275.1 134.8h.01M180.3 184.9h.01M153.8 68.7h.01M193.0 173.8h.01M277.5 232.0h.01M119.9 195.2h.01M275.0 240.8h.01M154.7 133.0h.01M261.4 252.9h.01M271.6 409.4h.01M152.7 107.1h.01M237.5 428.6h.01M279.4 221.4h.01M200.7 223.6h.01M218.8 306.9h.01M250.0 228.8h.01M181.9 298.1h.01M264.3 138.0h.01M230.4 175.3h.01M197.9 397.7h.01M202.5 45.0h.01M150.2 71.5h.01M216.3 278.4h.01M262.4 106.1h.01M173.1 202.4h.01M207.2 64.8h.01M249.0 113.8h.01M191.7 389.5h.01M197.8 279.8h.01M244.2 118.7h.01M156.2 404.4h.01M173.0 266.6h.01M159.3 125.8h.01M157.4 73.7h.01M145.4 230.5h.01M174.7 44.3h.01M276.6 186.5h.01M203.5 394.2h.01M253.3 78.6h.01M158.9 85.5h.01M184.2 264.3h.01M217.4 52.0h.01M138.2 414.3h.01M254.5 84.0h.01M192.7 401.9h.01M278.0 259.8h.01M256.0 183.8h.01M172.0 208.7h.01M138.7 226.3h.01M244.9 90.6h.01M167.6 409.9h.01M189.3 157.7h.01M213.9 298.4h.01M279.4 122.8h.01M228.7 238.1h.01M206.9 159.1h.01M279.8 386.6h.01M242.1 423.1h.01M288.4 249.5h.01M236.8 280.1h.01M209.8 280.3h.01M279.6 115.8h.01M236.5 421.1h.01M233.5 234.3h.01M193.0 187.3h.01M274.6 204.4h.01M152.0 63.5h.01M153.7 96.7h.01M277.3 147.0h.01M152.0 218.2h.01M179.1 41.6h.01M266.3 100.8h.01M277.9 247.0h.01M251.0 191.4h.01M139.8 152.7h.01M125.2 204.1h.01M172.9 50.6h.01M262.5 187.0h.01M271.3 229.9h.01M297.3 189.6h.01M126.4 392.0h.01M272.9 176.1h.01M228.2 277.3h.01M70.4 226.2h.01M231.7 78.6h.01M153.8 126.0h.01M224.0 49.8h.01M248.4 422.0h.01M281.4 136.2h.01M292.5 215.4h.01M244.7 184.5h.01M150.9 101.4h.01M255.8 250.3h.01M163.5 54.7h.01M259.4 263.5h.01M251.3 121.3h.01M280.9 197.7h.01M280.6 181.8h.01M147.0 134.0h.01M280.4 191.8h.01M194.5 159.5h.01M134.1 223.3h.01M182.0 397.8h.01M219.4 65.4h.01M276.6 266.4h.01M140.2 136.6h.01M126.0 215.0h.01M261.1 420.6h.01M172.1 314.2h.01M270.6 111.9h.01M157.7 113.9h.01M118.4 399.4h.01M151.9 113.7h.01M135.0 311.7h.01M166.6 49.9h.01M227.0 329.7h.01M280.8 173.3h.01M202.3 257.7h.01M186.6 257.0h.01M265.0 112.0h.01M220.2 152.8h.01M150.9 407.0h.01M177.8 196.7h.01M230.5 333.9h.01M139.8 186.6h.01M213.5 64.9h.01M212.1 304.7h.01M75.4 154.5h.01M179.1 303.1h.01M251.9 90.4h.01M267.5 273.2h.01M257.7 89.0h.01M225.5 65.0h.01M176.7 400.7h.01M241.7 97.1h.01M231.4 282.1h.01M226.4 298.2h.01M281.5 142.5h.01M220.8 322.5h.01M250.7 184.4h.01M280.4 241.9h.01M236.5 240.0h.01M243.7 69.1h.01M124.0 414.3h.01M125.8 189.4h.01M282.6 276.7h.01M241.6 83.5h.01M278.6 382.9h.01M262.9 268.2h.01M290.4 242.8h.01M270.9 186.7h.01M283.4 260.0h.01M267.7 117.8h.01M277.9 227.0h.01M230.5 73.2h.01M179.0 47.6h.01M242.3 158.0h.01M182.1 58.0h.01M261.7 98.3h.01M193.4 214.0h.01M187.6 214.0h.01M272.9 101.5h.01M208.5 316.7h.01M137.0 198.6h.01M189.9 49.0h.01M274.5 116.5h.01M124.0 409.0h.01M117.2 246.7h.01M223.1 54.4h.01M214.0 274.6h.01M220.8 274.2h.01M134.7 408.9h.01M258.1 123.5h.01M166.9 205.3h.01M265.7 233.8h.01M139.2 403.8h.01M247.5 173.6h.01M217.8 302.3h.01M280.6 270.9h.01M248.2 84.3h.01M244.2 347.0h.01M75.7 312.9h.01M170.8 177.5h.01M268.8 253.5h.01M253.9 128.8h.01M261.4 244.6h.01M271.8 257.4h.01M161.4 59.8h.01M213.3 224.9h.01M158.4 106.8h.01M272.4 157.0h.01M99.4 78.3h.01M149.0 227.8h.01M228.7 218.6h.01M171.8 320.9h.01M215.3 58.0h.01M261.8 93.0h.01M261.5 117.9h.01M280.4 177.4h.01M237.1 117.5h.01M122.3 183.5h.01M85.1 304.4h.01M252.6 140.0h.01M286.3 210.5h.01M213.1 330.2h.01M275.3 171.6h.01M131.5 217.6h.01M257.9 102.9h.01M280.0 400.5h.01M93.4 391.9h.01M197.0 183.6h.01M116.7 204.7h.01M175.8 190.7h.01M171.8 398.6h.01M165.6 82.8h.01M250.0 311.1h.01M111.2 414.9h.01M185.2 152.5h.01M232.0 67.2h.01M231.4 338.8h.01M151.6 91.8h.01M158.4 100.7h.01M205.7 48.5h.01M236.2 336.9h.01M189.5 207.9h.01M274.4 191.7h.01M201.6 302.9h.01M245.4 78.0h.01M135.5 398.5h.01M266.7 415.7h.01M181.5 273.3h.01M210.3 312.2h.01M128.5 223.9h.01M167.9 60.4h.01M226.7 58.9h.01M268.9 249.1h.01M266.2 158.8h.01M180.4 405.4h.01M210.8 165.3h.01M227.1 179.0h.01M259.8 111.9h.01M266.1 144.6h.01M183.9 278.4h.01M264.4 249.8h.01M197.6 177.2h.01M171.6 65.3h.01M225.1 334.5h.01M94.8 399.5h.01M273.0 235.5h.01M124.5 220.3h.01M266.0 256.7h.01M226.3 224.4h.01M236.1 178.0h.01M153.8 87.4h.01M197.6 314.9h.01M282.8 149.5h.01M251.1 156.5h.01M248.9 96.4h.01M127.7 405.4h.01M261.1 155.7h.01M201.0 382.7h.01M232.7 181.9h.01M143.1 224.1h.01M279.8 236.8h.01M161.9 155.2h.01M227.4 230.8h.01M124.0 399.2h.01M141.7 408.7h.01M279.2 210.6h.01M233.9 269.0h.01M169.8 55.3h.01M148.9 128.6h.01M272.3 151.8h.01M268.5 127.8h.01M181.0 267.7h.01M148.5 117.2h.01M272.0 122.2h.01M197.2 191.6h.01M255.9 96.0h.01M221.8 341.6h.01M214.7 152.7h.01M216.9 325.6h.01M120.7 393.5h.01M147.5 96.0h.01M192.0 196.8h.01M220.6 59.4h.01M177.4 206.6h.01M261.7 258.7h.01M254.0 324.6h.01M174.6 257.6h.01M163.2 110.7h.01M258.2 255.4h.01M268.6 95.1h.01M231.0 62.5h.01M272.4 245.3h.01M145.5 186.2h.01M208.9 170.8h.01M248.8 107.5h.01M154.4 175.7h.01M257.1 135.2h.01M129.4 398.6h.01M197.5 296.5h.01M282.0 156.6h.01M288.7 203.6h.01M274.4 298.6h.01M252.1 175.3h.01M192.4 180.0h.01M152.9 75.8h.01M153.5 81.6h.01M177.2 213.8h.01M239.7 234.2h.01M210.0 321.9h.01M158.8 79.6h.01M282.0 162.4h.01M130.7 413.7h.01M248.7 73.6h.01M198.2 47.8h.01M211.1 52.0h.01M267.2 190.5h.01M164.0 76.7h.01M277.6 153.7h.01M212.7 269.5h.01M184.2 44.2h.01M228.0 272.0h.01M116.2 389.2h.01M281.9 168.5h.01M284.6 217.3h.01M155.8 119.8h.01M214.0 46.0h.01M144.8 154.4h.01M197.0 391.6h.01M101.0 398.1h.01M164.0 171.4h.01M175.8 411.8h.01M275.9 198.0h.01M270.2 268.1h.01M273.0 140.8h.01M160.4 209.4h.01M173.4 272.7h.01M266.6 177.5h.01M232.3 295.4h.01M214.8 283.9h.01M179.8 175.6h.01M278.4 253.8h.01M164.4 117.2h.01M225.6 283.2h.01M278.6 406.0h.01M234.1 58.4h.01M191.4 395.8h.01M193.1 45.0h.01M264.0 239.5h.01M286.4 197.2h.01M267.9 182.5h.01M255.4 116.5h.01M187.0 301.9h.01M148.4 85.5h.01M194.6 165.0h.01M167.9 71.3h.01M265.2 311.8h.01M190.9 220.2h.01M276.6 160.7h.01M274.5 181.2h.01M282.3 203.8h.01M277.3 166.2h.01M234.9 157.4h.01M147.4 221.6h.01M246.8 125.9h.01M117.1 411.2h.01M82.7 311.6h.01M298.6 194.8h.01M159.8 177.4h.01M178.6 314.5h.01M112.4 406.7h.01M276.1 378.2h.01M203.7 53.7h.01M281.3 129.2h.01M119.4 404.8h.01M259.6 142.3h.01M272.4 262.5h.01M269.2 239.4h.01M206.2 224.7h.01M158.5 66.5h.01M188.6 42.1h.01M121.2 190.1h.01"/>
<path stroke="#1a1a1a" stroke-width="2.88" stroke-linecap="round" fill="none" d="M231.4 352.0h.01M181.3 37.1h.01M243.7 246.2h.01M246.5 160.2h.01M176.1 299.0h.01M229.7 266.9h.01M123.2 256.8h.01M86.8 265.3h.01M244.4 342.0h.01M138.4 271.8h.01M161.8 318.5h.01M140.3 231.5h.01M241.7 317.4h.01M205.6 345.8h.01M123.5 125.0h.01M148.5 270.1h.01M250.5 321.2h.01M113.8 217.6h.01M213.6 264.9h.01M174.4 37.9h.01M101.1 362.6h.01M142.9 49.3h.01M260.1 415.5h.01M151.9 267.6h.01M285.3 238.2h.01M133.9 93.7h.01M242.3 239.3h.01M166.9 321.3h.01M61.2 205.8h.01M211.9 159.5h.01M265.9 404.4h.01M96.0 361.8h.01M143.5 115.6h.01M208.4 389.2h.01M141.9 173.0h.01M147.1 399.1h.01M199.7 291.0h.01M89.3 376.1h.01M98.5 382.4h.01M160.2 299.4h.01M147.9 314.8h.01M189.2 163.6h.01M175.1 173.1h.01M131.3 128.9h.01M168.8 267.4h.01M144.6 273.9h.01M233.6 342.9h.01M147.7 150.3h.01M208.9 393.9h.01M155.2 307.4h.01M227.1 243.2h.01M108.2 71.5h.01M254.0 274.6h.01M70.9 230.8h.01M95.3 367.6h.01M232.9 424.0h.01M109.2 244.7h.01M147.1 68.2h.01M93.1 86.3h.01M131.9 124.3h.01M143.4 126.3h.01M141.0 181.9h.01M223.7 269.9h.01M150.0 274.2h.01M150.9 233.0h.01M120.6 129.4h.01M138.5 118.5h.01M106.8 253.4h.01M208.6 380.4h.01M167.5 327.3h.01M144.5 295.0h.01M251.0 268.4h.01M189.2 323.8h.01M127.6 90.4h.01M152.7 51.4h.01M245.9 305.6h.01M94.1 378.1h.01M214.7 310.1h.01M101.4 366.4h.01M66.8 225.9h.01M204.7 319.1h.01M149.2 293.1h.01M76.5 215.0h.01M236.5 222.5h.01M109.1 96.3h.01M229.8 157.2h.01M261.2 149.0h.01M186.2 394.2h.01M250.4 240.1h.01M246.1 242.2h.01M246.4 318.5h.01M138.8 160.8h.01M113.1 197.4h.01M132.5 68.6h.01M105.3 391.4h.01M112.9 208.3h.01M238.8 326.2h.01M209.9 43.8h.01M230.0 326.2h.01M220.1 281.0h.01M149.3 304.4h.01M138.3 100.2h.01M127.4 125.1h.01M190.9 251.6h.01M112.2 378.3h.01M163.7 39.7h.01M217.7 270.7h.01M153.9 230.8h.01M133.4 137.4h.01M126.7 100.4h.01M192.0 285.8h.01M197.5 285.5h.01M231.0 141.6h.01M237.5 298.1h.01M112.9 111.4h.01M214.4 368.3h.01M117.7 255.9h.01M254.4 240.6h.01M157.5 213.6h.01M254.6 415.8h.01M185.0 195.3h.01M130.5 142.0h.01M234.4 216.8h.01M238.3 346.4h.01M228.0 344.2h.01M161.6 401.0h.01M233.9 329.7h.01M137.5 127.9h.01M113.8 394.8h.01M131.8 89.9h.01M145.0 279.0h.01M156.3 181.5h.01M284.5 244.5h.01M131.7 233.0h.01M213.9 289.2h.01M217.0 175.0h.01M154.2 271.2h.01M169.4 160.2h.01M141.5 93.8h.01M141.2 157.9h.01M219.1 46.8h.01M227.1 170.0h.01M110.3 383.7h.01M168.7 306.7h.01M152.4 289.7h.01M132.4 53.7h.01M231.1 147.1h.01M151.2 170.7h.01M122.0 247.3h.01M136.7 156.8h.01M219.5 421.8h.01M246.6 258.8h.01M270.7 400.5h.01M137.4 123.2h.01M215.0 364.2h.01M198.5 324.1h.01M132.1 157.1h.01M171.3 278.1h.01M134.5 173.9h.01M146.7 53.6h.01M275.7 272.9h.01M231.1 356.8h.01M142.7 85.5h.01M113.6 107.6h.01M164.2 268.0h.01M239.0 269.3h.01M119.1 134.1h.01M137.0 51.3h.01M126.1 129.7h.01M188.0 318.2h.01M239.2 331.3h.01M284.2 231.8h.01M143.1 108.9h.01M115.8 191.7h.01M146.9 265.9h.01M104.3 238.8h.01M240.8 350.4h.01M194.4 326.3h.01M129.6 82.8h.01M68.3 220.8h.01M116.2 122.1h.01M159.1 312.2h.01M181.4 191.1h.01M128.1 120.6h.01M154.4 264.3h.01M133.8 86.3h.01M265.5 289.1h.01M195.8 381.4h.01M125.9 86.1h.01M139.2 177.3h.01M279.9 395.0h.01M203.3 285.1h.01M256.8 267.6h.01M129.9 105.7h.01M92.2 381.8h.01M208.4 376.4h.01M129.0 173.0h.01M250.8 146.3h.01M134.3 229.3h.01M116.7 198.6h.01M146.3 103.6h.01M222.0 330.6h.01M110.3 373.3h.01M170.1 214.2h.01M231.6 428.5h.01M217.5 266.3h.01M117.4 185.9h.01M130.1 388.0h.01M170.7 45.0h.01M84.0 383.7h.01M128.1 77.6h.01M90.2 386.0h.01M209.7 398.8h.01M137.2 96.3h.01M136.2 234.8h.01M174.8 218.5h.01M181.9 331.2h.01M177.2 263.4h.01M261.2 315.3h.01M63.8 216.3h.01M258.7 272.5h.01M99.6 391.7h.01M239.8 181.7h.01M143.4 98.5h.01M149.0 122.4h.01M168.3 258.9h.01M226.9 310.5h.01M282.6 249.6h.01M239.9 342.0h.01M133.8 153.4h.01M172.1 168.8h.01M167.8 147.3h.01M179.1 255.4h.01M138.6 106.8h.01M167.4 156.7h.01M267.8 279.6h.01M137.1 73.9h.01M217.8 329.5h.01M146.4 322.8h.01M223.0 357.7h.01M115.8 212.4h.01M196.6 37.6h.01M153.5 314.4h.01M106.0 93.4h.01M223.5 235.9h.01M118.5 220.9h.01M130.0 111.1h.01M166.5 275.6h.01M113.0 245.9h.01M239.4 227.9h.01M226.6 322.2h.01M186.9 37.3h.01M159.1 43.4h.01M102.8 374.3h.01M256.0 145.9h.01M189.9 191.8h.01M207.7 372.7h.01M252.6 328.8h.01M219.2 350.1h.01M144.1 306.3h.01M103.7 74.1h.01M161.4 276.8h.01M138.5 308.1h.01M205.8 341.5h.01M115.3 95.4h.01M223.0 173.8h.01M148.3 47.1h.01M161.3 218.0h.01M157.5 54.4h.01M202.0 228.7h.01M145.6 139.5h.01M211.6 337.7h.01M103.4 369.6h.01M118.1 179.7h.01M284.2 255.0h.01M180.9 156.0h.01M163.3 272.1h.01M156.8 224.5h.01M112.3 400.6h.01M129.0 95.3h.01M144.8 160.0h.01M257.2 385.4h.01M232.9 383.4h.01M239.4 417.7h.01M233.8 161.8h.01M178.2 281.5h.01M146.1 170.8h.01M108.2 259.6h.01M62.5 211.4h.01M260.4 285.9h.01M226.4 359.1h.01M153.3 160.1h.01M257.3 190.2h.01M121.7 387.4h.01M91.3 368.3h.01M144.7 300.6h.01M169.0 271.9h.01M144.5 80.7h.01M220.3 286.5h.01M185.6 187.8h.01M255.1 259.2h.01M134.5 104.3h.01M164.9 310.4h.01M235.3 286.3h.01M126.3 384.3h.01M141.8 70.9h.01M96.7 386.7h.01M141.8 131.5h.01M179.1 342.0h.01M215.7 339.6h.01M145.3 90.3h.01M236.3 307.8h.01M104.1 385.4h.01M190.3 168.9h.01M242.8 147.6h.01M147.1 59.0h.01M193.6 291.8h.01M107.9 89.4h.01M144.1 283.9h.01M182.5 211.1h.01M235.9 351.9h.01M217.2 293.3h.01M223.5 277.7h.01M252.1 316.7h.01M137.4 140.5h.01M232.6 347.3h.01M225.2 158.8h.01M126.7 232.4h.01M125.5 72.4h.01M222.1 353.8h.01M241.0 336.7h.01M128.4 116.1h.01M216.9 315.5h.01M161.4 222.6h.01M131.5 73.6h.01M232.2 417.0h.01M204.2 379.7h.01M118.9 117.9h.01M111.5 255.3h.01M131.6 62.7h.01M222.8 326.2h.01M143.4 121.1h.01M98.1 373.9h.01M228.7 287.6h.01M245.7 338.4h.01M146.8 63.5h.01M111.2 104.0h.01M163.7 144.2h.01M121.5 251.8h.01M254.4 421.3h.01M119.4 124.9h.01M72.7 212.3h.01M132.6 393.0h.01M142.0 59.6h.01M139.2 79.5h.01M206.7 384.8h.01M221.9 261.8h.01M139.9 276.9h.01M214.2 170.5h.01M122.6 177.3h.01M165.5 44.6h.01M203.2 337.3h.01M262.0 411.4h.01M107.1 396.9h.01M139.3 112.6h.01M213.3 318.1h.01M219.3 345.6h.01M134.8 110.0h.01M195.9 225.9h.01M114.9 237.0h.01M143.7 177.6h.01M132.3 99.6h.01M135.7 57.6h.01M135.1 132.6h.01M129.2 134.3h.01M270.6 298.9h.01M160.2 49.0h.01M99.6 370.4h.01M156.3 228.5h.01M137.3 62.2h.01M185.5 182.1h.01M211.9 325.7h.01M109.8 249.9h.01M127.0 139.0h.01M81.0 377.6h.01M113.5 179.5h.01M240.2 274.6h.01M122.8 120.4h.01M147.7 163.0h.01M71.9 320.5h.01M241.0 142.1h.01M215.5 343.5h.01M142.4 75.9h.01M220.8 297.3h.01M244.5 229.1h.01M138.4 90.1h.01M118.2 240.2h.01M142.2 65.6h.01M160.2 226.8h.01M267.4 397.9h.01M154.0 45.5h.01M273.5 404.4h.01M110.5 389.5h.01M177.4 320.4h.01M270.5 161.9h.01M152.0 57.3h.01M261.9 276.2h.01M169.2 39.1h.01M221.6 267.1h.01M92.9 374.0h.01M124.0 134.0h.01M154.8 236.3h.01M231.1 308.8h.01M253.8 236.3h.01M209.0 259.1h.01M122.5 230.3h.01M141.5 399.3h.01M151.7 400.4h.01M150.7 263.1h.01M142.4 268.2h.01M129.3 57.4h.01M192.1 37.9h.01M262.0 174.7h.01M137.2 67.3h.01M115.0 251.3h.01M186.8 388.5h.01M236.9 414.1h.01M282.2 265.2h.01M279.5 289.1h.01M202.8 327.8h.01M134.4 115.0h.01M182.0 283.3h.01M211.2 341.4h.01M215.9 164.6h.01M251.1 244.5h.01M166.3 315.6h.01M195.2 253.9h.01M210.7 355.7h.01M249.9 233.7h.01M113.4 241.4h.01M200.8 40.8h.01M138.3 394.2h.01M216.4 321.1h.01M266.6 152.1h.01M187.7 289.5h.01M247.5 169.6h.01M180.6 201.5h.01M240.1 283.7h.01M111.9 203.0h.01M122.5 225.7h.01M106.4 372.5h.01M107.1 85.7h.01M220.1 169.3h.01M203.7 296.6h.01M226.9 353.9h.01M206.3 41.2h.01M86.5 379.3h.01M225.4 166.6h.01M156.7 267.1h.01M247.5 247.4h.01M209.1 349.9h.01M209.1 286.7h.01M200.3 319.6h.01M192.4 247.6h.01M140.1 237.9h.01M279.6 283.4h.01M131.5 181.9h.01M98.1 377.3h.01M138.1 84.6h.01M111.3 99.3h.01M127.9 242.6h.01M123.6 243.0h.01M216.9 259.2h.01M233.4 170.1h.01M76.5 221.5h.01M111.7 92.2h.01M133.9 79.9h.01M148.1 283.1h.01M254.2 254.8h.01M240.0 243.8h.01M136.5 324.6h.01M199.7 253.2h.01M199.1 329.1h.01M113.6 183.6h.01M123.4 115.7h.01M218.8 333.5h.01M128.6 228.6h.01M259.3 235.7h.01M161.0 305.4h.01M258.9 240.7h.01M72.8 217.0h.01M265.8 166.0h.01M232.5 152.2h.01M157.6 327.0h.01M104.8 247.6h.01M127.2 182.1h.01M102.3 379.4h.01M120.5 215.5h.01M189.2 184.4h.01M253.7 263.5h.01M279.5 390.5h.01M140.6 54.6h.01M141.3 103.4h.01M183.4 217.9h.01M154.4 301.5h.01M106.9 378.8h.01M210.4 345.1h.01M169.2 171.9h.01M116.3 383.6h.01M66.2 207.5h.01M95.3 371.3h.01M97.9 365.8h.01M146.0 262.0h.01M174.3 152.5h.01M133.0 119.6h.01M183.2 320.5h.01M196.3 385.9h.01M236.0 357.2h.01M121.2 381.8h.01M172.2 302.3h.01M184.9 159.6h.01M187.1 283.5h.01M143.8 317.4h.01M80.4 312.9h.01M226.5 305.3h.01M186.9 201.1h.01M266.0 409.3h.01M181.5 389.8h.01M67.4 241.6h.01"/>
<path stroke="#1a1a1a" stroke-width="3.38" stroke-linecap="round" fill="none" d="M232.4 304.9h.01M101.2 356.0h.01M112.0 175.6h.01M263.3 282.0h.01M214.8 353.0h.01M235.7 302.0h.01M185.4 169.2h.01M184.9 326.3h.01M77.2 138.6h.01M254.3 310.7h.01M118.0 261.9h.01M97.6 296.9h.01M220.8 163.6h.01M210.4 370.8h.01M251.8 385.9h.01M115.5 136.1h.01M162.0 283.9h.01M84.9 148.6h.01M209.7 237.1h.01M75.4 172.0h.01M243.7 250.6h.01M249.6 277.8h.01M212.3 406.4h.01M149.3 298.4h.01M223.9 346.3h.01M111.0 137.5h.01M128.6 268.7h.01M79.6 157.0h.01M170.0 218.9h.01M110.2 213.8h.01M124.6 266.5h.01M172.0 289.1h.01M106.7 81.4h.01M88.0 162.3h.01M134.9 387.5h.01M89.7 117.7h.01M210.1 294.1h.01M115.3 87.9h.01M123.9 270.6h.01M121.9 68.6h.01M159.9 294.1h.01M235.9 141.9h.01M135.9 315.7h.01M110.4 79.5h.01M105.9 122.1h.01M105.5 356.2h.01M152.2 285.2h.01M121.9 377.3h.01M86.1 140.9h.01M258.0 312.4h.01M252.1 248.5h.01M100.5 113.0h.01M83.1 127.1h.01M255.9 315.9h.01M84.4 368.0h.01M187.7 223.0h.01M225.2 162.2h.01M100.0 246.7h.01M102.2 102.5h.01M86.4 97.7h.01M86.0 300.3h.01M158.4 331.9h.01M166.8 338.3h.01M101.0 353.0h.01M218.6 355.1h.01M177.3 330.9h.01M114.9 372.9h.01M108.2 231.9h.01M163.6 150.0h.01M278.1 278.4h.01M64.8 235.7h.01M92.7 108.5h.01M111.2 121.8h.01M240.2 289.4h.01M259.1 388.3h.01M113.6 172.1h.01M113.8 154.0h.01M131.3 317.8h.01M166.7 263.5h.01M262.7 302.0h.01M235.4 410.5h.01M127.1 66.8h.01M154.2 295.6h.01M89.5 93.3h.01M96.4 168.5h.01M176.0 346.0h.01M179.5 346.6h.01M91.5 342.2h.01M131.2 146.6h.01M114.2 140.4h.01M268.8 285.7h.01M247.4 237.4h.01M74.7 208.7h.01M238.3 159.8h.01M73.9 349.9h.01M195.3 336.3h.01M105.9 234.8h.01M182.8 338.7h.01M88.8 101.6h.01M155.5 282.5h.01M144.8 395.6h.01M130.4 292.4h.01M227.0 152.6h.01M140.9 330.3h.01M257.9 280.2h.01M88.2 364.3h.01M148.5 235.7h.01M168.7 283.6h.01M72.7 344.7h.01M206.3 229.7h.01M139.9 281.5h.01M74.8 188.5h.01M80.4 241.0h.01M127.4 257.1h.01M162.2 324.0h.01M119.1 236.2h.01M142.1 246.7h.01M91.2 160.4h.01M178.2 221.9h.01M126.3 253.4h.01M202.0 349.1h.01M60.7 198.8h.01M170.0 254.7h.01M134.2 304.2h.01M78.3 211.6h.01M110.9 133.6h.01M265.1 307.2h.01M87.7 129.4h.01M115.1 131.3h.01M76.6 184.8h.01M137.9 145.1h.01M134.2 149.2h.01M159.8 237.4h.01M123.2 82.0h.01M84.8 117.8h.01M133.0 300.2h.01M138.6 287.2h.01M104.7 126.9h.01M261.0 169.2h.01M146.1 181.2h.01M248.4 329.4h.01M82.8 363.8h.01M160.4 266.0h.01M84.5 373.5h.01M108.7 199.7h.01M78.0 190.8h.01M218.2 337.4h.01M190.0 328.7h.01M128.1 159.1h.01M100.9 185.4h.01M201.6 242.3h.01M105.6 195.8h.01M135.8 179.4h.01M113.8 145.1h.01M173.0 160.8h.01M80.4 181.8h.01M274.5 287.5h.01M246.6 265.8h.01M121.3 98.6h.01M98.0 89.7h.01M244.0 295.0h.01M104.5 98.2h.01M76.6 250.6h.01M104.2 199.9h.01M110.7 75.0h.01M86.3 346.2h.01M253.0 280.1h.01M144.9 257.9h.01M244.8 274.7h.01M153.9 338.9h.01M71.0 181.3h.01M246.2 322.5h.01M119.9 112.9h.01M116.8 175.0h.01M275.7 393.7h.01M119.5 94.9h.01M77.7 132.9h.01M173.2 343.6h.01M88.5 121.5h.01M210.7 245.4h.01M126.5 263.2h.01M116.3 83.6h.01M116.0 162.9h.01M93.7 128.9h.01M140.4 291.9h.01M82.5 185.8h.01M93.5 132.7h.01M72.4 334.4h.01M78.1 128.5h.01M108.3 112.9h.01M254.3 284.4h.01M163.2 339.6h.01M81.0 141.6h.01M213.8 236.7h.01M91.5 352.8h.01M108.6 225.0h.01M173.8 283.2h.01M120.2 165.0h.01M161.8 344.9h.01M129.7 151.3h.01M80.1 115.2h.01M80.4 215.5h.01M126.3 291.3h.01M116.1 99.5h.01M215.6 158.5h.01M229.2 421.4h.01M244.1 331.4h.01M117.0 66.2h.01M119.7 243.4h.01M207.4 329.2h.01M83.4 164.2h.01M87.9 125.6h.01M94.5 102.4h.01M206.1 353.2h.01M156.9 322.5h.01M119.9 89.6h.01M234.5 246.1h.01M251.8 372.5h.01M121.7 260.1h.01M128.6 260.5h.01M243.3 261.7h.01M218.0 236.1h.01M103.7 159.6h.01M102.0 87.3h.01M106.8 190.6h.01M122.0 142.9h.01M68.0 215.8h.01M188.4 173.4h.01M219.5 363.7h.01M90.9 148.7h.01M204.5 375.3h.01M223.3 156.0h.01M82.3 189.7h.01M93.5 126.3h.01M182.4 179.1h.01M157.9 233.1h.01M103.7 173.7h.01M83.2 144.8h.01M84.4 104.0h.01M96.3 291.9h.01M99.6 117.9h.01M199.4 339.1h.01M83.2 173.3h.01M110.4 147.6h.01M250.7 307.4h.01M122.8 234.7h.01M154.6 395.7h.01M122.2 138.2h.01M150.4 279.3h.01M249.1 416.8h.01M96.0 350.2h.01M96.3 110.5h.01M222.2 291.1h.01M223.1 302.3h.01M131.3 313.3h.01M263.5 400.4h.01M246.3 363.6h.01M212.6 256.5h.01M78.2 366.5h.01M165.6 295.5h.01M125.2 105.8h.01M104.0 257.1h.01M245.0 233.7h.01M207.0 255.5h.01M244.1 417.4h.01M115.8 103.3h.01M141.0 262.9h.01M254.2 389.0h.01M92.3 98.3h.01M75.7 231.0h.01M87.9 334.6h.01M90.9 111.0h.01M175.2 335.1h.01M109.6 125.4h.01M91.4 152.4h.01M98.5 105.3h.01M100.8 167.6h.01M118.6 274.9h.01M237.5 147.1h.01M166.5 234.5h.01M165.1 280.2h.01M145.6 330.3h.01M256.4 410.9h.01M138.9 148.9h.01M234.4 251.0h.01M90.0 269.6h.01M165.6 230.5h.01M207.3 333.2h.01M193.8 250.5h.01M232.1 299.7h.01M231.7 411.0h.01M203.6 357.1h.01M73.4 203.6h.01M79.5 160.8h.01M99.6 301.2h.01M266.7 302.7h.01M119.9 85.4h.01M183.4 254.5h.01M105.0 271.1h.01M141.6 326.0h.01M235.2 323.2h.01M124.1 162.4h.01M115.7 114.8h.01M101.2 122.4h.01M81.6 219.4h.01M128.2 288.5h.01M79.5 187.3h.01M99.6 128.4h.01M117.1 227.5h.01M141.4 321.6h.01M99.4 152.5h.01M90.1 105.6h.01M103.1 359.4h.01M222.8 308.7h.01M106.0 366.6h.01M208.0 336.9h.01M133.7 328.0h.01M80.7 193.9h.01M106.6 211.0h.01M106.7 204.1h.01M221.5 318.3h.01M183.7 164.6h.01M184.3 342.5h.01M223.7 240.8h.01M176.1 156.5h.01M84.4 196.5h.01M101.1 196.6h.01M128.7 239.4h.01M154.0 276.3h.01M171.3 331.4h.01M108.4 207.8h.01M169.0 151.9h.01M202.2 372.6h.01M102.6 189.6h.01M135.5 184.4h.01M250.0 251.5h.01M125.3 111.2h.01M95.7 149.3h.01M204.9 323.8h.01M83.5 131.2h.01M79.3 234.9h.01M195.6 246.0h.01M77.8 152.8h.01M103.9 169.4h.01M80.6 151.2h.01M125.7 60.7h.01M105.5 362.7h.01M69.4 177.6h.01M249.1 272.6h.01M229.4 161.6h.01M81.6 133.9h.01M102.6 181.8h.01M114.4 166.7h.01M101.0 305.6h.01M116.9 377.8h.01M121.0 265.4h.01M75.9 162.9h.01M161.4 230.5h.01M162.7 234.8h.01M239.0 248.7h.01M74.6 226.7h.01M182.9 222.9h.01M86.6 360.2h.01M131.1 177.4h.01M79.6 119.9h.01M221.1 231.6h.01M214.0 348.1h.01M81.7 155.3h.01M157.8 274.1h.01M245.1 334.6h.01M275.4 399.1h.01M147.7 287.8h.01M106.7 266.3h.01M221.2 245.0h.01M94.8 158.4h.01M165.1 397.4h.01M121.4 62.8h.01M151.0 180.8h.01M223.8 422.1h.01M109.9 238.1h.01M150.3 309.8h.01M154.0 330.7h.01M89.6 156.8h.01M117.9 232.1h.01M97.3 198.5h.01M111.4 169.4h.01M240.2 321.0h.01M71.5 240.1h.01M223.5 314.3h.01M98.5 182.5h.01M128.8 235.6h.01M104.5 113.0h.01M199.9 246.9h.01M92.9 90.5h.01M81.2 253.7h.01M100.7 224.4h.01M88.1 355.9h.01M168.4 394.7h.01M136.8 283.8h.01M104.5 214.2h.01M98.2 156.2h.01M114.9 75.8h.01M61.3 192.2h.01M108.9 108.3h.01M88.5 370.9h.01M86.1 135.5h.01M66.5 231.4h.01M115.0 149.6h.01M106.4 217.9h.01M71.1 186.0h.01M164.5 331.5h.01M121.4 102.7h.01M158.8 171.0h.01M70.5 207.7h.01M102.5 204.7h.01M103.9 117.7h.01M118.1 72.2h.01M157.1 399.1h.01M111.5 277.6h.01M75.9 181.3h.01M84.4 113.2h.01M76.2 238.8h.01M140.3 297.3h.01M75.5 177.0h.01M106.9 102.6h.01M105.8 227.8h.01M135.0 280.4h.01M100.5 350.2h.01M111.6 188.2h.01M197.7 258.3h.01M64.8 179.0h.01M109.6 368.1h.01M111.4 192.5h.01M88.2 343.0h.01M75.8 353.6h.01M246.4 144.2h.01M109.1 195.2h.01M140.1 258.3h.01M96.0 176.6h.01M108.2 359.7h.01M104.9 222.4h.01M151.2 147.6h.01M110.4 143.1h.01M103.7 177.4h.01M135.4 162.1h.01M78.8 124.2h.01M159.1 270.2h.01M250.2 303.7h.01M96.5 122.0h.01M75.6 357.6h.01M245.3 282.3h.01M149.3 319.1h.01M107.3 160.8h.01M75.7 244.5h.01M169.8 340.8h.01M219.6 158.6h.01M205.0 244.2h.01M95.3 118.3h.01M140.6 313.1h.01M209.8 228.7h.01M131.7 161.7h.01M158.1 286.9h.01M88.4 338.5h.01M105.8 77.3h.01M92.1 124.1h.01M88.3 273.3h.01M96.5 209.5h.01M93.3 258.8h.01M111.2 269.1h.01M114.1 259.5h.01M94.5 162.5h.01M88.3 113.9h.01M238.7 263.8h.01M190.1 255.4h.01M248.8 325.5h.01M64.4 220.5h.01M68.0 211.7h.01M231.4 314.2h.01M157.8 279.4h.01M83.4 357.4h.01M244.4 289.8h.01M98.9 347.5h.01M94.9 137.0h.01M114.2 223.4h.01M108.1 139.2h.01M249.1 262.9h.01M66.2 184.1h.01M123.3 147.9h.01M163.7 161.2h.01M93.1 144.9h.01M102.7 229.8h.01M103.0 90.8h.01M251.6 162.5h.01M266.1 293.7h.01M173.6 326.6h.01M193.3 257.2h.01M152.2 322.0h.01M105.1 186.2h.01M92.6 114.9h.01M127.3 154.7h.01M86.2 351.3h.01M109.4 179.2h.01M133.2 270.5h.01M118.1 105.7h.01M79.3 360.7h.01M100.9 108.4h.01M177.2 168.6h.01M184.1 206.1h.01M76.8 205.5h.01M75.3 167.2h.01M103.4 262.5h.01M235.2 312.0h.01M177.5 394.2h.01M109.2 273.3h.01M92.6 363.9h.01M166.5 209.9h.01M96.1 354.8h.01M207.8 300.7h.01M255.7 382.5h.01M119.1 78.6h.01M109.4 172.6h.01M159.1 150.8h.01M128.9 164.3h.01M188.2 178.0h.01M91.4 347.7h.01M231.8 242.6h.01M114.7 127.1h.01M100.8 95.2h.01M84.9 192.5h.01M97.8 125.7h.01M165.4 153.7h.01M190.9 384.0h.01M99.4 191.4h.01M244.2 327.7h.01M99.1 188.2h.01M193.9 242.9h.01M109.7 129.5h.01M112.8 232.8h.01M141.8 142.7h.01M243.4 285.7h.01M101.0 234.7h.01M172.9 392.3h.01M98.2 358.7h.01M191.4 226.2h.01M126.0 144.0h.01M103.4 208.9h.01M218.7 359.5h.01M256.3 171.7h.01M79.5 166.2h.01M111.1 263.8h.01M85.7 296.6h.01M119.6 151.5h.01M205.3 290.9h.01M106.3 171.6h.01M198.1 334.0h.01M135.9 240.0h.01M114.0 118.5h.01M191.9 333.1h.01M260.7 396.4h.01M243.5 299.6h.01M137.1 171.1h.01M127.0 245.9h.01M247.6 165.5h.01M229.0 302.2h.01M111.5 161.9h.01M159.6 145.6h.01M227.5 425.5h.01M273.7 282.7h.01M119.6 147.5h.01M171.3 296.1h.01M213.5 360.4h.01M110.4 314.3h.01M86.8 108.7h.01M102.1 80.9h.01M71.1 247.2h.01M116.9 91.5h.01M64.1 228.8h.01M111.6 87.4h.01M97.3 164.7h.01M260.7 407.2h.01M179.7 171.7h.01M114.7 80.4h.01M102.4 253.2h.01M267.4 297.9h.01M261.4 310.0h.01M96.2 172.4h.01M64.7 202.3h.01M159.5 241.9h.01M175.1 339.9h.01M110.1 220.8h.01M133.2 295.1h.01M128.1 294.8h.01M197.7 249.9h.01M144.1 290.2h.01M231.6 386.8h.01M100.6 214.2h.01M106.1 242.5h.01M109.0 184.4h.01M245.8 278.7h.01M79.3 371.5h.01M121.4 108.3h.01M131.1 252.6h.01M100.0 209.0h.01M119.5 159.7h.01M90.9 140.8h.01M251.0 412.0h.01M104.8 107.5h.01M100.5 171.2h.01M242.8 324.3h.01M217.1 244.9h.01M92.2 358.7h.01M81.7 137.5h.01M98.2 99.5h.01M106.2 181.3h.01M111.5 115.1h.01M85.5 308.5h.01M212.1 402.7h.01M98.8 229.9h.01M101.2 243.2h.01M108.7 118.0h.01M166.4 301.4h.01M256.0 288.1h.01M96.5 114.5h.01M97.4 83.6h.01M124.1 94.8h.01M123.9 158.0h.01M179.4 325.7h.01M138.7 164.5h.01M85.8 188.4h.01M135.1 276.2h.01M100.5 218.9h.01M117.1 109.8h.01M73.2 235.0h.01M90.2 136.6h.01M143.8 234.9h.01M100.5 250.4h.01M123.5 90.2h.01M77.0 144.0h.01M264.7 394.7h.01M254.4 320.5h.01M81.8 109.4h.01M92.5 120.7h.01M200.3 376.4h.01M110.1 151.7h.01M236.7 317.2h.01M248.3 314.7h.01M182.1 288.0h.01M167.2 334.3h.01M187.2 331.5h.01M295.5 197.0h.01M260.6 392.2h.01M107.6 168.6h.01M271.2 292.1h.01M111.7 228.2h.01M63.8 224.2h.01M222.8 337.7h.01M83.9 122.2h.01M98.6 239.7h.01M122.1 239.5h.01M81.6 245.3h.01M94.8 106.2h.01M239.1 294.3h.01M97.0 186.5h.01M147.9 326.8h.01M118.4 140.1h.01M142.6 167.6h.01M111.1 83.6h.01M136.7 293.4h.01M78.1 218.4h.01M112.8 69.3h.01M117.3 144.7h.01M132.2 283.3h.01M139.4 303.0h.01M125.4 237.9h.01M116.4 170.8h.01M107.4 176.0h.01M75.5 158.6h.01M203.6 361.3h.01M142.9 163.3h.01M118.6 168.6h.01M89.8 132.2h.01M241.3 302.3h.01M103.2 84.2h.01M61.3 182.2h.01M87.5 152.2h.01M246.0 254.2h.01M211.8 373.5h.01M80.2 147.4h.01M122.8 76.5h.01M134.2 143.8h.01M132.4 238.6h.01M150.4 336.9h.01M164.6 214.2h.01M88.0 145.2h.01M156.7 318.1h.01M95.7 344.8h.01M76.2 148.9h.01M156.5 290.9h.01M188.4 252.2h.01M95.7 94.7h.01M99.5 174.7h.01M127.6 147.7h.01M177.1 287.7h.01M94.3 154.2h.01M127.1 249.5h.01"/>
<path stroke="#1a1a1a" stroke-width="3.91" stroke-linecap="round" fill="none" d="M270.6 385.4h.01M243.4 164.4h.01M75.7 194.2h.01M234.5 374.8h.01M200.4 363.9h.01M102.8 193.4h.01M87.7 185.4h.01M93.0 262.4h.01M90.1 265.2h.01M170.5 249.5h.01M228.5 388.2h.01M109.9 305.1h.01M79.8 222.7h.01M252.1 365.1h.01M86.2 181.5h.01M180.1 378.7h.01M123.4 371.4h.01M129.3 378.9h.01M254.3 291.5h.01M78.8 229.0h.01M150.3 361.9h.01M170.8 225.6h.01M132.8 290.3h.01M123.1 307.9h.01M95.7 141.1h.01M186.3 243.6h.01M79.7 170.9h.01M242.2 405.1h.01M76.4 320.4h.01M88.8 194.6h.01M257.9 376.8h.01M214.7 399.8h.01M116.9 283.2h.01M264.5 390.7h.01M176.6 377.9h.01M115.0 286.8h.01M170.5 377.1h.01M100.4 200.9h.01M123.8 314.2h.01M151.1 239.1h.01M193.3 379.0h.01M97.3 213.7h.01M162.5 387.2h.01M223.0 393.7h.01M119.5 344.5h.01M236.6 361.4h.01M258.1 302.7h.01M92.7 336.7h.01M109.8 165.3h.01M83.6 215.2h.01M236.6 397.4h.01M134.5 286.8h.01M212.3 242.5h.01M240.4 384.9h.01M112.8 343.1h.01M264.7 380.3h.01M160.4 395.4h.01M242.6 265.9h.01M243.9 401.7h.01M190.6 359.6h.01M141.1 334.8h.01M129.0 305.3h.01M95.4 233.2h.01M168.0 368.5h.01M243.2 314.5h.01M152.2 249.5h.01M238.6 304.8h.01M126.0 307.6h.01M125.1 151.4h.01M157.2 349.7h.01M137.0 335.8h.01M171.4 359.4h.01M245.2 376.0h.01M142.4 388.8h.01M141.6 286.5h.01M74.9 323.6h.01M128.0 274.0h.01M110.2 363.6h.01M263.7 297.9h.01M106.9 154.6h.01M154.0 357.7h.01M247.8 371.8h.01M121.0 301.0h.01M121.5 357.0h.01M130.8 349.4h.01M171.6 156.2h.01M104.1 304.2h.01M145.9 363.6h.01M242.6 381.6h.01M127.4 284.0h.01M164.7 226.5h.01M96.9 315.2h.01M108.7 342.8h.01M87.2 289.5h.01M120.3 348.2h.01M195.9 367.9h.01M92.8 241.5h.01M169.2 380.4h.01M90.8 223.9h.01M231.8 367.5h.01M165.1 222.5h.01M170.6 346.6h.01M83.9 152.5h.01M244.4 385.4h.01M129.5 352.1h.01M107.6 346.6h.01M182.8 346.2h.01M190.1 336.7h.01M83.1 224.9h.01M91.1 236.8h.01M178.2 371.0h.01M92.5 226.6h.01M163.9 392.1h.01M102.6 131.1h.01M149.1 346.5h.01M83.9 335.9h.01M208.0 365.0h.01M231.7 390.5h.01M222.8 416.8h.01M155.7 345.8h.01M154.7 163.7h.01M154.4 252.6h.01M81.0 198.6h.01M112.0 335.5h.01M174.1 247.1h.01M220.3 383.3h.01M177.1 388.9h.01M150.9 165.8h.01M147.4 144.5h.01M177.4 374.8h.01M149.6 255.9h.01M128.5 355.5h.01M226.7 375.3h.01M217.9 413.7h.01M147.1 167.4h.01M234.4 263.7h.01M156.6 258.4h.01M202.0 366.5h.01M238.0 370.4h.01M102.5 324.3h.01M127.2 347.6h.01M230.2 394.1h.01M234.7 407.1h.01M161.6 361.7h.01M81.8 332.0h.01M132.6 308.2h.01M228.5 400.5h.01M219.0 240.5h.01M120.2 367.3h.01M118.5 321.0h.01M123.9 281.6h.01M237.0 403.0h.01M96.5 252.3h.01M146.0 334.7h.01M136.7 246.4h.01M152.4 344.6h.01M244.8 359.9h.01M150.5 247.0h.01M107.2 301.8h.01M86.2 324.5h.01M179.0 230.5h.01M187.3 339.7h.01M188.4 249.0h.01M226.1 261.4h.01M193.5 370.5h.01M182.9 353.7h.01M163.1 244.4h.01M96.1 333.6h.01M170.6 374.1h.01M110.5 289.3h.01M144.9 238.9h.01M104.3 151.4h.01M61.3 187.0h.01M168.5 244.5h.01M226.1 398.1h.01M236.3 378.9h.01M189.5 378.9h.01M160.6 258.3h.01M161.2 367.0h.01M141.8 364.8h.01M166.6 251.2h.01M181.0 350.2h.01M107.2 277.3h.01M104.1 333.6h.01M141.5 349.5h.01M112.1 339.4h.01M200.0 361.0h.01M92.3 170.8h.01M116.3 311.1h.01M244.2 270.3h.01M241.9 307.4h.01M92.7 333.1h.01M197.4 348.8h.01M245.0 310.9h.01M169.7 349.9h.01M150.7 341.9h.01M86.8 171.6h.01M237.8 253.4h.01M155.7 147.1h.01M117.4 155.5h.01M203.5 253.3h.01M145.7 244.5h.01M201.1 353.2h.01M95.4 300.7h.01M178.5 237.3h.01M175.0 364.0h.01M225.5 390.0h.01M268.5 380.9h.01M104.5 318.0h.01M228.1 348.9h.01M235.3 400.6h.01M113.5 368.2h.01M93.6 316.4h.01M100.6 320.8h.01M115.7 265.5h.01M171.1 336.9h.01M112.1 327.7h.01M167.2 238.5h.01M136.4 372.8h.01M77.6 346.9h.01M173.3 243.6h.01M268.4 392.9h.01M159.6 384.0h.01M228.4 371.4h.01M187.5 232.9h.01M105.8 352.9h.01M215.1 357.4h.01M83.3 180.5h.01M213.3 396.6h.01M193.3 346.9h.01M93.3 298.1h.01M93.9 307.6h.01M159.3 246.7h.01M266.2 374.4h.01M186.2 345.8h.01M159.2 340.2h.01M85.5 226.7h.01M68.5 235.9h.01M226.7 405.7h.01M130.8 333.2h.01M179.7 335.8h.01M135.5 251.0h.01M153.8 373.5h.01M66.4 188.8h.01M101.8 163.6h.01M149.1 249.9h.01M80.6 340.6h.01M150.0 394.8h.01M214.6 381.4h.01M128.7 362.5h.01M218.3 373.9h.01M134.6 347.3h.01M86.0 177.3h.01M154.6 361.8h.01M150.7 252.7h.01M247.1 401.1h.01M106.8 289.2h.01M100.6 292.9h.01M207.7 359.6h.01M104.4 291.6h.01M181.2 362.2h.01M174.9 231.8h.01M77.6 225.4h.01M247.5 286.0h.01M222.8 362.6h.01M228.0 390.5h.01M152.5 143.2h.01M225.9 386.2h.01M146.5 251.2h.01M84.3 341.2h.01M125.1 361.6h.01M166.3 355.8h.01M125.6 379.0h.01M88.1 253.3h.01M96.3 205.9h.01M178.5 234.0h.01M138.7 382.3h.01M271.7 390.0h.01M106.8 338.9h.01M184.2 174.0h.01M119.5 295.0h.01M163.4 383.6h.01M275.4 389.6h.01M119.1 299.4h.01M175.3 250.3h.01M111.4 323.1h.01M165.3 361.3h.01M183.0 380.8h.01M244.7 397.5h.01M252.1 394.5h.01M256.0 396.5h.01M132.9 345.2h.01M230.6 250.4h.01M207.5 246.7h.01M184.5 226.5h.01M189.3 240.9h.01M106.6 133.3h.01M167.8 344.4h.01M82.2 319.3h.01M186.1 359.9h.01M132.5 169.5h.01M116.7 327.5h.01M123.7 347.4h.01M106.8 332.4h.01M228.4 409.2h.01M159.1 161.1h.01M107.3 297.5h.01M253.6 295.1h.01M92.7 205.5h.01M218.4 392.5h.01M234.7 404.1h.01M92.7 209.5h.01M83.5 205.9h.01M129.5 301.7h.01M126.5 176.9h.01M186.4 363.0h.01M120.9 309.3h.01M131.1 382.9h.01M74.1 326.9h.01M132.6 362.5h.01M81.0 354.8h.01M131.5 371.5h.01M216.5 410.6h.01M76.7 334.2h.01M196.6 376.5h.01M247.5 384.9h.01M67.8 198.8h.01M95.9 286.9h.01M132.8 243.8h.01M259.0 399.7h.01M254.2 369.0h.01M125.6 301.9h.01M127.5 337.3h.01M107.6 285.6h.01M221.2 253.5h.01M175.5 240.0h.01M100.7 316.6h.01M95.9 227.8h.01M229.3 258.7h.01M216.4 385.4h.01M131.8 248.1h.01M140.5 374.5h.01M124.7 334.4h.01M124.7 294.6h.01M153.2 391.5h.01M96.7 304.4h.01M111.0 318.5h.01M245.5 380.5h.01M248.2 408.8h.01M250.3 376.4h.01M132.5 358.5h.01M146.6 391.7h.01M102.9 155.7h.01M136.4 290.0h.01M199.7 239.5h.01M215.9 249.7h.01M135.3 383.7h.01M221.4 379.4h.01M122.4 321.2h.01M259.3 403.4h.01M114.3 158.8h.01M120.6 360.6h.01M97.8 132.7h.01M121.7 305.3h.01M155.0 240.3h.01M151.8 376.8h.01M222.1 227.5h.01M124.2 286.1h.01M111.8 347.3h.01M121.1 333.8h.01M215.0 378.0h.01M92.2 251.3h.01M91.1 247.1h.01M157.4 391.9h.01M230.0 399.0h.01M89.5 297.6h.01M136.6 261.2h.01M125.0 277.9h.01M64.5 196.1h.01M104.7 295.3h.01M256.4 364.0h.01M227.6 395.7h.01M90.3 202.6h.01M231.5 406.1h.01M242.7 374.2h.01M176.9 350.8h.01M151.8 382.1h.01M140.3 340.0h.01M155.5 341.9h.01M196.3 373.1h.01M91.3 293.4h.01M224.5 246.6h.01M230.8 374.2h.01M113.4 356.1h.01M216.4 374.8h.01M85.7 156.6h.01M85.8 219.7h.01M229.5 364.3h.01M138.4 348.5h.01M162.8 248.4h.01M173.5 378.8h.01M251.0 291.7h.01M177.5 244.0h.01M92.1 230.6h.01M91.8 289.5h.01M162.5 289.8h.01M255.4 300.9h.01M85.9 329.3h.01M216.4 253.7h.01M252.1 403.9h.01M134.8 369.9h.01M230.5 263.0h.01M220.6 408.9h.01M97.8 194.8h.01M253.9 379.4h.01M241.6 258.5h.01M101.7 309.6h.01M123.4 359.2h.01M165.7 254.0h.01M225.2 392.4h.01M84.0 160.1h.01M88.6 190.7h.01M242.4 388.4h.01M275.9 382.4h.01M220.8 394.8h.01M148.1 350.5h.01M222.7 388.6h.01M238.3 406.5h.01M243.0 370.5h.01M89.5 281.5h.01M248.4 295.0h.01M79.8 322.2h.01M132.3 337.6h.01M132.6 260.8h.01M122.9 338.9h.01M104.8 314.5h.01M259.5 299.3h.01M271.9 395.1h.01M124.5 341.5h.01M171.4 351.8h.01M109.7 299.9h.01M98.1 324.5h.01M99.5 259.2h.01M94.5 185.5h.01M241.0 169.0h.01M182.9 243.2h.01M94.0 189.2h.01M204.3 368.3h.01M158.9 371.2h.01M82.3 211.2h.01M167.4 384.4h.01M129.4 279.7h.01M163.8 240.4h.01M219.5 312.2h.01M78.7 318.1h.01M118.5 307.0h.01M267.4 377.4h.01M104.5 321.0h.01M132.5 354.7h.01M158.3 362.7h.01M74.3 316.9h.01M144.7 311.1h.01M111.3 285.5h.01M148.8 244.5h.01M239.5 164.2h.01M97.0 337.6h.01M76.3 341.5h.01M170.7 383.6h.01M120.4 328.1h.01M174.4 225.5h.01M95.0 202.1h.01M118.0 309.0h.01M94.3 322.8h.01M255.3 297.9h.01M213.6 247.3h.01M87.3 285.5h.01M172.8 229.2h.01M82.0 316.1h.01M271.5 381.8h.01M103.6 300.6h.01M173.6 382.2h.01M114.9 335.4h.01M125.4 356.5h.01M184.5 240.4h.01M223.0 366.3h.01M127.6 343.6h.01M122.4 364.4h.01M115.7 298.5h.01M144.7 377.3h.01M165.0 342.4h.01M116.0 302.5h.01M99.8 327.6h.01M136.5 359.5h.01M124.8 166.6h.01M170.5 234.1h.01M183.3 249.6h.01M190.7 363.1h.01M233.1 398.3h.01M154.4 369.6h.01M147.5 340.2h.01M248.3 367.6h.01M108.2 321.3h.01M189.4 237.6h.01M147.9 372.8h.01M106.1 324.3h.01M131.8 265.1h.01M184.2 230.4h.01M220.2 400.9h.01M224.4 372.9h.01M226.1 265.5h.01M128.3 359.0h.01M156.8 262.3h.01M79.9 208.2h.01M256.4 165.0h.01M237.8 393.8h.01M252.0 407.6h.01M221.1 369.6h.01M202.2 236.0h.01M220.8 390.9h.01M227.0 417.9h.01M102.6 141.6h.01M96.1 244.3h.01M125.7 351.7h.01M114.0 273.7h.01M84.2 249.5h.01M133.4 321.3h.01M140.6 359.9h.01M154.9 168.3h.01M236.3 173.0h.01M226.7 339.8h.01M82.1 231.9h.01M204.4 240.5h.01M186.2 237.5h.01M173.5 348.5h.01M106.2 311.8h.01M82.7 347.5h.01M67.2 192.8h.01M250.0 390.6h.01M247.5 291.2h.01M95.2 218.1h.01M163.0 374.1h.01M119.7 374.2h.01M195.1 358.0h.01M105.3 308.5h.01M115.2 324.3h.01M255.8 406.1h.01M179.6 251.5h.01M155.8 335.2h.01M77.4 201.3h.01M174.7 360.8h.01M268.0 371.3h.01M153.0 365.8h.01M84.8 200.8h.01M165.7 380.5h.01M78.5 315.3h.01M257.3 372.6h.01M162.7 357.5h.01M271.1 374.2h.01M233.8 255.5h.01M96.0 248.5h.01M163.2 255.2h.01M89.1 207.5h.01M143.8 352.1h.01M148.1 366.8h.01M101.2 144.6h.01M210.5 249.5h.01M254.9 400.8h.01M120.4 337.6h.01M90.6 182.3h.01M95.9 222.8h.01M205.0 364.6h.01M161.4 335.4h.01M236.5 384.5h.01M88.4 166.9h.01M164.2 346.7h.01M149.5 259.2h.01M176.1 357.9h.01M136.8 266.2h.01M155.3 248.9h.01M117.6 333.1h.01M80.5 344.2h.01M91.2 318.9h.01M185.0 335.0h.01M104.8 138.2h.01M89.6 172.8h.01M84.8 314.6h.01M95.5 180.8h.01M146.4 247.9h.01M86.4 213.2h.01M130.7 329.6h.01M97.1 268.1h.01M89.0 179.0h.01M147.1 354.6h.01M121.9 154.8h.01M193.6 237.6h.01M172.9 222.5h.01M106.3 143.4h.01M192.0 355.3h.01M115.9 345.8h.01M96.9 319.8h.01M92.4 166.2h.01M197.1 370.1h.01M162.7 165.8h.01M150.4 370.0h.01M110.2 157.2h.01M97.7 144.3h.01M247.9 378.8h.01M108.5 293.0h.01M160.5 353.5h.01M203.4 250.0h.01M130.8 256.4h.01M154.9 246.2h.01M71.7 191.2h.01M82.4 177.4h.01M243.5 172.3h.01M97.8 263.1h.01M246.0 412.4h.01M187.7 374.2h.01M189.1 245.8h.01M244.1 168.4h.01M112.5 292.9h.01M243.9 392.8h.01M122.5 290.8h.01M142.2 382.8h.01M250.6 381.9h.01M218.2 399.4h.01M105.3 165.2h.01M223.9 404.4h.01M108.8 326.0h.01M233.3 370.6h.01M87.0 204.1h.01M127.3 371.5h.01M266.0 384.5h.01M247.6 394.9h.01M148.4 378.6h.01M235.7 165.8h.01M149.3 388.9h.01M139.4 250.5h.01M239.6 409.8h.01M197.0 361.5h.01M103.4 328.1h.01M291.5 199.0h.01M277.2 386.5h.01M155.1 379.1h.01M82.2 327.0h.01M223.0 397.8h.01M136.6 339.4h.01M227.5 367.5h.01M84.4 184.1h.01M108.5 336.1h.01M189.2 352.6h.01M219.9 397.1h.01M181.0 366.5h.01M129.5 340.5h.01M185.6 247.1h.01M87.0 217.0h.01M158.4 357.9h.01M194.1 351.7h.01M85.3 230.2h.01M132.9 341.6h.01M257.3 308.5h.01M168.6 363.9h.01M195.5 240.0h.01M110.0 331.7h.01M126.1 365.5h.01M119.5 324.2h.01M219.5 387.5h.01M179.4 354.6h.01M211.8 378.0h.01M90.4 216.6h.01M174.6 235.4h.01M139.9 344.4h.01M161.4 251.4h.01M102.9 279.8h.01M89.4 325.4h.01M152.4 349.2h.01M118.5 363.9h.01M169.7 387.9h.01M116.5 340.8h.01M212.5 389.5h.01M112.0 296.3h.01M114.6 364.4h.01M223.4 390.8h.01M227.1 250.4h.01M223.4 250.2h.01M178.0 365.0h.01M181.8 168.8h.01M88.7 277.4h.01M166.6 376.6h.01M141.0 378.5h.01M112.1 307.8h.01M187.6 228.1h.01M165.7 387.7h.01M167.3 347.9h.01M260.5 290.9h.01M102.0 135.3h.01M145.3 386.8h.01M254.4 375.6h.01M88.2 259.3h.01M158.6 165.9h.01M185.9 252.1h.01M99.9 312.6h.01M259.1 380.5h.01M208.6 241.9h.01M183.5 357.5h.01M228.0 413.7h.01M93.9 294.9h.01M250.5 259.3h.01M123.2 354.0h.01M88.8 198.7h.01M116.9 368.2h.01M240.2 397.4h.01M95.4 327.4h.01M135.7 352.5h.01M175.1 371.4h.01M241.3 254.5h.01M217.0 396.5h.01M79.4 337.0h.01M91.4 327.5h.01M112.8 303.9h.01M88.5 306.2h.01M109.7 355.9h.01M274.1 385.5h.01M167.8 391.2h.01M233.7 364.1h.01M257.3 293.6h.01M98.7 255.5h.01M99.8 178.6h.01M99.3 160.2h.01M224.5 369.7h.01M139.1 168.5h.01M144.1 368.9h.01M218.0 371.0h.01M94.8 311.5h.01M107.2 349.9h.01M153.4 260.3h.01M233.4 394.4h.01M140.0 385.7h.01M93.3 213.7h.01M188.3 365.7h.01M86.8 311.8h.01M206.2 370.2h.01M190.5 349.5h.01M99.0 341.0h.01M153.1 326.3h.01M237.5 259.0h.01M223.0 412.7h.01M104.0 341.4h.01M123.5 368.2h.01M103.5 287.3h.01M157.9 250.7h.01M215.0 371.6h.01M128.6 335.2h.01M136.5 343.0h.01M198.4 243.3h.01M97.6 308.4h.01M122.3 302.4h.01M100.0 288.2h.01M92.5 175.5h.01M143.6 342.4h.01M225.5 253.7h.01M246.3 389.8h.01M120.4 341.3h.01M178.0 368.0h.01M169.4 230.3h.01M211.0 382.6h.01M137.7 367.3h.01M126.0 339.3h.01M229.4 404.2h.01M104.4 345.1h.01M220.1 256.9h.01M119.3 305.2h.01M121.8 351.0h.01M263.0 387.1h.01M241.2 394.0h.01M191.3 372.9h.01M124.7 329.0h.01M181.8 369.6h.01M83.5 222.2h.01M214.1 375.1h.01M223.9 350.4h.01M130.7 286.2h.01M252.3 168.4h.01M151.4 353.8h.01M250.3 255.5h.01M136.3 298.3h.01M161.4 349.6h.01M156.0 243.5h.01M143.4 147.3h.01M159.6 254.5h.01M223.8 376.3h.01M261.7 383.2h.01M217.9 417.5h.01M77.9 329.8h.01M229.6 254.4h.01M227.0 402.3h.01M197.0 354.2h.01M175.4 165.2h.01M227.3 316.7h.01M262.1 374.3h.01M91.6 285.5h.01M155.5 384.0h.01M99.0 272.6h.01M177.2 226.9h.01M263.3 370.4h.01M167.5 372.5h.01M106.8 328.8h.01M150.4 331.8h.01M127.2 298.6h.01M137.5 255.2h.01M116.6 353.4h.01M99.0 283.0h.01M220.4 404.6h.01M128.4 322.1h.01M129.2 374.6h.01M230.7 396.7h.01M134.1 166.1h.01M123.4 344.1h.01M233.5 259.6h.01M162.1 328.7h.01M193.9 364.9h.01M219.4 249.5h.01M107.1 147.8h.01M118.7 303.0h.01M198.4 236.0h.01M189.4 345.0h.01M239.4 402.0h.01M228.3 392.6h.01M92.4 192.6h.01M113.3 312.8h.01M122.9 325.5h.01M130.5 367.0h.01M235.5 391.3h.01M88.5 182.0h.01M229.5 377.5h.01M142.5 345.8h.01M224.5 408.9h.01M139.8 355.4h.01M120.0 330.8h.01M117.6 336.5h.01M96.0 192.0h.01M173.9 374.6h.01M158.8 380.6h.01M196.1 343.8h.01M142.6 242.3h.01M225.1 395.1h.01M90.5 312.0h.01M217.4 228.0h.01M143.2 250.4h.01M92.1 184.1h.01M117.1 349.6h.01M189.1 369.8h.01M125.2 172.0h.01M116.3 294.2h.01M158.4 375.8h.01M176.5 384.7h.01M190.8 234.4h.01M88.8 175.9h.01M155.9 353.7h.01M89.1 232.2h.01M122.3 169.3h.01M160.7 390.2h.01M90.9 220.6h.01M88.9 227.5h.01M112.9 281.9h.01M79.2 176.5h.01M119.7 354.2h.01M181.5 245.6h.01M103.9 283.6h.01M224.4 382.4h.01M171.1 355.6h.01M218.5 367.5h.01M90.8 322.4h.01M97.5 330.5h.01M117.5 357.5h.01M180.3 358.6h.01M192.3 367.2h.01M140.2 370.3h.01M226.9 379.9h.01M115.6 269.8h.01M103.5 348.8h.01M145.4 381.9h.01M126.5 325.9h.01M216.3 389.5h.01M185.7 352.3h.01M162.5 262.9h.01M108.0 317.3h.01M162.3 378.7h.01M123.8 311.1h.01M93.5 330.2h.01M130.5 297.5h.01M258.3 306.0h.01M116.2 360.6h.01M112.6 300.8h.01M138.8 318.5h.01M171.5 371.0h.01M136.5 376.0h.01M260.2 295.6h.01M177.9 361.6h.01M191.3 243.2h.01M92.4 179.2h.01M115.8 330.7h.01M112.6 360.4h.01M261.4 305.4h.01M130.1 345.6h.01M173.3 387.2h.01M177.2 381.0h.01M224.7 378.9h.01M92.5 304.5h.01M206.3 237.8h.01M194.9 330.6h.01M130.5 325.4h.01M242.7 366.8h.01M120.8 173.4h.01M118.5 290.2h.01M218.0 379.0h.01M185.7 378.3h.01M231.8 401.8h.01M172.0 363.5h.01M184.4 372.8h.01M247.3 300.3h.01M73.3 199.3h.01M221.0 373.0h.01M186.2 349.1h.01M194.5 339.9h.01M203.2 246.8h.01M120.4 286.0h.01M267.8 388.2h.01M193.9 361.7h.01M180.6 373.6h.01M139.4 352.1h.01M108.1 281.4h.01M114.5 321.0h.01M81.4 202.2h.01M124.6 304.6h.01M240.5 363.5h.01M80.2 350.9h.01M250.3 401.3h.01M222.4 401.3h.01M183.3 385.1h.01M215.2 393.4h.01M199.2 231.6h.01M128.4 168.5h.01M207.3 251.2h.01M274.0 380.5h.01M99.5 138.6h.01M123.9 298.7h.01M163.9 353.3h.01M79.9 204.8h.01M224.9 257.4h.01M84.1 168.2h.01M167.3 163.4h.01M138.5 242.9h.01M94.0 277.5h.01M124.4 332.1h.01M69.5 203.1h.01M240.9 378.3h.01M200.2 370.2h.01M246.9 405.2h.01M218.1 381.8h.01M137.2 363.5h.01M239.9 173.0h.01M272.1 377.5h.01M216.7 406.5h.01M71.2 195.6h.01M239.7 311.6h.01M125.1 320.2h.01M136.6 330.7h.01M133.8 333.9h.01M88.1 316.7h.01M119.4 270.1h.01M261.5 366.3h.01M118.4 317.8h.01M149.0 358.0h.01M90.3 314.7h.01M170.0 241.4h.01M218.0 376.5h.01M228.6 384.2h.01M113.0 331.5h.01M122.0 296.3h.01M211.9 393.3h.01M182.4 237.4h.01M157.5 366.6h.01M192.0 375.8h.01M180.4 160.6h.01M116.7 314.5h.01M115.7 305.9h.01M235.3 387.8h.01M122.6 274.8h.01M164.2 370.1h.01M128.3 309.6h.01M102.1 337.3h.01M119.3 370.9h.01M251.1 287.7h.01M146.5 344.5h.01M85.0 318.2h.01M90.6 187.8h.01M251.7 300.5h.01M175.0 367.5h.01M142.3 392.4h.01M167.0 288.9h.01M93.6 266.9h.01M194.8 230.4h.01M184.6 234.5h.01M98.8 278.0h.01M87.3 245.7h.01M99.3 334.7h.01M85.6 209.1h.01M121.6 316.7h.01M144.7 360.0h.01M211.5 232.9h.01M254.4 304.8h.01M91.3 301.2h.01M241.8 413.2h.01M167.9 226.6h.01M101.0 331.5h.01M256.2 392.4h.01M144.4 373.6h.01M173.9 352.7h.01M207.9 232.8h.01M238.5 374.8h.01M171.5 164.5h.01M88.4 302.8h.01M164.7 259.1h.01M249.8 282.9h.01M93.1 196.1h.01M125.2 374.7h.01M153.1 387.2h.01M175.7 354.9h.01M229.0 246.8h.01M159.4 261.3h.01M185.4 368.8h.01M86.9 223.4h.01M83.4 238.0h.01M165.1 350.0h.01M183.6 364.4h.01M127.7 331.3h.01M199.1 367.1h.01M133.6 366.2h.01M148.8 384.2h.01M83.3 322.6h.01M87.4 293.4h.01M250.6 297.0h.01M165.7 218.3h.01M113.4 351.2h.01M232.6 360.6h.01M119.6 312.6h.01M241.5 279.1h.01M96.0 237.0h.01M197.0 365.0h.01M101.5 267.3h.01M86.4 235.1h.01M72.8 338.7h.01M102.9 275.1h.01M78.5 325.7h.01M191.2 342.0h.01M142.1 254.3h.01M168.3 222.5h.01M179.9 383.7h.01M202.1 332.9h.01M250.4 361.0h.01M238.3 381.5h.01M146.5 254.3h.01M137.2 379.4h.01M176.5 160.8h.01M98.7 204.1h.01M94.1 272.9h.01M226.0 363.5h.01M181.9 233.2h.01M216.5 402.8h.01M114.5 290.1h.01M114.6 308.8h.01M103.7 147.3h.01M232.7 379.2h.01M224.9 400.9h.01M213.5 229.3h.01M151.7 243.4h.01M153.2 256.5h.01M143.4 355.8h.01M216.0 232.4h.01M171.6 367.4h.01M109.9 351.3h.01M127.4 317.4h.01M115.9 278.2h.01M258.7 368.9h.01M241.7 399.9h.01M204.2 233.3h.01M179.5 164.7h.01M89.5 211.8h.01M89.3 331.2h.01M243.6 408.6h.01M239.2 389.3h.01M93.4 199.2h.01M210.3 367.6h.01M134.3 256.5h.01M212.2 385.7h.01M147.6 240.8h.01M123.6 336.3h.01M159.0 345.0h.01M200.9 343.8h.01M164.8 365.5h.01M174.2 253.4h.01M107.2 305.5h.01M222.6 385.6h.01M77.3 197.5h.01M186.8 382.8h.01M73.1 330.6h.01M94.6 340.8h.01M131.4 275.3h.01M101.5 297.5h.01M187.8 356.5h.01M138.3 389.4h.01M144.2 338.5h.01M176.0 293.5h.01M194.9 234.2h.01M87.5 241.1h.01M182.9 376.3h.01M133.6 379.4h.01M87.2 320.6h.01M180.9 227.1h.01M262.1 378.0h.01M100.7 344.5h.01M171.8 238.1h.01M114.4 317.6h.01M136.5 355.9h.01M81.4 226.8h.01M190.7 230.6h.01M199.6 357.6h.01M240.3 359.5h.01M127.4 313.5h.01M237.7 168.9h.01M231.1 166.0h.01M157.7 387.6h.01M167.9 358.9h.01M210.8 362.9h.01M180.1 240.7h.01M145.0 348.4h.01M134.2 350.1h.01M94.2 281.8h.01M120.0 280.3h.01M167.3 167.6h.01M166.4 247.4h.01M109.3 309.9h.01M221.0 376.0h.01M136.7 345.6h.01M250.5 397.9h.01M127.7 368.6h.01M90.4 308.9h.01M214.3 240.5h.01M99.9 148.5h.01M212.2 252.4h.01M229.5 381.2h.01M132.6 375.6h.01M167.6 352.6h.01M179.0 247.9h.01M229.1 360.8h.01M236.9 366.5h.01M156.5 255.0h.01M93.7 255.5h.01"/>
</svg>