<svg xmlns="http://www.w3.org/2000/svg" viewBox="0 0 360 432" role="img">
<path stroke="#1a1a1a" stroke-width="1.60" stroke-linecap="round" fill="none" d="M270.1 161.1h.01M272.7 229.0h.01M249.5 137.7h.01M184.6 134.1h.01M174.7 235.0h.01M230.3 261.2h.01M197.5 284.2h.01M282.1 213.0h.01M205.5 406.4h.01M170.6 116.9h.01M256.9 319.4h.01M283.0 151.2h.01M261.5 238.8h.01M258.2 77.0h.01M184.7 292.1h.01M176.6 147.8h.01M202.8 292.9h.01M238.2 114.6h.01M248.1 125.6h.01M223.3 391.7h.01M241.6 108.7h.01M287.3 231.5h.01M160.9 130.0h.01M210.7 95.2h.01M228.7 125.2h.01M254.9 158.3h.01M229.5 245.6h.01M253.4 220.3h.01M226.5 92.2h.01M205.1 122.8h.01M95.1 426.0h.01M229.9 375.8h.01M283.2 225.5h.01M255.8 227.1h.01M234.3 224.9h.01M267.8 147.5h.01M213.3 257.0h.01M251.6 164.2h.01M239.0 87.6h.01M194.7 429.3h.01M183.9 175.3h.01M284.4 271.2h.01M169.2 149.7h.01M244.7 152.6h.01M255.5 171.4h.01M211.9 175.9h.01M159.3 147.2h.01M233.4 369.4h.01M153.0 143.0h.01M294.7 405.2h.01M200.6 320.3h.01M245.7 242.6h.01M204.0 92.2h.01M173.0 156.6h.01M247.3 168.0h.01M195.0 351.6h.01M228.5 363.6h.01M210.1 161.3h.01M144.5 428.3h.01M53.7 394.4h.01M193.3 264.4h.01M280.2 265.4h.01M249.2 257.7h.01M213.2 83.5h.01M211.8 88.9h.01M193.8 237.1h.01M180.9 162.1h.01M153.8 127.9h.01M242.3 131.5h.01M252.1 152.2h.01M245.9 145.2h.01M202.2 235.7h.01M190.5 144.0h.01M58.3 398.6h.01M206.8 79.0h.01M263.2 171.1h.01M230.4 117.5h.01M240.4 343.5h.01M244.5 277.0h.01M198.0 97.0h.01M191.0 128.1h.01M271.6 131.6h.01M208.1 115.7h.01M233.6 98.0h.01M249.1 226.5h.01M123.1 416.9h.01M229.2 199.2h.01M186.0 150.6h.01M288.5 201.5h.01M227.9 231.8h.01M208.9 298.7h.01M166.6 143.2h.01M236.4 362.7h.01M269.0 195.5h.01M274.5 287.5h.01M63.1 402.7h.01M287.9 165.8h.01M358.6 109.7h.01M256.3 253.5h.01M253.7 131.4h.01M185.6 183.6h.01M294.6 234.3h.01M279.3 134.5h.01M178.3 130.5h.01M221.9 105.5h.01M246.3 364.6h.01M182.3 424.8h.01M200.7 243.7h.01M222.9 428.4h.01M290.9 248.1h.01M179.6 170.1h.01M269.8 208.0h.01M221.2 373.3h.01M253.7 235.6h.01M263.4 182.9h.01M215.5 100.2h.01M220.3 399.8h.01M201.7 138.4h.01M261.3 189.5h.01M183.8 284.8h.01M234.5 130.4h.01M48.0 388.5h.01M186.6 167.8h.01M216.0 153.9h.01M282.3 195.3h.01M223.5 379.8h.01M206.6 108.4h.01M82.1 418.5h.01M154.4 155.1h.01M211.3 409.2h.01M238.6 122.7h.01M211.1 401.2h.01M266.8 187.8h.01M203.2 164.4h.01M112.2 244.2h.01M188.5 231.6h.01M268.7 201.4h.01M229.9 109.7h.01M286.6 411.9h.01M172.3 171.6h.01M281.2 234.9h.01M188.4 111.0h.01M180.8 258.5h.01M225.6 268.9h.01M213.0 77.3h.01M262.8 160.1h.01M217.4 223.2h.01M205.1 324.9h.01M182.5 199.8h.01M241.2 100.6h.01M158.3 121.9h.01M267.1 139.0h.01M192.6 82.0h.01M213.3 124.1h.01M279.7 415.8h.01M208.1 379.8h.01M209.5 139.2h.01M264.7 426.8h.01M198.8 358.8h.01M270.9 221.8h.01M194.5 291.9h.01M186.3 429.5h.01M203.1 338.0h.01M217.0 266.0h.01M218.6 170.4h.01M253.6 145.3h.01M272.7 420.9h.01M266.9 233.6h.01M159.4 138.0h.01M248.0 100.7h.01M184.1 265.9h.01M288.1 215.1h.01M190.5 118.6h.01M264.9 115.1h.01M166.8 135.6h.01M219.4 129.9h.01M185.9 317.5h.01M218.8 199.9h.01M197.6 159.1h.01M222.6 260.7h.01M237.5 156.9h.01M242.7 269.8h.01M200.2 343.2h.01M192.7 104.5h.01M206.7 100.6h.01M147.2 130.1h.01M233.9 138.7h.01M203.9 85.1h.01M174.5 111.5h.01M182.6 93.6h.01M232.5 428.5h.01M315.9 382.6h.01M205.1 387.7h.01M257.3 124.9h.01M180.9 229.6h.01M223.4 176.2h.01M289.0 155.1h.01M201.6 172.0h.01M212.0 386.7h.01M206.2 146.2h.01M172.8 218.6h.01M222.6 97.7h.01M183.7 207.5h.01M246.1 354.9h.01M167.5 176.9h.01M251.3 278.7h.01M217.8 138.3h.01M249.4 249.4h.01M277.0 271.5h.01M194.9 166.1h.01M208.3 334.6h.01M220.7 365.9h.01M202.0 300.2h.01M0.4 286.7h.01M157.6 429.4h.01M242.3 172.1h.01M201.7 394.2h.01M288.7 254.8h.01M182.6 142.1h.01M215.4 378.5h.01M165.8 123.0h.01M269.5 281.7h.01M223.9 203.5h.01M288.8 222.0h.01M191.9 244.0h.01M183.6 237.3h.01M228.4 101.5h.01M201.4 179.1h.01M41.3 381.0h.01M241.9 251.8h.01M173.1 104.9h.01M67.9 406.6h.01M170.0 347.3h.01M216.3 394.3h.01M175.3 122.8h.01M196.2 364.4h.01M244.6 262.8h.01M252.5 328.5h.01M166.7 109.9h.01M150.7 428.4h.01M197.6 121.8h.01M190.0 287.0h.01M286.0 208.0h.01M271.0 214.5h.01M169.6 261.8h.01M303.0 398.7h.01M173.6 256.7h.01M266.0 123.8h.01M222.0 147.5h.01M237.6 275.5h.01M258.6 137.6h.01M180.8 155.0h.01M287.5 174.6h.01M186.3 87.3h.01M254.3 263.2h.01M194.8 298.7h.01M235.6 105.5h.01M226.8 133.9h.01M183.7 123.7h.01M130.6 428.1h.01M259.4 165.5h.01M119.1 242.9h.01M271.5 274.4h.01M225.1 162.1h.01M216.1 115.9h.01M246.8 117.7h.01M223.0 113.2h.01M246.7 234.4h.01M202.2 353.6h.01M263.0 210.8h.01M209.8 169.2h.01M247.6 108.9h.01M238.1 259.5h.01M263.3 131.2h.01M200.0 130.5h.01M123.6 429.1h.01M175.4 264.7h.01M230.3 218.9h.01M184.8 215.5h.01M276.7 156.0h.01M204.0 428.9h.01M230.9 147.4h.01M202.0 253.9h.01M249.2 397.9h.01M203.4 285.9h.01M192.2 356.5h.01M187.1 348.8h.01M241.3 228.8h.01M201.1 348.3h.01M227.0 369.8h.01M179.4 222.0h.01M220.2 86.7h.01M280.7 143.9h.01M212.3 414.9h.01M232.7 252.6h.01M66.0 356.5h.01M137.1 429.5h.01M265.7 225.5h.01M259.4 176.7h.01M265.7 177.2h.01M209.3 153.3h.01M222.7 252.1h.01M267.8 241.8h.01M221.8 121.6h.01M227.3 385.3h.01M247.0 284.2h.01M207.4 349.0h.01M105.5 234.9h.01M173.1 226.8h.01M174.6 138.6h.01M273.3 236.1h.01M262.7 248.3h.01M153.3 422.3h.01M256.7 118.0h.01M220.3 80.6h.01M217.7 162.7h.01M232.6 90.4h.01M152.5 135.6h.01M192.6 314.8h.01M202.6 154.3h.01M260.5 152.2h.01M214.2 108.0h.01M177.4 242.7h.01M188.7 159.2h.01M243.3 406.1h.01M143.9 161.0h.01M76.7 413.8h.01M217.3 177.7h.01M208.0 250.4h.01M177.5 213.2h.01M190.6 94.5h.01M125.6 422.7h.01M244.9 160.0h.01M196.4 88.1h.01M239.1 93.7h.01M64.2 160.7h.01M255.2 243.9h.01M192.9 172.7h.01M181.0 107.5h.01M178.3 345.3h.01M165.5 170.3h.01M235.2 267.9h.01M268.1 154.9h.01M175.9 205.7h.01M215.9 247.5h.01M192.8 136.8h.01M275.7 242.6h.01M187.7 223.2h.01M195.0 228.4h.01M188.3 251.5h.01M181.1 115.8h.01M173.3 250.0h.01M177.1 319.0h.01M0.4 105.4h.01M178.8 295.5h.01M151.0 163.1h.01M358.6 294.5h.01M199.5 78.7h.01M185.1 244.3h.01M194.3 220.9h.01M186.0 101.4h.01M158.8 167.8h.01M183.6 299.3h.01M188.6 259.0h.01M201.5 400.8h.01M212.9 345.8h.01M208.8 394.5h.01M200.2 104.8h.01M238.1 147.9h.01M277.0 208.8h.01M277.6 281.3h.01M248.5 382.0h.01M229.8 175.6h.01M122.6 236.7h.01M218.1 92.7h.01M224.4 224.8h.01M150.7 149.1h.01M260.8 230.4h.01M283.9 259.1h.01M274.1 141.1h.01M180.9 250.7h.01M250.1 270.1h.01M162.8 115.5h.01M237.1 243.7h.01M300.3 193.3h.01M207.4 421.4h.01M285.8 181.4h.01M184.4 354.9h.01M198.3 113.1h.01M261.1 144.7h.01M163.0 154.2h.01M281.6 0.4h.01M239.6 423.2h.01M226.7 169.2h.01M178.8 99.8h.01M116.6 248.4h.01M299.0 217.6h.01M174.1 164.7h.01M238.1 205.6h.01M219.1 385.9h.01M234.7 171.5h.01M166.5 162.3h.01M232.8 163.2h.01M256.5 193.3h.01M276.8 216.3h.01M209.3 131.5h.01M277.0 223.1h.01M206.9 342.5h.01M195.7 179.4h.01M214.5 145.6h.01M225.8 142.0h.01M239.8 165.4h.01M170.5 129.5h.01M264.7 217.3h.01M198.3 145.9h.01M310.8 389.1h.01M275.4 257.8h.01M159.1 160.6h.01"/>
<path stroke="#1a1a1a" stroke-width="1.94" stroke-linecap="round" fill="none" d="M164.8 40.0h.01M268.5 261.2h.01M216.6 428.8h.01M216.5 61.9h.01M199.5 43.8h.01M174.9 37.7h.01M286.9 137.8h.01M67.8 276.8h.01M248.2 328.4h.01M207.4 305.6h.01M234.0 82.4h.01M251.5 205.5h.01M137.9 137.5h.01M130.8 223.2h.01M96.4 420.7h.01M200.9 306.7h.01M189.6 178.3h.01M190.2 342.3h.01M283.7 159.5h.01M211.8 321.5h.01M218.6 297.8h.01M175.8 177.0h.01M128.3 218.7h.01M253.0 65.1h.01M284.2 121.3h.01M199.3 408.7h.01M358.6 208.0h.01M88.5 213.8h.01M72.3 136.8h.01M129.6 130.1h.01M161.2 51.8h.01M263.5 275.5h.01M110.6 153.1h.01M143.4 213.7h.01M133.0 187.4h.01M283.6 407.7h.01M285.4 239.7h.01M151.3 89.3h.01M196.2 249.2h.01M228.1 279.7h.01M117.8 419.1h.01M100.8 230.2h.01M166.2 78.2h.01M219.6 331.7h.01M218.6 318.4h.01M138.1 83.3h.01M204.3 363.2h.01M304.2 391.3h.01M247.4 65.3h.01M246.9 60.1h.01M260.6 71.9h.01M165.0 341.0h.01M204.1 55.0h.01M161.0 314.4h.01M156.1 71.1h.01M54.9 389.9h.01M171.9 83.3h.01M103.9 210.4h.01M137.0 161.4h.01M239.8 307.5h.01M265.7 105.8h.01M186.5 334.8h.01M72.8 409.7h.01M116.7 222.9h.01M233.8 333.4h.01M107.2 222.5h.01M156.3 298.1h.01M72.9 126.6h.01M267.0 97.8h.01M251.3 318.5h.01M210.9 224.8h.01M234.4 344.3h.01M245.6 370.0h.01M181.6 403.4h.01M0.4 251.2h.01M109.1 239.7h.01M91.4 227.3h.01M175.5 423.2h.01M252.6 298.4h.01M180.8 67.7h.01M237.0 68.0h.01M217.7 342.0h.01M191.3 184.6h.01M233.7 281.1h.01M106.9 157.7h.01M281.7 277.1h.01M286.9 264.6h.01M208.7 373.4h.01M112.5 142.4h.01M140.3 192.6h.01M170.4 407.4h.01M115.8 238.2h.01M98.8 210.7h.01M184.5 342.1h.01M0.4 136.4h.01M149.7 85.0h.01M177.9 51.1h.01M239.3 411.9h.01M188.9 360.8h.01M86.1 96.7h.01M236.1 293.9h.01M146.6 70.4h.01M255.4 304.8h.01M194.4 376.9h.01M242.8 329.0h.01M167.9 232.5h.01M124.5 231.9h.01M259.7 221.2h.01M119.1 261.4h.01M232.7 381.1h.01M231.0 66.8h.01M234.6 234.4h.01M222.4 303.7h.01M252.7 292.2h.01M146.4 341.6h.01M215.7 239.5h.01M113.4 212.5h.01M271.5 189.4h.01M274.9 203.5h.01M281.1 166.1h.01M282.3 219.6h.01M137.7 167.8h.01M211.8 359.6h.01M101.3 248.3h.01M207.3 179.0h.01M167.9 328.8h.01M216.8 325.5h.01M279.7 409.7h.01M153.0 334.6h.01M274.2 184.8h.01M126.0 134.6h.01M167.1 248.3h.01M246.0 194.4h.01M182.6 60.6h.01M144.2 54.6h.01M268.0 254.1h.01M155.2 316.8h.01M135.6 241.9h.01M182.0 337.3h.01M166.1 61.7h.01M115.1 428.8h.01M257.5 294.3h.01M184.0 53.8h.01M211.6 353.7h.01M283.4 246.2h.01M232.3 350.4h.01M129.5 233.3h.01M192.4 36.8h.01M155.8 62.4h.01M255.9 201.2h.01M126.3 254.7h.01M294.8 221.6h.01M151.1 352.3h.01M226.3 397.6h.01M233.4 194.7h.01M212.5 40.1h.01M111.4 190.4h.01M195.1 254.8h.01M217.2 73.8h.01M114.9 136.7h.01M52.8 167.1h.01M176.6 270.7h.01M150.6 316.7h.01M94.0 231.7h.01M140.6 220.0h.01M160.9 346.0h.01M124.4 117.2h.01M272.2 109.4h.01M151.1 71.4h.01M169.6 205.5h.01M194.0 152.6h.01M196.5 420.2h.01M205.2 46.9h.01M134.9 147.0h.01M79.1 336.0h.01M179.4 81.9h.01M275.5 170.3h.01M124.9 124.3h.01M164.0 259.0h.01M201.3 218.8h.01M171.4 66.0h.01M240.4 236.8h.01M261.3 266.0h.01M119.0 126.6h.01M108.5 208.6h.01M244.7 312.4h.01M155.4 84.8h.01M167.1 254.5h.01M201.7 224.3h.01M144.6 223.0h.01M248.3 82.5h.01M162.3 298.4h.01M212.5 339.2h.01M249.1 174.6h.01M139.1 155.5h.01M77.9 114.4h.01M193.6 73.4h.01M250.3 184.1h.01M294.4 215.3h.01M190.7 305.1h.01M241.2 139.6h.01M219.5 355.2h.01M161.5 424.2h.01M213.9 420.2h.01M232.8 307.1h.01M170.2 211.8h.01M192.1 42.5h.01M161.2 61.4h.01M68.3 293.8h.01M160.9 87.7h.01M147.5 64.2h.01M173.3 413.4h.01M270.3 173.5h.01M135.3 107.7h.01M255.2 286.3h.01M258.7 310.4h.01M129.1 106.2h.01M151.1 52.1h.01M127.6 249.6h.01M165.6 67.0h.01M193.4 416.7h.01M168.2 44.2h.01M198.3 270.4h.01M175.7 402.4h.01M156.8 78.4h.01M173.8 300.7h.01M247.9 76.6h.01M123.3 142.5h.01M213.0 315.2h.01M182.2 361.7h.01M158.7 354.7h.01M65.1 166.1h.01M185.1 411.9h.01M142.2 79.4h.01M205.2 185.3h.01M153.5 57.3h.01M96.4 226.1h.01M184.5 329.1h.01M261.3 258.5h.01M45.5 381.3h.01M292.9 209.3h.01M228.4 78.4h.01M92.9 221.7h.01M253.5 95.6h.01M125.7 186.5h.01M158.2 339.0h.01M89.1 421.5h.01M240.2 320.1h.01M223.2 277.2h.01M222.0 195.9h.01M140.5 132.2h.01M156.0 49.0h.01M129.9 243.4h.01M145.0 195.0h.01M135.3 128.7h.01M225.2 422.3h.01M288.5 145.7h.01M169.0 296.2h.01M72.2 132.3h.01M247.2 375.5h.01M269.6 181.8h.01M199.8 424.6h.01M239.3 325.0h.01M257.8 278.9h.01M67.1 400.0h.01M256.3 208.1h.01M292.5 241.3h.01M216.8 405.2h.01M208.2 65.2h.01M242.5 428.4h.01M102.8 309.4h.01M161.1 93.4h.01M49.5 383.1h.01M122.5 219.0h.01M142.5 117.8h.01M209.7 289.0h.01M169.8 305.9h.01M152.8 108.8h.01M214.8 303.5h.01M186.3 79.3h.01M183.0 189.3h.01M123.3 210.4h.01M199.4 51.3h.01M131.9 157.0h.01M262.8 283.3h.01M239.1 332.4h.01M140.0 99.1h.01M243.4 302.4h.01M179.9 303.6h.01M131.9 237.7h.01M156.2 359.3h.01M178.7 193.4h.01M252.4 309.2h.01M190.4 270.1h.01M129.3 101.0h.01M240.8 82.0h.01M77.1 124.8h.01M254.4 186.0h.01M99.0 235.4h.01M121.0 190.1h.01M149.7 100.8h.01M135.2 192.2h.01M122.5 0.4h.01M82.8 213.6h.01M166.3 103.2h.01M141.2 125.8h.01M132.8 227.4h.01M255.0 428.6h.01M172.4 48.0h.01M198.7 313.6h.01M176.9 366.2h.01M141.6 73.4h.01M226.6 71.1h.01M224.1 216.8h.01M139.3 89.9h.01M179.8 414.3h.01M146.7 154.8h.01M106.9 313.0h.01M238.6 355.8h.01M257.2 214.3h.01M132.7 135.2h.01M165.4 216.5h.01M213.1 294.1h.01M197.3 327.0h.01M86.3 415.7h.01M224.5 337.5h.01M244.2 323.8h.01M229.6 390.7h.01M272.9 86.9h.01M218.7 337.0h.01M155.0 97.4h.01M165.3 317.6h.01M113.6 260.4h.01M165.9 84.5h.01M134.9 220.9h.01M220.0 346.8h.01M120.9 223.7h.01M241.8 291.0h.01M177.8 56.4h.01M149.0 94.4h.01M194.6 333.1h.01M146.9 123.0h.01M163.7 188.2h.01M260.8 420.2h.01M249.6 302.9h.01M272.1 248.8h.01M101.6 426.8h.01M240.2 314.9h.01M207.5 219.8h.01M170.9 401.0h.01M203.0 61.2h.01M238.8 177.7h.01M146.1 143.4h.01M201.8 418.7h.01M197.3 276.7h.01M119.1 424.6h.01M112.3 206.2h.01M222.6 242.4h.01M132.5 164.8h.01M260.0 109.1h.01M123.4 107.9h.01M290.9 400.0h.01M188.7 48.6h.01M210.2 264.9h.01M235.5 287.5h.01M134.5 252.1h.01M194.4 345.7h.01M145.6 422.9h.01M116.8 408.2h.01M206.3 357.5h.01M107.9 229.1h.01M110.9 249.7h.01M188.7 372.8h.01M275.1 193.4h.01M228.6 344.2h.01M210.8 328.1h.01M115.8 116.9h.01M211.8 199.9h.01M243.1 70.3h.01M176.3 199.3h.01M276.1 163.0h.01M252.5 0.4h.01M213.9 424.6h.01M260.7 93.4h.01M190.8 337.0h.01M125.2 157.8h.01M117.0 414.2h.01M107.8 261.0h.01M164.5 358.4h.01M174.6 93.0h.01M58.3 168.7h.01M241.0 57.3h.01M176.3 62.6h.01M294.2 194.4h.01M190.6 329.6h.01M358.6 264.1h.01M0.4 164.8h.01M358.6 236.2h.01M138.6 209.6h.01M171.0 361.3h.01M222.0 0.4h.01M262.1 204.5h.01M205.3 38.7h.01M182.7 369.6h.01M147.2 173.1h.01M111.7 225.5h.01M251.7 89.1h.01M248.6 200.4h.01M140.1 228.6h.01M102.9 224.7h.01M214.6 370.7h.01M139.3 142.5h.01M215.7 231.4h.01M195.3 57.6h.01M249.6 70.9h.01M246.3 333.4h.01M194.1 193.0h.01M116.0 189.6h.01M200.6 70.0h.01M107.1 255.7h.01M143.7 168.2h.01M167.9 51.2h.01M118.7 159.2h.01M167.6 238.3h.01M114.0 148.2h.01M242.1 337.6h.01M172.8 53.8h.01M114.5 228.7h.01M217.5 53.4h.01M170.3 199.5h.01M116.5 185.7h.01M254.2 103.8h.01M111.6 255.6h.01M137.0 235.0h.01M246.9 181.5h.01M280.1 106.9h.01M177.3 46.0h.01M210.8 51.8h.01M246.0 93.8h.01M245.3 206.3h.01M245.6 318.2h.01M272.1 102.1h.01M167.5 301.1h.01M296.1 399.0h.01M206.9 72.2h.01M138.1 215.4h.01M259.1 424.9h.01M149.7 415.6h.01M172.9 42.5h.01M163.7 304.6h.01M128.1 227.9h.01M104.3 153.3h.01M175.5 418.0h.01M46.3 172.1h.01M203.8 206.0h.01M249.8 212.7h.01M82.7 209.3h.01M255.5 70.2h.01M242.9 76.8h.01M226.5 354.1h.01M278.5 189.4h.01M124.1 245.8h.01M72.1 349.0h.01M273.8 414.7h.01M248.9 323.1h.01M154.8 103.4h.01M189.5 324.0h.01M149.2 297.0h.01M268.2 91.7h.01M188.9 366.4h.01M152.1 65.5h.01M288.5 195.5h.01M263.3 193.9h.01M258.5 186.3h.01M229.4 324.5h.01M236.3 199.8h.01M145.2 137.2h.01M105.8 250.6h.01M294.8 227.3h.01M170.9 353.8h.01M183.3 418.9h.01M165.7 56.0h.01M358.6 146.3h.01M136.2 121.7h.01M202.3 375.4h.01M169.1 321.5h.01M175.1 70.7h.01M166.0 227.2h.01M166.5 96.0h.01M179.6 182.1h.01M224.0 48.7h.01M282.1 201.8h.01M264.9 76.9h.01M169.5 422.6h.01M274.8 178.1h.01M121.4 154.2h.01M293.2 203.9h.01M180.7 37.3h.01M171.7 340.9h.01M228.4 54.8h.01M274.9 93.5h.01M179.5 331.9h.01M121.1 148.5h.01M164.2 351.9h.01M173.2 332.0h.01M219.7 422.2h.01M126.9 112.3h.01M173.1 77.1h.01M76.8 120.0h.01M224.7 349.3h.01M245.4 87.3h.01M276.7 125.1h.01M103.2 303.7h.01M164.1 263.9h.01M236.7 338.5h.01M280.1 252.1h.01M89.0 219.4h.01M93.3 216.2h.01M199.2 334.4h.01M170.9 367.8h.01M145.3 418.1h.01M163.7 182.1h.01M257.9 300.1h.01M128.0 212.5h.01M260.0 100.2h.01M177.9 351.6h.01M119.8 214.4h.01M132.2 141.5h.01M186.3 195.2h.01M251.7 196.1h.01M117.4 209.4h.01M151.3 310.7h.01M237.2 75.6h.01M107.4 147.8h.01M272.5 266.1h.01M266.6 420.8h.01M269.2 81.9h.01M160.6 45.1h.01M185.2 306.2h.01M76.2 339.9h.01M266.4 268.9h.01M240.9 297.7h.01M129.1 190.1h.01M223.7 406.4h.01M131.8 112.1h.01M136.1 115.4h.01M112.4 159.2h.01M264.8 87.2h.01M128.7 161.5h.01M172.1 98.5h.01M109.4 425.5h.01M198.0 63.6h.01M168.4 90.0h.01M160.7 100.0h.01M200.5 186.0h.01M211.0 45.4h.01M135.1 101.6h.01M231.6 207.9h.01M146.7 106.2h.01M80.9 106.7h.01M147.8 346.9h.01M147.2 76.0h.01M156.4 114.2h.01M156.8 179.5h.01M225.9 332.9h.01M131.3 96.9h.01M127.9 152.2h.01M201.3 381.5h.01M258.0 88.1h.01M194.2 49.3h.01M255.4 314.6h.01M167.8 335.7h.01M244.4 401.6h.01M223.0 75.4h.01M118.9 228.3h.01M274.2 149.5h.01M241.2 63.5h.01M230.3 155.3h.01M122.0 185.1h.01M189.5 190.5h.01M113.1 421.8h.01M130.4 124.6h.01M171.1 59.2h.01M196.1 370.8h.01M242.9 212.8h.01M121.6 251.6h.01M205.5 259.8h.01M130.5 253.8h.01M235.9 54.1h.01M154.1 345.0h.01M107.6 140.7h.01M288.6 405.5h.01M107.6 163.4h.01M175.9 408.7h.01M118.7 232.9h.01M172.3 193.4h.01M248.0 388.3h.01M132.7 215.8h.01M159.4 174.9h.01M241.8 188.9h.01M141.2 110.9h.01M235.1 327.2h.01M223.0 154.8h.01M272.2 370.3h.01M240.4 349.4h.01M228.6 60.9h.01M246.8 307.7h.01M177.5 87.8h.01M178.2 326.2h.01M176.5 358.2h.01M208.9 242.8h.01M187.8 64.0h.01M112.1 233.6h.01M116.1 154.0h.01M164.5 47.6h.01M299.9 395.4h.01M171.7 182.3h.01M181.2 408.6h.01M234.3 320.0h.01M196.1 339.5h.01M131.4 286.5h.01M85.8 0.4h.01M207.5 281.5h.01M81.6 412.2h.01M229.6 239.2h.01M165.5 428.4h.01M276.0 198.2h.01M257.0 272.0h.01M116.1 254.0h.01M126.2 239.9h.01M175.9 187.7h.01M98.6 220.8h.01M160.7 75.6h.01M101.8 254.2h.01M132.0 84.9h.01M123.3 227.4h.01M143.0 85.4h.01M221.9 234.6h.01M243.9 178.4h.01M180.2 75.1h.01M70.1 141.1h.01M156.3 311.3h.01M249.4 313.6h.01M107.5 429.2h.01M157.5 0.4h.01M224.1 64.7h.01M284.1 187.9h.01M222.4 57.8h.01M166.8 221.7h.01M133.9 209.8h.01M162.8 71.6h.01M271.8 118.6h.01M189.3 56.7h.01M279.8 183.4h.01M205.3 413.8h.01M151.8 119.1h.01M277.2 114.7h.01M120.3 120.8h.01M303.5 200.1h.01M253.5 111.6h.01M151.5 339.7h.01M262.1 289.8h.01M214.4 333.1h.01M62.9 396.7h.01M140.8 104.4h.01M146.8 312.2h.01M254.9 82.9h.01M112.0 221.5h.01M0.4 192.5h.01M105.4 244.8h.01M155.6 91.7h.01M230.7 50.2h.01M262.2 296.6h.01M203.3 330.7h.01M299.2 211.0h.01M173.8 293.8h.01M242.5 200.4h.01M168.9 268.5h.01M146.6 81.4h.01M210.5 58.8h.01M186.6 37.3h.01M196.4 304.0h.01M89.4 91.6h.01M162.0 250.6h.01M190.7 214.7h.01M282.5 171.5h.01M154.3 416.2h.01M177.4 429.2h.01M126.1 223.1h.01M188.6 298.1h.01M215.5 196.2h.01M218.5 310.5h.01M137.4 77.5h.01M152.7 170.7h.01M176.3 311.8h.01M195.6 187.4h.01M253.0 76.8h.01M202.8 277.5h.01M178.2 287.7h.01M210.3 428.8h.01M288.8 372.5h.01M110.1 134.2h.01M261.9 82.1h.01M163.4 244.0h.01M145.8 89.6h.01M268.5 290.0h.01M128.0 146.8h.01M186.8 71.5h.01M102.0 240.8h.01M185.0 42.6h.01M127.9 53.4h.01M202.4 229.6h.01M148.0 113.3h.01M171.5 428.8h.01M223.6 359.1h.01M232.1 73.9h.01M182.5 47.8h.01M240.3 283.5h.01M168.6 72.4h.01M283.8 113.8h.01M138.0 47.9h.01M114.7 122.4h.01M237.3 193.0h.01M208.4 229.5h.01M213.2 69.1h.01M139.7 422.4h.01M72.5 311.6h.01M112.9 265.2h.01M194.5 321.2h.01M107.9 214.5h.01M165.6 364.6h.01M280.6 177.1h.01M234.6 60.7h.01M178.6 41.7h.01M160.7 81.6h.01M216.4 351.0h.01M132.8 247.6h.01M169.3 187.6h.01M146.6 217.4h.01M160.0 107.5h.01M222.9 322.6h.01M227.4 84.9h.01M206.7 317.5h.01M241.2 194.8h.01M183.9 272.9h.01M246.8 296.6h.01M231.6 357.9h.01M153.3 75.8h.01M159.5 67.0h.01M158.6 56.1h.01M145.0 99.0h.01M229.4 313.0h.01M223.4 342.3h.01M252.6 179.4h.01M267.9 166.7h.01M257.1 181.8h.01M285.7 129.2h.01M219.5 272.3h.01M227.3 318.3h.01M151.5 80.0h.01M129.9 118.7h.01M219.9 411.0h.01M223.2 328.0h.01M135.0 230.7h.01M261.5 198.7h.01M251.4 189.3h.01M170.2 242.8h.01M229.7 329.9h.01M219.9 68.4h.01M193.9 383.6h.01M235.4 313.1h.01M247.7 290.1h.01M218.2 45.5h.01M176.7 337.7h.01M190.5 0.4h.01M134.9 151.7h.01M230.1 274.0h.01M261.0 304.3h.01M278.4 99.7h.01M198.2 37.9h.01M254.2 323.5h.01M142.1 149.5h.01M197.8 387.9h.01M0.4 220.8h.01M122.7 257.2h.01M193.1 66.0h.01M169.5 38.6h.01M118.2 257.4h.01M358.6 178.1h.01"/>
<path stroke="#1a1a1a" stroke-width="2.45" stroke-linecap="round" fill="none" d="M134.5 320.9h.01M57.2 175.9h.01M52.6 380.2h.01M78.5 200.7h.01M111.4 185.2h.01M93.0 249.8h.01M115.5 291.7h.01M85.6 317.8h.01M189.0 420.6h.01M102.7 143.7h.01M123.1 313.6h.01M125.0 72.2h.01M88.1 259.2h.01M163.5 400.1h.01M122.6 321.6h.01M121.5 280.0h.01M213.6 271.8h.01M68.6 185.4h.01M93.5 167.1h.01M116.3 218.3h.01M75.4 191.3h.01M88.7 102.2h.01M216.0 286.6h.01M85.6 217.0h.01M112.5 313.7h.01M108.5 325.5h.01M81.9 250.0h.01M103.9 104.7h.01M105.0 176.5h.01M115.4 130.6h.01M82.5 407.3h.01M230.2 291.7h.01M67.2 155.7h.01M64.5 219.9h.01M142.8 66.9h.01M150.9 367.0h.01M127.8 62.7h.01M94.1 334.1h.01M97.9 280.9h.01M228.4 302.8h.01M154.9 42.6h.01M58.6 371.3h.01M50.1 241.3h.01M78.9 321.5h.01M120.8 363.5h.01M87.9 163.7h.01M54.9 253.1h.01M109.4 302.8h.01M89.9 245.6h.01M78.1 185.5h.01M144.6 359.7h.01M147.6 320.6h.01M195.7 208.6h.01M128.4 172.2h.01M108.2 266.0h.01M74.3 200.8h.01M228.9 409.3h.01M87.9 116.1h.01M210.4 184.0h.01M74.5 162.2h.01M235.7 301.2h.01M98.9 201.3h.01M224.0 283.3h.01M108.6 334.5h.01M94.1 158.8h.01M137.6 411.8h.01M66.0 204.3h.01M127.3 297.6h.01M157.6 331.6h.01M153.4 321.6h.01M52.7 205.5h.01M70.0 145.7h.01M138.4 62.5h.01M84.8 173.3h.01M106.5 294.5h.01M83.5 257.2h.01M117.5 337.0h.01M84.1 221.3h.01M105.4 286.1h.01M57.3 184.0h.01M148.5 256.3h.01M100.0 96.1h.01M266.7 370.5h.01M104.0 199.8h.01M111.3 126.4h.01M203.4 191.6h.01M61.7 202.6h.01M107.8 106.1h.01M171.0 372.9h.01M278.1 371.2h.01M67.5 160.4h.01M217.2 191.8h.01M89.0 157.2h.01M104.5 331.2h.01M173.2 325.2h.01M98.6 159.0h.01M73.3 252.1h.01M124.6 66.7h.01M103.2 290.1h.01M110.0 287.6h.01M76.9 403.1h.01M81.4 131.3h.01M156.7 369.8h.01M92.5 139.2h.01M107.5 122.5h.01M110.1 102.1h.01M254.4 421.6h.01M105.1 117.5h.01M286.5 399.9h.01M75.7 174.4h.01M69.3 265.2h.01M76.4 204.5h.01M194.5 202.8h.01M124.1 358.9h.01M144.4 256.1h.01M133.1 79.9h.01M233.9 179.6h.01M161.3 230.1h.01M95.8 120.9h.01M85.9 120.7h.01M86.4 268.3h.01M94.5 284.0h.01M83.1 323.4h.01M76.6 231.2h.01M48.7 378.0h.01M91.0 129.3h.01M82.5 117.4h.01M188.9 414.4h.01M103.2 74.5h.01M144.3 308.4h.01M99.0 90.3h.01M198.2 259.4h.01M202.9 369.7h.01M72.8 404.2h.01M107.9 307.7h.01M96.6 103.1h.01M89.2 412.8h.01M80.7 246.1h.01M305.7 385.4h.01M172.7 288.7h.01M88.6 263.6h.01M89.5 254.9h.01M112.0 290.5h.01M84.9 271.6h.01M59.1 222.7h.01M85.2 253.6h.01M126.2 338.5h.01M93.7 255.0h.01M73.8 221.8h.01M144.4 299.3h.01M138.1 224.9h.01M113.2 92.7h.01M150.5 241.6h.01M83.9 266.2h.01M123.3 81.9h.01M146.1 364.1h.01M87.9 224.0h.01M102.1 188.8h.01M103.1 263.9h.01M67.7 357.4h.01M162.2 268.0h.01M86.2 327.2h.01M95.8 133.6h.01M84.3 147.8h.01M77.7 146.1h.01M133.8 264.0h.01M225.7 192.5h.01M72.0 154.2h.01M165.3 309.6h.01M84.9 313.1h.01M117.6 311.6h.01M97.6 257.2h.01M279.6 403.9h.01M148.4 194.1h.01M135.9 344.5h.01M74.1 186.6h.01M81.9 124.3h.01M71.6 291.0h.01M93.2 190.8h.01M132.9 312.2h.01M105.7 321.2h.01M104.7 325.9h.01M122.1 62.3h.01M77.3 170.4h.01M161.8 193.3h.01M299.9 386.1h.01M75.4 196.2h.01M137.1 95.7h.01M52.7 173.1h.01M98.2 190.8h.01M104.5 86.2h.01M58.9 260.3h.01M230.7 297.2h.01M76.8 276.2h.01M119.3 92.3h.01M93.3 125.3h.01M121.4 266.1h.01M115.2 88.0h.01M69.0 222.1h.01M103.7 92.6h.01M147.0 263.2h.01M124.5 96.1h.01M69.4 298.2h.01M48.0 206.2h.01M118.3 296.0h.01M238.4 367.4h.01M94.6 289.7h.01M123.1 130.3h.01M143.6 294.2h.01M214.8 182.6h.01M76.7 154.0h.01M144.8 260.2h.01M128.9 92.7h.01M99.6 267.5h.01M78.4 136.2h.01M212.9 216.2h.01M116.4 203.2h.01M101.6 148.7h.01M91.2 196.1h.01M153.9 302.8h.01M89.3 192.7h.01M72.1 209.4h.01M94.1 203.0h.01M132.2 367.2h.01M234.4 185.2h.01M86.3 134.3h.01M71.1 247.7h.01M129.3 310.0h.01M228.0 403.6h.01M137.9 350.0h.01M82.2 111.5h.01M129.1 294.7h.01M96.7 141.8h.01M209.5 188.8h.01M148.0 234.6h.01M92.9 260.2h.01M155.7 254.4h.01M82.3 231.3h.01M105.3 134.3h.01M176.1 372.3h.01M80.9 224.6h.01M95.0 301.5h.01M107.8 97.4h.01M169.9 416.9h.01M67.4 168.8h.01M72.0 166.5h.01M207.2 196.4h.01M120.1 73.9h.01M96.1 206.6h.01M75.7 166.6h.01M49.2 250.0h.01M86.5 169.7h.01M130.6 353.8h.01M144.4 45.6h.01M113.8 181.4h.01M121.4 325.5h.01M92.5 103.9h.01M133.4 66.1h.01M143.3 60.3h.01M177.5 396.9h.01M94.9 98.9h.01M75.3 343.8h.01M78.0 407.5h.01M138.2 327.2h.01M135.4 87.5h.01M118.0 351.9h.01M67.8 150.5h.01M60.9 181.1h.01M165.2 272.3h.01M87.5 249.7h.01M44.3 202.8h.01M54.9 195.8h.01M106.1 275.0h.01M91.1 108.2h.01M191.2 424.9h.01M113.6 274.0h.01M233.2 408.4h.01M85.8 409.8h.01M102.3 122.0h.01M77.2 236.3h.01M139.7 51.2h.01M80.4 265.7h.01M79.7 284.6h.01M76.4 244.4h.01M113.7 335.2h.01M89.0 275.5h.01M95.1 198.6h.01M140.1 362.5h.01M137.4 310.0h.01M141.5 318.5h.01M65.0 393.0h.01M89.7 167.8h.01M59.7 392.7h.01M81.5 168.9h.01M103.1 126.5h.01M77.2 130.2h.01M124.3 170.0h.01M113.9 339.4h.01M66.5 260.7h.01M223.4 182.1h.01M297.3 392.4h.01M156.6 229.2h.01M118.3 65.7h.01M147.4 200.9h.01M145.9 50.0h.01M83.9 101.7h.01M175.9 307.2h.01M120.0 113.5h.01M49.4 245.6h.01M132.2 275.4h.01M99.1 299.0h.01M137.1 359.0h.01M54.7 242.3h.01M96.5 239.9h.01M93.7 154.3h.01M84.1 261.7h.01M99.6 196.1h.01M112.7 309.6h.01M283.7 403.1h.01M160.6 209.4h.01M159.9 40.1h.01M167.4 412.2h.01M58.6 255.4h.01M85.4 278.1h.01M161.5 368.1h.01M165.0 421.0h.01M150.2 259.7h.01M114.9 163.3h.01M113.3 305.6h.01M183.2 323.5h.01M159.6 215.9h.01M155.5 258.4h.01M113.9 81.2h.01M160.7 224.9h.01M223.5 314.0h.01M73.3 264.1h.01M153.4 267.9h.01M151.3 411.0h.01M70.6 198.2h.01M150.5 264.9h.01M109.1 329.1h.01M159.4 264.2h.01M69.7 272.0h.01M124.2 101.3h.01M125.9 277.8h.01M157.2 235.4h.01M98.5 292.4h.01M301.9 205.3h.01M232.0 399.8h.01M90.6 97.6h.01M49.5 169.1h.01M275.7 405.5h.01M96.0 81.7h.01M61.7 195.0h.01M77.0 217.8h.01M98.2 123.6h.01M77.1 158.6h.01M115.1 102.7h.01M128.6 79.3h.01M122.4 275.3h.01M150.9 363.6h.01M117.6 315.6h.01M90.7 121.8h.01M109.2 76.6h.01M82.3 236.2h.01M156.0 365.2h.01M133.6 52.1h.01M160.3 255.8h.01M126.8 260.1h.01M152.7 237.8h.01M107.6 194.3h.01M76.4 248.8h.01M139.6 197.2h.01M60.2 388.8h.01M145.8 316.8h.01M153.4 250.4h.01M217.5 204.6h.01M60.1 190.7h.01M178.2 275.9h.01M109.1 344.9h.01M118.3 166.3h.01M124.2 333.8h.01M121.2 338.1h.01M132.5 298.7h.01M53.7 177.5h.01M125.4 362.9h.01M104.3 218.9h.01M118.0 319.5h.01M96.1 186.9h.01M120.0 346.5h.01M70.1 213.0h.01M133.7 256.7h.01M80.8 174.1h.01M63.5 224.8h.01M103.8 113.2h.01M150.8 216.7h.01M74.8 272.9h.01M242.1 218.1h.01M86.5 195.7h.01M218.6 416.5h.01M116.1 330.4h.01M150.9 177.5h.01M157.5 250.8h.01M118.2 342.2h.01M130.2 259.2h.01M87.5 234.0h.01M70.8 162.5h.01M104.7 100.1h.01M66.7 181.7h.01M109.8 277.8h.01M47.9 210.7h.01M297.2 206.5h.01M115.3 347.8h.01M192.9 275.4h.01M196.0 214.0h.01M92.0 162.6h.01M206.5 201.1h.01M100.5 178.1h.01M233.0 404.5h.01M98.0 216.1h.01M241.3 360.8h.01M90.9 134.2h.01M120.3 291.6h.01M116.1 70.6h.01M102.6 161.1h.01M108.0 111.4h.01M162.7 333.1h.01M74.7 259.9h.01M65.9 360.4h.01M101.5 184.4h.01M189.8 208.3h.01M98.0 262.1h.01M81.5 156.8h.01M74.5 213.6h.01M65.9 214.3h.01M109.7 321.5h.01M104.0 317.3h.01M118.5 84.9h.01M99.7 85.2h.01M87.2 239.4h.01M102.5 109.1h.01M136.8 285.6h.01M56.0 191.7h.01M83.1 137.9h.01M75.9 226.0h.01M56.4 264.8h.01M107.6 411.8h.01M112.5 405.3h.01M113.3 343.8h.01M113.6 319.6h.01M130.1 290.9h.01M72.1 178.5h.01M76.8 208.8h.01M209.1 235.8h.01M165.0 207.9h.01M141.3 313.8h.01M253.4 377.4h.01M52.7 261.1h.01M129.4 343.6h.01M82.8 186.1h.01M86.4 187.1h.01M110.2 117.6h.01M162.8 325.7h.01M124.5 163.7h.01M90.2 188.5h.01M90.1 150.4h.01M68.3 285.4h.01M132.5 348.4h.01M219.6 182.1h.01M128.5 88.4h.01M130.8 278.7h.01M94.4 183.5h.01M58.7 218.2h.01M140.3 416.0h.01M165.1 199.0h.01M71.1 217.5h.01M119.3 79.5h.01M124.4 347.5h.01M62.2 254.6h.01M124.4 76.9h.01M46.5 239.3h.01M118.0 142.6h.01M234.1 385.8h.01M83.5 165.0h.01M91.3 145.5h.01M132.9 170.0h.01M117.8 270.1h.01M113.1 269.5h.01M59.4 198.4h.01M106.7 188.6h.01M107.6 183.7h.01M161.8 412.6h.01M68.1 256.3h.01M142.5 93.8h.01M91.8 171.9h.01M88.8 335.3h.01M158.9 303.6h.01M46.5 235.6h.01M149.7 228.8h.01M112.1 66.2h.01M80.4 253.9h.01M110.6 84.7h.01M160.5 272.0h.01M67.6 395.2h.01M155.1 218.3h.01M52.7 386.3h.01M129.2 336.2h.01M109.3 178.6h.01M152.3 201.0h.01M93.8 211.1h.01M67.7 163.9h.01M44.9 197.5h.01M100.7 134.9h.01M88.6 204.2h.01M55.8 181.0h.01M79.4 196.4h.01M128.2 349.8h.01M132.6 271.3h.01M79.5 192.8h.01M153.5 213.4h.01M143.9 189.8h.01M118.3 97.4h.01M153.1 246.1h.01M119.8 357.5h.01M130.3 56.8h.01M103.5 194.4h.01M160.4 362.8h.01M153.5 226.3h.01M182.0 310.8h.01M122.3 285.1h.01M244.3 378.9h.01M53.5 245.6h.01M54.8 383.3h.01M61.8 215.2h.01M92.3 236.6h.01M77.9 177.5h.01M101.2 205.2h.01M98.9 112.5h.01M165.8 370.6h.01M95.3 194.4h.01M97.4 306.6h.01M161.0 239.4h.01M63.8 191.2h.01M191.2 280.1h.01M113.0 97.8h.01M159.2 373.1h.01M132.8 282.2h.01M121.4 309.6h.01M67.2 227.0h.01M244.7 384.0h.01M241.8 365.9h.01M77.5 263.1h.01M108.9 200.6h.01M87.4 181.4h.01M82.6 201.5h.01M138.9 292.1h.01M87.5 229.4h.01M81.0 303.5h.01M183.6 377.8h.01M195.5 393.7h.01M150.4 222.4h.01M97.5 146.0h.01M119.3 333.2h.01M198.1 414.8h.01M173.9 396.8h.01M50.7 255.1h.01M85.7 191.5h.01M78.6 280.3h.01M72.4 307.0h.01M84.0 274.9h.01M200.1 202.7h.01M97.7 181.1h.01M85.4 153.2h.01M53.9 186.8h.01M125.7 58.0h.01M124.2 353.6h.01M94.6 175.7h.01M122.3 87.5h.01M81.5 178.7h.01M109.1 271.5h.01M124.0 294.7h.01M143.3 350.4h.01M68.2 289.3h.01M159.8 321.1h.01M200.9 214.0h.01M107.2 129.0h.01M48.8 231.0h.01M124.0 342.3h.01M55.7 201.7h.01M96.0 115.5h.01M62.5 366.3h.01M212.4 309.8h.01M237.4 187.9h.01M247.4 219.7h.01M107.1 70.2h.01M243.7 397.1h.01M157.7 212.1h.01M126.7 320.0h.01M154.6 264.5h.01M121.2 57.8h.01M146.6 209.8h.01M101.5 273.9h.01M258.3 416.3h.01M310.3 381.2h.01M117.4 282.5h.01M206.8 273.6h.01M116.5 61.6h.01M120.0 102.8h.01M99.5 154.6h.01M128.4 358.2h.01M127.1 139.1h.01M138.7 188.0h.01M156.8 349.9h.01M120.6 206.1h.01M156.3 222.8h.01M163.3 212.1h.01M106.0 422.4h.01M87.5 125.1h.01M164.8 408.8h.01M86.1 106.6h.01M102.2 139.1h.01M114.1 285.9h.01M128.0 167.1h.01M106.0 299.0h.01M112.3 107.2h.01M132.6 61.2h.01M157.3 266.9h.01M191.9 197.6h.01M145.1 228.4h.01M126.8 84.2h.01M128.6 269.4h.01M83.1 182.7h.01M129.1 184.0h.01M52.9 233.6h.01M223.8 416.7h.01M102.5 278.9h.01M140.9 355.9h.01M133.1 340.3h.01M132.5 358.7h.01M75.3 315.1h.01M102.1 283.9h.01M75.5 180.8h.01M112.9 411.3h.01M144.5 198.9h.01M229.0 419.1h.01M51.0 198.4h.01M134.9 325.5h.01M137.0 367.3h.01M195.0 399.2h.01M127.6 273.7h.01M232.6 188.8h.01M158.4 260.8h.01M135.0 57.4h.01M101.4 130.6h.01M76.1 283.7h.01M194.4 405.5h.01M88.1 140.7h.01M128.1 314.9h.01M150.3 210.0h.01M58.0 386.2h.01M78.5 189.3h.01M152.9 183.0h.01M225.8 412.6h.01M85.7 129.1h.01M108.8 89.2h.01M135.0 363.1h.01M65.8 198.7h.01M82.8 198.1h.01M84.5 160.0h.01M86.8 199.8h.01M140.6 238.7h.01M158.4 184.8h.01M163.4 374.3h.01M70.8 400.8h.01M84.1 226.4h.01M139.0 251.9h.01M134.5 295.0h.01M246.8 187.8h.01M95.7 129.7h.01M83.6 143.2h.01M142.4 263.6h.01M71.7 174.5h.01M102.5 295.3h.01M106.1 338.3h.01M138.0 68.6h.01M104.2 269.5h.01M199.0 192.8h.01M44.0 213.0h.01M88.3 280.0h.01M167.9 376.6h.01M90.3 184.2h.01M170.9 311.5h.01M102.6 215.0h.01M97.7 271.4h.01M83.1 194.5h.01M109.3 317.2h.01M98.4 312.0h.01M237.7 183.1h.01M217.6 360.8h.01M80.6 241.0h.01M118.0 323.2h.01M148.6 58.4h.01M146.3 354.9h.01M102.1 322.1h.01M140.8 243.6h.01M96.6 170.1h.01M241.0 183.0h.01M112.2 415.8h.01M92.5 179.5h.01M82.3 189.8h.01M104.1 166.1h.01M164.8 293.0h.01M94.2 295.6h.01M72.3 268.8h.01M45.1 231.9h.01M117.8 108.2h.01M71.9 205.8h.01M162.3 234.7h.01M61.7 184.2h.01M171.1 273.7h.01M129.9 74.3h.01M149.0 268.1h.01M116.0 326.8h.01M139.2 56.3h.01M89.7 271.5h.01M68.5 177.0h.01M131.0 206.7h.01M76.6 253.6h.01M134.9 290.1h.01M117.4 265.3h.01M275.3 410.1h.01M94.5 265.0h.01M291.3 395.4h.01M69.8 202.5h.01M91.7 307.9h.01M117.4 307.5h.01M120.3 136.3h.01M142.9 233.6h.01M229.6 192.6h.01M102.5 259.1h.01M98.2 127.2h.01M87.8 209.2h.01M188.7 202.1h.01M146.3 336.0h.01M150.5 358.8h.01M94.5 93.6h.01M64.6 171.0h.01M126.9 285.7h.01M85.1 244.5h.01M137.1 338.1h.01M97.5 251.5h.01M45.4 190.5h.01M58.9 251.7h.01M264.5 416.3h.01M89.8 292.0h.01M125.6 264.6h.01M123.3 261.7h.01M71.6 193.7h.01M76.8 141.4h.01M106.6 80.9h.01M69.3 166.9h.01M131.0 323.3h.01M70.4 260.1h.01M146.0 328.4h.01M94.0 269.9h.01M130.0 363.0h.01M113.3 112.1h.01M230.4 338.0h.01M93.3 87.3h.01M101.0 315.0h.01M253.6 382.9h.01M280.5 399.6h.01M267.1 411.3h.01M152.8 232.9h.01M71.3 189.4h.01M104.6 180.8h.01M86.9 111.5h.01M141.3 340.1h.01M112.9 324.8h.01M95.6 108.5h.01M97.1 137.4h.01M160.0 419.8h.01M69.6 252.1h.01M69.5 237.0h.01M133.7 92.0h.01M92.3 242.2h.01M164.7 203.4h.01M45.0 226.3h.01M115.5 76.3h.01M119.2 182.2h.01M130.4 319.7h.01M129.3 68.7h.01M67.4 194.1h.01M79.3 163.0h.01M188.6 378.9h.01M108.1 93.6h.01M55.2 257.9h.01M100.8 79.1h.01M72.6 233.7h.01M160.6 220.1h.01M109.7 340.3h.01M53.4 249.6h.01M68.2 231.6h.01M74.1 239.7h.01M97.3 276.2h.01M108.0 417.7h.01M78.8 221.7h.01M110.8 294.4h.01M106.6 281.1h.01M111.8 72.5h.01M102.2 420.3h.01M141.4 345.2h.01M134.6 419.6h.01M100.1 117.8h.01M110.7 217.9h.01M126.7 281.7h.01M124.3 91.4h.01M133.3 267.5h.01M92.3 118.0h.01M112.2 331.2h.01M80.4 205.5h.01M72.3 170.5h.01M64.3 186.3h.01M149.6 301.9h.01M81.4 217.9h.01M90.6 267.2h.01M90.6 200.8h.01M158.2 246.2h.01M55.3 170.1h.01M166.9 403.0h.01M110.5 408.3h.01M71.8 182.8h.01M71.7 227.5h.01M262.6 412.8h.01M156.3 241.7h.01M137.9 247.5h.01M68.5 242.6h.01M100.1 100.7h.01M279.9 229.2h.01M243.4 374.2h.01M69.2 281.1h.01M104.9 342.2h.01M150.3 45.0h.01M271.5 408.1h.01M92.1 112.8h.01M230.8 183.9h.01M157.5 270.4h.01M124.9 290.3h.01M97.0 245.4h.01M44.8 177.1h.01M156.6 325.7h.01M48.8 201.7h.01M99.3 106.1h.01M135.3 354.4h.01M80.6 260.1h.01M84.7 205.2h.01M70.7 303.0h.01M229.1 285.8h.01M78.5 213.1h.01M120.8 69.4h.01M73.7 149.3h.01M50.2 236.2h.01M245.9 392.8h.01M136.3 315.0h.01M72.0 243.5h.01M58.8 187.5h.01M79.6 228.1h.01M44.2 218.7h.01M79.2 181.9h.01M158.6 189.8h.01M44.0 208.0h.01M231.5 395.1h.01M106.2 203.9h.01M85.1 177.7h.01M68.6 172.2h.01M46.6 243.5h.01M71.7 158.4h.01M96.2 338.3h.01M179.9 375.1h.01M76.7 268.4h.01M295.7 388.6h.01M120.5 329.2h.01M89.1 175.7h.01M134.8 72.7h.01M159.9 293.2h.01M53.4 238.7h.01M118.5 287.4h.01M80.3 151.3h.01M269.4 414.8h.01M63.5 258.1h.01M151.9 329.0h.01M147.3 368.1h.01M123.1 317.4h.01M145.6 239.6h.01M91.3 207.3h.01M96.2 150.2h.01M153.2 261.6h.01M227.9 180.6h.01M93.0 416.4h.01M138.4 298.8h.01M97.4 164.2h.01M167.1 193.6h.01"/>
<path stroke="#1a1a1a" stroke-width="2.89" stroke-linecap="round" fill="none" d="M156.5 395.8h.01M138.8 275.1h.01M119.9 174.5h.01M142.0 274.5h.01M59.9 233.6h.01M258.7 411.6h.01M99.1 336.1h.01M276.4 401.4h.01M85.9 290.0h.01M161.3 205.5h.01M111.3 349.4h.01M148.9 371.4h.01M107.4 400.9h.01M128.1 176.8h.01M267.5 407.4h.01M110.8 299.0h.01M210.7 212.0h.01M231.4 415.5h.01M140.3 284.5h.01M100.5 168.7h.01M207.2 311.1h.01M145.8 304.9h.01M65.5 264.8h.01M74.1 279.9h.01M103.7 399.2h.01M137.8 184.0h.01M124.0 205.2h.01M95.6 320.1h.01M56.4 379.6h.01M106.8 173.3h.01M111.0 359.2h.01M82.5 286.7h.01M249.6 360.1h.01M282.5 393.6h.01M211.9 193.1h.01M84.5 283.1h.01M164.7 416.3h.01M104.4 403.9h.01M117.9 171.6h.01M80.0 400.6h.01M160.8 201.4h.01M62.8 383.6h.01M106.6 347.6h.01M115.8 365.4h.01M202.1 197.2h.01M209.4 206.6h.01M142.2 278.1h.01M84.1 299.8h.01M111.3 353.8h.01M73.6 294.8h.01M271.5 403.5h.01M152.4 256.2h.01M99.8 324.8h.01M107.4 290.6h.01M61.9 263.4h.01M95.9 316.3h.01M84.2 295.2h.01M141.3 371.1h.01M58.0 212.0h.01M57.6 246.0h.01M147.9 287.6h.01M149.8 283.8h.01M97.0 323.1h.01M114.3 167.1h.01M299.7 199.9h.01M223.5 187.0h.01M252.8 373.5h.01M126.7 206.8h.01M132.3 316.8h.01M57.7 249.0h.01M64.8 268.4h.01M254.3 409.9h.01M133.3 409.8h.01M154.4 392.2h.01M149.9 205.4h.01M89.6 407.8h.01M154.1 208.8h.01M144.3 368.9h.01M143.2 184.7h.01M104.0 170.4h.01M187.8 406.4h.01M217.2 277.3h.01M208.3 367.2h.01M133.1 260.7h.01M147.5 252.2h.01M66.1 174.1h.01M155.0 307.2h.01M169.0 277.7h.01M137.5 371.5h.01M156.2 380.5h.01M99.5 416.2h.01M141.6 409.2h.01M128.9 331.2h.01M141.1 303.2h.01M76.1 302.9h.01M90.9 287.6h.01M115.2 278.7h.01M62.5 250.1h.01M121.4 368.9h.01M145.0 275.5h.01M129.6 371.1h.01M194.3 412.0h.01M114.5 297.4h.01M77.8 257.6h.01M157.0 393.0h.01M241.9 370.7h.01M142.4 325.3h.01M129.8 326.9h.01M80.3 312.2h.01M125.7 310.3h.01M145.6 406.9h.01M142.5 281.3h.01M181.2 395.3h.01M94.2 325.3h.01M142.6 209.3h.01M213.6 205.8h.01M128.8 301.6h.01M65.1 234.9h.01M61.3 246.5h.01M124.9 299.8h.01M142.8 288.6h.01M139.0 270.6h.01M161.3 197.3h.01M73.4 287.5h.01M206.1 214.3h.01M146.5 279.6h.01M276.5 398.0h.01M96.5 343.0h.01M138.7 263.5h.01M135.7 204.6h.01M93.9 378.8h.01M77.8 288.3h.01M142.9 321.7h.01M88.8 360.1h.01M101.4 391.0h.01M258.6 407.4h.01M163.0 288.8h.01M131.4 194.1h.01M74.2 395.0h.01M202.2 310.8h.01M66.4 248.2h.01M62.0 208.9h.01M295.2 384.5h.01M135.6 273.1h.01M283.3 397.3h.01M214.4 188.1h.01M96.7 412.5h.01M91.9 373.9h.01M254.1 415.2h.01M63.4 386.8h.01M58.4 206.4h.01M107.0 397.7h.01M90.5 283.2h.01M185.6 401.7h.01M224.6 289.3h.01M153.4 270.7h.01M135.1 179.7h.01M122.2 409.6h.01M53.5 376.7h.01M65.7 252.8h.01M109.1 284.1h.01M163.3 404.5h.01M241.6 392.8h.01M154.1 204.3h.01M112.1 281.7h.01M101.5 328.1h.01M94.1 311.8h.01M90.9 316.0h.01M157.5 203.5h.01M305.9 378.1h.01M291.8 391.5h.01M213.2 364.9h.01M56.6 230.9h.01M177.6 380.2h.01M148.3 332.0h.01M127.4 367.2h.01M97.2 350.4h.01M197.0 197.7h.01M54.1 218.8h.01M65.7 239.9h.01M115.0 174.2h.01M52.1 229.7h.01M161.0 407.1h.01M103.8 414.8h.01M124.8 329.2h.01M56.1 235.4h.01M87.0 286.0h.01M243.6 185.4h.01M80.2 271.2h.01M120.7 163.5h.01M151.3 196.9h.01M62.4 242.8h.01M92.4 365.9h.01M152.6 369.8h.01M160.1 308.4h.01M237.0 211.3h.01M49.5 218.8h.01M90.5 326.0h.01M89.2 348.7h.01M72.8 256.3h.01M218.4 217.0h.01M149.2 247.9h.01M98.6 286.7h.01M145.4 205.2h.01M97.1 379.2h.01M51.2 191.6h.01M189.3 384.1h.01M221.8 191.0h.01M71.8 276.5h.01M98.9 386.8h.01M137.5 256.9h.01M155.0 285.6h.01M137.1 406.8h.01M142.9 247.2h.01M138.1 280.2h.01M102.3 395.3h.01M151.6 376.5h.01M125.7 371.3h.01M150.2 279.6h.01M151.4 187.2h.01M139.1 332.1h.01M123.9 306.3h.01M154.6 272.9h.01M116.3 169.3h.01M157.2 274.0h.01M263.0 408.5h.01M157.5 194.3h.01M81.9 403.9h.01M84.6 308.2h.01M86.2 405.3h.01M158.9 409.8h.01M157.5 207.3h.01M121.1 169.5h.01M54.2 214.4h.01M158.5 404.6h.01M221.1 213.6h.01M142.3 175.1h.01M75.4 291.5h.01M237.7 215.6h.01M51.3 211.5h.01M132.8 302.9h.01M173.5 377.1h.01M115.3 356.4h.01M159.1 416.3h.01M157.5 282.1h.01M286.7 395.4h.01M156.0 376.8h.01M93.0 369.3h.01M175.8 282.7h.01M155.1 411.2h.01M262.8 404.8h.01M78.2 398.7h.01M88.6 296.0h.01M168.7 290.8h.01M143.9 271.0h.01M133.5 183.4h.01M302.2 381.4h.01M219.3 291.3h.01M70.9 396.6h.01M132.9 334.6h.01M170.8 396.4h.01M228.3 188.5h.01M126.0 324.8h.01M107.3 407.3h.01M242.9 387.9h.01M145.2 284.2h.01M89.0 319.5h.01M201.8 210.1h.01M110.9 166.1h.01M140.1 306.8h.01M88.5 342.4h.01M76.0 310.1h.01M145.5 267.2h.01M154.2 373.6h.01M110.5 174.4h.01M97.2 388.1h.01M240.3 376.1h.01M151.1 252.7h.01M107.4 168.9h.01M89.5 300.0h.01M116.2 361.1h.01M99.2 332.2h.01M90.0 369.2h.01M121.6 298.3h.01M146.5 324.5h.01M137.3 267.0h.01M226.7 185.1h.01M59.9 268.2h.01M59.1 227.8h.01M220.7 286.6h.01M160.5 378.2h.01M138.4 322.5h.01M162.1 396.6h.01M111.4 401.3h.01M80.4 275.9h.01M60.4 178.1h.01M236.4 377.1h.01M65.4 389.8h.01M141.4 329.0h.01M252.4 368.9h.01M241.3 380.9h.01M208.8 270.3h.01M94.8 376.0h.01M65.0 244.8h.01M124.0 175.5h.01M122.0 271.4h.01M92.2 321.2h.01M62.0 237.2h.01M167.8 285.9h.01M136.0 332.5h.01M88.9 352.4h.01M151.2 373.2h.01M114.7 177.4h.01M49.5 226.1h.01M87.2 346.3h.01M108.5 403.8h.01M140.9 335.5h.01M78.7 307.2h.01M130.2 263.2h.01M67.4 189.5h.01M78.9 298.1h.01M82.1 290.9h.01M56.8 375.7h.01M146.8 377.3h.01M90.0 338.7h.01M160.2 401.4h.01M60.7 240.3h.01M61.1 174.6h.01M135.4 277.8h.01M150.5 324.7h.01M78.3 316.8h.01M219.0 186.9h.01M132.9 307.3h.01M93.0 340.8h.01M137.5 172.8h.01M238.7 371.3h.01M152.7 394.3h.01M90.3 355.4h.01M45.1 184.5h.01M141.1 255.0h.01M81.8 317.9h.01M63.7 175.2h.01M87.6 323.0h.01M152.2 288.9h.01M279.9 395.6h.01M99.3 319.3h.01M282.5 371.9h.01M149.4 406.3h.01M136.3 260.6h.01M268.5 403.8h.01M140.5 259.6h.01M54.6 209.2h.01M98.5 173.8h.01M82.3 280.1h.01M191.7 389.4h.01M58.4 382.9h.01M90.9 304.2h.01M100.4 343.4h.01M103.3 335.6h.01M265.6 402.8h.01M58.3 242.8h.01M134.3 415.3h.01M130.2 180.0h.01M218.8 282.1h.01M98.9 392.3h.01M64.6 178.7h.01M88.9 311.5h.01M165.3 276.5h.01M148.2 183.5h.01M155.6 292.4h.01M93.8 329.5h.01M103.3 408.4h.01M137.6 318.4h.01M49.1 187.6h.01M174.1 277.9h.01M152.1 294.0h.01M272.7 401.0h.01M291.6 387.7h.01M102.3 173.4h.01M147.7 291.7h.01M216.2 212.5h.01M102.3 350.9h.01M58.6 172.4h.01M98.6 384.5h.01M90.6 357.8h.01M102.9 346.4h.01M226.0 308.2h.01M48.6 215.3h.01M124.7 180.7h.01M143.5 332.1h.01M93.1 279.1h.01M141.9 200.5h.01M72.4 284.0h.01M128.7 265.9h.01M47.6 222.3h.01M93.3 274.4h.01M74.0 298.7h.01M93.2 410.7h.01M98.2 347.1h.01M194.9 309.7h.01M86.3 304.5h.01M97.4 328.2h.01M90.0 363.2h.01M288.0 391.5h.01M153.4 282.0h.01M66.9 208.9h.01M158.1 288.7h.01M207.4 192.3h.01M150.0 306.8h.01M63.2 230.3h.01M78.9 293.4h.01M157.7 413.2h.01M191.2 395.4h.01M129.7 414.5h.01M141.7 366.1h.01M124.8 268.7h.01M160.0 394.0h.01M123.6 366.9h.01M154.7 189.0h.01M118.2 275.4h.01M74.6 398.8h.01M188.5 310.8h.01M285.0 392.2h.01M262.3 369.9h.01M150.7 379.4h.01M60.1 380.9h.01M159.5 397.7h.01M164.2 378.6h.01M145.5 412.4h.01M70.2 391.8h.01M119.5 178.6h.01M100.8 339.6h.01M133.4 329.2h.01M146.5 244.9h.01M141.6 267.4h.01M113.2 200.0h.01M57.5 238.4h.01M201.1 264.0h.01M167.1 398.4h.01M89.9 331.0h.01"/>
<path stroke="#1a1a1a" stroke-width="3.39" stroke-linecap="round" fill="none" d="M132.4 375.4h.01M150.9 191.6h.01M158.8 278.7h.01M94.8 385.5h.01M146.5 393.1h.01M257.2 397.6h.01M224.9 298.6h.01M234.9 390.9h.01M268.3 397.1h.01M293.5 381.5h.01M188.4 276.2h.01M132.2 397.0h.01M74.0 391.5h.01M240.8 400.4h.01M98.6 399.4h.01M261.5 385.5h.01M137.3 402.5h.01M148.5 389.0h.01M265.0 392.2h.01M66.6 382.4h.01M97.3 361.6h.01M97.3 390.8h.01M84.4 330.5h.01M225.9 207.9h.01M184.6 382.8h.01M77.2 392.9h.01M63.8 364.1h.01M179.4 280.9h.01M133.4 399.9h.01M134.6 378.9h.01M96.7 373.3h.01M129.8 400.2h.01M71.7 387.7h.01M97.0 358.0h.01M47.2 180.2h.01M153.1 382.4h.01M67.9 386.6h.01M125.4 303.2h.01M254.4 405.0h.01M93.4 347.6h.01M297.4 202.4h.01M148.3 374.9h.01M264.5 399.2h.01M295.0 375.3h.01M254.6 394.5h.01M87.8 399.9h.01M287.7 387.5h.01M131.9 379.7h.01M147.3 188.4h.01M92.0 353.7h.01M134.2 387.3h.01M105.5 393.6h.01M300.3 376.5h.01M102.0 386.3h.01M85.0 396.8h.01M154.0 401.0h.01M128.4 374.8h.01M187.8 393.0h.01M124.0 403.0h.01M256.5 375.0h.01M153.1 404.1h.01M119.6 405.7h.01M258.5 403.7h.01M117.1 193.5h.01M116.2 197.9h.01M126.7 202.8h.01M94.4 382.0h.01M152.4 389.7h.01M136.5 398.5h.01M110.4 170.4h.01M285.0 389.0h.01M145.9 402.7h.01M170.0 380.7h.01M159.5 387.8h.01M114.8 302.0h.01M161.7 275.6h.01M276.8 392.3h.01M106.7 352.0h.01M157.4 199.3h.01M135.5 196.7h.01M151.4 386.5h.01M267.7 393.7h.01M182.5 278.3h.01M145.8 372.2h.01M140.5 391.0h.01M162.9 392.6h.01M155.1 197.3h.01M270.0 391.2h.01M134.8 393.2h.01M78.4 396.1h.01M262.4 393.7h.01M99.6 353.5h.01M156.6 399.1h.01M92.1 360.5h.01M157.1 390.1h.01M143.7 398.7h.01M81.8 332.8h.01M100.6 404.7h.01M213.9 281.3h.01M150.4 396.5h.01M106.7 357.0h.01M297.3 380.1h.01M258.4 391.8h.01M148.9 393.7h.01M99.8 358.5h.01M289.6 382.1h.01M173.5 381.2h.01M98.6 382.2h.01M97.8 407.6h.01M186.7 386.8h.01M144.0 250.9h.01M123.3 201.7h.01M124.8 192.7h.01M92.3 403.3h.01M171.9 285.1h.01M138.7 205.5h.01M260.8 380.3h.01M137.4 388.4h.01M191.2 409.3h.01M129.1 395.9h.01M157.4 384.4h.01M225.7 212.8h.01M160.1 285.4h.01M52.6 222.5h.01M138.4 177.1h.01M69.8 355.1h.01M258.8 387.8h.01M140.4 180.8h.01M130.2 393.3h.01M261.0 396.8h.01M284.1 386.0h.01M118.6 402.6h.01M274.0 395.2h.01M93.6 406.5h.01M133.3 404.0h.01M50.2 183.6h.01M290.0 384.8h.01M133.0 394.3h.01M164.4 284.7h.01M94.5 359.9h.01M255.9 384.3h.01M65.1 378.9h.01M164.6 395.4h.01M124.8 399.8h.01M147.2 397.5h.01M204.5 267.5h.01M136.5 391.0h.01M144.1 374.9h.01M153.4 397.6h.01M148.9 271.1h.01M140.4 393.9h.01M54.1 227.4h.01M128.9 403.7h.01M59.5 378.1h.01M99.3 395.6h.01M156.7 402.3h.01M113.5 171.1h.01M114.9 402.8h.01M133.0 383.4h.01M267.1 389.9h.01M95.6 370.8h.01M155.5 388.2h.01M118.2 300.6h.01M261.0 400.7h.01M265.0 384.3h.01M272.3 398.1h.01M94.0 355.3h.01M145.1 179.7h.01M140.1 387.3h.01M279.0 391.4h.01M154.8 278.7h.01M126.1 411.1h.01M133.0 175.5h.01M102.5 356.0h.01M234.0 413.0h.01M80.1 393.9h.01M113.3 195.1h.01M136.6 384.6h.01M130.6 387.5h.01M223.9 294.0h.01M206.9 210.2h.01M103.9 389.4h.01M141.8 404.5h.01M142.1 205.1h.01M84.9 400.8h.01M236.9 373.8h.01M143.6 394.8h.01M61.9 377.3h.01M136.9 394.8h.01M271.1 394.6h.01M141.1 375.6h.01M154.0 193.5h.01M255.6 371.6h.01M239.8 389.8h.01M144.5 390.6h.01M97.5 376.0h.01M185.4 396.8h.01M95.3 352.7h.01M137.6 380.1h.01M82.5 400.4h.01M255.0 380.0h.01M161.4 282.2h.01M150.9 401.0h.01M132.5 390.5h.01M143.2 388.0h.01M130.1 408.4h.01M188.6 399.1h.01M281.7 390.2h.01M259.2 383.4h.01M128.8 305.4h.01M274.8 392.0h.01M120.4 203.0h.01M148.1 400.8h.01M190.1 403.1h.01M126.6 406.8h.01M158.1 276.2h.01M49.0 175.8h.01M151.0 392.0h.01M153.6 407.4h.01M100.9 411.1h.01M119.2 304.3h.01M97.3 355.2h.01M94.0 357.5h.01M92.4 350.9h.01M256.8 377.4h.01M141.0 400.9h.01M268.5 400.0h.01M119.4 200.1h.01M254.9 390.5h.01M129.2 204.4h.01M255.2 386.9h.01M121.9 302.3h.01M59.2 374.9h.01M261.3 390.7h.01M91.7 344.5h.01M156.7 407.3h.01M137.1 375.5h.01M130.1 201.8h.01M263.0 382.5h.01M139.9 397.3h.01M136.3 304.4h.01M257.2 381.8h.01M139.8 383.3h.01M252.2 364.2h.01M86.8 356.5h.01M277.0 395.0h.01M136.3 200.2h.01M240.2 384.8h.01M62.9 380.1h.01M139.3 201.9h.01M82.0 396.8h.01M88.8 403.2h.01M55.4 224.5h.01M100.6 400.8h.01M160.2 391.0h.01M267.0 386.0h.01M255.6 367.0h.01M260.2 376.5h.01M258.5 394.8h.01M133.5 371.6h.01M48.1 194.7h.01M123.4 406.1h.01M168.0 394.9h.01M258.1 379.1h.01M265.1 380.5h.01M255.6 400.5h.01"/>
<path stroke="#1a1a1a" stroke-width="3.91" stroke-linecap="round" fill="none" d="M121.7 198.2h.01M113.2 391.0h.01M273.0 381.7h.01M109.0 377.3h.01M76.9 352.1h.01M282.1 386.4h.01M83.0 369.0h.01M276.4 389.2h.01M71.2 383.9h.01M78.0 344.5h.01M127.7 200.0h.01M128.6 390.5h.01M172.1 387.2h.01M83.6 393.3h.01M87.2 390.9h.01M232.8 212.9h.01M89.0 379.0h.01M119.9 378.4h.01M114.2 368.6h.01M145.8 380.2h.01M80.1 342.6h.01M102.5 372.0h.01M292.0 378.3h.01M235.7 395.6h.01M276.6 379.9h.01M120.4 382.3h.01M263.9 378.2h.01M71.5 378.0h.01M264.0 372.5h.01M104.0 383.5h.01M110.0 384.7h.01M76.0 373.0h.01M118.0 396.4h.01M163.9 382.9h.01M105.1 386.7h.01M116.5 371.9h.01M62.3 371.7h.01M71.9 362.1h.01M145.7 386.1h.01M81.9 362.3h.01M114.1 384.9h.01M75.7 358.7h.01M149.7 382.3h.01M116.4 399.4h.01M109.1 370.2h.01M107.2 390.1h.01M165.8 392.4h.01M119.5 387.1h.01M71.0 381.1h.01M268.4 376.7h.01M80.8 350.3h.01M101.0 374.0h.01M79.6 363.4h.01M73.0 365.0h.01M89.7 392.0h.01M106.3 368.3h.01M81.0 355.3h.01M161.7 386.1h.01M67.9 376.1h.01M82.5 358.0h.01M118.7 196.3h.01M125.0 196.6h.01M91.8 393.2h.01M77.5 390.2h.01M282.5 383.0h.01M266.8 382.2h.01M62.3 375.0h.01M106.0 381.0h.01M81.0 347.5h.01M127.8 194.8h.01M70.0 374.2h.01M103.5 369.6h.01M219.5 210.6h.01M103.0 378.0h.01M85.3 380.8h.01M85.4 339.3h.01M265.7 375.2h.01M122.7 383.6h.01M79.0 339.3h.01M65.6 362.8h.01M176.8 384.5h.01M216.8 208.3h.01M125.1 199.8h.01M239.4 395.2h.01M118.2 376.2h.01M282.9 380.1h.01M264.7 387.1h.01M123.1 372.8h.01M128.0 197.5h.01M64.9 371.9h.01M86.9 363.0h.01M106.8 361.5h.01M70.4 364.2h.01M103.5 365.0h.01M100.2 379.9h.01M274.5 388.5h.01M92.0 388.0h.01M89.8 383.6h.01M117.8 382.4h.01M80.0 369.5h.01M273.0 379.0h.01M272.9 391.1h.01M120.1 371.1h.01M236.8 398.9h.01M68.3 359.4h.01M95.8 396.4h.01M239.5 397.8h.01M81.0 345.3h.01M166.9 381.6h.01M88.0 372.5h.01M285.1 378.7h.01M83.0 353.0h.01M220.7 207.5h.01M279.9 378.1h.01M119.1 393.0h.01M141.4 379.5h.01M106.1 377.6h.01M174.9 387.6h.01M133.2 202.5h.01M70.7 360.0h.01M151.1 276.3h.01M268.3 383.7h.01M114.1 382.1h.01M127.0 397.5h.01M237.9 379.7h.01M82.5 360.5h.01M103.0 380.5h.01M181.3 390.0h.01M83.0 364.5h.01M65.4 376.3h.01M185.9 389.9h.01M277.0 374.8h.01M100.3 367.5h.01M110.4 374.8h.01M110.3 388.7h.01M123.0 377.3h.01M163.6 389.4h.01M77.2 359.8h.01M235.7 401.7h.01M123.0 381.5h.01M239.2 407.7h.01M268.1 379.9h.01M106.9 384.1h.01M100.2 377.1h.01M95.3 401.3h.01M68.3 364.2h.01M95.3 393.6h.01M171.3 393.1h.01M84.1 355.9h.01M99.3 375.0h.01M78.0 349.0h.01M111.8 385.9h.01M223.2 210.0h.01M276.7 377.6h.01M77.0 368.0h.01M85.8 352.5h.01M79.2 353.5h.01M146.7 273.1h.01M110.9 368.2h.01M110.0 197.4h.01M71.7 352.2h.01M78.3 378.5h.01M82.0 335.7h.01M67.9 369.9h.01M237.3 383.2h.01M75.5 383.5h.01M88.0 366.0h.01M92.1 385.1h.01M82.9 343.1h.01M148.1 275.7h.01M277.8 388.0h.01M74.8 379.5h.01M279.9 387.3h.01M236.4 406.8h.01M103.7 375.2h.01M82.4 378.6h.01M51.3 180.0h.01M61.8 368.9h.01M268.7 388.0h.01M84.0 346.0h.01M169.6 387.2h.01M271.2 375.5h.01M86.1 383.7h.01M237.3 387.6h.01M108.4 381.7h.01M237.6 392.5h.01M81.8 386.3h.01M274.2 372.8h.01M148.2 384.5h.01M88.5 388.0h.01M168.1 391.9h.01M102.7 360.5h.01M110.9 382.1h.01M68.0 362.0h.01M72.2 354.4h.01M125.1 375.2h.01M76.1 356.1h.01M83.0 366.5h.01M93.9 363.2h.01M115.3 375.6h.01M237.2 404.1h.01M277.4 384.7h.01M85.4 365.7h.01M170.1 383.9h.01M126.1 377.9h.01M78.0 342.0h.01M124.4 393.8h.01M84.1 349.4h.01M93.6 396.2h.01M116.9 389.7h.01M271.3 383.0h.01M285.6 384.4h.01M129.1 385.2h.01M282.5 376.5h.01M173.4 383.9h.01M122.0 379.5h.01M94.8 389.1h.01M70.8 371.4h.01M118.1 367.9h.01M112.9 374.9h.01M126.1 382.1h.01M177.9 388.6h.01M79.4 383.9h.01M115.7 393.3h.01M83.5 372.0h.01M120.6 399.8h.01M108.8 373.1h.01M99.2 371.1h.01M71.6 367.8h.01M151.3 273.3h.01M113.1 377.9h.01M129.0 378.0h.01M126.0 385.5h.01M72.9 375.9h.01M111.9 363.8h.01M125.1 379.9h.01M274.0 376.0h.01M122.6 385.9h.01M183.0 386.5h.01M88.6 375.9h.01M96.6 365.1h.01M84.4 337.0h.01M86.5 369.2h.01M162.4 279.3h.01M121.5 194.6h.01M168.4 385.8h.01M286.8 375.8h.01M169.0 281.6h.01M154.2 276.0h.01M154.3 385.4h.01M108.0 365.2h.01M165.3 386.9h.01M211.7 276.3h.01M73.7 370.4h.01M75.0 362.0h.01M112.9 394.8h.01M142.5 385.0h.01M67.1 373.1h.01M258.4 369.6h.01M64.4 374.8h.01M133.1 199.1h.01M240.3 404.4h.01M83.6 389.8h.01M268.0 384.7h.01M272.1 388.1h.01M109.6 396.5h.01M262.1 374.7h.01M80.7 375.5h.01M122.4 396.4h.01M106.2 373.0h.01M90.0 395.0h.01M80.0 366.0h.01M213.2 209.3h.01M65.0 369.0h.01M284.7 373.7h.01M73.0 356.5h.01M269.6 382.8h.01M238.8 401.8h.01M130.2 199.1h.01M84.5 375.2h.01M270.3 386.0h.01M110.2 391.4h.01M60.8 372.8h.01M275.3 385.7h.01M122.6 389.4h.01M264.6 396.1h.01M68.2 379.0h.01M180.6 382.6h.01M180.1 386.3h.01M178.3 392.4h.01M112.8 372.0h.01M126.8 393.5h.01M84.5 362.0h.01M129.1 381.5h.01M81.0 338.0h.01M236.4 410.5h.01M88.0 381.7h.01M80.6 358.2h.01M86.0 378.0h.01M74.2 351.2h.01M85.1 387.9h.01M87.0 394.0h.01M82.9 382.6h.01M78.4 387.2h.01M171.2 390.0h.01M119.7 373.8h.01M76.4 365.1h.01M79.3 381.2h.01M101.8 382.8h.01M75.0 387.5h.01M76.4 375.9h.01M85.3 333.7h.01M85.0 342.3h.01M91.5 378.6h.01M97.1 394.4h.01M66.5 366.4h.01M70.0 357.5h.01M166.6 384.7h.01M109.3 393.2h.01M165.7 281.1h.01M80.9 390.6h.01M88.0 397.0h.01M186.1 279.4h.01M69.8 368.8h.01M74.0 368.0h.01M272.9 384.9h.01M112.7 380.2h.01M166.6 389.2h.01M78.7 357.0h.01M85.3 385.6h.01M77.8 362.2h.01M279.1 383.2h.01M280.1 380.9h.01M75.3 349.0h.01M91.0 397.5h.01M74.6 346.6h.01M107.9 386.9h.01M259.6 372.6h.01M288.3 379.2h.01M84.5 359.0h.01M110.1 379.3h.01M172.1 281.6h.01M79.4 372.9h.01M73.1 358.9h.01M113.8 388.0h.01M91.5 390.3h.01M168.4 389.2h.01M113.0 398.3h.01M131.5 196.8h.01M78.0 346.5h.01M91.1 381.9h.01M143.9 382.5h.01M121.8 375.2h.01M96.7 367.9h.01M69.8 366.4h.01M92.5 395.0h.01M270.5 379.5h.01M263.4 389.1h.01M183.7 392.6h.01M82.1 340.1h.01M91.2 400.1h.01M86.5 360.0h.01M97.1 403.6h.01M74.7 354.0h.01M290.5 375.4h.01M88.9 385.3h.01M228.8 211.1h.01M79.7 360.2h.01M93.9 398.9h.01M116.8 385.5h.01M269.2 372.7h.01M286.1 381.8h.01M94.0 391.7h.01M116.3 379.3h.01M174.8 391.9h.01M275.4 382.3h.01M160.6 382.5h.01M73.1 373.1h.01M121.6 392.3h.01M100.2 363.3h.01M126.1 389.3h.01M77.0 370.5h.01M279.9 374.4h.01M97.0 398.0h.01"/>
</svg>