<svg xmlns="http://www.w3.org/2000/svg" viewBox="0 0 360 432" role="img">
<path stroke="#1a1a1a" stroke-width="1.46" stroke-linecap="round" fill="none" d="M167.9 43.9h.01M358.6 288.7h.01M121.5 166.8h.01M226.3 233.0h.01M167.7 108.7h.01M177.4 168.0h.01M188.9 143.3h.01M153.8 253.9h.01M161.5 86.4h.01M203.1 237.4h.01M181.7 124.3h.01M146.5 228.6h.01M224.0 250.5h.01M125.2 97.9h.01M180.7 67.3h.01M181.5 90.0h.01M135.9 105.2h.01M151.9 165.5h.01M182.6 77.2h.01M226.6 242.0h.01M179.2 141.2h.01M150.8 237.5h.01M122.3 243.5h.01M146.9 122.7h.01M119.8 124.8h.01M111.1 179.2h.01M326.8 369.2h.01M137.5 245.4h.01M254.2 427.6h.01M198.0 148.0h.01M162.1 150.1h.01M191.5 126.4h.01M107.0 254.2h.01M217.3 251.2h.01M87.8 253.4h.01M214.6 244.4h.01M108.9 79.9h.01M114.6 247.3h.01M42.6 378.9h.01M86.2 260.4h.01M157.3 261.9h.01M153.2 78.6h.01M141.3 252.7h.01M153.5 68.7h.01M97.1 132.1h.01M140.8 221.5h.01M93.2 160.3h.01M138.6 263.8h.01M118.2 177.6h.01M206.4 105.7h.01M106.0 127.6h.01M97.4 120.7h.01M152.4 49.6h.01M203.8 90.0h.01M232.4 235.2h.01M104.2 153.5h.01M170.7 94.5h.01M142.4 238.2h.01M145.0 62.7h.01M172.0 157.8h.01M156.9 206.6h.01M298.6 400.2h.01M100.7 417.0h.01M93.7 266.0h.01M142.1 168.6h.01M202.0 243.9h.01M122.8 110.8h.01M147.1 218.9h.01M232.3 241.7h.01M155.5 131.4h.01M104.0 100.7h.01M138.8 228.7h.01M102.2 85.7h.01M125.7 85.3h.01M191.2 52.1h.01M122.7 136.8h.01M127.8 62.6h.01M116.7 87.2h.01M58.3 388.8h.01M130.4 145.5h.01M111.7 107.6h.01M177.0 59.0h.01M134.6 174.4h.01M154.2 214.4h.01M161.3 160.3h.01M116.7 75.9h.01M126.4 174.9h.01M0.4 279.1h.01M142.0 147.5h.01M142.4 428.3h.01M141.3 81.5h.01M219.7 236.9h.01M89.9 227.5h.01M151.8 323.4h.01M100.5 110.9h.01M143.9 72.3h.01M189.5 160.7h.01M134.2 133.1h.01M58.2 395.7h.01M134.5 234.3h.01M191.0 152.4h.01M102.4 173.9h.01M123.3 253.6h.01M197.3 233.1h.01M190.6 108.8h.01M144.6 137.3h.01M84.5 134.0h.01M334.6 355.7h.01M83.6 163.9h.01M142.3 421.0h.01M96.1 256.3h.01M101.1 426.0h.01M181.7 51.5h.01M103.4 143.3h.01M154.8 222.8h.01M100.2 247.5h.01M142.0 158.6h.01M159.9 119.4h.01M144.0 267.8h.01M200.5 112.1h.01M104.5 182.5h.01M298.4 391.6h.01M220.7 244.5h.01M153.6 110.1h.01M358.6 110.4h.01M72.3 406.4h.01M128.9 247.1h.01M205.1 97.6h.01M130.6 265.4h.01M165.6 128.4h.01M172.7 84.0h.01M293.8 388.4h.01M94.0 103.5h.01M161.7 53.1h.01M89.6 114.1h.01M159.4 44.5h.01M198.5 138.9h.01M0.4 114.3h.01M208.3 243.7h.01M125.8 154.6h.01M190.1 117.7h.01M63.2 384.1h.01M156.5 244.3h.01M193.9 92.1h.01M261.0 424.8h.01M87.1 124.2h.01M171.4 146.5h.01M83.8 177.5h.01M151.6 268.0h.01M204.9 249.2h.01M107.7 91.3h.01M114.2 158.4h.01M147.0 100.0h.01M82.9 155.5h.01M194.7 74.5h.01M151.9 154.7h.01M169.2 168.1h.01M116.3 146.8h.01M111.1 136.9h.01M122.6 70.0h.01M93.4 170.4h.01M160.6 99.0h.01M122.3 421.0h.01M93.0 150.5h.01M190.0 67.9h.01M164.8 139.1h.01M144.3 52.8h.01M153.9 142.5h.01M90.8 420.3h.01M114.5 98.0h.01M173.6 74.8h.01M93.4 180.4h.01M237.2 230.5h.01M147.2 246.5h.01M150.0 361.8h.01M141.7 177.8h.01M290.8 401.5h.01M197.9 83.1h.01M172.4 119.9h.01M196.4 59.1h.01M109.8 117.4h.01M83.4 171.1h.01M136.0 257.9h.01M147.8 211.1h.01M92.4 140.7h.01M197.2 101.8h.01M177.6 102.1h.01M134.6 68.5h.01M130.8 77.4h.01M211.9 238.1h.01M161.6 64.4h.01M130.0 273.1h.01M83.2 184.1h.01M174.2 132.9h.01M170.7 66.4h.01M115.6 253.9h.01M187.1 44.5h.01M132.6 163.7h.01M288.6 408.2h.01M136.9 270.1h.01M187.0 99.6h.01M85.4 105.8h.01M91.8 244.9h.01M120.4 428.8h.01M130.0 239.3h.01M111.7 169.3h.01M97.3 94.0h.01M171.7 50.9h.01M168.0 58.5h.01M180.2 112.4h.01M288.9 383.9h.01M153.9 58.6h.01M181.7 152.2h.01M150.0 89.0h.01M146.1 260.0h.01M102.7 261.8h.01M148.5 428.3h.01M291.9 394.9h.01M163.6 75.3h.01M82.9 145.0h.01M162.5 172.8h.01M50.0 387.5h.01M182.2 162.6h.01M103.2 163.7h.01M55.0 380.9h.01M136.9 91.6h.01M136.1 58.2h.01M86.1 268.2h.01M186.4 59.6h.01M161.7 320.6h.01M81.6 413.5h.01M308.8 391.3h.01M189.1 83.0h.01M177.6 43.6h.01"/>
<path stroke="#1a1a1a" stroke-width="1.95" stroke-linecap="round" fill="none" d="M126.1 393.3h.01M130.6 428.9h.01M263.8 90.8h.01M77.1 398.1h.01M209.2 51.9h.01M85.3 288.5h.01M251.5 240.1h.01M131.4 414.3h.01M201.1 252.2h.01M134.2 326.3h.01M221.5 159.9h.01M189.3 168.1h.01M216.8 72.2h.01M225.4 73.0h.01M77.8 236.2h.01M210.3 172.2h.01M221.5 56.1h.01M358.6 182.5h.01M0.4 234.7h.01M80.2 404.8h.01M266.4 419.9h.01M303.6 388.3h.01M317.1 379.7h.01M221.1 257.3h.01M144.9 204.1h.01M176.1 360.9h.01M163.6 370.8h.01M91.9 282.0h.01M138.6 362.9h.01M212.8 77.8h.01M200.0 66.4h.01M108.6 362.8h.01M83.9 231.9h.01M72.7 376.8h.01M154.0 354.6h.01M128.2 383.1h.01M210.9 128.8h.01M140.8 351.8h.01M0.4 194.6h.01M107.3 241.3h.01M211.5 141.5h.01M139.5 345.3h.01M314.2 385.1h.01M153.6 424.5h.01M134.7 351.4h.01M223.4 168.7h.01M215.6 159.4h.01M247.2 428.0h.01M202.5 154.6h.01M229.2 78.5h.01M123.4 183.4h.01M199.9 207.3h.01M358.6 148.4h.01M230.2 167.4h.01M102.6 401.6h.01M112.6 187.4h.01M269.3 115.7h.01M297.5 368.6h.01M262.6 117.7h.01M206.5 59.8h.01M105.0 379.4h.01M132.1 293.0h.01M83.0 309.0h.01M196.9 248.0h.01M115.4 259.7h.01M129.4 182.9h.01M154.8 429.2h.01M83.1 297.9h.01M95.6 370.4h.01M84.4 247.4h.01M224.2 107.9h.01M149.1 329.7h.01M92.6 411.9h.01M160.3 181.7h.01M95.4 392.4h.01M113.6 384.0h.01M130.3 401.6h.01M138.3 331.8h.01M277.2 206.0h.01M293.4 372.6h.01M291.7 378.0h.01M160.4 250.0h.01M141.8 209.3h.01M203.7 210.7h.01M196.6 158.6h.01M100.0 381.8h.01M358.6 216.9h.01M228.3 125.2h.01M303.5 395.1h.01M107.8 268.0h.01M252.6 420.9h.01M84.0 218.6h.01M270.3 102.1h.01M213.8 232.0h.01M232.0 84.3h.01M300.6 356.4h.01M161.3 267.3h.01M186.8 359.3h.01M157.3 316.6h.01M249.1 80.5h.01M239.7 428.0h.01M184.9 266.5h.01M241.7 77.5h.01M95.9 229.5h.01M116.0 406.4h.01M159.9 363.9h.01M210.0 112.4h.01M300.7 362.8h.01M116.6 372.2h.01M210.8 250.2h.01M86.7 97.2h.01M135.7 422.1h.01M209.3 157.9h.01M95.2 309.5h.01M168.7 237.1h.01M148.4 421.5h.01M294.9 382.3h.01M196.3 166.3h.01M243.7 250.9h.01M210.6 164.3h.01M185.9 261.9h.01M225.9 256.7h.01M160.0 429.0h.01M260.0 96.6h.01M196.0 45.7h.01M190.6 236.5h.01M191.8 134.8h.01M218.9 173.4h.01M326.7 356.6h.01M265.1 109.1h.01M86.0 275.1h.01M216.0 117.1h.01M309.7 380.0h.01M221.7 132.0h.01M132.5 395.1h.01M66.1 390.8h.01M123.6 387.8h.01M138.5 0.4h.01M196.2 354.6h.01M94.3 380.9h.01M203.5 162.0h.01M201.7 51.5h.01M86.0 304.1h.01M212.8 93.6h.01M219.6 96.6h.01M204.1 126.0h.01M79.0 271.4h.01M283.6 167.2h.01M277.0 196.6h.01M224.1 61.5h.01M104.8 221.9h.01M139.2 338.7h.01M99.9 274.7h.01M123.0 371.8h.01M214.6 136.6h.01M278.1 167.2h.01M234.8 258.3h.01M126.1 291.6h.01M171.0 325.3h.01M149.5 318.9h.01M165.1 428.8h.01M79.9 369.8h.01M233.6 73.9h.01M312.6 375.6h.01M83.1 224.9h.01M175.8 175.7h.01M141.9 273.7h.01M194.8 207.5h.01M277.6 235.0h.01M272.1 196.4h.01M66.8 373.5h.01M162.4 256.7h.01M196.6 240.3h.01M116.6 222.0h.01M144.3 334.7h.01M148.2 353.2h.01M164.5 327.2h.01M133.3 340.1h.01M192.8 174.4h.01M255.4 82.4h.01M79.1 285.9h.01M139.8 205.4h.01M244.7 233.4h.01M171.0 358.9h.01M110.1 262.2h.01M169.1 176.2h.01M215.2 63.1h.01M209.4 68.5h.01M226.9 427.7h.01M215.5 256.6h.01M105.1 373.7h.01M85.0 239.9h.01M131.8 253.1h.01M80.1 302.5h.01M205.3 144.1h.01M237.1 251.3h.01M299.4 383.9h.01M114.2 398.2h.01M230.2 110.0h.01M182.4 232.7h.01M85.2 374.4h.01M243.5 227.9h.01M157.0 230.6h.01M269.8 130.0h.01M155.6 368.0h.01M97.3 364.7h.01M308.8 385.5h.01M233.3 428.7h.01M95.4 404.0h.01M115.5 366.3h.01M131.3 333.3h.01M155.3 333.8h.01M240.6 223.1h.01M140.9 408.1h.01M90.8 397.5h.01M135.2 276.0h.01M86.3 282.1h.01M231.3 173.3h.01M135.7 182.2h.01M160.2 237.6h.01M142.5 358.3h.01M221.3 113.3h.01M96.4 333.7h.01M188.4 224.4h.01M227.2 96.2h.01M207.1 233.7h.01M224.3 164.0h.01M230.3 61.5h.01M105.5 355.2h.01M166.8 363.9h.01M204.0 74.1h.01M101.4 225.6h.01M227.9 115.0h.01M320.8 374.8h.01M131.6 299.5h.01M100.6 268.3h.01M214.0 147.2h.01M89.2 378.7h.01M239.5 237.7h.01M164.5 243.6h.01M174.7 320.7h.01M225.6 173.1h.01M329.6 350.9h.01M202.8 229.7h.01M199.0 173.5h.01M166.4 182.0h.01M180.3 356.7h.01M113.9 391.3h.01M91.9 0.4h.01M209.2 255.2h.01M270.6 413.8h.01M298.2 377.5h.01M236.7 244.2h.01M219.1 142.6h.01M194.2 226.3h.01M121.6 376.6h.01M173.4 315.5h.01M148.8 174.4h.01M220.9 67.6h.01M131.0 319.8h.01M215.0 55.9h.01M177.2 228.0h.01M320.4 368.0h.01M126.7 324.7h.01M87.5 385.4h.01M204.3 168.9h.01M215.9 123.7h.01M250.8 234.5h.01M228.1 67.9h.01M159.4 216.5h.01M241.1 245.2h.01M235.0 68.3h.01M61.2 377.1h.01M67.5 379.5h.01M221.3 90.3h.01M79.3 279.0h.01M100.1 187.2h.01M358.6 251.6h.01M221.6 78.0h.01M79.0 263.6h.01M244.5 423.0h.01M241.2 65.9h.01M96.7 314.3h.01M88.7 294.0h.01M270.3 0.4h.01M222.2 126.1h.01M129.6 287.0h.01M136.8 300.4h.01M49.2 375.9h.01M146.0 416.1h.01M120.7 367.5h.01M146.9 182.5h.01M147.2 273.6h.01M182.3 362.7h.01M164.7 356.1h.01M183.9 238.6h.01M213.7 101.5h.01M208.0 119.8h.01M101.6 409.3h.01M93.0 386.7h.01M267.2 96.3h.01M184.2 172.9h.01M137.7 320.1h.01M150.2 202.9h.01M136.3 428.7h.01M96.3 285.1h.01M145.0 195.0h.01M206.1 81.7h.01M142.6 412.4h.01M212.1 86.7h.01M217.1 166.0h.01M65.1 401.0h.01M267.8 122.4h.01M206.2 135.2h.01M324.3 362.9h.01M136.4 401.0h.01M79.1 254.9h.01M156.2 175.3h.01M87.6 369.7h.01M230.1 104.3h.01M93.1 330.3h.01M150.4 187.1h.01M70.7 395.9h.01M153.5 373.5h.01M55.7 372.8h.01M175.8 264.3h.01M184.1 133.5h.01M188.9 230.7h.01M126.4 297.6h.01M81.1 213.8h.01M272.1 108.4h.01M229.3 261.3h.01M175.5 238.0h.01M233.5 99.0h.01M89.6 190.2h.01M126.9 377.4h.01M143.7 366.7h.01M263.6 102.9h.01M254.8 115.9h.01M301.5 317.9h.01M221.0 429.0h.01M208.4 151.0h.01M114.5 240.1h.01M153.3 181.0h.01M77.0 219.9h.01M274.5 407.6h.01M198.7 120.4h.01M230.9 249.2h.01M222.0 137.3h.01M158.7 357.8h.01M149.1 369.0h.01M107.0 349.9h.01M89.7 308.7h.01M0.4 155.4h.01M118.6 413.8h.01M108.8 368.5h.01M88.3 405.4h.01M222.8 102.1h.01M76.6 227.7h.01M183.5 0.4h.01M123.1 381.8h.01M216.5 108.0h.01M219.5 230.3h.01M218.1 83.6h.01M82.6 101.2h.01M231.0 255.4h.01M198.6 130.3h.01M143.0 325.2h.01M190.3 264.9h.01M216.7 130.7h.01M115.1 377.6h.01M190.8 242.9h.01M233.6 225.3h.01M301.4 373.3h.01M84.8 314.5h.01M137.5 415.6h.01M103.1 364.1h.01M128.0 408.3h.01M135.3 407.9h.01M156.4 327.4h.01M227.0 0.4h.01M141.5 184.8h.01M89.6 300.1h.01M131.5 347.3h.01M223.5 120.0h.01M93.0 274.5h.01M130.7 388.9h.01M245.6 239.6h.01M331.0 362.4h.01"/>
<path stroke="#1a1a1a" stroke-width="2.42" stroke-linecap="round" fill="none" d="M135.0 314.1h.01M278.5 192.2h.01M188.1 364.1h.01M180.9 269.8h.01M138.2 294.5h.01M128.9 419.3h.01M236.8 179.5h.01M225.0 84.3h.01M278.9 201.5h.01M79.2 375.5h.01M146.9 381.1h.01M98.7 305.9h.01M183.1 220.4h.01M286.8 175.3h.01M75.4 365.9h.01M274.4 201.6h.01M87.5 319.5h.01M194.1 212.7h.01M99.4 387.9h.01M268.7 239.3h.01M267.7 197.8h.01M97.8 221.8h.01M121.7 290.4h.01M146.9 393.8h.01M146.3 43.2h.01M208.2 350.0h.01M210.5 259.6h.01M164.7 232.9h.01M236.2 263.8h.01M120.8 335.4h.01M79.6 195.2h.01M150.1 193.8h.01M139.0 305.1h.01M186.2 321.0h.01M296.5 312.7h.01M79.5 114.4h.01M74.5 150.5h.01M255.4 90.6h.01M160.2 190.5h.01M134.2 304.3h.01M144.9 189.8h.01M163.6 301.1h.01M91.6 87.5h.01M98.5 319.7h.01M285.3 140.6h.01M102.4 315.6h.01M61.8 370.3h.01M131.7 377.8h.01M180.5 322.2h.01M199.5 225.4h.01M228.5 161.3h.01M124.0 189.2h.01M127.5 258.6h.01M237.2 110.1h.01M130.4 355.0h.01M311.4 248.5h.01M145.7 340.9h.01M170.2 266.3h.01M264.7 80.6h.01M166.4 251.0h.01M277.4 242.1h.01M270.6 136.5h.01M172.5 182.2h.01M83.2 190.7h.01M140.7 390.1h.01M279.1 217.3h.01M104.8 273.1h.01M237.0 104.7h.01M247.7 255.3h.01M140.5 194.6h.01M156.6 185.9h.01M97.1 359.1h.01M74.2 156.5h.01M199.7 419.8h.01M163.1 220.7h.01M87.2 211.8h.01M119.1 361.2h.01M268.0 85.7h.01M165.1 188.4h.01M276.1 185.7h.01M104.4 337.1h.01M304.4 259.9h.01M169.5 352.8h.01M123.5 342.3h.01M192.3 361.8h.01M248.1 112.3h.01M136.7 202.4h.01M297.8 240.2h.01M148.6 411.1h.01M271.3 212.0h.01M309.2 260.0h.01M161.0 210.7h.01M124.0 364.0h.01M282.1 183.1h.01M104.3 386.5h.01M253.8 98.2h.01M260.6 76.7h.01M211.5 424.4h.01M145.7 301.0h.01M180.2 258.8h.01M128.7 372.5h.01M96.0 200.9h.01M235.4 169.8h.01M125.0 331.2h.01M78.4 209.1h.01M102.7 73.6h.01M169.8 372.5h.01M150.2 304.0h.01M243.0 289.3h.01M180.8 350.1h.01M82.0 365.0h.01M204.9 218.3h.01M233.7 177.2h.01M154.2 348.2h.01M297.6 188.5h.01M132.9 368.3h.01M143.5 292.8h.01M160.7 331.3h.01M102.6 394.0h.01M220.1 148.7h.01M247.5 123.0h.01M211.2 346.4h.01M286.8 154.3h.01M141.3 379.3h.01M94.2 322.7h.01M93.7 195.6h.01M232.7 161.4h.01M273.5 207.7h.01M297.1 347.8h.01M186.7 257.0h.01M294.2 304.0h.01M126.6 281.1h.01M228.4 138.3h.01M294.6 308.9h.01M236.4 119.6h.01M201.3 427.9h.01M105.0 367.5h.01M171.1 260.8h.01M158.8 424.1h.01M308.4 254.7h.01M205.0 352.3h.01M309.5 184.8h.01M190.3 352.9h.01M174.6 256.4h.01M291.7 175.5h.01M293.6 191.0h.01M259.6 123.7h.01M282.4 121.4h.01M143.7 318.1h.01M247.8 73.2h.01M287.8 160.1h.01M182.6 226.5h.01M136.8 47.4h.01M154.9 190.9h.01M141.6 403.1h.01M250.7 104.9h.01M121.9 260.8h.01M235.7 62.9h.01M281.3 246.1h.01M154.0 379.5h.01M250.2 228.5h.01M277.3 104.5h.01M275.7 119.8h.01M270.0 202.1h.01M248.0 413.7h.01M313.1 190.7h.01M273.4 157.3h.01M74.7 169.5h.01M127.4 52.9h.01M180.8 264.5h.01M152.6 276.0h.01M159.9 200.6h.01M117.3 60.3h.01M75.3 132.1h.01M249.2 250.2h.01M286.3 185.6h.01M76.4 126.0h.01M275.9 113.4h.01M232.7 418.2h.01M199.5 351.8h.01M94.2 303.3h.01M257.0 243.9h.01M133.4 383.6h.01M207.2 415.6h.01M139.8 277.6h.01M286.5 254.8h.01M186.1 421.4h.01M277.0 248.4h.01M264.1 127.5h.01M244.1 106.0h.01M229.3 409.6h.01M271.6 142.1h.01M185.9 244.9h.01M170.0 429.0h.01M247.2 290.2h.01M189.9 428.6h.01M271.2 234.0h.01M135.9 389.1h.01M98.7 325.0h.01M155.8 341.0h.01M275.8 139.0h.01M247.4 99.9h.01M320.5 341.1h.01M237.0 94.6h.01M325.1 345.6h.01M264.3 414.0h.01M272.6 250.4h.01M74.8 175.4h.01M159.1 375.0h.01M255.7 230.9h.01M149.9 406.8h.01M171.9 223.6h.01M114.2 361.6h.01M91.6 366.1h.01M168.2 319.4h.01M241.6 301.6h.01M204.6 346.7h.01M313.1 333.2h.01M256.1 238.1h.01M172.4 242.7h.01M170.3 247.0h.01M265.9 230.2h.01M279.0 152.9h.01M273.9 166.3h.01M196.5 423.3h.01M128.2 342.3h.01M85.4 196.3h.01M264.2 238.8h.01M320.6 358.8h.01M172.4 366.4h.01M118.6 186.8h.01M169.4 329.3h.01M214.8 260.9h.01M149.5 376.8h.01M252.3 131.8h.01M313.0 359.7h.01M117.8 265.2h.01M244.1 219.5h.01M219.6 423.9h.01M255.3 409.6h.01M279.1 148.2h.01M228.0 226.8h.01M84.0 398.1h.01M163.0 423.5h.01M145.9 296.2h.01M230.1 90.3h.01M112.7 319.6h.01M198.9 202.8h.01M124.7 355.5h.01M79.5 293.3h.01M232.7 423.2h.01M92.4 361.1h.01M242.7 120.5h.01M132.6 188.0h.01M145.4 406.4h.01M276.1 211.2h.01M280.2 209.0h.01M125.6 337.4h.01M236.6 80.7h.01M279.3 213.8h.01M151.9 392.7h.01M208.9 228.4h.01M95.3 190.2h.01M107.7 312.5h.01M280.8 115.8h.01M307.0 249.7h.01M259.3 416.0h.01M150.7 337.4h.01M248.8 127.7h.01M101.9 231.8h.01M128.9 360.9h.01M241.3 71.6h.01M135.0 358.0h.01M185.3 354.2h.01M73.1 370.8h.01M315.4 245.0h.01M193.2 220.5h.01M151.4 40.9h.01M136.3 379.3h.01M270.7 222.2h.01M235.2 310.0h.01M197.1 359.8h.01M221.3 154.5h.01M155.1 200.7h.01M299.0 266.4h.01M261.1 85.3h.01M216.2 48.0h.01M154.8 414.9h.01M147.0 389.5h.01M159.6 350.9h.01M89.3 324.2h.01M241.2 176.5h.01M180.5 178.5h.01M245.4 418.1h.01M109.5 323.7h.01M240.9 255.7h.01M315.3 365.9h.01M156.7 271.6h.01M141.3 44.8h.01M89.6 221.8h.01M228.4 53.4h.01M274.5 126.8h.01M279.9 131.3h.01M140.9 200.0h.01M183.0 424.5h.01M184.0 367.3h.01M75.4 213.7h.01M181.1 245.5h.01M151.0 385.9h.01M316.6 237.1h.01M275.1 230.1h.01M87.0 363.2h.01M150.6 416.3h.01M208.7 212.0h.01M106.8 341.7h.01M246.7 245.4h.01M279.4 221.9h.01M154.2 410.2h.01M237.8 88.3h.01M95.9 291.8h.01M285.7 148.7h.01M219.2 262.6h.01M246.0 297.3h.01M290.5 262.1h.01M94.9 297.4h.01M144.3 385.7h.01M124.2 286.1h.01M264.8 133.5h.01M248.1 117.8h.01M138.3 368.4h.01M134.7 373.6h.01M92.3 201.6h.01M271.4 182.2h.01M122.8 236.1h.01M75.3 200.2h.01M189.7 178.6h.01M202.1 360.0h.01M222.6 418.0h.01M101.9 357.5h.01M112.5 65.0h.01M255.6 74.1h.01M113.2 343.7h.01M139.3 384.5h.01M242.3 293.7h.01M222.9 177.7h.01M232.3 128.9h.01M175.5 429.1h.01M76.5 187.5h.01M145.0 373.8h.01M182.9 37.1h.01M124.1 318.7h.01M227.1 132.1h.01M103.6 322.9h.01M207.1 343.9h.01M267.8 192.4h.01M120.5 322.2h.01M281.7 238.4h.01M168.2 423.6h.01M148.0 278.7h.01M299.3 331.4h.01M213.7 415.7h.01M282.4 161.6h.01M303.6 368.6h.01M99.8 287.5h.01M301.1 185.1h.01M102.0 341.2h.01M90.5 314.0h.01M280.8 172.8h.01M304.1 240.0h.01M315.6 371.4h.01M151.5 343.4h.01M238.7 420.7h.01M207.1 428.8h.01M175.2 352.5h.01M118.5 356.1h.01M101.2 237.9h.01M242.8 111.9h.01M97.8 329.2h.01M215.1 153.5h.01M268.0 186.7h.01M240.5 116.1h.01M284.6 134.1h.01M204.9 422.1h.01M238.9 124.1h.01M102.2 309.9h.01M275.3 133.7h.01M147.0 347.2h.01M106.8 359.2h.01M159.9 418.9h.01M252.8 109.8h.01M141.4 214.0h.01M106.2 200.9h.01M178.2 366.5h.01M123.9 399.3h.01M200.0 214.0h.01M234.4 114.6h.01M101.2 332.6h.01M138.1 394.9h.01M202.4 355.6h.01M104.1 345.6h.01M180.9 429.1h.01M121.3 352.7h.01M227.8 177.2h.01M313.5 256.2h.01M191.9 357.3h.01M71.5 384.4h.01M272.9 244.5h.01M112.3 357.6h.01M204.1 255.3h.01M115.4 323.6h.01M140.1 373.7h.01M276.0 179.2h.01M163.1 203.8h.01M240.6 307.8h.01M224.1 262.2h.01M106.5 228.0h.01M155.2 196.1h.01M269.2 408.4h.01M132.7 363.3h.01M200.5 347.8h.01M224.2 401.7h.01M99.9 337.1h.01M195.4 428.6h.01M225.3 147.2h.01M175.8 326.3h.01M303.2 350.7h.01M177.9 242.7h.01M190.7 259.3h.01M142.6 398.5h.01M264.1 408.5h.01M247.6 224.0h.01M162.8 37.4h.01M281.8 155.9h.01M216.4 419.9h.01M81.0 385.7h.01M186.1 349.1h.01M241.2 100.0h.01M174.2 233.2h.01M277.7 225.9h.01M253.6 415.0h.01M203.3 42.6h.01M316.1 198.2h.01M83.6 380.5h.01M258.7 110.2h.01M230.8 119.9h.01M107.3 69.3h.01M127.6 367.5h.01M197.8 254.4h.01M109.3 336.8h.01M267.6 244.8h.01M285.2 249.9h.01M74.1 144.5h.01M239.1 313.5h.01M185.6 428.7h.01M91.4 288.5h.01M165.3 262.6h.01M252.1 245.0h.01M253.6 121.9h.01M150.1 198.5h.01M138.2 188.7h.01M231.2 312.1h.01M248.7 87.8h.01M257.1 103.3h.01M283.7 127.5h.01M231.9 265.2h.01M274.5 173.0h.01M154.8 419.8h.01M307.4 368.5h.01M236.9 305.8h.01M90.6 237.2h.01M109.2 354.3h.01M294.3 294.8h.01M187.7 368.3h.01M246.0 215.3h.01M315.0 251.6h.01M249.5 93.9h.01M214.2 428.9h.01M243.5 93.1h.01M75.2 138.5h.01M235.8 301.7h.01M96.3 235.7h.01M159.0 300.4h.01M281.9 189.1h.01M145.2 199.3h.01M276.4 254.1h.01M113.5 328.4h.01M261.1 241.7h.01M227.1 156.9h.01M297.0 181.9h.01M226.7 152.1h.01M226.7 421.6h.01M93.0 326.7h.01M132.1 49.9h.01M144.4 305.3h.01M280.1 229.8h.01M241.6 414.1h.01M81.2 391.8h.01M102.4 281.0h.01M113.4 267.5h.01M239.6 260.5h.01M107.2 318.4h.01M225.3 142.1h.01M213.5 211.2h.01M141.2 299.7h.01M242.9 84.6h.01M234.1 56.2h.01M283.1 234.0h.01M128.3 314.3h.01M107.9 328.4h.01M260.0 234.4h.01M273.5 190.4h.01M80.1 108.4h.01M142.9 394.4h.01M78.4 245.5h.01M101.1 361.1h.01M283.8 242.6h.01M74.7 390.2h.01M271.1 90.5h.01M304.3 181.0h.01M100.8 369.5h.01M120.2 326.9h.01M92.9 318.5h.01M77.1 380.9h.01M214.0 176.8h.01M313.7 260.6h.01M320.2 354.1h.01M97.4 279.6h.01M68.1 368.1h.01M76.2 193.1h.01M168.4 256.0h.01"/>
<path stroke="#1a1a1a" stroke-width="2.87" stroke-linecap="round" fill="none" d="M179.0 215.9h.01M261.7 380.0h.01M101.7 216.4h.01M88.5 204.7h.01M259.2 194.5h.01M136.8 289.0h.01M168.3 313.8h.01M107.7 282.6h.01M196.5 39.6h.01M189.0 317.3h.01M216.2 344.6h.01M249.9 136.3h.01M203.5 285.7h.01M176.1 247.3h.01M285.4 267.3h.01M237.7 409.8h.01M163.1 405.4h.01M179.6 396.6h.01M190.7 412.6h.01M294.9 263.4h.01M148.5 291.0h.01M223.0 390.3h.01M112.6 315.2h.01M243.6 286.0h.01M195.2 403.9h.01M293.3 299.8h.01M123.8 271.2h.01M246.5 392.5h.01M210.8 402.5h.01M196.9 414.3h.01M153.5 307.5h.01M259.7 407.9h.01M297.5 316.7h.01M170.7 187.6h.01M206.6 259.2h.01M259.9 182.3h.01M278.1 399.5h.01M170.8 408.4h.01M261.8 149.0h.01M271.6 161.6h.01M304.4 382.9h.01M156.3 401.9h.01M313.4 240.6h.01M191.1 348.7h.01M137.4 216.2h.01M264.3 389.7h.01M299.9 211.8h.01M190.8 370.7h.01M206.1 383.4h.01M103.9 286.0h.01M115.7 337.5h.01M146.4 400.5h.01M171.8 339.4h.01M240.5 396.2h.01M212.0 351.2h.01M203.6 365.2h.01M87.7 391.6h.01M178.0 424.3h.01M98.4 78.4h.01M177.7 221.1h.01M249.9 391.2h.01M143.9 279.5h.01M221.1 323.0h.01M121.6 295.0h.01M176.5 251.7h.01M228.4 415.4h.01M88.4 92.1h.01M242.9 384.7h.01M265.7 214.8h.01M199.3 179.0h.01M195.4 348.8h.01M248.3 180.2h.01M242.5 392.7h.01M204.7 175.9h.01M108.6 286.3h.01M255.3 135.8h.01M224.3 412.8h.01M218.5 337.0h.01M185.4 406.2h.01M293.4 259.4h.01M307.6 226.4h.01M250.0 293.9h.01M214.9 405.4h.01M259.2 131.1h.01M166.6 297.9h.01M250.8 395.9h.01M208.3 272.5h.01M292.6 314.6h.01M121.2 344.9h.01M302.0 275.5h.01M109.1 345.9h.01M295.5 267.9h.01M150.1 298.9h.01M248.3 212.3h.01M302.3 269.6h.01M181.0 408.5h.01M234.1 124.3h.01M287.4 190.1h.01M311.4 368.7h.01M192.5 269.4h.01M229.3 316.7h.01M77.5 119.9h.01M159.7 338.2h.01M124.4 312.8h.01M289.0 170.8h.01M198.0 317.9h.01M289.1 165.8h.01M204.6 180.8h.01M285.0 273.0h.01M243.0 181.1h.01M297.2 259.6h.01M308.5 327.5h.01M225.7 324.5h.01M202.4 405.7h.01M193.1 323.2h.01M125.4 225.2h.01M111.7 350.1h.01M308.3 271.7h.01M227.2 328.0h.01M280.8 251.4h.01M189.9 38.1h.01M314.9 355.7h.01M116.4 192.1h.01M152.3 400.0h.01M94.6 83.0h.01M235.5 132.0h.01M165.4 208.8h.01M215.0 215.6h.01M118.4 317.9h.01M117.7 344.9h.01M293.6 240.0h.01M115.8 341.1h.01M208.4 410.3h.01M164.4 340.1h.01M251.6 216.7h.01M254.9 127.3h.01M229.2 394.3h.01M73.7 207.2h.01M248.0 302.2h.01M250.6 384.5h.01M293.8 362.9h.01M135.8 205.4h.01M226.4 272.0h.01M123.1 409.2h.01M259.6 251.5h.01M242.5 130.9h.01M219.8 403.1h.01M235.9 318.4h.01M253.3 181.6h.01M120.8 224.0h.01M249.2 171.6h.01M209.6 179.2h.01M207.6 286.4h.01M267.1 221.2h.01M193.7 255.9h.01M162.7 392.5h.01M303.0 214.4h.01M302.6 342.2h.01M243.6 171.7h.01M124.5 265.5h.01M246.0 176.1h.01M292.7 336.9h.01M235.7 165.2h.01M227.8 390.5h.01M241.0 145.2h.01M253.2 400.1h.01M234.7 297.7h.01M172.8 343.7h.01M196.8 398.8h.01M215.1 401.6h.01M291.4 236.3h.01M212.1 398.0h.01M222.3 267.1h.01M103.2 328.0h.01M282.2 197.9h.01M197.4 220.8h.01M183.9 317.4h.01M210.2 215.5h.01M120.6 299.9h.01M212.4 337.1h.01M218.8 413.6h.01M259.9 202.4h.01M165.6 419.8h.01M153.9 405.1h.01M245.0 305.8h.01M275.1 220.5h.01M156.7 38.3h.01M204.6 224.8h.01M96.9 397.9h.01M296.9 337.5h.01M219.3 407.9h.01M266.5 138.9h.01M305.2 218.6h.01M266.6 143.6h.01M253.3 388.6h.01M184.5 310.4h.01M261.9 145.6h.01M130.9 203.7h.01M106.1 289.7h.01M295.0 333.4h.01M202.1 415.5h.01M107.9 217.6h.01M243.0 264.3h.01M302.3 336.2h.01M233.2 406.4h.01M242.5 401.1h.01M261.3 177.6h.01M261.9 255.8h.01M190.6 341.4h.01M159.1 413.6h.01M101.4 292.5h.01M231.0 326.0h.01M171.8 412.9h.01M244.8 396.8h.01M316.0 227.0h.01M277.4 143.4h.01M162.1 410.5h.01M181.9 313.1h.01M311.1 362.9h.01M221.9 398.1h.01M298.7 250.1h.01M155.5 390.4h.01M222.5 338.8h.01M238.5 217.9h.01M250.5 380.6h.01M249.5 140.3h.01M173.0 423.9h.01M252.0 404.6h.01M232.5 305.8h.01M154.3 299.9h.01M303.3 264.7h.01M114.5 353.3h.01M283.6 260.8h.01M243.3 380.7h.01M233.2 394.5h.01M200.3 218.3h.01M226.3 333.5h.01M272.6 398.8h.01M188.0 402.6h.01M205.1 214.8h.01M162.9 397.6h.01M215.0 409.8h.01M239.4 155.2h.01M211.8 273.2h.01M241.2 215.3h.01M150.9 294.5h.01M174.6 269.8h.01M253.4 140.9h.01M261.0 376.5h.01M238.7 384.8h.01M208.2 396.8h.01M250.1 190.3h.01M298.0 233.5h.01M238.3 134.8h.01M292.3 275.1h.01M163.3 306.2h.01M237.5 403.9h.01M303.0 253.9h.01M250.1 409.1h.01M232.0 134.8h.01M74.3 163.0h.01M289.1 180.5h.01M218.5 219.5h.01M119.5 400.2h.01M290.6 194.5h.01M262.8 211.7h.01M155.2 396.7h.01M172.1 251.6h.01M185.6 411.3h.01M265.8 169.4h.01M180.4 404.6h.01M221.5 209.9h.01M133.5 200.2h.01M155.4 384.0h.01M149.7 402.7h.01M272.2 256.4h.01M217.1 398.0h.01M244.3 62.4h.01M190.8 422.9h.01M280.4 264.7h.01M268.0 212.0h.01M270.0 228.5h.01M282.7 269.0h.01M225.9 320.5h.01M224.1 407.6h.01M180.1 327.1h.01M304.9 377.7h.01M92.1 207.6h.01M184.3 325.1h.01M294.9 235.1h.01M279.7 109.5h.01M121.5 279.5h.01M161.8 273.3h.01M279.1 125.2h.01M266.9 147.6h.01M291.0 232.4h.01M175.9 419.0h.01M216.4 265.9h.01M218.0 213.1h.01M224.4 213.1h.01M253.0 69.3h.01M180.3 345.0h.01M245.4 137.3h.01M183.2 402.5h.01M110.7 332.6h.01M214.1 220.0h.01M230.3 180.3h.01M300.9 236.4h.01M165.0 194.1h.01M303.2 248.6h.01M172.5 405.0h.01M107.1 188.8h.01M311.5 224.3h.01M231.9 318.4h.01M111.3 340.3h.01M265.8 175.3h.01M185.6 179.8h.01M262.8 403.1h.01M259.4 190.2h.01M253.0 145.4h.01M170.4 348.3h.01M211.0 333.5h.01M243.2 126.3h.01M293.2 279.9h.01M282.9 144.4h.01M220.7 215.4h.01M317.6 210.2h.01M117.4 349.8h.01M173.5 330.5h.01M158.0 306.8h.01M310.5 230.6h.01M266.1 225.4h.01M175.9 36.2h.01M265.2 234.2h.01M224.4 330.9h.01M137.4 198.1h.01M277.6 260.8h.01M309.2 220.0h.01M317.4 221.6h.01M233.1 322.9h.01M317.4 204.6h.01M241.6 406.1h.01M180.8 412.6h.01M184.4 344.8h.01M169.4 36.2h.01M238.2 128.7h.01M134.2 222.2h.01M149.8 313.7h.01M165.0 198.8h.01M310.1 236.8h.01M254.9 192.5h.01M294.1 271.7h.01M294.4 250.1h.01M247.9 66.4h.01M122.1 348.6h.01M245.7 189.1h.01M265.3 181.4h.01M273.2 225.5h.01M118.3 331.3h.01M246.9 404.7h.01M311.9 264.6h.01M178.0 272.5h.01M296.0 210.9h.01M305.3 324.5h.01M262.5 246.3h.01M84.0 207.3h.01M190.4 320.8h.01M240.8 139.8h.01M127.5 303.2h.01M106.7 278.5h.01M208.9 356.4h.01M294.7 254.8h.01M282.1 178.1h.01M195.6 216.4h.01M268.0 403.0h.01M137.5 210.2h.01M235.6 146.9h.01M200.1 410.3h.01M210.7 282.9h.01M188.4 219.0h.01M204.3 399.2h.01M294.5 324.5h.01M224.2 394.5h.01M116.0 227.2h.01M233.0 412.6h.01M244.7 141.6h.01M200.9 396.5h.01M270.0 171.0h.01M114.7 334.1h.01M99.1 198.8h.01M178.8 211.5h.01M291.2 185.3h.01M211.8 277.7h.01M265.7 209.3h.01M173.9 400.7h.01M167.7 343.2h.01M164.2 415.7h.01M234.1 288.5h.01M239.5 59.3h.01M164.9 401.3h.01M167.2 223.5h.01M108.8 274.5h.01M193.4 318.0h.01M235.8 152.4h.01M235.1 268.8h.01M287.7 258.8h.01M111.0 231.4h.01M85.1 202.0h.01M216.2 348.5h.01M239.4 390.6h.01M253.9 250.2h.01M316.3 350.7h.01M113.8 347.3h.01M189.5 215.0h.01M133.5 284.4h.01M158.9 387.2h.01M235.5 390.7h.01M277.4 160.2h.01M255.7 217.7h.01M121.4 283.4h.01M105.1 205.2h.01M167.4 413.1h.01M225.4 316.6h.01M183.9 215.1h.01M200.5 401.2h.01M97.7 211.3h.01M263.6 193.8h.01M160.3 403.0h.01M235.6 138.6h.01M263.3 393.4h.01M161.1 310.8h.01M131.1 279.5h.01M122.2 56.3h.01M315.8 232.1h.01M257.7 221.3h.01M269.0 155.6h.01M229.8 145.8h.01M99.0 194.2h.01M159.2 398.7h.01M255.7 209.5h.01M227.2 310.6h.01M204.3 289.4h.01M303.2 322.2h.01M242.0 135.5h.01M224.3 311.9h.01M169.9 229.4h.01M158.8 393.8h.01M204.4 340.0h.01M319.4 345.8h.01M163.9 227.7h.01M175.4 372.1h.01M210.3 419.5h.01M261.3 387.6h.01M210.4 406.8h.01M115.9 231.3h.01M228.6 398.8h.01M192.3 400.8h.01M183.8 374.2h.01M163.2 388.5h.01M256.1 178.3h.01M217.5 210.1h.01M237.0 142.9h.01M106.4 307.1h.01M275.8 99.6h.01M129.9 424.2h.01M298.6 270.1h.01M255.8 396.5h.01M254.3 381.6h.01M180.7 420.4h.01M287.0 198.1h.01M102.2 202.1h.01M190.4 406.7h.01M183.9 210.3h.01M256.8 403.7h.01M293.6 317.5h.01M181.2 332.3h.01M297.2 324.3h.01M175.7 347.2h.01M126.1 347.0h.01M257.3 225.8h.01M232.1 142.2h.01M263.4 198.4h.01M204.6 410.4h.01M292.9 330.2h.01M296.2 244.9h.01M179.0 400.3h.01M248.9 219.4h.01M273.4 95.3h.01M292.8 346.3h.01M305.5 222.7h.01M259.1 399.9h.01M124.9 276.0h.01M259.3 394.9h.01M250.7 260.0h.01M240.4 167.5h.01M205.7 405.0h.01M295.1 320.7h.01M237.8 173.3h.01M301.1 244.8h.01M176.9 183.4h.01M270.0 207.0h.01M211.8 412.1h.01M323.4 350.7h.01M185.4 270.5h.01M113.7 205.9h.01M181.5 416.5h.01M124.1 359.4h.01M177.5 331.3h.01M247.8 387.3h.01M149.7 396.9h.01M164.8 214.5h.01M167.5 398.6h.01M158.1 407.6h.01M232.2 388.8h.01M236.9 395.1h.01M172.3 300.4h.01M89.4 197.9h.01M266.5 205.6h.01M272.4 146.9h.01M305.8 268.5h.01M246.2 168.0h.01M218.4 179.1h.01M186.4 371.5h.01M279.5 257.2h.01M254.0 392.5h.01M126.7 351.5h.01M164.5 348.4h.01M168.3 332.5h.01M283.0 224.5h.01M273.3 238.7h.01M233.0 400.6h.01M177.3 389.3h.01M226.3 338.7h.01M210.9 263.5h.01M265.4 151.9h.01M243.1 388.4h.01M257.5 380.2h.01M173.4 334.8h.01M246.6 382.9h.01M198.4 406.0h.01M313.6 219.4h.01M248.1 185.0h.01M165.5 394.0h.01M301.1 258.2h.01M257.5 386.5h.01M299.7 262.5h.01M184.9 253.4h.01M253.0 222.5h.01M263.3 397.9h.01M227.4 313.8h.01M228.5 404.1h.01M176.5 404.2h.01M237.0 387.5h.01M268.0 250.0h.01M292.5 286.3h.01M112.3 272.6h.01M229.2 308.3h.01M213.2 355.2h.01M273.7 403.1h.01M160.1 196.0h.01M239.4 267.3h.01M289.1 270.8h.01M212.1 342.1h.01M128.6 221.4h.01M258.3 390.7h.01M246.8 132.3h.01M274.3 215.7h.01M298.4 254.9h.01M244.5 409.5h.01M260.0 383.5h.01M264.9 202.1h.01M194.6 409.5h.01M110.8 225.8h.01M101.6 303.1h.01M269.9 151.0h.01M235.7 158.3h.01M261.4 217.0h.01M106.0 332.7h.01M257.7 150.5h.01M80.8 199.2h.01M196.7 345.2h.01M307.5 264.4h.01M188.7 268.8h.01M280.5 137.8h.01M261.1 372.6h.01M260.4 136.7h.01M248.1 400.0h.01M133.0 217.0h.01M178.0 313.8h.01M157.2 277.3h.01M156.8 296.0h.01M240.5 381.6h.01M168.4 303.6h.01M257.3 141.7h.01M188.6 325.1h.01M245.0 259.7h.01M214.4 393.6h.01M166.0 409.0h.01M142.0 289.1h.01M79.7 203.7h.01M231.1 270.3h.01M167.5 405.1h.01M317.4 362.0h.01M240.0 150.1h.01M237.0 415.2h.01M270.5 176.7h.01M168.7 336.8h.01M221.6 327.8h.01M193.4 417.8h.01M164.1 377.9h.01M128.0 191.5h.01M193.4 250.8h.01M265.9 376.6h.01M124.3 217.2h.01M215.9 333.8h.01M218.1 389.5h.01M180.5 370.8h.01M253.1 255.3h.01M105.3 235.2h.01M248.6 143.5h.01M180.2 253.9h.01M191.5 366.5h.01M132.2 192.8h.01M290.0 282.3h.01M192.3 396.8h.01M291.0 255.8h.01M187.6 416.7h.01M261.9 141.2h.01M184.1 329.6h.01M201.2 343.0h.01M305.2 234.3h.01M229.5 321.8h.01M262.0 222.8h.01M209.6 219.9h.01M274.4 152.4h.01M222.5 49.8h.01M254.4 385.1h.01M168.5 395.5h.01M176.2 409.0h.01M257.4 248.5h.01M176.2 414.1h.01M119.9 340.0h.01M75.5 181.4h.01M288.4 276.7h.01M163.9 334.8h.01M259.6 209.3h.01M208.8 339.5h.01M308.0 243.3h.01M207.4 401.7h.01M189.2 209.9h.01M188.9 249.2h.01M100.6 297.7h.01M316.3 337.5h.01M220.6 332.8h.01M93.9 218.8h.01M231.6 150.0h.01M194.3 179.9h.01M209.7 45.0h.01M178.0 336.1h.01M287.6 264.7h.01M287.5 232.2h.01M234.6 314.8h.01M170.8 418.3h.01M206.9 360.2h.01M215.7 340.1h.01M136.6 193.0h.01M160.3 344.4h.01M124.6 200.7h.01M159.9 381.4h.01M195.7 364.9h.01M231.7 155.3h.01M254.1 188.9h.01M282.8 255.1h.01M199.7 364.2h.01M226.9 266.9h.01M243.0 163.6h.01M284.5 229.1h.01M196.9 321.4h.01M237.6 399.4h.01M291.8 267.0h.01M263.2 187.2h.01M219.0 393.7h.01M288.2 227.4h.01"/>
<path stroke="#1a1a1a" stroke-width="3.38" stroke-linecap="round" fill="none" d="M269.6 353.4h.01M282.5 358.5h.01M174.7 275.5h.01M127.5 209.1h.01M245.6 358.1h.01M282.9 276.5h.01M204.2 192.3h.01M118.1 237.2h.01M216.1 385.1h.01M221.3 372.6h.01M111.0 300.4h.01M207.1 188.3h.01M213.6 383.1h.01M281.7 315.7h.01M200.6 381.3h.01M270.6 322.2h.01M223.7 380.0h.01M289.9 224.0h.01M130.8 305.5h.01M268.0 350.1h.01M257.1 168.7h.01M268.3 364.5h.01M258.5 357.8h.01M183.9 340.5h.01M103.1 196.9h.01M214.0 227.2h.01M261.6 345.6h.01M194.8 314.6h.01M198.1 393.8h.01M243.8 152.9h.01M317.0 215.6h.01M216.6 352.4h.01M265.8 364.7h.01M197.3 341.5h.01M273.1 390.0h.01M275.4 380.4h.01M207.7 392.5h.01M267.0 328.2h.01M306.7 215.6h.01M227.7 290.4h.01M273.2 363.6h.01M284.1 323.0h.01M275.0 376.3h.01M301.4 218.4h.01M223.1 314.6h.01M270.0 217.0h.01M280.6 325.1h.01M242.6 360.6h.01M192.1 337.6h.01M204.0 271.7h.01M256.2 164.5h.01M264.5 370.3h.01M247.2 193.4h.01M253.2 271.8h.01M264.7 164.4h.01M126.0 204.7h.01M276.2 311.4h.01M229.3 337.9h.01M305.9 354.9h.01M287.1 236.5h.01M117.7 295.1h.01M261.0 161.0h.01M287.0 240.5h.01M272.8 260.5h.01M187.4 376.1h.01M268.6 370.6h.01M258.2 173.8h.01M311.1 338.7h.01M249.3 268.8h.01M125.3 196.1h.01M286.1 351.1h.01M270.3 341.5h.01M264.4 385.2h.01M200.4 283.6h.01M287.1 291.4h.01M116.4 313.5h.01M254.0 377.5h.01M154.5 281.7h.01M140.9 285.6h.01M120.5 217.7h.01M128.6 200.7h.01M228.6 274.8h.01M194.5 368.8h.01M252.4 373.7h.01M285.7 346.1h.01M171.5 397.6h.01M221.8 318.7h.01M259.1 265.5h.01M252.1 331.7h.01M209.6 326.4h.01M290.1 349.6h.01M279.6 343.6h.01M205.5 276.2h.01M196.9 258.4h.01M134.3 196.5h.01M280.6 271.6h.01M259.0 366.2h.01M275.8 329.7h.01M218.9 283.6h.01M270.3 367.2h.01M292.0 324.4h.01M259.2 329.5h.01M234.0 210.6h.01M274.2 264.4h.01M297.5 229.5h.01M227.9 382.3h.01M287.8 330.0h.01M226.4 217.4h.01M202.0 280.7h.01M240.6 277.8h.01M279.1 274.6h.01M222.8 218.7h.01M207.4 335.6h.01M207.7 317.0h.01M255.5 203.2h.01M102.8 191.8h.01M170.4 192.8h.01M269.0 166.1h.01M247.7 354.2h.01M112.0 281.3h.01M271.4 394.1h.01M205.3 320.5h.01M253.9 345.6h.01M261.4 228.6h.01M248.0 164.6h.01M188.9 183.9h.01M272.0 276.5h.01M179.6 187.3h.01M266.1 352.4h.01M261.3 152.1h.01M281.2 369.6h.01M181.7 391.7h.01M112.1 310.0h.01M290.4 327.4h.01M131.2 310.1h.01M236.5 285.2h.01M290.4 339.3h.01M260.4 164.3h.01M183.5 395.9h.01M213.7 388.1h.01M247.6 374.4h.01M197.4 335.5h.01M261.7 154.9h.01M141.5 309.5h.01M143.7 313.4h.01M251.0 212.4h.01M235.1 277.6h.01M218.6 194.8h.01M243.3 376.1h.01M282.4 300.9h.01M200.2 293.1h.01M176.5 303.0h.01M239.6 280.4h.01M252.0 166.8h.01M188.4 344.8h.01M267.7 254.8h.01M300.0 201.6h.01M182.1 183.5h.01M210.1 190.2h.01M244.5 276.5h.01M177.6 393.4h.01M220.6 182.8h.01M276.4 347.3h.01M216.7 356.4h.01M170.5 270.6h.01M225.4 181.8h.01M243.3 212.3h.01M216.0 276.4h.01M314.1 346.7h.01M181.4 381.9h.01M253.4 161.3h.01M171.7 393.4h.01M303.0 328.3h.01M230.7 384.5h.01M215.5 272.5h.01M290.0 239.0h.01M116.1 276.0h.01M261.9 171.8h.01M106.1 208.7h.01M253.9 149.2h.01M308.8 331.6h.01M128.0 229.7h.01M201.7 312.1h.01M110.3 304.8h.01M217.9 287.6h.01M168.0 387.5h.01M199.6 314.6h.01M251.3 176.4h.01M235.7 293.3h.01M177.4 385.4h.01M267.8 161.2h.01M290.0 355.0h.01M185.6 185.2h.01M259.4 198.5h.01M281.5 285.7h.01M220.9 379.3h.01M232.6 284.4h.01M247.3 370.4h.01M231.7 301.5h.01M207.5 365.1h.01M112.1 277.7h.01M223.1 282.0h.01M249.1 273.7h.01M242.9 315.0h.01M197.0 325.4h.01M230.7 378.3h.01M224.4 287.0h.01M146.0 287.6h.01M268.2 260.4h.01M285.1 326.4h.01M291.4 210.5h.01M181.6 387.2h.01M287.1 285.7h.01M191.8 327.6h.01M261.8 167.5h.01M229.0 213.0h.01M242.9 364.1h.01M196.8 292.9h.01M175.5 376.7h.01M252.1 152.4h.01M276.4 338.9h.01M275.6 353.1h.01M178.9 317.8h.01M220.7 276.7h.01M251.7 208.8h.01M118.0 283.3h.01M281.7 305.9h.01M243.4 367.4h.01M271.5 379.5h.01M303.6 209.8h.01M282.7 210.9h.01M199.1 385.4h.01M251.0 156.6h.01M246.5 345.7h.01M311.1 352.0h.01M123.6 302.9h.01M240.7 378.2h.01M285.4 311.0h.01M219.8 366.9h.01M208.7 380.5h.01M273.4 268.5h.01M174.8 310.1h.01M264.1 160.5h.01M256.7 370.1h.01M260.0 213.9h.01M99.0 375.7h.01M276.9 355.8h.01M236.0 381.5h.01M217.4 319.2h.01M194.4 393.7h.01M294.1 357.9h.01M218.8 279.6h.01M281.7 281.6h.01M251.4 298.1h.01M272.3 337.1h.01M203.3 334.1h.01M243.8 372.3h.01M193.7 388.9h.01M211.3 392.2h.01M257.7 185.7h.01M246.3 282.5h.01M250.1 281.1h.01M304.9 229.1h.01M249.4 336.4h.01M181.2 274.9h.01M284.0 289.2h.01M205.9 331.7h.01M160.0 280.6h.01M294.7 206.9h.01M243.6 310.7h.01M225.4 385.8h.01M288.9 313.5h.01M275.6 333.9h.01M247.1 285.6h.01M287.4 321.0h.01M149.7 309.4h.01M277.8 268.4h.01M186.9 340.6h.01M185.4 393.4h.01M203.6 205.4h.01M89.5 217.2h.01M186.5 332.8h.01M283.4 329.6h.01M131.2 226.3h.01M251.2 195.0h.01M236.2 323.0h.01M291.0 310.7h.01M246.0 159.9h.01M219.3 385.3h.01M260.8 157.6h.01M208.5 278.8h.01M119.8 233.0h.01M288.4 307.9h.01M168.4 377.7h.01M275.4 318.2h.01M275.6 394.3h.01M283.3 214.3h.01M290.2 333.8h.01M208.5 322.7h.01M206.9 328.3h.01M213.0 187.6h.01M257.5 255.7h.01M255.5 200.1h.01M274.6 360.9h.01M273.1 367.4h.01M295.0 342.3h.01M237.9 369.2h.01M239.0 287.8h.01M272.9 328.4h.01M212.9 330.3h.01M210.8 288.0h.01M249.5 377.5h.01M121.3 228.7h.01M112.4 285.4h.01M116.5 216.9h.01M183.8 399.2h.01M237.1 374.5h.01M269.0 264.5h.01M244.1 148.7h.01M235.7 272.9h.01M239.6 271.4h.01M214.9 281.1h.01M309.8 268.1h.01M208.2 264.1h.01M188.9 329.9h.01M211.2 314.9h.01M190.5 379.3h.01M93.0 374.7h.01M222.2 359.0h.01M296.9 275.9h.01M257.5 146.5h.01M269.8 362.5h.01M210.1 268.0h.01M258.4 205.9h.01M107.8 197.6h.01M208.3 384.6h.01M274.7 372.9h.01M254.0 172.1h.01M123.0 404.2h.01M199.1 368.8h.01M283.9 342.0h.01M296.6 196.8h.01M188.6 272.2h.01M255.3 365.0h.01M239.4 324.1h.01M266.0 373.2h.01M288.3 207.0h.01M275.5 276.3h.01M254.6 293.1h.01M189.0 338.7h.01M234.2 191.5h.01M304.9 187.9h.01M219.0 272.5h.01M312.8 211.8h.01M207.6 193.0h.01M282.6 333.9h.01M206.4 283.2h.01M120.4 275.2h.01M274.0 280.0h.01M299.0 273.1h.01M129.0 215.8h.01M133.5 206.7h.01M280.3 355.5h.01M246.3 155.7h.01M150.8 281.3h.01M208.6 375.9h.01M202.2 190.0h.01M187.8 398.1h.01M184.8 384.9h.01M169.6 402.0h.01M111.0 193.2h.01M217.1 328.9h.01M236.3 371.7h.01M270.7 359.3h.01M267.9 398.0h.01M172.2 378.4h.01M169.1 218.4h.01M198.6 190.6h.01M275.6 272.4h.01M272.3 370.9h.01M193.8 384.1h.01M248.4 151.7h.01M222.3 362.3h.01M214.2 268.7h.01M172.6 386.8h.01M277.2 369.4h.01M293.5 230.3h.01M257.6 160.6h.01M281.3 390.0h.01M238.2 380.2h.01M114.5 201.6h.01M246.4 210.1h.01M262.4 206.0h.01M117.5 290.6h.01M279.8 394.2h.01M271.4 318.6h.01M285.2 305.8h.01M186.5 388.5h.01M166.3 270.8h.01M125.1 213.0h.01M276.2 366.5h.01M292.1 199.2h.01M107.2 214.8h.01M162.0 295.8h.01M204.1 381.3h.01M173.7 382.4h.01M220.6 345.6h.01M285.7 315.3h.01M285.1 355.4h.01M288.3 302.8h.01M192.5 345.0h.01M280.5 361.5h.01M205.0 390.4h.01M278.8 278.9h.01M279.2 318.2h.01M163.8 384.1h.01M120.7 268.8h.01M232.4 333.8h.01M288.1 246.4h.01M242.2 158.2h.01M121.5 198.7h.01M221.1 287.1h.01M215.3 314.0h.01M271.9 355.6h.01M286.9 358.6h.01M276.9 326.1h.01M273.1 350.9h.01M256.0 157.2h.01M189.8 253.3h.01M274.3 357.9h.01M219.2 370.1h.01M202.1 221.7h.01M262.6 357.5h.01M213.4 326.6h.01M239.3 376.1h.01M213.4 264.9h.01M256.2 153.8h.01M224.7 342.6h.01M238.9 291.4h.01M201.5 388.7h.01M223.0 226.6h.01M180.4 340.1h.01M267.2 321.6h.01M232.8 380.8h.01M216.3 372.3h.01M229.1 331.4h.01M228.2 282.5h.01M250.6 343.7h.01M253.1 277.4h.01M311.9 194.8h.01M233.5 375.0h.01M238.6 275.4h.01M269.3 286.8h.01M284.4 202.1h.01M298.0 215.6h.01M100.1 205.8h.01M269.6 279.3h.01M292.2 290.5h.01M261.3 361.3h.01M186.7 314.3h.01M114.9 235.1h.01M204.5 394.7h.01M215.0 376.8h.01M200.1 334.1h.01M236.0 377.8h.01M263.9 353.4h.01M226.0 209.5h.01M289.1 299.5h.01M187.9 200.4h.01M268.9 389.3h.01M220.4 348.9h.01M180.5 249.5h.01M244.8 279.7h.01M288.6 324.4h.01M276.4 283.5h.01M209.4 388.4h.01M240.0 212.0h.01M251.9 289.7h.01M175.1 189.6h.01M208.8 224.6h.01M190.5 374.3h.01M186.0 336.5h.01M294.5 352.7h.01M196.5 290.0h.01M254.5 359.4h.01M239.1 296.5h.01M239.9 319.1h.01M286.4 334.2h.01M288.8 202.4h.01M220.5 312.1h.01M249.7 350.5h.01M213.7 181.9h.01M261.3 368.5h.01M106.2 293.6h.01M281.5 311.0h.01M307.4 373.2h.01M284.7 206.9h.01M257.0 374.8h.01M242.4 185.8h.01M191.1 198.6h.01M223.8 335.7h.01M274.7 342.1h.01M134.7 213.4h.01M238.9 161.8h.01M203.4 385.4h.01M278.7 351.2h.01M232.2 274.7h.01M271.2 272.3h.01M253.6 334.9h.01M195.4 372.5h.01M167.9 203.4h.01M161.8 277.5h.01M214.2 194.1h.01M108.5 236.0h.01M117.3 271.9h.01M289.1 317.5h.01M273.5 384.7h.01M265.7 157.1h.01M279.5 330.0h.01M121.3 193.5h.01M264.9 381.1h.01M265.9 360.6h.01M290.4 242.9h.01M189.9 385.2h.01M291.3 306.2h.01M212.7 322.6h.01M176.4 340.9h.01M197.1 381.9h.01M213.6 318.7h.01M195.2 337.7h.01M264.2 264.3h.01M199.1 286.5h.01M184.5 249.5h.01M179.7 376.3h.01M216.4 184.4h.01M118.7 305.2h.01M284.6 193.9h.01M277.5 363.5h.01M253.3 338.1h.01M222.4 386.7h.01M201.3 268.4h.01M251.5 199.5h.01M232.8 370.0h.01M111.3 197.9h.01M223.0 382.8h.01M110.3 202.9h.01M210.8 194.6h.01M205.9 377.9h.01M240.4 373.2h.01M202.8 377.0h.01M285.8 280.4h.01M281.7 205.1h.01M222.5 272.1h.01M228.8 286.5h.01M290.1 295.2h.01M228.8 335.1h.01M214.1 285.4h.01M306.8 364.2h.01M200.6 289.6h.01M249.7 160.9h.01M110.7 288.9h.01M201.7 321.1h.01M195.1 327.7h.01M203.5 337.0h.01M286.0 338.3h.01M285.5 296.4h.01M269.9 292.3h.01M251.7 370.0h.01M110.7 208.3h.01M245.7 378.5h.01M266.1 331.7h.01M125.8 414.5h.01M284.0 386.7h.01M278.4 372.6h.01M224.2 308.5h.01M226.8 278.9h.01M190.6 390.2h.01M201.8 258.7h.01M205.1 262.5h.01M209.0 330.5h.01M281.4 320.6h.01M310.9 215.7h.01M236.0 327.5h.01M194.0 341.5h.01M253.0 185.4h.01M113.5 219.8h.01M262.7 364.5h.01M205.8 313.1h.01M267.0 356.6h.01M263.6 251.0h.01M245.5 145.5h.01M203.1 316.8h.01M117.7 384.1h.01M243.9 268.6h.01M272.6 314.4h.01M255.2 196.7h.01M116.1 300.8h.01M175.4 396.7h.01M249.1 147.7h.01M278.6 308.1h.01M205.1 280.4h.01M117.3 205.4h.01M124.5 207.6h.01M293.5 227.1h.01M252.5 366.3h.01M253.9 212.7h.01M218.8 359.0h.01M184.4 273.6h.01M115.0 282.8h.01M205.5 293.4h.01M267.6 325.0h.01M194.6 265.4h.01M199.8 338.5h.01M256.0 260.6h.01M218.5 268.5h.01M206.0 387.5h.01M296.1 328.1h.01M224.3 276.7h.01M221.4 365.2h.01M154.1 292.3h.01M248.1 341.7h.01M228.3 386.9h.01M231.1 340.3h.01M157.5 284.1h.01M226.4 378.8h.01M207.6 290.7h.01M177.7 381.1h.01M187.7 391.6h.01M295.4 202.1h.01M288.8 343.1h.01M307.4 335.6h.01M120.5 313.8h.01M189.8 394.3h.01M118.6 201.9h.01M174.1 215.3h.01M268.3 381.1h.01M253.3 264.8h.01M119.4 287.3h.01M201.9 262.9h.01M290.2 251.0h.01M272.7 288.3h.01M200.1 324.4h.01M270.2 375.0h.01M248.0 264.3h.01M298.9 206.7h.01M219.0 315.4h.01M208.4 371.6h.01M269.0 385.6h.01M220.1 341.5h.01M129.9 196.9h.01M265.1 218.3h.01M219.5 186.7h.01M234.3 384.5h.01M292.3 246.3h.01M232.2 329.5h.01M314.4 342.3h.01M242.2 273.9h.01M193.0 291.0h.01M242.6 282.6h.01M201.5 392.3h.01M168.4 391.1h.01M250.5 285.8h.01M212.8 379.8h.01M168.6 382.9h.01M205.3 267.1h.01M206.5 221.6h.01M283.3 219.1h.01M266.1 367.7h.01M194.5 261.5h.01M216.9 324.1h.01M284.5 318.5h.01M277.7 321.6h.01M272.6 332.4h.01M206.6 207.0h.01M267.5 393.4h.01M278.2 359.2h.01M238.1 182.8h.01M291.4 320.7h.01M218.0 382.0h.01M282.4 352.4h.01M264.7 258.7h.01M187.5 382.0h.01M106.5 193.8h.01M270.8 348.2h.01M212.6 372.2h.01M269.1 275.6h.01M235.4 220.3h.01M227.8 375.6h.01M120.6 213.7h.01M260.8 261.0h.01M245.5 272.1h.01M197.4 389.3h.01M287.0 211.1h.01"/>
<path stroke="#1a1a1a" stroke-width="3.86" stroke-linecap="round" fill="none" d="M256.8 281.0h.01M197.5 312.1h.01M137.6 310.1h.01M211.6 199.8h.01M203.9 186.3h.01M248.7 330.8h.01M241.1 369.7h.01M167.2 293.5h.01M114.4 305.6h.01M204.4 309.3h.01M268.6 315.7h.01M201.7 326.5h.01M244.6 195.5h.01M286.7 378.6h.01M276.5 298.0h.01M183.8 189.0h.01M106.1 297.5h.01M165.7 276.0h.01M262.0 294.5h.01M310.1 347.4h.01M202.3 330.5h.01M226.9 365.8h.01M218.1 226.1h.01M247.0 207.0h.01M162.5 287.7h.01M215.6 289.5h.01M261.9 303.3h.01M198.4 265.0h.01M151.4 288.5h.01M204.1 327.7h.01M266.4 273.9h.01M114.2 288.8h.01M228.0 203.0h.01M247.6 201.1h.01M195.4 298.9h.01M257.0 306.4h.01M306.0 359.8h.01M284.9 361.6h.01M241.3 190.2h.01M105.8 301.6h.01M191.5 308.3h.01M227.7 222.3h.01M254.4 318.9h.01M229.1 195.3h.01M224.0 296.5h.01M248.9 324.1h.01M280.4 291.3h.01M206.0 201.8h.01M194.3 302.1h.01M257.5 340.8h.01M223.5 369.3h.01M261.2 327.5h.01M246.4 349.2h.01M217.0 205.3h.01M188.3 187.9h.01M232.3 362.4h.01M266.0 319.4h.01M264.1 317.8h.01M195.9 187.7h.01M255.4 349.3h.01M215.9 293.4h.01M275.4 293.3h.01M190.2 301.6h.01M261.5 349.5h.01M230.2 278.5h.01M170.6 200.6h.01M200.0 377.0h.01M133.6 210.3h.01M186.8 287.2h.01M307.2 197.6h.01M174.1 391.2h.01M183.9 306.0h.01M237.4 350.6h.01M242.8 349.2h.01M262.8 336.5h.01M269.4 330.6h.01M225.7 305.3h.01M207.3 300.1h.01M250.7 362.6h.01M183.5 194.0h.01M305.8 339.4h.01M243.5 342.7h.01M185.5 297.5h.01M266.3 312.1h.01M209.5 294.2h.01M267.7 304.4h.01M257.6 346.6h.01M245.4 335.5h.01M235.5 362.7h.01M263.3 272.3h.01M176.2 298.3h.01M292.9 224.7h.01M204.7 373.4h.01M230.7 356.2h.01M194.3 379.5h.01M212.0 300.7h.01M210.9 303.6h.01M111.5 237.2h.01M279.7 385.4h.01M240.9 207.1h.01M177.0 283.5h.01M233.3 351.8h.01M183.6 293.4h.01M230.9 189.7h.01M183.2 277.5h.01M182.8 289.6h.01M262.8 311.5h.01M286.7 215.6h.01M181.5 204.5h.01M251.5 354.5h.01M294.4 218.2h.01M223.1 350.6h.01M214.9 203.3h.01M170.6 282.4h.01M173.0 210.3h.01M236.1 358.6h.01M145.6 309.8h.01M199.2 306.0h.01M194.2 196.3h.01M111.8 215.7h.01M212.7 223.7h.01M230.4 360.3h.01M257.7 362.5h.01M181.8 286.4h.01M181.2 296.8h.01M244.4 352.8h.01M304.8 272.7h.01M258.2 350.8h.01M191.5 333.5h.01M192.7 193.3h.01M241.9 338.8h.01M234.0 195.5h.01M230.7 208.7h.01M259.5 271.7h.01M253.0 341.0h.01M161.9 283.8h.01M261.9 275.7h.01M248.5 277.5h.01M225.4 299.5h.01M205.2 302.2h.01M223.0 222.6h.01M198.5 300.2h.01M213.5 359.3h.01M247.6 309.7h.01M179.4 207.2h.01M187.5 293.7h.01M209.1 298.7h.01M214.7 364.5h.01M229.9 373.1h.01M263.2 281.5h.01M159.6 288.1h.01M289.6 364.2h.01M182.3 302.5h.01M240.9 202.9h.01M245.0 331.6h.01M293.0 221.7h.01M265.9 300.5h.01M209.8 205.9h.01M252.9 350.4h.01M265.3 296.5h.01M226.7 197.7h.01M226.9 348.7h.01M251.5 203.3h.01M189.5 194.9h.01M110.9 212.5h.01M210.5 307.2h.01M299.5 193.2h.01M199.7 194.3h.01M313.0 202.2h.01M224.7 196.0h.01M233.0 359.0h.01M198.9 329.0h.01M214.8 303.4h.01M245.4 317.7h.01M191.9 273.6h.01M279.3 378.7h.01M173.8 284.4h.01M230.7 217.3h.01M243.9 208.8h.01M198.8 302.9h.01M169.4 285.9h.01M236.4 281.6h.01M197.5 268.3h.01M268.5 309.8h.01M226.3 193.7h.01M193.7 330.9h.01M308.6 190.0h.01M258.5 293.0h.01M243.2 325.2h.01M224.5 203.2h.01M169.3 212.9h.01M276.9 388.5h.01M141.8 282.6h.01M308.4 208.5h.01M228.0 363.0h.01M281.0 338.5h.01M246.7 362.1h.01M193.9 293.9h.01M219.1 362.6h.01M223.8 186.2h.01M282.6 382.4h.01M196.3 193.4h.01M107.9 211.6h.01M304.0 205.4h.01M216.0 188.5h.01M203.0 305.4h.01M228.5 192.0h.01M173.2 196.2h.01M168.8 276.4h.01M290.2 360.3h.01M190.3 314.1h.01M154.4 286.6h.01M217.8 297.5h.01M261.0 342.0h.01M212.0 203.2h.01M234.7 340.5h.01M192.5 288.2h.01M201.9 276.1h.01M197.8 309.0h.01M114.3 296.7h.01M237.4 186.2h.01M228.2 354.0h.01M263.2 285.5h.01M308.8 343.0h.01M218.6 375.6h.01M229.2 304.5h.01M257.0 338.0h.01M227.7 188.5h.01M191.7 204.5h.01M290.7 218.5h.01M188.5 304.9h.01M176.7 294.5h.01M195.9 287.1h.01M298.0 320.2h.01M192.2 304.8h.01M296.2 224.0h.01M189.2 335.8h.01M234.6 366.4h.01M190.6 281.4h.01M116.0 209.4h.01M195.2 307.0h.01M258.2 285.4h.01M97.7 215.6h.01M187.6 283.5h.01M183.7 201.7h.01M150.2 285.5h.01M220.9 205.3h.01M176.1 204.7h.01M278.7 334.9h.01M262.7 340.3h.01M230.6 297.5h.01M231.4 220.9h.01M256.2 321.5h.01M121.4 309.6h.01M186.4 290.1h.01M233.4 182.8h.01M222.2 294.0h.01M225.0 354.0h.01M213.4 310.4h.01M236.5 338.0h.01M181.9 198.8h.01M204.3 369.4h.01M197.9 295.9h.01M228.2 359.7h.01M270.1 327.7h.01M224.1 190.3h.01M188.0 275.1h.01M218.9 293.5h.01M220.5 308.8h.01M211.0 384.3h.01M258.5 289.7h.01M264.4 315.1h.01M245.9 327.4h.01M117.2 309.5h.01M196.7 283.3h.01M117.8 387.5h.01M215.1 207.9h.01M223.7 302.7h.01M213.3 368.2h.01M250.5 347.0h.01M286.6 365.4h.01M259.9 309.5h.01M221.9 201.7h.01M195.5 274.3h.01M234.9 188.7h.01M250.6 319.6h.01M271.9 345.1h.01M290.5 214.5h.01M286.6 223.2h.01M266.3 283.2h.01M220.1 197.1h.01M238.5 189.4h.01M245.6 339.3h.01M139.4 281.0h.01M244.6 199.5h.01M231.0 202.5h.01M222.7 376.0h.01M222.3 354.0h.01M192.4 186.9h.01M225.2 360.8h.01M253.4 316.1h.01M193.3 190.1h.01M265.4 292.8h.01M186.6 191.9h.01M221.0 290.9h.01M213.9 295.4h.01M288.6 374.6h.01M93.0 214.6h.01M280.1 375.6h.01M164.6 280.4h.01M190.7 277.5h.01M241.2 328.5h.01M249.8 206.9h.01M201.4 298.8h.01M229.8 351.4h.01M240.1 284.6h.01M130.2 212.6h.01M137.6 284.2h.01M253.7 283.1h.01M225.4 372.8h.01M235.4 331.9h.01M308.8 204.1h.01M244.1 202.9h.01M260.6 353.6h.01M257.6 316.9h.01M300.2 321.8h.01M237.2 335.1h.01M240.0 343.5h.01M271.0 300.0h.01M291.7 205.6h.01M255.2 287.8h.01M261.3 287.7h.01M225.7 200.8h.01M189.9 290.6h.01M125.3 232.6h.01M242.6 356.2h.01M247.7 197.5h.01M116.1 286.4h.01M200.1 372.6h.01M168.9 197.0h.01M285.8 382.2h.01M265.1 343.2h.01M285.5 372.0h.01M96.1 206.6h.01M233.3 204.1h.01M221.3 192.3h.01M266.0 289.3h.01M305.1 201.1h.01M264.1 327.6h.01M241.4 200.1h.01M214.2 306.6h.01M208.9 198.0h.01M272.5 310.5h.01M118.9 391.6h.01M298.7 226.5h.01M191.8 298.8h.01M186.1 197.1h.01M117.9 212.2h.01M227.7 294.3h.01M304.1 332.1h.01M301.9 225.4h.01M179.6 300.1h.01M227.9 369.4h.01M232.7 337.1h.01M122.6 210.5h.01M205.6 196.6h.01M268.5 338.7h.01M237.1 354.4h.01M195.2 201.3h.01M239.4 347.4h.01M114.3 292.5h.01M250.5 306.8h.01M163.8 291.7h.01M289.9 370.2h.01M212.3 291.3h.01M247.8 366.5h.01M183.8 206.8h.01M227.0 357.0h.01M301.4 230.4h.01M281.9 348.0h.01M229.7 347.8h.01M256.8 275.4h.01M221.3 305.2h.01M197.3 331.5h.01M192.7 283.0h.01M282.8 364.8h.01M246.8 313.7h.01M267.6 345.2h.01M215.2 299.5h.01M202.8 294.6h.01M284.3 368.4h.01M246.4 321.6h.01M225.9 351.1h.01M264.9 348.0h.01M283.0 378.5h.01M144.7 283.8h.01M195.8 271.0h.01M271.3 283.4h.01M262.9 331.8h.01M241.0 209.5h.01M276.9 288.0h.01M125.4 308.4h.01M166.5 283.5h.01M287.3 369.7h.01M215.0 200.0h.01M196.6 183.5h.01M223.9 206.2h.01M193.8 375.7h.01M117.3 279.6h.01M216.6 192.4h.01M260.6 314.6h.01M128.2 307.5h.01M224.1 365.6h.01M180.0 309.4h.01M247.5 204.0h.01M176.4 194.0h.01M206.5 296.7h.01M231.2 198.4h.01M263.2 324.3h.01M255.7 343.3h.01M231.8 193.1h.01M260.5 282.8h.01M271.4 306.3h.01M194.9 333.9h.01M169.4 208.0h.01M252.5 303.0h.01M239.8 354.7h.01M228.4 344.9h.01M147.8 283.6h.01M229.1 299.9h.01M262.4 290.7h.01M259.0 343.5h.01M218.0 223.1h.01M242.8 346.0h.01M177.5 279.6h.01M256.5 331.9h.01M227.2 302.0h.01M232.4 347.2h.01M202.7 201.4h.01M198.4 280.6h.01M120.3 395.3h.01M237.2 213.4h.01M257.4 335.1h.01M159.2 292.4h.01M165.3 286.7h.01M237.6 192.9h.01M287.5 219.6h.01M259.8 278.7h.01M308.1 212.2h.01M284.7 375.2h.01M192.4 183.6h.01M186.2 277.6h.01M172.8 287.7h.01M281.0 295.9h.01M269.4 334.4h.01M218.5 202.8h.01M234.0 214.8h.01M265.6 339.6h.01M239.3 358.5h.01M173.5 306.0h.01M306.5 194.0h.01M266.2 335.5h.01M236.6 343.8h.01M257.0 302.4h.01M282.3 372.8h.01M241.4 334.1h.01M254.2 206.2h.01M182.2 283.0h.01M198.3 261.7h.01M202.5 197.4h.01M179.5 283.5h.01M190.3 285.8h.01M179.6 292.1h.01M309.9 356.5h.01M208.8 202.7h.01M197.1 377.0h.01M256.3 268.7h.01M252.6 322.4h.01M130.4 207.9h.01M206.6 306.9h.01M184.3 378.9h.01M238.2 205.9h.01M92.0 211.3h.01M310.7 199.1h.01M234.7 206.7h.01M121.7 204.4h.01M232.9 186.3h.01M203.9 298.7h.01M189.1 297.3h.01M220.4 356.1h.01M209.7 368.1h.01M170.0 296.0h.01M171.0 274.2h.01M260.3 333.4h.01M255.5 298.2h.01M156.5 289.2h.01M120.0 208.2h.01M234.1 355.5h.01M266.0 286.0h.01M216.2 361.5h.01M185.0 281.0h.01M237.6 209.3h.01M250.5 312.9h.01M280.1 365.6h.01M217.1 309.8h.01M258.4 325.4h.01M194.7 310.3h.01M178.7 202.3h.01M122.4 306.5h.01M229.0 199.8h.01M251.2 327.0h.01M242.3 205.0h.01M182.7 336.1h.01M278.0 314.2h.01M139.6 313.9h.01M272.4 325.1h.01M179.9 191.4h.01M174.4 200.8h.01M266.8 270.6h.01M214.5 197.0h.01M192.3 311.9h.01M241.9 196.6h.01M253.7 309.5h.01M254.4 313.4h.01M240.8 351.6h.01M232.5 343.7h.01M221.0 297.0h.01M201.0 308.8h.01M218.4 301.8h.01M211.0 362.6h.01M231.8 294.4h.01M262.2 321.4h.01M190.1 190.6h.01M230.5 366.0h.01M199.4 273.1h.01M210.7 185.0h.01M231.3 196.2h.01M223.3 198.7h.01M135.6 280.7h.01M188.7 311.1h.01M297.4 219.3h.01M244.3 206.1h.01M178.4 276.6h.01M298.2 222.1h.01M278.3 382.4h.01M218.0 305.5h.01M211.5 375.3h.01M169.9 308.6h.01M227.3 206.2h.01M207.9 303.7h.01M257.0 213.8h.01M205.3 324.5h.01M213.2 191.0h.01M254.8 324.8h.01M242.8 321.4h.01M269.1 268.2h.01M274.5 322.5h.01M194.7 296.2h.01M266.1 276.9h.01M250.1 358.4h.01M260.0 338.0h.01M312.8 207.0h.01M180.0 195.6h.01M302.9 191.3h.01M217.6 379.1h.01M221.5 300.3h.01M224.8 291.9h.01M249.3 316.8h.01M267.4 280.8h.01M224.4 346.4h.01M114.3 213.1h.01M264.3 278.7h.01M198.9 198.5h.01M209.1 310.8h.01M196.2 304.3h.01M218.6 207.4h.01M219.9 199.9h.01M173.2 295.3h.01M259.0 321.5h.01M110.5 292.6h.01M172.5 205.1h.01M255.7 354.2h.01M155.7 311.3h.01M224.1 356.9h.01M110.5 219.4h.01M227.0 297.0h.01M263.6 307.1h.01M237.6 203.1h.01M211.6 297.5h.01M117.3 380.8h.01M114.6 196.7h.01M238.7 330.9h.01M219.9 352.4h.01M273.9 302.2h.01M232.1 200.7h.01M258.5 296.3h.01M177.9 287.7h.01M255.1 328.5h.01M175.5 290.7h.01M194.3 277.7h.01M219.3 190.1h.01M168.0 289.5h.01M238.8 365.6h.01M198.5 277.5h.01M300.4 325.9h.01M222.7 194.5h.01M181.3 279.9h.01M171.6 291.6h.01M216.9 367.0h.01M228.4 341.8h.01M179.0 306.1h.01M186.1 301.5h.01M260.8 318.1h.01M263.3 268.2h.01M194.5 280.8h.01M301.4 222.0h.01M191.1 294.4h.01M177.3 198.5h.01M232.6 280.7h.01M199.7 297.2h.01M235.4 347.8h.01M305.1 346.0h.01M168.4 280.1h.01M278.1 303.0h.01M187.6 206.4h.01M210.1 209.0h.01M231.2 290.6h.01M275.3 306.8h.01M239.2 196.2h.01M134.5 308.8h.01M187.5 308.1h.01M235.0 201.5h.01M230.3 205.2h.01M212.9 206.7h.01M302.1 197.1h.01M118.2 196.9h.01M242.8 192.6h.01M237.6 199.8h.01M184.9 284.7h.01M199.5 187.0h.01M176.0 208.6h.01M294.2 214.6h.01M239.0 361.9h.01M174.4 280.9h.01M217.5 199.5h.01M236.3 196.6h.01M291.6 367.1h.01M307.3 350.3h.01M270.2 296.4h.01M165.8 310.2h.01M239.1 339.2h.01M110.5 296.5h.01M261.2 299.2h.01M200.9 183.3h.01M234.0 198.7h.01M194.3 285.1h.01M102.9 211.5h.01M257.4 312.2h.01M207.3 183.9h.01M186.8 203.4h.01M229.0 184.8h.01M201.9 302.2h.01M188.1 280.1h.01M172.3 278.6h.01M209.9 319.7h.01"/>
</svg>