<svg xmlns="http://www.w3.org/2000/svg" viewBox="0 0 360 432" role="img">
<path stroke="#1a1a1a" stroke-width="1.69" stroke-linecap="round" fill="none" d="M339.4 335.8h.01M228.6 138.5h.01M247.5 93.7h.01M291.4 252.5h.01M265.6 140.6h.01M82.3 228.3h.01M228.9 130.3h.01M239.3 269.0h.01M89.7 224.3h.01M227.1 104.5h.01M134.2 430.6h.01M206.7 222.4h.01M255.6 140.3h.01M248.6 158.3h.01M243.2 218.0h.01M293.8 131.8h.01M354.4 290.4h.01M257.5 229.0h.01M0.4 278.3h.01M234.1 109.3h.01M358.6 261.2h.01M258.2 114.1h.01M88.4 209.1h.01M246.9 166.9h.01M274.1 163.8h.01M238.9 242.3h.01M237.7 224.9h.01M290.4 170.5h.01M251.6 233.1h.01M229.6 231.0h.01M268.8 117.2h.01M214.6 231.0h.01M281.4 126.7h.01M0.4 115.0h.01M235.5 217.5h.01M239.6 93.7h.01M229.4 223.7h.01M259.7 147.5h.01M347.3 324.2h.01M274.5 134.4h.01M278.1 118.9h.01M233.9 158.8h.01M247.6 134.6h.01M109.1 251.7h.01M248.8 110.3h.01M269.4 102.2h.01M282.3 210.2h.01M351.6 309.0h.01M255.1 165.1h.01M280.9 203.9h.01M264.5 153.4h.01M252.1 217.8h.01M27.2 360.7h.01M230.3 240.5h.01M225.5 111.9h.01M224.6 430.6h.01M240.5 115.8h.01M264.9 167.7h.01M18.5 345.2h.01M83.0 220.8h.01M237.2 144.2h.01M265.1 109.2h.01M246.1 239.6h.01M255.6 129.8h.01M284.2 175.0h.01M297.5 163.8h.01M265.7 160.6h.01M243.6 86.3h.01M245.2 125.9h.01M237.7 134.6h.01M269.9 147.6h.01M83.4 214.1h.01M289.2 162.7h.01M237.2 234.3h.01M213.9 224.2h.01M284.2 135.0h.01M233.8 151.8h.01M288.8 153.9h.01M107.5 258.7h.01M39.9 325.3h.01M247.2 272.1h.01M222.0 227.4h.01M297.8 155.4h.01M251.5 327.0h.01M255.3 96.7h.01M100.0 188.5h.01M295.4 147.3h.01M234.0 99.4h.01M264.9 132.4h.01M223.5 89.7h.01M227.8 216.2h.01M249.2 224.9h.01M271.7 125.7h.01M243.8 328.4h.01M251.7 149.9h.01M213.3 217.1h.01M273.6 287.6h.01M279.2 151.3h.01M231.4 89.5h.01M276.8 142.5h.01M343.8 299.6h.01M199.7 225.7h.01M123.3 231.3h.01M251.5 119.8h.01M222.1 236.3h.01M358.6 108.4h.01M91.6 231.2h.01M257.8 221.8h.01M246.0 143.4h.01M233.8 247.9h.01M244.0 231.0h.01M241.1 104.0h.01M236.2 125.5h.01M221.0 220.2h.01M246.5 263.9h.01M228.7 146.2h.01M281.5 159.6h.01M226.3 96.6h.01M179.0 430.6h.01M273.7 109.8h.01M248.5 101.3h.01M257.2 156.9h.01M338.7 318.3h.01M258.0 104.7h.01M289.8 124.6h.01M116.0 223.3h.01M287.6 224.6h.01M262.2 123.1h.01M285.5 145.7h.01M280.4 168.8h.01M242.1 152.0h.01"/>
<path stroke="#1a1a1a" stroke-width="2.01" stroke-linecap="round" fill="none" d="M212.1 154.8h.01M198.1 117.3h.01M116.1 230.6h.01M0.4 236.2h.01M206.8 128.9h.01M221.1 118.6h.01M288.9 216.2h.01M224.3 270.6h.01M214.5 129.9h.01M216.8 271.9h.01M298.9 226.5h.01M296.3 116.9h.01M221.0 326.5h.01M195.1 111.1h.01M195.9 208.7h.01M270.2 213.2h.01M239.8 210.4h.01M229.5 79.4h.01M254.8 286.8h.01M298.5 139.4h.01M300.1 234.0h.01M288.5 100.8h.01M242.9 249.2h.01M197.4 272.7h.01M282.8 181.9h.01M189.6 98.5h.01M240.0 288.2h.01M218.2 296.1h.01M235.1 174.5h.01M270.6 276.4h.01M273.8 95.7h.01M252.6 320.7h.01M255.7 304.7h.01M15.0 337.0h.01M285.1 197.8h.01M226.0 326.9h.01M279.7 313.0h.01M193.5 103.1h.01M298.3 173.1h.01M243.1 316.1h.01M301.6 215.2h.01M203.2 244.4h.01M272.8 155.9h.01M81.6 198.1h.01M283.1 95.0h.01M286.6 245.4h.01M290.5 139.7h.01M192.9 228.8h.01M230.2 119.0h.01M285.7 278.3h.01M235.9 255.2h.01M228.8 316.3h.01M257.9 89.5h.01M269.4 219.4h.01M254.3 239.2h.01M271.3 309.1h.01M206.3 168.9h.01M106.9 208.2h.01M258.8 329.8h.01M216.5 284.0h.01M216.5 328.9h.01M193.5 217.5h.01M281.0 111.5h.01M201.8 123.5h.01M279.6 235.2h.01M188.9 108.0h.01M247.5 288.2h.01M222.7 314.7h.01M240.7 160.8h.01M262.0 76.6h.01M264.1 334.1h.01M204.2 76.1h.01M288.1 272.7h.01M204.9 237.6h.01M204.1 156.9h.01M221.0 134.0h.01M198.8 213.6h.01M214.2 116.2h.01M224.5 166.9h.01M205.4 105.3h.01M108.7 190.3h.01M258.6 310.7h.01M293.2 223.1h.01M217.2 322.2h.01M244.4 72.2h.01M182.4 96.8h.01M306.9 160.0h.01M199.7 132.3h.01M227.2 308.7h.01M197.4 96.2h.01M223.7 83.0h.01M187.4 92.1h.01M243.2 78.9h.01M191.9 222.7h.01M201.8 150.9h.01M294.3 246.5h.01M209.5 85.9h.01M231.3 280.7h.01M197.6 139.1h.01M219.5 70.6h.01M305.2 151.9h.01M276.1 198.4h.01M260.4 240.2h.01M224.7 295.8h.01M265.3 224.4h.01M220.5 161.1h.01M285.3 252.8h.01M302.7 133.2h.01M358.6 143.8h.01M183.8 111.3h.01M293.3 229.6h.01M185.9 84.6h.01M202.7 112.4h.01M220.6 46.4h.01M190.6 86.4h.01M218.2 94.9h.01M255.4 335.5h.01M189.0 208.1h.01M67.4 208.4h.01M230.5 330.1h.01M358.6 233.2h.01M227.4 263.0h.01M132.5 0.4h.01M262.6 84.8h.01M177.6 100.9h.01M213.3 249.8h.01M122.5 225.4h.01M265.1 279.8h.01M271.6 78.6h.01M199.2 106.6h.01M207.5 150.2h.01M85.7 240.9h.01M274.6 84.0h.01M238.8 168.9h.01M222.5 0.4h.01M0.4 156.9h.01M198.3 237.2h.01M276.3 213.2h.01M239.5 261.4h.01M270.6 331.6h.01M249.2 245.8h.01M266.7 74.1h.01M250.7 338.1h.01M34.1 330.1h.01M225.6 175.7h.01M221.3 250.9h.01M246.3 310.1h.01M220.0 302.5h.01M265.7 285.4h.01M234.4 298.6h.01M110.8 245.3h.01M243.7 173.8h.01M211.4 178.1h.01M206.9 118.4h.01M298.9 241.4h.01M219.7 141.2h.01M216.3 86.0h.01M108.7 198.3h.01M118.2 216.8h.01M271.4 171.5h.01M358.6 175.1h.01M292.8 258.3h.01M61.5 221.4h.01M124.6 241.3h.01M193.3 92.4h.01M306.3 348.5h.01M90.4 216.9h.01M209.6 210.9h.01M202.9 165.1h.01M280.0 191.6h.01M249.8 332.6h.01M211.1 72.7h.01M264.5 309.2h.01M256.3 80.6h.01M64.0 202.3h.01M227.2 301.9h.01M249.7 78.8h.01M282.2 216.9h.01M266.0 327.0h.01M298.3 253.0h.01M246.5 321.9h.01M322.6 369.1h.01M105.2 247.0h.01M230.0 295.0h.01M287.2 116.9h.01M218.9 154.3h.01M278.7 89.2h.01M290.8 240.5h.01M120.5 236.5h.01M277.2 306.8h.01M38.0 371.9h.01M212.2 79.3h.01M225.6 278.1h.01M301.9 247.4h.01M241.9 304.8h.01M257.5 345.8h.01M254.8 273.6h.01M216.4 176.3h.01M207.7 271.2h.01M232.9 311.9h.01M115.6 260.4h.01M205.4 97.6h.01M219.5 102.4h.01M233.0 165.7h.01M281.7 229.6h.01M273.0 281.5h.01M269.1 89.3h.01M235.6 326.3h.01M254.8 199.3h.01M209.6 243.6h.01M223.7 321.0h.01M303.7 167.5h.01M293.2 275.5h.01M217.7 243.3h.01M209.0 142.8h.01M263.3 216.1h.01M214.7 160.9h.01M267.3 81.5h.01M219.7 290.1h.01M219.2 277.9h.01M249.4 374.6h.01M249.0 304.2h.01M212.6 136.7h.01M230.3 322.5h.01M204.6 136.7h.01M80.7 249.8h.01M258.2 322.9h.01M65.1 189.6h.01M184.8 103.3h.01M228.6 254.1h.01M263.7 96.0h.01M244.2 282.6h.01M261.9 274.3h.01M67.4 196.9h.01M200.9 90.5h.01M232.7 288.7h.01M113.3 364.8h.01M206.1 91.3h.01M295.5 217.7h.01M247.7 200.6h.01M235.4 318.3h.01M190.5 127.9h.01M238.7 331.9h.01M102.8 193.6h.01M193.4 81.7h.01M196.7 87.2h.01M284.2 238.9h.01M240.3 322.1h.01M287.1 300.8h.01M198.6 231.9h.01M212.7 123.5h.01M237.0 282.7h.01M214.2 147.4h.01M275.7 219.5h.01M217.8 109.3h.01M211.8 277.3h.01M263.1 199.8h.01M212.0 93.5h.01M192.9 121.5h.01M259.1 205.2h.01M300.4 259.1h.01M265.5 230.2h.01M243.0 255.7h.01M287.4 233.9h.01M225.2 245.7h.01M210.8 165.9h.01M234.8 304.8h.01M279.5 281.3h.01M199.2 219.6h.01M213.3 302.6h.01M200.1 100.8h.01M256.5 73.1h.01M239.0 311.0h.01M217.3 316.5h.01M217.1 167.9h.01M206.8 263.6h.01M249.8 280.1h.01M236.9 75.9h.01M196.7 127.7h.01M320.1 373.5h.01M118.8 242.1h.01M212.6 237.3h.01M279.2 102.6h.01M257.8 281.0h.01M302.7 221.7h.01M293.4 109.2h.01M236.3 83.6h.01M277.2 319.2h.01M226.2 154.1h.01M247.8 212.2h.01M256.0 374.0h.01M281.1 302.5h.01M109.8 265.7h.01M204.7 83.1h.01M260.8 234.9h.01M202.8 208.8h.01M272.7 206.7h.01M211.4 289.0h.01M304.4 229.4h.01M294.4 236.1h.01M275.0 325.2h.01M226.3 72.5h.01M358.6 205.0h.01M187.6 217.4h.01M0.4 196.5h.01M239.9 276.2h.01M250.6 71.7h.01M257.3 212.6h.01M251.1 173.3h.01M101.6 242.9h.01M250.4 65.7h.01M221.4 172.3h.01M84.3 80.4h.01M110.3 212.5h.01M219.4 308.7h.01M252.5 206.6h.01M197.6 242.6h.01M231.8 271.9h.01M88.6 200.5h.01M86.3 256.5h.01M304.2 238.4h.01M102.0 253.2h.01M219.5 77.1h.01M214.6 43.6h.01M276.9 177.2h.01M251.1 86.2h.01M291.2 281.0h.01M269.0 201.4h.01M115.6 248.1h.01M208.2 161.0h.01M89.2 0.4h.01M83.9 253.0h.01M207.9 282.8h.01M33.9 367.3h.01M209.9 110.3h.01M205.3 215.5h.01M264.9 208.1h.01M304.0 143.9h.01M222.1 125.6h.01M177.0 0.4h.01M227.0 160.9h.01M181.6 89.9h.01M261.5 245.7h.01M82.0 204.6h.01M225.7 286.6h.01M23.9 354.3h.01M221.4 147.9h.01M212.0 101.9h.01M179.6 106.8h.01M258.5 171.3h.01M84.7 234.5h.01M202.0 144.2h.01M191.9 212.5h.01M241.9 374.4h.01M299.5 124.6h.01M244.5 65.5h.01M233.5 263.4h.01M286.7 107.8h.01M281.3 223.0h.01M212.1 296.0h.01M268.6 0.4h.01M290.1 286.6h.01M196.9 75.9h.01M288.2 292.0h.01M230.1 171.2h.01M206.5 230.6h.01"/>
<path stroke="#1a1a1a" stroke-width="2.52" stroke-linecap="round" fill="none" d="M166.9 147.4h.01M154.0 166.5h.01M98.6 248.3h.01M192.7 287.5h.01M197.0 291.9h.01M80.7 239.6h.01M145.3 161.2h.01M125.9 247.7h.01M250.2 346.7h.01M265.4 255.7h.01M294.0 177.5h.01M148.8 118.1h.01M135.8 369.7h.01M154.7 204.7h.01M181.3 139.1h.01M133.9 347.8h.01M174.5 204.5h.01M230.6 177.4h.01M119.6 324.2h.01M236.9 59.5h.01M152.6 209.7h.01M185.7 277.9h.01M151.0 128.7h.01M266.6 248.5h.01M230.1 204.1h.01M115.7 211.4h.01M128.8 347.7h.01M153.6 97.4h.01M189.4 295.1h.01M232.2 59.6h.01M240.7 62.2h.01M188.0 65.9h.01M174.6 178.9h.01M141.9 360.1h.01M187.6 132.5h.01M168.5 89.4h.01M62.2 299.1h.01M175.0 289.9h.01M151.5 139.3h.01M184.8 223.1h.01M190.5 141.4h.01M195.6 323.1h.01M175.2 128.5h.01M166.1 70.9h.01M139.8 129.5h.01M155.6 130.0h.01M68.4 218.3h.01M300.8 209.2h.01M270.7 194.9h.01M162.8 110.5h.01M165.4 99.3h.01M144.3 121.6h.01M198.8 69.8h.01M126.5 358.1h.01M199.1 197.3h.01M161.4 104.5h.01M128.6 251.4h.01M257.7 250.7h.01M284.6 257.9h.01M148.7 123.7h.01M184.0 147.8h.01M180.9 75.1h.01M191.5 176.6h.01M207.7 323.5h.01M207.2 181.8h.01M166.4 115.4h.01M180.8 267.1h.01M94.9 205.9h.01M220.2 265.1h.01M239.7 205.3h.01M235.2 65.3h.01M166.9 83.0h.01M191.3 274.7h.01M76.6 224.7h.01M162.4 285.9h.01M177.6 168.2h.01M121.6 220.5h.01M198.0 261.2h.01M192.3 70.4h.01M176.0 71.9h.01M137.6 154.3h.01M157.0 158.0h.01M235.1 203.6h.01M93.6 68.6h.01M150.4 165.5h.01M194.3 300.2h.01M175.9 140.6h.01M199.5 82.0h.01M170.2 288.0h.01M212.3 171.4h.01M170.6 138.9h.01M179.7 231.9h.01M169.1 219.2h.01M126.1 136.5h.01M170.7 270.7h.01M189.6 322.9h.01M145.0 156.9h.01M120.1 264.9h.01M98.3 265.9h.01M220.7 339.0h.01M162.0 79.9h.01M211.5 319.3h.01M168.4 110.4h.01M120.4 333.9h.01M142.3 354.9h.01M164.2 120.5h.01M289.5 202.4h.01M189.4 115.4h.01M139.9 365.1h.01M184.3 204.4h.01M203.9 202.9h.01M182.7 218.7h.01M152.4 215.5h.01M117.7 337.1h.01M264.2 192.9h.01M281.5 289.2h.01M244.3 57.2h.01M173.5 283.3h.01M157.3 85.3h.01M183.8 135.6h.01M271.0 252.1h.01M95.4 181.2h.01M185.3 58.9h.01M190.6 76.4h.01M166.8 215.0h.01M187.3 138.2h.01M180.1 179.0h.01M184.2 283.7h.01M279.8 253.3h.01M169.4 126.5h.01M190.4 60.0h.01M197.4 176.6h.01M158.3 136.7h.01M262.2 251.8h.01M65.9 242.4h.01M184.5 212.0h.01M143.3 134.2h.01M221.1 213.2h.01M206.6 300.3h.01M237.9 51.7h.01M207.3 174.2h.01M182.5 170.4h.01M34.9 361.3h.01M58.6 207.2h.01M158.6 153.6h.01M149.9 367.2h.01M203.6 177.8h.01M157.5 211.8h.01M205.6 250.7h.01M124.5 96.9h.01M212.5 267.3h.01M153.4 155.9h.01M263.7 321.3h.01M175.2 227.8h.01M92.0 239.7h.01M75.4 279.6h.01M159.6 98.8h.01M232.6 71.3h.01M153.1 371.4h.01M133.4 353.1h.01M25.6 349.0h.01M191.8 318.2h.01M153.4 134.4h.01M215.1 182.2h.01M187.2 168.3h.01M256.5 66.4h.01M294.0 269.2h.01M165.9 273.8h.01M137.7 344.6h.01M274.5 347.0h.01M280.4 242.4h.01M143.4 206.2h.01M77.5 84.8h.01M192.3 251.1h.01M190.3 328.3h.01M249.5 315.6h.01M269.8 320.9h.01M75.0 190.6h.01M131.0 246.2h.01M171.4 101.0h.01M104.2 204.5h.01M210.9 307.9h.01M73.2 197.2h.01M158.4 168.0h.01M286.4 187.0h.01M153.0 109.6h.01M146.7 87.5h.01M156.6 141.3h.01M239.1 69.4h.01M186.4 239.8h.01M162.6 141.9h.01M120.5 104.4h.01M203.6 288.8h.01M147.0 217.1h.01M156.6 91.5h.01M180.4 226.9h.01M31.2 336.2h.01M165.0 130.3h.01M289.3 180.5h.01M215.7 210.5h.01M150.6 92.0h.01M185.0 127.5h.01M147.5 107.8h.01M71.5 296.3h.01M182.0 132.0h.01M162.4 93.4h.01M199.8 62.9h.01M169.9 130.7h.01M271.5 224.8h.01M222.5 258.4h.01M273.5 235.0h.01M237.3 294.2h.01M311.2 167.5h.01M70.7 202.5h.01M54.0 150.9h.01M215.9 54.6h.01M112.6 216.5h.01M200.0 180.8h.01M195.2 57.2h.01M195.3 172.7h.01M276.8 225.1h.01M189.9 234.0h.01M173.5 107.1h.01M275.9 230.2h.01M157.2 163.2h.01M182.5 164.7h.01M185.7 289.9h.01M168.3 142.7h.01M241.3 200.7h.01M192.1 165.5h.01M130.4 240.4h.01M211.9 337.2h.01M166.7 153.3h.01M241.4 297.5h.01M248.1 60.1h.01M167.2 163.0h.01M179.7 123.0h.01M157.1 149.4h.01M185.6 78.7h.01M149.5 161.5h.01M312.7 187.7h.01M172.1 214.5h.01M168.7 122.5h.01M196.5 166.0h.01M133.9 149.1h.01M215.6 66.8h.01M140.5 158.2h.01M192.7 332.7h.01M192.9 135.2h.01M172.5 164.3h.01M295.1 205.5h.01M244.3 340.3h.01M178.8 147.7h.01M205.9 61.4h.01M227.1 47.6h.01M157.0 80.0h.01M180.4 83.1h.01M210.1 65.4h.01M213.9 193.7h.01M70.0 191.5h.01M187.5 227.2h.01M284.8 296.2h.01M43.7 373.6h.01M163.3 212.0h.01M210.8 257.0h.01M188.0 302.8h.01M274.2 189.1h.01M175.6 94.6h.01M192.3 307.5h.01M266.3 240.6h.01M161.4 73.4h.01M168.6 294.2h.01M102.3 198.4h.01M166.9 105.5h.01M97.1 241.1h.01M177.5 112.5h.01M166.9 158.1h.01M110.5 221.4h.01M97.6 255.2h.01M196.8 279.8h.01M77.8 246.5h.01M307.3 172.9h.01M149.3 147.7h.01M186.4 122.0h.01M188.8 156.6h.01M202.3 172.7h.01M189.3 147.1h.01M268.9 346.1h.01M234.1 340.0h.01M176.6 118.3h.01M127.4 45.7h.01M194.9 144.4h.01M96.1 260.4h.01M289.7 208.6h.01M200.6 296.5h.01M158.7 127.0h.01M174.2 218.7h.01M113.0 270.3h.01M138.7 350.7h.01M123.5 346.3h.01M90.8 244.1h.01M146.6 72.4h.01M270.9 230.2h.01M201.1 184.6h.01M162.1 156.4h.01M119.9 330.1h.01M154.5 116.1h.01M135.3 166.1h.01M177.8 134.4h.01M174.0 123.4h.01M173.1 145.7h.01M113.5 200.4h.01M72.2 239.6h.01M192.4 266.3h.01M184.6 354.0h.01M198.3 254.5h.01M169.5 94.9h.01M156.4 75.2h.01M164.9 304.9h.01M171.4 77.7h.01M152.0 85.6h.01M182.6 158.6h.01M271.4 257.0h.01M186.1 72.0h.01M192.4 238.6h.01M196.9 149.1h.01M245.8 206.4h.01M157.8 109.6h.01M216.7 255.7h.01M128.5 363.0h.01M189.2 312.8h.01M169.9 310.3h.01M131.6 342.1h.01M285.2 284.4h.01M146.4 362.7h.01M220.5 63.1h.01M153.3 161.0h.01M153.4 122.9h.01M208.6 329.2h.01M171.6 169.5h.01M191.4 170.9h.01M172.8 133.3h.01M199.2 169.8h.01M162.5 165.2h.01M149.3 157.8h.01M154.7 221.3h.01M201.1 267.7h.01M193.4 159.5h.01M178.8 216.6h.01M101.4 259.4h.01M155.3 103.5h.01M170.8 118.5h.01M140.8 140.2h.01M260.4 343.2h.01M190.5 282.5h.01M131.9 358.4h.01M149.3 143.4h.01M161.4 160.8h.01M233.0 209.9h.01M212.4 325.3h.01M165.9 289.1h.01M59.9 214.0h.01M180.6 152.4h.01M272.6 302.3h.01M206.0 311.5h.01M164.3 138.1h.01M176.5 78.9h.01M185.5 152.8h.01M178.2 222.4h.01M54.9 146.6h.01M137.3 144.3h.01M67.9 224.6h.01M279.1 298.0h.01M113.5 206.4h.01M160.8 132.5h.01M224.5 66.2h.01M143.7 368.8h.01M209.6 197.4h.01M198.9 204.7h.01M198.0 248.6h.01M194.3 64.5h.01M172.5 113.6h.01M148.5 153.2h.01M160.3 145.5h.01M179.0 143.5h.01M186.0 318.5h.01M237.1 369.8h.01M227.9 371.9h.01M123.3 337.4h.01M323.2 363.6h.01M282.1 248.2h.01M80.4 177.6h.01M252.3 310.5h.01M152.0 79.8h.01M252.6 298.5h.01M199.3 161.0h.01M33.8 355.5h.01M264.2 345.8h.01M195.8 313.8h.01M40.4 364.8h.01M204.6 68.4h.01M169.1 302.2h.01M153.0 151.1h.01M143.6 145.2h.01M118.8 345.3h.01M204.7 305.9h.01M163.9 125.8h.01M24.6 342.7h.01M200.5 284.2h.01M158.7 217.2h.01M125.7 342.4h.01M156.2 37.4h.01M182.6 117.3h.01M175.7 273.5h.01M187.6 162.4h.01M162.3 150.5h.01M127.9 353.3h.01M258.3 298.7h.01M115.5 254.6h.01M132.1 143.7h.01M319.3 367.6h.01M176.1 301.3h.01M323.5 357.2h.01M166.6 281.9h.01M203.3 198.3h.01M184.4 143.0h.01M103.3 265.3h.01M166.7 134.8h.01M192.3 244.6h.01M261.9 302.4h.01M174.7 210.1h.01M148.4 113.2h.01M261.6 69.4h.01M170.8 277.8h.01M185.0 231.1h.01M191.8 151.9h.01M126.0 331.6h.01M295.6 264.3h.01M229.6 65.1h.01M267.0 302.3h.01M204.0 257.4h.01M316.3 372.7h.01M312.9 374.7h.01M118.3 182.1h.01M131.2 136.7h.01M253.1 61.7h.01M212.6 313.2h.01M191.1 258.0h.01M174.2 136.8h.01M134.9 363.2h.01M171.2 152.1h.01M258.8 195.5h.01M284.1 307.7h.01M172.9 84.4h.01M70.9 99.3h.01M214.7 261.9h.01M140.3 167.0h.01M196.0 200.4h.01M154.3 145.7h.01M220.9 179.1h.01M158.7 121.6h.01M179.5 287.0h.01M175.9 88.6h.01M203.5 276.6h.01M162.3 87.2h.01M129.8 189.6h.01M226.6 209.8h.01M141.7 153.2h.01M197.1 155.4h.01M225.4 189.9h.01M175.3 151.3h.01M277.4 183.8h.01M145.0 150.2h.01M179.7 206.7h.01M179.8 128.2h.01M120.3 341.2h.01M160.4 115.7h.01M122.8 327.0h.01M206.2 293.9h.01M255.6 245.3h.01M253.3 343.2h.01M178.8 212.2h.01M137.2 357.2h.01M201.4 56.9h.01M78.4 208.8h.01"/>
<path stroke="#1a1a1a" stroke-width="2.95" stroke-linecap="round" fill="none" d="M165.1 43.1h.01M70.3 230.6h.01M220.6 58.1h.01M185.4 47.1h.01M207.6 189.9h.01M206.4 317.3h.01M158.4 247.8h.01M163.9 188.8h.01M161.2 277.1h.01M129.4 109.7h.01M143.0 116.3h.01M156.3 292.8h.01M155.3 192.5h.01M126.1 192.0h.01M138.3 102.5h.01M311.2 371.4h.01M181.1 304.0h.01M40.4 358.2h.01M107.0 181.7h.01M44.6 368.4h.01M181.1 247.9h.01M150.5 179.2h.01M180.8 68.3h.01M151.7 278.6h.01M128.7 71.7h.01M224.9 203.4h.01M220.9 332.5h.01M181.2 351.0h.01M172.5 65.3h.01M128.8 53.0h.01M116.9 153.3h.01M177.2 63.9h.01M198.2 52.5h.01M137.8 174.6h.01M115.5 177.6h.01M111.4 106.6h.01M156.3 281.2h.01M102.3 119.9h.01M229.7 55.6h.01M206.2 194.3h.01M116.0 109.6h.01M197.7 192.2h.01M123.7 83.5h.01M120.1 79.7h.01M194.3 356.4h.01M84.8 177.4h.01M275.5 249.4h.01M130.9 373.7h.01M178.3 53.9h.01M136.5 256.4h.01M206.5 199.3h.01M193.6 193.8h.01M115.6 341.0h.01M130.6 89.6h.01M148.7 268.4h.01M145.9 139.8h.01M121.7 75.0h.01M177.0 156.5h.01M126.0 106.0h.01M153.8 55.9h.01M186.9 333.9h.01M143.2 111.0h.01M49.4 367.6h.01M147.7 63.1h.01M257.2 176.7h.01M115.4 349.5h.01M91.7 249.0h.01M114.0 86.2h.01M190.6 336.1h.01M138.0 43.0h.01M127.0 145.7h.01M172.5 223.1h.01M175.4 295.5h.01M219.9 201.9h.01M188.9 193.1h.01M144.2 349.6h.01M253.8 266.0h.01M169.7 209.5h.01M85.5 192.6h.01M181.5 273.7h.01M221.0 190.9h.01M96.1 235.8h.01M168.9 235.8h.01M74.0 181.2h.01M107.3 218.2h.01M179.7 194.9h.01M311.0 367.5h.01M127.6 168.7h.01M164.9 182.3h.01M173.5 239.6h.01M183.2 298.6h.01M76.9 235.3h.01M110.5 167.0h.01M158.5 54.0h.01M216.5 47.2h.01M150.8 225.3h.01M124.4 129.0h.01M164.6 299.6h.01M319.9 354.2h.01M161.0 253.0h.01M140.2 48.4h.01M179.3 309.0h.01M165.2 206.3h.01M115.5 81.2h.01M124.2 172.8h.01M212.5 201.6h.01M199.8 332.4h.01M98.9 112.3h.01M141.9 162.9h.01M143.7 104.1h.01M179.6 58.9h.01M202.0 194.7h.01M210.0 52.5h.01M177.4 162.4h.01M118.5 142.5h.01M146.5 165.1h.01M122.3 109.5h.01M89.1 252.0h.01M169.7 190.5h.01M147.5 82.0h.01M125.5 373.9h.01M193.6 203.9h.01M129.7 161.9h.01M133.2 192.0h.01M137.7 64.9h.01M133.6 183.4h.01M118.2 364.9h.01M184.6 188.4h.01M132.5 99.7h.01M164.2 174.0h.01M163.1 246.2h.01M166.5 66.0h.01M164.7 227.4h.01M131.5 165.8h.01M226.2 59.5h.01M115.9 325.5h.01M135.2 105.4h.01M68.8 184.0h.01M224.9 334.0h.01M175.2 191.8h.01M123.4 150.2h.01M114.3 164.3h.01M121.8 133.7h.01M199.9 325.9h.01M76.4 202.0h.01M155.7 275.4h.01M183.7 369.2h.01M49.1 373.2h.01M150.1 169.4h.01M142.9 65.3h.01M178.5 279.9h.01M100.4 182.5h.01M142.7 79.5h.01M194.8 181.7h.01M130.1 58.2h.01M109.5 363.0h.01M206.8 47.4h.01M261.0 290.3h.01M184.5 54.1h.01M173.7 185.7h.01M223.2 49.1h.01M157.2 199.5h.01M152.4 246.0h.01M204.3 42.8h.01M74.7 218.1h.01M268.9 314.3h.01M171.1 70.9h.01M130.9 104.3h.01M157.8 259.0h.01M156.7 69.5h.01M160.8 290.3h.01M188.8 354.5h.01M303.6 350.5h.01M189.8 46.9h.01M155.1 171.0h.01M195.6 196.8h.01M132.9 171.0h.01M267.6 235.5h.01M87.6 260.2h.01M242.9 293.1h.01M38.0 351.2h.01M206.4 55.6h.01M138.5 80.5h.01M185.7 174.3h.01M157.0 179.9h.01M124.2 188.7h.01M159.4 297.6h.01M137.3 170.1h.01M118.5 114.6h.01M267.4 260.4h.01M216.3 334.0h.01M87.8 246.8h.01M204.0 327.1h.01M240.0 194.6h.01M160.4 203.3h.01M149.9 103.2h.01M160.6 282.0h.01M142.7 75.2h.01M122.5 361.1h.01M116.6 137.3h.01M142.8 83.9h.01M201.3 314.1h.01M213.6 197.7h.01M219.2 194.7h.01M146.7 264.6h.01M94.4 251.8h.01M167.2 168.4h.01M315.7 177.6h.01M168.1 61.2h.01M136.0 89.0h.01M146.6 68.3h.01M151.8 66.2h.01M249.7 255.4h.01M131.2 65.6h.01M125.1 123.7h.01M167.7 255.9h.01M155.5 227.6h.01M199.7 188.8h.01M180.8 293.7h.01M252.1 178.9h.01M183.5 313.2h.01M161.8 178.2h.01M199.2 319.0h.01M141.7 257.7h.01M130.6 367.8h.01M164.0 308.9h.01M128.5 194.4h.01M203.2 191.1h.01M179.4 184.1h.01M98.2 227.2h.01M174.2 50.9h.01M77.5 195.1h.01M152.6 288.1h.01M210.1 185.0h.01M118.8 163.2h.01M139.9 108.3h.01M158.8 174.5h.01M300.4 197.7h.01M153.8 51.0h.01M185.3 198.2h.01M185.3 308.1h.01M134.0 251.7h.01M145.8 191.2h.01M225.4 347.5h.01M174.7 306.6h.01M115.9 353.9h.01M278.0 246.2h.01M167.8 186.1h.01M186.5 245.4h.01M154.1 176.3h.01M246.0 370.8h.01M119.2 93.9h.01M155.4 186.9h.01M119.6 120.8h.01M129.3 95.7h.01M178.3 47.0h.01M123.6 154.8h.01M196.5 329.7h.01M128.5 81.4h.01M157.9 59.0h.01M112.0 173.4h.01M152.9 183.6h.01M167.0 37.3h.01M110.8 79.5h.01M152.9 257.6h.01M185.6 183.9h.01M119.8 157.7h.01M132.5 259.7h.01M33.3 349.7h.01M135.4 120.6h.01M172.4 194.9h.01M200.0 302.5h.01M160.1 191.6h.01M269.8 178.2h.01M118.5 148.3h.01M123.9 350.6h.01M314.9 183.2h.01M131.0 180.6h.01M192.8 189.8h.01M186.5 251.9h.01M160.2 224.9h.01M129.7 115.8h.01M180.3 200.5h.01M226.9 52.1h.01M31.3 345.0h.01M101.8 165.4h.01M154.5 252.1h.01M166.6 250.9h.01M152.6 60.9h.01M166.7 223.1h.01M163.0 258.8h.01M117.2 131.5h.01M169.4 50.0h.01M123.8 53.5h.01M207.0 205.8h.01M111.7 134.8h.01M173.9 312.0h.01M123.7 118.3h.01M66.8 233.9h.01M189.0 202.6h.01M162.3 170.0h.01M216.1 190.6h.01M95.2 245.3h.01M127.4 222.4h.01M139.8 209.8h.01M191.1 198.1h.01M233.3 368.6h.01M208.5 42.8h.01M190.2 181.1h.01M315.5 368.0h.01M122.5 89.0h.01M133.9 114.3h.01M159.9 303.2h.01M139.5 148.8h.01M150.6 240.7h.01M122.4 166.2h.01M190.5 186.3h.01M196.0 186.2h.01M241.4 363.8h.01M244.0 336.3h.01M119.3 99.0h.01M53.9 374.2h.01M144.6 168.2h.01M123.4 214.6h.01M146.4 172.0h.01M147.6 356.6h.01M160.6 183.2h.01M159.6 187.1h.01M211.3 58.4h.01M137.0 162.5h.01M118.2 203.3h.01M295.0 211.3h.01M91.9 187.4h.01M165.3 267.6h.01M128.6 157.8h.01M118.3 358.4h.01M178.2 260.2h.01M112.1 357.0h.01M211.6 343.3h.01M264.0 175.6h.01M173.6 58.4h.01M152.7 263.4h.01M113.8 360.5h.01M125.0 113.5h.01M115.0 125.1h.01M129.7 120.9h.01M209.8 193.3h.01M140.5 70.6h.01M229.2 335.6h.01M149.4 51.2h.01M147.7 195.7h.01M275.2 253.6h.01M184.5 330.6h.01M161.5 62.9h.01M60.4 195.2h.01M172.2 158.7h.01M183.2 63.4h.01M164.0 48.1h.01M115.8 76.1h.01M103.8 178.2h.01M157.1 242.5h.01M177.0 318.6h.01M152.7 283.5h.01M110.1 161.9h.01M147.5 98.4h.01M139.6 93.6h.01M131.6 197.0h.01M156.3 64.0h.01M113.5 170.0h.01M128.7 235.2h.01M189.7 53.0h.01M125.6 66.4h.01M182.5 255.9h.01M276.0 239.5h.01M154.6 269.2h.01M240.3 55.2h.01M135.6 126.3h.01M163.1 294.2h.01M269.0 189.5h.01M138.3 115.8h.01M167.1 178.2h.01M178.1 237.3h.01M115.5 103.3h.01M150.5 273.0h.01M219.8 183.2h.01M185.3 325.8h.01M141.3 89.1h.01M150.4 189.4h.01M91.4 260.3h.01M75.5 243.0h.01M136.1 179.2h.01M183.2 236.2h.01M273.5 315.4h.01M165.8 312.5h.01M128.9 131.6h.01M144.7 181.6h.01M307.9 374.4h.01M145.1 186.9h.01M113.9 90.6h.01M125.6 92.2h.01M159.1 265.0h.01M165.7 194.0h.01M187.9 371.6h.01M145.2 93.5h.01M178.1 313.9h.01M140.6 123.6h.01M102.7 169.9h.01M151.1 75.3h.01M211.7 46.2h.01M271.5 183.6h.01M234.8 54.5h.01M145.3 128.6h.01M135.5 110.0h.01M138.2 75.9h.01M260.0 316.0h.01M213.1 49.9h.01M139.7 196.6h.01M168.9 55.4h.01M138.7 204.9h.01M117.2 168.3h.01M134.2 158.8h.01M174.2 266.0h.01M169.3 203.1h.01M160.0 195.7h.01M198.9 308.3h.01M134.6 60.7h.01M222.5 53.9h.01M200.6 200.9h.01M134.1 73.2h.01M212.3 205.9h.01M119.1 207.7h.01M148.1 249.5h.01M163.4 58.0h.01M164.0 199.7h.01M194.6 45.2h.01M128.6 152.8h.01M234.2 335.1h.01M158.5 49.0h.01M169.3 315.1h.01M124.8 366.9h.01M115.8 374.1h.01M111.7 156.8h.01M148.5 206.2h.01M179.5 174.3h.01M120.1 126.1h.01M185.8 262.5h.01M136.7 97.5h.01M109.2 91.1h.01M152.2 71.1h.01M45.5 362.5h.01M151.7 200.0h.01M165.0 231.8h.01M114.9 333.1h.01M182.3 49.9h.01M318.0 362.6h.01M170.2 181.5h.01M142.5 213.9h.01M171.5 260.5h.01M142.2 54.2h.01M146.6 54.9h.01M138.0 84.7h.01M121.3 177.8h.01M119.5 350.2h.01M218.4 50.8h.01M173.7 255.1h.01M174.8 172.7h.01M171.1 298.4h.01M288.6 262.1h.01M121.9 139.0h.01M182.1 322.0h.01M246.2 299.1h.01M118.8 71.6h.01M118.8 189.9h.01M170.2 230.8h.01M216.7 205.9h.01M106.7 116.2h.01M134.2 79.7h.01M118.4 173.4h.01M203.5 50.8h.01M185.3 178.9h.01M93.9 265.1h.01M239.0 177.5h.01M186.8 270.2h.01M133.7 93.5h.01M147.1 77.1h.01M163.6 52.8h.01M300.7 203.6h.01M139.2 251.3h.01M147.0 201.5h.01M166.8 262.9h.01M163.2 219.5h.01M75.5 291.8h.01M249.4 194.1h.01M169.4 198.0h.01M156.8 287.6h.01M252.8 250.8h.01M166.5 76.3h.01M129.2 148.6h.01M135.1 68.9h.01M138.7 135.4h.01M215.5 60.7h.01M169.4 174.3h.01M127.5 141.1h.01M149.0 221.2h.01M81.2 191.4h.01M136.9 201.1h.01M204.1 331.5h.01M127.1 86.7h.01M158.9 372.4h.01M230.7 343.6h.01M178.8 188.9h.01M170.2 306.3h.01M181.2 317.4h.01M126.1 101.1h.01M95.2 189.9h.01M161.3 67.9h.01M129.2 255.9h.01M133.2 154.1h.01M160.3 271.5h.01M184.2 192.8h.01M107.1 239.9h.01M112.4 181.4h.01M23.5 337.3h.01M150.5 173.9h.01M104.9 100.2h.01M135.3 197.2h.01M125.4 218.6h.01M110.0 227.4h.01M221.2 208.0h.01M110.5 120.8h.01M120.7 212.0h.01M175.5 199.0h.01M296.2 198.6h.01M106.0 163.0h.01M121.0 370.2h.01M107.9 360.4h.01M106.9 95.7h.01M180.1 242.2h.01M114.4 236.9h.01M123.1 144.4h.01M124.0 49.1h.01M145.6 40.2h.01M124.0 70.6h.01M151.8 195.2h.01M69.6 213.3h.01M105.5 173.4h.01M204.9 186.5h.01M258.9 256.5h.01M144.6 59.7h.01M173.2 316.8h.01M149.5 57.8h.01M194.0 50.3h.01M75.2 213.3h.01M118.3 89.1h.01M148.6 282.8h.01M106.1 135.3h.01M115.6 159.4h.01M145.7 177.0h.01M134.8 139.2h.01M180.8 327.2h.01M195.0 342.5h.01M123.8 160.5h.01M211.4 189.7h.01M121.6 354.8h.01M128.0 337.3h.01M140.2 60.4h.01M73.2 207.6h.01M255.2 315.7h.01M112.1 140.4h.01M137.3 262.5h.01M203.1 321.6h.01M174.3 233.6h.01M199.6 47.3h.01M159.8 207.7h.01M254.3 192.4h.01M170.0 226.7h.01M147.9 134.2h.01"/>
<path stroke="#1a1a1a" stroke-width="3.40" stroke-linecap="round" fill="none" d="M86.0 173.4h.01M99.2 215.7h.01M129.1 263.2h.01M115.6 59.6h.01M136.6 246.3h.01M185.8 38.0h.01M112.5 115.1h.01M108.7 86.3h.01M147.6 277.6h.01M91.3 73.5h.01M121.9 193.9h.01M150.2 292.0h.01M99.6 173.5h.01M110.4 58.6h.01M122.7 260.0h.01M119.0 51.7h.01M104.8 185.4h.01M162.6 39.7h.01M159.6 44.6h.01M174.9 245.1h.01M227.3 184.8h.01M235.5 374.7h.01M122.2 251.0h.01M104.8 153.7h.01M304.4 200.6h.01M96.1 175.9h.01M112.3 129.9h.01M83.8 119.3h.01M57.8 306.4h.01M138.3 340.2h.01M103.2 132.5h.01M312.9 173.8h.01M222.4 362.8h.01M117.3 195.3h.01M123.8 255.3h.01M91.7 107.5h.01M86.9 107.6h.01M100.4 85.7h.01M267.8 340.4h.01M135.5 212.1h.01M89.2 194.9h.01M275.7 257.7h.01M207.3 339.0h.01M147.2 260.0h.01M115.3 317.6h.01M91.4 112.1h.01M315.0 359.3h.01M151.3 233.3h.01M124.8 57.8h.01M125.6 176.6h.01M270.0 374.0h.01M112.7 148.6h.01M110.0 125.8h.01M72.5 235.1h.01M98.6 130.0h.01M155.3 304.7h.01M87.6 166.9h.01M46.1 356.6h.01M160.8 312.5h.01M310.1 184.0h.01M108.2 138.5h.01M99.7 75.7h.01M142.5 267.9h.01M141.9 262.9h.01M124.7 264.6h.01M135.0 337.5h.01M119.8 199.0h.01M146.7 231.5h.01M106.2 223.3h.01M119.8 57.1h.01M128.2 198.6h.01M130.8 207.3h.01M110.6 186.1h.01M93.5 163.0h.01M271.1 239.2h.01M101.3 79.8h.01M58.1 134.3h.01M276.6 342.1h.01M239.1 337.2h.01M144.5 222.0h.01M214.4 186.7h.01M99.2 139.6h.01M121.8 319.8h.01M143.7 252.5h.01M102.3 158.0h.01M110.9 74.6h.01M123.5 208.9h.01M217.0 362.4h.01M135.7 218.2h.01M101.1 108.1h.01M104.0 111.8h.01M105.7 127.6h.01M102.2 129.4h.01M97.2 164.1h.01M247.2 359.4h.01M142.1 98.7h.01M114.6 55.1h.01M144.3 282.5h.01M148.4 183.8h.01M158.7 40.3h.01M209.1 363.8h.01M107.7 350.0h.01M75.1 230.8h.01M92.7 81.1h.01M110.9 353.2h.01M195.5 39.1h.01M97.0 80.5h.01M72.1 222.1h.01M102.3 63.9h.01M57.0 199.7h.01M126.6 260.0h.01M96.1 94.0h.01M98.9 122.1h.01M105.2 123.7h.01M101.1 236.4h.01M78.9 254.0h.01M153.7 46.0h.01M98.0 143.2h.01M139.9 271.9h.01M100.7 201.6h.01M133.4 176.0h.01M93.5 103.4h.01M87.8 77.1h.01M100.4 116.3h.01M160.1 231.5h.01M77.7 114.1h.01M289.5 267.1h.01M129.6 176.4h.01M303.9 176.7h.01M159.1 308.0h.01M266.3 291.9h.01M145.0 272.6h.01M87.7 156.4h.01M88.6 184.8h.01M225.9 365.5h.01M170.0 41.2h.01M90.2 89.9h.01M102.6 145.0h.01M133.5 54.4h.01M275.8 332.1h.01M106.0 106.7h.01M146.5 243.5h.01M99.1 168.3h.01M201.5 363.4h.01M115.5 63.4h.01M264.7 374.3h.01M122.7 203.6h.01M215.2 339.3h.01M142.8 43.5h.01M150.6 229.4h.01M163.5 240.9h.01M264.8 315.4h.01M233.8 185.8h.01M106.4 76.3h.01M113.6 94.6h.01M94.5 132.5h.01M137.9 56.1h.01M95.1 120.4h.01M143.6 196.3h.01M271.8 247.2h.01M99.2 66.2h.01M95.7 219.9h.01M94.8 89.9h.01M252.6 349.5h.01M141.2 177.4h.01M226.5 340.9h.01M74.0 265.1h.01M91.2 85.3h.01M143.9 278.3h.01M153.2 237.4h.01M93.4 173.1h.01M110.5 234.9h.01M102.9 232.0h.01M106.9 158.1h.01M51.0 362.9h.01M92.1 158.8h.01M113.9 71.5h.01M280.0 348.9h.01M197.7 358.3h.01M177.9 41.8h.01M140.0 280.0h.01M205.2 360.4h.01M282.3 262.3h.01M110.9 320.1h.01M106.2 80.7h.01M58.8 373.5h.01M137.2 51.4h.01M94.9 124.4h.01M134.9 206.6h.01M141.3 218.7h.01M271.5 293.3h.01M87.8 160.5h.01M132.7 84.5h.01M84.1 159.0h.01M270.0 243.5h.01M130.3 76.5h.01M247.4 188.2h.01M80.4 95.8h.01M109.5 101.5h.01M266.3 186.2h.01M109.3 111.3h.01M146.8 211.4h.01M261.9 187.7h.01M155.5 300.2h.01M90.8 132.0h.01M174.1 325.4h.01M134.0 132.1h.01M251.6 364.9h.01M102.1 346.6h.01M258.0 339.0h.01M128.6 172.5h.01M234.9 180.5h.01M168.3 245.7h.01M241.2 361.1h.01M133.0 265.1h.01M165.0 316.8h.01M113.5 336.3h.01M89.2 152.2h.01M221.8 198.0h.01M91.4 94.9h.01M144.4 374.4h.01M133.3 187.5h.01M232.2 191.1h.01M141.2 228.1h.01M251.8 188.7h.01M100.0 91.0h.01M88.6 144.5h.01M299.9 347.3h.01M248.1 343.8h.01M282.0 364.9h.01M53.6 365.5h.01M307.0 368.8h.01M150.4 39.5h.01M104.2 84.4h.01M51.0 316.3h.01M190.8 38.3h.01M42.6 353.2h.01M172.0 249.5h.01M113.8 192.0h.01M97.2 102.4h.01M97.0 106.7h.01M127.8 227.0h.01M71.0 256.7h.01M102.1 136.8h.01M133.0 43.7h.01M223.3 185.4h.01M101.0 223.6h.01M96.3 136.7h.01M110.5 332.6h.01M113.6 98.6h.01M54.3 174.1h.01M95.8 150.9h.01M313.3 364.1h.01M134.8 272.9h.01M284.2 351.9h.01M235.5 365.5h.01M138.5 222.2h.01M153.1 362.1h.01M183.8 359.1h.01M241.4 184.3h.01M98.8 133.6h.01M187.1 42.2h.01M142.2 172.5h.01M197.5 362.6h.01M284.6 265.7h.01M109.2 176.9h.01M121.7 170.0h.01M244.6 344.9h.01M104.4 141.1h.01M119.2 84.7h.01M134.7 48.2h.01M240.2 343.3h.01M115.7 321.4h.01M260.8 358.9h.01M234.9 198.0h.01M112.4 342.3h.01M220.1 343.3h.01M109.4 68.2h.01M246.8 178.7h.01M104.6 270.6h.01M80.0 86.9h.01M132.1 269.8h.01M72.0 226.9h.01M214.0 348.3h.01M126.1 164.8h.01M273.4 297.5h.01M268.9 350.9h.01M178.0 323.5h.01M212.6 361.8h.01M82.9 245.1h.01M309.8 192.2h.01M98.0 231.8h.01M130.3 48.5h.01M122.3 184.5h.01M199.3 353.9h.01M125.2 77.5h.01M81.9 108.4h.01M107.8 231.9h.01M102.1 103.9h.01M76.8 177.1h.01M121.7 246.2h.01M142.2 200.9h.01M236.0 344.0h.01M59.6 126.3h.01M308.7 178.3h.01M153.8 41.6h.01M188.8 350.5h.01M83.4 84.3h.01M100.1 99.5h.01M76.7 96.1h.01M260.3 371.0h.01M114.5 345.6h.01M68.9 247.1h.01M142.4 345.7h.01M140.2 373.7h.01M279.2 259.3h.01M95.1 110.9h.01M239.1 366.6h.01M163.7 236.1h.01M257.6 189.8h.01M253.1 360.1h.01M104.1 350.5h.01M108.0 131.2h.01M231.5 50.7h.01M105.8 65.8h.01M194.4 360.6h.01M103.3 74.0h.01M302.1 374.7h.01M274.6 243.7h.01M261.7 260.5h.01M105.7 236.1h.01M119.3 67.1h.01M200.8 42.4h.01M56.6 141.6h.01M83.9 165.0h.01M153.2 296.0h.01M95.5 168.6h.01M100.7 95.6h.01M197.4 41.9h.01M128.7 185.0h.01M89.1 171.1h.01M110.3 63.6h.01M137.4 183.6h.01M278.2 363.0h.01M142.5 246.9h.01M144.8 49.0h.01M92.4 255.9h.01M221.0 348.7h.01M54.5 370.1h.01M284.5 372.4h.01M208.6 333.4h.01M137.2 193.0h.01M229.8 187.3h.01M104.2 214.8h.01M256.0 350.3h.01M227.4 198.2h.01M105.5 149.2h.01M216.9 349.4h.01M230.8 182.0h.01M120.3 315.8h.01M110.0 152.7h.01M97.1 159.4h.01M98.5 126.7h.01M231.7 373.7h.01M148.2 255.0h.01M181.5 37.0h.01M76.4 249.8h.01M111.6 349.7h.01M191.6 339.9h.01M107.6 356.5h.01M89.3 163.5h.01M131.9 202.1h.01M99.1 178.7h.01M113.0 328.7h.01M143.8 229.4h.01M114.5 143.9h.01M121.1 62.4h.01M172.3 37.3h.01M101.2 161.6h.01M308.0 364.6h.01M140.5 181.3h.01M244.7 191.8h.01M85.1 248.6h.01M125.9 180.8h.01M126.8 62.0h.01M87.0 116.6h.01M99.5 155.3h.01M237.7 183.7h.01M115.1 313.6h.01M173.8 321.5h.01M254.2 256.4h.01M225.9 181.0h.01M272.2 341.6h.01M104.5 90.3h.01M229.2 368.3h.01M111.2 83.2h.01M72.3 186.4h.01M31.3 340.4h.01M77.5 89.6h.01M138.5 214.9h.01M183.4 374.0h.01M131.5 334.1h.01M91.6 168.0h.01M218.7 187.0h.01M137.0 268.2h.01M99.9 151.6h.01M148.7 288.0h.01M99.2 71.8h.01M194.6 347.1h.01M257.2 262.4h.01M102.3 69.0h.01M141.5 191.0h.01M244.2 196.8h.01M115.6 186.5h.01M106.8 120.6h.01M35.9 344.5h.01M99.0 204.6h.01M191.5 42.3h.01M168.7 45.8h.01M177.5 251.4h.01M79.7 169.0h.01M106.0 60.9h.01M74.5 92.0h.01M158.6 237.7h.01M63.1 229.1h.01M96.1 85.5h.01M85.1 99.2h.01M279.5 268.0h.01M173.7 44.3h.01M208.9 202.0h.01M141.3 275.8h.01M257.4 185.2h.01M182.2 42.6h.01M136.0 374.9h.01M63.7 235.2h.01M304.6 371.6h.01M169.2 319.5h.01M111.4 324.7h.01M156.9 365.5h.01M106.9 168.4h.01M106.6 71.0h.01M141.3 185.7h.01M108.5 144.9h.01M49.5 359.2h.01M113.9 67.3h.01M252.5 292.5h.01M106.3 353.5h.01M92.5 136.6h.01M242.1 180.4h.01M168.6 241.2h.01M215.8 201.3h.01M116.3 329.4h.01M141.0 284.6h.01M148.5 45.3h.01M137.8 188.0h.01M99.4 147.7h.01M269.0 369.8h.01M115.0 119.6h.01M229.5 364.0h.01M101.8 125.2h.01M130.6 126.3h.01M176.7 37.5h.01M155.9 233.2h.01"/>
<path stroke="#1a1a1a" stroke-width="3.91" stroke-linecap="round" fill="none" d="M117.2 287.6h.01M292.5 356.2h.01M254.2 352.8h.01M155.9 341.6h.01M73.5 336.7h.01M74.4 174.3h.01M274.4 375.4h.01M69.5 336.0h.01M113.7 287.6h.01M175.5 374.1h.01M181.2 361.0h.01M63.4 155.3h.01M84.9 307.8h.01M61.9 136.3h.01M109.8 343.4h.01M307.3 352.0h.01M281.5 293.3h.01M150.5 353.5h.01M217.5 198.0h.01M142.5 341.1h.01M78.6 283.2h.01M147.5 305.3h.01M65.3 150.9h.01M71.1 369.1h.01M84.9 303.3h.01M278.4 353.0h.01M108.4 300.6h.01M232.9 363.8h.01M56.6 355.8h.01M177.4 365.0h.01M273.1 262.0h.01M67.4 128.1h.01M218.5 355.1h.01M62.9 152.1h.01M93.9 352.3h.01M66.2 296.6h.01M223.6 352.2h.01M298.0 186.4h.01M73.8 251.5h.01M77.7 328.6h.01M183.7 364.1h.01M74.7 341.0h.01M82.5 344.5h.01M140.4 290.4h.01M84.4 334.3h.01M137.2 319.5h.01M69.2 145.8h.01M83.3 136.0h.01M290.3 186.5h.01M109.8 368.5h.01M283.2 270.2h.01M57.4 166.1h.01M260.7 354.5h.01M63.8 321.6h.01M126.6 271.6h.01M207.8 353.4h.01M189.9 361.9h.01M272.0 366.9h.01M81.2 337.9h.01M151.1 306.7h.01M75.5 318.2h.01M288.6 370.7h.01M79.4 360.5h.01M105.2 277.4h.01M134.8 298.5h.01M277.0 367.8h.01M122.8 287.2h.01M81.1 341.4h.01M158.9 319.2h.01M263.4 361.7h.01M101.5 339.5h.01M87.6 360.8h.01M54.9 158.0h.01M264.0 268.6h.01M165.1 364.3h.01M252.4 260.9h.01M79.3 298.4h.01M86.7 283.6h.01M117.8 270.5h.01M86.1 337.5h.01M213.1 367.0h.01M76.5 349.4h.01M94.3 336.7h.01M259.0 350.7h.01M77.2 336.5h.01M161.7 330.5h.01M76.0 269.5h.01M45.2 343.1h.01M182.8 337.3h.01M131.6 316.2h.01M218.2 351.9h.01M73.3 354.4h.01M75.6 297.9h.01M262.9 296.3h.01M86.0 91.5h.01M120.0 299.5h.01M145.5 343.5h.01M92.3 191.6h.01M56.2 154.0h.01M61.8 172.8h.01M157.9 328.3h.01M72.1 108.0h.01M79.4 164.3h.01M136.0 288.0h.01M213.0 354.0h.01M134.5 313.5h.01M72.5 332.5h.01M148.8 342.5h.01M290.3 192.0h.01M61.8 327.8h.01M78.2 132.5h.01M62.7 160.6h.01M152.4 323.8h.01M263.3 357.0h.01M124.6 294.1h.01M83.7 318.9h.01M205.0 364.9h.01M99.1 327.9h.01M136.8 294.5h.01M161.0 327.3h.01M69.5 329.0h.01M98.9 319.1h.01M295.4 192.3h.01M89.3 347.0h.01M150.4 345.6h.01M296.5 360.0h.01M65.5 361.2h.01M108.6 374.1h.01M74.7 324.4h.01M65.8 130.8h.01M85.9 330.1h.01M159.8 356.4h.01M149.5 349.5h.01M143.1 288.9h.01M247.8 353.2h.01M191.5 370.7h.01M198.6 369.7h.01M135.1 241.2h.01M55.0 359.9h.01M98.4 279.6h.01M51.3 328.0h.01M59.7 345.5h.01M57.4 327.9h.01M67.6 307.6h.01M76.7 321.5h.01M75.9 121.2h.01M293.2 362.5h.01M66.0 363.8h.01M223.2 368.1h.01M90.9 337.0h.01M100.2 311.1h.01M83.7 294.9h.01M255.3 364.8h.01M88.6 308.9h.01M110.4 346.5h.01M140.3 301.9h.01M89.7 328.9h.01M59.4 320.4h.01M103.4 369.4h.01M138.4 230.6h.01M62.8 318.4h.01M268.8 264.3h.01M102.0 363.0h.01M120.8 289.2h.01M62.3 132.4h.01M228.8 352.0h.01M71.2 323.2h.01M140.4 312.1h.01M40.0 343.3h.01M65.5 305.0h.01M277.6 263.8h.01M137.4 324.1h.01M141.6 327.3h.01M245.4 184.1h.01M199.1 344.1h.01M231.3 196.4h.01M106.5 347.0h.01M106.0 333.1h.01M57.0 314.3h.01M76.1 273.9h.01M69.4 298.6h.01M126.0 275.6h.01M87.4 128.9h.01M286.4 375.1h.01M96.3 366.2h.01M176.8 352.6h.01M231.5 354.5h.01M100.4 305.6h.01M184.1 349.2h.01M72.7 177.2h.01M102.6 314.4h.01M154.6 330.2h.01M198.7 341.1h.01M134.1 304.8h.01M108.0 294.2h.01M58.8 159.6h.01M118.4 291.1h.01M64.4 138.7h.01M65.2 174.1h.01M75.6 313.5h.01M65.1 133.8h.01M45.2 330.4h.01M65.5 324.8h.01M75.9 184.5h.01M292.9 370.6h.01M58.2 336.2h.01M130.0 287.0h.01M169.0 339.8h.01M70.1 117.2h.01M95.7 356.6h.01M79.3 302.5h.01M118.5 280.3h.01M56.7 331.9h.01M89.3 140.6h.01M112.8 370.5h.01M165.4 345.1h.01M62.8 359.5h.01M213.3 375.0h.01M127.2 300.4h.01M82.4 305.2h.01M273.8 267.0h.01M67.7 366.9h.01M83.0 285.9h.01M80.1 183.1h.01M59.2 316.8h.01M210.7 349.1h.01M145.6 326.5h.01M129.4 218.8h.01M180.5 366.6h.01M72.3 358.3h.01M52.3 351.1h.01M91.6 149.0h.01M204.0 338.0h.01M137.4 306.7h.01M79.7 312.7h.01M71.0 343.3h.01M76.5 101.2h.01M83.3 263.0h.01M210.7 346.2h.01M60.3 163.3h.01M54.0 328.0h.01M92.4 283.6h.01M64.2 178.5h.01M239.2 348.3h.01M73.4 328.2h.01M125.6 321.9h.01M299.2 193.7h.01M93.1 320.2h.01M58.9 311.1h.01M79.3 368.8h.01M89.8 314.0h.01M63.2 169.7h.01M88.2 81.9h.01M62.1 122.0h.01M46.9 323.1h.01M177.6 360.6h.01M72.9 247.9h.01M245.4 355.6h.01M114.7 278.4h.01M208.3 351.2h.01M186.9 338.7h.01M106.7 370.9h.01M57.8 176.2h.01M84.6 270.1h.01M75.8 295.1h.01M60.3 181.0h.01M100.1 271.0h.01M164.5 326.8h.01M119.2 274.9h.01M146.5 336.7h.01M66.7 135.7h.01M86.2 272.8h.01M81.0 122.5h.01M96.5 288.7h.01M174.7 341.3h.01M67.7 108.9h.01M162.2 319.9h.01M78.4 259.9h.01M154.3 308.9h.01M73.9 97.7h.01M249.3 361.8h.01M88.5 349.5h.01M95.6 358.9h.01M62.8 374.8h.01M87.0 325.3h.01M194.8 338.2h.01M130.6 224.2h.01M88.8 299.8h.01M312.5 179.9h.01M127.3 326.0h.01M79.0 156.9h.01M68.9 352.2h.01M227.3 359.8h.01M91.6 324.0h.01M74.5 155.3h.01M86.5 279.7h.01M296.5 363.5h.01M138.0 234.5h.01M67.8 370.2h.01M97.2 308.4h.01M162.1 359.1h.01M83.6 94.9h.01M235.9 359.8h.01M127.4 282.6h.01M125.4 268.4h.01M264.3 264.4h.01M150.4 321.4h.01M88.4 306.1h.01M208.0 374.6h.01M200.6 338.7h.01M304.8 354.4h.01M78.6 375.1h.01M54.7 163.1h.01M105.4 366.5h.01M274.2 363.8h.01M259.6 364.9h.01M304.9 191.4h.01M97.9 196.5h.01M69.2 325.8h.01M92.3 300.5h.01M95.4 116.1h.01M106.4 313.1h.01M95.6 155.7h.01M90.6 280.9h.01M273.7 371.3h.01M78.0 310.5h.01M81.0 261.5h.01M71.5 152.5h.01M247.8 367.3h.01M315.1 353.8h.01M68.8 104.6h.01M78.5 291.4h.01M288.2 357.6h.01M63.5 184.9h.01M143.6 303.8h.01M76.4 262.8h.01M130.1 273.5h.01M57.4 367.2h.01M183.4 341.9h.01M112.9 295.0h.01M257.7 354.5h.01M132.0 311.2h.01M163.6 341.0h.01M176.5 334.0h.01M206.5 348.5h.01M78.2 371.9h.01M162.3 349.3h.01M295.7 346.2h.01M267.9 356.3h.01M92.3 178.1h.01M276.0 275.7h.01M289.7 364.1h.01M161.6 367.9h.01M91.6 116.9h.01M64.3 346.7h.01M153.1 318.9h.01M272.5 271.7h.01M62.7 311.6h.01M211.7 371.9h.01M73.8 259.9h.01M66.9 124.4h.01M208.6 359.5h.01M93.4 348.1h.01M162.4 337.7h.01M248.8 182.8h.01M94.4 278.9h.01M59.5 360.5h.01M150.6 337.6h.01M83.5 259.7h.01M93.6 194.8h.01M70.1 159.4h.01M128.4 303.8h.01M264.8 370.4h.01M105.5 340.0h.01M63.4 126.9h.01M209.3 370.3h.01M193.9 352.1h.01M100.5 289.1h.01M62.1 336.6h.01M170.3 362.3h.01M66.1 112.9h.01M65.0 158.2h.01M112.7 274.1h.01M58.7 138.4h.01M63.6 302.5h.01M126.7 201.6h.01M83.9 357.7h.01M153.4 314.6h.01M67.5 176.2h.01M157.1 359.8h.01M156.7 354.1h.01M130.8 304.9h.01M281.2 374.2h.01M67.9 142.0h.01M137.4 275.9h.01M97.0 339.0h.01M92.2 268.4h.01M87.0 112.0h.01M139.1 330.3h.01M67.8 375.0h.01M74.6 124.6h.01M276.9 293.5h.01M160.5 316.2h.01M240.2 353.0h.01M133.9 232.1h.01M289.5 360.9h.01M61.4 176.4h.01M72.8 309.8h.01M285.5 361.7h.01M101.3 366.0h.01M203.5 375.1h.01M59.8 130.2h.01M85.7 188.3h.01M210.8 340.4h.01M61.4 364.3h.01M241.8 369.4h.01M61.1 350.3h.01M67.3 170.4h.01M157.5 332.5h.01M176.6 356.4h.01M58.2 324.7h.01M77.2 172.4h.01M102.0 324.1h.01M229.2 348.6h.01M132.1 276.6h.01M104.8 328.8h.01M81.8 276.5h.01M114.5 291.3h.01M70.8 364.2h.01M84.3 131.5h.01M103.7 301.5h.01M146.4 226.0h.01M299.1 350.6h.01M292.3 366.7h.01M252.3 184.3h.01M88.4 286.9h.01M85.1 313.7h.01M142.8 234.0h.01M49.1 340.8h.01M101.6 372.7h.01M65.6 166.9h.01M86.8 86.9h.01M164.4 332.9h.01M207.9 367.4h.01M146.8 352.3h.01M70.5 174.8h.01M289.2 354.5h.01M90.5 293.5h.01M75.7 358.3h.01M53.8 338.4h.01M74.3 117.0h.01M196.5 375.4h.01M309.9 361.0h.01M97.3 200.0h.01M81.7 265.0h.01M69.5 179.1h.01M165.5 356.7h.01M102.5 353.8h.01M60.1 369.1h.01M87.2 311.5h.01M173.9 359.3h.01M65.7 372.5h.01M207.4 344.1h.01M236.9 188.7h.01M81.4 91.4h.01M290.9 374.3h.01M88.8 103.8h.01M80.4 128.8h.01M228.0 355.5h.01M88.4 302.9h.01M133.1 320.3h.01M79.5 243.3h.01M106.9 324.6h.01M267.9 297.0h.01M104.6 288.3h.01M302.9 356.1h.01M150.2 316.8h.01M105.2 363.0h.01M306.0 182.4h.01M144.5 312.9h.01M177.8 329.9h.01M133.2 227.3h.01M130.3 284.1h.01M199.7 373.9h.01M156.4 312.3h.01M59.8 151.8h.01M214.7 344.3h.01M77.7 187.6h.01M98.1 285.3h.01M265.6 358.5h.01M194.8 368.2h.01M218.0 366.8h.01M114.9 301.1h.01M82.1 352.0h.01M69.2 304.7h.01M87.1 133.8h.01M196.6 334.8h.01M111.9 298.4h.01M86.3 297.7h.01M124.1 299.9h.01M276.7 271.3h.01M136.5 285.2h.01M139.9 319.4h.01M129.7 230.8h.01M89.1 190.3h.01M139.3 287.7h.01M99.0 354.5h.01M142.3 293.9h.01M75.5 306.0h.01M98.5 356.5h.01M297.9 353.9h.01M90.0 99.9h.01M73.0 316.3h.01M299.9 370.9h.01M181.2 333.5h.01M93.6 273.6h.01M71.9 167.6h.01M179.4 342.1h.01M61.3 323.9h.01M65.5 342.6h.01M92.9 373.8h.01M122.7 283.6h.01M165.5 352.3h.01M179.5 373.1h.01M135.0 322.5h.01M133.9 295.4h.01M73.3 144.8h.01M86.0 365.0h.01M142.8 309.6h.01M106.0 337.0h.01M147.6 301.9h.01M137.3 226.7h.01M77.1 148.5h.01M187.5 342.5h.01M92.3 296.5h.01M71.1 319.5h.01M82.4 322.9h.01M106.8 343.6h.01M115.4 304.6h.01M71.3 307.3h.01M170.8 370.7h.01M243.6 366.7h.01M98.6 335.8h.01M149.1 374.2h.01M60.4 146.4h.01M237.8 362.5h.01M45.8 348.4h.01M127.0 211.0h.01M93.8 201.9h.01M79.7 318.9h.01M173.3 367.4h.01M138.6 297.4h.01M76.8 332.5h.01M124.9 306.6h.01M223.0 372.1h.01M91.5 77.4h.01M67.6 148.7h.01M189.9 367.3h.01M164.9 322.3h.01M75.8 309.3h.01M137.5 304.2h.01M95.6 317.8h.01M74.4 127.9h.01M148.6 324.6h.01M141.3 306.2h.01M155.5 336.7h.01M271.5 359.8h.01M121.2 278.4h.01M85.6 290.5h.01M57.0 351.4h.01M72.2 132.8h.01M76.5 110.5h.01M199.7 347.3h.01M94.4 291.6h.01M277.7 373.2h.01M65.7 300.1h.01M131.0 293.0h.01M134.7 223.1h.01M70.3 129.7h.01M251.3 369.9h.01M86.8 316.6h.01M74.5 131.0h.01M169.6 342.8h.01M178.5 336.9h.01M77.7 257.1h.01M57.5 340.6h.01M92.4 355.4h.01M141.8 337.0h.01M245.8 350.3h.01M67.0 238.5h.01M73.5 158.8h.01M59.2 185.3h.01M172.4 328.4h.01M203.7 342.5h.01M147.5 319.0h.01M280.4 344.1h.01M301.3 179.6h.01M257.7 358.5h.01M87.4 267.4h.01M41.5 332.0h.01M79.1 118.0h.01M64.4 142.6h.01M224.2 195.0h.01M92.8 287.3h.01M78.5 315.6h.01M160.3 324.4h.01M80.4 349.0h.01M112.2 339.0h.01M111.2 302.9h.01M90.3 317.7h.01M95.4 311.2h.01M140.5 323.2h.01M128.0 294.0h.01M81.0 132.7h.01M81.5 187.3h.01M106.7 297.7h.01M134.4 308.4h.01M129.0 313.5h.01M127.7 317.5h.01M296.4 367.9h.01M89.8 270.6h.01M81.9 154.7h.01M92.4 332.2h.01M58.4 171.1h.01M97.2 69.0h.01M203.4 355.5h.01M299.6 366.1h.01M127.0 205.8h.01M235.3 193.2h.01M84.8 299.9h.01M153.0 334.0h.01M168.1 328.3h.01M91.5 304.3h.01M94.2 145.9h.01M124.0 197.6h.01M161.7 345.5h.01M112.2 374.7h.01M97.1 346.5h.01M86.3 354.1h.01M52.7 319.1h.01M54.5 347.8h.01M107.8 272.5h.01M92.2 154.1h.01M74.4 255.4h.01M286.9 347.2h.01M99.8 297.6h.01M81.4 364.9h.01M83.2 88.4h.01M266.2 353.2h.01M78.2 93.0h.01M59.9 356.1h.01M95.5 75.8h.01M68.4 137.9h.01M240.1 190.6h.01M203.3 346.8h.01M65.6 338.6h.01M261.0 180.7h.01M256.8 361.7h.01M133.0 286.0h.01M59.7 189.8h.01M108.3 365.4h.01M302.6 185.3h.01M243.0 353.0h.01M72.1 300.6h.01M82.5 146.4h.01M284.6 356.9h.01M265.3 181.6h.01M195.3 372.3h.01M60.7 142.1h.01M141.3 224.7h.01M152.7 343.1h.01M86.5 344.0h.01M128.3 278.4h.01M78.2 125.3h.01M79.5 356.7h.01M82.3 354.7h.01M138.8 309.0h.01M142.6 320.2h.01M109.4 336.4h.01M205.8 371.0h.01M141.1 314.7h.01M76.4 252.9h.01M169.1 332.2h.01M77.8 364.8h.01M90.7 344.4h.01M45.1 338.3h.01M51.8 324.9h.01M54.9 183.4h.01M124.4 280.1h.01M285.1 368.7h.01M198.2 365.8h.01M81.2 257.0h.01M69.4 315.4h.01M217.1 341.5h.01M90.3 358.3h.01M101.0 331.5h.01M233.9 348.4h.01M62.0 149.0h.01M65.8 181.2h.01M94.2 327.4h.01M102.0 211.1h.01M296.6 357.1h.01M70.6 252.1h.01M303.1 367.0h.01M85.5 152.7h.01M96.3 342.3h.01M99.1 293.0h.01M67.4 320.9h.01M166.2 360.6h.01M148.0 295.7h.01M82.5 280.9h.01M243.8 358.9h.01M109.2 328.9h.01M143.4 324.5h.01M78.4 344.9h.01M75.6 169.1h.01M263.2 339.7h.01M81.0 173.7h.01M292.4 352.4h.01M59.6 155.6h.01M54.1 334.5h.01M306.6 358.2h.01M89.8 121.1h.01M79.1 325.2h.01M39.6 335.8h.01M72.2 349.8h.01M114.4 309.6h.01M103.3 295.7h.01M215.6 370.9h.01M295.7 350.5h.01M103.8 291.7h.01M311.2 357.0h.01M167.0 336.4h.01M202.6 371.4h.01M169.9 346.6h.01M263.4 365.8h.01M110.7 311.6h.01M134.4 332.4h.01M84.1 103.4h.01M64.5 146.3h.01M140.5 242.3h.01M74.5 365.7h.01M102.4 318.9h.01M259.5 266.6h.01M148.1 309.5h.01M79.0 136.2h.01M134.0 292.0h.01M80.5 334.9h.01M74.6 361.9h.01M101.8 275.4h.01M86.4 263.4h.01M133.1 288.9h.01M60.8 303.9h.01M82.8 327.5h.01M167.2 374.2h.01M93.8 141.1h.01M137.9 334.8h.01M148.6 333.8h.01M49.5 320.8h.01M151.5 302.6h.01M134.1 326.5h.01M95.6 298.9h.01M144.6 296.6h.01M286.6 192.1h.01M193.1 364.4h.01M303.3 359.3h.01M242.7 187.5h.01M134.7 317.4h.01M93.0 342.1h.01M95.6 295.4h.01M145.5 286.5h.01M173.6 331.9h.01M61.9 307.6h.01M76.1 106.1h.01M117.6 307.7h.01M177.9 348.5h.01M56.2 321.5h.01M268.0 271.1h.01M52.6 322.1h.01M256.1 181.2h.01M69.0 242.1h.01M82.1 300.0h.01M82.9 142.4h.01M243.1 348.5h.01M66.1 316.2h.01M55.0 325.0h.01M133.7 236.8h.01M77.4 159.9h.01M108.5 308.6h.01M45.3 326.7h.01M55.7 193.4h.01M160.8 363.1h.01M137.2 315.5h.01M106.2 320.6h.01M54.8 188.1h.01M234.4 356.5h.01M130.5 299.3h.01M189.3 346.5h.01M129.6 320.6h.01M155.6 375.0h.01M274.0 336.9h.01M81.9 150.4h.01M138.8 326.8h.01M64.1 116.7h.01M222.2 375.3h.01M69.8 171.9h.01M245.7 363.3h.01M268.0 360.8h.01M167.1 349.3h.01M136.8 311.5h.01M82.0 310.0h.01M146.8 346.8h.01M293.8 188.7h.01M212.5 357.3h.01M53.4 330.9h.01M281.0 274.6h.01M68.8 166.5h.01M67.8 152.8h.01M150.8 331.2h.01M139.8 238.2h.01M101.8 280.9h.01M72.7 171.1h.01M201.3 359.2h.01M192.4 374.5h.01M158.5 347.1h.01M71.1 121.9h.01M159.7 352.0h.01M180.2 356.4h.01M120.6 308.5h.01M77.1 152.6h.01M99.5 369.1h.01M88.5 334.0h.01M135.3 279.0h.01M68.3 301.7h.01M219.9 370.5h.01M172.5 350.2h.01M107.1 304.7h.01M169.2 366.0h.01M74.4 374.0h.01M152.7 347.7h.01M197.7 350.2h.01M123.3 311.1h.01M75.2 300.5h.01M169.0 323.9h.01M145.9 322.0h.01M106.9 316.8h.01M81.3 331.3h.01M137.4 282.3h.01M155.5 325.5h.01M158.3 338.9h.01M65.5 332.0h.01M86.7 148.4h.01M74.5 369.5h.01M92.4 308.1h.01M155.2 349.0h.01M90.8 364.1h.01M83.7 169.7h.01M57.5 145.2h.01M87.4 321.2h.01M152.7 339.9h.01M304.9 362.6h.01M65.5 328.5h.01M70.9 373.7h.01M267.8 365.0h.01M191.4 343.6h.01M116.4 296.1h.01M71.5 112.8h.01M118.7 284.5h.01M45.1 334.6h.01M116.6 298.9h.01M275.0 355.6h.01M307.4 196.1h.01M251.1 353.0h.01M67.7 156.1h.01M130.7 329.2h.01M65.8 163.7h.01M119.0 312.2h.01M280.4 356.2h.01M145.0 307.5h.01M130.9 324.3h.01M101.1 356.9h.01M50.0 333.1h.01M187.2 364.2h.01M171.5 374.5h.01M143.4 329.5h.01M104.6 309.9h.01M155.6 345.4h.01M72.3 149.2h.01M74.2 136.8h.01M108.1 276.4h.01M63.7 366.9h.01M88.4 356.2h.01M96.5 350.3h.01M49.7 336.5h.01M98.9 352.1h.01M292.6 358.9h.01M300.8 189.9h.01M301.7 352.4h.01M77.9 144.2h.01M81.5 161.2h.01M69.0 332.5h.01M52.3 355.7h.01M96.3 332.0h.01M290.5 344.6h.01M72.2 304.0h.01M127.1 310.0h.01M69.8 339.5h.01M121.5 268.8h.01M99.6 301.4h.01M300.6 362.4h.01M65.2 351.1h.01M171.0 338.5h.01M71.1 126.3h.01M152.3 327.5h.01M270.8 355.0h.01M66.5 120.2h.01M158.2 322.5h.01M169.8 358.4h.01M75.5 163.3h.01M144.4 333.8h.01M144.6 300.4h.01M288.3 350.8h.01M79.6 294.7h.01M91.7 311.3h.01M115.2 282.9h.01M307.4 187.8h.01M111.9 240.2h.01M122.2 292.5h.01M146.7 340.0h.01M133.8 282.8h.01M106.1 285.1h.01M84.2 347.6h.01M287.3 366.3h.01M281.1 369.0h.01M172.6 343.3h.01M90.1 277.4h.01M98.7 358.7h.01M147.6 314.1h.01M98.1 314.6h.01M136.7 290.8h.01M128.9 290.4h.01M240.2 357.4h.01M300.1 355.1h.01M162.8 353.9h.01M75.7 134.3h.01M50.0 346.3h.01M115.9 274.8h.01M154.1 356.1h.01M224.2 356.7h.01M256.0 369.2h.01M108.5 289.2h.01M166.8 340.9h.01M71.2 136.5h.01M156.5 351.0h.01M110.7 286.1h.01M110.9 291.8h.01M248.8 349.6h.01M49.2 330.3h.01M188.5 375.1h.01M129.3 267.7h.01M90.8 126.1h.01M102.7 360.1h.01M61.5 340.8h.01M99.5 208.6h.01M152.8 351.5h.01M141.3 332.6h.01M97.0 193.2h.01M121.2 304.9h.01M84.4 340.4h.01M202.6 367.6h.01M92.8 367.8h.01M216.2 358.0h.01M87.9 374.0h.01M311.6 352.2h.01M108.0 281.3h.01M101.4 285.0h.01M247.5 294.4h.01M297.7 181.2h.01M101.6 219.4h.01M124.7 315.4h.01M66.5 358.4h.01M77.1 353.4h.01M78.7 278.1h.01M73.3 161.6h.01M254.4 356.4h.01M122.6 273.6h.01M220.9 358.5h.01M100.1 360.1h.01M85.3 276.1h.01M80.3 99.8h.01M80.1 104.8h.01M72.5 102.9h.01M132.8 301.8h.01M141.6 298.5h.01M68.6 346.8h.01M36.0 339.1h.01M103.1 306.9h.01M151.3 358.4h.01M93.4 314.8h.01M105.0 281.5h.01M101.6 335.0h.01M191.4 358.1h.01M74.3 345.8h.01M76.1 166.1h.01M74.7 140.7h.01M176.6 369.8h.01M98.9 363.0h.01M69.1 133.4h.01M130.3 308.1h.01M85.8 350.8h.01M80.7 268.9h.01M70.9 140.6h.01M88.3 295.7h.01M105.1 359.9h.01M118.1 293.8h.01M144.5 317.3h.01M237.2 351.5h.01M303.7 195.8h.01M122.0 301.8h.01M54.7 169.1h.01M273.7 352.0h.01M144.8 238.7h.01M78.0 340.5h.01M126.5 286.5h.01M275.9 359.5h.01M212.4 331.8h.01M87.7 95.3h.01M61.9 314.7h.01M84.0 369.3h.01M131.4 290.2h.01M59.5 330.7h.01M82.2 314.9h.01M78.5 266.8h.01M77.8 287.2h.01M173.9 363.6h.01M100.6 349.9h.01M132.4 220.6h.01M85.5 139.4h.01M213.3 351.3h.01M96.2 283.1h.01M70.9 163.7h.01M233.8 352.3h.01M294.0 183.8h.01M68.4 311.7h.01M109.0 340.0h.01M291.9 348.3h.01M95.6 362.6h.01M65.6 334.9h.01M177.7 339.9h.01M110.9 315.4h.01M127.6 215.3h.01M103.5 343.1h.01M88.8 136.6h.01M250.0 356.6h.01M79.2 306.5h.01M110.8 275.9h.01M57.3 363.6h.01M120.8 296.4h.01M90.0 264.7h.01M99.6 343.1h.01M104.2 374.8h.01M228.3 193.3h.01M208.0 355.9h.01M151.1 311.9h.01M52.9 342.1h.01M90.7 351.9h.01M69.4 356.2h.01M65.9 355.2h.01M94.3 128.5h.01M75.8 303.0h.01M257.4 293.7h.01M69.7 360.7h.01M55.5 317.5h.01M145.7 291.9h.01M132.1 215.9h.01M166.2 369.1h.01M156.5 316.7h.01M104.2 357.1h.01M281.2 360.4h.01M57.4 149.6h.01M112.1 306.5h.01M89.0 369.3h.01M97.4 275.3h.01M98.1 374.4h.01M139.2 293.3h.01M172.5 354.8h.01M95.9 370.7h.01M95.5 213.5h.01M76.6 239.4h.01M61.8 332.8h.01M180.8 345.6h.01M140.1 316.4h.01M135.9 329.7h.01M136.6 301.3h.01M218.1 374.3h.01M94.2 305.5h.01M185.6 346.1h.01M131.1 211.9h.01M111.1 279.6h.01M79.0 263.8h.01M84.5 183.8h.01M94.8 98.2h.01M53.6 313.2h.01M55.6 310.0h.01M71.0 156.0h.01M81.7 290.1h.01M223.2 343.8h.01M300.0 358.5h.01M83.9 266.7h.01M48.9 326.4h.01M284.6 344.2h.01M92.5 360.3h.01M89.0 176.3h.01M308.4 354.7h.01M65.3 310.1h.01M72.4 312.9h.01M97.0 323.3h.01M237.3 355.3h.01M89.8 290.5h.01M111.3 283.1h.01M61.5 166.5h.01M296.2 373.8h.01M171.9 335.2h.01M71.5 244.5h.01M83.5 361.3h.01M269.3 267.7h.01M131.2 280.6h.01M168.8 354.1h.01M95.6 302.1h.01M93.0 198.2h.01M155.5 321.3h.01M48.3 352.4h.01M96.1 354.1h.01M162.9 373.6h.01M159.7 342.5h.01M217.9 345.7h.01M79.1 139.6h.01M82.2 113.1h.01M125.7 290.5h.01M94.7 71.8h.01M77.1 129.4h.01M149.6 299.1h.01M83.0 373.9h.01M160.1 334.9h.01M127.0 297.0h.01M292.2 196.1h.01M89.0 340.5h.01M174.4 337.6h.01M130.6 296.1h.01M97.3 304.7h.01M67.5 160.7h.01M187.2 358.8h.01M103.4 336.8h.01M62.8 355.1h.01M148.8 328.2h.01M124.0 297.0h.01M203.1 351.5h.01M175.1 345.9h.01M96.0 269.9h.01M263.1 353.9h.01M86.4 123.9h.01M118.4 302.8h.01M125.0 303.0h.01M262.8 350.6h.01M83.3 126.8h.01M89.5 274.2h.01M54.8 179.3h.01M104.6 228.0h.01M295.1 354.3h.01M63.4 370.4h.01M41.6 347.5h.01M146.5 330.5h.01M80.8 272.8h.01M41.2 339.5h.01M55.5 344.5h.01M147.9 235.8h.01M231.5 359.2h.01"/>
</svg>