<svg xmlns="http://www.w3.org/2000/svg" viewBox="0 0 360 432" role="img">
<path stroke="#1a1a1a" stroke-width="1.60" stroke-linecap="round" fill="none" d="M223.0 80.9h.01M191.8 158.3h.01M208.1 65.3h.01M208.0 114.5h.01M189.3 94.8h.01M191.9 58.5h.01M201.6 71.8h.01M182.0 136.1h.01M162.6 149.8h.01M25.1 357.2h.01M165.7 130.9h.01M178.9 80.7h.01M288.2 175.0h.01M207.1 85.1h.01M38.9 373.7h.01M89.9 422.1h.01M193.4 124.8h.01M217.3 87.1h.01M49.9 388.4h.01M165.2 81.8h.01M225.1 101.4h.01M183.8 102.0h.01M215.8 113.2h.01M190.1 150.9h.01M224.4 64.1h.01M198.3 64.6h.01M184.2 236.2h.01M156.2 144.4h.01M173.5 117.8h.01M166.9 122.2h.01M205.6 149.9h.01M200.5 155.7h.01M0.4 102.8h.01M215.2 78.9h.01M151.7 126.9h.01M187.6 79.1h.01M222.9 72.3h.01M237.8 101.2h.01M150.8 57.3h.01M199.1 92.2h.01M149.5 133.9h.01M176.3 151.1h.01M188.1 118.6h.01M191.7 50.9h.01M187.3 201.9h.01M213.3 104.7h.01M217.9 96.4h.01M200.4 130.5h.01M183.3 154.8h.01M225.6 91.5h.01M174.5 128.8h.01M231.9 96.9h.01M16.4 340.6h.01M223.1 117.9h.01M181.8 62.0h.01M180.7 205.2h.01M82.5 417.8h.01M186.4 209.3h.01M162.7 104.5h.01M166.6 112.4h.01M208.9 143.6h.01M248.5 430.7h.01M0.4 300.9h.01M171.8 136.9h.01M210.5 56.8h.01M222.4 135.7h.01M190.8 141.9h.01M207.7 125.3h.01M207.8 75.7h.01M210.8 156.3h.01M201.1 120.3h.01M0.4 281.0h.01M150.1 119.2h.01M229.7 84.6h.01M193.1 72.8h.01M195.5 114.0h.01M230.1 76.5h.01M215.1 121.7h.01M169.1 155.1h.01M186.4 221.0h.01M230.1 122.2h.01M167.3 62.7h.01M192.1 86.2h.01M200.2 140.3h.01M159.0 124.9h.01M202.2 108.6h.01M183.9 145.8h.01M174.1 67.5h.01M223.2 109.3h.01M167.6 95.4h.01M215.6 150.2h.01M163.8 140.7h.01M209.7 93.5h.01M231.2 429.3h.01M158.5 115.8h.01M152.1 72.2h.01M96.6 426.0h.01M29.7 362.6h.01M227.2 398.5h.01M177.6 95.5h.01M228.6 140.8h.01M188.2 109.0h.01M358.6 112.3h.01M185.4 128.9h.01M194.9 102.6h.01M176.5 108.3h.01M202.1 57.2h.01M181.3 114.1h.01M169.9 146.1h.01M42.5 380.5h.01M198.7 80.6h.01M33.9 368.5h.01M149.8 141.0h.01M229.4 131.5h.01M232.5 106.5h.01M75.4 412.4h.01M157.4 97.4h.01M181.9 214.0h.01M223.2 147.1h.01M157.6 134.6h.01M192.4 134.2h.01M204.5 100.4h.01M180.3 122.8h.01M215.2 70.1h.01M214.9 131.1h.01M172.5 87.1h.01M197.4 148.3h.01M182.6 88.2h.01M222.6 126.8h.01M177.2 142.8h.01M183.2 53.6h.01M216.8 141.0h.01M188.6 66.0h.01M57.9 395.0h.01M181.0 228.0h.01M207.9 135.3h.01M155.0 108.2h.01M174.8 58.0h.01M20.2 348.5h.01M171.4 102.9h.01M162.7 89.3h.01M235.1 89.6h.01M358.6 290.0h.01M199.5 49.2h.01M182.7 243.3h.01"/>
<path stroke="#1a1a1a" stroke-width="1.94" stroke-linecap="round" fill="none" d="M177.9 46.0h.01M134.1 264.3h.01M269.1 88.8h.01M235.2 55.0h.01M134.2 226.6h.01M193.0 43.6h.01M115.3 224.4h.01M262.1 108.5h.01M140.6 234.2h.01M197.4 213.2h.01M250.0 158.5h.01M181.2 327.6h.01M217.9 251.6h.01M265.8 133.5h.01M213.7 163.8h.01M169.3 241.1h.01M114.5 87.2h.01M172.8 76.4h.01M146.4 226.3h.01M116.2 80.6h.01M249.2 150.4h.01M264.7 280.8h.01M149.3 50.4h.01M153.3 159.4h.01M216.6 281.9h.01M33.3 355.0h.01M128.6 101.6h.01M89.8 104.1h.01M242.4 147.3h.01M111.7 74.8h.01M101.9 90.7h.01M242.8 87.8h.01M135.3 104.1h.01M200.4 218.4h.01M0.4 190.0h.01M131.2 144.9h.01M165.7 309.9h.01M139.2 159.2h.01M128.8 74.5h.01M222.0 257.2h.01M258.8 135.6h.01M232.7 231.4h.01M125.4 121.2h.01M224.0 155.5h.01M114.4 153.8h.01M54.4 376.8h.01M226.8 229.3h.01M273.1 131.8h.01M301.7 177.0h.01M148.5 149.8h.01M39.5 356.2h.01M144.3 75.0h.01M129.2 232.0h.01M255.4 161.8h.01M47.7 345.9h.01M239.2 112.3h.01M156.9 213.0h.01M241.9 106.8h.01M272.3 143.4h.01M209.3 168.2h.01M176.0 233.8h.01M236.7 140.2h.01M82.4 410.6h.01M76.0 268.8h.01M253.2 112.2h.01M232.2 166.5h.01M190.7 214.3h.01M121.5 127.8h.01M145.0 336.8h.01M231.0 410.5h.01M272.8 108.1h.01M153.1 64.5h.01M182.9 343.2h.01M257.2 314.3h.01M253.4 121.1h.01M254.8 177.2h.01M219.6 240.7h.01M211.8 238.4h.01M128.3 218.5h.01M119.6 228.2h.01M168.4 332.0h.01M97.4 114.8h.01M0.4 250.4h.01M21.8 336.7h.01M358.6 220.4h.01M117.8 218.7h.01M358.6 151.8h.01M261.2 171.5h.01M121.4 75.8h.01M297.2 174.2h.01M248.1 165.8h.01M151.1 265.5h.01M104.5 96.5h.01M224.1 303.8h.01M137.0 140.5h.01M158.3 77.7h.01M235.0 344.9h.01M117.5 116.9h.01M180.1 38.2h.01M230.9 159.4h.01M129.1 82.3h.01M119.0 122.5h.01M124.4 233.4h.01M249.1 72.3h.01M278.0 120.7h.01M189.9 343.4h.01M194.1 201.0h.01M279.9 109.8h.01M74.7 390.1h.01M164.2 46.6h.01M252.1 85.1h.01M243.6 138.2h.01M50.2 373.1h.01M254.8 169.4h.01M127.1 91.5h.01M169.8 213.5h.01M238.9 119.0h.01M234.8 146.8h.01M159.3 59.0h.01M241.3 166.6h.01M218.3 159.3h.01M262.4 100.8h.01M60.6 155.0h.01M260.3 81.2h.01M0.4 221.9h.01M64.5 241.4h.01M236.7 340.1h.01M129.6 109.8h.01M190.8 241.2h.01M140.2 229.1h.01M137.2 111.9h.01M236.3 171.8h.01M113.7 142.7h.01M150.2 336.2h.01M104.4 84.3h.01M158.9 163.6h.01M155.4 87.8h.01M150.6 43.1h.01M135.9 79.0h.01M142.6 46.7h.01M237.7 154.3h.01M130.6 136.6h.01M171.6 220.0h.01M259.5 127.4h.01M123.9 138.1h.01M241.1 59.8h.01M100.4 107.6h.01M127.1 152.9h.01M150.5 80.8h.01M222.3 48.1h.01M25.8 340.6h.01M163.2 274.7h.01M244.3 130.9h.01M259.5 88.2h.01M0.4 129.7h.01M146.9 163.5h.01M297.7 181.1h.01M142.3 262.0h.01M268.4 104.0h.01M137.7 63.6h.01M134.4 272.5h.01M187.9 171.2h.01M69.5 226.6h.01M192.5 225.6h.01M103.6 112.9h.01M39.0 365.4h.01M142.3 56.3h.01M112.1 160.2h.01M224.9 245.0h.01M160.3 156.7h.01M103.6 428.1h.01M237.0 72.8h.01M233.7 62.0h.01M134.0 165.0h.01M245.3 123.8h.01M256.4 144.0h.01M55.4 157.0h.01M35.8 360.5h.01M147.4 260.9h.01M77.6 406.3h.01M243.3 73.1h.01M115.8 95.5h.01M140.2 223.5h.01M120.8 148.5h.01M183.2 161.8h.01M106.8 103.5h.01M105.5 123.7h.01M204.2 249.0h.01M133.6 153.6h.01M192.6 207.0h.01M54.2 383.0h.01M146.7 112.1h.01M243.9 157.5h.01M180.7 191.0h.01M145.2 268.2h.01M274.9 126.0h.01M204.1 341.5h.01M123.0 0.4h.01M134.3 232.2h.01M94.9 419.0h.01M115.2 103.3h.01M74.5 401.3h.01M143.7 127.2h.01M165.4 54.3h.01M268.4 97.4h.01M233.6 351.0h.01M133.3 95.7h.01M194.5 219.3h.01M193.2 172.5h.01M181.2 198.1h.01M224.9 251.7h.01M0.4 206.5h.01M128.8 224.4h.01M236.9 126.0h.01M94.5 102.3h.01M162.1 336.3h.01M192.4 336.7h.01M133.6 57.8h.01M243.1 231.4h.01M142.7 136.0h.01M154.3 152.9h.01M188.2 230.0h.01M117.5 427.7h.01M170.2 307.3h.01M127.3 239.1h.01M107.0 69.2h.01M159.2 330.6h.01M144.2 239.3h.01M114.3 126.0h.01M105.1 212.0h.01M63.2 223.5h.01M136.5 124.6h.01M210.5 221.9h.01M140.0 217.4h.01M70.4 241.2h.01M187.9 165.0h.01M141.9 83.2h.01M275.0 114.4h.01M100.6 420.5h.01M132.3 244.6h.01M99.1 82.4h.01M113.4 218.6h.01M187.0 37.5h.01M109.1 108.7h.01M0.4 236.4h.01M78.9 114.4h.01M163.2 342.0h.01M292.8 178.7h.01M253.3 70.2h.01M119.1 141.8h.01M205.7 233.1h.01M194.8 37.4h.01M158.1 41.2h.01M142.9 105.9h.01M163.6 212.9h.01M224.6 162.9h.01M130.6 67.4h.01M96.0 89.1h.01M134.2 220.4h.01M50.1 360.5h.01M228.6 57.1h.01M251.6 100.2h.01M182.4 169.2h.01M126.8 61.9h.01M175.9 196.8h.01M111.2 428.1h.01M189.7 247.1h.01M177.1 166.3h.01M100.6 101.5h.01M228.7 50.6h.01M221.9 56.1h.01M107.4 117.4h.01M197.9 231.2h.01M178.4 221.4h.01M120.3 91.2h.01M0.4 172.1h.01M157.3 50.0h.01M31.3 348.2h.01M63.2 216.8h.01M141.4 152.7h.01M148.7 95.2h.01M170.6 44.4h.01M220.3 234.6h.01M122.7 84.1h.01M261.4 157.5h.01M170.9 164.1h.01M198.6 224.3h.01M214.6 170.7h.01M198.4 162.1h.01M248.5 107.5h.01M76.5 261.9h.01M103.3 74.6h.01M184.5 336.7h.01M69.3 405.9h.01M262.8 120.6h.01M136.8 148.0h.01M126.9 54.8h.01M293.3 184.9h.01M108.8 90.2h.01M165.6 38.7h.01M119.4 60.6h.01M117.3 110.1h.01M263.6 140.9h.01M143.4 144.7h.01M249.2 143.0h.01M181.9 71.7h.01M272.8 93.4h.01M188.2 330.7h.01M255.4 153.2h.01M175.7 214.9h.01M150.2 271.8h.01M210.9 269.6h.01M230.2 151.5h.01M270.8 138.1h.01M237.6 161.9h.01M237.8 235.5h.01M267.0 146.2h.01M27.6 352.2h.01M236.8 133.1h.01M251.9 128.7h.01M261.6 165.2h.01M152.8 222.7h.01M145.2 65.7h.01M0.4 264.8h.01M141.0 98.9h.01M249.4 173.6h.01M122.8 106.3h.01M208.9 41.4h.01M169.0 233.6h.01M267.5 126.6h.01M166.0 72.8h.01M132.0 118.0h.01M215.8 51.3h.01M174.5 202.9h.01M240.6 94.8h.01M251.7 136.2h.01M230.9 68.6h.01M118.3 161.3h.01M169.1 338.0h.01M134.1 87.5h.01M137.4 71.4h.01M68.7 153.2h.01M246.8 65.4h.01M182.8 249.5h.01M122.7 67.8h.01M234.6 364.0h.01M166.0 224.6h.01M187.5 194.9h.01M136.2 132.1h.01M239.8 287.6h.01M137.3 242.8h.01M152.2 229.9h.01M197.7 168.6h.01M158.5 346.6h.01M63.6 400.2h.01M97.9 77.0h.01M231.1 114.4h.01M175.2 307.8h.01M122.1 222.8h.01M175.9 248.0h.01M108.8 80.7h.01M299.1 230.2h.01M302.2 196.2h.01M112.8 64.7h.01M155.6 340.9h.01M256.4 105.0h.01M155.5 334.8h.01M234.5 0.4h.01M270.5 120.1h.01M358.6 254.0h.01M229.7 173.2h.01M257.6 96.5h.01M88.1 415.6h.01M94.4 109.7h.01M212.8 277.9h.01M160.2 67.9h.01M197.0 0.4h.01M144.9 255.5h.01M247.8 78.5h.01M258.5 75.3h.01M216.2 224.0h.01M129.8 126.7h.01M147.5 88.2h.01M186.3 307.6h.01M140.8 165.2h.01M239.8 66.2h.01M146.7 157.1h.01M111.9 114.0h.01M101.8 119.0h.01M125.7 144.5h.01M148.0 342.3h.01M138.8 266.7h.01M125.2 228.0h.01M232.4 241.3h.01M127.6 246.1h.01M126.0 132.0h.01M201.7 40.8h.01M288.1 181.6h.01M302.7 188.8h.01M48.7 380.3h.01M141.7 342.8h.01M131.9 237.9h.01M114.0 136.5h.01M277.6 103.9h.01M116.3 70.1h.01M173.2 38.2h.01M149.7 102.6h.01M246.8 115.9h.01M248.7 229.3h.01M245.3 100.2h.01M57.6 388.2h.01M264.0 93.0h.01M303.0 182.4h.01M122.5 98.6h.01M141.3 118.7h.01M75.2 274.5h.01M96.2 95.9h.01M220.3 228.4h.01M209.8 227.5h.01M137.2 238.0h.01M274.6 99.2h.01M267.4 113.3h.01M172.5 51.3h.01M85.8 0.4h.01M247.6 92.6h.01M119.1 133.9h.01M146.5 220.7h.01M140.3 91.8h.01M231.6 383.5h.01M135.4 50.5h.01M265.5 84.0h.01M0.4 152.3h.01M43.8 367.8h.01M175.9 241.0h.01M124.1 114.4h.01M227.1 237.4h.01M213.8 231.9h.01M151.6 216.3h.01M150.0 251.7h.01M207.6 48.9h.01M145.5 215.1h.01M176.5 332.6h.01M165.1 161.2h.01M206.3 161.6h.01M196.8 342.1h.01M215.6 44.3h.01M110.6 97.8h.01M176.5 338.5h.01M215.2 245.4h.01M170.4 343.8h.01M160.0 0.4h.01M300.5 216.5h.01M237.2 80.8h.01M203.3 167.3h.01M25.6 346.1h.01M253.4 92.1h.01M244.0 82.0h.01M152.7 346.5h.01M358.6 186.5h.01M226.7 388.6h.01M176.0 159.3h.01M193.6 235.5h.01M140.5 272.1h.01M225.8 168.7h.01M142.5 244.9h.01M172.5 226.8h.01M219.5 167.6h.01M273.1 0.4h.01M193.0 166.2h.01M259.0 115.5h.01M216.6 61.7h.01M175.5 208.7h.01M146.9 233.0h.01M253.8 78.6h.01M185.3 45.2h.01"/>
<path stroke="#1a1a1a" stroke-width="2.43" stroke-linecap="round" fill="none" d="M112.9 204.3h.01M100.7 254.3h.01M192.5 276.2h.01M285.8 165.1h.01M144.9 276.3h.01M121.6 311.3h.01M111.7 197.0h.01M174.4 351.9h.01M114.0 130.9h.01M63.1 288.2h.01M232.0 271.3h.01M96.8 232.0h.01M261.1 149.2h.01M296.2 227.0h.01M117.3 265.0h.01M114.9 213.2h.01M158.5 352.4h.01M236.1 247.6h.01M207.2 281.7h.01M158.0 217.5h.01M234.4 302.3h.01M101.3 221.7h.01M85.6 161.2h.01M61.8 355.3h.01M59.0 368.9h.01M152.9 245.2h.01M206.8 277.3h.01M273.4 188.6h.01M61.0 184.8h.01M199.7 173.0h.01M57.1 220.0h.01M296.4 215.7h.01M281.6 250.6h.01M188.2 280.4h.01M126.1 297.0h.01M130.5 250.5h.01M109.6 415.0h.01M186.0 324.6h.01M136.1 341.4h.01M206.1 217.4h.01M203.0 237.3h.01M102.0 180.2h.01M59.2 380.6h.01M274.3 207.0h.01M61.1 314.1h.01M238.0 241.5h.01M84.8 173.6h.01M59.5 330.1h.01M229.6 404.8h.01M75.5 177.3h.01M213.9 176.1h.01M108.5 318.1h.01M219.3 309.2h.01M146.3 169.2h.01M86.1 185.7h.01M285.0 158.8h.01M93.4 228.6h.01M96.7 227.4h.01M111.8 121.1h.01M45.6 355.7h.01M235.4 297.9h.01M70.8 208.4h.01M77.9 121.1h.01M116.8 308.8h.01M284.6 177.4h.01M41.5 346.8h.01M80.3 375.1h.01M80.9 108.5h.01M239.0 281.7h.01M267.1 197.7h.01M97.0 286.0h.01M183.9 348.6h.01M81.9 180.9h.01M61.9 319.2h.01M110.3 238.5h.01M66.6 319.0h.01M91.6 176.8h.01M31.1 342.9h.01M256.9 228.9h.01M122.0 291.7h.01M62.0 346.8h.01M56.6 231.7h.01M117.3 232.5h.01M64.9 158.1h.01M128.6 429.0h.01M45.3 374.0h.01M73.9 152.1h.01M282.1 143.5h.01M260.6 177.6h.01M270.9 178.2h.01M286.1 261.2h.01M122.1 260.8h.01M68.7 396.0h.01M291.0 237.8h.01M73.7 185.8h.01M286.2 152.9h.01M93.2 83.7h.01M97.5 275.9h.01M163.4 327.4h.01M246.8 284.9h.01M246.3 280.1h.01M107.8 284.8h.01M195.2 176.7h.01M101.2 158.0h.01M137.9 277.6h.01M197.9 347.9h.01M70.5 169.5h.01M112.5 276.5h.01M219.1 314.9h.01M168.9 247.9h.01M66.7 246.7h.01M146.5 325.4h.01M77.7 345.4h.01M257.0 242.3h.01M75.3 348.3h.01M187.3 253.5h.01M277.1 186.7h.01M283.3 257.3h.01M74.9 372.8h.01M155.2 311.3h.01M244.5 236.4h.01M128.8 274.8h.01M62.0 342.2h.01M100.6 235.4h.01M58.1 301.1h.01M129.2 291.9h.01M51.3 325.0h.01M72.8 247.0h.01M195.8 250.6h.01M110.1 222.6h.01M266.7 182.1h.01M277.1 247.7h.01M92.7 264.3h.01M108.3 261.6h.01M104.7 253.0h.01M57.1 192.9h.01M82.3 402.4h.01M204.8 312.7h.01M120.9 268.4h.01M289.3 254.8h.01M80.0 155.7h.01M117.1 260.4h.01M126.1 307.3h.01M243.0 241.0h.01M291.4 248.6h.01M95.6 165.4h.01M64.9 327.9h.01M272.4 183.0h.01M110.1 208.2h.01M198.0 309.2h.01M121.3 327.1h.01M211.1 217.0h.01M196.6 279.0h.01M121.7 331.9h.01M275.7 213.2h.01M85.4 155.5h.01M102.9 204.6h.01M242.5 329.5h.01M106.4 163.0h.01M107.4 197.7h.01M235.7 278.5h.01M113.5 304.1h.01M97.0 256.3h.01M261.9 229.0h.01M222.7 263.5h.01M83.7 200.6h.01M55.8 202.9h.01M180.2 175.3h.01M88.9 110.3h.01M157.7 274.4h.01M278.4 150.3h.01M128.9 264.2h.01M91.5 115.4h.01M211.8 254.7h.01M118.6 421.5h.01M80.1 162.6h.01M230.5 415.4h.01M222.4 297.7h.01M280.2 184.0h.01M228.2 299.5h.01M75.4 171.7h.01M114.4 293.9h.01M59.9 350.9h.01M157.3 240.3h.01M157.3 226.6h.01M284.6 138.4h.01M234.2 283.8h.01M134.0 425.3h.01M236.4 274.0h.01M134.5 198.5h.01M178.1 185.0h.01M138.7 258.4h.01M224.3 222.9h.01M276.4 192.4h.01M149.7 303.3h.01M92.1 405.8h.01M267.3 162.8h.01M213.4 265.1h.01M271.9 155.3h.01M108.0 150.5h.01M87.1 138.4h.01M86.9 133.3h.01M87.0 216.4h.01M157.7 308.3h.01M100.9 296.1h.01M165.0 167.1h.01M198.5 240.8h.01M80.6 356.5h.01M152.5 257.9h.01M59.0 159.9h.01M106.4 206.4h.01M68.3 353.8h.01M119.7 205.7h.01M288.4 242.4h.01M294.2 190.4h.01M257.1 219.0h.01M95.5 120.2h.01M56.8 182.8h.01M125.6 302.0h.01M226.1 424.7h.01M220.1 277.3h.01M297.7 212.1h.01M86.9 117.9h.01M70.5 181.0h.01M134.9 336.4h.01M77.6 193.4h.01M142.7 315.2h.01M56.5 208.1h.01M79.5 168.5h.01M73.7 365.1h.01M173.1 326.2h.01M203.3 308.9h.01M243.0 282.8h.01M269.8 190.6h.01M90.3 207.1h.01M244.6 272.0h.01M126.4 197.9h.01M126.0 406.0h.01M188.0 312.8h.01M276.1 180.7h.01M104.1 288.3h.01M245.5 189.2h.01M59.4 227.8h.01M62.6 367.1h.01M131.0 340.5h.01M165.2 304.6h.01M91.4 369.6h.01M99.8 291.0h.01M131.7 309.5h.01M125.7 326.8h.01M86.5 178.9h.01M231.2 277.8h.01M272.6 149.6h.01M255.2 183.1h.01M37.6 325.7h.01M281.9 239.0h.01M57.0 347.3h.01M285.9 237.2h.01M248.8 273.1h.01M131.5 326.9h.01M108.4 132.8h.01M160.1 208.7h.01M233.8 183.5h.01M105.9 292.5h.01M148.2 314.1h.01M120.3 235.1h.01M114.1 147.9h.01M243.6 293.9h.01M127.3 337.4h.01M293.4 243.7h.01M70.0 343.1h.01M28.5 335.1h.01M255.9 223.8h.01M154.9 208.1h.01M101.3 373.7h.01M125.4 213.6h.01M102.0 148.3h.01M131.9 319.9h.01M93.5 125.6h.01M245.4 276.4h.01M227.4 259.2h.01M104.9 135.6h.01M101.1 386.9h.01M186.5 181.3h.01M52.0 211.9h.01M202.3 177.1h.01M203.3 228.1h.01M62.5 371.9h.01M132.0 280.2h.01M84.3 356.9h.01M134.4 214.7h.01M149.7 241.6h.01M207.4 335.6h.01M124.2 264.5h.01M227.2 307.7h.01M107.5 274.5h.01M97.0 128.9h.01M90.8 268.1h.01M215.1 320.6h.01M102.8 168.3h.01M101.1 271.4h.01M84.2 129.6h.01M100.2 400.9h.01M259.7 238.6h.01M95.1 185.9h.01M169.2 203.1h.01M105.8 226.9h.01M52.1 349.8h.01M73.5 236.5h.01M231.2 294.3h.01M103.4 414.2h.01M88.8 201.5h.01M96.4 223.1h.01M281.9 154.5h.01M283.5 148.7h.01M91.4 282.7h.01M80.1 174.9h.01M245.2 289.5h.01M121.2 283.1h.01M143.0 303.5h.01M105.1 237.0h.01M119.0 244.0h.01M204.8 271.6h.01M210.1 249.2h.01M122.6 217.1h.01M204.5 222.6h.01M209.3 318.4h.01M106.4 418.3h.01M131.3 159.7h.01M105.8 323.5h.01M283.7 123.1h.01M137.1 307.0h.01M132.5 345.6h.01M204.6 347.4h.01M104.2 313.8h.01M101.0 231.5h.01M99.8 211.7h.01M95.1 280.3h.01M60.9 233.9h.01M262.5 218.5h.01M198.8 320.2h.01M142.9 309.4h.01M96.5 153.2h.01M91.1 272.6h.01M115.4 208.3h.01M51.1 200.4h.01M95.7 159.7h.01M94.0 202.4h.01M58.7 374.6h.01M116.9 202.1h.01M152.6 307.9h.01M244.5 224.8h.01M95.5 402.5h.01M230.2 254.6h.01M155.5 321.5h.01M99.2 263.2h.01M178.8 349.0h.01M206.5 260.6h.01M199.9 335.3h.01M109.1 326.3h.01M126.8 285.9h.01M143.2 250.2h.01M101.8 382.4h.01M261.4 183.2h.01M241.2 277.0h.01M73.8 132.5h.01M152.4 236.8h.01M103.1 276.3h.01M65.9 183.0h.01M84.4 206.1h.01M124.7 160.5h.01M123.9 419.1h.01M220.4 319.0h.01M198.2 245.9h.01M92.0 137.3h.01M68.9 219.8h.01M111.0 289.1h.01M63.6 162.9h.01M109.3 216.6h.01M189.5 176.8h.01M109.0 138.9h.01M104.6 319.0h.01M96.5 260.5h.01M284.2 266.8h.01M135.8 330.3h.01M95.9 271.8h.01M96.7 180.3h.01M164.9 347.6h.01M260.0 234.1h.01M282.0 116.1h.01M152.2 329.9h.01M142.7 321.7h.01M70.6 175.5h.01M199.3 314.7h.01M281.1 179.8h.01M267.5 158.1h.01M45.4 320.3h.01M48.3 315.2h.01M112.7 257.6h.01M113.0 172.0h.01M220.6 287.0h.01M84.9 106.2h.01M287.1 247.3h.01M69.1 213.5h.01M248.8 222.1h.01M154.7 284.6h.01M110.1 253.6h.01M88.3 195.7h.01M62.9 384.3h.01M116.2 271.2h.01M165.3 218.6h.01M87.5 360.2h.01M170.8 170.6h.01M280.1 230.6h.01M95.7 409.4h.01M67.2 379.2h.01M110.2 201.5h.01M203.5 213.5h.01M55.8 187.6h.01M201.2 275.0h.01M107.5 169.8h.01M248.3 239.4h.01M133.8 254.1h.01M270.9 201.5h.01M232.6 178.0h.01M227.3 274.2h.01M129.8 259.8h.01M78.7 149.5h.01M66.4 236.4h.01M206.0 324.8h.01M163.9 352.9h.01M107.3 156.5h.01M54.3 319.1h.01M198.7 177.7h.01M126.3 166.3h.01M92.7 288.0h.01M166.5 286.1h.01M54.8 338.7h.01M230.7 248.2h.01M150.1 280.1h.01M168.2 280.5h.01M226.8 178.3h.01M204.7 286.1h.01M91.7 219.6h.01M223.2 174.2h.01M117.9 278.0h.01M95.9 378.1h.01M99.9 185.8h.01M88.4 96.6h.01M84.8 167.1h.01M102.5 129.5h.01M88.8 258.4h.01M163.6 240.7h.01M92.9 170.5h.01M290.5 202.6h.01M241.0 188.2h.01M100.1 144.2h.01M238.4 177.6h.01M201.6 282.6h.01M197.9 208.0h.01M51.5 190.6h.01M280.3 225.9h.01M216.6 272.4h.01M108.4 257.2h.01M277.0 243.9h.01M281.2 128.1h.01M81.2 139.9h.01M122.0 256.3h.01M110.1 212.6h.01M200.6 268.5h.01M86.6 405.3h.01M55.0 327.6h.01M267.6 217.1h.01M104.4 257.5h.01M268.7 206.0h.01M95.9 133.7h.01M289.6 207.1h.01M69.9 232.9h.01M92.4 190.5h.01M158.8 169.3h.01M105.6 218.4h.01M107.2 144.4h.01M48.5 366.7h.01M250.2 281.7h.01M288.8 188.5h.01M98.8 202.2h.01M36.0 349.1h.01M217.1 259.6h.01M197.2 284.6h.01M192.7 309.1h.01M160.7 286.3h.01M84.5 143.8h.01M126.4 253.0h.01M131.2 333.8h.01M73.6 222.9h.01M190.3 304.2h.01M93.6 196.5h.01M75.8 126.6h.01M98.1 191.7h.01M137.0 301.5h.01M94.5 398.1h.01M193.9 352.2h.01M104.4 200.9h.01M88.0 262.9h.01M276.2 201.3h.01M271.6 267.6h.01M298.0 205.1h.01M121.2 196.5h.01M98.2 170.2h.01M143.6 348.3h.01M282.2 190.3h.01M239.1 227.7h.01M278.4 254.2h.01M126.4 203.8h.01M229.0 283.2h.01M118.9 298.3h.01M169.8 208.1h.01M49.7 173.7h.01M249.8 234.1h.01M102.2 153.0h.01M79.3 186.0h.01M121.9 410.2h.01M62.3 296.6h.01M222.7 282.4h.01M152.6 313.5h.01M91.7 131.5h.01M52.8 314.9h.01M113.9 230.3h.01M56.5 197.9h.01M218.3 174.7h.01M137.3 345.9h.01M168.1 325.8h.01M48.5 181.1h.01M126.3 318.1h.01M209.6 174.1h.01M79.5 348.8h.01M231.7 306.3h.01M249.6 180.6h.01M76.0 137.8h.01M189.8 348.9h.01M105.7 232.0h.01M75.3 217.2h.01M49.9 320.4h.01M101.0 266.5h.01M107.4 280.2h.01M101.7 284.2h.01M240.6 271.9h.01M69.3 326.1h.01M108.6 127.8h.01M184.7 175.6h.01M121.7 274.6h.01M168.0 313.3h.01M82.7 195.3h.01M294.6 208.5h.01M162.9 229.6h.01M206.3 266.0h.01M36.2 344.2h.01M252.4 218.3h.01M121.6 322.0h.01M60.7 292.4h.01M100.6 163.3h.01M217.0 296.8h.01M90.6 163.8h.01M297.3 219.4h.01M277.4 267.9h.01M261.4 223.7h.01M137.9 312.4h.01M145.3 282.3h.01M162.5 280.4h.01M69.6 389.5h.01M51.9 177.5h.01M205.7 178.0h.01M82.2 135.5h.01M300.6 208.9h.01M152.5 170.7h.01M229.2 420.6h.01M105.5 222.5h.01M149.2 210.4h.01M186.9 187.7h.01M86.7 271.0h.01M146.6 330.1h.01M274.3 197.1h.01M277.8 139.3h.01M205.0 172.7h.01M55.2 323.4h.01M170.7 348.9h.01M180.3 310.9h.01M113.8 282.8h.01M185.2 353.2h.01M97.3 218.7h.01M78.9 132.0h.01M279.1 134.1h.01M247.9 216.3h.01M157.4 233.1h.01M123.1 429.0h.01M294.6 202.7h.01M40.4 351.5h.01M161.8 269.8h.01M91.2 213.4h.01M82.0 189.7h.01M210.0 273.9h.01M68.2 335.8h.01M90.2 121.7h.01M176.8 172.1h.01M252.4 242.8h.01M98.0 414.5h.01M112.6 166.5h.01M52.5 310.0h.01M115.7 197.9h.01M276.8 233.3h.01M266.7 173.4h.01M103.1 189.9h.01M127.1 257.0h.01M91.0 157.4h.01M301.4 202.4h.01M148.3 353.0h.01M52.6 182.1h.01M114.3 236.2h.01M43.1 361.3h.01M124.1 243.1h.01M296.2 234.1h.01M72.5 256.3h.01M98.8 197.1h.01M96.7 175.0h.01M75.9 158.5h.01M267.8 168.4h.01M139.8 336.8h.01M133.4 286.2h.01M88.4 170.5h.01M141.5 331.6h.01M101.5 216.0h.01M61.4 178.8h.01M56.0 305.7h.01M152.1 325.2h.01M170.6 194.7h.01M204.5 316.8h.01M162.9 246.3h.01M222.3 272.1h.01M253.5 238.1h.01M122.3 201.4h.01M147.9 308.7h.01M79.3 397.5h.01M210.4 340.8h.01M59.7 339.0h.01M122.6 247.2h.01M75.2 352.3h.01M253.2 188.4h.01M52.8 161.2h.01M183.0 185.4h.01M51.1 206.4h.01M283.9 199.7h.01M202.1 278.7h.01M237.3 292.6h.01M75.8 242.8h.01M105.8 269.0h.01M71.4 139.7h.01M131.1 194.8h.01M74.6 230.4h.01M173.6 313.1h.01M64.7 230.6h.01M111.3 266.3h.01M92.7 413.2h.01M123.2 172.7h.01M278.0 236.6h.01M89.9 90.6h.01M160.3 304.6h.01M138.0 318.6h.01M129.8 268.6h.01M50.1 186.3h.01M239.4 182.5h.01M57.4 213.5h.01M44.6 338.7h.01M286.0 193.9h.01M112.4 421.6h.01M51.5 195.0h.01M100.1 280.1h.01M120.7 154.8h.01M249.5 277.3h.01M90.5 151.9h.01M135.8 323.6h.01M149.5 321.4h.01M208.6 288.1h.01M139.9 350.3h.01M147.9 348.2h.01M117.8 287.9h.01M211.0 324.7h.01M191.8 253.1h.01M33.8 333.7h.01M154.8 303.7h.01M44.9 342.7h.01M212.0 260.1h.01M95.7 214.4h.01M244.3 178.4h.01M152.8 165.8h.01M84.3 100.7h.01M95.0 208.4h.01M42.9 335.3h.01M58.6 296.6h.01M132.9 315.0h.01M62.5 210.9h.01M33.7 329.2h.01M82.0 118.0h.01M282.2 244.3h.01M99.5 124.1h.01M153.2 276.3h.01M277.6 240.5h.01M170.6 198.8h.01M280.4 196.3h.01M96.6 140.0h.01M272.6 216.1h.01M110.2 228.4h.01M295.8 239.1h.01M177.5 254.3h.01M90.9 142.6h.01M192.6 282.7h.01M126.6 313.2h.01M68.8 163.8h.01M225.6 278.9h.01M63.7 250.6h.01M93.3 233.0h.01M33.4 338.8h.01M102.4 139.7h.01M112.8 261.9h.01M122.0 239.1h.01M137.0 248.7h.01M67.9 384.3h.01M119.4 212.1h.01M244.4 184.0h.01M249.2 185.9h.01M223.7 311.6h.01M100.1 207.5h.01M160.3 222.2h.01M63.0 377.2h.01M214.9 287.0h.01M123.8 250.5h.01M43.0 331.6h.01M100.3 134.5h.01M91.7 224.6h.01M234.1 359.4h.01M213.9 290.8h.01M135.8 170.6h.01M54.8 370.1h.01M219.8 292.1h.01M157.0 280.4h.01M164.5 206.2h.01M139.2 282.5h.01M176.3 344.7h.01M58.0 334.8h.01M286.5 144.3h.01M96.1 267.1h.01M84.4 112.8h.01M110.9 270.9h.01M83.4 369.4h.01M105.1 264.0h.01M277.5 145.5h.01M280.9 175.1h.01M203.0 321.6h.01M264.0 207.6h.01M86.8 190.9h.01M105.1 300.9h.01M101.0 227.0h.01M156.3 268.5h.01M285.4 252.6h.01M65.6 343.6h.01M127.2 331.4h.01M241.1 298.0h.01M57.8 316.9h.01M165.0 172.5h.01M84.4 149.6h.01M157.3 248.1h.01M109.9 234.1h.01M125.5 279.3h.01M92.5 260.1h.01M130.7 200.7h.01M119.1 167.9h.01M80.6 126.5h.01M274.2 272.1h.01M71.5 145.8h.01M59.7 239.1h.01M162.8 235.4h.01M211.2 283.8h.01M140.4 326.5h.01M188.4 286.2h.01M61.0 305.8h.01M117.4 239.1h.01M232.3 288.8h.01M50.6 341.6h.01M270.4 194.6h.01M193.6 314.2h.01M86.3 211.0h.01M77.7 144.1h.01M226.6 268.3h.01M123.9 424.0h.01M152.9 352.6h.01M218.8 267.0h.01M269.6 186.2h.01M129.6 171.2h.01M118.8 405.2h.01M284.9 132.3h.01M255.0 233.5h.01M195.0 330.5h.01M101.6 259.9h.01M64.1 390.9h.01M213.8 315.0h.01M119.7 304.3h.01M71.1 201.2h.01M91.3 276.7h.01M219.0 303.5h.01M60.8 245.4h.01M84.4 123.2h.01M146.3 318.4h.01M88.5 127.2h.01M209.2 310.3h.01M264.7 232.7h.01M231.3 216.4h.01M299.4 223.5h.01M76.5 181.8h.01M270.4 211.2h.01M278.7 209.9h.01M284.9 184.8h.01M276.9 155.4h.01M277.5 274.9h.01M89.6 147.2h.01M157.1 326.1h.01M252.0 226.5h.01M106.3 423.2h.01M161.2 310.3h.01M90.7 183.4h.01M266.6 152.5h.01M88.3 410.0h.01M139.4 253.6h.01M243.3 172.6h.01M284.6 171.1h.01M134.1 258.8h.01M180.2 180.1h.01M74.4 395.3h.01M280.6 263.2h.01"/>
<path stroke="#1a1a1a" stroke-width="2.89" stroke-linecap="round" fill="none" d="M160.4 357.7h.01M222.9 369.6h.01M286.6 203.5h.01M137.4 192.4h.01M176.7 428.2h.01M139.1 425.9h.01M241.8 308.3h.01M229.5 263.9h.01M89.3 400.4h.01M77.9 277.5h.01M254.2 271.3h.01M223.8 333.9h.01M174.7 180.9h.01M147.7 388.3h.01M178.1 319.6h.01M169.3 371.6h.01M108.0 304.9h.01M60.3 165.5h.01M261.7 189.6h.01M100.5 239.5h.01M107.2 180.4h.01M130.3 206.6h.01M172.3 383.2h.01M109.5 405.9h.01M188.5 290.8h.01M168.7 392.0h.01M258.0 187.1h.01M86.0 289.4h.01M250.2 321.5h.01M171.2 358.5h.01M128.0 345.3h.01M117.9 412.5h.01M78.5 197.9h.01M96.9 250.9h.01M248.4 243.6h.01M86.9 280.4h.01M158.0 314.9h.01M206.9 184.2h.01M95.2 147.2h.01M250.6 304.0h.01M257.7 265.5h.01M127.9 322.8h.01M97.1 317.8h.01M56.7 177.9h.01M163.8 399.8h.01M249.8 191.3h.01M265.3 191.9h.01M65.8 178.0h.01M209.1 296.5h.01M240.9 302.9h.01M89.9 305.9h.01M182.3 367.0h.01M124.5 414.7h.01M151.0 366.7h.01M249.1 208.5h.01M63.9 358.4h.01M41.9 323.7h.01M251.4 212.8h.01M254.2 295.0h.01M101.0 409.5h.01M223.2 322.5h.01M111.3 322.1h.01M148.7 286.4h.01M113.3 181.7h.01M278.2 258.9h.01M56.0 353.8h.01M161.0 396.7h.01M259.7 204.2h.01M274.1 251.9h.01M161.2 391.4h.01M271.5 227.0h.01M136.5 429.6h.01M132.4 353.2h.01M78.3 257.0h.01M245.9 245.9h.01M91.5 377.5h.01M142.6 286.7h.01M112.0 401.3h.01M193.9 422.5h.01M212.5 297.8h.01M183.0 254.9h.01M106.6 401.5h.01M217.4 184.3h.01M193.9 358.1h.01M258.9 208.8h.01M165.4 428.9h.01M249.3 195.5h.01M264.6 201.9h.01M265.3 186.8h.01M122.6 208.7h.01M202.5 304.5h.01M72.1 354.7h.01M194.6 304.3h.01M272.0 165.3h.01M250.8 298.8h.01M95.5 370.0h.01M228.4 333.6h.01M130.4 212.4h.01M216.2 180.0h.01M198.8 357.7h.01M90.0 291.3h.01M117.4 175.2h.01M71.6 339.3h.01M200.5 259.0h.01M68.9 331.2h.01M93.9 319.1h.01M253.9 260.6h.01M269.0 230.4h.01M255.6 255.2h.01M46.7 330.0h.01M271.8 172.8h.01M142.3 203.8h.01M172.8 430.1h.01M259.5 256.0h.01M87.0 222.5h.01M106.6 409.6h.01M96.9 393.1h.01M60.9 200.2h.01M237.3 268.9h.01M79.4 269.4h.01M171.2 375.5h.01M275.9 227.5h.01M224.9 182.1h.01M74.2 358.5h.01M210.6 345.9h.01M205.2 330.5h.01M193.7 319.4h.01M80.3 229.7h.01M117.4 181.0h.01M165.3 200.9h.01M267.6 245.4h.01M143.4 360.7h.01M140.9 358.3h.01M246.8 268.3h.01M169.9 321.9h.01M112.3 358.2h.01M253.6 251.4h.01M279.4 159.8h.01M183.0 320.3h.01M292.5 198.2h.01M52.5 169.9h.01M84.9 363.8h.01M65.8 173.3h.01M149.6 390.9h.01M177.2 323.7h.01M167.6 360.8h.01M154.0 375.1h.01M180.5 428.9h.01M94.6 303.9h.01M100.3 248.4h.01M268.5 257.7h.01M88.6 395.5h.01M183.7 363.3h.01M106.5 193.1h.01M66.4 367.7h.01M171.7 184.8h.01M114.2 337.9h.01M262.4 290.4h.01M137.1 359.2h.01M101.3 316.6h.01M136.1 354.9h.01M120.9 317.1h.01M47.9 334.5h.01M120.6 415.8h.01M191.1 184.1h.01M71.0 348.5h.01M255.6 199.3h.01M157.9 382.7h.01M84.3 256.6h.01M65.3 187.9h.01M204.2 405.4h.01M81.7 296.3h.01M163.3 383.6h.01M260.5 280.7h.01M82.6 224.3h.01M172.8 371.5h.01M91.6 237.3h.01M260.3 299.0h.01M225.6 316.1h.01M242.1 267.0h.01M88.0 285.6h.01M193.3 288.7h.01M72.1 191.1h.01M153.0 381.4h.01M145.3 175.3h.01M237.6 263.8h.01M160.4 403.3h.01M209.1 350.2h.01M257.3 251.8h.01M60.7 205.1h.01M82.2 361.0h.01M172.5 257.9h.01M280.4 169.0h.01M255.3 300.5h.01M189.8 353.7h.01M179.8 353.5h.01M268.0 241.5h.01M157.8 391.2h.01M282.8 208.3h.01M273.5 160.2h.01M270.0 253.2h.01M63.9 332.5h.01M168.6 430.1h.01M180.4 362.3h.01M222.9 391.6h.01M189.9 425.9h.01M254.1 193.9h.01M196.2 255.9h.01M235.7 224.2h.01M93.0 254.6h.01M270.8 234.1h.01M116.1 251.0h.01M86.1 294.1h.01M226.2 185.8h.01M109.1 353.6h.01M85.1 228.0h.01M170.9 316.7h.01M152.9 317.7h.01M237.2 307.6h.01M234.0 338.0h.01M162.2 427.0h.01M220.3 219.9h.01M258.6 290.2h.01M239.9 215.1h.01M68.1 253.2h.01M203.4 181.4h.01M110.1 184.8h.01M183.3 315.2h.01M224.7 216.9h.01M146.6 369.1h.01M157.9 362.8h.01M277.4 172.6h.01M87.2 385.9h.01M106.1 241.6h.01M160.2 252.6h.01M257.5 272.7h.01M78.1 386.6h.01M246.2 299.6h.01M85.5 251.3h.01M93.7 241.5h.01M233.8 371.8h.01M49.8 338.1h.01M200.4 327.7h.01M183.5 285.0h.01M75.7 206.6h.01M191.0 324.7h.01M175.7 261.0h.01M288.4 198.3h.01M290.7 211.0h.01M72.6 196.0h.01M102.1 174.6h.01M92.3 385.5h.01M62.1 309.9h.01M164.6 180.2h.01M81.8 280.3h.01M155.5 368.0h.01M51.6 165.6h.01M137.9 196.5h.01M62.4 301.0h.01M73.2 252.1h.01M250.6 259.3h.01M157.4 387.8h.01M75.6 212.1h.01M243.3 248.7h.01M260.0 276.1h.01M184.3 428.3h.01M94.3 246.8h.01M163.0 361.7h.01M155.5 174.0h.01M173.7 319.6h.01M256.6 277.1h.01M180.9 262.3h.01M203.3 209.3h.01M273.0 242.6h.01M112.6 411.5h.01M222.6 429.3h.01M100.7 305.2h.01M265.0 269.8h.01M170.0 291.6h.01M148.8 173.7h.01M131.3 303.0h.01M211.6 393.8h.01M168.0 255.4h.01M158.7 204.1h.01M199.9 288.7h.01M210.0 390.6h.01M40.8 342.6h.01M245.4 193.1h.01M86.4 303.2h.01M254.1 290.2h.01M180.6 258.5h.01M96.0 237.2h.01M262.0 267.0h.01M143.6 364.3h.01M224.5 416.6h.01M279.5 203.4h.01M85.9 391.3h.01M114.5 242.1h.01M142.8 367.4h.01M253.0 274.6h.01M258.4 195.7h.01M204.2 291.4h.01M219.7 211.4h.01M164.2 394.2h.01M155.2 393.0h.01M123.0 336.4h.01M74.5 343.2h.01M139.8 378.5h.01M188.0 429.5h.01M262.0 285.2h.01M198.3 429.2h.01M256.0 213.5h.01M174.3 176.3h.01M262.3 272.5h.01M92.4 309.8h.01M89.5 244.7h.01M52.7 345.3h.01M168.6 426.7h.01M83.4 331.6h.01M261.1 260.5h.01M56.2 163.6h.01M91.6 373.5h.01M117.8 398.3h.01M69.0 363.6h.01M151.0 386.0h.01M108.9 337.4h.01M85.8 275.8h.01M211.9 181.1h.01M67.3 322.9h.01M117.5 324.8h.01M85.7 298.7h.01M234.8 253.8h.01M84.1 260.6h.01M153.5 288.5h.01M168.5 399.5h.01M147.1 358.0h.01M258.9 269.3h.01M79.5 330.4h.01M205.5 255.2h.01M151.8 392.8h.01M214.6 391.4h.01M84.1 340.2h.01M221.5 424.3h.01M273.6 223.4h.01M186.6 361.2h.01M108.0 250.5h.01M70.8 158.6h.01M141.2 371.5h.01M216.6 383.5h.01M112.6 333.7h.01M169.3 364.1h.01M191.0 189.7h.01M161.7 178.0h.01M275.7 176.4h.01M229.3 212.2h.01M281.3 271.1h.01M229.6 328.3h.01M82.9 387.7h.01M163.6 365.4h.01M209.7 178.3h.01M115.8 402.7h.01M263.3 257.7h.01M174.0 362.8h.01M164.1 379.5h.01M75.2 336.8h.01M143.8 209.9h.01M247.1 252.2h.01M198.3 203.5h.01M109.5 360.2h.01M146.9 201.2h.01M246.3 264.7h.01M217.5 331.4h.01M53.9 364.4h.01M291.9 218.6h.01M79.0 220.9h.01M72.5 380.2h.01M250.1 309.3h.01M59.1 363.6h.01M264.7 238.3h.01M247.9 261.2h.01M138.0 288.5h.01M229.7 183.5h.01M77.7 382.3h.01M80.5 209.3h.01M196.0 324.6h.01M170.0 379.1h.01M245.4 259.4h.01M215.6 344.5h.01M260.1 199.9h.01M139.1 211.8h.01M80.4 379.2h.01M108.6 313.5h.01M180.0 292.8h.01M112.4 354.6h.01M83.2 233.3h.01M52.7 217.7h.01M78.5 234.9h.01M89.5 228.5h.01M145.0 377.4h.01M232.9 341.7h.01M98.2 334.9h.01M110.2 193.3h.01M290.6 193.6h.01M152.0 358.0h.01M157.5 378.4h.01M125.6 193.5h.01M83.7 323.2h.01M231.0 331.5h.01M132.9 297.5h.01M144.9 197.8h.01M77.6 225.7h.01M243.5 252.5h.01M154.9 253.1h.01M79.6 246.1h.01M292.9 229.5h.01M51.2 355.2h.01M290.8 233.1h.01M172.2 252.7h.01M159.1 319.1h.01M62.5 336.0h.01M212.2 388.4h.01M220.8 179.9h.01M142.3 193.8h.01M267.1 265.6h.01M73.0 361.7h.01M233.1 260.2h.01M153.8 363.1h.01M247.2 324.8h.01M144.1 380.3h.01M110.6 242.4h.01M207.7 181.5h.01M252.4 197.8h.01M282.6 233.9h.01M80.3 391.8h.01M153.2 396.4h.01M232.5 377.4h.01M112.0 309.2h.01M294.5 222.1h.01M108.1 188.9h.01M200.9 294.4h.01M139.2 207.2h.01M148.8 374.7h.01M157.2 300.4h.01M183.5 289.7h.01M79.5 203.6h.01M267.3 222.3h.01M81.4 333.8h.01M205.7 296.1h.01M117.9 408.7h.01M172.2 367.2h.01M117.5 256.2h.01M114.0 361.5h.01M215.9 217.7h.01M151.8 377.6h.01M277.0 221.3h.01M89.7 233.7h.01M79.5 352.5h.01M177.8 315.4h.01M158.6 426.7h.01M155.7 372.5h.01M257.2 286.4h.01M97.3 243.5h.01M76.0 189.7h.01M82.9 218.6h.01M189.1 357.5h.01M118.6 248.4h.01M141.2 199.3h.01M257.7 261.7h.01M253.5 247.0h.01M234.6 311.8h.01M82.7 283.7h.01M46.5 350.5h.01M220.4 398.7h.01M259.3 294.8h.01M144.9 373.1h.01M266.5 261.4h.01M94.1 381.5h.01M230.0 318.0h.01M82.8 316.9h.01M273.7 231.4h.01M183.8 357.6h.01M269.0 271.5h.01M197.3 273.1h.01M114.1 254.3h.01M229.7 312.6h.01M223.9 365.1h.01M168.1 274.7h.01M161.1 376.0h.01M257.8 191.5h.01M57.0 359.1h.01M129.4 349.3h.01M243.9 218.3h.01M195.6 182.3h.01M147.2 363.9h.01M139.1 364.1h.01M66.1 373.4h.01M50.4 330.1h.01M274.8 168.9h.01M85.3 266.2h.01M179.6 357.4h.01M152.7 429.7h.01M200.8 184.0h.01M89.1 240.7h.01M241.0 210.1h.01M112.7 250.5h.01M79.0 273.4h.01M52.7 334.9h.01M88.4 254.2h.01M266.6 226.7h.01M256.9 282.2h.01M108.1 296.1h.01M112.5 313.5h.01M238.7 331.4h.01M229.4 350.6h.01M135.2 350.0h.01M245.6 211.7h.01M251.2 262.5h.01M83.3 352.2h.01M266.1 254.1h.01M233.4 266.3h.01M278.9 216.9h.01M232.4 347.6h.01M142.8 429.2h.01M231.1 223.6h.01M151.2 206.5h.01M118.0 336.0h.01M76.0 377.3h.01M64.6 168.7h.01M165.1 357.4h.01M146.9 299.3h.01M75.5 200.8h.01M173.5 191.8h.01M78.8 359.7h.01M181.3 304.9h.01M167.1 396.1h.01M273.5 256.8h.01M160.4 386.1h.01M81.8 276.2h.01M250.0 287.9h.01M254.4 267.6h.01M79.1 240.2h.01M99.6 300.9h.01M47.2 325.1h.01M95.3 298.4h.01M137.6 202.1h.01M82.7 287.3h.01M111.7 177.2h.01M265.5 212.6h.01M148.5 380.2h.01M213.4 335.2h.01M169.1 353.7h.01M121.4 341.1h.01M250.8 269.7h.01M249.1 293.5h.01M236.5 186.8h.01M115.5 416.8h.01M117.0 330.6h.01M107.8 381.5h.01M104.4 247.8h.01M162.6 317.7h.01M226.1 320.6h.01M218.5 373.9h.01M103.0 195.7h.01M80.8 261.9h.01M163.1 313.9h.01M140.5 354.5h.01M61.2 174.1h.01M182.3 280.6h.01M134.6 204.8h.01M81.2 320.5h.01M103.6 308.9h.01M38.6 340.2h.01M100.9 320.6h.01M157.6 395.4h.01M125.7 341.8h.01M65.0 207.3h.01M271.5 220.2h.01M177.1 360.6h.01M156.7 429.7h.01M68.0 204.3h.01M74.6 164.5h.01M192.3 180.1h.01M109.3 397.1h.01M166.9 386.8h.01M82.9 383.1h.01M267.7 235.6h.01M61.6 190.4h.01M168.1 382.9h.01M297.9 195.6h.01M250.8 253.6h.01M262.6 242.8h.01M208.5 292.6h.01M106.7 393.3h.01M80.4 366.1h.01M84.5 374.1h.01M213.7 183.9h.01M90.5 296.0h.01M81.8 326.1h.01M97.6 383.2h.01M209.3 402.4h.01M250.4 265.7h.01M253.2 278.9h.01M87.1 237.2h.01M98.7 406.0h.01M219.3 336.1h.01M299.7 185.7h.01M219.2 323.9h.01M107.5 309.5h.01M84.4 378.5h.01M107.0 174.9h.01M259.1 304.3h.01M262.5 253.2h.01M216.1 326.6h.01M164.1 389.1h.01M98.9 314.3h.01M91.4 250.1h.01M172.6 286.3h.01M154.3 385.5h.01M239.7 255.4h.01M193.8 195.9h.01M85.9 247.5h.01M104.5 347.0h.01M161.7 430.1h.01M212.5 293.8h.01M141.3 171.2h.01M68.9 359.1h.01M135.7 293.2h.01M261.8 246.5h.01M83.2 238.0h.01M112.2 329.4h.01M260.8 213.6h.01M244.0 256.3h.01M70.1 371.4h.01M92.3 393.9h.01M206.5 242.9h.01M272.0 276.5h.01M272.0 260.8h.01M111.3 391.5h.01M277.0 164.5h.01M77.6 363.1h.01M96.0 308.0h.01M248.3 256.5h.01M145.4 290.3h.01M62.8 196.2h.01M275.0 263.5h.01M170.9 396.6h.01M80.8 214.2h.01M185.9 259.3h.01M151.2 370.8h.01M265.8 177.9h.01M215.3 386.9h.01M235.6 218.6h.01M235.4 211.3h.01M161.1 323.1h.01M239.3 251.3h.01M56.7 342.5h.01M249.6 249.0h.01M225.9 329.8h.01M168.7 182.1h.01M63.6 323.5h.01M292.9 214.2h.01M256.8 258.7h.01M206.5 399.6h.01M126.7 209.1h.01M113.9 325.3h.01M79.5 265.7h.01M255.4 306.4h.01M88.8 311.1h.01M81.5 254.2h.01M150.2 361.8h.01M281.8 164.1h.01M273.8 236.8h.01M95.2 292.8h.01M164.9 252.2h.01M65.7 339.1h.01M188.4 318.5h.01M57.2 311.4h.01M174.5 187.8h.01M192.9 429.8h.01M156.2 357.5h.01M211.2 330.2h.01M129.1 423.8h.01M145.0 383.4h.01M245.8 305.6h.01M225.6 292.4h.01M99.4 310.2h.01M116.7 314.0h.01M82.7 270.7h.01M196.8 292.2h.01M237.0 334.8h.01M148.3 384.4h.01M204.1 184.9h.01M161.5 201.8h.01M172.7 426.6h.01M101.9 243.6h.01M77.3 251.6h.01M240.8 245.5h.01M120.0 252.4h.01M125.1 270.7h.01M166.1 375.2h.01M99.4 396.1h.01M156.0 262.4h.01M55.3 224.4h.01M83.9 242.9h.01M270.9 238.9h.01M43.0 327.2h.01M111.2 350.2h.01M216.6 429.7h.01M199.3 181.3h.01M84.3 396.5h.01M253.1 284.5h.01M215.7 339.9h.01M226.1 287.0h.01M153.3 389.3h.01M69.5 186.6h.01M224.0 212.0h.01M68.8 281.1h.01M82.1 314.2h.01M200.4 410.1h.01M111.8 299.6h.01M198.5 304.4h.01M114.8 193.0h.01M134.2 209.2h.01M170.6 387.9h.01M200.5 253.7h.01M107.8 245.8h.01M81.6 337.1h.01M257.4 246.9h.01M194.7 426.5h.01M125.9 412.1h.01M148.0 429.6h.01M210.2 397.9h.01M262.0 263.9h.01M97.7 374.7h.01M260.5 250.3h.01M175.0 292.0h.01M147.4 246.9h.01M95.2 313.0h.01M283.2 204.8h.01M298.2 199.4h.01M158.5 399.6h.01M81.3 249.9h.01M291.5 224.8h.01M214.4 306.2h.01M114.9 246.3h.01M83.4 327.9h.01M262.6 195.5h.01M118.3 193.5h.01M111.1 247.1h.01M168.9 176.6h.01M187.6 365.5h.01M75.3 368.2h.01M107.6 331.0h.01M104.9 185.0h.01M104.0 397.5h.01M159.6 371.9h.01M177.2 366.1h.01M272.2 247.3h.01M197.6 354.2h.01M84.2 319.8h.01M175.1 356.7h.01M140.3 297.2h.01M82.2 292.1h.01M252.7 256.8h.01M112.7 317.6h.01M144.4 354.3h.01M104.5 328.2h.01M165.2 321.9h.01M160.0 174.4h.01M214.3 301.3h.01M202.5 352.5h.01M214.2 310.5h.01M254.4 263.9h.01M166.9 317.8h.01M243.1 262.7h.01M90.5 300.9h.01"/>
<path stroke="#1a1a1a" stroke-width="3.35" stroke-linecap="round" fill="none" d="M177.7 394.5h.01M198.3 186.1h.01M144.3 386.1h.01M131.0 363.8h.01M177.4 278.8h.01M210.3 304.8h.01M97.2 322.7h.01M125.4 379.6h.01M191.3 396.3h.01M170.1 406.0h.01M54.6 174.1h.01M79.2 317.5h.01M186.5 417.8h.01M112.3 386.3h.01M38.8 329.5h.01M146.1 398.7h.01M115.1 372.7h.01M112.7 365.0h.01M153.4 297.9h.01M157.6 413.0h.01M173.8 423.0h.01M140.6 396.1h.01M160.5 193.0h.01M154.6 399.6h.01M182.3 413.9h.01M200.1 263.9h.01M101.5 357.4h.01M112.5 371.3h.01M224.4 345.4h.01M199.5 366.9h.01M182.2 387.6h.01M173.0 281.0h.01M286.3 210.2h.01M118.4 372.6h.01M59.0 322.1h.01M213.5 379.8h.01M135.1 366.4h.01M97.0 387.8h.01M92.0 315.0h.01M178.4 372.1h.01M87.3 367.7h.01M84.6 342.7h.01M175.4 384.3h.01M242.4 320.0h.01M86.8 232.0h.01M134.1 375.4h.01M220.2 215.6h.01M106.8 341.9h.01M207.3 360.3h.01M240.8 326.4h.01M119.8 356.1h.01M144.1 394.6h.01M70.4 367.5h.01M225.5 341.4h.01M137.2 373.8h.01M203.3 400.5h.01M102.4 351.7h.01M118.1 345.6h.01M163.9 190.6h.01M184.4 384.1h.01M193.1 364.5h.01M135.6 386.9h.01M138.2 422.0h.01M183.3 418.9h.01M112.6 190.0h.01M160.2 260.9h.01M173.9 387.6h.01M123.7 354.9h.01M127.8 357.4h.01M93.1 340.1h.01M177.5 380.2h.01M85.7 330.0h.01M148.1 408.2h.01M189.5 368.7h.01M175.6 376.2h.01M177.7 414.5h.01M186.2 263.1h.01M224.7 402.9h.01M98.9 353.5h.01M124.0 350.1h.01M208.1 354.0h.01M131.2 375.5h.01M177.8 383.1h.01M151.0 203.3h.01M186.9 386.7h.01M136.1 384.1h.01M214.1 209.6h.01M196.1 375.6h.01M123.3 359.6h.01M178.4 288.0h.01M216.3 213.2h.01M228.0 337.3h.01M219.3 369.4h.01M146.5 193.0h.01M234.5 316.3h.01M253.0 314.3h.01M239.2 206.6h.01M121.9 178.2h.01M95.2 351.8h.01M241.3 192.4h.01M199.3 415.2h.01M193.9 367.9h.01M122.5 405.1h.01M117.5 391.7h.01M88.5 328.5h.01M178.2 410.4h.01M90.6 381.7h.01M212.2 355.4h.01M174.9 404.6h.01M190.0 379.4h.01M234.4 331.2h.01M166.5 196.6h.01M109.6 384.4h.01M155.3 203.3h.01M102.1 342.8h.01M128.5 189.6h.01M196.2 261.2h.01M139.3 368.5h.01M76.7 355.9h.01M240.9 259.9h.01M230.9 207.7h.01M220.7 353.5h.01M184.6 302.6h.01M200.5 369.8h.01M38.8 333.5h.01M125.8 402.9h.01M57.2 172.2h.01M178.9 269.7h.01M228.1 220.1h.01M119.6 350.4h.01M135.9 369.7h.01M158.4 199.4h.01M215.6 348.1h.01M180.4 420.8h.01M163.1 257.3h.01M86.4 349.2h.01M98.5 330.0h.01M185.9 369.9h.01M150.6 411.8h.01M173.9 408.5h.01M116.0 352.5h.01M78.9 327.0h.01M197.0 189.2h.01M206.8 304.7h.01M170.9 415.4h.01M299.4 192.5h.01M158.8 181.1h.01M206.1 410.0h.01M153.8 414.8h.01M169.3 411.4h.01M244.2 316.0h.01M174.1 393.1h.01M167.8 259.4h.01M166.3 421.5h.01M146.6 392.6h.01M226.7 208.2h.01M214.5 426.2h.01M172.3 276.2h.01M129.9 413.3h.01M120.9 375.8h.01M220.1 346.4h.01M169.2 419.0h.01M268.6 249.5h.01M174.4 396.6h.01M128.5 416.6h.01M183.4 270.0h.01M141.4 382.4h.01M217.7 402.2h.01M188.8 422.1h.01M102.3 391.5h.01M194.8 417.8h.01M190.3 386.8h.01M199.2 406.5h.01M137.6 175.9h.01M216.7 394.7h.01M222.1 207.8h.01M203.5 413.1h.01M87.6 371.6h.01M131.2 367.4h.01M164.4 291.3h.01M180.4 385.2h.01M96.3 344.9h.01M146.3 205.8h.01M197.9 402.6h.01M150.4 417.1h.01M129.8 385.5h.01M98.7 360.4h.01M93.5 348.5h.01M181.3 381.9h.01M162.0 299.5h.01M216.1 358.4h.01M141.5 386.0h.01M190.8 361.6h.01M255.5 310.3h.01M136.0 390.2h.01M202.7 298.0h.01M85.6 307.5h.01M79.1 370.8h.01M125.2 376.0h.01M144.8 389.5h.01M172.8 270.8h.01M150.6 399.8h.01M165.2 424.6h.01M132.5 384.2h.01M139.0 391.0h.01M227.7 347.5h.01M181.2 275.1h.01M232.6 321.6h.01M188.8 394.6h.01M184.1 405.3h.01M174.0 418.2h.01M105.1 360.6h.01M236.9 258.7h.01M223.2 338.6h.01M281.8 221.5h.01M86.7 381.5h.01M141.4 292.9h.01M89.6 317.6h.01M159.6 196.2h.01M87.8 332.4h.01M197.6 364.4h.01M175.5 369.5h.01M101.4 324.5h.01M194.4 186.7h.01M189.1 390.4h.01M64.6 316.4h.01M237.2 327.8h.01M186.8 271.0h.01M140.8 185.7h.01M287.8 219.7h.01M80.9 299.5h.01M65.4 351.1h.01M211.2 428.9h.01M97.6 349.5h.01M210.0 188.0h.01M225.9 204.6h.01M132.9 174.7h.01M123.0 368.3h.01M221.9 378.1h.01M246.5 320.0h.01M129.3 373.1h.01M90.5 346.4h.01M91.9 352.4h.01M55.9 167.4h.01M91.7 329.9h.01M264.7 249.3h.01M218.5 426.5h.01M162.7 187.4h.01M151.4 407.6h.01M185.1 379.1h.01M220.5 342.2h.01M195.0 409.3h.01M229.7 340.2h.01M226.6 360.8h.01M197.6 424.2h.01M237.6 190.7h.01M86.8 345.8h.01M216.6 354.6h.01M151.6 426.2h.01M145.0 402.5h.01M82.6 303.1h.01M194.0 381.5h.01M102.2 332.7h.01M121.3 190.7h.01M152.6 181.9h.01M196.6 369.6h.01M115.1 368.6h.01M183.5 372.2h.01M185.3 389.8h.01M203.1 364.3h.01M148.9 196.6h.01M177.3 265.6h.01M193.0 376.9h.01M224.3 412.5h.01M179.2 417.4h.01M232.6 327.3h.01M227.8 343.8h.01M137.5 393.8h.01M220.2 388.1h.01M144.6 186.2h.01M88.5 342.2h.01M213.7 351.2h.01M100.1 327.5h.01M164.8 262.1h.01M114.9 348.3h.01M81.0 343.0h.01M163.9 411.8h.01M103.4 405.0h.01M109.4 363.4h.01M86.2 326.2h.01M206.7 186.6h.01M217.6 378.9h.01M155.9 178.8h.01M100.4 347.0h.01M174.2 379.5h.01M160.6 419.4h.01M87.5 323.2h.01M162.2 407.2h.01M182.0 391.0h.01M175.4 373.2h.01M168.3 188.1h.01M95.2 331.0h.01M131.8 379.2h.01M121.5 363.6h.01M208.7 212.9h.01M185.4 396.6h.01M154.1 410.3h.01M191.6 401.8h.01M240.3 221.5h.01M161.6 423.6h.01M153.2 420.5h.01M222.4 373.4h.01M188.4 404.1h.01M106.3 334.7h.01M213.5 396.5h.01M173.8 390.7h.01M151.5 199.7h.01M164.2 418.8h.01M111.7 341.1h.01M112.8 344.6h.01M125.8 408.9h.01M186.9 392.7h.01M179.8 369.6h.01M141.5 393.0h.01M160.9 415.5h.01M177.3 283.8h.01M194.4 372.6h.01M77.9 341.9h.01M192.6 398.6h.01M245.6 196.1h.01M90.3 365.1h.01M287.8 214.9h.01M77.5 294.0h.01M288.2 223.4h.01M181.0 394.0h.01M263.6 276.8h.01M186.0 276.1h.01M97.0 357.2h.01M129.5 370.0h.01M188.6 398.9h.01M149.8 291.5h.01M121.7 400.6h.01M242.3 195.1h.01M132.9 371.7h.01M78.6 290.7h.01M107.8 388.8h.01M218.8 350.5h.01M192.1 393.9h.01M185.4 400.9h.01M115.7 356.8h.01M128.0 353.2h.01M164.0 194.2h.01M125.8 365.2h.01M143.5 398.5h.01M139.0 385.0h.01M190.0 272.8h.01M85.3 335.4h.01M70.1 321.1h.01M176.9 421.5h.01M94.3 390.1h.01M194.4 392.2h.01M201.6 361.5h.01M255.4 204.0h.01M129.4 381.4h.01M167.9 270.3h.01M93.2 334.8h.01M80.7 311.0h.01M217.3 208.7h.01M134.9 362.4h.01M192.9 293.5h.01M204.1 188.7h.01M212.7 213.5h.01M127.5 361.6h.01M227.1 325.7h.01M220.9 381.9h.01M229.6 358.2h.01M79.4 324.1h.01M231.4 198.0h.01M116.4 319.8h.01M148.6 404.9h.01M122.8 345.8h.01M214.9 375.2h.01M155.2 200.1h.01M142.1 389.6h.01M118.3 360.2h.01M229.2 380.4h.01M179.0 375.0h.01M158.5 184.0h.01M117.3 341.1h.01M170.2 262.9h.01M86.8 315.0h.01M162.6 197.9h.01M152.7 403.9h.01M70.8 375.8h.01M182.3 375.2h.01M223.1 349.1h.01M106.5 367.0h.01M226.3 356.0h.01M216.8 398.5h.01M195.4 405.6h.01M156.7 407.3h.01M173.8 400.3h.01M232.3 335.3h.01M205.8 395.3h.01M68.0 197.2h.01M222.2 202.9h.01M207.6 429.5h.01M108.3 357.3h.01M172.5 266.4h.01M286.6 232.7h.01M181.6 397.4h.01M201.3 187.1h.01M89.8 334.8h.01M98.1 340.5h.01M108.6 346.6h.01M206.1 416.3h.01M190.0 407.9h.01M91.7 321.7h.01M149.9 422.2h.01M54.9 331.7h.01M147.0 425.8h.01M202.7 358.0h.01M65.5 193.2h.01M222.9 406.2h.01M213.4 401.0h.01M78.2 286.3h.01M143.2 424.1h.01M122.9 372.3h.01M197.2 360.9h.01M187.0 376.0h.01M139.2 388.0h.01M141.5 175.6h.01M68.5 191.9h.01M198.9 420.1h.01M207.9 364.7h.01M38.6 337.0h.01M221.0 329.4h.01M236.0 320.4h.01M161.0 265.2h.01M158.0 257.1h.01M248.7 199.5h.01M72.3 334.3h.01M87.8 376.9h.01M132.8 190.6h.01M183.0 265.7h.01M294.4 194.5h.01M229.0 201.5h.01M201.2 403.3h.01M213.8 187.4h.01M203.8 367.1h.01M192.1 389.1h.01M110.5 367.5h.01M230.1 353.7h.01M184.0 393.5h.01M101.6 363.2h.01M67.0 347.0h.01M167.2 402.5h.01M166.2 266.4h.01M248.3 314.3h.01M126.5 368.9h.01M159.9 409.9h.01M186.4 413.6h.01M138.0 381.5h.01M81.6 307.5h.01M198.5 372.5h.01M119.5 368.4h.01M201.7 424.5h.01M68.8 315.7h.01M166.8 408.2h.01M178.1 398.3h.01M218.3 391.1h.01M95.5 337.5h.01M239.2 323.0h.01M164.3 184.4h.01M167.7 192.2h.01M209.3 300.7h.01M73.0 384.8h.01M129.1 419.7h.01M178.6 390.7h.01M196.3 413.2h.01M191.7 370.9h.01M191.1 383.7h.01M84.5 311.3h.01M239.7 313.1h.01M132.0 358.5h.01M193.2 258.5h.01M148.3 401.9h.01M187.4 382.4h.01M239.1 317.6h.01M127.5 176.7h.01M226.5 408.4h.01M205.8 356.4h.01M182.5 409.4h.01M194.5 191.8h.01M202.9 429.4h.01M282.8 213.4h.01M186.3 409.2h.01M77.2 281.8h.01M254.1 208.8h.01M173.4 303.1h.01M169.7 423.5h.01M190.0 415.9h.01M102.7 338.0h.01M86.0 338.5h.01M144.1 182.8h.01M149.5 178.8h.01M128.5 377.5h.01M223.3 326.3h.01M163.7 370.6h.01M180.2 424.5h.01M243.8 324.4h.01M150.0 395.5h.01M178.7 377.7h.01M105.5 364.0h.01M141.0 375.4h.01M189.5 373.7h.01M219.1 405.1h.01M65.4 286.0h.01M251.2 317.9h.01M152.2 176.6h.01M208.2 406.3h.01M94.5 354.8h.01M251.2 201.8h.01M137.9 188.6h.01M108.6 370.3h.01M181.5 401.8h.01M173.9 412.7h.01M192.7 413.3h.01M90.1 389.6h.01M229.4 323.2h.01M159.7 367.4h.01M156.4 417.9h.01M245.1 311.2h.01M164.7 404.6h.01M189.9 411.3h.01M234.4 201.3h.01M121.3 182.6h.01M177.5 401.5h.01M64.2 362.8h.01M189.9 257.9h.01M104.9 355.9h.01M204.0 370.0h.01M235.1 324.8h.01M80.9 340.0h.01M179.1 406.0h.01M87.2 319.8h.01M185.0 423.4h.01M155.2 424.7h.01M288.3 228.1h.01M60.5 326.3h.01M141.0 399.0h.01M231.0 344.4h.01M89.5 338.3h.01M156.5 403.5h.01M124.6 189.3h.01M171.4 402.2h.01M83.9 345.1h.01M222.2 361.2h.01M232.4 356.1h.01M91.0 325.4h.01M181.6 378.9h.01M65.2 201.4h.01M114.3 186.9h.01M157.9 422.1h.01M147.7 396.5h.01M206.8 188.7h.01M106.4 351.1h.01M244.2 206.7h.01M176.3 273.7h.01M233.1 189.3h.01M221.4 185.0h.01M210.0 184.8h.01M126.5 373.6h.01M65.8 312.5h.01M190.9 419.4h.01M235.5 206.1h.01M134.5 381.6h.01M147.6 188.6h.01M117.0 364.8h.01M207.4 393.2h.01M177.4 387.6h.01M60.2 169.5h.01M92.2 343.4h.01M143.1 189.6h.01M95.1 326.2h.01M166.2 415.1h.01M195.6 384.7h.01M267.2 275.3h.01M135.6 378.4h.01M192.0 391.5h.01M202.5 418.2h.01M227.0 384.2h.01M211.8 360.3h.01M167.3 368.1h.01M231.7 204.0h.01"/>
<path stroke="#1a1a1a" stroke-width="3.91" stroke-linecap="round" fill="none" d="M69.0 312.5h.01M245.6 198.8h.01M67.5 294.0h.01M98.2 365.0h.01M74.9 312.9h.01M125.1 185.6h.01M215.5 190.7h.01M141.7 179.1h.01M110.6 375.4h.01M225.4 380.1h.01M201.9 385.8h.01M79.2 305.0h.01M215.6 419.8h.01M70.6 318.0h.01M215.1 417.1h.01M73.0 326.0h.01M161.3 294.6h.01M145.3 179.1h.01M157.8 296.0h.01M115.4 388.0h.01M140.2 409.6h.01M77.3 314.9h.01M284.7 224.0h.01M205.4 385.4h.01M214.5 404.6h.01M210.8 368.1h.01M133.1 418.4h.01M72.9 302.9h.01M199.8 400.0h.01M68.5 288.2h.01M188.6 297.6h.01M122.2 382.8h.01M164.8 296.1h.01M125.6 393.6h.01M211.7 190.8h.01M210.9 198.1h.01M128.7 407.4h.01M204.4 375.9h.01M93.0 357.0h.01M194.9 401.6h.01M187.7 266.6h.01M78.4 312.7h.01M148.6 184.6h.01M132.5 401.2h.01M213.9 203.9h.01M218.4 198.0h.01M158.4 290.9h.01M189.6 294.7h.01M146.0 295.1h.01M197.0 300.4h.01M64.4 292.2h.01M110.1 372.1h.01M154.2 293.1h.01M111.8 379.6h.01M95.1 361.4h.01M73.6 299.9h.01M168.4 296.2h.01M72.3 281.4h.01M212.5 414.1h.01M215.4 194.3h.01M227.0 196.8h.01M219.2 412.8h.01M138.2 399.5h.01M175.5 296.6h.01M243.1 200.3h.01M131.4 409.4h.01M106.0 370.6h.01M201.3 378.6h.01M240.0 200.5h.01M209.0 206.8h.01M89.4 349.8h.01M81.1 346.0h.01M215.1 206.1h.01M202.2 391.1h.01M79.0 302.0h.01M211.3 195.4h.01M211.0 210.2h.01M66.7 297.1h.01M232.7 367.3h.01M75.5 289.9h.01M75.4 310.1h.01M241.7 197.9h.01M200.1 397.1h.01M198.9 387.5h.01M75.9 323.9h.01M197.5 194.9h.01M136.2 401.8h.01M132.3 395.8h.01M212.2 407.2h.01M141.6 401.9h.01M64.8 294.7h.01M143.4 410.9h.01M213.5 364.8h.01M222.4 198.4h.01M207.2 209.6h.01M178.9 297.2h.01M245.4 202.3h.01M73.1 306.9h.01M128.9 403.2h.01M201.2 394.0h.01M136.3 396.5h.01M65.5 290.0h.01M201.4 194.6h.01M76.9 299.9h.01M207.4 369.6h.01M77.3 332.9h.01M118.2 384.6h.01M128.3 183.8h.01M74.5 278.8h.01M146.9 410.8h.01M77.9 297.0h.01M212.7 201.1h.01M219.4 416.8h.01M247.7 204.5h.01M200.9 201.2h.01M156.8 193.9h.01M196.7 393.0h.01M190.9 263.0h.01M166.6 300.4h.01M237.4 194.2h.01M128.2 387.6h.01M143.6 408.1h.01M216.5 203.0h.01M86.0 352.8h.01M210.6 424.6h.01M192.5 297.4h.01M192.1 405.4h.01M78.4 322.0h.01M215.1 200.5h.01M76.5 304.5h.01M66.6 300.6h.01M133.8 412.4h.01M122.7 390.5h.01M146.3 417.7h.01M241.5 203.4h.01M132.5 403.7h.01M138.7 406.9h.01M208.7 192.9h.01M91.2 359.0h.01M209.7 417.5h.01M134.3 398.7h.01M74.2 304.6h.01M76.1 326.3h.01M117.7 189.4h.01M130.1 405.9h.01M77.7 339.1h.01M159.5 190.0h.01M71.4 309.1h.01M239.3 196.0h.01M78.3 308.5h.01M72.9 319.7h.01M230.1 189.1h.01M212.0 372.4h.01M128.9 410.1h.01M107.9 374.6h.01M219.1 203.1h.01M221.0 409.4h.01M212.0 207.0h.01M69.9 294.4h.01M228.9 194.8h.01M67.8 284.7h.01M218.8 188.2h.01M202.5 205.4h.01M209.5 200.8h.01M207.6 202.9h.01M132.7 415.5h.01M251.4 205.3h.01M114.3 382.9h.01M223.5 188.8h.01M67.3 308.5h.01M228.8 363.9h.01M102.6 370.9h.01M154.3 191.8h.01M231.8 193.6h.01M212.8 196.2h.01M134.9 420.8h.01M211.0 203.8h.01M198.1 395.3h.01M72.6 323.2h.01M218.4 200.7h.01M205.2 300.9h.01M196.8 268.1h.01M191.1 267.9h.01M209.6 195.2h.01M227.0 189.1h.01M144.5 413.6h.01M193.2 300.4h.01M177.2 303.4h.01M113.7 407.1h.01M195.0 396.7h.01M142.5 416.7h.01M125.3 181.2h.01M198.0 383.5h.01M147.5 181.3h.01M193.7 270.7h.01M116.0 376.8h.01M142.3 420.3h.01M237.8 202.7h.01M204.4 192.7h.01M224.9 375.8h.01M215.8 409.2h.01M104.8 374.7h.01M122.2 386.3h.01M87.2 355.2h.01M73.8 294.0h.01M74.7 331.9h.01M208.7 413.7h.01M74.9 316.7h.01M220.1 358.1h.01M208.3 373.5h.01M297.9 189.2h.01M132.4 388.9h.01M218.6 205.9h.01M175.1 299.9h.01M146.5 421.2h.01M201.5 190.4h.01M137.0 413.5h.01M153.0 185.3h.01M194.8 394.6h.01M66.5 304.6h.01M72.2 288.5h.01M75.9 306.9h.01M107.0 378.1h.01M205.9 426.0h.01M101.6 378.7h.01M137.4 184.4h.01M128.4 396.9h.01M121.4 379.4h.01M225.4 351.6h.01M205.1 420.9h.01M184.9 296.9h.01M75.0 297.0h.01M197.1 379.5h.01M78.5 335.7h.01M72.1 296.7h.01M89.1 352.9h.01M214.5 423.0h.01M114.4 395.3h.01M198.8 191.8h.01M147.9 414.4h.01M200.2 382.3h.01M209.6 380.4h.01M224.8 192.2h.01M152.3 194.9h.01M210.9 410.5h.01M94.7 365.3h.01M126.3 383.5h.01M220.6 394.7h.01M206.4 381.9h.01M99.3 369.0h.01M217.3 362.2h.01M136.9 409.6h.01M117.4 185.2h.01M136.0 405.2h.01M283.9 217.8h.01M211.0 376.5h.01M139.0 403.8h.01M222.7 194.7h.01M89.7 356.3h.01M223.0 356.0h.01M202.8 197.6h.01M208.0 422.0h.01M284.3 228.8h.01M198.8 391.2h.01M121.9 396.6h.01M141.9 405.4h.01M170.2 301.0h.01M145.4 406.1h.01M140.3 413.6h.01M211.1 383.9h.01M194.5 387.0h.01M185.2 293.8h.01M68.6 291.1h.01M76.2 329.0h.01M194.8 264.9h.01M208.5 198.0h.01M129.4 390.9h.01M212.0 193.5h.01M228.2 192.0h.01M134.3 186.5h.01M72.0 315.0h.01M129.9 180.3h.01M113.0 375.8h.01M155.7 188.8h.01M72.0 312.0h.01M130.7 186.3h.01M203.0 381.8h.01M229.7 369.9h.01M215.3 369.5h.01M129.4 393.9h.01M134.1 408.8h.01M121.0 186.6h.01M151.4 188.9h.01M83.1 348.6h.01M204.2 389.6h.01M117.5 380.2h.01M206.9 389.6h.01M69.6 298.4h.01M203.3 396.9h.01M188.5 301.3h.01M206.1 205.6h.01M214.5 198.0h.01M105.3 385.5h.01M72.5 291.5h.01M133.1 406.1h.01M130.4 399.3h.01M198.1 198.6h.01M138.0 417.4h.01M222.6 385.1h.01M125.0 387.0h.01M207.5 377.5h.01M196.8 296.7h.01M202.1 372.5h.01M70.2 301.6h.01M207.6 190.8h.01M218.6 194.9h.01M150.4 295.5h.01M186.1 299.3h.01M92.0 361.7h.01M133.4 182.7h.01M206.1 198.4h.01M225.6 200.2h.01M102.6 367.5h.01M230.5 373.5h.01M136.9 180.3h.01M222.5 420.3h.01M72.8 329.1h.01M179.5 301.3h.01M182.5 300.0h.01M70.2 305.5h.01M220.1 191.6h.01M226.7 373.1h.01M74.5 285.0h.01M120.6 393.6h.01M182.0 296.5h.01M215.8 413.4h.01M124.9 397.3h.01M211.6 420.2h.01M231.6 362.0h.01M228.5 376.7h.01M154.8 197.1h.01M76.0 302.5h.01M201.1 374.9h.01M196.7 398.7h.01M200.4 300.4h.01M234.5 196.8h.01M70.9 285.4h.01M218.3 422.0h.01M228.1 366.9h.01M158.4 186.8h.01M126.7 400.1h.01M172.0 296.5h.01M119.4 388.4h.01M126.0 390.0h.01M208.7 386.4h.01M140.1 181.8h.01M133.6 392.6h.01M226.0 369.7h.01M204.7 379.1h.01M234.6 192.5h.01M133.1 178.4h.01M237.5 198.5h.01M77.3 319.5h.01M219.1 365.7h.01M75.1 320.9h.01M206.5 195.2h.01M205.0 373.0h.01M195.5 389.8h.01M204.3 201.5h.01M149.9 192.2h.01M198.9 376.3h.01"/>
</svg>