<svg xmlns="http://www.w3.org/2000/svg" viewBox="0 0 360 432" role="img">
<path stroke="#1a1a1a" stroke-width="1.60" stroke-linecap="round" fill="none" d="M219.3 139.5h.01M201.4 48.5h.01M177.3 39.5h.01M91.9 314.3h.01M286.2 140.0h.01M191.8 205.3h.01M246.9 66.2h.01M175.5 62.6h.01M225.1 68.3h.01M167.6 52.2h.01M277.8 168.6h.01M141.5 99.8h.01M129.8 83.7h.01M219.7 118.5h.01M136.1 79.7h.01M213.2 63.7h.01M205.4 140.8h.01M221.4 249.4h.01M300.4 136.4h.01M220.8 240.3h.01M276.9 112.9h.01M229.5 61.3h.01M38.2 131.4h.01M193.5 102.4h.01M256.3 131.5h.01M118.4 88.7h.01M244.2 144.0h.01M273.7 149.1h.01M235.9 133.5h.01M210.1 89.5h.01M256.1 66.8h.01M214.1 122.6h.01M207.6 95.3h.01M250.2 139.1h.01M245.2 229.2h.01M280.0 88.7h.01M195.0 55.3h.01M99.9 78.3h.01M84.2 99.6h.01M287.2 153.1h.01M272.4 243.6h.01M38.7 195.4h.01M224.6 430.6h.01M44.5 215.5h.01M255.1 90.8h.01M295.7 168.6h.01M300.3 150.9h.01M264.0 126.5h.01M279.8 134.5h.01M237.0 143.2h.01M210.5 146.3h.01M232.6 55.0h.01M294.2 163.1h.01M241.4 137.1h.01M44.2 127.9h.01M199.9 67.9h.01M94.0 155.0h.01M284.0 106.9h.01M119.6 145.7h.01M147.1 94.1h.01M247.1 93.3h.01M253.0 107.2h.01M224.5 236.1h.01M284.5 162.2h.01M217.3 50.5h.01M284.0 264.1h.01M198.6 138.4h.01M187.7 67.2h.01M281.6 126.4h.01M294.1 112.3h.01M282.7 243.9h.01M242.3 86.8h.01M219.7 244.7h.01M101.6 179.0h.01M61.2 290.4h.01M218.2 68.1h.01M214.8 104.9h.01M105.3 72.2h.01M206.4 66.1h.01M217.7 43.5h.01M238.1 61.4h.01M207.1 60.3h.01M221.8 125.6h.01M45.6 237.7h.01M154.6 52.9h.01M50.8 129.7h.01M211.7 71.1h.01M279.1 154.7h.01M107.3 180.9h.01M77.5 113.4h.01M86.6 86.8h.01M133.0 53.5h.01M240.9 78.4h.01M199.4 95.3h.01M284.2 170.2h.01M262.9 78.9h.01M251.3 232.9h.01M239.2 102.7h.01M306.0 143.9h.01M154.8 45.6h.01M263.4 116.7h.01M222.4 62.4h.01M147.6 49.4h.01M77.2 303.3h.01M221.6 132.8h.01M229.8 228.8h.01M262.8 97.5h.01M96.0 150.0h.01M164.5 41.7h.01M246.6 132.0h.01M279.6 283.7h.01M104.3 85.4h.01M289.7 168.0h.01M263.3 108.8h.01M112.7 85.8h.01M238.4 110.4h.01M83.5 126.4h.01M222.8 104.6h.01M294.1 180.6h.01M66.3 104.2h.01M234.7 86.3h.01M303.4 128.0h.01M135.1 48.5h.01M254.5 75.2h.01M239.8 225.9h.01M94.9 85.3h.01M214.4 84.3h.01M266.5 145.1h.01M259.2 103.6h.01M136.3 59.4h.01M271.8 79.9h.01M246.7 155.3h.01M212.0 55.8h.01M153.1 197.7h.01M231.2 102.5h.01M287.9 131.4h.01M299.9 157.8h.01M0.4 110.5h.01M104.4 158.5h.01M257.3 113.1h.01M95.6 317.6h.01M358.6 109.7h.01M218.1 74.6h.01M299.6 119.7h.01M178.9 48.6h.01M229.1 149.8h.01M89.2 94.3h.01M223.2 112.2h.01M263.3 71.9h.01M254.2 98.2h.01M271.2 95.4h.01M268.0 258.4h.01M243.1 118.4h.01M251.0 60.1h.01M289.7 174.9h.01M124.8 99.1h.01M107.2 327.6h.01M249.3 83.0h.01M244.3 56.6h.01M291.0 121.7h.01M133.9 70.6h.01M112.6 93.0h.01M223.8 230.0h.01M161.2 49.4h.01M123.7 84.8h.01M114.2 141.8h.01M271.3 264.5h.01M203.7 54.6h.01M291.5 158.4h.01M235.7 163.3h.01M212.6 78.1h.01M200.6 41.3h.01M262.1 236.0h.01M246.2 109.6h.01M128.8 57.5h.01M239.8 233.1h.01M141.5 46.8h.01M271.8 158.1h.01M270.5 110.3h.01M295.9 129.1h.01M286.5 97.7h.01M200.1 60.8h.01M193.0 141.0h.01M216.6 91.9h.01M218.9 231.1h.01M230.1 142.7h.01M208.4 134.3h.01M276.2 162.6h.01M168.6 199.5h.01M87.3 311.6h.01M276.0 102.9h.01M195.9 126.9h.01M230.7 110.4h.01M52.7 265.0h.01M205.8 150.9h.01M234.0 76.1h.01M228.5 81.7h.01M239.4 126.6h.01M45.7 228.8h.01M264.4 135.9h.01M45.9 244.6h.01M229.2 133.2h.01M225.6 138.9h.01M162.4 56.9h.01M276.0 221.6h.01M231.9 47.9h.01M47.0 251.0h.01M256.8 122.0h.01M290.7 146.5h.01M102.5 101.9h.01M215.1 98.3h.01M186.3 51.1h.01M250.6 116.2h.01M220.3 296.0h.01M267.0 85.5h.01M267.8 102.7h.01M82.1 307.7h.01M209.5 49.6h.01M225.5 74.8h.01M96.9 92.7h.01M218.2 58.0h.01M248.6 169.2h.01M306.5 136.4h.01M271.2 131.2h.01M255.7 243.5h.01M194.0 63.2h.01M263.4 91.1h.01M297.4 144.4h.01M140.4 53.4h.01M181.6 58.1h.01M290.7 0.4h.01M109.9 98.6h.01M227.1 243.8h.01M133.3 91.2h.01M293.4 138.2h.01M0.4 291.1h.01M187.1 209.2h.01M249.2 239.9h.01M232.6 68.1h.01M225.1 215.7h.01M275.0 123.4h.01M224.8 54.2h.01M296.1 187.0h.01M229.8 126.0h.01M223.2 96.5h.01M227.4 118.4h.01M358.6 294.5h.01M215.3 112.5h.01M98.5 158.1h.01M137.3 86.3h.01M192.3 41.0h.01M246.6 101.5h.01M271.0 223.2h.01M257.7 84.1h.01M238.4 94.8h.01M208.6 117.8h.01M134.2 430.6h.01M295.4 174.4h.01M228.4 251.2h.01M251.1 147.9h.01M221.5 87.1h.01M246.8 74.6h.01M125.5 91.5h.01M307.2 150.4h.01M227.6 89.3h.01M260.3 149.9h.01M223.7 223.0h.01M273.3 88.4h.01M209.1 42.9h.01M117.5 80.1h.01M265.3 218.8h.01M279.6 96.3h.01M248.8 124.8h.01M130.1 75.8h.01M235.5 118.5h.01M278.7 251.4h.01M55.4 279.6h.01M231.0 94.9h.01M225.2 209.1h.01M284.2 116.9h.01M233.9 353.3h.01M270.0 118.8h.01M184.7 41.5h.01M244.1 235.7h.01M230.4 236.5h.01M230.2 221.7h.01M201.6 80.4h.01M240.3 69.2h.01M174.5 54.5h.01M90.8 103.8h.01M48.2 258.0h.01M291.5 104.9h.01M267.3 153.3h.01M246.7 163.4h.01M33.2 157.2h.01M201.7 132.0h.01M194.6 89.8h.01M207.9 126.7h.01M52.8 271.6h.01M193.3 48.2h.01M258.0 141.6h.01M271.2 218.5h.01M104.6 93.6h.01M171.2 46.4h.01M252.4 164.4h.01M293.8 152.7h.01M98.3 172.6h.01"/>
<path stroke="#1a1a1a" stroke-width="1.98" stroke-linecap="round" fill="none" d="M251.3 158.8h.01M187.2 306.5h.01M210.1 299.4h.01M283.6 176.3h.01M116.6 168.0h.01M267.0 225.5h.01M146.9 242.7h.01M139.4 74.2h.01M96.0 72.8h.01M160.0 223.2h.01M77.6 150.0h.01M100.9 153.2h.01M269.5 308.0h.01M155.6 138.4h.01M119.1 109.0h.01M254.0 227.2h.01M171.1 190.2h.01M181.4 87.9h.01M233.4 180.6h.01M141.9 354.9h.01M156.8 181.5h.01M81.7 147.9h.01M200.7 145.9h.01M49.3 193.1h.01M144.8 201.5h.01M55.7 190.6h.01M113.1 125.8h.01M151.5 233.3h.01M214.9 248.5h.01M142.7 41.0h.01M104.6 129.9h.01M273.6 254.1h.01M108.4 162.6h.01M259.6 191.5h.01M132.7 344.8h.01M210.6 231.5h.01M111.6 330.1h.01M214.8 206.0h.01M97.3 228.8h.01M201.1 198.8h.01M43.3 155.6h.01M121.8 117.3h.01M170.4 222.0h.01M242.2 176.8h.01M195.2 148.4h.01M163.4 90.0h.01M252.5 332.2h.01M127.3 63.3h.01M169.0 246.2h.01M180.3 74.0h.01M100.5 61.0h.01M221.3 152.6h.01M113.6 74.2h.01M120.6 183.8h.01M152.9 122.6h.01M214.6 299.5h.01M58.4 127.6h.01M220.1 182.7h.01M175.0 116.8h.01M87.2 197.8h.01M241.8 249.3h.01M114.1 179.5h.01M118.9 103.4h.01M196.3 291.2h.01M214.9 131.0h.01M187.5 130.3h.01M161.4 103.1h.01M224.4 175.9h.01M221.7 308.5h.01M0.4 260.7h.01M251.8 191.5h.01M57.9 236.8h.01M164.6 129.4h.01M179.3 283.3h.01M211.6 363.8h.01M206.9 311.6h.01M206.2 196.9h.01M120.0 71.6h.01M299.7 237.2h.01M207.3 240.2h.01M124.3 195.4h.01M169.6 126.8h.01M157.7 106.6h.01M164.7 123.4h.01M117.1 211.1h.01M48.2 157.2h.01M71.3 295.5h.01M185.4 94.3h.01M303.4 216.7h.01M181.1 66.7h.01M137.9 214.1h.01M145.1 223.7h.01M141.3 126.7h.01M180.0 142.7h.01M103.7 229.0h.01M69.1 130.6h.01M227.2 155.7h.01M220.7 80.5h.01M278.4 217.3h.01M243.6 314.9h.01M146.7 141.2h.01M271.6 139.2h.01M101.8 186.8h.01M130.8 111.1h.01M123.7 205.6h.01M89.3 159.6h.01M263.5 243.1h.01M261.5 282.8h.01M166.5 105.1h.01M111.0 158.2h.01M185.2 288.9h.01M42.6 210.3h.01M118.9 200.9h.01M101.9 215.3h.01M175.5 229.5h.01M196.3 207.3h.01M88.8 73.1h.01M160.5 198.5h.01M214.0 242.5h.01M155.9 187.5h.01M112.6 195.9h.01M264.4 170.0h.01M181.4 222.6h.01M165.8 100.1h.01M242.8 221.6h.01M177.5 205.5h.01M157.0 193.8h.01M79.2 179.6h.01M202.7 89.4h.01M84.2 167.9h.01M237.7 218.1h.01M214.2 233.8h.01M198.9 152.3h.01M228.0 171.6h.01M167.5 95.7h.01M217.4 293.4h.01M122.4 134.3h.01M147.8 184.0h.01M258.9 221.6h.01M179.9 288.0h.01M127.3 210.8h.01M136.5 131.3h.01M100.3 66.9h.01M185.1 142.1h.01M165.4 140.6h.01M96.1 218.1h.01M142.9 59.7h.01M134.4 199.7h.01M142.6 80.1h.01M220.6 326.2h.01M125.2 123.0h.01M163.0 69.8h.01M110.6 229.9h.01M99.8 128.1h.01M95.6 178.1h.01M214.0 211.0h.01M72.4 270.4h.01M271.9 0.4h.01M255.2 154.5h.01M123.4 178.7h.01M72.8 260.9h.01M107.1 214.7h.01M261.5 319.6h.01M188.3 59.5h.01M232.7 169.0h.01M358.6 178.1h.01M296.4 242.8h.01M149.9 224.1h.01M207.4 102.0h.01M258.4 252.6h.01M136.5 42.5h.01M275.2 232.9h.01M128.4 190.2h.01M156.8 100.1h.01M195.8 78.5h.01M63.3 137.5h.01M209.4 244.8h.01M255.2 262.8h.01M67.4 290.1h.01M283.6 147.0h.01M168.7 134.0h.01M236.1 237.7h.01M229.0 202.3h.01M180.1 119.8h.01M201.9 114.9h.01M174.4 76.7h.01M146.5 101.3h.01M213.3 139.5h.01M132.9 208.8h.01M164.5 355.6h.01M118.1 121.0h.01M160.4 140.7h.01M191.9 212.0h.01M113.3 136.4h.01M162.5 81.6h.01M121.5 128.4h.01M256.8 216.2h.01M122.8 189.9h.01M301.4 169.4h.01M165.2 203.3h.01M219.2 162.7h.01M162.0 134.4h.01M69.1 139.1h.01M190.3 114.7h.01M218.8 339.9h.01M119.1 96.1h.01M112.0 213.9h.01M160.5 204.6h.01M106.1 191.9h.01M98.7 202.3h.01M163.0 218.7h.01M187.6 195.0h.01M193.3 133.3h.01M62.9 163.4h.01M34.9 163.9h.01M112.8 117.5h.01M64.3 286.5h.01M242.8 166.9h.01M165.5 188.3h.01M130.1 133.5h.01M258.3 161.5h.01M180.8 360.7h.01M214.7 229.0h.01M159.9 38.6h.01M113.8 101.4h.01M49.4 182.7h.01M179.8 99.5h.01M126.7 69.7h.01M111.0 152.5h.01M107.9 109.6h.01M57.0 261.7h.01M103.4 117.6h.01M114.8 332.5h.01M176.7 105.4h.01M155.1 238.5h.01M97.3 117.3h.01M72.9 251.8h.01M81.8 93.3h.01M175.5 140.5h.01M197.5 202.4h.01M180.2 211.8h.01M242.4 172.0h.01M206.5 77.4h.01M221.8 358.9h.01M143.7 133.0h.01M57.1 246.2h.01M151.8 218.2h.01M287.0 237.3h.01M169.1 59.3h.01M110.6 236.2h.01M130.5 196.4h.01M255.6 268.4h.01M122.4 141.6h.01M223.6 253.8h.01M44.4 167.3h.01M195.9 111.4h.01M207.2 324.3h.01M78.9 154.7h.01M180.5 129.6h.01M174.2 131.3h.01M149.8 135.5h.01M95.1 129.5h.01M358.6 236.2h.01M174.7 209.5h.01M259.6 172.0h.01M162.6 209.5h.01M105.1 166.4h.01M275.7 281.3h.01M193.5 199.9h.01M108.2 134.4h.01M83.8 143.2h.01M83.3 157.6h.01M151.2 105.6h.01M140.2 120.2h.01M56.2 241.7h.01M256.6 238.0h.01M101.5 206.5h.01M185.6 199.3h.01M102.1 122.6h.01M59.7 283.7h.01M94.2 204.8h.01M107.9 202.8h.01M95.9 144.9h.01M261.8 215.4h.01M53.8 179.4h.01M300.4 198.5h.01M174.0 70.2h.01M174.4 224.8h.01M150.0 81.7h.01M0.4 233.7h.01M0.4 177.7h.01M250.5 306.6h.01M43.9 179.4h.01M173.2 122.8h.01M70.8 266.1h.01M237.4 174.0h.01M137.1 105.9h.01M184.6 124.8h.01M153.0 228.9h.01M151.8 87.8h.01M186.8 213.3h.01M154.3 110.7h.01M67.7 180.8h.01M48.9 232.0h.01M286.4 251.5h.01M73.3 183.5h.01M235.5 326.2h.01M128.7 216.9h.01M47.3 222.7h.01M154.0 93.9h.01M225.5 318.1h.01M274.7 175.1h.01M135.8 124.9h.01M171.7 102.3h.01M112.0 0.4h.01M148.8 112.5h.01M116.8 132.2h.01M207.7 365.6h.01M280.1 232.7h.01M179.0 430.6h.01M44.6 189.4h.01M228.8 184.8h.01M152.3 75.9h.01M159.1 113.2h.01M129.7 223.8h.01M76.7 267.1h.01M146.9 127.8h.01M99.8 233.3h.01M93.7 188.8h.01M42.0 198.7h.01M135.7 224.4h.01M49.2 176.1h.01M74.7 163.6h.01M78.0 139.5h.01M76.2 133.6h.01M54.1 228.9h.01M76.8 100.7h.01M168.4 208.6h.01M113.5 107.6h.01M358.6 208.0h.01M79.5 85.7h.01M58.3 255.0h.01M265.9 266.2h.01M195.9 118.9h.01M77.0 255.9h.01M74.1 130.0h.01M254.0 221.6h.01M202.7 290.7h.01M65.2 133.3h.01M52.6 258.2h.01M105.4 58.1h.01M301.1 163.7h.01M217.9 214.5h.01M65.2 149.5h.01M221.6 201.4h.01M164.0 110.0h.01M101.2 162.4h.01M182.2 304.3h.01M219.2 312.6h.01M58.1 267.5h.01M261.4 270.5h.01M232.0 175.2h.01M50.1 188.1h.01M277.5 227.1h.01M99.0 192.2h.01M57.9 273.2h.01M103.3 106.7h.01M287.3 180.0h.01M72.0 135.6h.01M89.7 115.7h.01M97.9 134.3h.01M130.2 139.1h.01M54.3 185.4h.01M274.6 260.3h.01M305.0 221.0h.01M191.7 95.2h.01M116.5 114.0h.01M157.5 218.8h.01M169.7 283.6h.01M223.2 146.4h.01M269.6 251.1h.01M75.7 262.8h.01M191.5 0.4h.01M180.3 135.7h.01M91.1 200.9h.01M34.0 149.9h.01M92.1 214.1h.01M96.0 99.6h.01M140.5 92.2h.01M103.6 202.1h.01M170.2 184.6h.01M132.9 64.4h.01M149.1 236.5h.01M35.7 172.1h.01M261.3 262.6h.01M178.0 313.9h.01M281.2 220.9h.01M89.3 138.0h.01M263.8 192.7h.01M91.9 194.0h.01M167.0 0.4h.01M230.5 309.6h.01M131.0 44.6h.01M115.2 226.9h.01M300.5 192.7h.01M82.9 195.7h.01M277.7 290.5h.01M171.2 138.6h.01M254.5 169.4h.01M72.1 121.4h.01M72.0 174.5h.01M53.6 216.5h.01M102.7 170.6h.01M78.4 173.4h.01M145.6 71.1h.01M247.6 174.1h.01M250.3 269.7h.01M257.1 231.6h.01M116.7 64.2h.01M306.1 178.7h.01M188.2 80.9h.01M64.2 142.6h.01M87.0 154.6h.01M108.9 140.8h.01M121.7 168.6h.01M146.7 218.1h.01M192.7 223.4h.01M82.4 201.1h.01M118.5 177.1h.01M90.2 120.9h.01M93.9 233.6h.01M97.4 183.5h.01M160.7 190.4h.01M50.9 225.8h.01M228.9 313.5h.01M196.7 211.5h.01M171.8 204.5h.01M136.1 97.5h.01M41.7 204.3h.01M76.3 107.9h.01M182.1 114.0h.01M189.6 199.6h.01M94.4 66.9h.01M158.1 89.0h.01M126.4 51.1h.01M212.6 152.7h.01M239.0 51.5h.01M130.8 97.2h.01M83.0 185.2h.01M144.1 107.3h.01M83.5 179.4h.01M303.1 187.5h.01M74.0 153.4h.01M57.5 214.1h.01M90.2 176.5h.01M184.5 109.2h.01M51.4 240.2h.01M253.2 174.3h.01M210.7 158.5h.01M101.4 147.2h.01M165.5 223.3h.01M279.3 173.7h.01M235.2 186.1h.01M95.6 123.3h.01M175.2 286.1h.01M274.0 299.6h.01M46.9 197.1h.01M157.3 288.3h.01M146.8 120.7h.01M159.2 74.6h.01M158.9 126.7h.01M122.0 210.7h.01M169.4 80.5h.01M107.6 186.2h.01M222.6 185.2h.01M112.6 121.6h.01M86.9 191.3h.01M42.7 173.3h.01M199.9 101.9h.01M233.8 246.6h.01M150.2 282.5h.01M179.7 93.9h.01M172.2 213.4h.01M166.0 180.5h.01M194.0 70.0h.01M301.8 182.5h.01M69.2 165.5h.01M192.1 194.9h.01M213.8 295.7h.01M107.4 125.4h.01M35.4 143.9h.01M180.1 226.9h.01M56.1 132.8h.01M81.1 222.5h.01M125.2 138.4h.01M159.7 228.1h.01M74.4 178.7h.01M84.9 161.8h.01M162.7 63.4h.01M300.8 176.2h.01M69.7 222.0h.01M279.6 277.5h.01M61.8 114.4h.01M219.0 300.8h.01M199.8 74.5h.01M197.3 193.5h.01M117.2 186.8h.01M70.9 98.5h.01M65.3 155.2h.01M271.0 296.6h.01M186.1 74.2h.01M47.6 161.8h.01M142.6 147.4h.01M214.5 0.4h.01M182.9 314.2h.01M170.0 228.6h.01M217.1 253.5h.01M133.1 119.1h.01M165.5 194.2h.01M234.4 330.5h.01M175.1 308.3h.01M216.4 321.8h.01M185.8 118.4h.01M150.9 62.6h.01M161.1 95.6h.01M177.8 125.0h.01M51.7 246.7h.01M145.8 233.5h.01M161.6 184.4h.01M141.0 225.9h.01M270.1 270.2h.01M157.1 66.4h.01M201.4 107.9h.01M153.0 116.7h.01M257.4 280.4h.01M175.1 187.1h.01M146.0 195.6h.01M154.9 282.9h.01M203.5 243.4h.01M59.7 219.8h.01M71.7 112.5h.01M124.4 111.4h.01M104.4 236.8h.01M155.0 224.0h.01M278.1 142.3h.01M220.9 167.5h.01M190.0 145.8h.01M93.3 164.0h.01M60.1 182.4h.01M125.2 220.5h.01M156.5 81.8h.01M89.1 143.1h.01M143.5 214.0h.01M152.1 142.9h.01M175.5 90.9h.01M262.9 157.8h.01M144.7 238.0h.01M91.0 222.7h.01M147.1 189.3h.01M182.6 80.7h.01M240.2 156.1h.01M127.6 117.2h.01M173.6 96.9h.01M227.0 196.6h.01M106.0 64.7h.01M82.2 105.4h.01M307.4 167.1h.01M115.0 233.4h.01M208.2 109.4h.01M169.2 113.7h.01M187.1 225.0h.01M142.2 242.9h.01M113.4 164.6h.01M193.8 312.8h.01M147.0 356.0h.01M192.9 83.6h.01M83.8 116.2h.01M219.3 225.8h.01M179.5 308.8h.01M67.9 171.2h.01M156.4 59.1h.01M80.7 134.1h.01M216.3 146.8h.01M169.7 91.2h.01M77.9 185.4h.01M185.8 294.8h.01M62.7 170.2h.01M190.0 322.4h.01M145.8 65.6h.01M77.8 144.9h.01M38.6 167.9h.01M127.3 176.0h.01M130.7 126.6h.01M206.0 295.8h.01M193.8 366.5h.01M181.0 198.4h.01M121.7 63.6h.01M267.6 312.4h.01M52.5 136.1h.01M223.5 160.0h.01M201.5 320.0h.01M87.9 171.6h.01M255.5 191.3h.01M307.1 156.0h.01M48.2 171.0h.01M237.9 169.1h.01M110.4 113.6h.01M224.4 295.3h.01M151.0 240.2h.01M216.2 326.8h.01M152.3 128.4h.01M187.4 136.7h.01M229.1 303.0h.01M274.5 194.1h.01M218.3 236.2h.01M205.1 71.9h.01M43.0 184.8h.01M165.2 228.1h.01M251.0 257.2h.01M95.7 197.7h.01M280.9 267.5h.01M210.9 320.4h.01M61.2 276.5h.01M38.2 189.0h.01M107.0 220.0h.01M169.1 66.0h.01M140.2 197.3h.01M66.2 257.4h.01M259.9 166.6h.01M130.1 204.2h.01M168.9 119.5h.01M248.8 260.5h.01M173.2 86.1h.01M202.4 204.3h.01M97.5 237.8h.01M235.3 151.3h.01M72.5 231.5h.01M210.4 249.3h.01M86.6 212.8h.01M156.0 132.5h.01M219.7 207.3h.01M141.4 142.9h.01M234.9 280.0h.01M119.8 223.0h.01M125.8 200.6h.01M59.9 176.3h.01M303.3 205.5h.01M155.6 203.1h.01M143.4 113.9h.01M84.1 79.3h.01M266.7 213.6h.01M75.4 92.6h.01M46.5 150.8h.01M181.2 202.4h.01M307.3 161.5h.01M132.8 213.8h.01M211.9 325.5h.01M142.7 84.8h.01M145.6 76.0h.01M148.6 56.4h.01M88.8 165.6h.01M200.2 368.5h.01M81.6 0.4h.01M72.0 159.6h.01M152.5 183.9h.01M270.9 168.7h.01M152.1 69.4h.01M90.8 79.4h.01M135.6 136.7h.01M138.8 351.6h.01M126.1 129.7h.01M267.0 163.9h.01M268.1 239.1h.01M52.9 234.6h.01M131.3 103.8h.01M202.1 122.5h.01M90.4 151.6h.01M162.9 232.8h.01M159.6 238.6h.01M83.4 216.6h.01M167.3 85.6h.01M42.3 193.4h.01M205.6 200.7h.01M37.1 183.2h.01M111.8 174.9h.01M289.5 208.4h.01M176.8 111.3h.01M281.0 271.9h.01M98.3 166.3h.01M122.6 57.6h.01M0.4 146.4h.01M208.7 235.9h.01M61.1 244.0h.01M104.0 224.3h.01M90.7 147.3h.01M169.5 317.2h.01M210.7 315.3h.01M105.6 175.1h.01M134.3 219.4h.01M110.6 60.7h.01M90.2 208.7h.01M235.5 0.4h.01M56.8 250.8h.01M182.3 104.9h.01M186.6 203.8h.01M94.4 160.3h.01M103.6 211.0h.01M158.8 120.2h.01M99.4 111.3h.01M217.0 156.8h.01M102.9 134.7h.01M75.9 208.9h.01M290.9 241.7h.01M163.7 116.8h.01M187.8 88.0h.01M151.2 99.1h.01M224.0 313.0h.01M225.1 180.9h.01M63.5 196.9h.01M233.3 254.1h.01M242.1 150.3h.01M37.3 177.7h.01M198.7 84.9h.01M186.9 100.9h.01M118.0 192.2h.01M210.2 293.0h.01M190.3 107.9h.01M275.7 269.2h.01M149.8 202.1h.01M47.6 134.4h.01M206.7 83.9h.01M270.1 215.3h.01M112.6 190.4h.01M88.4 237.9h.01M73.3 141.8h.01M167.4 74.6h.01M100.0 246.2h.01M120.0 53.2h.01M157.5 233.2h.01M101.1 196.9h.01M137.2 113.3h.01M76.6 234.6h.01M117.9 126.0h.01M176.5 191.6h.01M190.5 327.3h.01M248.8 225.9h.01M108.9 79.1h.01M231.7 317.1h.01M126.1 46.0h.01M91.9 183.0h.01M230.8 333.2h.01M224.7 46.3h.01M67.6 211.7h.01M62.8 255.0h.01M242.1 161.4h.01M295.9 196.6h.01M358.6 264.1h.01M130.5 179.6h.01M0.4 206.5h.01M175.0 199.8h.01M258.7 226.9h.01M101.6 220.0h.01M306.3 172.7h.01M60.2 146.8h.01M171.1 108.5h.01M218.3 220.0h.01M200.7 294.6h.01M190.4 123.0h.01M87.7 185.9h.01M262.3 277.6h.01M106.6 196.9h.01M107.1 232.8h.01M77.9 239.7h.01M202.4 311.0h.01M93.0 169.2h.01M262.1 256.5h.01M111.6 130.2h.01M224.6 300.5h.01M213.7 161.8h.01M138.0 209.1h.01M233.6 286.9h.01M106.6 154.4h.01M115.9 57.7h.01M177.0 82.6h.01M82.5 111.3h.01M257.1 274.5h.01M254.5 0.4h.01M145.9 88.0h.01M256.7 257.6h.01M139.5 66.5h.01M140.6 247.1h.01M52.6 253.0h.01M225.9 324.5h.01M118.0 206.0h.01M183.4 195.3h.01M126.4 184.2h.01M41.2 161.7h.01M151.5 192.2h.01M276.2 274.0h.01M124.1 77.8h.01M141.3 137.8h.01M191.4 75.3h.01M171.2 242.8h.01M182.5 207.0h.01M52.4 211.4h.01M140.5 0.4h.01M190.6 291.1h.01M236.0 313.9h.01M68.6 144.8h.01M112.2 68.0h.01M148.3 41.3h.01M358.6 146.3h.01M140.5 219.5h.01M170.4 38.2h.01"/>
<path stroke="#1a1a1a" stroke-width="2.44" stroke-linecap="round" fill="none" d="M108.4 257.9h.01M181.1 292.5h.01M144.7 180.8h.01M197.5 319.6h.01M153.4 39.0h.01M195.5 215.0h.01M195.4 295.8h.01M173.9 259.7h.01M69.7 216.8h.01M91.9 259.8h.01M132.1 229.3h.01M171.9 288.2h.01M267.1 195.6h.01M66.2 262.3h.01M58.2 137.3h.01M94.0 111.2h.01M100.1 269.6h.01M237.0 319.2h.01M87.9 264.8h.01M64.8 242.5h.01M155.3 161.5h.01M170.3 321.5h.01M183.9 216.6h.01M187.0 239.0h.01M237.6 287.3h.01M96.4 266.1h.01M95.1 209.1h.01M289.2 188.8h.01M66.2 228.5h.01M84.0 137.8h.01M251.2 302.6h.01M72.9 205.2h.01M229.5 298.5h.01M123.7 225.6h.01M228.4 341.7h.01M122.2 246.3h.01M228.2 285.0h.01M241.2 301.2h.01M244.1 309.8h.01M81.6 251.4h.01M243.4 253.5h.01M48.9 214.4h.01M206.5 204.3h.01M213.6 284.9h.01M252.2 299.0h.01M124.5 233.7h.01M222.3 257.9h.01M123.5 315.9h.01M155.8 293.2h.01M180.8 324.2h.01M136.2 248.4h.01M110.4 262.6h.01M214.4 258.3h.01M122.3 305.2h.01M229.6 279.7h.01M247.2 325.4h.01M94.0 140.2h.01M176.2 243.8h.01M232.6 341.7h.01M246.5 213.9h.01M65.7 266.4h.01M52.6 197.9h.01M96.6 270.6h.01M71.8 239.7h.01M297.6 213.9h.01M181.2 147.2h.01M104.7 113.2h.01M71.3 282.8h.01M233.6 305.4h.01M303.5 232.5h.01M110.6 291.3h.01M186.0 148.7h.01M207.5 167.3h.01M122.5 299.3h.01M136.2 204.3h.01M260.8 290.1h.01M35.8 137.6h.01M197.6 243.9h.01M65.2 176.7h.01M111.2 278.5h.01M122.0 164.6h.01M196.6 197.1h.01M129.1 233.2h.01M67.4 235.6h.01M187.9 317.9h.01M118.4 162.3h.01M126.8 228.9h.01M207.5 221.9h.01M210.5 333.0h.01M207.0 307.4h.01M134.3 277.0h.01M134.5 252.9h.01M239.9 245.0h.01M118.4 172.3h.01M244.2 300.6h.01M103.9 277.6h.01M152.2 208.0h.01M138.7 308.4h.01M95.0 284.4h.01M250.0 217.4h.01M106.8 246.8h.01M128.6 340.6h.01M270.0 211.6h.01M175.6 238.8h.01M139.8 238.4h.01M272.3 304.8h.01M68.8 185.6h.01M250.5 296.2h.01M291.4 247.5h.01M67.0 249.6h.01M170.8 144.0h.01M197.1 174.2h.01M163.7 249.4h.01M220.5 343.6h.01M201.4 325.0h.01M101.0 273.0h.01M136.3 179.8h.01M146.8 307.5h.01M61.0 211.1h.01M67.2 239.4h.01M76.5 275.1h.01M70.3 193.9h.01M50.0 206.8h.01M226.5 274.9h.01M179.7 187.9h.01M74.4 220.2h.01M162.0 146.4h.01M63.9 215.2h.01M134.7 258.8h.01M114.0 252.5h.01M111.5 309.0h.01M221.9 331.8h.01M82.2 255.9h.01M146.0 248.5h.01M86.7 274.4h.01M108.2 103.6h.01M209.2 338.2h.01M194.1 331.6h.01M118.5 296.4h.01M118.7 300.2h.01M82.2 274.2h.01M91.5 228.1h.01M134.8 238.4h.01M125.0 105.9h.01M269.8 291.9h.01M96.6 255.9h.01M199.3 175.8h.01M211.1 197.1h.01M161.5 280.4h.01M253.7 283.8h.01M248.8 210.7h.01M78.4 218.6h.01M159.7 297.9h.01M250.8 317.2h.01M165.4 316.8h.01M278.4 179.1h.01M294.5 201.0h.01M264.2 250.1h.01M192.7 242.1h.01M174.6 247.9h.01M163.7 238.0h.01M212.4 219.2h.01M229.1 257.2h.01M162.9 302.7h.01M60.6 193.6h.01M86.2 247.1h.01M215.2 303.3h.01M157.2 144.3h.01M198.4 314.8h.01M86.1 148.5h.01M218.8 335.1h.01M132.0 300.0h.01M250.4 178.3h.01M266.2 294.9h.01M216.5 171.3h.01M232.8 157.6h.01M258.3 248.4h.01M216.9 286.8h.01M202.6 333.9h.01M212.5 253.6h.01M157.4 278.4h.01M177.5 216.0h.01M173.5 275.3h.01M249.7 328.8h.01M56.8 257.8h.01M151.7 286.3h.01M118.3 138.7h.01M158.3 301.5h.01M216.2 361.2h.01M105.3 206.7h.01M147.3 293.5h.01M267.0 298.5h.01M214.8 195.1h.01M179.0 248.2h.01M166.5 255.4h.01M77.4 279.2h.01M69.7 154.9h.01M131.6 241.7h.01M229.5 163.0h.01M165.3 159.2h.01M289.3 184.3h.01M171.9 305.6h.01M251.9 274.1h.01M252.1 213.3h.01M120.7 47.9h.01M165.3 278.5h.01M84.7 226.7h.01M206.0 226.4h.01M249.7 245.5h.01M214.3 223.7h.01M90.5 125.8h.01M244.6 257.5h.01M207.8 303.2h.01M143.2 209.0h.01M99.4 225.0h.01M293.7 214.8h.01M112.7 184.5h.01M241.5 347.4h.01M269.6 301.9h.01M235.2 229.5h.01M83.3 173.9h.01M204.5 300.9h.01M110.0 169.6h.01M69.7 150.2h.01M137.4 347.8h.01M198.3 218.4h.01M128.6 251.7h.01M112.3 259.5h.01M151.4 293.6h.01M64.0 279.4h.01M120.2 229.3h.01M173.9 317.6h.01M243.5 217.0h.01M153.0 276.0h.01M153.1 177.7h.01M111.5 244.3h.01M53.4 193.4h.01M154.5 321.3h.01M159.4 328.6h.01M295.9 211.5h.01M80.5 245.7h.01M194.2 321.1h.01M155.6 325.6h.01M106.0 281.0h.01M192.1 169.5h.01M61.9 251.9h.01M213.5 339.7h.01M138.6 148.0h.01M221.5 304.6h.01M124.3 238.8h.01M251.9 287.7h.01M229.4 321.7h.01M206.6 250.5h.01M270.8 274.5h.01M253.9 305.4h.01M90.3 129.7h.01M75.0 228.8h.01M180.6 328.6h.01M174.5 263.1h.01M297.8 224.8h.01M210.7 226.6h.01M89.5 243.3h.01M288.8 194.0h.01M127.4 243.6h.01M193.5 172.7h.01M234.7 335.2h.01M159.4 284.0h.01M112.1 255.7h.01M77.7 203.1h.01M128.9 237.8h.01M109.2 283.0h.01M68.4 231.9h.01M80.2 281.5h.01M116.2 220.8h.01M120.4 314.7h.01M225.6 258.8h.01M230.7 327.2h.01M230.3 271.1h.01M146.6 298.1h.01M182.8 318.7h.01M150.1 278.5h.01M168.5 301.6h.01M71.4 247.3h.01M139.6 257.1h.01M207.1 217.6h.01M287.8 222.0h.01M140.9 233.1h.01M61.7 264.1h.01M167.5 213.4h.01M76.4 125.0h.01M76.8 249.0h.01M99.2 208.9h.01M211.7 305.1h.01M233.8 258.7h.01M179.5 267.3h.01M116.7 216.1h.01M171.6 297.3h.01M224.0 287.1h.01M266.1 306.0h.01M129.6 268.0h.01M154.4 312.4h.01M125.7 273.2h.01M271.9 227.4h.01M72.8 198.0h.01M258.1 323.2h.01M70.1 226.8h.01M55.4 207.4h.01M204.5 189.9h.01M190.6 151.3h.01M205.9 158.5h.01M248.8 264.8h.01M64.1 207.3h.01M173.4 282.5h.01M151.4 245.6h.01M282.1 236.9h.01M78.9 271.4h.01M256.5 297.2h.01M262.9 223.7h.01M79.8 160.4h.01M166.3 295.3h.01M148.8 179.0h.01M93.1 173.5h.01M276.2 190.0h.01M172.6 313.0h.01M133.5 313.2h.01M80.1 261.5h.01M197.1 238.8h.01M59.1 157.6h.01M232.1 207.0h.01M293.7 236.4h.01M192.6 316.9h.01M75.4 298.6h.01M65.0 219.8h.01M158.8 311.2h.01M150.0 309.7h.01M270.6 174.1h.01M57.8 162.8h.01M84.9 261.2h.01M74.6 243.8h.01M52.4 140.4h.01M218.5 257.6h.01M202.1 224.1h.01M137.3 229.6h.01M78.6 214.2h.01M187.8 312.3h.01M182.6 269.3h.01M183.6 283.4h.01M78.5 168.2h.01M277.6 264.5h.01M176.0 295.2h.01M54.4 147.8h.01M277.2 238.9h.01M193.2 232.0h.01M131.2 272.5h.01M100.5 279.6h.01M225.2 279.6h.01M111.1 248.8h.01M206.2 231.0h.01M112.7 209.3h.01M167.4 234.6h.01M147.0 147.6h.01M181.7 191.7h.01M211.2 309.6h.01M63.7 224.0h.01M97.4 213.1h.01M41.4 146.3h.01M237.0 349.3h.01M236.3 206.5h.01M118.5 157.6h.01M67.0 270.5h.01M206.3 214.0h.01M132.2 185.1h.01M74.5 224.4h.01M124.6 329.8h.01M283.9 256.1h.01M80.7 189.9h.01M220.1 318.1h.01M64.5 186.3h.01M184.0 310.0h.01M115.6 309.4h.01M43.6 133.5h.01M72.0 274.8h.01M285.5 196.5h.01M168.7 330.3h.01M60.4 188.6h.01M265.9 273.2h.01M204.7 247.4h.01M244.7 344.3h.01M85.9 281.6h.01M147.1 165.1h.01M198.5 308.5h.01M122.3 216.3h.01M209.7 182.7h.01M118.9 238.1h.01M203.6 235.4h.01M192.5 236.8h.01M166.6 322.2h.01M87.3 204.4h.01M220.2 172.9h.01M116.3 291.1h.01M130.1 256.6h.01M164.9 245.1h.01M174.9 273.8h.01M54.7 222.8h.01M236.7 283.6h.01M291.4 197.0h.01M240.0 239.5h.01M90.4 293.6h.01M258.4 286.0h.01M163.1 309.5h.01M222.1 322.1h.01M147.7 289.6h.01M170.7 249.2h.01M165.9 290.2h.01M147.4 285.6h.01M174.9 301.4h.01M246.6 332.0h.01M270.6 194.6h.01M135.4 146.5h.01M57.3 197.0h.01M89.2 218.0h.01M193.6 277.6h.01M185.4 326.9h.01M96.9 261.0h.01M120.2 233.8h.01M247.8 253.7h.01M135.1 296.1h.01M119.4 306.7h.01M248.0 196.4h.01M204.6 316.0h.01M152.9 158.5h.01M146.4 281.3h.01M129.3 262.1h.01M226.2 306.8h.01M110.2 54.6h.01M62.3 270.4h.01M256.0 212.0h.01M191.7 285.9h.01M231.3 194.2h.01M98.7 251.3h.01M206.5 284.2h.01M163.5 285.7h.01M178.1 274.2h.01M272.9 236.4h.01M66.6 274.6h.01M196.2 228.3h.01M140.8 310.7h.01M47.6 218.6h.01M201.6 155.6h.01M161.4 287.9h.01M289.4 214.1h.01M86.2 230.4h.01M188.2 274.5h.01M111.9 219.7h.01M225.6 328.3h.01M170.5 291.9h.01M188.3 362.7h.01M104.9 259.1h.01M134.5 191.0h.01M249.7 334.9h.01M151.4 317.7h.01M246.7 317.8h.01M115.6 249.1h.01M88.5 110.6h.01M64.9 246.4h.01M263.2 315.0h.01M71.7 256.1h.01M108.6 208.7h.01M284.5 184.2h.01M177.1 277.1h.01M82.8 235.8h.01M172.9 356.8h.01M212.9 238.2h.01M161.9 178.9h.01M107.4 277.9h.01M61.8 259.5h.01M74.5 194.7h.01M166.7 146.6h.01M60.4 132.2h.01M114.6 296.5h.01M293.2 192.0h.01M276.3 286.8h.01M46.7 210.5h.01M137.1 291.4h.01M185.9 276.6h.01M108.7 252.5h.01M188.9 216.8h.01M247.4 249.4h.01M239.8 316.5h.01M218.4 330.3h.01M112.7 201.0h.01M118.5 196.5h.01M242.6 212.3h.01M131.9 247.6h.01M136.5 243.2h.01M246.7 306.7h.01M114.6 239.5h.01M37.6 156.9h.01M216.7 307.2h.01M150.2 313.8h.01M65.5 201.9h.01M123.5 323.5h.01M40.0 141.0h.01M109.4 288.5h.01M97.8 273.5h.01M265.0 301.5h.01M213.5 278.3h.01M80.6 206.1h.01M160.5 305.9h.01M246.1 268.7h.01M69.0 279.0h.01M253.0 278.9h.01M245.6 321.9h.01M69.2 260.4h.01M154.8 316.4h.01M109.5 240.5h.01M73.0 147.3h.01M156.8 210.2h.01M189.2 301.2h.01M301.5 222.2h.01M82.2 266.6h.01M50.9 152.8h.01M282.1 180.5h.01M245.5 340.7h.01M142.3 291.0h.01M197.8 329.0h.01M297.8 230.9h.01M179.2 252.5h.01M146.0 229.1h.01M97.4 106.7h.01M125.3 312.9h.01M67.3 253.4h.01M226.2 166.8h.01M171.0 148.5h.01M61.7 248.8h.01M60.1 122.2h.01M84.0 241.5h.01M143.6 285.7h.01M153.0 289.7h.01M185.2 300.1h.01M281.5 261.1h.01M249.0 279.6h.01M167.9 311.3h.01M175.2 255.1h.01M285.7 218.6h.01M227.3 331.9h.01M100.0 142.3h.01M248.8 338.4h.01M87.5 179.2h.01M90.6 273.3h.01M216.0 315.9h.01M201.5 239.4h.01M100.9 257.8h.01M84.4 270.3h.01M45.3 205.9h.01M150.7 303.6h.01M289.0 227.2h.01M45.0 201.2h.01M211.6 166.3h.01M84.6 208.4h.01M189.7 277.8h.01M179.5 301.5h.01M61.3 201.5h.01M235.1 233.4h.01M232.4 275.8h.01M200.6 212.3h.01M66.6 160.0h.01M122.1 242.3h.01M76.1 158.0h.01M70.8 189.0h.01M183.0 276.5h.01M204.2 174.7h.01M201.6 298.8h.01M211.1 214.7h.01M79.2 227.0h.01M248.4 190.1h.01M166.7 306.5h.01M272.2 278.1h.01M151.4 354.8h.01M114.8 306.4h.01M207.6 328.7h.01M235.1 271.3h.01M122.2 160.6h.01M136.4 195.1h.01M192.4 309.0h.01M232.2 283.3h.01M187.9 284.2h.01M74.8 189.9h.01M187.3 234.1h.01M256.2 301.6h.01M240.7 326.9h.01M274.4 215.7h.01M71.4 105.8h.01M176.0 145.8h.01M50.1 166.3h.01M104.2 250.4h.01M140.5 191.4h.01M95.8 222.8h.01M256.9 177.0h.01M63.2 235.9h.01M140.6 252.1h.01M177.7 195.3h.01M165.4 282.7h.01M106.6 148.8h.01M252.1 324.4h.01M84.4 121.0h.01M112.6 205.5h.01M69.5 201.3h.01M214.8 311.1h.01M115.2 51.3h.01M253.1 252.9h.01M105.2 242.5h.01M193.7 190.2h.01M170.1 274.3h.01M246.4 178.9h.01M263.6 310.1h.01M135.7 142.1h.01M198.0 223.0h.01M68.9 243.8h.01M284.3 223.3h.01M56.0 152.5h.01M180.9 274.3h.01M173.7 251.8h.01M146.4 321.1h.01M207.2 191.1h.01M108.0 119.6h.01M207.3 187.7h.01M215.1 355.2h.01M130.6 143.7h.01M224.3 283.5h.01M185.2 322.3h.01M78.8 193.5h.01M216.1 167.3h.01M142.4 186.6h.01M191.0 305.0h.01M248.0 313.3h.01M245.2 204.6h.01M109.7 225.0h.01M244.0 261.6h.01M60.9 152.1h.01M201.9 193.9h.01M228.4 177.9h.01M86.1 222.4h.01M73.6 169.3h.01M168.6 162.4h.01M115.1 159.2h.01M297.6 203.9h.01M272.1 287.9h.01M54.6 143.6h.01M170.3 266.5h.01M104.1 254.4h.01M61.9 239.6h.01M95.6 243.1h.01M48.9 146.8h.01M158.9 160.8h.01M267.3 288.0h.01M302.1 227.3h.01M126.3 248.0h.01M195.6 325.3h.01M110.3 146.2h.01M258.1 316.0h.01M262.5 305.0h.01M202.8 219.2h.01M184.3 332.0h.01M92.6 265.1h.01M82.3 152.7h.01M169.5 279.6h.01M132.5 283.9h.01M80.3 164.5h.01M198.5 233.7h.01M138.8 304.1h.01"/>
<path stroke="#1a1a1a" stroke-width="2.90" stroke-linecap="round" fill="none" d="M201.4 229.4h.01M201.9 275.3h.01M171.5 194.9h.01M58.0 168.4h.01M181.8 236.2h.01M254.5 319.4h.01M203.0 251.4h.01M127.8 302.4h.01M107.2 271.6h.01M157.7 163.2h.01M136.4 311.4h.01M118.4 243.9h.01M201.3 338.0h.01M115.3 245.6h.01M150.6 321.3h.01M197.6 189.5h.01M119.8 334.1h.01M97.9 288.0h.01M209.4 282.9h.01M209.6 186.1h.01M58.2 232.1h.01M119.3 248.5h.01M109.9 274.1h.01M213.3 349.8h.01M159.8 262.9h.01M196.6 166.9h.01M163.1 272.0h.01M221.2 177.9h.01M239.5 339.3h.01M110.0 266.7h.01M237.6 300.4h.01M178.1 256.6h.01M178.6 180.4h.01M156.6 256.4h.01M178.3 318.9h.01M285.6 192.4h.01M137.0 186.0h.01M83.0 280.2h.01M152.3 264.9h.01M258.8 293.7h.01M247.4 199.2h.01M220.4 288.9h.01M191.6 281.8h.01M292.8 209.7h.01M176.3 280.1h.01M203.0 305.4h.01M157.1 148.4h.01M197.8 287.0h.01M173.7 152.0h.01M87.0 125.5h.01M161.7 174.8h.01M278.4 257.5h.01M235.6 339.3h.01M92.3 253.3h.01M108.8 324.6h.01M78.6 284.5h.01M204.5 178.5h.01M70.7 290.7h.01M186.3 185.9h.01M225.7 345.6h.01M142.6 281.6h.01M181.5 261.3h.01M167.5 251.4h.01M80.9 211.0h.01M115.6 277.4h.01M87.6 257.1h.01M170.4 270.5h.01M232.5 262.6h.01M86.3 285.5h.01M77.9 197.9h.01M113.9 312.3h.01M184.2 280.1h.01M133.1 317.5h.01M280.2 191.6h.01M123.9 308.6h.01M127.5 290.7h.01M138.0 283.3h.01M194.1 302.5h.01M180.7 271.2h.01M107.0 263.3h.01M178.0 263.6h.01M208.5 178.6h.01M240.8 293.3h.01M232.4 266.7h.01M192.9 166.7h.01M71.5 209.8h.01M156.2 263.9h.01M190.1 296.2h.01M154.1 304.9h.01M44.3 142.3h.01M132.5 264.6h.01M259.1 180.4h.01M242.6 268.9h.01M187.4 270.0h.01M87.1 252.0h.01M213.5 185.5h.01M120.6 284.2h.01M145.2 315.2h.01M235.2 290.0h.01M256.0 183.6h.01M103.0 314.9h.01M136.2 273.7h.01M240.2 312.2h.01M100.5 285.5h.01M97.3 277.5h.01M221.7 277.0h.01M291.1 217.8h.01M112.6 316.4h.01M178.4 172.8h.01M143.7 157.8h.01M241.9 286.9h.01M139.9 325.5h.01M146.4 303.2h.01M222.7 349.4h.01M163.7 151.2h.01M149.4 274.4h.01M140.3 287.1h.01M219.7 191.4h.01M262.2 229.5h.01M203.7 185.6h.01M217.4 178.9h.01M91.0 285.1h.01M148.1 210.3h.01M214.1 335.3h.01M185.9 243.3h.01M196.7 270.9h.01M143.4 296.0h.01M169.1 326.6h.01M277.3 213.1h.01M110.3 269.9h.01M243.8 181.9h.01M152.1 148.0h.01M195.6 260.9h.01M129.0 172.6h.01M159.6 254.3h.01M163.5 253.2h.01M80.5 277.6h.01M190.4 262.4h.01M103.9 271.7h.01M171.9 257.4h.01M123.6 302.3h.01M269.8 232.8h.01M203.4 282.6h.01M101.7 275.7h.01M171.0 152.1h.01M190.4 164.3h.01M184.1 230.0h.01M158.0 176.6h.01M124.9 281.8h.01M210.9 257.6h.01M121.3 318.7h.01M160.1 258.5h.01M89.2 233.2h.01M171.4 179.7h.01M238.6 323.2h.01M199.4 179.9h.01M162.1 242.9h.01M121.3 280.5h.01M223.5 171.0h.01M224.5 342.3h.01M145.7 254.2h.01M261.1 176.0h.01M94.5 295.7h.01M167.8 287.0h.01M122.6 251.2h.01M86.9 292.6h.01M127.2 298.5h.01M126.3 320.6h.01M128.3 154.5h.01M216.3 190.1h.01M187.9 265.4h.01M73.9 214.2h.01M56.7 202.2h.01M164.8 259.0h.01M202.0 177.0h.01M162.5 256.5h.01M247.8 202.5h.01M238.3 335.1h.01M48.5 142.6h.01M299.6 216.6h.01M179.4 333.1h.01M237.6 199.3h.01M203.7 167.5h.01M135.5 280.7h.01M225.9 289.8h.01M90.0 277.5h.01M129.4 280.1h.01M115.4 318.2h.01M127.6 310.9h.01M196.9 254.6h.01M106.4 267.5h.01M104.0 285.6h.01M270.7 281.8h.01M124.0 277.1h.01M125.4 294.7h.01M184.4 272.7h.01M189.8 191.5h.01M281.1 208.4h.01M183.4 187.5h.01M235.7 243.1h.01M245.2 208.7h.01M155.1 260.5h.01M182.4 183.6h.01M132.6 155.6h.01M109.2 298.4h.01M100.1 264.5h.01M212.3 281.1h.01M135.8 287.2h.01M66.1 191.7h.01M197.0 258.2h.01M228.7 337.0h.01M243.1 273.9h.01M116.4 273.0h.01M177.8 270.1h.01M141.8 273.0h.01M57.4 224.9h.01M159.1 324.2h.01M68.4 124.3h.01M210.1 170.4h.01M206.1 279.5h.01M176.9 175.5h.01M107.7 320.7h.01M228.5 355.4h.01M107.5 286.2h.01M163.2 264.6h.01M217.2 275.7h.01M124.1 286.6h.01M114.3 150.1h.01M174.8 149.4h.01M106.0 283.7h.01M189.4 229.4h.01M205.7 181.1h.01M241.2 298.1h.01M80.8 231.2h.01M213.8 201.4h.01M71.9 235.7h.01M89.4 281.4h.01M283.1 213.3h.01M113.7 288.4h.01M253.6 313.9h.01M119.7 274.0h.01M274.4 179.9h.01M250.7 197.9h.01M217.3 175.8h.01M93.3 269.8h.01M239.8 289.8h.01M190.6 273.0h.01M201.4 189.2h.01M178.1 150.2h.01M212.5 189.1h.01M201.6 272.1h.01M202.9 214.2h.01M200.6 280.2h.01M200.3 163.4h.01M157.3 306.2h.01M111.8 304.3h.01M53.4 157.7h.01M132.3 304.6h.01M178.4 184.2h.01M123.9 172.5h.01M195.7 186.4h.01M176.1 290.5h.01M105.4 143.5h.01M270.6 179.4h.01M239.2 180.5h.01M112.9 281.9h.01M161.6 315.3h.01M119.7 322.3h.01M205.8 184.0h.01M139.8 201.4h.01M275.2 211.8h.01M209.4 278.0h.01M73.9 201.4h.01M71.9 286.7h.01M129.2 307.6h.01M187.7 188.5h.01M190.8 268.0h.01M283.9 188.9h.01M243.8 294.1h.01M238.9 214.0h.01M229.7 288.1h.01M216.2 198.5h.01M301.0 211.9h.01M162.0 159.5h.01M158.2 266.5h.01M138.6 156.6h.01M65.9 282.8h.01M65.7 110.2h.01M262.1 296.6h.01M181.2 165.8h.01M121.9 295.6h.01M176.1 326.6h.01M151.6 331.4h.01M126.2 305.7h.01M195.8 274.5h.01M206.6 194.0h.01M159.7 246.5h.01M223.9 338.7h.01M164.3 299.1h.01M95.3 309.6h.01M157.8 172.8h.01M102.8 281.8h.01M105.9 292.9h.01M280.4 183.8h.01M185.3 191.5h.01M152.8 262.6h.01M143.7 304.3h.01M107.9 306.6h.01M94.4 274.9h.01M187.1 170.2h.01M271.4 186.9h.01M245.4 245.0h.01M62.4 228.5h.01M157.7 260.7h.01M201.7 330.0h.01M103.6 306.6h.01M166.8 217.6h.01M133.6 175.4h.01M295.3 221.4h.01M147.7 317.3h.01M198.1 165.0h.01M136.5 264.0h.01M177.4 322.7h.01M143.0 165.5h.01M162.6 320.9h.01M149.0 327.0h.01M94.7 298.7h.01M213.0 170.5h.01M207.8 163.0h.01M119.6 277.0h.01M64.1 124.0h.01M170.7 262.4h.01M113.5 293.8h.01M237.5 252.1h.01M222.7 271.0h.01M218.0 358.7h.01M249.0 182.5h.01M174.9 181.7h.01M129.8 294.7h.01M150.3 152.4h.01M79.2 119.6h.01M74.3 117.6h.01M266.0 231.4h.01M212.8 174.0h.01M202.1 259.0h.01M131.7 310.3h.01M109.1 294.7h.01M183.5 262.1h.01M116.5 314.6h.01M220.6 283.3h.01M268.5 284.4h.01M53.7 167.4h.01M120.4 288.6h.01M187.1 336.9h.01M154.6 267.4h.01M135.2 307.1h.01M171.8 234.6h.01M225.1 356.7h.01M125.4 163.1h.01M82.3 289.1h.01M85.2 277.7h.01M259.0 311.6h.01M244.3 190.1h.01M162.8 330.6h.01M102.4 294.7h.01M265.6 174.2h.01M243.6 290.1h.01M241.8 320.0h.01M284.0 227.9h.01M198.9 274.7h.01M130.3 167.0h.01M286.3 201.5h.01M139.6 265.9h.01M139.8 279.2h.01M182.5 265.7h.01M165.9 327.0h.01M200.5 172.6h.01M134.8 234.3h.01M159.4 273.5h.01M75.5 286.6h.01M244.0 279.0h.01M254.2 293.1h.01M195.0 175.8h.01M68.6 285.9h.01M242.6 338.2h.01M176.9 259.8h.01M68.6 205.8h.01M247.1 274.6h.01M154.8 308.8h.01M251.0 310.7h.01M177.9 336.8h.01M159.0 157.4h.01M161.5 291.4h.01M272.9 211.2h.01M93.4 280.2h.01M118.2 280.1h.01M138.4 175.3h.01M146.0 325.0h.01M193.1 271.7h.01M238.5 330.3h.01M207.3 210.0h.01M180.9 296.7h.01M206.2 320.0h.01M238.5 296.4h.01M174.5 270.6h.01M166.7 270.0h.01M126.6 144.2h.01M139.5 163.9h.01M112.7 265.6h.01M234.8 225.4h.01M163.6 268.4h.01M181.0 256.6h.01M210.2 346.7h.01M208.6 253.6h.01M188.7 332.0h.01M151.5 165.0h.01M142.0 300.2h.01M112.8 276.1h.01M162.5 325.9h.01M206.2 276.1h.01M173.1 163.8h.01M106.6 274.8h.01M39.2 150.9h.01M126.6 167.2h.01M233.4 322.0h.01M228.0 351.3h.01M168.7 258.5h.01M154.6 302.0h.01M115.6 153.8h.01M167.5 261.5h.01M213.8 180.8h.01M154.7 174.1h.01M156.8 243.5h.01M239.8 303.9h.01M97.3 292.4h.01M245.1 328.4h.01M135.3 268.9h.01M282.5 194.3h.01M52.3 203.5h.01M170.4 254.7h.01M97.6 281.7h.01M213.4 192.5h.01M125.0 255.0h.01M152.0 212.7h.01M116.2 303.4h.01M196.4 178.8h.01M209.5 274.4h.01M228.6 266.0h.01M146.8 270.3h.01M127.9 284.8h.01M271.6 207.7h.01M130.7 321.1h.01M219.4 272.8h.01M185.1 267.0h.01M109.0 280.3h.01M142.4 307.5h.01M167.4 151.7h.01M151.5 162.0h.01M174.8 266.4h.01M193.2 179.5h.01M239.9 308.6h.01M216.5 282.4h.01M194.7 247.5h.01M64.2 119.2h.01M85.0 289.3h.01M238.6 267.6h.01M125.1 337.3h.01M180.9 240.5h.01M162.9 261.5h.01M174.1 322.8h.01M234.2 350.1h.01M293.0 230.6h.01M250.3 292.2h.01M125.8 269.8h.01M195.2 337.2h.01M275.7 294.7h.01M277.8 200.2h.01M141.1 205.2h.01M248.3 221.2h.01M92.9 248.0h.01M126.5 316.7h.01M235.0 309.5h.01M100.5 241.1h.01M88.9 269.5h.01M237.8 210.2h.01M195.7 306.0h.01M159.6 250.4h.01M156.0 251.7h.01M101.0 291.0h.01M198.6 340.5h.01M242.3 264.7h.01M93.0 239.1h.01M124.9 153.3h.01M124.8 264.9h.01M116.3 281.7h.01M198.0 278.5h.01M198.5 334.7h.01M203.5 163.3h.01M231.6 338.3h.01M215.2 271.2h.01M253.2 248.3h.01M241.9 208.6h.01M130.8 288.2h.01M181.0 279.5h.01M146.4 206.2h.01M247.6 283.6h.01M53.2 162.7h.01M94.4 288.6h.01M151.7 307.2h.01M172.4 328.8h.01M286.0 214.4h.01M253.8 180.3h.01M184.5 167.6h.01M147.0 259.2h.01M202.3 171.3h.01M97.9 298.7h.01M245.5 335.9h.01M206.5 333.1h.01M59.5 227.0h.01M209.4 200.6h.01M200.8 208.5h.01M152.7 253.2h.01M104.8 289.3h.01M209.9 193.2h.01M255.3 327.5h.01M148.6 323.4h.01M118.3 150.0h.01M103.5 263.2h.01M247.2 302.4h.01M116.2 299.0h.01M148.8 300.8h.01M134.7 320.7h.01M171.3 324.7h.01M217.9 279.3h.01M267.9 189.8h.01M239.3 271.5h.01M166.4 264.9h.01M103.0 267.4h.01M58.9 141.7h.01M170.6 342.5h.01M152.9 257.6h.01M114.4 262.4h.01M140.4 182.6h.01M228.8 291.6h.01M179.3 176.7h.01M224.1 334.8h.01M279.6 187.4h.01M150.4 174.5h.01M288.2 198.6h.01M160.9 294.5h.01"/>
<path stroke="#1a1a1a" stroke-width="3.38" stroke-linecap="round" fill="none" d="M133.8 329.8h.01M204.3 364.4h.01M116.7 255.7h.01M285.4 232.0h.01M242.5 324.4h.01M285.4 210.3h.01M148.2 330.6h.01M40.2 135.9h.01M213.3 274.4h.01M128.2 147.5h.01M123.2 321.0h.01M137.8 337.9h.01M239.9 206.6h.01M204.7 345.6h.01M134.2 166.6h.01M187.5 281.2h.01M117.5 261.3h.01M242.2 334.2h.01M160.7 266.4h.01M205.0 349.3h.01M239.2 260.4h.01M237.5 292.6h.01M105.5 323.4h.01M194.9 164.1h.01M181.3 244.3h.01M108.8 317.7h.01M235.9 266.3h.01M111.9 299.2h.01M155.2 165.3h.01M88.4 288.2h.01M112.0 324.6h.01M116.2 329.8h.01M119.7 292.5h.01M209.0 280.5h.01M175.3 333.7h.01M139.2 334.0h.01M131.4 146.3h.01M234.9 221.1h.01M105.8 297.8h.01M171.0 354.5h.01M263.8 178.5h.01M193.3 161.9h.01M77.4 290.9h.01M136.4 334.2h.01M230.4 349.0h.01M119.4 303.0h.01M189.9 344.4h.01M205.1 273.7h.01M243.7 241.7h.01M155.1 151.9h.01M87.8 300.4h.01M232.3 290.7h.01M197.1 268.0h.01M186.6 174.6h.01M138.1 318.8h.01M159.7 152.1h.01M233.2 347.7h.01M115.8 258.7h.01M170.3 334.7h.01M150.5 267.2h.01M231.0 293.4h.01M123.4 157.5h.01M171.2 346.1h.01M55.2 174.0h.01M135.1 170.9h.01M80.2 129.4h.01M81.6 303.1h.01M123.5 290.8h.01M181.0 263.9h.01M131.9 170.5h.01M262.5 181.4h.01M182.5 169.9h.01M149.9 333.7h.01M88.0 133.4h.01M206.7 289.0h.01M249.5 321.3h.01M136.4 341.3h.01M201.2 365.1h.01M200.5 167.8h.01M180.6 341.0h.01M74.5 289.5h.01M145.7 169.5h.01M205.0 262.3h.01M238.9 276.0h.01M161.4 354.0h.01M169.5 154.4h.01M176.0 153.9h.01M163.5 338.0h.01M151.8 325.5h.01M199.1 185.2h.01M150.9 297.3h.01M98.6 295.2h.01M118.0 318.5h.01M307.2 227.1h.01M113.8 320.2h.01M146.9 341.6h.01M233.9 201.7h.01M145.5 176.6h.01M199.8 270.2h.01M277.0 204.4h.01M172.5 332.2h.01M174.7 177.6h.01M152.3 300.3h.01M158.4 319.7h.01M133.1 292.1h.01M148.5 263.5h.01M134.6 335.9h.01M188.9 174.6h.01M110.3 313.7h.01M208.7 354.3h.01M275.3 208.6h.01M218.0 345.8h.01M90.8 297.2h.01M308.1 222.3h.01M135.5 163.6h.01M193.0 299.3h.01M173.2 155.0h.01M121.1 326.2h.01M121.6 151.5h.01M110.8 327.2h.01M197.5 161.7h.01M142.0 328.2h.01M194.8 342.1h.01M200.2 256.8h.01M192.8 265.0h.01M138.0 167.5h.01M226.5 270.3h.01M136.9 324.1h.01M280.5 196.9h.01M248.3 186.5h.01M251.8 187.8h.01M209.9 190.2h.01M240.5 191.0h.01M101.4 298.0h.01M157.0 269.9h.01M135.8 344.0h.01M86.9 307.1h.01M182.0 176.9h.01M177.7 358.4h.01M190.0 340.8h.01M207.9 357.4h.01M177.3 165.2h.01M300.5 207.5h.01M52.8 171.4h.01M210.0 360.5h.01M191.7 336.6h.01M245.2 186.9h.01M136.8 300.7h.01M145.5 352.7h.01M183.3 151.1h.01M132.0 326.9h.01M99.8 318.1h.01M156.2 214.4h.01M199.4 284.1h.01M138.9 270.8h.01M132.9 159.7h.01M147.4 173.0h.01M114.3 301.0h.01M90.1 301.4h.01M140.1 275.8h.01M207.9 262.2h.01M155.3 329.4h.01M138.6 171.8h.01M238.0 203.6h.01M138.2 321.8h.01M145.9 311.5h.01M200.3 247.2h.01M176.8 220.4h.01M131.5 163.2h.01M188.2 252.2h.01M177.4 340.1h.01M118.6 252.3h.01M122.1 311.0h.01M197.4 299.2h.01M192.1 182.3h.01M143.2 330.6h.01M200.3 267.1h.01M136.6 160.9h.01M230.6 352.2h.01M264.7 186.1h.01M111.5 285.6h.01M118.8 310.6h.01M199.0 303.1h.01M192.0 255.1h.01M208.2 342.6h.01M203.4 278.4h.01M147.9 161.0h.01M51.6 218.9h.01M101.3 304.0h.01M180.0 232.2h.01M220.9 261.5h.01M149.4 255.9h.01M144.8 329.2h.01M247.0 291.4h.01M310.6 224.6h.01M128.6 161.9h.01M224.5 266.6h.01M87.9 296.6h.01M239.3 184.5h.01M170.1 238.4h.01M125.3 260.1h.01M120.4 255.5h.01M84.5 293.0h.01M72.2 125.7h.01M114.6 269.6h.01M160.2 270.0h.01M283.0 206.4h.01M202.9 286.6h.01M218.1 264.7h.01M201.5 185.5h.01M154.6 353.7h.01M184.2 247.0h.01M129.8 314.4h.01M210.3 261.1h.01M218.5 195.0h.01M179.9 259.8h.01M141.4 169.1h.01M215.2 357.9h.01M77.7 128.1h.01M103.1 139.9h.01M166.4 332.3h.01M203.7 341.5h.01M144.9 277.9h.01M228.1 294.8h.01M239.8 253.8h.01M140.9 337.4h.01M166.4 163.8h.01M291.5 221.9h.01M129.6 318.1h.01M156.0 273.5h.01M190.1 171.8h.01M184.9 340.6h.01M97.4 314.9h.01M252.0 184.8h.01M128.5 276.2h.01M203.2 268.8h.01M117.5 287.2h.01M82.5 284.4h.01M100.8 301.1h.01M145.1 272.2h.01M243.7 184.8h.01M240.5 284.1h.01M201.2 261.2h.01M160.5 214.5h.01M114.5 146.8h.01M90.6 289.7h.01M199.2 344.6h.01M238.0 263.8h.01M122.2 258.9h.01M146.8 266.6h.01M256.0 289.4h.01M185.6 153.5h.01M238.5 188.5h.01M166.5 338.8h.01M141.2 178.3h.01M144.1 262.8h.01M280.1 213.9h.01M102.6 321.3h.01M290.6 201.6h.01M166.7 275.0h.01M109.2 302.5h.01M170.3 217.2h.01M226.5 336.9h.01M185.7 253.9h.01M126.4 158.4h.01M59.3 206.3h.01M117.2 263.9h.01M105.7 303.3h.01M192.3 259.6h.01M73.4 292.3h.01M89.9 309.1h.01M263.9 292.0h.01M197.7 365.1h.01M205.3 337.3h.01M140.6 317.0h.01M68.5 117.1h.01M245.0 197.5h.01M184.0 259.0h.01M260.7 300.7h.01M234.0 215.8h.01M289.4 231.9h.01M173.1 343.4h.01M51.4 221.9h.01M130.2 158.0h.01M251.1 208.1h.01M231.9 345.2h.01M209.5 287.1h.01M276.7 183.6h.01M134.0 324.0h.01M182.1 180.0h.01M143.2 325.9h.01M153.0 333.4h.01M182.8 250.9h.01M118.8 269.0h.01M194.3 154.5h.01M278.6 206.7h.01M151.2 171.3h.01M120.9 330.6h.01M107.7 310.7h.01M164.2 214.5h.01M198.8 262.7h.01M196.4 182.4h.01M189.7 160.5h.01M183.5 255.7h.01M188.0 257.5h.01M139.5 295.7h.01M43.6 137.6h.01M191.4 187.5h.01M67.8 197.1h.01M219.5 268.4h.01M186.3 262.0h.01M207.9 258.1h.01M168.0 354.9h.01M106.6 315.5h.01M143.4 322.8h.01M180.8 152.0h.01M145.2 275.1h.01M122.8 335.3h.01M48.4 202.2h.01M192.0 175.5h.01M162.7 275.2h.01M73.4 278.9h.01M62.5 232.4h.01M143.7 266.4h.01M201.7 182.0h.01M233.8 301.4h.01M267.0 278.1h.01M248.0 206.8h.01M182.2 173.5h.01M159.3 332.7h.01M216.5 261.6h.01M190.7 178.0h.01M115.2 284.8h.01M205.1 170.2h.01M119.2 259.5h.01M112.9 272.6h.01M164.8 155.4h.01M91.4 306.8h.01M162.9 163.6h.01M158.0 353.7h.01M244.2 201.4h.01M104.2 300.6h.01M158.0 315.4h.01M213.7 330.3h.01M243.2 305.1h.01M83.6 131.1h.01M110.9 319.6h.01M310.4 215.4h.01M94.9 303.1h.01M117.9 331.7h.01"/>
<path stroke="#1a1a1a" stroke-width="3.98" stroke-linecap="round" fill="none" d="M161.0 172.3h.01M303.2 209.2h.01M181.4 356.7h.01M175.2 156.9h.01M163.3 334.4h.01M159.0 165.5h.01M150.4 260.5h.01M257.0 195.1h.01M198.1 250.2h.01M149.8 251.2h.01M196.7 349.4h.01M167.0 156.6h.01M62.4 128.4h.01M237.9 342.6h.01M115.3 324.7h.01M225.3 262.8h.01M189.2 182.3h.01M179.2 348.7h.01M82.6 292.8h.01M165.0 340.0h.01M89.4 303.3h.01M178.8 154.6h.01M266.2 187.8h.01M279.3 210.8h.01M193.4 353.4h.01M274.6 206.1h.01M272.2 183.6h.01M188.8 154.6h.01M87.5 304.0h.01M146.8 335.7h.01M97.9 302.4h.01M168.6 348.5h.01M188.5 180.5h.01M235.8 297.4h.01M140.2 151.7h.01M210.8 265.9h.01M156.7 155.4h.01M251.5 194.8h.01M97.7 307.2h.01M169.3 157.2h.01M127.4 331.7h.01M159.5 170.5h.01M254.4 208.2h.01M234.3 293.9h.01M206.2 270.9h.01M234.8 193.6h.01M80.0 287.5h.01M149.3 340.0h.01M212.7 262.5h.01M104.4 312.3h.01M260.1 195.7h.01M100.6 308.4h.01M138.0 335.7h.01M257.4 198.1h.01M200.2 361.6h.01M201.2 355.6h.01M182.7 336.2h.01M184.5 181.0h.01M198.0 362.3h.01M176.4 330.3h.01M143.5 161.6h.01M138.4 314.6h.01M213.1 268.2h.01M194.9 169.2h.01M267.1 200.1h.01M127.0 150.6h.01M165.7 352.3h.01M80.5 291.6h.01M121.7 272.1h.01M166.5 341.5h.01M120.5 264.0h.01M208.4 268.2h.01M75.3 294.5h.01M283.3 202.7h.01M140.8 321.4h.01M282.9 198.9h.01M94.4 305.7h.01M154.1 271.6h.01M210.8 204.2h.01M261.1 206.3h.01M204.1 211.1h.01M127.0 324.2h.01M226.0 292.8h.01M140.2 155.0h.01M305.4 210.5h.01M235.5 262.0h.01M169.6 166.8h.01M150.9 336.4h.01M220.1 291.7h.01M171.0 173.0h.01M221.5 346.7h.01M171.3 169.3h.01M273.3 203.5h.01M116.5 327.5h.01M204.5 356.8h.01M146.0 345.0h.01M242.2 204.4h.01M241.4 198.0h.01M150.4 342.3h.01M173.5 170.6h.01M259.8 199.8h.01M155.7 350.2h.01M168.1 174.1h.01M186.5 178.0h.01M177.0 158.3h.01M131.0 338.0h.01M87.0 129.4h.01M247.0 287.5h.01M162.1 166.9h.01M310.1 219.4h.01M281.8 210.9h.01M178.2 345.7h.01M85.1 300.7h.01M237.3 248.4h.01M195.2 283.6h.01M173.6 336.8h.01M266.6 181.4h.01M307.6 216.8h.01M184.6 220.2h.01M175.8 234.3h.01M157.0 167.3h.01M280.3 202.1h.01M212.4 288.9h.01M117.9 324.9h.01M65.9 127.4h.01M151.5 351.0h.01M223.2 188.3h.01M157.9 342.4h.01M149.4 345.1h.01M238.0 195.1h.01M258.0 209.1h.01M168.4 177.2h.01M270.9 198.6h.01M195.1 251.4h.01M203.2 359.3h.01M175.0 346.0h.01M217.9 185.5h.01M260.4 184.4h.01M263.5 208.4h.01M173.9 278.2h.01M190.3 348.6h.01M190.5 180.5h.01M47.2 138.4h.01M159.5 168.0h.01M141.1 346.9h.01M195.4 264.2h.01M129.0 327.0h.01M142.0 313.6h.01M201.1 351.6h.01M182.6 163.8h.01M267.4 177.6h.01M118.8 329.4h.01M268.3 205.0h.01M215.2 347.5h.01M138.7 344.8h.01M98.1 309.6h.01M146.0 155.7h.01M221.0 352.1h.01M205.4 266.7h.01M137.4 331.9h.01M103.9 318.2h.01M95.5 300.8h.01M133.9 339.1h.01M92.2 303.0h.01M243.8 194.7h.01M258.4 187.2h.01M204.9 353.4h.01M173.0 352.2h.01M182.2 155.0h.01M111.6 322.3h.01M127.9 337.3h.01M143.0 155.0h.01M194.0 268.1h.01M250.0 200.7h.01M146.2 327.9h.01M142.2 269.6h.01M183.9 359.6h.01M213.0 360.2h.01M132.3 341.3h.01M206.8 361.9h.01M202.4 255.2h.01M163.0 341.0h.01M187.3 347.5h.01M191.5 249.9h.01M229.1 261.4h.01M200.3 252.7h.01M255.0 202.2h.01M172.3 348.7h.01M143.8 172.4h.01M92.9 308.3h.01M101.0 312.2h.01M218.6 349.6h.01M192.0 218.3h.01M193.9 357.3h.01M168.6 338.8h.01M207.0 174.8h.01M129.3 329.6h.01M160.0 340.2h.01M164.7 166.0h.01M263.5 196.8h.01M146.5 350.0h.01M160.3 336.5h.01M193.0 350.2h.01M228.8 190.9h.01M75.2 282.5h.01M216.0 343.3h.01M148.8 352.4h.01M124.9 146.7h.01M199.4 215.3h.01M196.0 356.2h.01M270.4 202.2h.01M210.2 176.1h.01M259.1 307.9h.01M271.5 190.5h.01M162.2 347.0h.01M226.5 348.7h.01M116.4 266.5h.01M189.6 167.3h.01M185.9 182.9h.01M186.9 157.6h.01M119.1 327.3h.01M216.6 182.3h.01M217.7 354.0h.01M184.8 172.8h.01M98.7 305.1h.01M187.4 359.6h.01M223.5 193.5h.01M147.5 338.0h.01M212.0 178.5h.01M252.7 200.0h.01M247.4 299.0h.01M257.6 205.9h.01M222.5 354.6h.01M185.3 344.4h.01M217.9 356.7h.01M189.9 184.8h.01M165.0 343.3h.01M142.6 350.0h.01M137.7 152.9h.01M219.7 187.9h.01M166.7 336.0h.01M130.1 151.4h.01M282.4 216.5h.01M179.1 168.1h.01M231.0 295.7h.01M159.1 349.6h.01M254.5 205.0h.01M207.5 264.8h.01M214.2 176.5h.01M92.1 299.9h.01M232.3 190.6h.01M160.5 347.0h.01M241.7 342.4h.01M175.6 349.4h.01M197.6 170.6h.01M190.5 156.8h.01M264.0 183.9h.01M146.5 152.8h.01M135.3 150.2h.01M244.1 283.9h.01M160.0 344.3h.01M209.4 207.4h.01M171.2 165.4h.01M164.6 169.1h.01M183.5 353.6h.01M225.9 189.8h.01M139.4 340.4h.01M289.1 204.8h.01M82.1 296.0h.01M92.8 311.0h.01M196.0 360.0h.01M170.8 277.0h.01M161.2 169.0h.01M136.1 155.2h.01M182.5 160.5h.01M210.5 270.7h.01M235.4 345.7h.01M166.7 172.2h.01M134.5 327.0h.01M240.1 344.6h.01M182.0 348.0h.01M95.4 313.1h.01M142.9 340.0h.01M161.8 342.8h.01M175.1 161.1h.01M128.3 335.0h.01M190.8 358.3h.01M165.1 175.3h.01M126.2 327.3h.01M216.0 351.6h.01M189.4 352.6h.01M136.6 158.2h.01M234.1 211.2h.01M144.1 342.1h.01M171.6 175.9h.01M136.9 328.8h.01M85.0 296.5h.01M114.1 328.7h.01M201.0 358.7h.01M165.5 349.7h.01M257.8 305.1h.01M145.1 332.4h.01M247.0 295.6h.01M93.4 292.2h.01M286.1 204.9h.01M292.7 205.7h.01M139.2 329.5h.01M228.9 345.6h.01M263.8 287.0h.01M134.3 333.4h.01M154.2 336.4h.01M205.3 254.9h.01M89.5 306.5h.01M166.5 240.8h.01M132.3 335.6h.01M188.5 178.0h.01M308.5 211.7h.01M225.1 352.5h.01M277.1 209.9h.01M179.6 354.2h.01M143.1 344.9h.01M193.6 158.5h.01M140.7 342.9h.01M122.2 155.2h.01M151.6 329.1h.01M144.1 337.9h.01M188.6 220.2h.01M191.8 363.2h.01M79.3 299.1h.01M265.3 282.2h.01M149.3 156.2h.01M202.6 264.4h.01M131.3 148.8h.01M176.3 169.4h.01M173.9 340.1h.01M275.2 186.6h.01M195.0 218.3h.01M124.0 149.7h.01M178.7 279.8h.01M267.4 209.3h.01M297.6 219.0h.01M255.0 187.3h.01M186.5 180.5h.01M241.0 194.6h.01M255.1 309.7h.01M155.4 298.0h.01M184.7 348.6h.01M262.4 187.9h.01M236.4 191.0h.01M79.4 294.1h.01M184.7 176.0h.01M168.2 342.2h.01M134.6 152.8h.01M205.0 172.5h.01M130.9 331.1h.01M202.9 361.9h.01M100.0 315.0h.01M263.5 200.0h.01M141.0 331.5h.01M220.1 356.3h.01M165.9 346.1h.01M233.1 297.5h.01M240.2 280.4h.01M178.6 351.4h.01M176.2 356.0h.01M143.2 151.7h.01M192.6 360.3h.01M241.7 187.5h.01M152.9 348.3h.01M277.6 195.1h.01M152.8 344.3h.01M142.1 174.7h.01M169.2 159.5h.01M293.6 226.1h.01M178.7 161.6h.01M198.3 265.2h.01M144.2 335.4h.01M171.0 338.7h.01M97.9 138.4h.01M123.0 328.0h.01M174.3 166.9h.01M186.5 351.3h.01M153.6 171.5h.01M212.6 353.5h.01M164.1 172.1h.01M118.9 154.4h.01M194.1 346.3h.01M254.1 197.9h.01M186.3 161.5h.01M135.6 337.8h.01M152.6 167.8h.01M260.7 210.8h.01M142.1 334.3h.01M216.3 290.2h.01M137.0 326.5h.01M157.0 336.0h.01M157.5 170.0h.01M77.9 296.1h.01M209.4 173.0h.01M167.1 167.2h.01M98.1 311.8h.01M155.9 344.1h.01M264.3 211.3h.01M184.2 157.5h.01M211.5 356.8h.01M168.2 344.9h.01M130.3 333.9h.01M122.1 268.3h.01M124.1 325.5h.01M145.5 347.7h.01M201.4 159.5h.01M149.3 168.9h.01M180.4 157.8h.01M143.3 318.7h.01M240.0 257.2h.01M135.5 316.0h.01M181.7 344.6h.01M163.2 345.2h.01M212.6 343.6h.01M156.9 339.0h.01M171.9 157.1h.01M209.5 350.6h.01M193.3 184.6h.01M268.8 183.9h.01M132.8 332.2h.01M186.2 355.9h.01M130.3 324.0h.01M182.2 351.0h.01M184.5 178.5h.01M103.4 309.5h.01M216.0 267.7h.01M198.6 354.7h.01M243.8 296.9h.01M154.5 341.2h.01M250.7 205.1h.01M196.7 352.8h.01M156.1 333.0h.01M255.9 199.9h.01M84.9 304.2h.01M238.0 346.5h.01M155.1 346.9h.01M169.0 170.4h.01M254.0 194.8h.01M143.3 258.0h.01M187.5 248.4h.01M176.2 343.0h.01M186.6 165.1h.01M205.1 258.3h.01M155.1 169.7h.01M162.5 170.5h.01M265.7 206.1h.01M251.9 202.9h.01M237.0 305.0h.01M260.1 203.0h.01M190.4 355.6h.01M152.0 270.8h.01M198.3 358.4h.01M195.0 363.0h.01M114.0 326.3h.01M147.1 158.4h.01M154.9 248.3h.01M149.5 348.2h.01M161.8 155.6h.01M242.6 330.8h.01M240.4 201.5h.01M157.9 346.7h.01M169.5 351.6h.01M149.5 270.6h.01M235.1 343.1h.01M206.3 359.4h.01M274.8 200.1h.01M172.1 160.0h.01M173.8 218.0h.01M139.6 261.3h.01M123.0 332.0h.01M175.8 353.1h.01M147.2 333.4h.01M152.3 339.3h.01M249.5 194.4h.01M204.3 207.7h.01M197.5 158.3h.01M160.4 163.7h.01M115.5 322.2h.01M207.5 171.1h.01M187.6 183.8h.01M152.8 154.9h.01M180.2 170.8h.01M93.0 135.0h.01M82.2 299.6h.01M221.4 265.2h.01M125.1 333.6h.01M200.3 348.2h.01M222.9 292.0h.01M90.5 304.7h.01M140.5 159.5h.01M163.5 348.5h.01M214.5 265.0h.01M174.7 173.5h.01M263.7 203.3h.01M297.0 208.6h.01M161.5 351.2h.01M246.7 193.8h.01M190.0 245.8h.01M305.9 213.8h.01M180.5 218.7h.01M234.0 197.5h.01"/>
</svg>