<svg xmlns="http://www.w3.org/2000/svg" viewBox="0 0 360 432" role="img">
<path stroke="#1a1a1a" stroke-width="1.41" stroke-linecap="round" fill="none" d="M139.7 242.6h.01M77.5 184.1h.01M90.5 115.1h.01M243.5 103.6h.01M283.7 357.5h.01M273.9 361.7h.01M172.2 214.4h.01M265.9 81.6h.01M265.3 89.3h.01M160.0 58.9h.01M257.7 302.1h.01M102.5 226.1h.01M123.3 150.2h.01M337.3 351.1h.01M308.5 251.2h.01M283.6 140.9h.01M160.7 221.2h.01M236.9 120.4h.01M253.4 91.8h.01M140.0 96.3h.01M311.3 271.6h.01M145.7 169.0h.01M201.3 108.3h.01M78.1 111.9h.01M109.2 314.1h.01M222.8 85.3h.01M345.7 292.0h.01M150.0 205.7h.01M117.4 159.5h.01M300.2 355.0h.01M215.6 148.2h.01M133.9 153.8h.01M280.6 228.1h.01M358.5 297.0h.01M142.6 205.7h.01M201.3 129.4h.01M331.1 272.7h.01M288.1 353.3h.01M164.7 214.5h.01M169.7 221.8h.01M276.4 99.6h.01M184.2 220.5h.01M284.7 209.9h.01M314.0 356.5h.01M156.5 212.3h.01M267.8 342.2h.01M98.1 235.4h.01M75.5 144.8h.01M198.1 159.4h.01M0.4 99.6h.01M197.2 397.5h.01M249.8 109.9h.01M146.6 230.0h.01M270.2 139.3h.01M86.5 101.2h.01M161.0 152.5h.01M331.1 282.1h.01M245.2 430.6h.01M247.2 143.4h.01M90.1 239.4h.01M105.4 283.8h.01M212.1 124.7h.01M314.0 258.1h.01M97.3 89.5h.01M289.7 346.0h.01M69.2 169.6h.01M274.0 91.4h.01M124.3 77.4h.01M266.9 224.6h.01M308.8 361.6h.01M176.8 207.5h.01M293.3 0.4h.01M129.1 188.4h.01M104.3 158.7h.01M260.4 97.1h.01M177.0 221.6h.01M268.3 193.6h.01M266.3 153.5h.01M110.1 139.8h.01M102.0 296.1h.01M78.4 155.4h.01M227.5 144.5h.01M302.9 246.4h.01M169.6 106.5h.01M263.1 293.5h.01M128.1 171.0h.01M153.5 160.9h.01M262.1 118.8h.01M291.0 245.8h.01M110.5 230.7h.01M267.6 359.9h.01M116.9 237.2h.01M185.9 172.6h.01M85.5 179.0h.01M160.7 199.2h.01M154.5 233.1h.01M270.6 247.6h.01M162.9 161.4h.01M228.9 134.6h.01M166.8 429.5h.01M80.2 220.9h.01M215.6 105.2h.01M111.1 295.7h.01M109.3 301.6h.01M263.4 105.0h.01M234.1 87.9h.01M137.2 66.3h.01M157.6 143.8h.01M259.1 125.3h.01M223.5 294.5h.01M190.4 121.5h.01M93.0 231.5h.01M206.3 159.4h.01M60.4 177.0h.01M235.2 60.2h.01M78.0 134.8h.01M220.8 74.0h.01M97.6 246.1h.01M333.4 196.6h.01M274.8 202.4h.01M87.0 128.9h.01M174.5 229.1h.01M243.8 94.1h.01M124.7 64.3h.01M334.0 295.8h.01M335.5 357.1h.01M332.5 305.1h.01M70.0 152.4h.01M299.4 253.2h.01M193.3 42.4h.01M323.0 151.2h.01M229.4 125.9h.01M242.4 125.5h.01M337.8 182.6h.01M282.3 349.1h.01M159.8 227.8h.01M264.2 349.1h.01M164.5 137.2h.01M272.3 261.5h.01M102.6 254.0h.01M310.8 375.7h.01M100.6 289.3h.01M144.1 131.3h.01M218.0 288.6h.01M244.8 116.6h.01M267.5 125.0h.01M153.0 118.5h.01M221.2 119.6h.01M151.8 152.1h.01M218.2 59.8h.01M285.1 220.4h.01M320.8 264.5h.01M232.0 292.8h.01M271.1 292.0h.01M198.5 150.3h.01M227.8 285.5h.01M191.2 133.0h.01M178.7 214.3h.01M256.8 287.5h.01M237.5 68.4h.01M274.3 211.0h.01M159.2 191.7h.01M84.9 163.9h.01M329.0 366.3h.01M252.8 79.7h.01M143.4 159.7h.01M126.5 160.7h.01M153.0 197.6h.01M114.1 398.1h.01M103.0 168.2h.01M258.5 110.4h.01M226.5 57.2h.01M253.8 139.0h.01M130.0 221.8h.01M259.8 151.8h.01M120.3 187.5h.01M266.9 301.1h.01M85.1 148.7h.01M86.5 139.8h.01M239.9 77.8h.01M140.8 214.2h.01M167.3 200.8h.01M132.9 239.1h.01M96.0 259.8h.01M144.3 238.0h.01M347.5 329.4h.01M192.2 165.0h.01M72.0 127.7h.01M306.5 389.0h.01M228.0 66.5h.01M145.4 196.9h.01M260.6 354.3h.01M222.3 154.0h.01M117.2 245.6h.01M303.8 260.7h.01M111.7 150.4h.01M223.2 95.7h.01M156.6 130.5h.01M173.6 201.2h.01M0.4 291.1h.01M217.5 373.5h.01M177.4 117.0h.01M199.5 48.9h.01M269.1 354.1h.01M334.6 190.6h.01M237.3 148.5h.01M261.8 228.8h.01M188.3 54.3h.01M277.1 355.4h.01M273.8 347.4h.01M102.8 277.6h.01M291.5 221.0h.01M269.2 206.7h.01M166.7 227.9h.01M92.8 251.2h.01M278.6 342.2h.01M313.2 383.7h.01M246.6 133.1h.01M282.3 244.8h.01M253.2 101.8h.01M118.3 255.3h.01M307.3 369.0h.01M283.7 293.2h.01M97.0 137.0h.01M323.3 371.3h.01M258.0 85.0h.01M127.4 211.0h.01M174.1 136.8h.01M107.4 290.4h.01M116.2 203.0h.01M180.3 154.0h.01M107.7 307.9h.01M294.0 351.6h.01M238.9 139.3h.01M152.5 421.4h.01M153.5 105.1h.01M86.3 364.0h.01M66.0 145.4h.01M137.9 197.3h.01M96.3 184.5h.01M152.9 225.8h.01M171.8 162.9h.01M134.2 206.1h.01M265.9 113.5h.01M183.3 138.0h.01M85.3 245.7h.01M230.7 76.7h.01M131.0 230.9h.01M119.9 210.2h.01M157.1 170.7h.01M136.3 408.7h.01M238.3 157.8h.01M351.1 319.3h.01M318.7 377.7h.01M230.9 154.4h.01M245.7 255.5h.01M221.1 129.0h.01M112.1 430.6h.01M79.3 121.8h.01M341.2 345.6h.01M218.8 138.7h.01M156.7 204.7h.01M246.4 84.9h.01M258.6 144.8h.01M101.6 303.5h.01M211.4 52.3h.01M244.5 151.7h.01M225.9 161.1h.01M125.0 203.3h.01M236.8 130.3h.01M249.9 124.5h.01M141.7 78.9h.01M145.7 221.7h.01M337.3 311.9h.01M232.7 300.4h.01M210.7 133.5h.01M211.8 115.5h.01M166.7 173.7h.01M124.6 239.8h.01M177.4 146.1h.01M244.9 67.9h.01M224.5 430.6h.01M107.2 78.5h.01M296.4 346.2h.01M148.2 213.6h.01M304.6 279.0h.01M323.0 364.3h.01M264.0 250.6h.01M69.4 137.7h.01M147.9 61.1h.01M239.9 298.8h.01M247.7 74.9h.01M277.1 136.5h.01M207.5 142.7h.01M156.3 430.0h.01M112.3 212.7h.01M201.4 119.1h.01M148.2 141.9h.01M176.7 171.7h.01M169.3 127.8h.01M163.9 118.5h.01M182.6 163.2h.01M97.2 283.9h.01M268.5 96.6h.01M268.1 200.0h.01M358.6 102.7h.01M213.1 67.2h.01M76.2 164.3h.01M358.4 277.5h.01M143.0 150.8h.01M69.6 160.8h.01M250.0 282.4h.01M207.4 151.8h.01M138.3 223.7h.01M139.2 232.8h.01M252.5 149.6h.01M153.4 219.1h.01M274.6 129.5h.01M68.6 185.5h.01M280.4 204.6h.01M274.1 283.3h.01M302.3 361.8h.01M255.9 252.0h.01M125.3 139.0h.01M198.4 140.2h.01M170.2 154.1h.01M139.3 185.4h.01M228.0 368.5h.01M342.7 317.2h.01M96.3 276.9h.01M111.8 166.5h.01M163.1 207.0h.01M315.6 364.6h.01M68.8 177.0h.01M276.5 144.0h.01M229.8 116.7h.01M169.8 207.6h.01M266.8 132.0h.01M175.2 180.1h.01M330.8 153.1h.01M79.8 228.5h.01M122.4 218.7h.01M273.8 225.6h.01M79.0 172.8h.01M254.3 261.5h.01M262.0 137.8h.01M298.0 284.0h.01M98.9 148.0h.01M187.9 108.4h.01M237.4 110.4h.01M91.0 156.5h.01M222.2 49.3h.01M167.8 145.7h.01M214.7 158.8h.01M345.1 337.8h.01M279.1 300.6h.01M130.0 430.6h.01M135.9 165.6h.01M95.0 166.9h.01M122.3 229.7h.01M113.9 222.7h.01M255.7 131.3h.01M189.9 155.1h.01M134.0 214.7h.01M130.5 197.4h.01M253.0 363.2h.01M319.6 275.9h.01M270.4 103.3h.01M254.0 117.6h.01M227.2 108.0h.01M189.0 145.5h.01M238.0 365.6h.01M315.7 370.6h.01M150.3 187.6h.01M243.6 363.8h.01M182.5 179.7h.01M181.5 128.2h.01M306.6 354.4h.01M115.0 308.6h.01M158.9 185.2h.01M299.3 391.2h.01M135.7 141.5h.01M202.0 59.5h.01M269.9 231.9h.01M233.9 99.6h.01M78.2 212.1h.01M277.0 219.2h.01"/>
<path stroke="#1a1a1a" stroke-width="1.88" stroke-linecap="round" fill="none" d="M152.4 40.7h.01M119.6 285.7h.01M178.2 272.3h.01M205.2 243.0h.01M100.1 265.8h.01M234.8 257.3h.01M166.9 37.7h.01M116.9 278.4h.01M128.7 262.9h.01M282.4 131.9h.01M131.9 298.2h.01M190.0 233.2h.01M193.6 397.7h.01M212.0 376.6h.01M138.1 288.7h.01M133.7 293.5h.01M0.4 234.7h.01M270.1 187.8h.01M274.9 114.8h.01M109.9 245.5h.01M287.9 227.4h.01M155.5 293.5h.01M166.7 267.6h.01M288.6 339.4h.01M120.2 337.1h.01M177.7 235.1h.01M151.3 274.5h.01M187.7 227.8h.01M231.0 228.4h.01M66.6 118.5h.01M135.0 353.9h.01M110.0 392.6h.01M168.1 244.6h.01M236.5 305.8h.01M145.7 274.7h.01M256.0 71.8h.01M89.6 187.8h.01M144.1 290.6h.01M164.4 298.5h.01M174.0 196.1h.01M105.5 184.6h.01M101.3 311.1h.01M224.1 241.5h.01M315.7 151.0h.01M77.0 332.7h.01M119.7 342.2h.01M123.0 271.0h.01M118.0 178.9h.01M213.8 234.8h.01M324.4 282.4h.01M294.3 377.9h.01M61.4 171.4h.01M258.9 248.2h.01M285.5 96.0h.01M270.4 309.3h.01M104.3 261.4h.01M291.9 141.9h.01M172.7 298.6h.01M134.5 262.8h.01M139.2 294.0h.01M167.0 194.3h.01M334.2 345.2h.01M84.5 357.7h.01M344.5 323.3h.01M247.1 56.5h.01M220.9 246.1h.01M139.8 272.7h.01M250.8 291.6h.01M293.3 239.1h.01M89.7 285.0h.01M238.9 240.1h.01M341.5 329.2h.01M115.6 290.4h.01M128.7 345.9h.01M162.1 244.7h.01M229.5 305.8h.01M145.3 258.2h.01M82.4 352.2h.01M167.2 296.2h.01M122.8 261.9h.01M78.8 200.4h.01M194.0 260.7h.01M289.2 130.0h.01M191.9 248.4h.01M120.0 170.8h.01M162.5 250.3h.01M109.8 239.5h.01M254.4 308.6h.01M100.7 385.1h.01M270.3 119.4h.01M219.2 300.4h.01M128.3 306.9h.01M144.0 321.7h.01M263.0 337.9h.01M309.4 151.1h.01M253.6 236.1h.01M348.2 268.5h.01M358.6 200.0h.01M114.9 335.9h.01M131.2 326.5h.01M94.0 362.5h.01M154.2 244.1h.01M198.0 171.1h.01M140.2 250.4h.01M61.2 140.8h.01M83.1 237.5h.01M281.8 156.2h.01M291.0 288.2h.01M122.9 346.1h.01M194.2 255.4h.01M266.0 145.3h.01M157.4 254.8h.01M202.6 167.6h.01M268.0 335.0h.01M232.8 161.9h.01M138.5 267.0h.01M117.7 296.3h.01M66.1 193.5h.01M282.4 337.5h.01M143.7 302.1h.01M337.7 172.1h.01M197.6 242.7h.01M113.0 284.6h.01M259.6 210.8h.01M288.1 136.3h.01M163.2 290.4h.01M229.4 311.3h.01M122.8 299.8h.01M271.3 148.9h.01M207.3 430.6h.01M68.2 110.7h.01M154.7 278.4h.01M72.1 210.1h.01M289.0 146.9h.01M303.6 149.0h.01M102.4 378.3h.01M0.4 260.7h.01M270.9 160.2h.01M213.9 285.0h.01M233.7 311.5h.01M128.8 269.6h.01M282.2 104.9h.01M290.7 359.9h.01M130.4 405.0h.01M84.6 262.3h.01M218.9 234.1h.01M274.1 196.5h.01M178.3 265.4h.01M244.4 264.5h.01M196.6 292.9h.01M140.9 324.3h.01M241.2 247.7h.01M148.4 280.7h.01M88.0 225.8h.01M154.8 264.0h.01M125.8 322.1h.01M295.8 363.9h.01M102.1 213.5h.01M295.2 147.0h.01M191.9 401.8h.01M125.5 178.5h.01M167.1 274.1h.01M301.2 349.4h.01M327.2 291.1h.01M180.9 226.9h.01M158.2 239.3h.01M301.7 375.6h.01M91.5 264.3h.01M100.8 197.0h.01M104.2 247.4h.01M105.7 271.0h.01M215.6 246.6h.01M276.0 122.4h.01M166.3 280.3h.01M117.4 302.5h.01M311.9 351.1h.01M128.4 290.7h.01M141.9 316.3h.01M62.2 197.6h.01M196.1 235.2h.01M213.6 295.7h.01M76.0 205.1h.01M288.2 295.7h.01M144.1 296.4h.01M88.5 219.2h.01M269.7 366.5h.01M226.4 246.6h.01M164.0 255.9h.01M200.6 390.2h.01M325.3 358.1h.01M156.7 249.0h.01M317.4 220.6h.01M255.3 348.4h.01M95.1 192.7h.01M287.2 153.3h.01M108.5 0.4h.01M209.0 379.1h.01M278.0 161.4h.01M179.0 430.5h.01M145.5 43.6h.01M277.1 368.3h.01M125.7 333.8h.01M166.7 261.4h.01M300.3 368.8h.01M133.6 178.1h.01M263.5 219.6h.01M78.2 323.1h.01M252.0 270.7h.01M73.1 217.0h.01M83.7 187.8h.01M183.5 232.5h.01M116.7 323.3h.01M121.3 326.2h.01M358.6 131.8h.01M106.4 319.9h.01M292.8 152.2h.01M202.8 236.4h.01M237.7 244.1h.01M89.2 256.7h.01M239.0 262.1h.01M358.6 156.3h.01M133.2 315.6h.01M222.8 370.4h.01M62.2 203.7h.01M146.8 327.2h.01M187.6 408.3h.01M294.2 229.7h.01M114.7 194.2h.01M148.0 414.6h.01M126.8 328.7h.01M240.1 252.7h.01M144.6 268.4h.01M277.9 150.9h.01M79.8 346.9h.01M256.5 232.0h.01M142.2 263.0h.01M236.1 227.7h.01M305.5 381.2h.01M129.9 281.9h.01M177.9 241.3h.01M133.6 255.2h.01M246.1 249.4h.01M255.4 158.5h.01M273.2 339.2h.01M76.5 95.5h.01M185.0 0.4h.01M302.5 142.7h.01M106.7 207.4h.01M114.0 317.9h.01M223.5 235.8h.01M234.4 246.5h.01M90.7 278.5h.01M252.2 227.8h.01M219.6 280.6h.01M87.4 82.0h.01M127.4 316.8h.01M189.1 255.4h.01M184.3 238.3h.01M358.6 178.5h.01M150.7 238.5h.01M267.2 319.6h.01M135.5 0.4h.01M61.7 158.0h.01M152.7 289.2h.01M264.6 364.4h.01M295.0 137.0h.01M141.1 178.0h.01M129.9 351.6h.01M98.7 70.7h.01M138.5 318.4h.01M125.7 339.8h.01M338.0 341.1h.01M261.2 312.6h.01M0.4 123.7h.01M62.0 191.7h.01M127.4 275.8h.01M71.6 232.5h.01M270.2 109.6h.01M287.9 374.4h.01M148.4 180.4h.01M155.3 269.2h.01M209.0 238.7h.01M0.4 145.9h.01M335.2 264.9h.01M358.6 239.9h.01M178.2 253.5h.01M188.9 261.2h.01M213.6 241.9h.01M249.5 221.8h.01M293.1 390.1h.01M83.4 298.2h.01M138.6 298.9h.01M216.9 39.2h.01M306.3 347.1h.01M295.5 357.5h.01M277.9 383.5h.01M103.1 202.5h.01M330.7 360.8h.01M132.6 287.3h.01M79.0 242.8h.01M244.4 158.7h.01M294.4 371.5h.01M126.9 255.6h.01M99.8 372.8h.01M308.8 239.0h.01M161.1 278.3h.01M180.4 414.7h.01M276.5 107.5h.01M250.9 277.0h.01M308.9 230.7h.01M255.8 293.8h.01M283.9 368.9h.01M162.2 271.9h.01M142.9 312.3h.01M133.8 276.4h.01M127.6 302.0h.01M238.7 290.4h.01M182.7 244.3h.01M319.8 359.1h.01M154.7 283.5h.01M97.7 367.4h.01M329.4 263.1h.01M172.5 261.8h.01M249.4 234.7h.01M160.4 260.7h.01M173.3 244.8h.01M171.8 238.8h.01M234.7 263.7h.01M256.6 65.5h.01M110.3 324.0h.01M183.5 255.9h.01M157.5 274.1h.01M133.5 308.9h.01M287.7 119.7h.01M281.3 374.2h.01M145.0 252.5h.01M293.8 340.2h.01M62.9 181.9h.01M170.1 284.4h.01M261.4 0.4h.01M220.5 164.8h.01M118.0 313.6h.01M0.4 189.0h.01M168.0 250.7h.01M260.4 77.1h.01M281.2 118.1h.01M272.8 333.9h.01M110.0 278.3h.01M172.7 267.1h.01M183.4 260.8h.01M122.2 292.5h.01M329.6 201.9h.01M74.2 239.6h.01M250.5 266.1h.01M123.4 249.3h.01M202.5 248.3h.01M261.8 202.7h.01M171.7 278.4h.01M119.9 331.7h.01M172.5 190.8h.01M93.7 292.1h.01M136.5 337.8h.01M185.2 250.4h.01M275.9 374.0h.01M140.8 278.4h.01M92.3 178.7h.01M112.6 186.7h.01M93.3 76.5h.01M169.8 302.5h.01M70.8 192.2h.01M103.5 240.1h.01M250.7 251.9h.01M142.4 284.3h.01M206.4 43.4h.01M0.4 211.0h.01M261.8 318.6h.01M325.6 258.4h.01M127.1 295.6h.01M266.7 162.7h.01M131.3 334.2h.01M139.2 257.7h.01M261.8 359.8h.01M108.2 265.3h.01M283.0 148.2h.01M276.5 245.1h.01M139.0 308.8h.01M233.5 53.5h.01M165.9 306.7h.01M258.7 342.8h.01M131.5 340.6h.01M298.6 241.0h.01M264.1 323.5h.01M133.5 302.7h.01M79.4 248.2h.01M178.1 187.7h.01M286.3 363.1h.01M266.0 213.4h.01M281.0 236.2h.01M358.6 258.7h.01M86.8 233.2h.01M111.0 251.4h.01M191.2 223.4h.01M72.2 103.0h.01M299.5 383.7h.01M137.5 313.0h.01M234.8 252.1h.01M118.0 266.6h.01M290.2 367.3h.01M106.1 234.7h.01M70.2 226.4h.01M245.0 0.4h.01M172.6 272.4h.01M286.1 236.7h.01M172.3 306.8h.01M331.6 350.1h.01M164.7 285.6h.01M110.8 257.6h.01M273.2 191.8h.01M257.0 316.0h.01M204.8 383.9h.01M184.6 265.0h.01M92.0 270.7h.01M151.0 250.1h.01M276.5 305.2h.01M192.4 430.6h.01M109.1 199.7h.01M150.2 255.8h.01M79.7 0.4h.01M228.5 237.6h.01M135.1 247.6h.01M81.9 88.3h.01M173.3 250.3h.01M83.6 208.8h.01M150.1 268.6h.01M274.5 155.8h.01M178.9 201.6h.01M243.2 242.3h.01M0.4 167.7h.01M98.8 271.1h.01M134.1 270.2h.01M337.8 162.3h.01M312.5 279.4h.01M146.6 245.4h.01M138.5 304.1h.01M63.0 133.0h.01M268.5 330.0h.01M169.3 233.5h.01M174.1 37.4h.01M61.3 150.6h.01M165.1 239.2h.01M240.4 257.9h.01M161.4 294.0h.01M340.3 334.6h.01M131.1 321.0h.01M122.4 306.7h.01M358.6 220.5h.01M298.4 341.7h.01M276.9 0.4h.01M158.5 297.1h.01M182.9 269.2h.01M255.8 220.2h.01M114.3 329.5h.01M269.7 218.7h.01M76.8 235.3h.01M334.5 158.1h.01M144.1 430.6h.01M112.2 272.2h.01M167.9 289.7h.01M293.2 384.8h.01M218.6 239.7h.01M226.2 300.2h.01M259.8 216.1h.01M67.5 205.8h.01M281.1 111.6h.01M232.9 366.9h.01M281.7 124.9h.01M162.1 233.8h.01M148.6 262.8h.01M160.2 283.3h.01M63.3 125.8h.01M226.1 231.8h.01M184.7 213.1h.01M100.0 220.2h.01M249.9 156.6h.01M322.4 215.9h.01M286.9 125.3h.01M135.8 321.2h.01M197.4 298.5h.01M284.4 342.9h.01M286.5 114.4h.01M80.0 317.3h.01M125.6 286.1h.01M111.0 63.2h.01M84.7 214.9h.01M136.4 282.3h.01M261.8 159.2h.01M153.9 259.2h.01M216.7 44.4h.01M149.4 293.7h.01M83.7 202.4h.01M285.9 232.2h.01M160.8 266.3h.01M264.4 233.9h.01M188.1 244.5h.01M287.0 159.0h.01M177.7 259.4h.01M290.8 215.7h.01M122.9 279.8h.01M61.6 164.9h.01M171.2 256.1h.01M148.3 286.5h.01M82.1 256.5h.01M251.7 67.3h.01M105.8 383.3h.01M208.4 232.4h.01M190.8 239.4h.01M227.0 0.4h.01M152.9 298.2h.01M183.1 208.7h.01M282.8 162.3h.01M123.0 312.2h.01M293.9 132.5h.01M169.7 293.6h.01M242.0 59.3h.01M263.3 207.7h.01M313.1 224.7h.01M101.5 189.4h.01M99.3 207.1h.01M89.6 203.0h.01M330.0 354.7h.01M136.4 344.4h.01M107.5 192.0h.01M275.8 232.9h.01M257.8 224.9h.01M158.3 288.5h.01M234.5 47.8h.01M284.7 240.9h.01M268.8 323.8h.01M121.2 318.8h.01M161.0 0.4h.01M192.8 173.2h.01M188.8 267.3h.01M239.0 312.0h.01M195.1 227.6h.01M122.0 195.8h.01M129.5 247.3h.01M198.4 393.5h.01M280.3 362.7h.01M178.8 247.8h.01M134.6 348.8h.01M207.0 0.4h.01M196.9 250.3h.01M292.1 226.1h.01M84.0 251.6h.01M209.7 246.9h.01M268.5 374.9h.01M87.9 172.3h.01M159.5 38.7h.01M165.8 188.5h.01"/>
<path stroke="#1a1a1a" stroke-width="2.34" stroke-linecap="round" fill="none" d="M271.3 371.6h.01M81.5 343.2h.01M237.3 232.0h.01M222.2 263.4h.01M161.2 423.2h.01M91.2 309.4h.01M156.7 410.9h.01M182.5 307.0h.01M272.2 377.8h.01M238.5 52.2h.01M139.6 367.6h.01M185.3 310.6h.01M190.0 218.8h.01M190.1 350.7h.01M82.2 305.5h.01M189.4 319.2h.01M139.5 389.6h.01M155.4 383.0h.01M135.7 367.4h.01M194.9 317.2h.01M183.9 273.9h.01M143.7 365.3h.01M92.4 323.7h.01M164.5 375.5h.01M200.1 38.5h.01M208.4 269.8h.01M280.5 331.9h.01M202.6 294.2h.01M113.8 389.6h.01M226.0 270.6h.01M88.6 296.4h.01M200.8 270.5h.01M335.9 329.3h.01M322.4 305.8h.01M152.2 376.7h.01M248.1 301.4h.01M175.0 313.0h.01M336.8 176.9h.01M274.9 164.5h.01M160.3 377.9h.01M261.4 69.9h.01M152.1 350.2h.01M325.5 347.7h.01M146.2 310.6h.01M329.4 345.2h.01M329.8 166.2h.01M263.6 368.3h.01M244.2 293.5h.01M184.1 302.0h.01M291.6 159.0h.01M145.0 351.2h.01M175.3 344.5h.01M257.7 361.9h.01M158.6 317.4h.01M204.2 317.0h.01M186.8 279.8h.01M208.4 299.2h.01M166.8 339.9h.01M189.5 357.4h.01M111.0 180.1h.01M142.0 336.7h.01M100.9 173.9h.01M193.0 347.5h.01M290.4 334.7h.01M170.1 422.7h.01M170.0 344.3h.01M265.7 310.6h.01M130.9 357.4h.01M223.5 280.3h.01M154.1 406.9h.01M88.2 290.5h.01M94.9 375.7h.01M275.9 237.5h.01M299.0 131.9h.01M114.2 261.9h.01M225.0 251.7h.01M89.6 319.3h.01M84.9 268.6h.01M84.7 286.4h.01M185.8 343.8h.01M111.7 385.2h.01M211.3 262.8h.01M193.6 303.3h.01M289.6 239.1h.01M169.0 369.4h.01M93.3 328.9h.01M244.2 322.9h.01M148.2 384.0h.01M182.0 351.0h.01M152.7 313.1h.01M188.6 284.7h.01M277.6 335.2h.01M180.0 311.5h.01M148.0 298.7h.01M247.2 244.0h.01M160.5 358.2h.01M236.5 235.7h.01M109.5 329.0h.01M288.5 103.9h.01M304.1 286.0h.01M84.2 292.8h.01M226.6 224.1h.01M245.3 235.9h.01M255.1 212.1h.01M153.5 366.5h.01M150.0 353.3h.01M312.1 246.8h.01M172.0 339.5h.01M315.5 321.6h.01M128.3 312.0h.01M171.0 311.6h.01M144.5 395.8h.01M298.2 141.0h.01M114.6 340.5h.01M88.2 314.3h.01M157.3 340.7h.01M243.4 334.1h.01M101.4 231.3h.01M201.4 253.9h.01M291.0 233.8h.01M193.1 313.5h.01M115.6 58.4h.01M247.9 315.1h.01M145.6 340.9h.01M152.2 410.3h.01M174.1 293.8h.01M312.7 303.3h.01M327.0 205.5h.01M198.2 266.9h.01M200.8 330.9h.01M154.3 323.6h.01M159.9 381.1h.01M139.5 371.9h.01M194.4 322.2h.01M186.1 358.8h.01M189.7 345.5h.01M258.5 323.0h.01M339.0 323.7h.01M328.2 301.1h.01M67.7 199.6h.01M272.9 82.7h.01M168.7 328.3h.01M274.5 330.4h.01M264.1 246.1h.01M295.4 236.3h.01M173.6 334.9h.01M226.2 266.1h.01M166.3 362.7h.01M193.3 36.6h.01M197.5 273.4h.01M247.7 339.8h.01M148.5 397.8h.01M211.2 290.3h.01M331.9 312.5h.01M81.7 337.0h.01M318.1 283.5h.01M154.2 308.0h.01M168.5 332.3h.01M177.4 278.8h.01M173.8 289.0h.01M250.7 350.6h.01M97.3 380.0h.01M178.9 355.1h.01M141.8 379.2h.01M107.8 173.7h.01M208.3 273.3h.01M154.1 342.4h.01M121.1 54.9h.01M162.7 317.1h.01M297.3 124.1h.01M209.4 168.9h.01M89.2 209.7h.01M244.3 338.5h.01M243.5 221.5h.01M288.4 380.6h.01M153.2 401.3h.01M157.0 374.6h.01M95.2 304.4h.01M333.6 334.1h.01M248.7 345.3h.01M157.7 369.1h.01M304.3 240.8h.01M250.4 247.3h.01M304.6 236.6h.01M300.2 228.9h.01M313.4 326.2h.01M199.4 304.2h.01M334.3 323.5h.01M180.8 37.4h.01M280.6 90.9h.01M153.9 327.3h.01M227.3 45.0h.01M93.4 299.0h.01M105.4 372.7h.01M87.7 324.8h.01M186.1 349.1h.01M211.7 40.6h.01M84.8 328.0h.01M226.3 261.1h.01M139.6 363.5h.01M192.8 264.7h.01M227.9 280.0h.01M290.8 211.3h.01M211.4 257.8h.01M147.5 348.5h.01M241.4 330.1h.01M153.9 303.3h.01M140.2 349.3h.01M182.9 283.0h.01M176.6 308.4h.01M328.4 317.1h.01M152.0 396.0h.01M151.5 362.6h.01M327.4 307.6h.01M194.1 268.7h.01M133.4 49.7h.01M308.6 318.3h.01M185.2 288.0h.01M191.5 280.4h.01M314.8 308.3h.01M297.1 226.6h.01M214.2 269.9h.01M78.3 339.9h.01M237.4 327.6h.01M181.5 315.3h.01M169.5 364.5h.01M282.5 379.5h.01M277.1 86.2h.01M174.7 418.8h.01M142.5 383.7h.01M239.2 266.9h.01M198.7 284.3h.01M167.5 336.0h.01M140.9 359.4h.01M187.7 405.0h.01M167.4 372.4h.01M162.9 362.9h.01M253.1 298.9h.01M242.7 54.0h.01M117.0 272.4h.01M295.7 128.0h.01M244.5 304.4h.01M188.2 305.3h.01M235.5 269.0h.01M180.3 342.9h.01M164.5 368.5h.01M216.0 261.3h.01M142.9 374.7h.01M206.9 266.2h.01M111.7 379.9h.01M266.6 370.6h.01M86.7 335.3h.01M203.2 272.8h.01M207.0 261.9h.01M171.1 315.6h.01M194.1 283.5h.01M172.7 330.0h.01M141.0 398.9h.01M302.2 343.9h.01M244.4 327.8h.01M254.5 247.3h.01M151.2 306.5h.01M152.0 373.6h.01M298.6 233.0h.01M142.4 391.6h.01M165.8 312.6h.01M211.9 266.8h.01M248.7 324.4h.01M197.0 344.8h.01M207.9 294.7h.01M283.5 332.8h.01M147.5 306.8h.01M152.7 381.2h.01M75.2 190.2h.01M199.0 277.0h.01M189.7 324.3h.01M311.4 322.0h.01M222.9 304.7h.01M270.4 166.6h.01M144.0 369.9h.01M206.8 256.8h.01M181.7 346.4h.01M125.5 351.5h.01M90.1 304.1h.01M157.7 405.4h.01M202.5 308.5h.01M276.7 379.1h.01M86.2 344.9h.01M307.8 244.1h.01M93.2 314.6h.01M94.6 353.9h.01M330.8 326.5h.01M197.7 270.1h.01M89.6 362.0h.01M248.8 320.2h.01M184.2 318.3h.01M149.5 404.7h.01M152.7 388.7h.01M173.3 363.3h.01M230.9 268.5h.01M327.2 312.8h.01M98.3 178.5h.01M85.2 280.6h.01M141.7 410.0h.01M102.3 316.7h.01M203.2 322.5h.01M216.4 256.0h.01M155.8 358.1h.01M159.2 326.1h.01M232.0 233.9h.01M88.2 340.8h.01M239.7 334.5h.01M142.8 345.9h.01M94.6 173.9h.01M256.6 358.3h.01M67.6 221.4h.01M83.3 331.8h.01M182.0 277.8h.01M105.2 178.4h.01M177.8 349.6h.01M154.5 353.9h.01M188.4 214.9h.01M200.2 354.9h.01M186.9 38.1h.01M333.6 184.5h.01M203.0 267.9h.01M143.2 306.9h.01M196.2 347.9h.01M221.4 268.7h.01M150.7 330.6h.01M174.5 358.8h.01M186.1 327.0h.01M216.0 229.9h.01M217.8 271.2h.01M231.2 272.8h.01M260.0 235.7h.01M139.3 46.7h.01M211.4 280.8h.01M154.3 319.4h.01M193.2 341.9h.01M158.9 321.4h.01M170.5 353.2h.01M270.2 77.5h.01M227.0 315.3h.01M198.4 326.3h.01M147.3 344.7h.01M220.0 274.6h.01M83.4 320.8h.01M136.0 359.1h.01M226.6 227.3h.01M176.5 320.5h.01M144.6 387.8h.01M233.6 239.5h.01M127.2 52.2h.01M299.8 150.0h.01M64.6 210.5h.01M205.1 303.9h.01M318.8 318.7h.01M123.7 401.8h.01M177.8 193.0h.01M136.0 326.0h.01M95.7 202.1h.01M178.6 295.3h.01M151.9 385.3h.01M141.5 332.5h.01M188.1 271.4h.01M141.2 386.5h.01M166.6 353.6h.01M230.1 243.3h.01M187.8 314.5h.01M179.6 303.9h.01M156.2 397.5h.01M107.0 388.3h.01M194.6 353.2h.01M141.4 328.6h.01M294.6 119.5h.01M319.9 354.0h.01M162.8 323.2h.01M161.0 366.0h.01M238.6 164.3h.01M152.9 336.5h.01M164.9 302.8h.01M204.8 229.4h.01M203.8 285.6h.01M230.7 260.1h.01M139.9 353.8h.01M98.0 357.2h.01M253.7 343.8h.01M190.0 354.0h.01M101.6 353.5h.01M156.5 312.0h.01M334.0 170.4h.01M148.7 376.3h.01M275.2 326.6h.01M151.9 346.6h.01M236.6 272.7h.01M159.8 401.5h.01M86.2 301.7h.01M92.7 357.6h.01M283.6 300.6h.01M233.2 284.3h.01M161.5 341.9h.01M105.0 66.4h.01M164.1 359.5h.01M335.5 337.6h.01M202.7 263.5h.01M167.7 317.2h.01M209.9 304.0h.01M300.2 237.0h.01M192.5 272.4h.01M157.4 308.5h.01M157.6 365.6h.01M174.6 354.0h.01M167.0 324.4h.01M92.5 334.1h.01M192.9 295.8h.01M204.0 276.8h.01M220.6 258.7h.01M150.9 317.4h.01M168.1 360.4h.01M325.1 210.6h.01M148.2 314.1h.01M271.6 326.8h.01M188.3 293.7h.01M157.9 336.0h.01M155.1 332.0h.01M144.7 358.6h.01M265.3 315.6h.01M164.1 328.1h.01M151.3 358.4h.01M230.3 264.5h.01M160.5 362.4h.01M140.9 341.6h.01M181.5 191.0h.01M200.8 289.5h.01M71.5 203.1h.01M243.8 342.6h.01M291.7 123.9h.01M207.5 252.0h.01M89.1 330.7h.01M211.5 332.8h.01M236.7 315.9h.01M182.4 194.6h.01M188.8 275.8h.01M65.8 215.8h.01M135.9 331.3h.01M321.6 317.2h.01M193.3 327.4h.01M297.6 154.2h.01M146.9 333.3h.01M157.6 349.8h.01M157.6 385.4h.01M332.9 162.0h.01M202.7 259.1h.01M173.3 185.9h.01M204.8 328.0h.01M217.0 276.4h.01M325.3 353.1h.01M262.6 327.2h.01M331.1 339.8h.01M99.2 362.5h.01M246.3 359.6h.01M233.5 327.8h.01M245.7 230.8h.01M157.1 421.5h.01M231.9 317.1h.01M84.4 339.9h.01M162.7 354.9h.01M145.2 382.5h.01M146.6 392.1h.01M104.1 363.2h.01M160.0 372.0h.01M307.5 321.0h.01M184.7 354.2h.01M296.9 289.4h.01M173.1 349.1h.01M194.3 277.3h.01M172.2 325.1h.01M181.5 338.8h.01M241.6 270.2h.01M251.1 304.8h.01M165.2 320.2h.01M151.3 378.7h.01M159.5 304.9h.01M222.4 227.4h.01M281.1 96.0h.01M163.7 350.5h.01M309.3 304.6h.01M115.5 393.9h.01M107.6 377.2h.01M149.3 322.5h.01M240.2 324.5h.01M196.5 309.1h.01M259.1 164.8h.01M149.4 369.8h.01M200.0 229.4h.01M238.1 319.6h.01M177.0 325.0h.01M215.3 280.2h.01M325.7 296.6h.01M160.6 397.5h.01M148.6 366.3h.01M86.1 309.0h.01M240.1 224.7h.01M160.8 312.8h.01M171.2 361.2h.01M207.3 333.2h.01M196.0 288.1h.01M249.9 240.0h.01M176.8 316.6h.01M150.5 310.3h.01M156.4 389.0h.01M300.0 136.7h.01M163.5 371.8h.01M95.0 221.5h.01M149.1 302.7h.01M150.7 342.0h.01M323.0 314.4h.01M251.9 61.6h.01M287.8 386.5h.01M302.4 232.7h.01M336.9 167.0h.01M156.7 301.1h.01M170.8 357.4h.01M160.8 300.9h.01M168.1 348.8h.01M182.9 204.9h.01M180.8 198.0h.01M231.8 321.4h.01M84.0 315.9h.01M212.9 274.6h.01M337.2 317.7h.01M146.0 317.7h.01M164.1 365.1h.01M235.6 323.2h.01M144.3 354.8h.01M145.8 401.1h.01M180.3 321.4h.01M184.3 323.0h.01M247.3 61.3h.01M135.3 363.5h.01M206.3 290.0h.01M243.4 314.1h.01M191.0 289.4h.01M229.4 255.1h.01M207.3 322.7h.01M286.6 334.6h.01M167.1 366.4h.01M265.7 74.0h.01M201.4 350.4h.01M153.6 392.4h.01M179.4 286.1h.01M199.6 314.2h.01M149.8 392.0h.01M190.8 309.2h.01M168.8 308.7h.01M295.3 232.5h.01M202.8 299.4h.01M243.1 318.8h.01M148.6 380.6h.01M165.4 344.0h.01M86.9 197.4h.01M97.0 226.7h.01M209.0 285.3h.01M62.4 187.1h.01M162.1 308.5h.01M198.3 258.8h.01M175.1 283.7h.01M252.0 358.6h.01M166.6 356.9h.01M148.4 337.7h.01M169.8 321.3h.01M278.8 241.0h.01M231.9 222.9h.01M206.3 37.6h.01M292.5 115.4h.01M162.1 337.2h.01M208.7 277.8h.01M219.6 251.8h.01M156.2 371.8h.01M223.4 274.7h.01M231.4 325.0h.01M90.1 353.0h.01M146.9 362.1h.01M230.3 249.7h.01M85.2 274.5h.01M103.6 367.8h.01M183.9 292.2h.01M195.0 331.7h.01M224.5 256.8h.01M205.4 281.2h.01M156.6 379.4h.01M236.6 221.6h.01M157.9 393.3h.01M178.6 299.5h.01M237.5 331.2h.01M309.1 226.9h.01M241.5 236.7h.01M148.3 356.7h.01M159.1 330.7h.01M227.8 275.3h.01M245.2 226.1h.01M229.9 49.2h.01M252.7 216.4h.01M316.1 250.7h.01M158.8 353.7h.01M224.8 308.8h.01M222.4 42.6h.01M161.0 369.0h.01M317.0 305.1h.01M156.9 345.8h.01M198.2 263.6h.01M155.0 376.5h.01M217.6 265.5h.01M213.5 300.7h.01M322.9 310.3h.01M220.9 230.6h.01M90.8 367.1h.01M175.1 303.2h.01M160.5 375.0h.01M296.2 222.6h.01M341.4 267.4h.01M243.0 308.9h.01M172.9 319.9h.01M155.9 315.3h.01M162.0 346.8h.01M213.3 251.9h.01M158.0 361.0h.01M145.5 378.0h.01M153.4 370.2h.01M304.4 315.6h.01M260.3 365.0h.01M287.2 108.6h.01M179.4 290.7h.01M199.1 320.3h.01M155.2 362.5h.01M113.6 174.4h.01M189.0 299.4h.01M148.4 387.8h.01M103.1 358.5h.01M320.8 254.6h.01M176.9 339.2h.01M183.6 297.0h.01M254.2 354.6h.01M147.2 373.1h.01M163.1 332.6h.01M200.1 280.8h.01M197.8 350.9h.01M246.4 297.5h.01"/>
<path stroke="#1a1a1a" stroke-width="2.85" stroke-linecap="round" fill="none" d="M293.6 307.9h.01M329.0 197.7h.01M186.0 361.9h.01M310.6 347.0h.01M299.2 309.9h.01M301.0 323.8h.01M113.2 267.1h.01M93.7 207.3h.01M309.0 300.6h.01M72.9 199.3h.01M182.1 358.2h.01M280.8 313.4h.01M310.3 335.4h.01M226.9 209.3h.01M130.0 382.0h.01M93.0 350.6h.01M119.0 350.4h.01M322.4 344.0h.01M322.3 206.4h.01M100.8 334.2h.01M96.2 216.2h.01M242.0 164.2h.01M288.2 301.0h.01M70.6 196.3h.01M210.8 337.8h.01M116.5 350.5h.01M90.9 345.9h.01M195.8 362.6h.01M262.2 198.0h.01M283.4 384.3h.01M208.3 316.6h.01M290.5 305.2h.01M163.2 395.0h.01M255.1 163.8h.01M330.6 331.0h.01M134.3 387.6h.01M222.3 212.0h.01M243.5 211.0h.01M271.5 237.8h.01M224.8 167.5h.01M208.0 308.2h.01M128.5 367.6h.01M188.5 210.7h.01M208.5 312.6h.01M129.4 385.2h.01M224.2 338.0h.01M110.6 338.0h.01M312.9 330.6h.01M272.1 171.3h.01M171.5 414.5h.01M97.7 330.3h.01M250.9 336.6h.01M152.3 417.4h.01M319.2 214.2h.01M178.8 362.8h.01M141.4 402.4h.01M124.9 376.7h.01M207.1 353.8h.01M203.9 357.9h.01M262.6 333.6h.01M97.9 326.9h.01M164.7 391.4h.01M303.9 324.2h.01M229.1 364.2h.01M188.3 180.2h.01M246.6 335.7h.01M98.0 352.2h.01M303.1 320.6h.01M226.7 215.4h.01M198.0 334.6h.01M258.3 338.4h.01M239.6 212.1h.01M110.6 344.4h.01M292.9 293.2h.01M315.8 316.8h.01M304.7 229.4h.01M160.6 390.7h.01M211.4 223.5h.01M119.3 354.4h.01M241.7 232.4h.01M232.5 211.3h.01M218.5 225.8h.01M215.1 328.5h.01M189.3 339.9h.01M217.3 168.0h.01M225.9 218.3h.01M208.0 226.6h.01M217.7 369.4h.01M269.7 183.5h.01M224.5 365.5h.01M87.0 354.9h.01M131.5 377.3h.01M323.6 319.6h.01M131.3 391.5h.01M267.2 169.5h.01M235.9 217.3h.01M212.3 341.9h.01M131.1 387.6h.01M108.5 351.5h.01M279.5 167.0h.01M247.2 286.2h.01M241.4 359.9h.01M240.4 338.6h.01M262.5 238.5h.01M204.6 312.2h.01M251.7 331.6h.01M233.9 331.1h.01M92.4 197.4h.01M175.5 369.3h.01M295.6 299.9h.01M234.3 363.5h.01M212.3 348.1h.01M320.0 297.5h.01M223.1 217.9h.01M230.6 208.3h.01M254.5 333.2h.01M205.3 348.5h.01M284.6 100.4h.01M185.4 186.6h.01M236.2 336.7h.01M109.0 368.9h.01M121.9 376.8h.01M79.5 328.8h.01M254.3 325.2h.01M127.9 376.1h.01M332.7 318.5h.01M167.4 413.6h.01M170.8 383.6h.01M91.7 213.6h.01M323.7 339.3h.01M192.7 336.5h.01M102.5 347.2h.01M298.2 337.3h.01M145.1 410.2h.01M135.4 391.0h.01M304.4 301.6h.01M93.2 371.2h.01M295.0 312.0h.01M178.9 373.9h.01M305.0 307.3h.01M197.9 342.1h.01M267.3 237.0h.01M200.0 360.1h.01M127.2 388.4h.01M246.6 350.1h.01M312.8 316.9h.01M280.0 190.0h.01M328.5 161.4h.01M104.4 350.1h.01M176.7 330.2h.01M111.5 373.2h.01M175.5 365.2h.01M272.5 322.3h.01M148.5 410.1h.01M307.3 154.4h.01M111.4 349.9h.01M223.0 348.3h.01M267.9 172.6h.01M323.2 287.6h.01M159.5 413.9h.01M299.8 223.8h.01M207.3 223.1h.01M184.7 331.1h.01M273.0 243.5h.01M221.0 220.2h.01M165.2 387.6h.01M235.8 209.5h.01M224.1 209.8h.01M224.6 340.5h.01M123.8 372.8h.01M323.3 300.8h.01M250.7 340.9h.01M181.9 362.4h.01M223.1 343.7h.01M264.7 330.8h.01M254.5 339.4h.01M282.9 316.3h.01M329.7 157.4h.01M266.6 243.6h.01M127.2 364.7h.01M305.9 298.6h.01M220.5 214.1h.01M86.3 351.6h.01M326.3 154.6h.01M324.3 328.7h.01M133.8 384.3h.01M191.6 212.3h.01M197.6 338.4h.01M81.6 325.0h.01M170.4 418.5h.01M134.9 376.3h.01M255.6 207.4h.01M218.6 306.2h.01M232.0 278.5h.01M306.2 304.5h.01M183.4 410.5h.01M306.4 323.5h.01M223.1 215.1h.01M82.3 195.2h.01M193.6 358.0h.01M107.8 359.8h.01M221.2 346.0h.01M210.3 319.8h.01M249.3 334.3h.01M135.1 371.1h.01M318.0 325.0h.01M275.2 323.1h.01M295.7 303.4h.01M244.9 164.3h.01M187.5 208.1h.01M307.7 334.6h.01M193.2 215.8h.01M286.7 318.9h.01M251.5 243.7h.01M219.3 217.2h.01M161.5 387.3h.01M253.0 317.7h.01M243.6 214.4h.01M161.7 383.7h.01M177.8 359.8h.01M285.9 330.2h.01M201.5 386.8h.01M247.8 162.3h.01M251.6 327.3h.01M236.2 276.5h.01M164.0 409.0h.01M94.6 347.8h.01M288.2 163.3h.01M137.5 393.4h.01M153.2 414.0h.01M326.0 322.2h.01M126.9 379.8h.01M303.9 311.8h.01M109.0 364.4h.01M214.7 345.5h.01M299.5 313.6h.01M323.0 323.0h.01M122.0 396.6h.01M318.7 153.5h.01M203.1 225.0h.01M132.5 368.5h.01M113.6 346.8h.01M111.0 341.0h.01M122.6 355.2h.01M118.8 385.7h.01M223.4 332.2h.01M247.4 211.2h.01M190.0 330.7h.01M237.8 361.9h.01M290.6 309.5h.01M301.3 338.6h.01M229.1 218.4h.01M301.2 317.5h.01M292.9 331.4h.01M242.6 356.6h.01M257.5 242.0h.01M240.6 207.8h.01M286.2 315.4h.01M254.4 321.4h.01M326.6 326.4h.01M219.5 331.0h.01M327.0 331.0h.01M299.4 145.4h.01M280.6 193.2h.01M114.9 343.9h.01M222.4 223.8h.01M163.6 413.6h.01M79.9 190.5h.01M256.9 238.5h.01M199.9 219.5h.01M332.2 187.5h.01M133.5 400.2h.01M264.5 190.3h.01M165.3 383.5h.01M224.0 221.0h.01M113.2 367.6h.01M213.4 373.4h.01M318.9 321.9h.01M186.4 205.8h.01M177.5 378.0h.01M174.2 381.2h.01M313.0 285.4h.01M78.5 194.8h.01M278.7 196.2h.01M96.8 323.6h.01M108.0 347.5h.01M183.6 201.9h.01M105.5 354.4h.01M105.8 344.3h.01M140.5 395.5h.01M119.0 373.5h.01M327.5 336.3h.01M258.6 335.0h.01M220.0 338.5h.01M203.2 335.6h.01M305.9 332.9h.01M271.5 175.4h.01M225.3 212.9h.01M318.5 314.3h.01M318.6 310.1h.01M265.8 185.9h.01M120.8 358.7h.01M137.6 385.9h.01M179.2 334.2h.01M105.0 324.2h.01M267.7 180.3h.01M226.0 343.0h.01M309.6 308.0h.01M100.7 321.0h.01M302.9 304.7h.01M285.2 166.6h.01M198.8 223.9h.01M117.8 346.7h.01M209.5 355.7h.01M225.3 318.4h.01M268.7 313.4h.01M183.4 334.8h.01M324.3 333.2h.01M321.5 293.3h.01M139.3 382.2h.01M134.7 373.9h.01M277.8 330.1h.01M204.0 353.1h.01M308.6 314.9h.01M283.6 323.8h.01M128.7 402.0h.01M88.5 357.9h.01M235.9 334.1h.01M321.5 330.7h.01M136.5 381.5h.01M294.7 335.3h.01M225.0 347.0h.01M161.9 418.1h.01M99.9 337.7h.01M311.7 310.0h.01M220.2 342.4h.01M168.3 386.1h.01M164.8 379.4h.01M130.6 361.5h.01M334.1 180.3h.01M166.7 417.4h.01M216.4 341.1h.01M178.1 366.1h.01M89.8 193.2h.01M168.3 390.8h.01M315.4 299.8h.01M101.4 325.9h.01M136.2 397.1h.01M85.3 192.6h.01M130.2 370.4h.01M134.6 404.5h.01M312.0 154.2h.01M287.2 321.9h.01M185.5 339.2h.01M92.1 342.5h.01M163.3 404.3h.01M224.1 312.8h.01M215.4 332.4h.01M284.5 202.5h.01M116.7 382.0h.01M74.5 194.5h.01M322.5 325.8h.01M252.2 313.1h.01M122.1 381.8h.01M330.5 190.1h.01M235.9 213.7h.01M184.0 364.8h.01M144.4 405.7h.01M205.5 344.1h.01M316.6 328.0h.01M213.6 168.2h.01M126.6 370.8h.01M329.4 322.0h.01M110.8 334.3h.01M172.1 372.1h.01M95.4 340.4h.01M132.9 381.9h.01M253.4 240.5h.01M267.6 176.7h.01M320.3 347.6h.01M215.1 336.8h.01M115.9 370.8h.01M221.9 335.0h.01M81.7 311.5h.01M280.6 318.3h.01M126.1 359.6h.01M299.3 304.5h.01M230.0 327.7h.01M209.5 344.9h.01M248.1 309.6h.01M180.9 365.9h.01M172.0 367.5h.01M208.9 349.8h.01M124.4 362.4h.01M236.5 339.1h.01M330.3 194.5h.01M131.5 379.5h.01M218.5 221.7h.01M195.0 220.9h.01M246.6 239.5h.01M98.5 349.1h.01M119.1 389.5h.01M255.0 243.8h.01M126.5 383.3h.01M131.5 395.3h.01M248.8 215.1h.01M220.4 367.1h.01M188.0 335.0h.01M320.2 327.8h.01M203.5 220.7h.01M194.6 393.7h.01M265.4 167.0h.01M248.6 328.6h.01M243.7 346.8h.01M297.1 317.2h.01M123.6 386.1h.01M258.3 245.0h.01M130.5 375.3h.01M249.3 355.1h.01M302.9 225.4h.01M306.5 309.7h.01M126.8 355.8h.01M196.8 216.9h.01M251.3 162.3h.01M215.1 304.9h.01M227.8 221.4h.01M172.9 377.3h.01M245.5 217.9h.01M306.8 233.8h.01M231.1 215.1h.01M202.2 340.6h.01M301.6 307.9h.01M137.2 402.0h.01M228.3 165.8h.01M191.0 361.6h.01M228.8 212.0h.01M88.8 348.7h.01M296.9 307.0h.01M271.0 179.4h.01M122.2 350.5h.01M169.0 376.1h.01M156.8 417.4h.01M211.5 324.1h.01M130.3 373.0h.01M300.8 302.0h.01M321.9 350.6h.01M168.9 380.7h.01M211.4 352.2h.01M247.1 269.7h.01M283.6 320.6h.01M96.4 333.6h.01M165.3 422.0h.01M271.5 319.4h.01M138.5 376.8h.01M274.5 309.5h.01M119.7 393.4h.01M316.9 350.6h.01M181.0 328.1h.01M175.5 374.0h.01M135.2 379.0h.01M95.6 319.1h.01M319.3 301.8h.01M308.4 312.1h.01M187.7 364.8h.01M211.5 229.1h.01M309.3 326.4h.01M241.1 228.7h.01M326.4 342.0h.01M262.4 165.9h.01M251.6 210.8h.01M160.7 409.0h.01M308.6 284.1h.01M104.8 328.2h.01M130.5 399.0h.01M96.3 309.6h.01M197.2 357.7h.01M308.5 330.4h.01M91.6 338.0h.01M191.8 177.2h.01M285.9 324.2h.01M79.9 334.3h.01M75.8 198.0h.01M277.0 190.7h.01M118.9 378.2h.01M247.1 331.6h.01M295.7 218.9h.01M303.0 153.6h.01M131.4 365.2h.01M281.7 306.0h.01M227.4 320.6h.01M218.7 334.5h.01M96.7 337.3h.01M165.3 399.6h.01M240.0 217.8h.01M84.0 348.3h.01M97.9 315.1h.01M209.8 328.1h.01M201.0 346.1h.01M217.9 345.7h.01M333.4 174.0h.01M291.4 110.6h.01M118.9 398.4h.01M206.9 339.4h.01M108.8 356.1h.01M106.3 330.6h.01M284.3 312.5h.01M254.5 336.0h.01M179.2 369.0h.01M115.3 376.4h.01M232.5 218.7h.01M101.3 330.5h.01M108.0 341.0h.01M281.1 199.3h.01"/>
<path stroke="#1a1a1a" stroke-width="3.33" stroke-linecap="round" fill="none" d="M224.0 352.7h.01M309.7 343.4h.01M243.1 351.7h.01M313.4 334.3h.01M178.7 403.0h.01M315.3 312.5h.01M223.7 322.2h.01M274.5 187.4h.01M202.7 216.9h.01M217.5 319.8h.01M204.1 362.7h.01M239.8 286.2h.01M121.7 365.6h.01M245.7 281.3h.01M302.5 222.0h.01M224.0 207.2h.01M170.6 389.2h.01M175.5 404.5h.01M179.1 389.8h.01M274.0 316.8h.01M231.0 331.1h.01M283.1 190.0h.01M295.7 322.3h.01M309.9 293.0h.01M208.5 358.7h.01M239.8 203.4h.01M226.1 361.5h.01M313.9 347.5h.01M102.0 341.0h.01M220.8 311.8h.01M292.9 315.5h.01M106.7 337.3h.01M184.9 374.1h.01M282.8 328.3h.01M235.5 353.0h.01M102.8 337.5h.01M298.4 328.8h.01M222.6 355.5h.01M228.0 340.0h.01M185.4 199.9h.01M228.5 330.0h.01M185.2 369.0h.01M117.7 362.2h.01M248.5 273.9h.01M280.8 184.0h.01M312.8 338.8h.01M319.0 336.8h.01M215.4 223.1h.01M233.1 339.1h.01M107.8 333.2h.01M211.1 219.6h.01M260.4 330.7h.01M323.0 155.7h.01M316.0 288.2h.01M290.2 312.9h.01M216.5 218.7h.01M114.3 363.6h.01M290.2 321.0h.01M197.0 207.6h.01M195.0 369.0h.01M215.6 324.6h.01M193.0 180.5h.01M257.7 200.4h.01M301.7 327.3h.01M316.1 342.0h.01M103.9 332.7h.01M235.5 350.0h.01M279.8 187.1h.01M280.5 310.8h.01M244.4 273.1h.01M205.3 380.0h.01M278.5 308.6h.01M237.7 206.5h.01M279.3 171.8h.01M127.2 393.1h.01M214.0 351.0h.01M277.0 317.7h.01M176.1 390.1h.01M287.4 310.1h.01M212.3 361.1h.01M228.0 348.0h.01M215.4 215.6h.01M212.1 172.4h.01M183.3 389.1h.01M301.1 295.4h.01M218.6 354.3h.01M236.2 280.3h.01M277.5 325.0h.01M226.0 205.7h.01M181.5 404.5h.01M286.3 198.8h.01M270.1 243.4h.01M196.2 203.5h.01M301.8 290.8h.01M220.0 349.0h.01M180.1 386.7h.01M177.7 383.9h.01M207.5 220.2h.01M222.7 320.0h.01M320.3 210.4h.01M316.4 335.5h.01M218.9 313.1h.01M305.5 327.0h.01M188.7 398.5h.01M211.5 311.2h.01M275.8 173.8h.01M226.8 345.4h.01M219.7 322.1h.01M123.7 390.8h.01M225.9 350.4h.01M205.8 217.4h.01M176.8 411.4h.01M330.1 173.2h.01M237.6 354.8h.01M212.8 308.0h.01M227.3 332.6h.01M124.9 396.5h.01M198.8 365.6h.01M182.8 380.0h.01M329.2 170.1h.01M209.0 217.7h.01M316.7 216.6h.01M247.5 165.9h.01M296.3 331.3h.01M306.6 342.4h.01M185.5 380.5h.01M227.3 324.0h.01M283.6 196.3h.01M191.5 365.6h.01M233.1 336.1h.01M268.7 240.6h.01M284.1 193.0h.01M220.6 309.0h.01M179.5 381.6h.01M191.3 208.7h.01M290.8 327.4h.01M214.0 312.5h.01M180.0 410.4h.01M199.4 214.2h.01M168.1 395.0h.01M289.3 330.4h.01M233.4 361.1h.01M302.7 298.3h.01M220.1 318.9h.01M298.2 333.9h.01M183.6 383.2h.01M189.9 204.6h.01M274.3 240.8h.01M237.1 203.1h.01M252.3 206.0h.01M272.6 313.3h.01M207.5 364.2h.01M231.4 348.4h.01M214.7 318.1h.01M289.9 206.8h.01M311.8 313.4h.01M203.0 214.0h.01M260.2 240.5h.01M305.2 294.4h.01M239.4 350.8h.01M257.5 331.6h.01M215.5 315.2h.01M96.1 211.2h.01M297.9 325.5h.01M288.8 315.7h.01M231.6 333.8h.01M234.6 346.9h.01M228.8 351.6h.01M116.4 358.4h.01M320.5 333.7h.01M240.3 353.9h.01M308.7 223.9h.01M179.5 407.0h.01M242.7 205.1h.01M299.3 219.2h.01M202.4 172.7h.01M101.6 343.9h.01M264.8 240.3h.01M225.6 335.3h.01M214.4 321.2h.01M299.2 299.2h.01M231.8 205.3h.01M216.7 348.9h.01M215.7 359.5h.01M206.5 360.9h.01M234.6 356.2h.01M206.3 171.7h.01M295.6 216.1h.01M199.6 176.2h.01M245.8 277.5h.01M297.8 293.4h.01M244.6 208.0h.01M230.7 338.8h.01M312.0 221.4h.01M112.7 357.7h.01M264.7 175.6h.01M202.7 365.9h.01M300.3 331.0h.01M316.5 295.0h.01M229.2 342.7h.01M326.2 200.2h.01M298.6 157.6h.01M212.5 358.2h.01M174.4 384.9h.01M187.0 202.8h.01M176.4 408.1h.01M221.3 353.0h.01M120.8 369.8h.01M257.5 204.4h.01M215.0 356.0h.01M169.4 399.8h.01M286.5 327.0h.01M226.0 330.0h.01M234.5 344.2h.01M302.9 332.1h.01M229.0 203.0h.01M193.4 206.6h.01M218.0 213.2h.01M228.2 337.1h.01M231.9 166.8h.01M240.8 279.3h.01M307.1 338.7h.01M298.6 321.1h.01M184.0 377.0h.01M105.3 335.1h.01M276.7 312.0h.01M313.8 291.6h.01M221.6 315.3h.01M124.3 367.8h.01M98.8 341.4h.01M180.9 377.9h.01M238.2 346.1h.01M200.8 363.2h.01M230.6 345.1h.01M332.5 176.9h.01M172.4 386.9h.01M232.5 341.8h.01M275.3 168.9h.01M316.7 346.6h.01M173.1 410.4h.01M233.5 333.5h.01M290.3 318.1h.01M273.0 184.3h.01M236.6 342.1h.01M237.1 358.9h.01M302.3 157.7h.01M230.5 336.0h.01M229.5 360.5h.01M216.6 309.7h.01M172.2 406.8h.01M182.4 371.1h.01M111.8 354.3h.01M222.9 361.3h.01M195.5 211.7h.01M214.4 370.3h.01M282.2 325.4h.01M209.9 362.2h.01M292.8 323.6h.01M112.0 361.3h.01M169.9 410.3h.01M229.0 334.0h.01M240.9 275.4h.01M277.7 322.0h.01M306.1 226.3h.01M278.8 315.3h.01M219.8 351.4h.01M316.4 339.1h.01M188.1 402.0h.01M173.8 389.6h.01M274.6 177.7h.01M248.6 207.3h.01M262.1 193.4h.01M265.0 182.4h.01M292.3 301.6h.01M217.0 363.0h.01M220.5 363.6h.01M186.4 377.2h.01M216.9 366.2h.01M213.9 219.6h.01M306.1 290.1h.01M191.4 369.4h.01M98.6 345.8h.01M235.3 166.1h.01M212.0 355.0h.01M237.5 283.7h.01M219.5 325.0h.01M293.6 319.4h.01M188.0 368.5h.01M199.6 210.3h.01M317.2 331.5h.01M117.6 366.7h.01M294.6 327.3h.01M286.3 305.0h.01M217.1 351.9h.01M184.7 189.8h.01M167.2 408.7h.01M322.3 336.5h.01M304.6 329.9h.01M183.5 386.0h.01M180.5 375.7h.01M284.1 308.6h.01M226.7 327.0h.01M229.9 355.9h.01M232.5 358.4h.01M172.3 392.9h.01M196.1 175.4h.01M319.1 289.9h.01M232.3 352.2h.01M120.9 362.4h.01M240.1 342.8h.01M178.5 371.5h.01M214.2 226.3h.01M295.4 159.5h.01M105.0 340.5h.01M261.7 243.4h.01M282.9 186.6h.01M182.1 373.9h.01M195.5 366.0h.01M182.7 367.9h.01M139.5 406.1h.01M295.9 296.6h.01M275.0 320.0h.01M258.4 327.3h.01M223.1 317.1h.01M301.0 334.8h.01M303.6 334.9h.01M245.8 354.9h.01M320.7 322.9h.01M184.7 403.8h.01M239.3 357.0h.01M95.7 344.4h.01M220.8 209.8h.01M270.1 316.4h.01M253.4 201.7h.01M114.1 350.7h.01M288.1 203.9h.01M240.5 348.0h.01M127.4 398.3h.01M223.2 328.4h.01M184.9 196.8h.01M223.5 325.0h.01M223.0 350.5h.01M255.2 329.1h.01M215.0 353.5h.01M185.0 401.5h.01M115.6 354.4h.01M312.4 297.2h.01M167.6 404.2h.01M289.5 324.4h.01M175.8 414.7h.01M211.8 315.7h.01M219.5 328.0h.01M308.6 296.6h.01M228.0 205.2h.01M278.7 320.0h.01M291.8 297.6h.01M176.7 387.1h.01M280.4 323.1h.01M209.1 374.6h.01M318.8 344.2h.01M186.9 371.8h.01M171.4 403.4h.01M304.6 336.9h.01M279.6 327.3h.01M234.8 205.4h.01M183.6 407.0h.01M226.5 354.5h.01M256.7 167.4h.01M303.9 340.2h.01M309.9 288.4h.01M320.1 340.5h.01M216.6 312.8h.01M294.6 212.6h.01M218.8 316.1h.01"/>
<path stroke="#1a1a1a" stroke-width="3.99" stroke-linecap="round" fill="none" d="M233.0 186.0h.01M225.5 196.0h.01M258.3 192.5h.01M308.0 183.0h.01M226.6 174.1h.01M315.0 189.3h.01M216.0 180.2h.01M259.3 181.0h.01M315.0 208.2h.01M237.7 174.0h.01M329.3 192.3h.01M313.0 161.3h.01M289.6 200.4h.01M291.7 173.7h.01M306.8 173.6h.01M302.9 160.9h.01M300.4 182.8h.01M250.1 170.1h.01M322.1 171.5h.01M217.6 179.8h.01M247.0 177.7h.01M218.0 210.5h.01M248.0 199.5h.01M297.9 167.1h.01M175.8 396.5h.01M249.5 204.0h.01M307.3 205.4h.01M313.1 173.1h.01M241.0 170.5h.01M262.5 186.6h.01M207.7 181.1h.01M219.5 177.0h.01M301.7 201.7h.01M249.6 191.8h.01M200.5 370.5h.01M211.0 365.0h.01M190.9 380.7h.01M229.3 188.9h.01M184.6 398.9h.01M224.1 201.5h.01M319.0 181.3h.01M244.0 183.5h.01M196.5 376.5h.01M258.0 178.5h.01M210.1 176.9h.01M311.5 199.0h.01M226.5 202.0h.01M202.5 370.5h.01M256.9 175.7h.01M291.6 182.9h.01M311.2 171.0h.01M209.9 209.1h.01M302.3 184.0h.01M310.8 188.8h.01M317.5 201.5h.01M315.8 196.0h.01M237.4 170.9h.01M298.7 169.9h.01M192.0 193.0h.01M325.8 197.1h.01M249.1 179.1h.01M307.7 159.3h.01M294.3 192.1h.01M205.1 370.1h.01M234.3 169.1h.01M314.0 212.0h.01M187.9 375.5h.01M230.4 173.6h.01M309.7 168.4h.01M320.5 159.0h.01M250.2 166.6h.01M320.9 176.4h.01M191.3 182.7h.01M318.2 197.6h.01M189.4 377.8h.01M289.7 189.0h.01M285.5 185.0h.01M301.8 169.8h.01M307.2 177.5h.01M328.5 179.0h.01M286.4 190.9h.01M205.5 193.5h.01M208.0 215.5h.01M217.3 177.3h.01M230.5 169.5h.01M208.4 185.7h.01M225.1 198.9h.01M194.3 187.0h.01M309.9 339.7h.01M188.4 197.9h.01M249.0 175.5h.01M203.4 176.4h.01M307.1 201.3h.01M255.2 173.0h.01M314.2 158.6h.01M188.9 394.4h.01M310.1 201.7h.01M310.9 182.9h.01M180.6 391.3h.01M199.1 380.3h.01M320.6 184.8h.01M297.1 179.8h.01M215.3 212.0h.01M221.5 202.5h.01M300.5 216.0h.01M324.3 178.3h.01M300.1 195.4h.01M307.8 194.2h.01M206.5 210.8h.01M310.0 192.0h.01M214.1 363.1h.01M297.8 211.0h.01M279.8 181.3h.01M244.1 190.3h.01M324.3 180.9h.01M197.2 194.7h.01M317.4 195.8h.01M199.2 189.5h.01M299.4 179.7h.01M247.5 172.0h.01M229.6 198.8h.01M216.4 189.6h.01M221.5 169.9h.01M239.7 178.0h.01M215.8 193.2h.01M330.8 179.1h.01M297.7 175.3h.01M201.9 190.9h.01M244.0 176.3h.01M309.1 166.1h.01M222.3 198.9h.01M248.8 197.2h.01M256.2 187.5h.01M242.5 172.5h.01M233.1 183.1h.01M327.5 191.5h.01M314.2 155.9h.01M317.2 210.5h.01M180.5 394.5h.01M201.5 179.5h.01M304.1 196.9h.01M249.9 184.9h.01M240.7 191.0h.01M221.9 176.1h.01M283.7 182.4h.01M187.8 380.5h.01M298.5 193.0h.01M299.5 208.5h.01M251.0 192.0h.01M189.6 200.6h.01M304.7 199.9h.01M196.9 178.9h.01M206.6 175.5h.01M212.7 191.2h.01M319.0 163.5h.01M192.0 188.7h.01M236.8 177.2h.01M201.0 375.0h.01M217.5 201.5h.01M219.3 180.2h.01M283.2 174.4h.01M308.0 170.8h.01M246.4 193.8h.01M313.5 218.5h.01M259.3 196.6h.01M293.8 189.0h.01M318.6 170.4h.01M252.9 170.1h.01M320.9 169.1h.01M308.0 163.5h.01M195.3 384.7h.01M300.7 174.4h.01M289.4 191.9h.01M308.6 211.2h.01M325.1 171.1h.01M194.7 184.1h.01M292.6 185.8h.01M244.5 192.5h.01M296.0 201.0h.01M235.0 179.8h.01M305.5 163.5h.01M217.0 196.2h.01M310.2 217.9h.01M299.9 188.1h.01M213.6 205.3h.01M232.7 175.9h.01M306.5 180.5h.01M302.5 189.0h.01M251.3 181.4h.01M311.2 193.8h.01M248.4 201.7h.01M243.6 285.7h.01M309.0 180.7h.01M242.4 201.5h.01M203.7 181.7h.01M242.9 188.7h.01M184.4 392.3h.01M313.4 199.7h.01M240.5 183.5h.01M245.1 168.2h.01M321.4 162.2h.01M320.0 201.5h.01M233.0 202.0h.01M309.9 156.8h.01M319.5 161.5h.01M308.8 190.2h.01M326.3 168.8h.01M326.5 176.0h.01M220.5 188.2h.01M295.9 198.1h.01M232.3 178.8h.01M207.0 372.3h.01M320.7 193.4h.01M300.3 160.1h.01M188.9 390.8h.01M193.4 387.9h.01M306.9 218.4h.01M264.2 179.1h.01M173.5 399.9h.01M204.0 196.0h.01M224.2 178.8h.01M192.3 373.8h.01M213.0 195.0h.01M193.6 381.6h.01M299.4 204.1h.01M250.3 189.1h.01M200.9 368.1h.01M313.7 182.0h.01M253.5 181.0h.01M234.5 194.5h.01M238.0 168.1h.01M305.0 170.5h.01M224.8 171.3h.01M218.1 191.1h.01M287.8 177.9h.01M223.4 181.9h.01M207.5 196.5h.01M287.3 188.8h.01M227.2 199.0h.01M316.0 160.0h.01M244.0 170.7h.01M196.4 390.2h.01M253.9 175.1h.01M256.0 183.2h.01M320.3 199.0h.01M310.0 215.5h.01M306.0 165.5h.01M293.0 178.0h.01M251.0 195.0h.01M251.0 199.0h.01M205.7 178.9h.01M292.4 203.2h.01M182.5 393.0h.01M314.2 166.5h.01M201.0 194.3h.01M317.1 167.2h.01M218.5 171.4h.01M232.5 196.0h.01M317.6 161.2h.01M242.0 179.5h.01M241.9 282.7h.01M215.5 195.5h.01M190.2 388.3h.01M223.5 204.0h.01M194.1 194.1h.01M284.0 170.8h.01M241.5 196.0h.01M326.1 158.6h.01M182.1 396.3h.01M223.1 196.1h.01M295.3 168.3h.01M206.0 366.7h.01M297.6 187.8h.01M246.3 175.0h.01M320.2 156.0h.01M194.8 200.0h.01M249.0 182.3h.01M314.0 194.7h.01M204.0 372.5h.01M194.2 189.6h.01M191.6 395.5h.01M218.4 356.9h.01M221.5 206.3h.01M208.6 212.7h.01M233.9 192.7h.01M228.5 200.5h.01M254.8 168.9h.01M214.0 181.3h.01M323.0 158.5h.01M196.9 187.1h.01M306.1 167.9h.01M303.6 176.8h.01M244.8 173.2h.01M316.9 193.1h.01M296.6 172.4h.01M186.4 394.3h.01M202.1 201.5h.01M229.0 191.5h.01M273.7 181.1h.01M230.1 183.9h.01M245.2 200.7h.01M304.5 203.5h.01M258.5 186.0h.01M301.0 213.0h.01M287.6 169.1h.01M290.0 166.0h.01M216.1 207.9h.01M316.0 170.0h.01M295.7 194.6h.01M296.5 183.0h.01M195.0 197.0h.01M288.0 186.5h.01M286.2 179.4h.01M301.7 178.8h.01M310.1 185.9h.01M244.8 178.8h.01M253.8 197.9h.01M216.0 204.0h.01M219.0 200.5h.01M263.0 173.8h.01M293.0 208.2h.01M209.7 183.6h.01M217.7 205.4h.01M277.1 180.7h.01M301.7 197.9h.01M312.8 202.7h.01M327.3 186.0h.01M293.8 171.2h.01M299.3 164.9h.01M322.8 164.2h.01M311.7 180.0h.01M208.7 190.0h.01M304.0 186.5h.01M290.0 180.5h.01M329.0 188.0h.01M233.5 199.0h.01M319.9 195.5h.01M305.8 222.4h.01M210.0 194.3h.01M276.1 314.9h.01M252.0 178.0h.01M218.5 198.0h.01M246.5 197.0h.01M299.5 206.5h.01M319.0 204.0h.01M259.7 169.6h.01M278.8 176.8h.01M198.7 185.3h.01M246.7 181.0h.01M235.8 201.1h.01M208.6 205.4h.01M316.0 163.5h.01M322.7 190.5h.01M305.2 183.8h.01M238.9 200.1h.01M289.7 196.9h.01M218.7 360.4h.01M222.5 190.9h.01M315.5 200.5h.01M192.5 391.5h.01M172.3 396.4h.01M220.7 192.1h.01M199.2 192.8h.01M231.5 199.0h.01M293.0 199.5h.01M191.9 185.9h.01M199.4 372.2h.01M322.0 182.7h.01M323.7 194.4h.01M210.4 213.2h.01M215.5 201.5h.01M310.0 174.0h.01M326.5 189.0h.01M237.1 188.9h.01M238.5 180.6h.01M285.2 187.8h.01M191.6 384.8h.01M324.7 187.9h.01M252.4 191.7h.01M281.5 179.1h.01M176.3 401.1h.01M327.1 194.8h.01M218.9 207.9h.01M229.4 177.5h.01M306.8 209.8h.01M241.5 176.5h.01M316.0 213.3h.01M218.3 194.0h.01M294.5 184.1h.01M215.2 172.6h.01M321.1 179.9h.01M242.5 174.5h.01M188.0 195.5h.01M247.8 189.8h.01M300.8 167.2h.01M219.5 182.5h.01M290.5 186.5h.01M300.8 210.6h.01M252.9 186.5h.01M206.0 183.3h.01M303.8 163.0h.01M313.3 215.1h.01M203.8 368.2h.01M277.4 186.1h.01M175.9 392.9h.01M328.1 181.9h.01M197.1 371.9h.01M208.6 201.1h.01M305.2 157.0h.01M240.8 187.6h.01M198.5 200.3h.01M315.3 180.0h.01M200.3 205.0h.01M219.6 184.9h.01M256.5 171.0h.01M205.8 213.7h.01M306.2 187.6h.01M294.1 175.1h.01M303.0 206.5h.01M302.9 165.1h.01M182.1 401.1h.01M255.2 192.5h.01M276.3 183.8h.01M308.4 187.8h.01M290.5 194.0h.01M201.5 372.5h.01M319.0 165.7h.01M196.0 374.3h.01M214.4 191.3h.01M295.6 204.6h.01M228.5 186.0h.01M192.5 202.3h.01M248.4 193.2h.01M310.4 207.7h.01M324.4 190.8h.01M316.8 156.2h.01M250.6 187.3h.01M311.1 159.1h.01M201.2 377.7h.01M211.5 216.0h.01M210.6 197.4h.01M248.0 195.2h.01M231.9 188.9h.01M228.0 197.2h.01M210.7 188.1h.01M311.0 213.3h.01M291.5 168.6h.01M212.9 175.9h.01M306.9 197.3h.01M316.0 173.0h.01M297.6 190.7h.01M214.2 209.6h.01M310.5 176.5h.01M213.6 187.2h.01M177.9 398.9h.01M208.0 369.7h.01M244.3 195.0h.01M322.7 197.6h.01M236.0 186.0h.01M224.2 189.1h.01M293.0 195.8h.01M230.5 186.5h.01M310.4 210.8h.01M202.2 380.5h.01M323.5 173.5h.01M188.2 189.9h.01M304.7 181.8h.01M298.0 185.5h.01M309.7 178.2h.01M298.9 200.4h.01M326.3 165.2h.01M221.6 178.8h.01M207.9 192.9h.01M311.4 165.7h.01M295.5 164.7h.01M303.8 212.6h.01M190.7 195.0h.01M247.9 168.9h.01M322.2 203.3h.01M241.5 168.0h.01M331.1 182.0h.01M213.8 178.3h.01M300.6 162.9h.01M289.2 171.9h.01M309.3 203.9h.01M254.5 189.7h.01M309.3 199.0h.01M295.8 189.2h.01M298.0 214.2h.01M240.0 172.5h.01M251.5 172.5h.01M180.5 393.0h.01M315.5 204.8h.01M211.7 207.3h.01M297.7 161.7h.01M312.5 208.0h.01M188.6 383.6h.01M230.4 195.7h.01M251.3 174.9h.01M203.3 207.7h.01M235.1 174.3h.01M306.7 192.0h.01M189.2 373.4h.01M305.0 175.0h.01M329.0 176.0h.01M196.5 379.0h.01M236.4 183.1h.01M321.7 187.6h.01M228.0 195.5h.01M288.3 184.0h.01M197.6 386.9h.01M313.1 163.9h.01M317.7 178.8h.01M196.0 181.7h.01M221.4 358.4h.01M194.0 191.5h.01M315.8 202.6h.01M305.9 161.1h.01M244.0 289.5h.01M312.7 185.0h.01M178.0 393.8h.01M202.8 211.1h.01M238.1 196.9h.01M254.0 195.0h.01M189.0 187.0h.01M200.1 383.6h.01M206.2 190.8h.01M313.0 175.5h.01M194.0 377.3h.01M233.5 171.8h.01M254.7 178.0h.01M319.7 173.1h.01M205.1 204.0h.01M210.5 371.5h.01M260.0 189.4h.01M322.8 177.2h.01M283.8 177.8h.01M185.1 396.2h.01M227.9 170.7h.01M185.8 193.1h.01M211.8 211.2h.01M192.1 197.6h.01M198.1 197.1h.01M200.7 196.7h.01M308.2 213.6h.01M209.5 173.7h.01M204.6 185.7h.01M303.6 219.7h.01M302.1 193.9h.01M295.0 186.7h.01M207.0 208.0h.01M298.5 183.0h.01M325.6 192.2h.01M304.0 191.5h.01M304.5 189.5h.01M325.3 162.2h.01M219.5 174.0h.01M188.2 184.1h.01M191.9 377.6h.01M226.3 176.8h.01M240.0 175.0h.01M205.4 377.3h.01M190.7 191.0h.01M213.8 202.3h.01M303.5 217.3h.01M234.2 189.7h.01M308.8 221.0h.01M312.3 205.6h.01M326.0 183.5h.01M304.1 214.9h.01M242.1 193.1h.01M196.9 191.9h.01M187.3 386.6h.01M261.5 177.8h.01M202.0 188.0h.01M316.4 182.6h.01M217.0 187.0h.01M304.8 179.2h.01M226.5 183.5h.01M292.0 188.0h.01M323.9 184.9h.01M237.7 191.2h.01M262.1 182.2h.01M253.5 184.1h.01M205.4 199.4h.01M313.5 178.0h.01M292.6 163.6h.01M209.0 179.0h.01M317.8 199.6h.01M186.4 390.5h.01M246.9 184.1h.01M312.8 187.8h.01M290.5 184.5h.01M329.8 184.9h.01M201.6 184.5h.01M230.6 201.8h.01M312.4 190.8h.01M219.4 203.2h.01M327.1 173.1h.01M300.9 191.1h.01M306.5 189.5h.01M214.1 366.3h.01M179.0 396.3h.01M203.5 375.0h.01M323.5 167.5h.01M236.0 198.3h.01M216.1 183.6h.01M220.5 180.0h.01M314.3 192.0h.01M194.1 371.9h.01M211.1 203.3h.01M227.9 193.3h.01M259.6 183.9h.01M259.9 175.9h.01M323.0 160.7h.01M196.9 382.1h.01M244.0 198.0h.01M199.2 181.8h.01M293.6 180.9h.01M315.0 198.0h.01M206.1 374.9h.01M290.3 176.6h.01M239.0 194.0h.01M315.5 184.5h.01M300.1 172.1h.01M231.3 192.6h.01M238.8 186.3h.01M310.1 162.1h.01M321.2 166.3h.01M223.0 185.2h.01M318.1 190.9h.01M227.6 180.6h.01M188.7 193.0h.01M320.7 191.1h.01M312.0 196.3h.01M313.3 343.6h.01M308.5 208.0h.01M259.5 173.0h.01M318.4 207.0h.01M246.6 187.2h.01M302.8 209.8h.01M324.3 175.2h.01M234.8 196.4h.01M303.3 168.0h.01M295.9 208.4h.01M198.0 369.0h.01M252.8 166.6h.01M318.6 158.8h.01M326.5 179.0h.01M212.2 200.0h.01M286.7 181.8h.01M318.8 188.4h.01M216.0 199.3h.01M304.6 208.2h.01M302.3 181.0h.01M314.5 186.5h.01M213.1 213.9h.01M305.0 211.0h.01M180.6 399.2h.01M216.0 175.7h.01M256.8 196.3h.01M306.9 215.3h.01M203.4 192.7h.01M223.2 174.1h.01M225.6 357.9h.01M286.9 194.3h.01M224.6 193.1h.01M301.0 186.0h.01M245.6 204.2h.01M292.0 190.7h.01M214.0 197.7h.01M318.6 184.3h.01M198.6 375.3h.01M240.9 198.5h.01M304.9 194.1h.01M213.0 184.0h.01M318.6 175.6h.01M204.7 189.0h.01M226.9 189.7h.01M306.5 212.5h.01M323.3 201.0h.01M243.8 181.4h.01M316.9 186.9h.01M208.7 367.0h.01M220.6 199.8h.01M243.5 185.8h.01M231.1 181.1h.01M207.0 187.7h.01M263.3 170.6h.01M211.5 180.5h.01M211.0 192.0h.01M303.0 172.5h.01M312.7 210.7h.01M202.0 198.3h.01M246.4 191.2h.01M307.0 185.3h.01M287.2 174.6h.01M211.5 368.4h.01M313.2 169.1h.01M306.5 207.5h.01M295.9 177.5h.01M225.7 186.4h.01M220.6 195.4h.01M300.6 176.8h.01M196.5 189.5h.01M316.0 176.0h.01M256.0 180.3h.01M298.1 196.7h.01M236.5 194.0h.01M309.3 196.0h.01"/>
</svg>