<svg xmlns="http://www.w3.org/2000/svg" viewBox="0 0 360 432" role="img">
<path stroke="#1a1a1a" stroke-width="1.50" stroke-linecap="round" fill="none" d="M161.7 262.2h.01M250.5 430.6h.01M358.6 280.5h.01M358.6 113.5h.01M260.2 143.4h.01M114.1 430.6h.01M176.3 315.8h.01M109.4 393.3h.01M134.0 430.6h.01M235.5 427.9h.01M176.9 143.5h.01M122.7 279.6h.01M180.0 226.1h.01M266.7 135.8h.01M155.3 221.6h.01M168.2 147.2h.01M158.0 214.1h.01M146.1 221.2h.01M189.9 141.0h.01M137.4 140.6h.01M165.9 276.7h.01M163.7 330.7h.01M142.1 215.1h.01M149.1 215.4h.01M279.3 391.1h.01M267.3 145.6h.01M137.0 280.3h.01M128.9 277.2h.01M171.1 260.2h.01"/>
<path stroke="#1a1a1a" stroke-width="1.93" stroke-linecap="round" fill="none" d="M222.6 228.7h.01M130.8 134.9h.01M210.5 114.2h.01M190.6 325.6h.01M358.6 155.4h.01M191.5 262.6h.01M169.1 301.3h.01M265.6 114.4h.01M175.4 150.9h.01M144.0 134.5h.01M192.9 132.1h.01M159.7 158.2h.01M214.2 218.3h.01M102.9 142.0h.01M170.9 250.9h.01M201.2 206.9h.01M206.3 255.4h.01M244.6 218.8h.01M142.3 122.2h.01M177.9 336.9h.01M236.2 233.3h.01M157.6 125.9h.01M162.5 142.3h.01M218.8 249.8h.01M184.0 145.0h.01M105.0 237.6h.01M163.8 316.6h.01M130.6 322.3h.01M166.6 296.8h.01M146.3 128.3h.01M236.3 238.4h.01M190.6 101.6h.01M142.0 338.9h.01M143.3 325.6h.01M159.8 106.9h.01M177.3 108.9h.01M108.1 138.1h.01M161.5 150.8h.01M249.4 229.9h.01M250.2 237.1h.01M164.3 350.0h.01M182.0 150.6h.01M178.7 323.4h.01M122.1 257.2h.01M160.9 203.6h.01M164.8 292.7h.01M210.9 138.2h.01M224.3 236.2h.01M269.9 212.2h.01M197.1 244.0h.01M122.9 136.5h.01M145.0 209.0h.01M289.3 227.4h.01M178.5 192.6h.01M157.6 199.2h.01M162.6 165.0h.01M252.2 213.6h.01M107.5 244.1h.01M274.6 207.5h.01M169.2 154.3h.01M129.0 140.0h.01M256.5 225.8h.01M298.9 203.4h.01M196.9 105.6h.01M174.4 127.5h.01M209.4 293.8h.01M224.3 267.9h.01M155.1 146.2h.01M179.1 99.8h.01M198.0 213.2h.01M151.1 339.8h.01M284.6 218.3h.01M131.2 145.4h.01M261.3 229.4h.01M312.9 219.1h.01M185.5 261.8h.01M198.8 256.5h.01M155.2 261.9h.01M239.6 224.3h.01M189.9 319.2h.01M128.3 256.6h.01M154.4 154.2h.01M157.1 138.6h.01M153.3 118.0h.01M139.8 147.2h.01M0.4 173.7h.01M166.8 115.8h.01M157.1 254.4h.01M163.4 249.9h.01M142.9 160.2h.01M0.4 221.9h.01M279.9 128.7h.01M165.2 158.8h.01M178.2 259.4h.01M189.0 311.3h.01M144.7 142.3h.01M144.0 0.4h.01M108.8 145.3h.01M117.8 52.4h.01M178.4 275.8h.01M232.7 129.0h.01M278.4 197.6h.01M189.6 241.4h.01M171.2 222.7h.01M208.6 106.2h.01M164.7 109.9h.01M75.2 104.8h.01M198.3 262.6h.01M153.6 111.4h.01M245.6 225.1h.01M204.7 332.2h.01M152.3 209.7h.01M229.4 231.2h.01M174.6 330.2h.01M185.3 255.0h.01M191.1 212.3h.01M209.9 335.5h.01M273.7 201.5h.01M247.0 213.2h.01M150.4 160.5h.01M123.9 143.5h.01M177.0 0.4h.01M127.2 340.8h.01M149.9 325.2h.01M169.2 132.8h.01M147.1 239.3h.01M217.7 211.2h.01M170.6 242.0h.01M293.9 204.5h.01M129.1 249.3h.01M169.7 354.5h.01M280.0 142.7h.01M181.4 204.9h.01M198.7 96.5h.01M203.6 311.7h.01M203.3 110.9h.01M124.5 149.3h.01M152.9 131.6h.01M205.5 305.6h.01M358.6 194.5h.01M146.9 332.8h.01M150.3 139.1h.01M217.9 112.7h.01M164.6 323.3h.01M158.3 239.8h.01M271.8 196.6h.01M265.6 195.1h.01M138.3 209.9h.01M256.1 130.6h.01M183.2 317.1h.01M137.2 133.9h.01M118.2 138.6h.01M148.3 204.1h.01M212.4 243.1h.01M161.1 120.1h.01M110.5 187.8h.01M0.4 273.5h.01M224.9 137.4h.01M267.5 358.1h.01M185.3 194.9h.01M164.1 216.7h.01M212.7 236.3h.01M0.4 123.1h.01M205.3 211.8h.01M263.1 127.8h.01M260.4 120.6h.01M279.5 136.0h.01M170.0 314.1h.01M125.1 323.3h.01M258.0 162.3h.01M281.4 261.2h.01M265.3 217.4h.01M159.9 338.5h.01M276.5 212.2h.01M177.2 208.8h.01M143.4 226.0h.01M117.1 143.9h.01M112.8 141.0h.01M249.3 130.9h.01M281.2 214.8h.01M179.0 264.8h.01M171.8 322.6h.01M154.7 204.5h.01M230.7 238.1h.01M184.0 104.6h.01M118.4 205.8h.01M196.1 314.4h.01M204.8 238.7h.01M154.3 194.4h.01M147.5 252.3h.01M149.2 264.0h.01M142.0 251.2h.01M170.5 336.8h.01M154.3 332.4h.01M166.6 103.2h.01M211.3 261.9h.01M251.1 221.4h.01M163.7 222.9h.01M187.8 206.9h.01M275.3 147.9h.01M246.6 152.2h.01M157.7 247.0h.01M139.6 261.7h.01M291.6 242.5h.01M202.0 298.3h.01M111.5 0.4h.01M124.0 251.9h.01M272.7 129.8h.01M157.8 346.5h.01M209.6 328.9h.01M248.2 146.2h.01M162.1 287.1h.01M270.4 369.6h.01M181.9 331.7h.01M177.9 253.3h.01M269.6 122.0h.01M191.7 94.8h.01M230.2 224.3h.01M152.9 189.3h.01M139.6 244.6h.01M146.8 155.8h.01M273.7 115.9h.01M133.0 128.8h.01M163.8 256.4h.01M60.1 220.1h.01M150.6 430.5h.01M137.5 220.6h.01M261.8 221.7h.01M157.2 325.2h.01M235.5 227.8h.01M253.2 151.7h.01M128.3 152.8h.01M197.2 306.5h.01M244.6 235.3h.01M180.0 309.9h.01M207.2 124.5h.01M211.4 211.3h.01M200.4 250.5h.01M134.1 150.6h.01M191.2 125.0h.01M189.7 109.2h.01M118.9 248.2h.01M241.7 230.7h.01M260.2 135.5h.01M193.2 203.0h.01M117.2 280.9h.01M279.5 121.8h.01M160.3 208.7h.01M282.0 149.5h.01M122.9 316.3h.01M164.5 241.9h.01M210.5 0.4h.01M176.7 134.9h.01M269.3 154.0h.01M184.5 247.5h.01M182.9 128.2h.01M265.5 200.7h.01M168.6 344.3h.01M236.0 144.8h.01M194.9 208.0h.01M151.7 243.3h.01M238.6 218.8h.01M166.2 96.4h.01M144.5 263.3h.01M215.0 106.3h.01M173.1 96.5h.01M118.4 313.1h.01M136.9 249.4h.01M125.4 329.7h.01M136.4 325.1h.01M169.0 139.6h.01M269.3 205.2h.01M184.7 305.3h.01M133.4 245.8h.01M358.6 235.3h.01M139.0 127.4h.01M133.2 260.9h.01M157.4 317.9h.01M192.2 249.9h.01M184.6 135.5h.01M187.4 200.3h.01M140.5 153.6h.01M212.0 249.9h.01M243.4 149.1h.01M253.8 137.5h.01M133.2 253.9h.01M177.5 245.3h.01M197.7 139.4h.01M119.9 341.7h.01M152.1 249.8h.01M283.5 194.7h.01M184.5 325.8h.01M303.3 220.3h.01M253.9 145.2h.01M172.8 102.8h.01M147.7 149.0h.01M184.8 96.2h.01M210.0 300.6h.01M192.1 256.6h.01M278.0 154.8h.01M151.0 199.3h.01M169.8 121.6h.01M288.1 222.5h.01M125.2 245.3h.01M205.2 246.0h.01M209.2 99.0h.01M256.6 218.2h.01M150.4 280.5h.01M196.4 119.8h.01M80.3 0.4h.01M219.7 204.8h.01M277.8 0.4h.01M151.3 226.7h.01M181.1 198.9h.01M205.2 136.3h.01M286.3 155.2h.01M260.6 151.6h.01M273.3 139.6h.01M161.8 133.1h.01M274.4 109.2h.01M162.3 300.9h.01M244.5 0.4h.01M165.2 126.2h.01"/>
<path stroke="#1a1a1a" stroke-width="2.38" stroke-linecap="round" fill="none" d="M261.7 346.8h.01M247.5 162.6h.01M256.6 209.4h.01M265.4 250.4h.01M144.2 116.7h.01M258.5 268.9h.01M215.0 134.7h.01M195.6 89.8h.01M196.5 113.2h.01M114.4 283.6h.01M303.4 202.3h.01M254.1 85.6h.01M147.2 297.6h.01M91.9 294.3h.01M147.3 105.2h.01M291.3 255.4h.01M106.7 249.2h.01M286.4 252.6h.01M220.7 193.4h.01M279.1 234.9h.01M230.3 264.0h.01M227.0 304.4h.01M285.1 109.1h.01M212.7 272.4h.01M141.5 351.2h.01M216.4 321.9h.01M259.9 197.4h.01M176.0 73.1h.01M250.3 160.3h.01M173.7 300.7h.01M141.3 319.8h.01M93.3 273.3h.01M241.4 175.7h.01M295.5 191.4h.01M209.3 143.9h.01M254.9 292.5h.01M293.3 213.5h.01M187.1 277.6h.01M144.4 73.2h.01M248.9 198.4h.01M149.4 94.1h.01M260.5 253.9h.01M251.4 243.8h.01M220.1 132.7h.01M104.5 94.3h.01M253.7 272.4h.01M241.9 281.3h.01M251.6 268.4h.01M212.4 86.1h.01M221.5 284.8h.01M267.8 365.1h.01M116.7 253.2h.01M257.9 187.6h.01M115.0 211.0h.01M243.5 90.6h.01M156.7 101.7h.01M111.8 294.5h.01M223.6 209.6h.01M159.4 79.6h.01M103.3 106.0h.01M104.8 130.0h.01M291.9 198.7h.01M129.4 345.7h.01M160.5 71.0h.01M171.0 161.3h.01M201.6 131.3h.01M246.6 284.0h.01M226.1 130.8h.01M114.3 340.5h.01M176.9 186.4h.01M220.3 242.4h.01M101.4 243.8h.01M202.1 317.9h.01M275.1 189.5h.01M128.0 316.9h.01M141.2 102.4h.01M225.5 84.8h.01M199.6 125.4h.01M120.9 211.1h.01M262.4 67.4h.01M128.1 125.7h.01M118.0 132.3h.01M189.1 295.6h.01M218.4 273.4h.01M237.8 107.5h.01M144.5 96.9h.01M285.8 144.6h.01M218.0 230.7h.01M294.6 225.3h.01M107.5 60.6h.01M184.3 267.8h.01M162.8 75.9h.01M208.0 219.6h.01M267.4 337.2h.01M227.8 299.7h.01M136.0 173.7h.01M201.4 90.2h.01M254.6 199.7h.01M149.4 304.7h.01M298.6 242.1h.01M259.2 342.5h.01M206.8 322.5h.01M208.7 80.5h.01M290.2 249.0h.01M276.6 248.5h.01M189.8 62.0h.01M259.5 279.1h.01M259.9 247.3h.01M289.9 216.8h.01M104.4 299.2h.01M108.5 192.3h.01M300.0 252.1h.01M105.9 215.1h.01M116.7 335.6h.01M151.8 318.0h.01M254.3 248.6h.01M263.0 259.6h.01M171.4 204.3h.01M190.4 303.3h.01M185.7 77.1h.01M237.5 172.8h.01M290.6 134.5h.01M134.4 342.7h.01M204.1 343.3h.01M202.3 72.4h.01M139.0 300.2h.01M270.6 219.2h.01M250.8 280.8h.01M93.2 139.2h.01M184.7 337.5h.01M195.7 292.7h.01M141.4 109.2h.01M153.2 105.6h.01M123.4 168.5h.01M121.5 127.4h.01M241.3 122.9h.01M296.1 209.7h.01M232.4 117.1h.01M238.6 117.6h.01M173.9 64.1h.01M145.3 344.9h.01M202.1 269.7h.01M250.5 295.0h.01M134.5 299.2h.01M191.7 233.9h.01M99.9 308.9h.01M122.6 336.0h.01M153.7 79.2h.01M227.6 102.7h.01M245.0 207.0h.01M251.7 111.1h.01M236.7 165.1h.01M151.1 99.4h.01M95.7 243.8h.01M173.2 80.6h.01M255.4 278.6h.01M168.1 165.6h.01M189.3 187.2h.01M279.2 191.9h.01M87.0 140.9h.01M103.4 219.2h.01M309.1 201.9h.01M213.8 120.8h.01M145.1 78.1h.01M182.9 72.7h.01M190.0 337.3h.01M178.7 77.9h.01M301.7 209.6h.01M142.2 82.1h.01M97.2 260.7h.01M145.8 245.6h.01M97.3 104.8h.01M265.4 242.4h.01M120.7 164.6h.01M114.6 243.6h.01M171.6 91.4h.01M139.7 331.5h.01M308.0 196.4h.01M176.0 343.4h.01M287.2 121.6h.01M221.0 102.2h.01M239.6 169.0h.01M216.0 327.4h.01M128.2 158.1h.01M130.2 105.8h.01M177.0 220.0h.01M162.0 100.9h.01M222.8 90.1h.01M110.0 328.1h.01M156.7 300.3h.01M221.0 118.6h.01M127.2 349.8h.01M294.8 219.9h.01M183.8 190.0h.01M159.5 114.1h.01M195.9 334.1h.01M237.0 251.0h.01M158.8 294.0h.01M133.8 156.0h.01M266.0 169.1h.01M163.6 310.7h.01M145.0 257.7h.01M174.4 115.4h.01M182.1 82.1h.01M176.0 158.2h.01M224.3 309.1h.01M244.3 140.8h.01M142.0 313.5h.01M133.2 94.0h.01M245.4 101.4h.01M176.9 85.4h.01M118.1 114.3h.01M155.5 83.9h.01M178.5 354.1h.01M151.8 299.8h.01M273.2 243.0h.01M166.4 90.5h.01M268.5 257.1h.01M261.5 283.9h.01M211.1 73.9h.01M285.5 199.9h.01M287.1 138.9h.01M99.4 313.7h.01M70.1 231.9h.01M289.6 259.3h.01M78.2 232.4h.01M78.6 205.7h.01M234.7 400.6h.01M104.0 98.6h.01M130.2 112.9h.01M214.7 192.8h.01M207.2 274.5h.01M202.8 325.3h.01M225.5 259.7h.01M208.8 131.0h.01M276.0 217.4h.01M296.0 230.9h.01M232.1 288.5h.01M226.9 124.3h.01M255.8 170.0h.01M173.6 267.6h.01M196.7 355.3h.01M134.9 240.8h.01M153.3 275.2h.01M122.0 88.1h.01M134.6 293.4h.01M247.7 416.8h.01M291.1 143.0h.01M99.7 238.9h.01M172.8 234.7h.01M44.6 170.5h.01M239.7 102.5h.01M255.6 106.9h.01M243.6 258.9h.01M300.8 195.8h.01M308.6 211.9h.01M247.7 299.0h.01M235.2 422.0h.01M241.3 143.8h.01M142.3 87.4h.01M94.0 216.1h.01M224.9 253.7h.01M141.9 240.1h.01M261.7 95.7h.01M113.4 324.4h.01M200.7 346.6h.01M103.4 316.6h.01M304.1 214.8h.01M170.1 174.5h.01M184.7 67.0h.01M233.0 245.0h.01M113.3 134.5h.01M109.1 97.2h.01M279.7 242.1h.01M86.6 259.1h.01M218.5 317.1h.01M99.1 137.6h.01M220.3 82.3h.01M114.8 258.5h.01M251.1 194.2h.01M276.7 228.2h.01M135.5 101.3h.01M264.0 270.4h.01M206.2 86.1h.01M200.9 350.9h.01M203.0 102.2h.01M69.7 222.3h.01M147.2 351.9h.01M244.8 118.2h.01M243.9 419.6h.01M196.5 80.0h.01M73.5 235.8h.01M284.4 246.3h.01M214.6 79.8h.01M296.7 185.1h.01M258.8 88.6h.01M262.8 265.1h.01M152.2 293.9h.01M129.4 99.3h.01M240.1 246.3h.01M166.3 80.1h.01M187.9 348.9h.01M146.7 317.0h.01M241.8 112.4h.01M97.6 206.3h.01M92.2 289.3h.01M268.8 107.4h.01M224.6 293.3h.01M104.0 310.6h.01M184.7 353.2h.01M128.5 291.1h.01M238.5 256.4h.01M138.3 273.8h.01M111.4 214.6h.01M119.5 330.3h.01M226.7 242.4h.01M173.0 308.1h.01M265.4 190.2h.01M280.8 222.6h.01M122.3 299.0h.01M295.1 252.1h.01M132.6 224.9h.01M239.2 148.5h.01M238.4 284.7h.01M105.4 102.2h.01M275.8 101.9h.01M67.2 227.1h.01M215.6 99.1h.01M151.3 347.0h.01M231.1 108.2h.01M156.8 163.1h.01M147.0 174.1h.01M103.2 205.7h.01M94.1 134.0h.01M221.9 298.5h.01M289.0 231.6h.01M96.4 298.8h.01M289.2 148.8h.01M161.6 232.6h.01M108.9 208.9h.01M291.4 153.6h.01M262.0 107.3h.01M206.2 202.9h.01M255.6 240.0h.01M270.9 251.5h.01M153.7 61.3h.01M214.1 127.9h.01M243.3 287.3h.01M183.4 211.5h.01M116.3 298.8h.01M226.0 158.1h.01M146.9 89.8h.01M108.5 309.4h.01M75.0 208.1h.01M202.5 79.2h.01M140.1 295.2h.01M102.2 321.4h.01M218.7 94.2h.01M220.1 126.1h.01M129.1 334.9h.01M204.4 262.5h.01M125.9 131.6h.01M154.1 352.9h.01M226.5 288.3h.01M190.3 72.3h.01M89.6 286.0h.01M178.3 303.9h.01M89.5 217.7h.01M78.8 241.2h.01M252.7 90.4h.01M245.3 241.8h.01M237.3 289.8h.01M298.7 216.0h.01M196.8 322.3h.01M248.9 303.3h.01M144.9 164.6h.01M118.5 153.2h.01M101.4 249.7h.01M197.4 237.1h.01M248.4 114.3h.01M99.6 212.4h.01M282.7 228.9h.01M116.9 350.4h.01M210.6 311.3h.01M214.8 333.8h.01M99.6 295.4h.01M118.5 319.9h.01M285.6 116.0h.01M243.3 96.5h.01M247.1 290.7h.01M218.8 331.4h.01M253.0 164.9h.01M149.3 73.6h.01M297.2 258.3h.01M67.9 236.4h.01M80.1 236.9h.01M121.9 346.8h.01M279.9 203.4h.01M120.5 243.5h.01M154.0 69.9h.01M135.0 336.1h.01M210.4 191.2h.01M167.2 211.8h.01M293.0 164.6h.01M150.4 65.2h.01M250.5 286.2h.01M158.1 228.5h.01M234.0 122.6h.01M248.6 94.0h.01M202.9 143.1h.01M261.4 236.0h.01M147.5 188.6h.01M183.5 298.6h.01M170.8 75.8h.01M126.1 263.3h.01M148.8 83.9h.01M212.7 92.6h.01M179.4 58.6h.01M160.1 306.7h.01M131.6 83.9h.01M123.0 294.5h.01M248.6 253.0h.01M159.8 60.2h.01M239.0 418.3h.01M153.8 88.3h.01M246.8 247.6h.01M165.4 174.3h.01M255.4 95.1h.01M119.4 325.1h.01M230.9 158.5h.01M247.5 173.8h.01M241.8 212.2h.01M188.9 331.8h.01M273.6 237.9h.01M230.3 271.5h.01M115.3 308.3h.01M109.8 255.4h.01M111.1 333.8h.01M186.9 83.9h.01M126.4 224.1h.01M170.5 85.6h.01M94.8 284.6h.01M299.7 225.2h.01M246.5 278.8h.01M129.1 118.8h.01M200.4 337.6h.01M147.5 111.9h.01M131.6 329.1h.01M280.8 208.5h.01M136.9 116.0h.01M201.8 218.4h.01M92.9 280.2h.01M285.2 235.9h.01M270.9 227.2h.01M254.2 125.0h.01M133.1 161.6h.01M76.5 311.7h.01M237.5 97.4h.01M272.1 307.2h.01M242.2 275.3h.01M248.9 140.3h.01M105.4 64.4h.01M180.6 187.8h.01M190.7 78.5h.01M265.0 100.9h.01M171.8 294.7h.01M96.9 143.8h.01M121.1 201.1h.01M126.4 94.4h.01M205.3 338.5h.01M266.2 225.1h.01M244.4 135.7h.01M230.7 97.1h.01M314.0 205.0h.01M259.2 289.1h.01M190.1 192.6h.01M151.4 257.1h.01M231.5 424.5h.01M211.7 323.1h.01M177.8 91.8h.01M102.6 304.2h.01M251.3 100.0h.01M112.5 304.0h.01M137.9 226.3h.01M124.2 102.2h.01M218.8 261.1h.01M129.1 89.1h.01M112.8 318.5h.01M200.0 329.6h.01M182.4 114.4h.01M258.0 273.9h.01M215.6 255.8h.01M114.3 330.3h.01M269.8 320.0h.01M244.7 107.8h.01M280.1 113.4h.01M305.3 225.9h.01M296.7 237.8h.01M266.6 231.6h.01M189.8 116.3h.01M139.1 345.9h.01M206.1 93.2h.01M195.8 267.8h.01M190.5 67.0h.01M197.0 343.0h.01M178.0 121.4h.01M112.3 249.0h.01M94.8 309.1h.01M137.7 164.9h.01M252.3 414.9h.01M243.9 128.9h.01M194.3 339.4h.01M218.1 187.6h.01M285.2 132.7h.01M192.4 84.1h.01M94.0 303.7h.01M128.2 296.7h.01M223.9 330.4h.01M182.8 238.9h.01M136.3 87.8h.01M242.8 252.5h.01M163.8 180.4h.01M144.3 200.6h.01M122.6 156.1h.01M247.7 273.4h.01M249.7 105.4h.01M123.5 238.9h.01M123.8 121.6h.01M203.0 290.8h.01M215.9 312.2h.01M215.2 288.9h.01M167.1 62.7h.01M115.7 127.5h.01M94.2 210.7h.01M223.2 107.9h.01M192.2 353.1h.01M233.5 102.4h.01M194.8 328.7h.01M238.7 133.4h.01M238.6 138.8h.01M167.4 267.4h.01M193.3 197.8h.01M134.1 350.0h.01M290.5 186.3h.01M183.2 89.1h.01M140.7 205.2h.01M110.2 299.2h.01M123.6 115.2h.01M98.5 218.0h.01M213.1 306.3h.01M138.7 256.0h.01M238.2 127.3h.01M227.3 118.7h.01M269.2 326.5h.01M233.0 219.7h.01M87.4 269.5h.01M208.7 316.9h.01M257.9 158.4h.01M208.2 268.1h.01M119.5 262.3h.01M236.8 396.8h.01M251.3 276.3h.01M236.3 158.8h.01M195.3 298.9h.01M118.4 148.2h.01M293.6 263.3h.01M263.9 208.3h.01M170.4 109.4h.01M58.8 165.8h.01M233.5 140.1h.01M169.7 199.0h.01M150.4 123.3h.01M227.9 428.1h.01M134.5 214.0h.01M97.7 254.8h.01M247.8 166.5h.01M243.9 186.1h.01M164.8 85.4h.01M230.1 294.6h.01M262.8 275.4h.01M206.7 75.5h.01M287.8 127.4h.01M196.8 70.2h.01M147.5 194.7h.01M122.2 230.0h.01M257.6 113.7h.01M189.6 268.9h.01M66.0 218.4h.01M253.7 283.3h.01M170.3 36.3h.01M212.9 204.9h.01M104.4 135.1h.01M156.2 74.6h.01M224.3 96.9h.01M125.6 172.7h.01M154.4 93.0h.01M190.0 289.4h.01M226.7 203.9h.01M251.3 290.5h.01M259.2 203.8h.01M171.0 68.8h.01M221.2 313.3h.01M85.1 215.4h.01M90.2 299.6h.01M254.9 288.0h.01M313.6 213.6h.01M240.1 240.7h.01M130.3 301.8h.01M269.2 332.4h.01M55.6 169.7h.01M65.5 222.9h.01M180.9 348.3h.01M235.3 112.5h.01M291.4 159.4h.01M228.2 90.9h.01M84.2 209.0h.01M177.8 291.7h.01M103.9 210.0h.01M121.7 93.1h.01M267.8 237.1h.01M250.8 411.0h.01M226.8 112.7h.01M260.7 191.8h.01M238.1 271.5h.01M215.3 296.0h.01M160.9 91.6h.01M194.2 348.1h.01M244.5 171.1h.01M89.3 277.4h.01M157.3 65.9h.01M231.6 135.1h.01M173.9 349.9h.01M178.3 68.5h.01M144.1 301.3h.01M289.7 193.9h.01M159.9 85.9h.01M73.1 202.4h.01M107.6 315.6h.01M163.5 66.4h.01M217.8 87.2h.01M71.6 227.5h.01M91.2 158.4h.01M180.1 183.5h.01M180.3 63.3h.01M303.7 240.1h.01M255.9 233.1h.01M285.7 240.7h.01M98.6 303.8h.01M270.8 99.8h.01M85.7 240.1h.01M196.6 75.0h.01M131.5 313.3h.01M309.3 226.3h.01M199.3 84.6h.01M110.1 131.1h.01M144.8 293.1h.01M184.7 185.6h.01M110.2 240.3h.01M223.2 277.0h.01M262.9 402.1h.01M219.5 139.7h.01M166.4 71.9h.01M159.4 188.1h.01M185.0 121.4h.01M258.0 101.1h.01M156.8 311.5h.01M251.8 205.5h.01M158.2 96.2h.01M209.6 340.8h.01M272.7 232.6h.01M151.0 165.8h.01M239.8 422.7h.01M135.1 318.4h.01M266.5 353.4h.01M233.8 92.4h.01M199.2 201.1h.01M189.3 89.6h.01M255.4 192.8h.01M106.8 304.5h.01M112.5 313.0h.01M79.0 212.9h.01M129.5 242.2h.01M139.5 94.1h.01M259.8 242.0h.01M149.0 69.4h.01M243.1 180.6h.01M111.5 58.3h.01M118.8 120.7h.01M255.9 264.0h.01M136.7 81.8h.01M257.6 283.9h.01M112.8 205.4h.01M245.1 269.4h.01M138.0 159.6h.01M173.6 189.8h.01M90.3 144.4h.01M135.6 109.0h.01M99.3 131.8h.01M216.6 301.7h.01M204.1 118.2h.01M183.5 292.7h.01M252.6 119.1h.01M189.7 343.4h.01M115.8 200.4h.01M300.7 246.8h.01M233.5 282.9h.01M261.3 338.0h.01M134.5 122.2h.01M189.6 228.1h.01M216.7 267.0h.01M236.8 277.8h.01M274.4 223.0h.01M149.7 77.8h.01M270.3 191.8h.01M182.9 343.2h.01M260.9 213.7h.01"/>
<path stroke="#1a1a1a" stroke-width="2.86" stroke-linecap="round" fill="none" d="M100.1 274.6h.01M60.0 172.4h.01M157.4 39.1h.01M258.2 352.1h.01M112.2 351.0h.01M201.5 418.3h.01M221.3 63.4h.01M185.4 60.0h.01M61.3 232.8h.01M190.5 44.0h.01M140.1 308.9h.01M164.2 38.3h.01M239.6 162.3h.01M103.5 285.5h.01M273.0 266.4h.01M302.4 186.8h.01M201.0 363.0h.01M262.9 186.6h.01M216.1 414.0h.01M225.9 407.9h.01M214.9 142.2h.01M253.8 374.7h.01M118.7 108.5h.01M107.6 286.6h.01M218.3 59.2h.01M72.9 241.7h.01M106.1 333.5h.01M213.1 58.3h.01M96.3 100.2h.01M183.1 410.8h.01M97.2 291.0h.01M255.4 387.2h.01M151.8 41.0h.01M307.7 190.1h.01M161.2 43.3h.01M220.5 414.4h.01M142.3 231.2h.01M80.6 331.4h.01M177.8 237.6h.01M209.2 403.5h.01M209.5 408.4h.01M72.0 144.1h.01M108.7 66.9h.01M227.7 392.5h.01M155.5 174.5h.01M238.3 404.8h.01M272.5 278.3h.01M223.1 324.1h.01M252.7 379.2h.01M240.4 390.2h.01M116.3 65.9h.01M202.9 54.8h.01M123.3 51.0h.01M133.1 61.3h.01M241.9 264.7h.01M109.1 115.7h.01M185.8 50.5h.01M130.6 266.2h.01M284.5 257.5h.01M195.4 61.7h.01M206.3 353.2h.01M112.6 67.3h.01M262.4 352.0h.01M113.6 105.7h.01M243.0 344.6h.01M135.3 355.3h.01M238.4 318.9h.01M82.4 118.8h.01M209.6 53.7h.01M270.5 289.5h.01M259.3 365.7h.01M243.4 160.3h.01M116.9 85.8h.01M255.8 334.6h.01M279.7 256.1h.01M106.6 111.0h.01M282.9 102.1h.01M263.5 84.7h.01M109.8 338.1h.01M244.3 355.1h.01M107.5 321.5h.01M195.2 429.0h.01M207.9 348.0h.01M313.5 187.3h.01M146.8 55.9h.01M285.5 188.5h.01M226.8 340.7h.01M217.1 424.1h.01M218.6 419.3h.01M89.5 98.1h.01M254.3 341.5h.01M265.4 78.7h.01M235.5 56.4h.01M268.4 384.8h.01M100.3 101.9h.01M123.4 61.7h.01M118.6 102.9h.01M229.6 409.9h.01M168.1 360.4h.01M78.7 121.2h.01M95.7 123.7h.01M114.3 264.6h.01M72.3 115.0h.01M145.6 357.8h.01M258.6 73.5h.01M140.8 44.8h.01M309.5 216.7h.01M82.0 199.4h.01M264.5 318.6h.01M259.9 81.1h.01M274.8 261.1h.01M250.5 313.2h.01M184.4 358.3h.01M152.1 286.6h.01M234.8 327.4h.01M235.1 366.5h.01M253.0 370.3h.01M229.7 206.8h.01M230.3 57.6h.01M117.7 294.3h.01M93.7 128.8h.01M274.8 255.5h.01M238.7 373.9h.01M305.3 231.4h.01M77.0 140.9h.01M255.0 68.5h.01M99.3 286.7h.01M275.0 282.3h.01M255.1 77.1h.01M105.7 344.1h.01M109.9 343.0h.01M229.3 329.8h.01M97.9 223.1h.01M132.7 204.5h.01M80.1 125.1h.01M141.7 54.0h.01M215.1 45.9h.01M134.4 273.4h.01M228.3 359.5h.01M258.9 293.7h.01M275.3 95.2h.01M224.9 58.0h.01M170.0 421.8h.01M128.4 181.1h.01M131.8 52.2h.01M242.4 320.2h.01M118.6 303.3h.01M180.5 36.1h.01M246.9 349.3h.01M238.1 352.2h.01M228.7 309.5h.01M167.7 233.1h.01M143.9 59.5h.01M151.8 268.1h.01M189.9 54.6h.01M232.7 314.3h.01M119.1 76.6h.01M250.8 73.4h.01M81.1 327.1h.01M291.6 169.2h.01M92.3 102.2h.01M245.5 380.4h.01M93.9 373.8h.01M186.1 41.8h.01M145.0 411.8h.01M201.4 62.7h.01M92.7 189.1h.01M91.4 115.1h.01M214.0 404.0h.01M267.1 286.0h.01M226.8 334.8h.01M67.0 141.6h.01M104.4 119.8h.01M264.1 90.7h.01M75.1 123.7h.01M243.2 61.5h.01M118.6 216.2h.01M247.9 123.9h.01M186.1 222.7h.01M89.2 110.1h.01M228.7 414.8h.01M261.4 333.4h.01M269.0 94.0h.01M260.5 356.7h.01M121.3 172.5h.01M156.0 46.1h.01M308.3 207.0h.01M270.5 294.5h.01M92.3 106.8h.01M246.1 65.8h.01M91.9 260.6h.01M193.2 57.6h.01M162.4 176.6h.01M81.8 337.5h.01M161.9 268.4h.01M88.0 104.4h.01M249.2 388.4h.01M224.2 72.8h.01M88.9 211.5h.01M173.4 358.7h.01M234.8 382.9h.01M285.7 208.3h.01M212.8 398.4h.01M225.0 397.2h.01M230.1 397.6h.01M246.4 336.0h.01M248.6 355.3h.01M74.9 166.4h.01M249.3 339.4h.01M201.9 186.9h.01M202.8 283.9h.01M109.1 91.8h.01M208.7 57.8h.01M276.7 270.8h.01M228.6 141.7h.01M199.0 425.7h.01M227.5 422.6h.01M249.2 62.7h.01M90.6 235.9h.01M147.8 61.3h.01M89.2 246.5h.01M219.7 76.4h.01M131.3 76.9h.01M241.6 55.8h.01M210.5 45.0h.01M103.9 281.2h.01M163.3 55.9h.01M199.6 146.3h.01M268.3 278.4h.01M65.2 165.3h.01M249.5 362.6h.01M221.6 43.7h.01M109.8 102.0h.01M245.2 306.0h.01M229.4 210.3h.01M152.6 56.3h.01M146.5 416.8h.01M96.8 192.4h.01M204.4 39.9h.01M241.7 85.3h.01M219.3 68.6h.01M212.0 423.6h.01M250.3 68.0h.01M252.5 397.6h.01M257.1 369.4h.01M83.2 146.1h.01M145.6 42.3h.01M203.3 414.1h.01M67.9 241.2h.01M118.8 288.4h.01M229.5 47.7h.01M269.5 374.0h.01M236.9 315.2h.01M237.0 67.0h.01M239.1 76.9h.01M150.7 356.8h.01M99.8 127.2h.01M247.3 407.4h.01M164.1 356.8h.01M194.2 44.3h.01M85.9 131.8h.01M223.9 143.8h.01M105.7 294.3h.01M248.7 82.2h.01M91.5 171.3h.01M232.5 403.9h.01M219.6 47.1h.01M116.7 91.4h.01M245.8 359.7h.01M205.8 359.1h.01M84.9 233.4h.01M104.6 254.6h.01M217.9 343.0h.01M111.3 161.3h.01M222.7 422.8h.01M233.3 318.3h.01M133.5 199.0h.01M77.1 128.6h.01M99.0 282.4h.01M186.4 235.3h.01M231.9 304.7h.01M99.6 195.9h.01M184.3 54.8h.01M173.8 425.1h.01M136.5 265.7h.01M236.8 81.8h.01M142.1 267.6h.01M195.6 38.3h.01M94.3 96.6h.01M274.7 288.1h.01M230.1 81.6h.01M112.8 111.3h.01M99.5 70.0h.01M230.8 418.8h.01M94.5 88.7h.01M237.9 379.1h.01M256.4 347.7h.01M125.0 67.3h.01M128.0 162.6h.01M240.8 394.9h.01M70.5 135.0h.01M83.7 245.9h.01M68.4 286.9h.01M187.9 216.0h.01M268.6 263.3h.01M145.0 67.2h.01M109.0 261.5h.01M240.9 400.2h.01M137.2 313.5h.01M228.4 403.6h.01M245.6 365.6h.01M121.9 72.2h.01M216.1 282.1h.01M72.3 195.2h.01M120.0 82.5h.01M141.0 71.0h.01M240.8 308.3h.01M218.7 408.9h.01M247.5 373.1h.01M190.0 429.0h.01M225.5 247.4h.01M185.2 428.7h.01M170.1 183.1h.01M280.3 96.8h.01M175.9 41.3h.01M102.8 325.8h.01M119.0 62.6h.01M231.6 86.2h.01M241.8 67.6h.01M71.3 290.1h.01M225.7 68.1h.01M69.6 123.9h.01M245.7 392.8h.01M149.7 412.5h.01M135.1 49.6h.01M110.7 126.1h.01M157.2 268.1h.01M139.9 304.6h.01M104.5 189.7h.01M188.3 171.2h.01M244.3 386.8h.01M264.4 280.7h.01M242.8 376.1h.01M146.9 230.3h.01M233.4 299.8h.01M93.2 77.2h.01M219.8 291.9h.01M123.2 79.4h.01M122.5 290.9h.01M220.5 321.8h.01M145.1 306.5h.01M57.6 188.2h.01M122.0 266.3h.01M171.7 46.8h.01M224.7 78.4h.01M205.6 418.3h.01M103.0 259.6h.01M91.3 206.0h.01M141.6 168.1h.01M182.2 425.1h.01M168.6 271.9h.01M254.1 328.6h.01M271.6 285.2h.01M144.1 49.0h.01M134.8 309.6h.01M272.9 300.1h.01M80.4 133.4h.01M269.1 87.2h.01M255.6 361.9h.01M230.8 324.8h.01M91.9 120.2h.01M238.1 302.6h.01M152.8 416.5h.01M163.4 420.0h.01M233.9 408.1h.01M263.4 287.2h.01M273.9 89.5h.01M99.1 318.7h.01M98.4 89.2h.01M182.1 45.9h.01M61.8 224.7h.01M186.5 422.3h.01M121.1 352.0h.01M215.9 73.1h.01M82.5 138.8h.01M62.3 158.8h.01M248.3 344.1h.01M251.0 169.5h.01M154.6 306.4h.01M127.9 61.7h.01M170.7 169.4h.01M184.5 37.1h.01M124.7 108.9h.01M242.3 73.4h.01M242.1 408.4h.01M243.4 80.1h.01M246.3 71.3h.01M230.9 361.7h.01M205.1 50.5h.01M231.1 356.8h.01M189.0 147.5h.01M178.1 54.1h.01M159.4 354.7h.01M93.0 222.6h.01M265.9 341.5h.01M96.8 108.7h.01M279.7 187.3h.01M224.2 401.8h.01M177.7 409.5h.01M170.5 41.0h.01M115.5 80.1h.01M227.5 318.2h.01M188.5 36.7h.01M268.1 274.2h.01M252.5 337.0h.01M167.2 177.7h.01M313.9 209.5h.01M145.9 310.8h.01M218.8 50.9h.01M251.7 346.8h.01M205.0 58.9h.01M66.9 135.6h.01M113.9 122.9h.01M301.9 234.8h.01M237.0 311.7h.01M264.7 323.6h.01M230.7 320.7h.01M260.9 398.1h.01M114.1 61.7h.01M78.2 145.1h.01M136.2 45.1h.01M213.8 418.3h.01M166.2 187.4h.01M167.4 51.4h.01M238.0 51.6h.01M207.1 423.1h.01M112.6 196.1h.01M95.6 116.1h.01M104.1 115.2h.01M71.7 139.1h.01M197.2 222.1h.01M82.6 162.6h.01M258.8 406.3h.01M103.5 195.4h.01M87.1 265.0h.01M261.5 76.0h.01M206.3 44.5h.01M128.9 176.1h.01M225.3 45.7h.01M234.0 77.4h.01M242.9 351.3h.01M216.4 398.5h.01M67.5 152.6h.01M246.0 412.1h.01M180.9 41.1h.01M234.1 393.4h.01M84.6 111.1h.01M82.7 128.6h.01M253.4 305.0h.01M233.4 168.6h.01M146.4 178.5h.01M249.5 258.6h.01M155.3 359.3h.01M249.0 368.5h.01M194.2 414.2h.01M224.3 412.4h.01M109.4 234.6h.01M87.5 149.3h.01M214.0 317.1h.01M131.0 47.1h.01M129.0 170.2h.01M256.1 356.6h.01M113.4 95.0h.01M195.4 422.9h.01M173.7 58.7h.01M263.5 364.0h.01M196.3 65.9h.01M181.1 361.9h.01M99.2 93.7h.01M105.4 338.9h.01M125.4 202.2h.01M105.0 265.4h.01M125.6 303.5h.01M230.4 337.8h.01M212.3 278.6h.01M254.4 254.2h.01M253.5 365.4h.01M106.2 327.6h.01M140.0 76.4h.01M139.8 58.0h.01M118.2 168.9h.01M295.2 246.8h.01M175.8 287.3h.01M222.2 335.3h.01M101.5 110.0h.01M124.9 353.7h.01M230.9 386.5h.01M113.8 117.6h.01M137.2 72.0h.01M211.0 413.1h.01M179.4 414.7h.01M93.3 266.7h.01M86.1 354.0h.01M127.6 50.6h.01M209.1 399.5h.01M135.4 55.7h.01M236.4 72.0h.01M158.6 176.8h.01M101.0 87.2h.01M266.2 349.5h.01M98.8 119.2h.01M109.8 267.7h.01M108.5 107.0h.01M62.8 220.0h.01M210.9 428.8h.01M84.2 194.6h.01M137.4 61.6h.01M238.4 369.2h.01M202.1 422.9h.01M176.1 36.8h.01M157.7 53.4h.01M248.0 77.1h.01M72.3 127.2h.01M220.5 326.9h.01M277.8 265.8h.01M116.7 231.8h.01M172.7 52.4h.01M109.8 347.7h.01M231.7 62.7h.01M138.5 237.0h.01M65.2 231.6h.01M87.8 281.9h.01M125.7 74.8h.01M258.1 330.0h.01M130.4 236.7h.01M98.6 328.8h.01M212.1 223.4h.01M262.6 292.0h.01M96.9 148.8h.01M221.4 54.8h.01M172.0 208.6h.01M227.8 213.6h.01M243.1 370.9h.01M206.6 186.7h.01M251.6 174.1h.01M189.3 220.3h.01M241.3 291.8h.01M98.8 324.4h.01M85.1 100.7h.01M244.9 340.8h.01M206.1 428.3h.01M249.7 333.2h.01M236.4 87.2h.01M266.6 345.3h.01M257.2 395.1h.01M235.8 388.2h.01M126.0 310.4h.01M232.6 310.2h.01M115.2 345.9h.01M223.9 50.3h.01M84.5 123.7h.01M209.5 418.2h.01M275.3 160.3h.01M132.3 172.5h.01M212.2 68.3h.01M263.7 160.0h.01M200.7 39.3h.01M214.7 350.6h.01M235.6 267.2h.01M234.8 294.4h.01M258.1 324.8h.01M74.1 223.7h.01M239.0 91.9h.01M135.5 77.0h.01M177.1 180.0h.01M227.6 53.0h.01M125.6 84.5h.01M214.1 346.2h.01M197.9 42.6h.01M112.5 88.7h.01M84.4 346.9h.01M187.9 410.1h.01M268.0 303.9h.01M207.1 69.4h.01M215.7 64.2h.01M109.6 290.4h.01M254.4 81.2h.01M171.3 216.7h.01M101.6 123.3h.01M138.9 50.5h.01M215.0 198.8h.01M241.6 414.3h.01M227.4 363.6h.01M99.8 114.0h.01M133.5 71.8h.01M217.6 42.1h.01M240.1 347.6h.01M269.1 269.3h.01M243.4 165.6h.01M113.9 191.1h.01M215.5 54.5h.01M214.7 339.1h.01M69.8 165.7h.01M218.6 308.0h.01M209.2 49.2h.01M167.1 307.0h.01M268.0 390.4h.01M60.1 207.4h.01M216.5 429.0h.01M197.2 287.1h.01M196.8 188.1h.01M162.0 49.3h.01M223.0 343.0h.01M86.8 115.3h.01M252.6 384.0h.01M258.8 374.4h.01M290.1 208.5h.01M226.4 163.1h.01M145.7 286.3h.01M99.9 97.3h.01M77.1 246.1h.01M212.8 146.8h.01M248.7 377.1h.01M305.3 181.3h.01M101.1 336.9h.01M121.8 307.3h.01M246.8 57.4h.01M196.9 53.4h.01M205.9 192.4h.01M274.2 293.5h.01M128.9 71.4h.01M151.0 311.2h.01M313.8 193.5h.01M299.3 180.3h.01M129.9 56.5h.01M246.5 398.0h.01M202.0 45.2h.01M244.5 403.4h.01M234.1 361.4h.01M255.8 296.5h.01M189.9 357.7h.01M175.6 202.3h.01M191.4 418.7h.01M66.8 281.9h.01M153.0 50.7h.01M114.3 99.7h.01M241.8 314.4h.01M107.8 72.9h.01M82.6 203.7h.01M245.8 311.3h.01M129.9 307.5h.01M241.6 366.0h.01M271.5 78.8h.01M87.4 273.5h.01M230.0 277.1h.01M272.8 273.0h.01M263.0 360.5h.01M269.5 246.1h.01M278.7 90.2h.01M77.1 199.6h.01M76.7 195.7h.01M88.9 134.9h.01M141.6 63.5h.01M220.0 338.7h.01M219.1 402.7h.01M61.5 188.2h.01M248.4 383.1h.01M256.5 401.7h.01M120.4 67.3h.01M226.0 63.0h.01M179.3 50.1h.01M201.5 429.4h.01M142.5 179.1h.01M308.5 221.2h.01M125.1 56.3h.01M226.5 326.1h.01M218.2 236.6h.01M237.5 61.8h.01M99.9 265.5h.01M261.6 370.2h.01M213.8 50.1h.01M222.1 406.7h.01M279.8 106.2h.01M257.3 380.7h.01M224.5 418.0h.01M178.3 358.9h.01M134.4 236.3h.01M255.9 259.2h.01M189.2 413.8h.01M236.4 261.6h.01M252.0 309.1h.01M229.1 76.7h.01M253.1 300.1h.01M246.1 316.9h.01M111.6 80.3h.01M72.7 149.0h.01M266.5 369.9h.01M240.3 356.8h.01M235.4 416.4h.01M104.3 84.7h.01M61.9 214.5h.01M245.5 202.0h.01M223.2 200.6h.01M87.2 120.1h.01M155.8 412.1h.01M105.9 88.7h.01M230.6 72.3h.01M76.5 136.3h.01M134.9 305.1h.01M201.1 49.9h.01M269.0 282.2h.01M231.1 250.9h.01M120.1 224.7h.01M226.0 321.6h.01M232.1 256.8h.01M102.3 90.8h.01M238.8 296.8h.01M114.9 74.9h.01M148.3 51.4h.01M102.8 270.6h.01M107.1 197.2h.01M251.6 392.7h.01M108.1 80.1h.01M162.2 194.3h.01M235.3 356.1h.01M169.7 190.8h.01M276.4 276.4h.01M179.2 429.3h.01M210.9 344.1h.01M267.2 309.7h.01M159.6 416.0h.01M130.1 66.6h.01M110.8 76.1h.01M291.7 176.4h.01M231.6 67.8h.01M61.8 228.5h.01M75.9 163.5h.01M168.5 57.4h.01M221.8 304.0h.01M264.3 356.4h.01M135.0 66.8h.01M266.0 377.1h.01M258.7 390.6h.01M174.6 171.9h.01M128.1 79.8h.01M107.8 202.4h.01M70.9 296.9h.01M94.4 111.8h.01M233.4 412.8h.01M242.6 301.0h.01M194.4 218.0h.01M254.8 72.3h.01M109.0 120.9h.01M259.4 361.1h.01M220.0 396.5h.01M209.5 286.4h.01M191.5 39.1h.01M166.5 45.0h.01M141.3 172.8h.01M211.1 62.6h.01M185.6 416.6h.01M247.4 87.2h.01M262.3 327.5h.01M118.8 239.4h.01M190.7 424.3h.01M222.4 428.3h.01M196.7 182.7h.01M239.6 384.9h.01M75.9 228.2h.01M258.4 64.7h.01M213.2 41.5h.01M291.3 236.1h.01M244.4 295.6h.01M150.9 177.6h.01M207.0 63.8h.01M91.7 254.5h.01M235.3 322.2h.01M236.0 307.0h.01M165.9 170.0h.01M176.6 46.0h.01M128.7 206.9h.01M251.9 358.7h.01M95.7 317.2h.01M223.0 393.2h.01M134.3 191.1h.01M176.4 404.8h.01M248.8 264.1h.01M101.0 278.7h.01M192.7 188.2h.01M230.1 164.8h.01M112.8 84.4h.01M176.3 197.7h.01M270.5 314.0h.01M181.9 419.8h.01M129.7 201.9h.01M187.4 46.8h.01M97.8 270.5h.01M167.3 194.4h.01M90.0 305.4h.01M256.0 410.5h.01M123.7 161.4h.01M314.2 199.4h.01M95.2 249.3h.01M198.9 413.9h.01M258.1 320.1h.01M102.1 331.6h.01M74.0 132.0h.01M208.8 40.0h.01M202.4 67.1h.01M241.5 381.0h.01M287.0 263.6h.01M115.9 162.6h.01M199.3 279.4h.01M197.1 418.7h.01M210.9 353.1h.01M231.1 390.4h.01M196.1 150.3h.01M238.5 324.7h.01M119.5 58.6h.01M192.4 50.0h.01M193.7 273.1h.01M177.9 297.4h.01M265.3 331.0h.01M133.3 178.5h.01M171.9 179.1h.01M194.7 145.1h.01M194.0 277.8h.01M139.6 67.2h.01M119.4 97.6h.01M173.9 411.7h.01M252.3 352.1h.01M143.3 191.5h.01M129.8 354.1h.01M108.4 221.7h.01M103.4 290.0h.01M98.5 156.5h.01M238.1 363.8h.01M232.7 352.1h.01M124.4 207.1h.01M252.2 59.8h.01M252.6 406.2h.01M270.4 379.5h.01M199.3 58.2h.01M281.2 251.3h.01M112.5 150.7h.01M149.3 46.0h.01M185.5 182.9h.01M89.3 126.2h.01M250.2 402.3h.01M63.0 169.5h.01M197.1 47.9h.01M227.3 282.3h.01M65.7 200.1h.01M288.3 203.8h.01M106.2 125.3h.01M72.5 162.3h.01M238.0 410.8h.01M140.3 356.3h.01"/>
<path stroke="#1a1a1a" stroke-width="3.33" stroke-linecap="round" fill="none" d="M223.6 154.5h.01M219.2 376.2h.01M215.2 171.6h.01M174.0 429.4h.01M81.6 273.6h.01M232.0 146.3h.01M66.5 276.9h.01M223.6 363.6h.01M63.9 245.5h.01M112.0 71.3h.01M146.7 269.2h.01M95.4 196.3h.01M209.8 392.7h.01M232.9 51.2h.01M90.7 185.5h.01M286.2 181.9h.01M151.5 232.1h.01M88.4 342.4h.01M75.3 111.6h.01M219.4 358.4h.01M137.0 360.3h.01M68.7 129.8h.01M200.9 399.2h.01M91.2 241.1h.01M104.2 201.0h.01M111.1 200.1h.01M118.1 355.4h.01M199.3 367.1h.01M83.5 96.5h.01M132.6 360.8h.01M228.6 352.0h.01M85.7 297.9h.01M114.9 289.7h.01M255.5 174.6h.01M234.5 373.2h.01M218.1 181.6h.01M67.9 182.8h.01M219.7 145.4h.01M97.1 80.3h.01M139.2 176.3h.01M185.5 363.8h.01M271.4 187.4h.01M176.1 363.9h.01M234.9 331.6h.01M79.9 283.2h.01M96.0 201.0h.01M225.7 369.6h.01M263.7 367.2h.01M83.3 256.4h.01M237.8 333.5h.01M216.3 147.1h.01M223.0 318.0h.01M233.4 211.3h.01M130.9 166.0h.01M87.7 192.4h.01M212.0 377.8h.01M165.1 412.9h.01M199.5 387.3h.01M224.4 379.9h.01M85.7 338.7h.01M79.4 315.6h.01M239.9 335.6h.01M206.1 406.5h.01M51.0 168.0h.01M216.4 354.8h.01M258.3 308.6h.01M84.0 322.8h.01M231.3 333.5h.01M163.8 362.3h.01M246.4 178.3h.01M100.5 189.6h.01M78.2 260.1h.01M76.4 302.1h.01M63.3 184.4h.01M220.7 381.2h.01M287.5 212.3h.01M147.7 184.9h.01M84.5 326.4h.01M89.0 189.0h.01M113.5 233.7h.01M148.4 407.5h.01M86.9 202.3h.01M254.8 315.1h.01M83.6 106.2h.01M185.8 173.5h.01M189.4 274.0h.01M114.2 159.0h.01M123.4 197.0h.01M78.2 150.1h.01M197.6 401.7h.01M101.7 172.9h.01M203.6 388.2h.01M79.1 255.6h.01M138.9 270.1h.01M199.3 196.5h.01M214.4 368.2h.01M183.1 177.3h.01M212.9 393.1h.01M226.8 386.8h.01M139.2 192.9h.01M262.9 302.1h.01M237.3 343.5h.01M206.4 372.6h.01M83.5 281.9h.01M249.6 329.7h.01M92.6 322.0h.01M79.8 310.1h.01M80.4 321.1h.01M146.4 169.3h.01M195.4 165.6h.01M215.4 359.1h.01M170.9 186.6h.01M86.1 160.9h.01M159.0 362.0h.01M81.1 250.8h.01M291.4 180.7h.01M237.3 359.7h.01M130.6 194.8h.01M207.8 390.6h.01M105.9 76.6h.01M63.0 236.5h.01M202.1 182.2h.01M180.1 216.3h.01M97.5 333.7h.01M239.9 193.1h.01M141.8 196.8h.01M190.2 389.3h.01M93.4 314.0h.01M161.6 410.9h.01M263.2 307.3h.01M96.2 85.0h.01M193.4 178.6h.01M200.6 391.6h.01M174.4 272.4h.01M225.3 195.2h.01M91.5 196.5h.01M100.5 201.1h.01M259.7 69.7h.01M235.0 337.6h.01M104.7 170.8h.01M214.1 409.0h.01M163.3 272.1h.01M199.0 405.7h.01M130.9 357.9h.01M220.3 352.0h.01M212.6 371.6h.01M250.4 156.5h.01M210.2 374.5h.01M195.2 175.2h.01M83.2 309.8h.01M102.9 73.1h.01M110.5 355.3h.01M118.6 397.6h.01M264.5 381.6h.01M65.7 271.9h.01M264.4 394.6h.01M59.3 201.6h.01M227.7 168.0h.01M91.9 192.8h.01M221.5 378.0h.01M120.4 54.9h.01M71.8 119.9h.01M83.8 277.3h.01M235.6 200.7h.01M201.1 191.9h.01M111.8 391.7h.01M171.7 363.1h.01M213.9 375.1h.01M91.7 348.1h.01M138.0 170.2h.01M216.5 376.0h.01M258.3 166.3h.01M85.1 190.3h.01M195.1 370.4h.01M192.7 409.7h.01M208.7 170.7h.01M224.0 389.3h.01M263.2 313.2h.01M168.9 408.9h.01M251.2 318.0h.01M80.0 102.8h.01M67.9 192.1h.01M216.6 386.8h.01M245.2 328.5h.01M106.6 271.8h.01M254.2 64.1h.01M136.5 195.9h.01M89.3 315.9h.01M246.5 325.0h.01M167.0 181.7h.01M257.7 312.3h.01M152.9 420.4h.01M113.2 218.9h.01M118.0 196.5h.01M216.7 364.1h.01M222.5 370.2h.01M69.4 272.0h.01M202.8 406.7h.01M178.8 176.4h.01M117.4 359.5h.01M188.2 175.6h.01M274.6 83.9h.01M219.2 390.8h.01M116.9 70.8h.01M126.7 236.8h.01M258.1 300.3h.01M226.8 382.3h.01M183.1 164.3h.01M142.6 361.0h.01M243.9 331.8h.01M194.7 360.9h.01M167.3 417.9h.01M198.1 274.6h.01M61.8 192.8h.01M114.4 354.4h.01M75.0 291.8h.01M94.7 330.9h.01M237.3 215.1h.01M121.7 357.3h.01M196.4 398.9h.01M79.1 286.8h.01M209.4 362.3h.01M83.5 334.1h.01M219.8 362.3h.01M156.3 185.0h.01M232.5 369.7h.01M86.3 88.0h.01M180.5 405.9h.01M104.4 80.6h.01M107.1 352.4h.01M200.4 174.1h.01M201.0 395.6h.01M91.2 92.1h.01M193.7 193.1h.01M76.3 117.5h.01M71.1 214.6h.01M95.5 162.0h.01M140.1 287.2h.01M163.4 425.5h.01M239.0 181.3h.01M70.6 282.1h.01M202.3 369.4h.01M70.2 277.2h.01M190.6 156.6h.01M217.8 162.2h.01M205.4 380.6h.01M215.3 372.6h.01M74.5 213.0h.01M190.0 363.5h.01M235.4 150.3h.01M66.9 147.4h.01M253.3 187.5h.01M264.4 71.7h.01M97.9 170.3h.01M207.5 232.1h.01M220.8 158.9h.01M180.4 161.3h.01M72.3 286.5h.01M258.2 304.5h.01M232.4 204.3h.01M219.7 198.3h.01M266.4 290.5h.01M224.1 347.1h.01M267.5 299.1h.01M228.5 367.5h.01M108.6 85.1h.01M80.5 194.7h.01M47.7 171.5h.01M107.4 152.0h.01M205.6 396.3h.01M225.1 189.5h.01M186.6 406.4h.01M160.6 180.9h.01M263.5 388.5h.01M185.7 180.4h.01M92.6 149.8h.01M114.3 357.9h.01M93.0 81.9h.01M105.2 348.7h.01M250.7 325.2h.01M108.6 183.3h.01M229.3 346.6h.01M81.2 190.8h.01M107.6 282.9h.01M62.9 240.8h.01M152.8 408.6h.01M266.1 361.2h.01M126.4 165.7h.01M46.5 178.6h.01M239.3 152.7h.01M190.1 179.1h.01M70.2 198.4h.01M140.1 407.8h.01M149.6 361.8h.01M112.9 237.6h.01M88.7 327.5h.01M75.1 191.8h.01M201.6 384.4h.01M98.9 341.2h.01M66.3 213.7h.01M93.4 169.2h.01M218.0 372.5h.01M213.3 362.8h.01M187.1 189.8h.01M108.4 389.2h.01M230.1 374.9h.01M130.1 229.6h.01M86.7 307.2h.01M202.3 355.7h.01M201.7 166.9h.01M72.8 154.0h.01M229.7 171.8h.01M249.3 190.4h.01M92.0 369.6h.01M113.3 224.2h.01M88.8 323.3h.01M95.2 236.9h.01M91.5 351.3h.01M120.0 360.8h.01M117.3 276.2h.01M90.1 355.1h.01M228.8 371.4h.01M94.1 326.2h.01M73.5 298.8h.01M69.9 293.0h.01M79.5 98.2h.01M82.9 92.1h.01M188.6 392.6h.01M110.1 63.1h.01M220.8 387.2h.01M202.3 170.2h.01M125.8 273.2h.01M76.9 219.9h.01M140.4 413.2h.01M131.3 218.7h.01M96.6 277.5h.01M78.4 306.1h.01M192.6 392.5h.01M242.4 324.9h.01M206.1 368.3h.01M158.3 421.8h.01M176.7 419.8h.01M86.4 251.7h.01M88.8 83.0h.01M78.7 279.1h.01M134.2 168.5h.01M209.5 396.0h.01M210.5 366.4h.01M193.3 169.2h.01M185.1 167.3h.01M114.6 155.5h.01M225.5 377.0h.01M58.0 195.1h.01M97.9 73.4h.01M86.1 311.9h.01M222.4 374.7h.01M74.0 256.2h.01M85.9 302.3h.01M123.2 401.4h.01M84.3 287.4h.01M216.3 382.8h.01M188.5 167.6h.01M116.1 237.1h.01M87.4 93.3h.01M90.0 310.9h.01M178.1 423.8h.01M90.8 330.2h.01M259.8 316.4h.01M97.4 76.7h.01M184.4 273.0h.01M100.3 83.1h.01M240.0 329.6h.01M211.1 357.8h.01M225.5 373.5h.01M195.7 396.2h.01M144.1 171.6h.01M173.4 417.0h.01M95.5 92.5h.01M81.7 229.0h.01M233.4 162.2h.01M202.0 402.7h.01M75.2 173.0h.01M114.0 270.1h.01M79.3 160.0h.01M214.9 378.3h.01M83.1 152.4h.01M201.1 410.0h.01M239.8 339.8h.01M169.5 414.0h.01M267.9 74.8h.01M57.7 183.0h.01M229.5 315.2h.01M55.5 175.5h.01M67.3 170.0h.01M205.5 384.2h.01M74.7 306.9h.01M220.5 366.5h.01M78.8 264.8h.01M209.6 370.4h.01M261.3 378.1h.01M114.9 394.8h.01M191.3 165.2h.01M88.3 346.5h.01M87.3 197.2h.01M73.2 249.1h.01M87.3 350.4h.01M205.4 364.4h.01M181.2 365.2h.01M77.7 297.7h.01M220.8 372.3h.01M66.0 195.1h.01M226.5 355.7h.01M151.8 236.4h.01M219.0 347.6h.01M112.0 286.6h.01M216.3 393.1h.01M227.6 147.3h.01M197.2 193.3h.01M198.7 168.9h.01M157.9 272.5h.01M266.1 294.8h.01M218.2 368.8h.01M263.9 373.4h.01M125.9 269.0h.01M243.0 335.9h.01M202.8 277.1h.01M230.6 382.2h.01M229.2 378.6h.01M155.9 233.3h.01M217.6 379.5h.01M213.2 381.0h.01M76.7 274.6h.01M224.0 359.6h.01M223.0 149.1h.01M68.9 178.1h.01M232.5 342.5h.01M253.6 322.1h.01M197.2 390.3h.01M199.5 359.3h.01M102.2 345.9h.01M104.9 386.1h.01M81.1 290.7h.01M59.9 177.3h.01M222.3 355.7h.01M210.2 148.7h.01M180.5 157.3h.01M231.3 150.7h.01M115.3 56.9h.01M144.5 407.4h.01M225.7 313.8h.01M237.3 184.6h.01M101.4 77.9h.01M181.5 180.5h.01M85.7 292.8h.01M82.9 315.5h.01M179.5 270.6h.01M234.6 347.9h.01M211.4 388.1h.01M102.8 67.7h.01M76.2 252.1h.01M94.6 156.9h.01M103.1 148.6h.01M191.4 368.8h.01M106.3 69.4h.01M128.1 361.7h.01M138.8 188.3h.01M69.1 246.5h.01M172.4 405.5h.01M91.0 86.8h.01M146.2 274.1h.01M136.7 203.2h.01M172.9 194.9h.01M86.5 187.1h.01M68.9 210.6h.01M194.7 365.8h.01M267.4 187.2h.01M168.6 427.2h.01M102.2 341.5h.01M242.0 361.2h.01M243.8 191.1h.01M167.0 203.8h.01M219.5 384.4h.01M82.7 262.6h.01M77.3 268.9h.01M273.6 184.7h.01M91.3 200.9h.01M141.0 364.2h.01M72.8 302.5h.01M214.5 389.3h.01M117.1 221.3h.01M102.1 383.1h.01M196.7 393.4h.01M193.3 157.6h.01M117.8 268.1h.01M78.0 190.5h.01M206.5 412.4h.01M96.2 321.7h.01M234.0 377.8h.01M99.6 234.5h.01M70.7 206.9h.01M220.4 217.7h.01M224.9 351.2h.01M262.0 297.1h.01M205.4 400.9h.01M77.7 107.3h.01M224.3 366.9h.01M212.3 155.0h.01M217.1 221.4h.01M215.6 153.7h.01M247.6 321.3h.01M161.7 172.0h.01M173.2 165.8h.01M72.4 181.5h.01M153.4 271.6h.01M195.1 388.0h.01M268.7 82.3h.01M277.5 184.2h.01M180.7 165.7h.01M205.8 147.3h.01M231.5 365.3h.01M209.7 198.2h.01M115.8 166.2h.01M80.2 110.3h.01M74.8 295.1h.01M174.4 183.4h.01M125.9 357.8h.01M207.2 387.4h.01M212.7 384.4h.01M83.9 342.5h.01M121.3 274.3h.01M260.6 384.6h.01M85.8 319.4h.01M81.5 297.1h.01M76.1 288.6h.01M80.5 114.9h.01M91.7 334.5h.01M99.3 175.0h.01M223.5 384.0h.01M65.4 261.4h.01"/>
<path stroke="#1a1a1a" stroke-width="3.92" stroke-linecap="round" fill="none" d="M162.6 383.9h.01M117.1 362.9h.01M230.0 216.5h.01M97.9 166.6h.01M99.4 226.7h.01M108.6 230.4h.01M69.5 217.0h.01M154.5 391.0h.01M253.7 158.8h.01M210.8 185.5h.01M197.6 378.6h.01M212.6 230.6h.01M183.2 369.0h.01M95.2 226.9h.01M123.6 376.9h.01M264.8 176.6h.01M70.2 174.0h.01M96.9 371.4h.01M178.0 400.5h.01M154.4 386.4h.01M201.5 381.0h.01M70.8 185.6h.01M173.8 377.6h.01M219.6 176.1h.01M231.8 200.7h.01M183.9 375.7h.01M280.6 180.6h.01M181.5 390.9h.01M87.5 334.4h.01M203.0 229.9h.01M89.9 153.5h.01M133.2 185.0h.01M105.1 181.6h.01M83.2 178.6h.01M212.0 164.5h.01M140.0 403.5h.01M134.8 382.5h.01M110.1 378.1h.01M120.6 393.9h.01M66.1 267.0h.01M131.6 390.4h.01M107.7 161.0h.01M86.7 156.0h.01M108.4 172.9h.01M140.4 399.6h.01M101.6 358.6h.01M163.9 405.9h.01M166.9 373.6h.01M274.6 178.8h.01M98.8 355.4h.01M274.7 170.0h.01M146.4 377.9h.01M104.5 275.9h.01M103.7 376.3h.01M129.2 382.5h.01M129.4 286.9h.01M174.5 400.6h.01M79.0 187.0h.01M99.9 185.6h.01M97.0 178.1h.01M285.1 172.1h.01M89.5 338.5h.01M118.3 387.8h.01M82.4 166.3h.01M117.6 272.6h.01M197.6 382.9h.01M269.5 184.8h.01M132.2 232.9h.01M135.9 385.7h.01M173.9 396.8h.01M160.5 367.1h.01M236.6 207.1h.01M124.7 187.1h.01M117.7 392.9h.01M152.6 364.9h.01M160.6 389.4h.01M174.7 389.3h.01M227.8 220.1h.01M282.8 174.6h.01M205.4 172.8h.01M119.9 389.8h.01M196.5 158.5h.01M232.7 191.4h.01M126.3 372.3h.01M191.9 223.6h.01M105.0 168.0h.01M176.6 231.9h.01M156.6 396.6h.01M199.5 151.9h.01M111.8 174.0h.01M139.5 371.7h.01M115.5 390.8h.01M79.7 176.5h.01M192.0 396.0h.01M89.8 231.9h.01M136.4 286.3h.01M190.0 401.0h.01M127.2 368.6h.01M96.9 181.5h.01M195.6 404.5h.01M127.6 397.2h.01M218.7 150.9h.01M127.4 379.5h.01M149.7 273.2h.01M118.9 191.2h.01M73.2 188.9h.01M100.5 350.2h.01M123.5 374.2h.01M149.7 170.3h.01M147.3 181.7h.01M240.4 207.6h.01M189.0 398.7h.01M115.3 382.6h.01M116.4 188.4h.01M202.0 164.0h.01M224.5 224.5h.01M127.7 198.0h.01M124.9 364.6h.01M102.0 365.5h.01M182.5 174.0h.01M88.7 359.0h.01M195.9 161.8h.01M213.6 168.5h.01M116.6 172.2h.01M75.3 158.7h.01M137.1 392.0h.01M262.2 179.6h.01M110.8 282.9h.01M130.8 406.4h.01M73.2 218.7h.01M100.0 163.8h.01M102.3 352.5h.01M204.0 197.3h.01M165.0 391.0h.01M150.4 383.6h.01M143.9 381.7h.01M99.0 365.0h.01M157.4 400.4h.01M263.3 172.2h.01M146.3 369.7h.01M110.0 155.9h.01M177.0 396.8h.01M289.6 164.9h.01M123.5 361.3h.01M156.2 367.2h.01M111.2 165.0h.01M227.2 173.8h.01M190.0 406.4h.01M111.3 168.1h.01M100.9 373.8h.01M88.5 173.5h.01M214.6 150.5h.01M64.8 255.2h.01M175.4 373.4h.01M119.7 235.1h.01M123.4 218.1h.01M96.1 174.3h.01M68.9 257.9h.01M93.9 358.7h.01M72.7 274.3h.01M95.1 185.2h.01M81.0 301.7h.01M108.6 362.2h.01M167.6 392.8h.01M116.2 371.5h.01M142.4 387.7h.01M225.5 181.3h.01M119.0 374.5h.01M102.5 228.7h.01M205.1 168.3h.01M80.3 183.8h.01M181.5 381.2h.01M105.0 174.6h.01M63.2 204.7h.01M146.9 395.8h.01M123.0 397.7h.01M123.6 182.9h.01M236.1 188.5h.01M202.6 154.6h.01M273.4 174.3h.01M111.5 279.3h.01M229.7 194.1h.01M213.7 183.3h.01M72.9 168.2h.01M166.2 400.2h.01M82.1 268.8h.01M137.4 180.7h.01M259.5 178.0h.01M268.2 177.5h.01M164.4 396.1h.01M67.7 204.3h.01M82.1 156.5h.01M183.9 387.0h.01M259.0 175.0h.01M108.3 385.7h.01M116.8 178.6h.01M255.5 177.8h.01M145.2 400.6h.01M136.1 233.3h.01M185.4 383.4h.01M151.6 173.4h.01M134.4 229.1h.01M194.7 227.4h.01M169.9 376.9h.01M138.5 383.5h.01M215.4 165.4h.01M170.6 400.5h.01M98.6 230.4h.01M106.0 362.0h.01M103.5 161.5h.01M128.0 185.7h.01M79.5 172.5h.01M127.8 387.5h.01M233.6 215.4h.01M108.3 170.1h.01M50.5 182.0h.01M240.4 188.0h.01M46.6 182.4h.01M206.4 160.3h.01M154.7 404.8h.01M122.5 383.0h.01M177.6 376.2h.01M269.7 160.9h.01M175.3 386.3h.01M187.8 159.1h.01M91.1 318.8h.01M47.0 175.1h.01M188.9 386.1h.01M229.6 189.1h.01M270.4 170.5h.01M114.0 375.2h.01M243.7 197.8h.01M201.8 377.8h.01M183.2 219.3h.01M210.8 167.5h.01M143.2 397.3h.01M193.5 401.7h.01M118.7 185.5h.01M51.6 172.6h.01M185.9 394.7h.01M50.6 177.3h.01M87.3 183.9h.01M196.5 409.1h.01M220.4 168.9h.01M217.0 168.8h.01M209.1 384.4h.01M129.8 371.0h.01M96.0 341.5h.01M186.8 376.9h.01M94.0 178.6h.01M74.2 264.6h.01M83.5 182.0h.01M113.8 361.0h.01M137.8 230.3h.01M191.1 378.2h.01M251.0 178.6h.01M110.4 272.7h.01M150.6 378.1h.01M98.2 360.0h.01M83.3 169.6h.01M154.1 169.9h.01M166.9 229.1h.01M208.6 377.8h.01M122.7 380.1h.01M109.7 226.4h.01M208.9 159.7h.01M235.8 192.9h.01M83.4 221.1h.01M83.9 225.4h.01M169.9 389.2h.01M108.5 176.4h.01M168.0 396.5h.01M178.5 172.5h.01M141.6 384.5h.01M158.8 381.9h.01M179.1 394.3h.01M62.4 162.3h.01M149.9 391.6h.01M108.9 369.6h.01M158.6 183.2h.01M123.3 234.4h.01M187.0 400.3h.01M178.4 169.0h.01M222.0 179.2h.01M155.3 378.5h.01M215.6 227.0h.01M89.9 226.8h.01M187.9 153.7h.01M172.4 381.3h.01M263.0 183.0h.01M205.3 223.8h.01M266.6 164.2h.01M105.3 156.8h.01M265.5 180.5h.01M207.1 182.5h.01M150.5 404.4h.01M287.5 161.4h.01M220.2 153.8h.01M189.3 183.6h.01M113.6 277.1h.01M209.5 381.0h.01M119.0 159.6h.01M216.3 177.8h.01M107.5 279.5h.01M75.8 179.6h.01M171.9 212.4h.01M163.2 190.2h.01M153.2 382.0h.01M251.4 182.7h.01M142.6 272.9h.01M76.4 183.5h.01M289.3 173.6h.01M119.6 182.3h.01M136.8 376.7h.01M255.5 184.2h.01M143.7 393.7h.01M195.9 154.3h.01M125.0 214.5h.01M121.3 193.8h.01M239.6 156.2h.01M175.6 369.3h.01M182.8 170.9h.01M234.5 181.3h.01M208.9 178.8h.01M229.8 198.2h.01M102.1 232.5h.01M129.2 190.1h.01M181.0 376.0h.01M192.7 182.8h.01M83.8 173.7h.01M100.6 178.7h.01M135.8 372.5h.01M254.6 180.8h.01M158.0 392.6h.01M131.6 400.4h.01M236.2 177.2h.01M98.2 348.2h.01M79.2 223.9h.01M145.0 404.0h.01M85.3 330.6h.01M122.2 371.5h.01M124.0 177.7h.01M196.4 171.8h.01M226.9 199.6h.01M223.3 220.9h.01M280.1 171.1h.01M287.6 169.1h.01M107.2 356.4h.01M185.5 390.1h.01M272.3 181.9h.01M131.0 375.3h.01M114.1 179.9h.01M282.3 183.8h.01M239.3 197.8h.01M198.2 178.2h.01M104.7 185.5h.01M192.7 374.0h.01M93.0 365.9h.01M205.6 176.1h.01M224.7 171.0h.01M185.2 372.3h.01M133.1 370.3h.01M274.2 164.4h.01M111.8 178.3h.01M136.4 364.6h.01M162.0 400.8h.01M219.4 165.6h.01M119.0 175.3h.01M269.8 174.6h.01M132.0 382.5h.01M202.5 373.3h.01M128.3 377.8h.01M126.2 193.8h.01M70.5 189.8h.01M225.7 177.5h.01M112.5 371.1h.01M75.3 283.7h.01M114.4 367.7h.01M269.1 180.1h.01M262.3 164.2h.01M86.9 165.5h.01M153.2 184.1h.01M211.9 171.7h.01M151.2 181.9h.01M170.4 385.6h.01M153.1 394.9h.01M103.0 153.9h.01M95.1 232.3h.01M261.2 168.8h.01M192.2 152.1h.01M172.3 367.8h.01M104.8 380.2h.01M133.4 367.1h.01M67.0 158.0h.01M94.9 348.3h.01M216.6 174.1h.01M205.9 156.6h.01M109.3 373.5h.01M131.9 210.2h.01M61.8 198.1h.01M127.4 402.6h.01M79.1 293.4h.01M108.0 166.3h.01M188.9 382.6h.01M118.6 381.6h.01M180.9 401.5h.01M157.4 388.5h.01M163.0 228.1h.01M132.9 386.4h.01M232.6 186.3h.01M101.1 369.4h.01M187.0 178.4h.01M187.2 368.0h.01M139.2 395.1h.01M113.6 273.9h.01M112.2 182.8h.01M160.3 385.9h.01M127.1 375.9h.01M233.2 173.1h.01M204.5 179.5h.01M282.7 168.2h.01M114.9 364.1h.01M105.5 368.0h.01M82.8 305.6h.01M65.9 188.4h.01M243.2 155.9h.01M113.5 170.2h.01M194.5 379.8h.01M247.7 182.5h.01M200.6 225.0h.01M276.8 180.8h.01M185.9 397.9h.01M95.0 166.1h.01M183.0 398.0h.01M168.3 366.1h.01M181.5 384.3h.01M109.4 366.4h.01M174.7 176.5h.01M153.4 400.1h.01M135.2 389.4h.01M96.3 351.6h.01M195.6 375.6h.01M268.7 182.4h.01M207.9 167.3h.01M259.6 183.6h.01M168.7 381.5h.01M222.6 162.9h.01M147.5 234.5h.01M100.6 159.3h.01M113.3 389.1h.01M140.6 390.8h.01M162.2 392.7h.01M176.1 214.5h.01M120.4 363.7h.01M75.4 170.2h.01M57.6 161.4h.01M220.0 171.8h.01M187.4 379.9h.01M160.2 378.8h.01M199.0 160.8h.01M99.1 345.2h.01M173.7 383.9h.01M92.7 174.4h.01M283.3 160.8h.01M92.2 182.2h.01M208.7 153.8h.01M82.3 188.6h.01M184.9 287.4h.01M125.8 380.9h.01M177.8 383.6h.01M209.2 174.4h.01M105.5 365.0h.01M95.5 345.0h.01M180.2 397.5h.01M206.9 280.7h.01M166.7 384.9h.01M134.3 394.7h.01M79.3 180.5h.01M198.8 164.3h.01M92.5 342.0h.01M210.0 156.5h.01M276.6 176.8h.01M266.6 173.4h.01M158.8 375.0h.01M123.8 286.8h.01M104.9 164.5h.01M266.0 184.0h.01M116.2 182.5h.01M132.5 364.0h.01M205.4 376.4h.01M120.5 178.8h.01M179.2 371.1h.01M130.2 367.5h.01M114.6 175.6h.01M148.0 373.9h.01M172.0 230.0h.01M87.6 180.6h.01M213.4 161.8h.01M279.7 162.5h.01M249.5 186.4h.01M54.4 180.0h.01M107.4 382.4h.01M123.8 368.4h.01M103.7 355.5h.01M193.2 405.9h.01M101.1 182.4h.01M114.6 185.5h.01M164.8 387.8h.01M227.8 184.9h.01M143.5 373.0h.01M75.5 186.7h.01M171.7 372.9h.01M179.1 387.5h.01M90.5 178.1h.01M223.5 167.2h.01M122.9 386.4h.01M160.9 371.8h.01M64.0 209.8h.01M128.0 392.0h.01M156.7 384.3h.01M105.4 232.1h.01M226.3 152.2h.01M187.0 403.0h.01M246.1 194.0h.01M99.7 151.9h.01M135.5 409.5h.01M156.2 371.2h.01M105.0 371.6h.01M208.7 163.5h.01M108.4 180.2h.01M310.3 183.0h.01M87.7 169.4h.01M95.3 152.9h.01M105.7 226.8h.01M286.5 177.3h.01M130.8 394.9h.01M112.1 365.5h.01M125.6 389.4h.01M93.1 338.6h.01M171.6 392.6h.01M213.0 179.7h.01M138.8 366.8h.01M168.7 370.3h.01M177.6 391.4h.01M147.4 382.4h.01M205.0 162.3h.01M231.8 183.0h.01M91.7 344.9h.01M182.7 394.5h.01M71.5 170.6h.01M101.6 167.8h.01M207.6 155.8h.01M189.0 396.0h.01M80.6 217.3h.01M159.2 403.7h.01M139.8 375.2h.01M189.8 161.8h.01M47.7 165.8h.01M213.9 157.4h.01M84.1 184.9h.01M100.1 379.2h.01M120.8 187.9h.01M53.3 163.8h.01M111.4 382.9h.01M105.4 358.9h.01M122.9 390.6h.01M192.2 382.4h.01M145.2 390.5h.01M79.0 164.6h.01M232.4 178.0h.01M180.3 378.8h.01M150.1 396.2h.01M121.8 220.9h.01M92.5 229.5h.01M110.3 359.3h.01M129.9 271.1h.01M68.0 161.4h.01M193.7 385.2h.01M203.9 158.1h.01M193.0 161.5h.01M86.2 315.4h.01M111.0 387.2h.01M201.1 158.3h.01M198.3 372.0h.01M158.5 407.8h.01M190.5 403.3h.01M133.5 374.3h.01M151.0 369.7h.01M198.1 230.0h.01M129.3 373.6h.01M87.9 222.7h.01M149.4 400.6h.01M130.5 214.6h.01M184.0 401.0h.01M234.0 196.6h.01M116.0 227.1h.01M175.1 393.7h.01M246.7 157.0h.01M199.2 156.3h.01M127.5 218.6h.01M140.4 380.2h.01M121.6 270.6h.01M135.2 404.0h.01M102.8 223.9h.01M191.6 174.0h.01M205.2 165.0h.01M229.3 176.5h.01M114.7 386.3h.01M281.1 177.6h.01M278.0 173.9h.01M186.5 163.7h.01M127.9 211.8h.01M184.3 160.6h.01M116.8 378.2h.01M145.4 386.1h.01M139.6 233.5h.01M65.1 174.7h.01M172.4 289.5h.01M143.5 235.1h.01M168.1 288.0h.01M78.6 168.4h.01M188.7 375.1h.01M130.2 386.3h.01M136.9 369.3h.01M171.0 396.5h.01M82.2 186.4h.01M96.7 367.7h.01M229.3 180.5h.01M284.9 165.1h.01M240.4 203.1h.01M121.4 366.2h.01M124.6 394.0h.01M259.6 171.9h.01M184.3 156.1h.01M153.4 374.2h.01M74.3 279.1h.01M262.0 175.2h.01M148.1 387.8h.01M223.1 174.5h.01M199.5 375.5h.01M164.5 366.6h.01M229.8 154.3h.01M74.0 270.5h.01M167.0 207.4h.01M90.4 363.2h.01M168.1 404.0h.01M112.4 230.0h.01M177.7 165.6h.01M77.5 155.0h.01M63.5 180.2h.01M136.8 380.2h.01M96.6 188.5h.01M208.5 150.8h.01M90.0 162.3h.01M127.1 232.4h.01M72.9 260.2h.01M204.4 392.6h.01M136.1 399.1h.01M97.2 376.3h.01M134.9 207.5h.01M70.8 267.6h.01M180.7 373.2h.01M134.1 269.5h.01M71.4 158.3h.01M91.6 165.7h.01M212.6 175.7h.01M131.0 378.5h.01M155.3 180.0h.01M202.8 150.2h.01M181.4 233.0h.01M222.7 184.2h.01M138.9 200.1h.01M146.5 365.2h.01M95.8 362.8h.01M162.7 184.9h.01M102.3 362.0h.01M163.7 376.0h.01M126.3 384.2h.01M176.8 380.4h.01M202.5 161.0h.01M202.2 177.1h.01M69.5 263.2h.01M278.0 167.0h.01M183.8 404.5h.01M164.9 201.2h.01M258.0 180.5h.01M178.9 367.6h.01M123.9 190.6h.01M142.3 368.3h.01M270.5 166.3h.01M205.5 152.2h.01M272.0 178.5h.01M151.3 387.8h.01M86.7 176.6h.01M219.3 224.6h.01M118.5 385.0h.01M96.2 337.1h.01M128.4 364.9h.01M108.7 276.0h.01M138.6 387.4h.01M74.8 176.4h.01M160.5 396.3h.01M133.8 378.5h.01M182.3 168.2h.01M86.6 228.8h.01M69.8 252.8h.01M184.1 379.4h.01M139.3 184.3h.01M166.5 378.3h.01M163.5 198.0h.01M211.8 159.3h.01M120.3 378.0h.01M104.2 178.5h.01M164.1 380.9h.01M113.5 379.5h.01M117.7 366.4h.01M164.5 370.5h.01M216.6 158.3h.01M208.8 227.0h.01M143.4 184.6h.01M133.1 287.9h.01M158.4 170.3h.01M107.0 376.0h.01M176.1 162.2h.01M212.0 151.8h.01M94.4 354.6h.01M111.3 363.1h.01M65.0 250.2h.01M234.9 154.6h.01M237.5 211.5h.01M142.7 377.5h.01M192.5 398.8h.01M119.2 369.7h.01M224.7 216.1h.01M189.5 371.9h.01"/>
</svg>