<svg xmlns="http://www.w3.org/2000/svg" viewBox="0 0 360 432" role="img">
<path stroke="#1a1a1a" stroke-width="1.41" stroke-linecap="round" fill="none" d="M323.3 28.9h.01M151.5 41.2h.01M277.6 1.0h.01M304.7 148.7h.01M232.1 106.9h.01M181.2 150.3h.01M245.7 118.5h.01M134.9 72.6h.01M292.2 73.0h.01M358.6 283.0h.01M0.4 296.3h.01M281.2 25.4h.01M200.7 143.6h.01M259.0 47.3h.01M155.4 131.9h.01M332.1 60.7h.01M342.8 79.4h.01M300.9 142.5h.01M159.7 122.1h.01M286.1 69.9h.01M167.4 117.5h.01M240.0 140.8h.01M271.0 112.4h.01M263.8 118.3h.01M81.9 92.5h.01M298.7 68.6h.01M141.9 103.2h.01M80.3 82.4h.01M271.6 77.3h.01M199.2 159.8h.01M143.1 127.7h.01M279.7 88.1h.01M273.5 105.5h.01M209.7 152.5h.01M86.5 284.0h.01M241.3 109.5h.01M242.0 61.8h.01M276.3 116.1h.01M71.8 255.8h.01M160.0 110.4h.01M207.2 167.4h.01M287.7 196.1h.01M297.9 77.9h.01M134.2 430.6h.01M356.9 100.4h.01M104.3 93.6h.01M213.0 164.5h.01M139.6 158.5h.01M279.8 65.7h.01M150.6 155.0h.01M288.9 54.6h.01M338.5 63.5h.01M150.0 111.8h.01M155.7 140.8h.01M207.9 130.1h.01M193.2 109.0h.01M200.1 88.4h.01M311.6 33.3h.01M196.4 233.8h.01M169.0 127.1h.01M181.4 142.9h.01M358.2 136.2h.01M250.0 57.2h.01M197.6 154.0h.01M224.7 141.7h.01M343.9 92.8h.01M149.5 137.9h.01M208.0 143.6h.01M196.7 118.7h.01M118.7 118.1h.01M344.3 100.0h.01M200.3 127.7h.01M181.5 168.5h.01M347.7 86.7h.01M171.3 109.1h.01M201.3 169.9h.01M160.7 59.8h.01M328.7 36.7h.01M229.4 126.4h.01M104.9 67.9h.01M180.9 58.6h.01M181.9 135.3h.01M342.3 124.2h.01M167.8 145.5h.01M303.6 54.5h.01M287.4 158.3h.01M283.7 38.1h.01M221.2 120.2h.01M339.0 86.8h.01M121.7 75.5h.01M356.2 90.6h.01M269.7 54.9h.01M222.2 88.5h.01M211.4 94.4h.01M98.9 120.4h.01M174.6 137.9h.01M268.0 47.9h.01M167.6 137.0h.01M259.3 81.6h.01M296.4 53.1h.01M254.5 114.4h.01M282.2 128.2h.01M251.1 76.9h.01M95.9 99.2h.01M291.5 30.3h.01M212.8 115.3h.01M267.4 98.8h.01M233.4 58.2h.01M114.0 85.3h.01M282.8 113.1h.01M73.7 114.3h.01M224.6 430.6h.01M247.3 140.9h.01M315.2 43.6h.01M198.9 76.2h.01M325.9 119.3h.01M254.0 98.6h.01M283.3 222.1h.01M234.7 86.3h.01M164.6 87.4h.01M0.4 104.1h.01M296.7 61.0h.01M76.2 100.2h.01M86.5 113.5h.01M177.6 118.5h.01M211.2 81.9h.01M72.3 107.3h.01M261.7 125.9h.01M258.8 71.6h.01M205.8 162.1h.01M93.9 115.4h.01M139.7 112.5h.01M358.6 303.0h.01M151.5 121.8h.01M190.7 232.9h.01M174.4 78.7h.01M268.3 129.8h.01M309.2 49.3h.01M115.5 96.6h.01M86.1 120.8h.01M154.2 163.0h.01M125.0 101.2h.01M288.1 124.6h.01M163.8 157.9h.01M222.0 100.1h.01M116.2 105.9h.01M175.9 100.5h.01M254.3 122.7h.01M120.1 57.5h.01M194.6 140.8h.01M182.9 108.3h.01M350.2 104.0h.01M148.1 67.7h.01M282.9 48.7h.01M338.5 71.6h.01M195.1 148.5h.01M143.0 120.4h.01M213.1 147.6h.01M131.9 108.6h.01M177.2 128.2h.01M171.6 66.5h.01M231.3 95.9h.01M295.0 39.6h.01M223.4 111.3h.01M229.7 117.9h.01M167.9 167.7h.01M275.0 33.9h.01M280.7 133.7h.01M282.8 57.6h.01M320.2 37.2h.01M247.2 126.9h.01M187.5 97.2h.01M188.1 146.2h.01M222.1 128.8h.01M300.7 107.2h.01M126.7 118.0h.01M58.1 166.3h.01M99.2 108.7h.01M275.9 50.7h.01M354.0 80.2h.01M241.1 99.3h.01M130.0 126.4h.01M297.0 159.4h.01M101.7 81.4h.01M202.5 136.4h.01M133.8 96.7h.01M134.4 120.2h.01M205.9 121.2h.01M203.1 112.5h.01M161.5 150.5h.01M272.0 122.8h.01M271.8 63.2h.01M191.3 157.3h.01M285.9 104.7h.01M90.5 74.9h.01M266.0 33.7h.01M164.0 99.1h.01M112.2 112.9h.01M319.9 67.9h.01M85.6 100.0h.01M90.7 106.9h.01M300.5 45.8h.01M186.9 117.6h.01M224.4 53.1h.01M154.5 89.8h.01M341.3 55.5h.01M289.7 64.3h.01M286.8 165.5h.01M307.9 109.2h.01M161.5 142.7h.01M250.8 66.2h.01M174.4 147.1h.01M63.7 171.5h.01M349.8 128.2h.01M281.5 156.8h.01M203.4 149.6h.01M307.0 77.3h.01M234.8 158.4h.01M324.5 46.2h.01M98.4 128.5h.01M206.3 104.3h.01M223.7 158.6h.01M193.8 162.7h.01M170.3 161.2h.01M250.0 106.8h.01M262.0 90.3h.01M304.6 62.1h.01M185.6 71.5h.01M123.0 110.4h.01M246.9 89.1h.01M162.1 132.2h.01M168.9 37.1h.01M143.0 134.3h.01M124.8 89.4h.01M194.5 133.5h.01M215.2 106.0h.01M97.1 319.5h.01M76.6 122.4h.01M292.9 1.5h.01M80.8 108.4h.01M134.7 47.6h.01M280.3 122.1h.01M143.9 92.4h.01M262.4 107.7h.01M314.3 111.2h.01M214.3 125.2h.01M237.3 117.3h.01M192.8 125.4h.01M350.1 95.1h.01M176.6 90.6h.01M270.3 90.3h.01M134.8 84.2h.01M211.3 68.7h.01M80.1 116.6h.01M147.5 80.8h.01M187.9 85.0h.01M301.7 33.8h.01M346.3 63.7h.01M159.9 75.1h.01M60.7 159.6h.01M280.8 97.1h.01M306.8 40.5h.01M104.1 114.8h.01M149.3 130.3h.01M262.8 39.8h.01M162.2 164.3h.01M152.9 101.3h.01M290.7 46.5h.01M185.6 127.6h.01M216.5 141.3h.01M322.5 56.1h.01M73.6 92.1h.01M237.9 125.5h.01M348.5 71.8h.01M276.3 58.0h.01M106.6 104.6h.01M175.1 167.9h.01M91.5 89.7h.01M188.2 138.1h.01M334.7 79.4h.01M274.4 42.6h.01M157.2 157.3h.01M220.1 147.5h.01M183.6 157.0h.01M198.4 98.8h.01M333.4 44.0h.01M204.6 156.3h.01M178.6 162.0h.01M186.8 163.4h.01M314.9 23.9h.01M61.0 126.2h.01"/>
<path stroke="#1a1a1a" stroke-width="1.89" stroke-linecap="round" fill="none" d="M270.7 212.2h.01M0.4 213.0h.01M180.7 234.5h.01M147.2 333.6h.01M118.3 153.9h.01M326.6 79.6h.01M219.3 164.9h.01M292.6 167.5h.01M253.1 222.4h.01M167.2 176.9h.01M88.7 142.4h.01M265.0 235.7h.01M138.6 149.6h.01M224.4 164.0h.01M136.3 161.9h.01M260.0 236.3h.01M159.6 175.4h.01M232.3 231.4h.01M326.1 71.7h.01M298.4 135.1h.01M263.7 225.7h.01M232.5 140.6h.01M147.6 168.3h.01M292.0 161.8h.01M276.3 221.8h.01M343.6 106.6h.01M0.4 230.4h.01M189.1 256.3h.01M306.7 91.7h.01M0.4 132.2h.01M358.6 229.5h.01M286.1 76.2h.01M358.6 176.0h.01M293.1 236.5h.01M272.4 155.2h.01M332.2 68.1h.01M100.3 166.6h.01M127.1 240.7h.01M297.8 84.3h.01M310.6 94.3h.01M92.5 123.6h.01M306.3 162.0h.01M236.5 249.5h.01M277.0 154.5h.01M268.6 232.7h.01M248.1 260.2h.01M123.1 126.2h.01M83.8 139.2h.01M326.1 113.9h.01M281.0 139.5h.01M252.3 252.5h.01M268.8 163.3h.01M72.1 164.6h.01M120.3 136.8h.01M251.8 257.8h.01M276.9 160.6h.01M262.6 231.2h.01M67.3 144.7h.01M154.7 149.6h.01M95.0 134.8h.01M90.8 129.9h.01M258.2 157.9h.01M173.5 237.7h.01M297.1 165.0h.01M331.3 74.6h.01M132.5 334.7h.01M64.8 139.5h.01M229.4 160.7h.01M290.4 223.1h.01M71.3 180.9h.01M82.4 223.8h.01M281.5 163.0h.01M130.8 142.0h.01M275.1 172.7h.01M270.4 169.8h.01M81.5 216.8h.01M253.1 150.5h.01M288.0 183.4h.01M0.4 249.2h.01M182.8 239.4h.01M289.1 85.2h.01M219.8 229.1h.01M96.0 161.7h.01M172.8 233.2h.01M294.7 231.9h.01M199.3 165.4h.01M187.3 243.6h.01M107.7 169.6h.01M49.2 194.5h.01M333.3 97.5h.01M259.6 271.8h.01M228.9 134.6h.01M279.8 202.0h.01M288.0 218.4h.01M271.4 144.4h.01M90.7 147.6h.01M239.8 160.1h.01M168.8 153.1h.01M216.4 154.1h.01M311.6 88.4h.01M152.7 168.8h.01M60.6 135.8h.01M314.5 77.8h.01M229.9 333.5h.01M108.9 222.8h.01M264.0 159.3h.01M213.0 0.4h.01M85.1 151.0h.01M89.8 137.0h.01M163.3 234.4h.01M136.0 247.0h.01M147.9 255.7h.01M137.8 257.7h.01M267.9 72.8h.01M70.2 170.4h.01M63.4 112.0h.01M75.1 158.6h.01M222.0 169.5h.01M212.1 237.1h.01M286.3 136.8h.01M293.9 106.4h.01M180.7 245.3h.01M320.5 111.9h.01M188.3 152.3h.01M348.1 109.8h.01M285.5 240.8h.01M281.9 243.9h.01M116.3 166.3h.01M263.1 153.4h.01M189.6 250.5h.01M262.4 139.9h.01M277.5 230.2h.01M290.1 227.4h.01M130.9 244.3h.01M292.5 126.5h.01M131.8 157.2h.01M229.9 166.3h.01M110.9 154.4h.01M284.2 200.7h.01M252.9 263.4h.01M264.6 220.6h.01M76.5 199.9h.01M276.6 143.4h.01M358.6 202.5h.01M241.3 246.4h.01M192.3 210.8h.01M93.7 142.1h.01M84.6 272.8h.01M268.9 137.6h.01M151.3 250.4h.01M332.8 103.1h.01M158.7 239.2h.01M291.9 208.9h.01M288.2 236.0h.01M174.1 334.0h.01M275.1 149.1h.01M275.2 200.2h.01M279.1 197.4h.01M207.7 212.1h.01M84.1 235.5h.01M163.5 172.0h.01M169.0 254.1h.01M244.4 161.4h.01M292.1 186.9h.01M276.8 81.4h.01M165.6 239.4h.01M280.8 150.3h.01M184.4 248.7h.01M156.2 245.3h.01M159.0 233.6h.01M65.6 105.9h.01M262.3 325.2h.01M195.2 253.1h.01M92.7 190.8h.01M290.5 109.3h.01M85.2 268.5h.01M184.6 232.8h.01M334.5 122.2h.01M195.0 204.9h.01M285.8 80.8h.01M249.9 219.4h.01M287.7 96.9h.01M260.7 217.2h.01M273.8 239.5h.01M200.6 175.3h.01M316.7 52.6h.01M103.2 228.1h.01M192.4 259.0h.01M163.2 229.0h.01M85.6 157.2h.01M280.4 218.3h.01M250.2 242.5h.01M227.5 253.1h.01M226.1 168.3h.01M135.3 253.4h.01M274.9 166.2h.01M136.9 136.9h.01M282.6 145.5h.01M136.2 170.5h.01M275.6 209.8h.01M110.3 121.2h.01M210.2 137.2h.01M268.6 151.0h.01M123.5 233.8h.01M60.9 145.3h.01M179.2 255.5h.01M210.3 220.5h.01M287.9 131.4h.01M256.8 234.3h.01M113.4 158.3h.01M267.3 276.6h.01M255.2 270.0h.01M315.8 92.0h.01M85.2 133.0h.01M104.8 131.7h.01M103.9 146.6h.01M296.5 100.7h.01M357.5 121.8h.01M236.7 242.7h.01M280.0 169.1h.01M266.8 166.4h.01M146.2 235.2h.01M357.4 115.1h.01M269.6 244.0h.01M181.6 211.8h.01M283.4 214.8h.01M78.1 142.2h.01M73.9 184.4h.01M242.6 251.4h.01M353.0 112.5h.01M124.6 141.1h.01M193.5 216.4h.01M198.8 257.6h.01M222.5 153.9h.01M209.0 216.1h.01M340.6 117.7h.01M127.6 234.4h.01M129.5 0.4h.01M68.8 99.5h.01M66.0 125.4h.01M222.1 135.8h.01M166.6 333.9h.01M193.4 239.5h.01M186.0 222.9h.01M144.0 164.9h.01M260.2 260.9h.01M48.1 178.7h.01M79.2 135.0h.01M213.4 227.5h.01M147.5 160.4h.01M154.8 232.9h.01M175.5 155.2h.01M287.4 177.3h.01M227.2 148.0h.01M184.3 254.0h.01M290.5 231.9h.01M294.0 204.3h.01M143.2 146.4h.01M76.6 223.6h.01M76.3 170.6h.01M279.4 239.0h.01M201.8 253.5h.01M273.8 227.1h.01M273.2 260.7h.01M79.5 211.2h.01M187.5 237.6h.01M261.2 55.7h.01M256.2 139.6h.01M236.0 133.2h.01M283.1 188.0h.01M97.2 146.2h.01M109.5 143.0h.01M145.8 249.9h.01M298.7 204.7h.01M151.5 174.2h.01M131.6 163.3h.01M288.3 118.3h.01M358.6 192.5h.01M134.6 152.9h.01M127.2 169.2h.01M266.6 215.9h.01M120.5 164.2h.01M75.3 192.2h.01M137.0 143.7h.01M253.2 145.6h.01M185.4 208.4h.01M209.2 176.2h.01M276.6 177.5h.01M188.7 186.3h.01M180.9 181.8h.01M194.0 245.8h.01M0.4 155.8h.01M104.6 0.4h.01M73.0 196.5h.01M306.3 103.1h.01M255.9 260.0h.01M101.6 160.6h.01M196.4 212.9h.01M65.4 165.0h.01M249.0 231.6h.01M85.5 230.4h.01M273.9 214.6h.01M262.0 212.3h.01M90.0 153.6h.01M266.2 210.9h.01M77.8 0.4h.01M185.4 187.4h.01M131.2 171.2h.01M112.7 220.1h.01M234.2 147.1h.01M275.6 205.0h.01M75.7 217.9h.01M78.1 164.2h.01M249.9 207.2h.01M66.9 150.5h.01M270.7 178.1h.01M242.9 133.3h.01M242.7 258.6h.01M274.7 181.6h.01M196.2 208.4h.01M238.3 152.8h.01M198.6 180.1h.01M262.8 206.9h.01M302.4 83.0h.01M180.8 207.2h.01M78.8 195.5h.01M234.6 163.7h.01M142.9 154.0h.01M244.7 263.6h.01M210.1 224.5h.01M332.8 91.0h.01M358.6 144.5h.01M305.3 179.1h.01M253.4 210.1h.01M281.5 175.2h.01M275.0 129.9h.01M337.3 105.4h.01M358.6 240.4h.01M255.6 55.0h.01M278.7 189.9h.01M247.1 254.5h.01M279.6 234.0h.01M0.4 176.6h.01M304.5 87.8h.01M70.0 120.9h.01M122.4 158.4h.01M223.8 238.6h.01M186.3 170.9h.01M247.4 248.5h.01M197.4 227.9h.01M65.0 131.5h.01M291.7 79.7h.01M283.4 227.8h.01M338.1 94.0h.01M69.1 176.4h.01M122.0 239.0h.01M186.1 202.7h.01M226.2 233.6h.01M258.5 222.9h.01M147.1 174.2h.01M257.1 256.0h.01M62.9 119.1h.01M225.4 246.0h.01M152.4 239.0h.01M297.9 232.0h.01M278.2 185.0h.01M214.4 232.4h.01M292.4 155.3h.01M244.7 242.6h.01M211.4 158.6h.01M72.7 152.9h.01M273.7 196.1h.01M328.8 99.8h.01M232.0 252.5h.01M268.7 228.2h.01M182.8 218.5h.01M311.5 58.2h.01M358.6 163.5h.01M73.9 175.9h.01M247.4 215.0h.01M284.4 236.2h.01M319.6 87.9h.01M201.6 235.5h.01M140.4 251.5h.01M125.4 249.7h.01M286.3 142.6h.01M184.6 215.2h.01M89.3 178.7h.01M250.1 134.2h.01M195.4 173.1h.01M131.8 237.4h.01M177.1 174.9h.01M127.2 160.0h.01M175.0 0.4h.01M211.6 170.8h.01M255.5 218.6h.01M262.1 264.6h.01M262.7 133.3h.01M116.3 124.5h.01M263.2 280.4h.01M259.0 331.1h.01M207.0 254.4h.01M297.2 130.1h.01M199.9 215.3h.01M326.0 64.8h.01M242.9 217.0h.01M142.9 260.4h.01M100.7 136.0h.01M279.2 225.5h.01M276.6 217.6h.01M240.1 262.9h.01M287.4 171.6h.01M315.4 72.4h.01M272.3 161.0h.01M77.9 205.4h.01M251.5 214.6h.01M172.1 177.8h.01M274.8 136.9h.01M78.0 148.7h.01M178.6 240.8h.01M265.5 145.1h.01M358.6 212.0h.01M174.1 256.4h.01M276.8 193.3h.01M94.8 151.8h.01M182.7 226.1h.01M244.8 155.1h.01M0.4 270.8h.01M327.5 93.8h.01M358.6 152.0h.01M255.8 214.6h.01M180.8 229.4h.01M189.5 219.6h.01M95.5 306.3h.01M232.7 237.5h.01M282.0 181.3h.01M357.2 128.7h.01M258.4 228.1h.01M293.0 130.4h.01M129.9 166.5h.01M348.5 122.1h.01M206.7 236.8h.01M339.0 100.1h.01M325.5 87.4h.01M206.0 173.0h.01M78.2 128.6h.01M356.8 108.2h.01M143.4 140.7h.01M191.4 226.1h.01M228.2 154.5h.01M246.9 148.3h.01M272.0 250.6h.01M70.3 188.7h.01M200.5 247.5h.01M315.6 83.6h.01M193.6 178.8h.01M268.3 157.5h.01M189.1 175.8h.01M159.5 178.8h.01M271.1 207.2h.01M116.1 142.8h.01M235.4 290.6h.01M87.7 288.7h.01M189.8 207.8h.01M265.7 60.4h.01M64.0 177.7h.01M277.4 244.1h.01M305.6 166.9h.01M77.2 180.4h.01M176.3 181.5h.01M96.0 315.3h.01M246.8 237.0h.01M83.8 145.6h.01M219.2 235.3h.01M177.1 231.6h.01M199.2 311.5h.01M72.2 139.4h.01M141.2 239.2h.01M89.9 182.0h.01M248.6 265.0h.01M232.0 245.9h.01M245.2 220.1h.01M280.9 72.9h.01M141.7 245.4h.01M99.3 257.2h.01M143.0 256.0h.01M265.2 271.7h.01M150.3 233.0h.01M247.5 0.4h.01M233.8 168.4h.01M305.6 172.0h.01M269.8 222.9h.01M288.5 147.4h.01M216.7 169.1h.01M211.8 250.0h.01M273.6 256.1h.01M273.6 233.8h.01M111.1 129.4h.01M186.3 181.4h.01M193.9 200.4h.01M315.8 106.4h.01M68.0 158.2h.01M291.0 200.3h.01M358.6 220.5h.01M155.7 173.2h.01M321.4 94.2h.01M126.3 153.2h.01M188.3 213.3h.01M358.6 266.8h.01M216.4 173.6h.01M252.9 334.9h.01M262.9 0.5h.01M112.7 169.3h.01M190.6 203.2h.01M285.8 231.6h.01M358.6 252.9h.01M273.8 245.9h.01M215.6 133.6h.01M158.3 227.5h.01M136.5 129.6h.01M118.2 131.4h.01M111.5 234.3h.01M296.5 227.5h.01M186.6 228.4h.01M352.2 118.1h.01M206.4 248.3h.01M287.0 152.7h.01M52.1 169.3h.01M280.2 206.8h.01M358.6 169.5h.01M206.1 242.5h.01M171.1 172.7h.01M174.5 252.6h.01M272.6 296.8h.01M195.0 0.4h.01M147.0 150.7h.01M123.7 244.7h.01M237.7 233.1h.01M73.7 133.0h.01M118.6 229.6h.01M179.0 430.6h.01M259.5 146.9h.01M217.1 240.5h.01M288.0 190.5h.01M282.4 194.3h.01M292.6 178.6h.01M212.1 255.0h.01M136.3 240.2h.01M229.6 257.0h.01M105.0 165.6h.01M251.4 268.1h.01M149.9 144.9h.01M150.4 245.0h.01M297.1 153.8h.01M140.9 234.1h.01M104.7 222.9h.01M353.4 124.0h.01M178.5 225.4h.01M282.8 210.2h.01M117.8 225.2h.01M288.9 212.6h.01M130.8 134.7h.01M205.5 225.5h.01M217.7 159.2h.01M95.9 311.5h.01M309.3 83.1h.01M146.3 241.5h.01M69.5 237.9h.01M251.4 272.9h.01M171.5 229.0h.01M262.0 276.0h.01M222.3 242.9h.01M304.7 157.1h.01M256.1 132.7h.01M266.9 205.8h.01M80.2 154.3h.01M84.2 126.8h.01M252.4 226.9h.01M108.1 231.6h.01M270.8 301.9h.01M80.5 249.8h.01M190.4 331.9h.01M104.7 124.7h.01M287.4 205.2h.01M182.5 176.3h.01M124.9 255.2h.01M81.6 160.5h.01M230.5 0.4h.01M81.1 245.9h.01M204.4 178.2h.01M358.6 183.5h.01M71.0 128.0h.01M238.9 255.1h.01M301.6 99.6h.01M257.8 152.7h.01M290.0 239.7h.01M331.3 85.0h.01M321.0 81.5h.01M130.6 257.3h.01M67.9 114.2h.01M228.8 249.2h.01M48.4 184.6h.01M136.1 334.7h.01M293.7 172.5h.01M192.0 168.3h.01M125.2 133.7h.01M257.2 265.5h.01M297.5 215.5h.01M158.2 168.7h.01M240.8 148.0h.01M293.6 84.8h.01M61.5 152.9h.01M123.1 169.0h.01M208.5 231.1h.01M254.0 231.5h.01M98.3 141.0h.01M142.0 172.3h.01M153.0 0.4h.01M195.7 221.5h.01M200.1 241.2h.01M130.6 251.1h.01M234.5 255.8h.01M75.5 188.8h.01M251.4 156.0h.01M240.3 238.1h.01M0.4 195.5h.01M321.3 75.3h.01M278.6 213.0h.01M84.9 277.9h.01M228.9 241.1h.01M172.9 249.5h.01M108.3 136.9h.01M358.6 158.0h.01"/>
<path stroke="#1a1a1a" stroke-width="2.35" stroke-linecap="round" fill="none" d="M119.1 252.8h.01M211.0 309.4h.01M261.9 288.6h.01M174.1 330.5h.01M217.1 251.8h.01M224.9 222.4h.01M170.1 221.3h.01M292.7 216.8h.01M248.2 279.7h.01M243.2 232.0h.01M172.5 245.3h.01M316.1 100.9h.01M176.4 187.2h.01M126.4 147.6h.01M217.6 329.4h.01M87.9 245.3h.01M166.3 250.5h.01M281.0 260.8h.01M88.5 266.6h.01M238.9 327.4h.01M95.4 265.3h.01M94.2 234.1h.01M276.8 262.6h.01M257.8 207.5h.01M258.5 284.0h.01M199.9 325.2h.01M148.1 204.9h.01M87.0 224.8h.01M105.4 245.5h.01M177.5 315.2h.01M111.9 253.3h.01M116.3 220.5h.01M79.0 175.5h.01M239.6 322.0h.01M232.1 323.4h.01M92.9 205.0h.01M172.0 310.5h.01M118.5 242.6h.01M178.9 322.1h.01M234.6 327.1h.01M95.2 173.3h.01M85.7 249.1h.01M157.0 211.1h.01M89.6 255.9h.01M107.4 257.6h.01M248.9 161.4h.01M290.8 102.2h.01M159.0 280.3h.01M182.3 314.4h.01M292.8 90.3h.01M301.2 162.5h.01M110.3 245.3h.01M171.8 318.0h.01M67.8 226.1h.01M97.4 261.5h.01M90.7 251.1h.01M236.6 323.3h.01M190.5 190.9h.01M224.3 250.5h.01M268.6 290.5h.01M80.7 239.8h.01M114.1 261.5h.01M120.5 258.3h.01M220.3 310.3h.01M269.6 194.6h.01M91.8 265.7h.01M205.2 208.0h.01M259.4 240.5h.01M159.3 284.8h.01M290.1 141.2h.01M247.3 309.7h.01M95.1 182.0h.01M131.5 272.9h.01M236.4 224.2h.01M260.4 162.3h.01M91.1 231.7h.01M179.7 331.9h.01M128.5 334.0h.01M98.3 170.8h.01M92.3 212.9h.01M82.2 187.6h.01M99.0 206.9h.01M205.6 219.9h.01M213.6 213.4h.01M115.8 256.6h.01M148.4 228.5h.01M143.8 327.0h.01M163.9 218.5h.01M71.0 247.4h.01M303.1 175.4h.01M262.9 284.4h.01M268.1 282.4h.01M96.1 268.3h.01M72.7 242.6h.01M108.2 150.2h.01M201.1 224.0h.01M184.9 259.0h.01M103.5 171.7h.01M320.6 100.1h.01M251.4 277.4h.01M73.8 212.9h.01M73.7 234.3h.01M77.0 244.1h.01M210.4 284.0h.01M154.3 210.7h.01M203.3 211.0h.01M228.9 280.9h.01M226.5 218.9h.01M295.3 241.0h.01M101.8 244.3h.01M236.0 202.8h.01M207.3 204.6h.01M228.3 320.3h.01M247.1 305.5h.01M89.9 216.3h.01M247.6 270.2h.01M324.7 108.8h.01M135.0 219.0h.01M155.1 287.3h.01M237.7 207.0h.01M99.3 231.1h.01M91.9 170.4h.01M253.3 287.1h.01M277.8 276.7h.01M213.1 176.1h.01M168.0 259.3h.01M258.0 211.3h.01M295.3 182.9h.01M168.4 286.0h.01M204.5 215.3h.01M170.6 258.3h.01M72.3 145.9h.01M99.0 184.5h.01M244.1 207.9h.01M254.3 161.0h.01M249.1 203.4h.01M143.8 264.0h.01M92.5 246.8h.01M297.4 236.8h.01M119.3 248.1h.01M231.3 288.1h.01M155.6 177.5h.01M97.6 271.1h.01M54.9 172.4h.01M71.6 222.4h.01M83.5 206.8h.01M182.0 326.6h.01M107.8 210.0h.01M151.1 210.2h.01M228.3 314.8h.01M175.7 221.2h.01M338.8 109.3h.01M125.6 212.1h.01M181.0 222.4h.01M155.1 181.0h.01M232.5 207.0h.01M81.8 191.6h.01M100.4 237.6h.01M111.5 239.6h.01M290.4 243.6h.01M92.8 177.9h.01M298.4 89.1h.01M113.4 215.1h.01M175.3 319.1h.01M328.2 105.5h.01M101.3 223.9h.01M200.3 329.4h.01M238.9 294.2h.01M268.8 186.7h.01M97.8 156.5h.01M98.2 246.5h.01M85.5 179.4h.01M216.5 314.6h.01M258.1 279.4h.01M164.8 308.4h.01M184.2 322.0h.01M241.1 205.6h.01M101.8 202.6h.01M105.6 267.5h.01M232.8 292.8h.01M303.5 183.7h.01M91.7 196.0h.01M184.0 191.4h.01M277.3 281.9h.01M256.1 248.8h.01M83.7 243.5h.01M335.6 112.7h.01M203.0 182.7h.01M80.5 168.2h.01M103.3 254.5h.01M107.3 241.3h.01M242.5 325.2h.01M241.2 223.6h.01M320.0 105.4h.01M90.9 292.5h.01M160.0 328.8h.01M89.2 220.8h.01M184.4 309.8h.01M266.6 241.2h.01M193.8 319.2h.01M294.3 136.9h.01M296.3 149.1h.01M268.3 253.8h.01M86.9 162.2h.01M199.8 210.4h.01M222.2 328.6h.01M233.3 217.6h.01M124.6 277.4h.01M272.6 191.7h.01M180.3 318.3h.01M63.4 231.9h.01M161.6 181.6h.01M147.5 325.6h.01M255.2 306.5h.01M117.6 160.6h.01M156.2 326.0h.01M135.1 166.3h.01M91.1 242.1h.01M49.7 189.1h.01M256.9 275.0h.01M94.7 218.0h.01M196.1 184.9h.01M174.8 323.9h.01M241.7 210.6h.01M260.1 244.9h.01M68.0 232.3h.01M122.7 274.0h.01M92.7 222.1h.01M233.4 320.9h.01M79.6 229.8h.01M113.1 162.8h.01M78.4 186.0h.01M254.9 239.2h.01M136.2 223.8h.01M103.1 233.1h.01M252.1 247.0h.01M95.9 209.1h.01M218.3 307.1h.01M133.9 276.1h.01M175.1 243.1h.01M194.2 196.6h.01M296.4 219.6h.01M224.7 283.5h.01M217.0 210.4h.01M133.7 305.2h.01M169.5 248.0h.01M296.8 94.6h.01M114.8 244.7h.01M127.6 274.0h.01M261.8 294.8h.01M210.0 324.8h.01M136.2 299.6h.01M99.1 220.6h.01M271.5 286.6h.01M204.8 309.0h.01M146.6 219.7h.01M209.1 332.8h.01M201.1 219.3h.01M97.5 188.4h.01M166.6 182.1h.01M243.5 307.7h.01M230.4 326.0h.01M84.2 195.8h.01M225.1 322.4h.01M102.4 266.0h.01M229.8 217.9h.01M215.5 279.1h.01M254.6 276.5h.01M219.3 277.9h.01M217.1 288.4h.01M103.3 209.3h.01M242.4 227.1h.01M99.2 252.1h.01M214.1 333.0h.01M210.6 208.9h.01M172.9 184.9h.01M250.8 309.0h.01M134.3 261.0h.01M222.4 325.1h.01M103.6 258.7h.01M99.1 267.5h.01M103.6 262.4h.01M99.7 263.2h.01M95.8 229.8h.01M187.0 313.0h.01M219.2 216.1h.01M219.1 270.2h.01M101.8 248.3h.01M160.0 218.0h.01M276.2 251.4h.01M296.9 139.5h.01M187.4 194.2h.01M141.7 217.2h.01M221.7 274.2h.01M234.5 332.4h.01M75.9 239.0h.01M97.1 202.2h.01M236.8 259.9h.01M58.8 175.3h.01M258.4 252.1h.01M208.0 316.7h.01M135.4 270.8h.01M86.0 212.2h.01M272.2 278.0h.01M273.3 282.1h.01M135.8 266.0h.01M178.6 215.5h.01M101.6 270.6h.01M96.1 222.6h.01M167.1 205.6h.01M126.1 219.7h.01M145.0 330.8h.01M220.7 173.8h.01M296.0 125.0h.01M152.5 227.9h.01M163.1 279.4h.01M230.6 317.7h.01M149.0 208.3h.01M118.4 275.7h.01M236.7 216.8h.01M126.5 228.9h.01M262.1 268.3h.01M218.6 325.6h.01M278.8 271.3h.01M110.0 261.0h.01M196.8 332.8h.01M93.9 186.4h.01M264.3 291.4h.01M215.1 258.2h.01M293.0 145.0h.01M86.0 253.2h.01M140.2 326.4h.01M75.5 230.0h.01M102.7 205.9h.01M253.3 180.5h.01M83.5 175.6h.01M88.4 193.1h.01M194.4 328.2h.01M132.6 267.9h.01M90.0 185.7h.01M181.1 186.8h.01M169.5 314.2h.01M152.0 256.8h.01M119.1 234.3h.01M179.8 251.0h.01M125.4 224.1h.01M217.5 273.6h.01M70.9 201.0h.01M232.0 260.6h.01M257.4 288.5h.01M263.0 165.2h.01M94.3 226.8h.01M90.1 228.4h.01M93.3 269.7h.01M154.6 280.8h.01M324.1 103.8h.01M86.5 239.7h.01M140.2 203.3h.01M158.8 222.0h.01M166.9 221.2h.01M157.9 181.4h.01M267.0 287.0h.01M95.0 167.0h.01M301.9 93.6h.01M180.3 312.0h.01M256.6 60.3h.01M65.9 181.5h.01M169.8 331.7h.01M89.2 262.4h.01M89.0 167.3h.01M169.0 215.6h.01M159.1 214.6h.01M73.6 208.6h.01M151.5 178.5h.01M119.1 169.8h.01M246.5 227.4h.01M216.1 177.2h.01M258.8 327.6h.01M84.1 166.1h.01M267.6 267.3h.01M285.9 246.4h.01M174.2 216.8h.01M188.9 321.1h.01M100.0 174.8h.01M191.6 182.9h.01M203.8 332.3h.01M234.3 208.2h.01M132.2 148.2h.01M97.9 235.0h.01M106.3 215.6h.01M212.9 328.9h.01M135.6 273.9h.01M169.0 225.3h.01M342.7 112.6h.01M106.0 205.9h.01M176.5 289.5h.01M224.3 278.9h.01M294.0 195.5h.01M177.8 308.9h.01M166.3 257.4h.01M122.3 227.2h.01M124.8 333.9h.01M98.2 226.0h.01M114.4 136.3h.01M264.2 296.6h.01M214.2 275.0h.01M236.9 199.9h.01M268.9 190.4h.01M148.9 284.1h.01M128.7 210.9h.01M331.1 116.9h.01M156.3 216.6h.01M91.3 225.2h.01M268.8 259.1h.01M267.2 197.5h.01M176.3 311.5h.01M253.2 280.4h.01M227.1 214.2h.01M107.2 263.2h.01M95.5 258.3h.01M103.3 141.3h.01M120.7 147.6h.01M120.3 218.8h.01M223.3 216.2h.01M296.9 175.7h.01M105.6 271.0h.01M226.4 327.5h.01M87.6 204.7h.01M219.5 245.8h.01M86.9 188.9h.01M216.6 255.1h.01M279.2 256.9h.01M173.6 314.3h.01M198.6 316.1h.01M161.8 243.1h.01M103.8 154.6h.01M139.2 333.6h.01M86.4 170.9h.01M118.2 266.4h.01M93.5 261.7h.01M347.8 114.9h.01M127.6 278.8h.01M280.0 248.3h.01M91.5 163.8h.01M236.5 205.1h.01M68.5 135.2h.01M174.0 224.6h.01M191.6 194.6h.01M270.9 183.9h.01M221.3 281.9h.01M118.9 271.2h.01M163.5 224.3h.01M97.2 192.7h.01M130.1 218.5h.01M170.7 240.0h.01M269.6 237.9h.01M336.2 117.2h.01M108.9 218.3h.01M111.6 257.4h.01M97.1 196.9h.01M114.2 148.8h.01M97.5 273.9h.01M263.2 240.0h.01M153.0 284.4h.01M121.8 214.4h.01M202.8 230.4h.01M155.4 330.9h.01M178.5 219.2h.01M194.3 314.0h.01M298.2 168.9h.01M299.7 177.3h.01M117.7 215.9h.01M254.5 309.9h.01M239.9 219.4h.01M109.3 270.4h.01M96.3 214.0h.01M82.0 201.0h.01M211.5 245.2h.01M299.7 172.6h.01M221.8 319.0h.01M264.4 260.1h.01M219.1 332.9h.01M247.6 275.3h.01M158.3 249.6h.01M99.4 180.1h.01M225.0 227.2h.01M345.1 118.8h.01M100.0 216.5h.01M177.3 327.3h.01M126.1 266.2h.01M67.0 185.9h.01M170.2 282.2h.01M268.2 174.8h.01M225.3 316.9h.01M234.6 220.8h.01M148.3 260.5h.01M232.7 152.6h.01M275.5 286.6h.01M207.8 328.7h.01M108.1 227.3h.01M170.5 182.0h.01M195.7 261.4h.01M130.6 276.6h.01M156.8 273.1h.01M223.3 286.7h.01M193.0 310.2h.01M228.8 284.3h.01M214.6 325.2h.01M81.5 183.4h.01M149.5 329.8h.01M159.9 275.0h.01M120.5 278.3h.01M109.3 164.6h.01M253.9 204.5h.01M118.1 262.3h.01M93.8 273.3h.01M234.3 213.5h.01M100.2 150.9h.01M247.0 210.4h.01M239.0 272.0h.01M91.3 174.5h.01M130.6 226.3h.01M91.6 158.6h.01M92.4 200.2h.01M324.7 98.7h.01M185.1 317.5h.01M71.3 217.2h.01M261.5 256.6h.01M103.9 250.8h.01M143.8 322.3h.01M108.1 249.2h.01M166.7 312.0h.01M96.5 177.2h.01M81.6 179.5h.01M91.9 275.4h.01M156.4 276.6h.01M311.0 99.2h.01M199.1 202.4h.01M130.5 263.7h.01M68.7 243.0h.01M217.4 322.1h.01M155.0 252.8h.01M168.0 234.1h.01M112.9 225.1h.01M251.5 236.7h.01M165.3 315.5h.01M214.4 217.7h.01M266.3 263.2h.01M294.2 121.4h.01M141.2 266.5h.01M168.4 210.1h.01M224.6 254.0h.01M90.4 209.0h.01M221.5 322.0h.01M126.4 260.5h.01M231.3 214.4h.01M242.9 213.7h.01M163.3 275.3h.01M121.2 222.3h.01M208.1 312.5h.01M292.1 150.5h.01M164.6 330.7h.01M96.4 242.8h.01M204.8 325.2h.01M301.4 192.0h.01M255.8 243.9h.01M247.7 223.8h.01M270.0 271.4h.01M210.2 259.6h.01M110.4 274.1h.01M122.8 263.5h.01M265.8 171.1h.01M237.9 166.6h.01M205.1 260.1h.01M234.8 264.2h.01M88.4 274.6h.01M129.4 214.5h.01M315.8 96.6h.01M51.6 201.2h.01M270.8 202.4h.01M185.0 331.7h.01M306.3 97.5h.01M125.0 164.3h.01M214.0 270.4h.01M95.1 239.0h.01M164.5 254.4h.01M274.0 187.5h.01M243.9 311.5h.01M243.5 268.1h.01M125.9 215.3h.01M267.5 249.1h.01M265.3 67.3h.01M199.7 206.6h.01M193.1 324.0h.01M230.4 223.2h.01M176.8 260.2h.01M78.3 258.1h.01M179.6 202.9h.01M274.1 273.5h.01M106.2 236.7h.01M107.5 253.6h.01M113.3 266.0h.01M98.4 316.7h.01M333.0 107.9h.01M177.1 236.1h.01M95.8 249.9h.01M85.6 183.9h.01M243.9 272.4h.01M291.4 96.9h.01M82.1 172.0h.01M330.2 111.0h.01M131.1 231.0h.01M266.1 193.3h.01M238.9 267.2h.01M106.4 274.4h.01M230.8 329.5h.01M264.7 245.4h.01M227.5 287.5h.01M114.4 230.8h.01M248.2 295.7h.01M234.0 318.0h.01M199.9 261.8h.01M175.7 228.4h.01M129.2 269.2h.01M87.6 280.5h.01M122.1 334.0h.01M294.5 133.9h.01M223.6 333.2h.01M311.5 104.2h.01M102.7 274.4h.01M103.4 218.9h.01M216.2 310.7h.01M226.4 172.5h.01M102.9 278.4h.01M63.6 214.7h.01M187.7 326.5h.01M189.9 315.9h.01M75.3 248.8h.01M270.7 198.8h.01M197.9 198.5h.01M265.4 256.0h.01M216.6 222.3h.01M164.2 213.3h.01M151.0 204.8h.01M123.4 217.7h.01M242.6 275.4h.01M207.3 181.4h.01M176.6 247.8h.01M135.5 233.1h.01M112.5 271.2h.01M154.6 213.9h.01M107.4 159.4h.01M133.7 215.2h.01M115.7 237.8h.01M245.8 204.8h.01M251.4 283.7h.01M138.6 295.6h.01M238.7 213.9h.01M168.5 308.1h.01M122.1 268.8h.01M71.7 228.3h.01M113.7 249.6h.01M226.5 331.5h.01M271.7 218.5h.01M85.7 218.4h.01M167.5 278.7h.01M67.9 250.4h.01M73.1 204.3h.01M80.7 253.0h.01M109.7 266.3h.01M69.9 193.6h.01M87.5 174.7h.01M106.0 176.0h.01M172.5 219.5h.01M94.4 254.4h.01M139.9 166.5h.01M91.3 258.8h.01M270.5 263.9h.01M244.1 302.0h.01M90.3 236.5h.01M220.7 249.6h.01M255.1 284.1h.01M273.7 267.5h.01M139.0 262.9h.01M160.4 211.2h.01M163.6 178.1h.01M227.8 324.3h.01M212.6 313.4h.01M295.6 212.4h.01M177.3 211.3h.01M203.6 314.1h.01M180.5 259.4h.01M87.1 199.9h.01M167.4 229.2h.01M296.6 199.9h.01M214.5 307.3h.01"/>
<path stroke="#1a1a1a" stroke-width="2.86" stroke-linecap="round" fill="none" d="M249.5 292.0h.01M252.4 185.2h.01M302.0 179.8h.01M119.4 206.9h.01M172.5 210.5h.01M161.3 314.8h.01M249.5 179.0h.01M141.0 271.5h.01M143.3 220.6h.01M123.5 301.0h.01M163.8 259.2h.01M142.5 297.0h.01M168.7 185.7h.01M279.7 266.3h.01M132.9 311.8h.01M102.2 317.4h.01M251.6 304.4h.01M266.3 201.2h.01M143.2 293.6h.01M107.4 294.8h.01M179.1 277.9h.01M180.8 194.3h.01M64.3 236.9h.01M147.4 179.0h.01M148.4 224.8h.01M105.7 282.2h.01M215.0 205.5h.01M178.4 292.6h.01M89.3 270.5h.01M150.8 213.4h.01M168.4 243.4h.01M159.4 264.1h.01M55.3 204.5h.01M105.3 295.0h.01M158.3 267.1h.01M131.1 302.4h.01M252.3 293.9h.01M116.2 287.1h.01M201.3 307.5h.01M100.0 293.2h.01M57.8 191.0h.01M203.1 277.1h.01M126.9 305.9h.01M159.3 262.0h.01M236.0 170.8h.01M156.9 208.1h.01M135.1 228.3h.01M245.6 177.7h.01M126.2 284.8h.01M260.8 299.0h.01M241.6 304.5h.01M229.1 277.6h.01M107.4 288.5h.01M122.6 284.1h.01M144.2 228.8h.01M181.3 308.4h.01M156.0 291.4h.01M171.4 277.4h.01M212.9 317.7h.01M240.1 197.6h.01M111.9 206.5h.01M234.3 286.2h.01M294.4 117.2h.01M152.6 206.4h.01M213.6 281.7h.01M115.0 277.4h.01M130.6 314.6h.01M290.7 135.8h.01M121.9 303.7h.01M256.5 196.1h.01M133.3 318.8h.01M257.2 313.2h.01M172.6 187.9h.01M121.7 208.8h.01M211.6 241.5h.01M102.9 293.1h.01M161.8 322.6h.01M65.7 189.9h.01M151.5 326.0h.01M101.4 319.2h.01M218.4 206.3h.01M258.8 304.1h.01M60.3 210.4h.01M280.6 253.0h.01M85.8 260.6h.01M79.0 234.8h.01M164.4 283.2h.01M263.6 196.8h.01M93.5 298.3h.01M298.9 196.0h.01M202.6 205.2h.01M202.4 274.6h.01M101.8 195.3h.01M188.1 262.3h.01M151.8 269.1h.01M262.6 308.7h.01M134.2 296.7h.01M165.9 270.1h.01M140.0 226.6h.01M283.7 255.0h.01M137.1 325.7h.01M253.0 316.0h.01M142.6 286.8h.01M208.5 281.8h.01M175.8 205.0h.01M132.7 212.4h.01M161.6 265.1h.01M263.1 312.0h.01M231.0 266.3h.01M249.7 321.9h.01M106.0 278.6h.01M302.2 187.5h.01M235.0 268.8h.01M257.3 201.8h.01M152.6 291.3h.01M217.5 318.5h.01M171.0 274.0h.01M256.8 181.8h.01M212.6 285.0h.01M159.9 184.2h.01M139.8 278.0h.01M155.7 183.5h.01M104.4 302.4h.01M136.0 280.5h.01M219.4 285.4h.01M116.4 212.4h.01M104.4 326.7h.01M168.0 261.8h.01M108.4 284.6h.01M254.8 296.2h.01M144.7 215.2h.01M116.1 280.5h.01M115.5 269.6h.01M140.7 212.9h.01M232.6 282.8h.01M99.5 289.8h.01M130.2 207.0h.01M51.0 173.6h.01M194.6 189.7h.01M217.1 283.1h.01M206.9 284.4h.01M254.6 186.9h.01M202.0 279.5h.01M242.9 320.6h.01M225.5 312.5h.01M158.0 317.3h.01M221.2 313.1h.01M163.0 287.9h.01M221.7 208.4h.01M130.1 321.4h.01M256.2 318.1h.01M93.8 283.6h.01M180.3 283.2h.01M252.6 176.9h.01M245.4 285.8h.01M151.2 272.5h.01M148.4 274.5h.01M136.7 328.0h.01M140.0 322.5h.01M150.0 221.9h.01M101.0 191.5h.01M233.5 315.2h.01M210.5 274.5h.01M139.6 176.3h.01M243.7 180.0h.01M127.8 309.1h.01M293.4 140.4h.01M266.2 302.7h.01M299.0 187.6h.01M154.9 219.9h.01M208.0 320.7h.01M263.1 318.7h.01M124.5 298.0h.01M149.8 278.3h.01M262.5 186.8h.01M258.7 309.0h.01M136.5 211.7h.01M94.9 302.0h.01M271.3 293.0h.01M195.0 296.0h.01M155.3 224.7h.01M296.5 223.5h.01M221.2 315.9h.01M183.1 200.3h.01M185.0 265.3h.01M150.7 311.3h.01M211.2 305.9h.01M119.0 173.1h.01M101.0 287.0h.01M199.6 279.8h.01M69.3 212.3h.01M113.1 210.8h.01M265.1 314.9h.01M237.3 318.4h.01M59.5 214.7h.01M215.1 245.0h.01M299.6 183.5h.01M56.7 208.7h.01M142.5 281.6h.01M211.4 288.5h.01M211.5 179.8h.01M248.1 319.3h.01M185.8 296.7h.01M198.2 321.2h.01M283.9 250.2h.01M250.0 185.0h.01M129.4 307.2h.01M101.1 313.0h.01M67.1 215.1h.01M174.2 275.0h.01M103.0 180.1h.01M163.5 326.2h.01M158.0 314.0h.01M152.5 276.4h.01M235.8 276.0h.01M165.6 246.0h.01M93.5 279.6h.01M262.9 252.4h.01M227.1 309.3h.01M109.6 276.8h.01M67.2 220.4h.01M249.5 182.0h.01M265.3 188.6h.01M274.0 290.8h.01M218.0 266.6h.01M290.3 251.3h.01M176.5 207.8h.01M181.6 280.4h.01M69.9 209.0h.01M198.1 307.4h.01M153.9 272.3h.01M237.3 197.0h.01M139.0 269.3h.01M229.2 263.1h.01M239.9 307.8h.01M156.0 307.7h.01M245.9 181.7h.01M243.8 282.2h.01M152.3 333.4h.01M162.2 267.2h.01M246.2 200.9h.01M236.4 209.3h.01M183.3 262.3h.01M165.6 272.8h.01M144.5 224.6h.01M153.0 321.9h.01M240.9 318.8h.01M133.4 326.8h.01M165.1 260.9h.01M263.1 192.3h.01M101.0 315.5h.01M301.2 151.9h.01M215.0 261.1h.01M247.2 289.7h.01M150.5 218.7h.01M202.3 272.6h.01M148.0 200.7h.01M144.6 211.8h.01M143.2 279.0h.01M265.8 184.3h.01M163.0 270.3h.01M160.6 208.1h.01M51.1 177.0h.01M246.7 325.6h.01M136.7 320.1h.01M147.4 278.7h.01M260.6 195.0h.01M269.0 299.5h.01M96.6 278.0h.01M247.7 283.5h.01M225.5 274.7h.01M101.5 283.6h.01M175.6 277.6h.01M130.0 283.4h.01M167.7 274.9h.01M200.0 276.8h.01M148.4 321.4h.01M200.7 185.7h.01M238.1 228.2h.01M244.9 317.3h.01M262.9 200.8h.01M222.5 268.4h.01M133.2 300.4h.01M205.1 279.6h.01M238.2 298.5h.01M294.2 245.1h.01M152.7 216.3h.01M145.4 290.3h.01M101.5 187.8h.01M132.5 221.9h.01M263.9 300.4h.01M158.1 205.8h.01M189.0 199.2h.01M213.0 321.3h.01M219.1 202.6h.01M124.8 309.0h.01M135.5 174.8h.01M164.1 207.7h.01M160.0 270.4h.01M199.0 194.8h.01M244.2 292.8h.01M126.0 300.5h.01M150.9 318.0h.01M162.5 311.5h.01M192.3 263.5h.01M114.3 317.2h.01M146.8 311.1h.01M188.9 308.5h.01M294.9 191.0h.01M261.9 189.9h.01M100.6 280.5h.01M135.3 329.9h.01M112.3 277.9h.01M162.0 318.7h.01M246.6 299.1h.01M269.2 305.7h.01M239.0 209.5h.01M171.4 326.9h.01M252.5 319.2h.01M105.8 299.4h.01M231.4 313.0h.01M220.1 288.7h.01M249.7 287.1h.01M66.6 246.5h.01M223.9 308.8h.01M259.5 182.0h.01M143.2 269.7h.01M134.6 323.5h.01M127.0 315.2h.01M111.3 282.0h.01M147.0 314.2h.01M214.6 286.8h.01M297.9 209.1h.01M90.4 282.6h.01M235.4 211.0h.01M280.5 77.8h.01M258.6 185.7h.01M130.1 304.9h.01M211.2 278.7h.01M229.5 309.7h.01M114.7 188.0h.01M61.9 218.7h.01M239.3 279.9h.01M134.7 314.9h.01M152.9 212.0h.01M180.5 263.5h.01M132.9 307.5h.01M255.6 174.4h.01M251.8 299.2h.01M157.6 321.7h.01M108.8 279.7h.01M152.5 223.5h.01M123.5 190.3h.01M138.5 291.9h.01M255.9 291.8h.01M189.0 295.0h.01M192.2 187.5h.01M252.6 289.9h.01M173.6 280.9h.01M97.5 286.3h.01M217.4 263.5h.01M102.0 240.7h.01M148.1 317.6h.01M97.4 282.6h.01M176.8 283.3h.01M126.5 208.6h.01M131.5 209.8h.01M222.0 255.2h.01M239.3 276.7h.01M201.0 198.1h.01M140.3 330.3h.01M147.9 308.8h.01M90.1 278.4h.01M174.7 292.8h.01M176.0 192.2h.01M119.1 283.2h.01M141.3 318.5h.01M245.3 314.4h.01M136.0 303.3h.01M206.6 273.0h.01M120.9 300.4h.01M261.7 248.6h.01M158.4 311.0h.01M172.6 289.3h.01M150.9 281.0h.01M167.7 326.9h.01M145.6 267.6h.01M261.8 184.0h.01M125.4 270.9h.01M133.1 282.4h.01M150.1 288.5h.01M141.7 284.0h.01M243.5 191.6h.01M240.2 289.9h.01M166.8 318.5h.01M162.8 257.2h.01M138.3 219.9h.01M118.4 189.4h.01M233.6 271.8h.01M104.0 297.3h.01M219.2 256.5h.01M171.7 322.7h.01M242.7 315.7h.01M266.9 297.9h.01M147.3 263.6h.01M248.7 316.5h.01M53.2 197.4h.01M253.7 183.6h.01M123.3 280.9h.01M144.9 317.6h.01M256.3 185.0h.01M123.7 210.3h.01M104.6 287.1h.01M128.5 299.9h.01M251.8 200.3h.01M141.7 290.3h.01M61.2 198.1h.01M243.6 288.6h.01M82.4 259.7h.01M214.2 290.0h.01M139.7 230.3h.01M257.5 299.0h.01M151.8 314.6h.01M147.9 211.8h.01M275.6 72.7h.01M140.5 222.7h.01M192.1 295.2h.01M124.0 306.0h.01M173.3 260.9h.01M139.2 273.7h.01M73.9 253.0h.01M99.7 276.2h.01M242.5 330.2h.01M84.8 256.6h.01M90.6 286.0h.01M259.7 64.4h.01M203.1 319.8h.01M155.1 313.6h.01M159.2 308.1h.01M209.8 270.5h.01M207.9 306.5h.01M255.1 302.3h.01M115.3 207.0h.01M302.2 170.2h.01M127.8 302.9h.01M208.3 287.6h.01M146.2 281.6h.01M160.3 333.4h.01M125.0 303.3h.01M122.4 286.7h.01M135.6 309.6h.01M100.0 321.3h.01M57.4 198.2h.01M221.0 223.1h.01M223.0 211.1h.01M216.5 248.6h.01M179.1 190.4h.01M166.6 322.8h.01M120.3 211.7h.01M137.1 322.9h.01M131.0 280.0h.01M114.4 190.9h.01M172.2 306.9h.01M64.4 210.6h.01M248.9 302.0h.01M241.2 311.6h.01M133.9 278.9h.01M260.0 203.7h.01M128.6 296.8h.01M156.8 270.0h.01M137.0 277.0h.01M100.2 212.0h.01M139.0 299.5h.01M145.7 203.6h.01M124.3 172.7h.01M131.1 298.3h.01M225.2 270.9h.01M226.8 259.7h.01M174.0 213.7h.01M154.5 317.9h.01M104.2 285.0h.01M102.0 295.7h.01M250.3 313.6h.01M55.5 200.8h.01M206.4 275.9h.01M148.1 291.9h.01M145.3 207.5h.01M259.2 179.1h.01M229.1 226.9h.01M178.3 286.6h.01M169.5 320.5h.01M103.3 289.8h.01M290.5 247.7h.01M239.9 201.4h.01M116.0 172.4h.01M241.3 166.6h.01M137.6 215.2h.01M262.0 304.1h.01M163.5 184.2h.01M159.1 289.6h.01M128.7 222.8h.01M100.9 199.4h.01M109.1 206.2h.01M62.3 222.6h.01M117.6 209.4h.01M127.5 281.8h.01M59.6 195.7h.01M130.9 309.7h.01M266.8 294.2h.01M175.1 307.2h.01M155.3 265.7h.01M85.2 264.3h.01M256.9 177.4h.01M298.0 191.2h.01M242.8 297.2h.01M129.4 317.9h.01M254.8 199.2h.01M64.8 241.8h.01M142.5 276.0h.01M143.2 273.1h.01M292.8 113.2h.01M69.0 198.3h.01M172.7 191.2h.01M180.3 198.4h.01M154.3 268.4h.01M245.7 322.2h.01M247.3 312.8h.01M225.2 257.0h.01M114.4 284.0h.01M111.3 173.5h.01M115.0 273.8h.01M243.8 278.7h.01M154.2 208.1h.01M265.5 306.3h.01M184.8 197.2h.01M253.7 312.9h.01M221.9 306.5h.01M102.6 177.0h.01M161.8 307.0h.01M269.6 295.7h.01M296.9 143.9h.01M259.6 198.7h.01M109.4 175.8h.01M128.2 312.0h.01M237.7 287.3h.01M132.2 323.5h.01M173.0 285.7h.01M243.0 201.5h.01M121.2 307.7h.01M203.0 264.3h.01M204.3 283.0h.01M59.5 205.3h.01M146.1 286.1h.01M110.4 312.0h.01M258.8 293.6h.01M148.1 215.4h.01"/>
<path stroke="#1a1a1a" stroke-width="3.34" stroke-linecap="round" fill="none" d="M117.8 306.6h.01M108.4 298.2h.01M149.0 181.3h.01M110.6 293.2h.01M159.1 253.3h.01M160.9 255.5h.01M176.9 195.7h.01M264.0 181.2h.01M224.1 304.8h.01M138.8 303.2h.01M106.3 321.0h.01M184.0 268.2h.01M239.9 283.4h.01M141.8 314.8h.01M135.6 284.1h.01M62.8 203.0h.01M123.6 292.3h.01M121.0 329.7h.01M110.3 202.4h.01M59.4 201.6h.01M237.0 315.2h.01M104.0 313.5h.01M112.8 299.8h.01M117.0 325.0h.01M190.1 286.0h.01M223.2 292.9h.01M227.0 305.9h.01M111.3 314.9h.01M257.0 189.2h.01M169.1 294.2h.01M222.4 265.3h.01M183.1 296.1h.01M104.2 322.9h.01M197.7 297.4h.01M234.9 295.8h.01M188.3 267.8h.01M138.6 281.6h.01M126.6 289.5h.01M131.3 285.5h.01M181.5 276.9h.01M104.8 202.5h.01M64.0 197.7h.01M200.9 297.2h.01M98.2 313.5h.01M138.0 315.0h.01M238.7 313.4h.01M197.5 286.5h.01M215.1 180.1h.01M225.9 290.7h.01M112.9 304.9h.01M153.5 306.3h.01M111.0 318.0h.01M146.1 270.8h.01M198.4 265.5h.01M200.0 287.5h.01M210.4 202.5h.01M145.9 276.9h.01M178.0 274.7h.01M167.2 268.1h.01M223.0 290.0h.01M118.2 302.6h.01M157.5 185.1h.01M239.7 181.3h.01M101.8 303.9h.01M111.3 189.3h.01M116.0 297.0h.01M104.5 213.0h.01M145.3 274.1h.01M170.6 297.1h.01M222.1 257.4h.01M144.4 177.8h.01M127.6 188.2h.01M203.2 201.6h.01M119.4 287.8h.01M76.7 254.7h.01M119.9 193.2h.01M104.6 291.8h.01M286.8 252.3h.01M105.6 315.2h.01M128.5 287.0h.01M114.9 321.7h.01M168.2 188.7h.01M162.3 251.2h.01M135.4 192.4h.01M105.9 318.1h.01M267.2 310.1h.01M114.5 302.0h.01M107.0 292.0h.01M55.8 183.0h.01M98.3 295.9h.01M281.5 81.3h.01M107.0 301.0h.01M133.2 287.5h.01M243.1 198.1h.01M232.3 275.2h.01M229.9 206.0h.01M238.8 185.3h.01M112.6 185.9h.01M99.7 306.9h.01M135.5 293.2h.01M119.1 304.9h.01M202.8 295.2h.01M252.9 195.5h.01M180.1 295.7h.01M108.0 316.5h.01M238.6 310.9h.01M208.1 278.6h.01M172.6 193.9h.01M110.1 212.9h.01M238.8 182.6h.01M137.1 332.2h.01M113.6 194.7h.01M299.7 147.6h.01M157.4 256.5h.01M62.8 200.3h.01M237.8 192.2h.01M263.0 169.2h.01M256.0 333.0h.01M109.9 192.1h.01M169.9 205.3h.01M155.0 259.2h.01M97.0 309.2h.01M209.1 291.4h.01M185.9 293.9h.01M232.8 204.4h.01M233.7 227.1h.01M175.1 202.5h.01M177.6 296.7h.01M164.2 204.0h.01M66.3 195.5h.01M225.4 261.9h.01M62.2 183.5h.01M64.5 192.7h.01M190.2 265.7h.01M132.0 329.3h.01M230.6 306.3h.01M220.5 177.1h.01M225.5 186.1h.01M102.7 309.0h.01M148.7 266.2h.01M259.7 188.7h.01M127.6 292.7h.01M110.5 196.5h.01M133.9 332.2h.01M202.6 289.1h.01M160.9 259.3h.01M106.1 304.9h.01M162.1 247.7h.01M129.9 190.9h.01M247.5 194.5h.01M259.7 324.1h.01M166.5 288.9h.01M112.0 308.5h.01M201.8 285.4h.01M59.0 186.4h.01M115.0 306.5h.01M110.0 289.8h.01M80.6 256.2h.01M163.0 262.5h.01M169.0 192.0h.01M176.6 199.5h.01M151.0 307.7h.01M52.7 184.9h.01M235.0 313.0h.01M240.1 316.5h.01M143.9 311.5h.01M103.6 320.1h.01M182.5 285.6h.01M175.9 272.3h.01M116.0 185.2h.01M125.0 312.2h.01M61.5 190.0h.01M109.1 308.4h.01M137.7 317.8h.01M180.3 273.1h.01M106.8 329.4h.01M148.9 270.9h.01M56.6 194.4h.01M121.5 191.6h.01M116.7 192.7h.01M121.9 326.8h.01M220.7 263.7h.01M229.1 291.7h.01M259.1 174.2h.01M201.8 281.9h.01M246.0 193.3h.01M298.2 180.2h.01M203.7 195.9h.01M50.8 182.8h.01M220.0 292.0h.01M122.4 296.2h.01M245.8 198.5h.01M93.9 292.1h.01M173.1 264.0h.01M192.9 282.1h.01M224.2 174.8h.01M117.5 319.6h.01M100.8 301.1h.01M257.2 164.0h.01M229.6 269.7h.01M239.8 301.5h.01M108.5 303.0h.01M301.5 166.4h.01M244.8 165.7h.01M238.9 332.5h.01M96.9 293.0h.01M98.0 301.5h.01M155.3 204.9h.01M94.2 287.3h.01M236.2 281.4h.01M169.4 271.2h.01M277.2 76.2h.01M120.7 315.7h.01M247.2 191.7h.01M207.4 200.8h.01M198.0 275.0h.01M259.9 166.9h.01M161.1 202.1h.01M188.0 297.5h.01M194.6 307.3h.01M126.9 185.8h.01M226.6 263.2h.01M114.0 293.2h.01M123.8 288.7h.01M249.3 173.9h.01M162.7 292.5h.01M179.3 266.0h.01M265.4 64.1h.01M124.5 193.0h.01M165.8 263.2h.01M265.2 177.5h.01M62.9 195.1h.01M120.3 290.9h.01M204.8 286.7h.01M62.7 206.8h.01M229.2 273.3h.01M177.6 306.0h.01M95.8 290.0h.01M53.1 192.9h.01M153.5 183.2h.01M136.9 306.7h.01M108.6 321.2h.01M119.3 297.2h.01M253.7 322.1h.01M260.4 313.8h.01M60.7 192.9h.01M234.5 185.0h.01M106.5 297.5h.01M142.2 300.5h.01M235.9 182.9h.01M112.5 321.5h.01M197.1 293.8h.01M236.3 189.8h.01M159.0 292.5h.01M198.5 189.3h.01M108.0 203.3h.01M103.0 306.0h.01M236.8 284.0h.01M116.9 294.9h.01M100.5 298.0h.01M104.3 317.3h.01M119.3 185.3h.01M109.7 305.2h.01M91.5 289.1h.01M123.8 315.5h.01M195.5 286.5h.01M186.7 285.6h.01M125.0 206.2h.01M231.9 310.1h.01M130.1 291.9h.01M110.4 330.1h.01M116.9 291.5h.01M126.6 321.4h.01M188.9 288.8h.01M107.2 194.6h.01M200.7 267.7h.01M241.5 285.8h.01M228.5 199.2h.01M246.6 329.7h.01M261.8 60.9h.01M164.9 266.4h.01M115.5 204.1h.01M104.1 197.8h.01M154.1 310.5h.01M177.5 280.2h.01M170.2 262.9h.01M202.1 304.8h.01M180.5 289.2h.01M206.7 269.2h.01M260.0 316.9h.01M118.0 300.0h.01M155.6 263.1h.01M138.9 285.6h.01M184.6 288.2h.01M114.6 312.2h.01M56.0 186.0h.01M245.2 319.4h.01M173.1 271.8h.01M117.6 195.4h.01M130.5 289.2h.01M59.0 183.0h.01M227.1 188.2h.01M244.9 333.4h.01M194.2 288.0h.01M240.4 314.5h.01M213.1 303.8h.01M264.0 173.6h.01M261.9 177.5h.01M53.1 188.5h.01M50.9 180.1h.01M151.4 264.1h.01M118.2 309.1h.01M192.9 285.0h.01M133.0 190.3h.01M194.7 265.4h.01M125.1 188.9h.01M124.2 185.6h.01M231.3 210.5h.01M108.0 314.5h.01M150.3 201.9h.01M111.5 302.0h.01M267.4 180.9h.01M116.0 304.3h.01M135.9 287.4h.01M247.5 185.1h.01M115.0 309.0h.01M142.4 333.5h.01M109.4 199.5h.01M151.6 182.1h.01M118.1 322.9h.01M106.3 309.6h.01M204.6 304.6h.01M147.8 306.1h.01M226.1 206.0h.01M261.5 181.0h.01M65.7 205.6h.01M213.1 201.6h.01M96.6 298.3h.01M172.0 293.8h.01M103.5 315.5h.01M196.0 284.5h.01M204.7 271.0h.01M113.4 289.6h.01M71.3 251.1h.01M67.0 202.5h.01M121.9 174.0h.01M106.1 180.6h.01M119.9 326.1h.01M69.4 205.8h.01M120.1 294.0h.01M115.0 299.0h.01M109.7 326.9h.01M66.8 209.1h.01M126.2 295.0h.01M118.5 312.0h.01M287.7 92.4h.01M123.0 320.5h.01M250.3 325.4h.01M127.4 173.8h.01M119.1 204.5h.01M241.6 181.2h.01M272.9 69.9h.01M129.8 325.2h.01M105.2 307.3h.01M131.6 294.6h.01M240.8 179.1h.01M152.0 266.5h.01M233.7 279.1h.01M150.9 294.5h.01M176.3 264.0h.01M122.0 311.5h.01M99.6 318.2h.01M296.4 186.4h.01M218.5 177.2h.01M248.3 176.1h.01M152.5 261.3h.01M253.9 189.2h.01M63.2 227.0h.01M110.6 298.8h.01M184.2 278.7h.01M199.7 290.1h.01M261.2 321.5h.01M66.0 199.6h.01M220.3 253.0h.01M254.1 324.9h.01M99.5 304.0h.01M242.3 183.3h.01M165.8 186.8h.01M117.4 315.2h.01M191.3 298.5h.01M138.2 289.1h.01M172.1 203.8h.01M112.5 296.5h.01M212.1 267.1h.01M106.6 200.7h.01M62.4 187.0h.01M250.0 329.5h.01M149.0 268.5h.01M121.5 187.4h.01M172.7 207.0h.01M53.9 176.1h.01M192.3 268.1h.01M101.7 324.1h.01M56.0 189.2h.01M219.1 304.6h.01M107.0 324.2h.01M106.9 197.9h.01M222.7 204.8h.01M131.9 175.0h.01M127.1 191.2h.01M199.1 272.8h.01M257.0 325.7h.01M103.8 311.3h.01M123.9 329.1h.01M196.9 278.5h.01M125.2 318.3h.01M258.5 192.5h.01M211.2 182.9h.01M133.5 291.2h.01M107.1 312.1h.01M231.0 171.6h.01M170.3 190.0h.01M129.5 188.5h.01M109.3 296.0h.01M109.6 300.8h.01M169.9 290.7h.01M219.3 260.6h.01M229.5 185.5h.01M182.3 293.7h.01M94.3 295.3h.01M97.3 304.0h.01M204.0 267.6h.01M238.4 179.7h.01M189.5 292.2h.01M100.0 310.0h.01M166.0 292.5h.01M127.9 205.2h.01M196.7 276.6h.01M196.2 192.5h.01M157.8 259.9h.01M227.6 210.5h.01M103.0 299.7h.01M112.9 202.3h.01M182.8 275.0h.01M111.5 286.5h.01M245.0 185.1h.01M258.5 320.2h.01M160.8 204.8h.01"/>
<path stroke="#1a1a1a" stroke-width="3.95" stroke-linecap="round" fill="none" d="M261.5 174.0h.01M160.0 187.1h.01M250.5 171.0h.01M184.5 299.1h.01M140.2 304.8h.01M167.7 193.4h.01M247.5 197.5h.01M235.3 196.1h.01M143.0 205.0h.01M234.1 198.9h.01M243.3 171.3h.01M234.9 299.0h.01M150.0 195.7h.01M186.8 305.5h.01M153.9 188.1h.01M250.3 195.7h.01M131.7 192.9h.01M227.3 193.1h.01M223.5 195.0h.01M223.9 192.1h.01M237.9 304.8h.01M132.7 178.4h.01M192.4 275.2h.01M232.6 190.1h.01M125.0 198.3h.01M239.1 170.6h.01M144.3 186.6h.01M219.8 179.4h.01M213.0 292.7h.01M249.3 188.0h.01M133.9 187.4h.01M180.0 303.0h.01M233.6 196.2h.01M163.5 196.5h.01M238.8 194.8h.01M244.8 172.0h.01M153.8 191.0h.01M150.5 186.5h.01M139.1 185.9h.01M157.4 202.4h.01M130.0 195.5h.01M217.6 195.2h.01M224.0 181.2h.01M223.1 260.2h.01M117.1 333.2h.01M186.5 299.5h.01M199.3 285.2h.01M206.9 195.9h.01M215.9 300.8h.01M244.8 196.6h.01M189.0 277.5h.01M241.8 195.8h.01M194.8 275.6h.01M223.0 297.0h.01M137.8 187.6h.01M235.3 306.0h.01M224.3 178.2h.01M216.2 197.4h.01M116.5 176.1h.01M207.6 266.3h.01M255.7 330.6h.01M158.2 298.4h.01M186.8 273.8h.01M187.7 302.0h.01M193.3 279.4h.01M218.1 186.8h.01M144.4 190.7h.01M124.1 325.9h.01M216.4 292.0h.01M184.1 272.7h.01M124.4 203.7h.01M167.0 202.0h.01M153.0 298.7h.01M190.3 279.6h.01M114.1 174.8h.01M205.9 293.9h.01M213.5 296.5h.01M129.5 200.0h.01M166.0 190.0h.01M224.2 298.6h.01M127.3 201.7h.01M152.4 185.2h.01M147.1 192.8h.01M236.2 194.2h.01M170.6 195.8h.01M121.2 202.9h.01M216.5 188.7h.01M122.2 205.8h.01M157.5 195.7h.01M244.8 168.9h.01M109.8 178.8h.01M137.3 190.0h.01M213.3 263.9h.01M123.8 179.4h.01M127.0 324.9h.01M109.0 181.0h.01M133.3 200.0h.01M155.5 296.5h.01M237.2 308.0h.01M143.7 308.3h.01M208.6 297.8h.01M175.7 267.1h.01M104.6 191.9h.01M197.6 270.1h.01M137.9 201.5h.01M226.6 300.8h.01M211.8 205.4h.01M148.2 183.4h.01M106.7 189.1h.01M170.8 302.2h.01M195.1 280.9h.01M209.8 196.8h.01M189.9 270.5h.01M186.8 279.4h.01M241.8 172.6h.01M140.2 182.8h.01M222.1 181.9h.01M235.9 302.4h.01M162.9 194.1h.01M285.7 88.9h.01M157.1 199.1h.01M121.0 323.0h.01M202.5 189.0h.01M159.8 294.4h.01M249.2 199.1h.01M117.3 182.9h.01M177.2 300.5h.01M226.2 190.8h.01M221.2 303.6h.01M129.9 183.8h.01M252.3 192.0h.01M140.7 199.9h.01M179.5 305.8h.01M228.7 178.0h.01M188.5 275.5h.01M113.0 328.0h.01M205.6 189.8h.01M180.0 268.1h.01M207.8 295.0h.01M220.2 181.0h.01M124.1 201.1h.01M211.5 195.5h.01M137.3 183.0h.01M234.0 178.5h.01M236.7 178.0h.01M126.0 332.1h.01M247.0 189.5h.01M233.5 308.0h.01M251.5 188.6h.01M234.7 173.7h.01M240.5 189.1h.01M162.0 295.8h.01M220.9 258.8h.01M177.7 270.3h.01M225.0 301.0h.01M119.0 178.7h.01M248.3 165.6h.01M190.6 275.8h.01M168.0 303.9h.01M221.1 188.4h.01M226.3 183.5h.01M252.7 332.2h.01M159.9 199.8h.01M191.8 271.2h.01M217.5 180.0h.01M220.8 185.0h.01M211.0 293.8h.01M226.8 196.3h.01M170.7 304.9h.01M105.2 184.1h.01M199.9 293.3h.01M124.2 181.0h.01M172.9 200.9h.01M142.6 198.8h.01M109.6 333.1h.01M154.7 294.2h.01M154.2 202.7h.01M203.0 302.3h.01M121.3 180.0h.01M224.8 202.4h.01M164.0 201.3h.01M133.3 184.2h.01M208.8 188.0h.01M218.4 199.4h.01M249.3 333.2h.01M136.7 194.9h.01M145.9 296.9h.01M108.2 318.8h.01M189.0 304.5h.01M223.0 262.5h.01M205.6 185.8h.01M196.9 301.7h.01M114.6 330.6h.01M174.0 304.7h.01M230.0 188.7h.01M137.3 206.0h.01M161.1 196.3h.01M194.5 299.6h.01M116.1 327.3h.01M231.2 176.2h.01M170.0 199.0h.01M194.3 292.9h.01M138.0 199.5h.01M53.8 180.5h.01M241.9 169.9h.01M185.0 303.5h.01M157.9 300.9h.01M153.0 195.8h.01M240.9 193.3h.01M231.8 199.8h.01M219.2 190.2h.01M162.9 198.9h.01M119.0 200.3h.01M140.0 206.0h.01M199.0 299.7h.01M149.5 300.0h.01M206.0 290.6h.01M198.9 304.1h.01M196.5 273.0h.01M135.0 181.2h.01M149.9 190.8h.01M171.3 269.0h.01M148.0 198.1h.01M159.8 193.0h.01M253.3 172.6h.01M206.9 192.9h.01M216.5 193.5h.01M146.8 184.8h.01M226.3 296.2h.01M233.0 304.7h.01M128.2 331.4h.01M197.8 280.6h.01M209.2 194.2h.01M223.1 185.3h.01M184.4 291.4h.01M164.6 296.3h.01M160.6 298.2h.01M182.1 298.9h.01M104.5 187.0h.01M162.5 191.0h.01M155.5 193.8h.01M152.7 201.6h.01M232.2 300.8h.01M123.0 331.5h.01M173.3 197.7h.01M165.0 193.3h.01M163.0 186.5h.01M109.3 187.3h.01M137.5 203.5h.01M153.2 199.4h.01M115.9 178.9h.01M188.1 282.4h.01M135.0 197.3h.01M109.2 183.0h.01M214.7 187.0h.01M255.0 192.5h.01M221.3 192.0h.01M210.0 303.2h.01M218.8 301.5h.01M203.0 292.0h.01M224.5 265.0h.01M142.6 189.2h.01M211.3 193.0h.01M157.4 294.2h.01M225.8 294.1h.01M230.8 302.8h.01M146.9 190.1h.01M226.2 303.1h.01M174.3 302.1h.01M169.1 300.2h.01M127.3 180.9h.01M226.5 298.5h.01M140.9 196.7h.01M125.6 182.2h.01M155.2 303.1h.01M162.5 303.6h.01M260.8 171.4h.01M232.2 194.8h.01M135.5 200.0h.01M217.0 182.5h.01M155.0 197.5h.01M224.0 189.1h.01M192.3 291.0h.01M172.1 299.9h.01M141.3 179.2h.01M228.9 297.2h.01M234.0 192.7h.01M129.5 329.5h.01M237.9 174.2h.01M219.7 196.9h.01M60.4 179.7h.01M125.6 175.7h.01M216.0 201.7h.01M98.2 299.6h.01M254.0 166.6h.01M122.0 199.5h.01M241.8 186.2h.01M196.3 267.8h.01M135.7 177.8h.01M120.5 319.2h.01M214.5 199.0h.01M138.0 311.8h.01M244.1 188.7h.01M248.0 169.2h.01M140.9 311.3h.01M155.0 300.5h.01M128.0 193.8h.01M218.2 192.2h.01M143.5 303.5h.01M251.0 167.8h.01M252.9 327.1h.01M194.3 270.0h.01M146.4 187.2h.01M151.2 197.6h.01M234.1 176.1h.01M135.9 185.1h.01M139.6 193.3h.01M181.6 270.5h.01M211.2 299.6h.01M145.3 182.5h.01M239.5 178.0h.01M142.0 185.5h.01M144.7 299.0h.01M159.5 197.0h.01M196.2 282.6h.01M149.5 297.2h.01M201.5 270.3h.01M119.9 182.1h.01M220.0 194.3h.01M118.0 202.5h.01M132.0 185.5h.01M143.3 193.2h.01M205.5 297.0h.01M117.5 180.5h.01M163.2 298.2h.01M127.3 178.2h.01M112.9 179.3h.01M212.8 197.2h.01M230.3 180.0h.01M186.9 290.7h.01M194.0 303.2h.01M125.8 195.2h.01M127.2 183.6h.01M210.8 298.3h.01M118.9 175.9h.01M129.7 181.3h.01M269.4 67.8h.01M130.0 186.5h.01M188.5 272.5h.01M131.9 197.9h.01M186.5 270.6h.01M197.2 291.6h.01M207.4 299.3h.01M230.4 299.8h.01M131.6 188.2h.01M147.3 303.0h.01M193.0 272.8h.01M112.7 182.5h.01M215.2 195.6h.01M259.2 169.6h.01M283.9 84.7h.01M211.2 296.6h.01M232.1 297.9h.01M255.9 328.1h.01M211.2 301.4h.01M155.8 298.6h.01M160.5 190.0h.01M205.3 301.0h.01M185.9 276.1h.01M198.8 282.9h.01M164.6 191.3h.01M246.5 187.4h.01M227.2 180.8h.01M120.9 196.0h.01M209.3 190.9h.01M220.0 298.0h.01M55.7 177.7h.01M256.9 322.8h.01M113.3 333.4h.01M213.9 193.9h.01M233.6 302.2h.01M213.9 182.9h.01M197.2 288.4h.01M208.9 184.8h.01M201.5 300.0h.01M132.7 206.9h.01M145.1 198.1h.01M110.0 324.0h.01M190.2 273.6h.01M252.0 164.1h.01M119.9 197.9h.01M200.2 302.2h.01M185.0 301.5h.01M194.6 273.2h.01M119.8 332.4h.01M190.3 283.2h.01M216.9 293.9h.01M228.7 174.8h.01M165.4 301.4h.01M249.0 196.5h.01M131.0 332.0h.01M228.0 203.5h.01M115.0 181.7h.01M161.6 300.3h.01M143.7 195.8h.01M145.3 306.2h.01M173.9 269.1h.01M200.9 192.1h.01M149.6 304.2h.01M223.5 300.5h.01M138.1 197.1h.01M222.3 177.6h.01M206.6 304.1h.01M122.9 195.4h.01M232.5 180.5h.01M234.4 180.8h.01M169.1 267.4h.01M171.5 266.0h.01M228.5 301.5h.01M115.9 200.9h.01M165.3 305.1h.01M221.7 295.1h.01M246.3 195.7h.01M139.3 308.4h.01M184.5 282.5h.01M158.5 190.5h.01M193.3 277.6h.01M138.0 179.8h.01M230.9 192.9h.01M135.0 202.5h.01M204.6 198.8h.01M174.5 296.0h.01M167.5 265.0h.01M213.5 300.5h.01M157.5 296.5h.01M226.5 267.8h.01M256.7 171.7h.01M233.6 201.8h.01M216.0 304.0h.01M113.2 177.0h.01M236.5 180.5h.01M226.5 177.1h.01M152.0 301.3h.01M143.1 181.4h.01M132.0 202.0h.01M246.9 172.7h.01M151.7 188.5h.01M208.0 301.7h.01M169.9 201.9h.01M167.0 295.3h.01M192.1 288.1h.01M229.2 195.3h.01M224.8 198.5h.01M212.2 189.2h.01M147.6 294.9h.01M124.0 323.3h.01M240.9 174.3h.01M141.9 306.6h.01M140.1 189.6h.01M228.8 190.8h.01M203.9 193.1h.01M135.5 188.5h.01M228.5 299.5h.01M229.0 182.3h.01M212.0 186.0h.01M232.7 187.2h.01M231.9 183.3h.01M133.1 204.7h.01M176.9 303.9h.01M127.4 329.3h.01M174.7 298.8h.01M182.2 291.2h.01M244.0 194.5h.01M122.6 183.3h.01M223.5 302.5h.01M157.0 188.0h.01M188.8 299.9h.01M226.9 265.5h.01M107.6 184.8h.01M182.5 302.5h.01M222.1 198.6h.01M144.9 200.7h.01M57.2 179.9h.01M132.5 182.0h.01M121.3 177.0h.01M142.2 208.4h.01M216.2 190.7h.01M196.3 304.9h.01M165.8 196.6h.01M209.7 263.8h.01M251.9 174.0h.01M253.0 329.5h.01M217.8 184.6h.01M253.9 170.1h.01M167.5 199.0h.01M159.7 303.1h.01M214.0 191.3h.01M191.2 301.9h.01M138.6 208.9h.01M127.0 196.5h.01M159.5 296.5h.01M113.5 198.5h.01M226.7 201.0h.01M216.9 298.1h.01M256.0 169.0h.01M235.4 310.1h.01M151.5 193.2h.01M129.5 176.6h.01M166.0 194.8h.01M215.7 296.0h.01M211.0 199.3h.01M250.0 193.5h.01M228.8 303.8h.01M168.3 196.0h.01M148.5 186.5h.01M239.0 176.5h.01M129.7 327.4h.01M130.1 203.6h.01M229.8 201.2h.01M102.5 183.2h.01M195.5 290.0h.01M179.9 299.9h.01M110.8 184.1h.01M165.5 199.0h.01M226.0 179.5h.01M163.0 188.5h.01M203.7 299.0h.01M236.8 312.0h.01M236.5 187.3h.01M133.1 195.1h.01M135.4 204.8h.01M244.3 174.9h.01M150.5 199.5h.01M191.6 305.5h.01M147.3 195.0h.01M231.0 203.0h.01M130.8 179.8h.01M157.6 305.0h.01M257.1 166.9h.01M208.0 198.3h.01M156.5 191.0h.01M242.1 176.8h.01M184.8 306.3h.01M143.0 202.3h.01M118.0 329.5h.01M209.5 295.5h.01M230.4 295.0h.01M113.3 324.9h.01M135.1 208.3h.01M151.9 303.8h.01M150.2 184.3h.01M110.5 321.0h.01M146.3 300.8h.01M222.1 202.0h.01M182.1 305.8h.01M221.4 300.6h.01M231.1 197.3h.01M219.1 295.2h.01M215.3 184.8h.01M249.7 191.0h.01M219.7 183.2h.01M128.3 198.0h.01M123.9 177.2h.01M152.9 296.3h.01M155.0 185.7h.01M149.0 188.5h.01M126.2 327.8h.01M166.8 298.3h.01M117.0 198.0h.01"/>
</svg>