<svg xmlns="http://www.w3.org/2000/svg" viewBox="0 0 360 432" role="img">
<path stroke="#1a1a1a" stroke-width="1.54" stroke-linecap="round" fill="none" d="M206.3 294.3h.01M254.9 92.4h.01M161.1 87.6h.01M229.0 53.7h.01M188.1 40.2h.01M45.8 384.1h.01M198.4 294.4h.01M190.6 109.0h.01M272.3 421.5h.01M296.1 402.8h.01M168.4 75.7h.01M278.0 418.7h.01M180.6 243.6h.01M317.4 382.1h.01M125.4 59.4h.01M159.6 122.4h.01M186.0 301.4h.01M251.4 140.7h.01M200.4 302.6h.01M132.3 96.8h.01M154.8 83.9h.01M152.4 72.3h.01M189.7 71.0h.01M239.9 198.6h.01M229.8 307.4h.01M199.8 90.4h.01M169.2 132.1h.01M147.2 205.6h.01M196.8 260.4h.01M81.5 163.5h.01M259.1 124.2h.01M158.2 222.2h.01M275.7 112.6h.01M237.2 305.6h.01M280.5 233.8h.01M269.0 149.2h.01M185.2 116.5h.01M236.2 277.7h.01M141.7 201.4h.01M159.6 108.4h.01M194.4 148.8h.01M194.3 79.6h.01M222.3 141.9h.01M216.2 300.3h.01M248.5 152.8h.01M256.9 285.0h.01M154.4 91.7h.01M203.3 109.3h.01M208.2 300.9h.01M76.1 413.0h.01M258.5 114.7h.01M193.5 306.7h.01M169.8 87.5h.01M185.5 124.5h.01M187.7 240.6h.01M245.8 228.6h.01M196.6 358.5h.01M196.3 232.4h.01M183.8 194.8h.01M224.9 214.6h.01M202.2 217.2h.01M279.2 265.6h.01M97.9 221.6h.01M168.7 118.5h.01M242.7 213.7h.01M214.5 148.6h.01M257.2 77.5h.01M156.9 65.2h.01M173.2 145.1h.01M222.8 297.2h.01M118.4 65.2h.01M182.4 36.6h.01M225.1 83.9h.01M216.3 118.3h.01M185.2 148.4h.01M266.8 109.4h.01M159.7 43.1h.01M214.2 87.0h.01M164.2 158.3h.01M290.6 406.4h.01M171.8 211.7h.01M205.1 119.1h.01M180.6 55.3h.01M206.4 155.6h.01M179.0 110.4h.01M155.8 216.0h.01M184.8 79.9h.01M286.4 209.8h.01M229.0 199.3h.01M287.3 365.1h.01M244.5 237.9h.01M192.4 206.3h.01M220.1 164.5h.01M247.4 83.7h.01M245.3 220.6h.01M235.2 195.3h.01M94.8 426.3h.01M80.2 209.3h.01M179.3 211.3h.01M179.1 43.6h.01M278.5 125.9h.01M278.4 119.1h.01M203.6 253.2h.01M203.8 44.2h.01M179.1 74.9h.01M157.4 77.2h.01M158.5 139.0h.01M244.0 202.2h.01M198.0 126.2h.01M148.8 138.3h.01M176.7 62.7h.01M154.4 52.3h.01M261.4 134.9h.01M184.5 103.4h.01M154.0 102.7h.01M227.9 292.4h.01M204.8 148.1h.01M201.7 53.9h.01M215.1 106.8h.01M181.6 68.3h.01M287.4 231.6h.01M154.8 134.2h.01M178.9 301.5h.01M160.6 57.5h.01M166.2 63.6h.01M246.5 160.1h.01M205.1 206.1h.01M237.7 230.6h.01M169.2 292.3h.01M205.4 427.9h.01M266.2 426.2h.01M240.5 284.2h.01M194.3 47.6h.01M75.0 157.6h.01M74.9 128.5h.01M291.9 367.2h.01M172.0 57.6h.01M87.4 211.0h.01M255.1 148.7h.01M220.5 130.0h.01M165.2 138.7h.01M220.6 50.8h.01M172.8 94.2h.01M142.6 134.4h.01M199.5 287.4h.01M209.7 97.4h.01M232.8 142.5h.01M148.8 96.9h.01M146.0 122.4h.01M186.7 62.1h.01M285.3 267.6h.01M256.2 206.2h.01M230.2 132.7h.01M274.4 105.4h.01M244.7 278.7h.01M147.8 65.9h.01M283.6 286.6h.01M189.6 155.9h.01M125.8 67.6h.01M314.6 385.2h.01M232.0 225.3h.01M220.6 289.9h.01M174.3 239.0h.01M240.5 207.7h.01M199.4 142.1h.01M87.7 422.3h.01M211.4 54.6h.01M268.5 119.4h.01M228.0 120.5h.01M205.1 80.3h.01M139.5 207.4h.01M358.6 122.9h.01M237.4 220.7h.01M190.4 132.1h.01M125.8 75.4h.01M262.4 210.2h.01M151.8 46.0h.01M234.0 293.9h.01M213.9 158.6h.01M262.1 152.8h.01M237.1 69.8h.01M261.9 84.7h.01M193.1 300.1h.01M179.0 88.0h.01M121.0 53.3h.01M164.8 104.6h.01M287.1 411.7h.01M133.1 63.1h.01M240.5 297.9h.01M173.4 231.5h.01M248.4 106.9h.01M311.2 388.6h.01M129.9 82.3h.01M204.3 258.9h.01M160.0 49.6h.01M127.5 51.5h.01M91.7 217.2h.01M285.5 204.5h.01M144.1 127.9h.01M306.6 393.2h.01M171.3 42.6h.01M238.9 154.9h.01M146.7 197.8h.01M143.1 212.1h.01M231.7 300.2h.01M172.0 69.5h.01M229.2 218.7h.01M203.8 308.7h.01M358.6 276.1h.01M274.4 217.4h.01M273.4 133.3h.01M277.0 286.1h.01M189.6 234.3h.01M272.3 278.2h.01M176.4 118.5h.01M300.7 397.1h.01M237.5 59.3h.01M162.3 71.1h.01M155.0 115.6h.01M226.7 285.8h.01M147.6 216.3h.01M194.4 119.0h.01M152.1 59.4h.01M167.7 36.8h.01M196.9 62.8h.01M269.8 286.1h.01M261.9 143.9h.01M211.9 137.6h.01M244.0 304.3h.01M164.2 93.4h.01M101.3 428.4h.01M280.6 214.4h.01M55.0 394.8h.01M229.6 279.0h.01M225.5 73.0h.01M244.5 95.3h.01M280.5 208.9h.01M184.7 206.3h.01M175.2 286.9h.01M169.9 152.5h.01M312.9 379.5h.01M233.8 213.3h.01M251.4 131.3h.01M181.2 133.2h.01M193.9 215.5h.01M144.6 74.0h.01M102.5 275.9h.01M142.3 50.0h.01M270.3 139.8h.01M176.1 126.7h.01M151.8 210.5h.01M237.3 79.6h.01M239.2 126.2h.01M166.2 46.0h.01M207.8 281.5h.01M152.8 227.4h.01M167.8 99.3h.01M207.2 287.8h.01M268.5 127.3h.01M214.4 74.1h.01M221.1 305.7h.01M228.8 151.3h.01M250.3 72.4h.01M139.2 119.8h.01M200.2 71.6h.01M207.2 64.3h.01M81.5 416.8h.01M61.2 400.0h.01M167.0 235.2h.01M282.8 227.1h.01M173.8 137.7h.01M232.6 160.3h.01M200.7 316.1h.01M221.6 156.2h.01M145.7 88.5h.01M138.8 80.0h.01M162.4 115.0h.01M200.3 247.7h.01M221.4 281.3h.01M175.7 293.9h.01M173.9 81.1h.01M212.7 46.1h.01M245.8 64.9h.01M169.7 110.5h.01M238.4 116.4h.01M63.2 345.9h.01M209.6 127.3h.01M174.5 103.3h.01M272.5 294.3h.01M266.2 92.1h.01M210.4 312.4h.01M148.0 80.8h.01M187.3 212.5h.01M233.5 205.6h.01M227.7 62.9h.01M149.0 132.0h.01M135.9 103.5h.01M259.3 101.8h.01M195.7 40.2h.01M111.9 68.4h.01M215.0 280.0h.01M103.0 232.1h.01M235.8 103.7h.01M139.4 68.6h.01M175.0 36.7h.01M252.2 234.1h.01M181.3 235.4h.01M251.6 303.8h.01M201.6 134.3h.01M198.6 429.0h.01M181.0 141.6h.01M226.4 109.3h.01M214.0 228.7h.01M159.2 98.5h.01M240.4 163.9h.01M130.4 90.5h.01M197.2 101.1h.01M227.0 164.5h.01M67.1 406.0h.01M270.0 99.1h.01M256.5 158.3h.01M223.3 96.5h.01M248.9 120.4h.01M140.0 94.7h.01M185.3 48.4h.01M217.8 62.9h.01M189.3 95.8h.01M163.0 151.9h.01M174.2 49.6h.01M241.7 145.7h.01M212.5 306.4h.01M166.9 125.5h.01M199.7 209.2h.01M234.4 91.0h.01M201.1 281.0h.01M152.8 199.3h.01M135.2 55.2h.01M65.2 181.5h.01M221.6 231.0h.01M248.4 297.0h.01M282.3 279.8h.01M241.6 135.1h.01M273.9 230.7h.01M166.8 53.3h.01M268.6 212.9h.01M166.1 145.7h.01M189.9 140.4h.01M132.8 72.5h.01M133.2 47.5h.01M164.1 81.3h.01M72.8 332.5h.01M180.4 96.4h.01M188.4 87.8h.01M142.0 59.4h.01M234.3 168.1h.01M191.6 288.2h.01M177.7 151.2h.01M147.7 53.4h.01M276.2 145.8h.01M183.6 290.6h.01M277.7 272.8h.01M191.2 55.5h.01M193.3 264.5h.01"/>
<path stroke="#1a1a1a" stroke-width="1.96" stroke-linecap="round" fill="none" d="M218.0 400.9h.01M84.8 179.0h.01M146.2 41.8h.01M179.4 188.0h.01M187.2 429.0h.01M172.6 373.9h.01M154.6 298.3h.01M214.2 287.1h.01M312.5 182.0h.01M259.3 293.2h.01M90.3 311.6h.01M169.9 204.7h.01M154.1 160.8h.01M237.3 325.1h.01M254.0 252.8h.01M69.2 193.5h.01M170.0 414.3h.01M219.1 395.7h.01M93.0 91.5h.01M101.9 270.3h.01M85.8 200.8h.01M118.5 73.3h.01M255.0 228.2h.01M157.7 154.7h.01M207.9 249.8h.01M0.4 264.2h.01M141.3 400.2h.01M139.3 44.3h.01M197.9 369.1h.01M205.3 374.9h.01M245.4 290.9h.01M155.4 411.6h.01M257.8 258.6h.01M210.7 421.8h.01M157.3 398.4h.01M130.1 367.6h.01M145.5 248.8h.01M163.5 420.8h.01M263.6 237.6h.01M162.2 277.0h.01M126.9 199.4h.01M310.6 382.7h.01M195.3 319.1h.01M56.1 388.4h.01M133.0 208.2h.01M174.0 200.1h.01M132.9 147.1h.01M150.1 377.2h.01M273.4 203.4h.01M151.5 155.6h.01M223.3 398.5h.01M252.2 163.9h.01M110.8 75.2h.01M151.9 409.0h.01M100.9 227.2h.01M244.8 343.0h.01M89.2 162.3h.01M176.3 370.0h.01M232.5 374.7h.01M285.1 156.5h.01M204.9 386.0h.01M158.9 259.3h.01M219.9 223.7h.01M165.0 371.0h.01M241.1 190.2h.01M169.0 399.8h.01M288.4 254.8h.01M85.5 86.5h.01M291.8 234.7h.01M132.6 128.6h.01M129.4 151.6h.01M250.1 320.6h.01M237.7 258.0h.01M240.0 173.8h.01M106.7 80.5h.01M283.7 199.6h.01M164.8 429.7h.01M264.7 290.1h.01M131.5 390.2h.01M247.9 309.7h.01M178.5 197.9h.01M212.4 267.4h.01M170.4 196.6h.01M106.2 206.4h.01M154.2 416.7h.01M249.1 250.4h.01M249.6 244.2h.01M227.6 209.5h.01M110.2 61.3h.01M179.8 271.3h.01M130.6 361.1h.01M120.4 131.6h.01M244.3 324.2h.01M273.6 260.2h.01M269.3 236.8h.01M168.3 270.3h.01M109.7 85.4h.01M208.0 323.2h.01M127.2 248.2h.01M206.6 192.6h.01M176.1 429.4h.01M182.4 284.5h.01M212.0 198.0h.01M219.6 381.2h.01M175.3 383.3h.01M251.4 277.1h.01M235.0 312.2h.01M69.9 177.0h.01M147.9 105.9h.01M142.0 380.3h.01M125.6 108.9h.01M105.6 226.8h.01M66.6 187.4h.01M89.1 168.5h.01M260.6 204.1h.01M193.9 280.7h.01M218.7 254.0h.01M153.9 281.4h.01M124.5 342.6h.01M148.5 164.9h.01M154.0 373.6h.01M290.1 241.3h.01M271.6 243.3h.01M285.0 405.9h.01M147.9 371.2h.01M89.9 82.0h.01M174.1 246.9h.01M168.6 390.0h.01M183.2 156.8h.01M126.4 194.0h.01M153.1 262.5h.01M73.7 407.8h.01M200.5 241.5h.01M120.8 188.0h.01M196.0 156.9h.01M189.7 294.2h.01M97.4 88.5h.01M152.9 389.2h.01M184.1 190.6h.01M212.4 192.8h.01M208.3 226.3h.01M147.6 365.4h.01M200.3 191.6h.01M214.5 262.7h.01M273.6 197.4h.01M99.4 176.0h.01M193.5 367.2h.01M104.0 294.3h.01M155.8 393.3h.01M265.2 299.2h.01M161.1 375.9h.01M269.0 270.6h.01M145.5 260.4h.01M165.3 416.5h.01M227.0 203.7h.01M125.6 365.7h.01M177.5 378.7h.01M142.1 362.1h.01M160.1 234.6h.01M192.5 381.8h.01M302.3 390.3h.01M95.5 95.6h.01M264.2 273.6h.01M149.4 405.3h.01M103.3 281.0h.01M222.6 253.6h.01M269.1 200.3h.01M223.5 264.7h.01M214.2 294.0h.01M159.9 161.7h.01M231.9 321.6h.01M81.9 183.8h.01M147.1 160.2h.01M127.4 157.4h.01M212.3 401.9h.01M92.1 207.9h.01M209.9 409.1h.01M207.4 403.0h.01M107.8 117.2h.01M218.6 317.0h.01M146.8 266.0h.01M170.7 428.3h.01M186.7 381.0h.01M232.1 259.3h.01M192.7 248.8h.01M133.0 377.2h.01M132.2 198.2h.01M167.0 222.6h.01M280.4 139.1h.01M263.3 316.7h.01M225.8 322.8h.01M76.5 124.0h.01M124.7 184.2h.01M160.9 425.9h.01M117.2 93.9h.01M101.9 84.7h.01M278.9 204.7h.01M114.8 80.1h.01M278.8 414.6h.01M274.3 209.6h.01M175.6 416.4h.01M140.3 156.8h.01M188.5 353.0h.01M279.4 259.6h.01M104.4 89.9h.01M157.2 384.5h.01M204.4 420.2h.01M202.5 366.2h.01M224.3 274.2h.01M358.6 225.0h.01M189.3 193.9h.01M213.3 166.2h.01M249.3 264.5h.01M209.1 378.1h.01M127.7 102.6h.01M160.3 413.0h.01M266.9 421.0h.01M181.6 296.0h.01M277.6 192.7h.01M136.4 159.8h.01M284.0 244.8h.01M284.6 250.4h.01M195.5 193.2h.01M243.6 260.8h.01M112.0 428.0h.01M101.5 77.4h.01M153.2 127.0h.01M140.7 145.0h.01M217.9 250.2h.01M140.6 151.6h.01M65.7 170.0h.01M256.6 299.3h.01M174.9 271.0h.01M190.6 269.9h.01M147.0 243.4h.01M121.7 81.7h.01M132.1 122.2h.01M202.5 196.6h.01M144.9 385.3h.01M252.0 222.8h.01M272.7 415.9h.01M149.5 394.3h.01M281.8 191.3h.01M224.9 374.2h.01M179.1 191.5h.01M285.1 194.9h.01M142.2 108.8h.01M262.6 265.9h.01M124.8 371.0h.01M201.5 378.5h.01M142.7 101.5h.01M78.9 326.3h.01M236.7 238.1h.01M264.2 280.3h.01M227.3 386.9h.01M112.7 115.5h.01M233.5 286.7h.01M208.6 163.4h.01M170.3 420.7h.01M126.6 130.2h.01M146.5 0.4h.01M192.7 418.9h.01M133.9 386.4h.01M69.6 160.8h.01M224.4 317.3h.01M270.7 306.3h.01M212.1 429.2h.01M132.0 157.1h.01M290.1 400.5h.01M163.3 289.3h.01M98.5 99.4h.01M315.8 178.5h.01M165.0 410.3h.01M175.8 422.9h.01M183.9 268.3h.01M279.0 242.6h.01M228.9 193.4h.01M139.8 385.1h.01M146.8 254.2h.01M198.5 391.3h.01M124.9 360.9h.01M115.9 110.6h.01M265.0 201.7h.01M80.8 175.3h.01M160.8 130.7h.01M170.3 408.5h.01M153.0 396.7h.01M78.6 201.8h.01M197.2 350.5h.01M122.9 353.2h.01M230.5 265.5h.01M116.8 122.9h.01M0.4 134.8h.01M236.6 187.6h.01M92.8 419.9h.01M180.0 251.3h.01M215.0 406.1h.01M96.0 236.9h.01M150.2 258.1h.01M148.2 237.9h.01M164.2 264.0h.01M198.9 415.0h.01M50.6 388.4h.01M204.7 381.2h.01M233.0 353.4h.01M188.8 389.9h.01M167.8 395.0h.01M207.0 196.4h.01M257.7 194.4h.01M259.0 428.6h.01M235.0 175.5h.01M174.2 158.4h.01M198.4 422.0h.01M159.5 252.1h.01M155.5 239.2h.01M251.6 314.2h.01M110.0 91.6h.01M153.3 142.9h.01M196.4 268.6h.01M170.5 259.6h.01M192.1 377.1h.01M206.7 201.0h.01M152.8 233.6h.01M282.1 255.3h.01M92.9 201.3h.01M81.8 196.7h.01M197.3 380.8h.01M76.1 214.4h.01M256.7 215.9h.01M279.0 0.4h.01M138.2 389.1h.01M210.0 415.4h.01M157.2 266.6h.01M229.9 358.2h.01M127.0 124.5h.01M64.7 175.4h.01M105.1 72.0h.01M255.8 308.9h.01M144.8 398.0h.01M194.6 387.1h.01M135.2 186.6h.01M141.1 368.9h.01M224.9 269.3h.01M204.2 412.6h.01M247.0 0.4h.01M225.1 381.2h.01M272.2 187.8h.01M120.9 126.0h.01M198.5 202.4h.01M188.8 200.7h.01M150.2 400.0h.01M223.8 171.0h.01M217.6 391.3h.01M93.6 241.2h.01M275.7 301.0h.01M191.5 361.8h.01M245.4 168.7h.01M254.1 212.4h.01M175.2 306.1h.01M231.1 366.5h.01M118.2 116.8h.01M163.3 297.0h.01M196.8 254.3h.01M263.4 258.7h.01M262.4 191.5h.01M80.3 221.1h.01M159.9 402.7h.01M237.9 351.0h.01M99.4 69.8h.01M130.1 188.2h.01M163.5 247.7h.01M181.5 278.1h.01M205.4 268.6h.01M225.0 236.6h.01M166.9 199.4h.01M102.9 221.6h.01M177.4 258.3h.01M151.5 120.5h.01M157.3 246.0h.01M231.4 327.1h.01M76.3 136.5h.01M175.6 205.8h.01M256.0 343.6h.01M265.3 196.8h.01M100.3 93.5h.01M97.1 212.1h.01M166.6 424.8h.01M272.3 266.4h.01M215.8 417.7h.01M132.7 192.9h.01M201.4 355.6h.01M79.8 190.0h.01M135.3 152.7h.01M189.4 385.2h.01M157.2 423.1h.01M137.9 125.8h.01M172.1 385.6h.01M171.2 265.1h.01M41.6 379.1h.01M185.7 273.8h.01M163.6 399.4h.01M167.4 228.4h.01M262.0 305.6h.01M153.6 426.8h.01M137.4 87.6h.01M212.8 249.8h.01M137.0 381.3h.01M180.5 308.9h.01M101.2 103.4h.01M156.0 379.2h.01M161.1 36.9h.01M85.3 206.0h.01M228.6 370.6h.01M247.2 329.7h.01M236.7 317.9h.01M285.3 183.4h.01M125.6 135.1h.01M266.0 311.4h.01M136.8 361.9h.01M213.0 318.5h.01M145.4 403.1h.01M146.6 114.7h.01M91.6 86.5h.01M358.6 175.4h.01M172.4 389.8h.01M213.6 383.4h.01M196.0 312.0h.01M146.1 232.7h.01M281.2 152.0h.01M279.7 196.1h.01M248.9 285.2h.01M280.0 293.9h.01M142.5 222.7h.01M124.8 260.1h.01M150.7 269.6h.01M128.3 355.1h.01M251.1 258.2h.01M85.5 187.3h.01M152.8 422.0h.01M143.5 375.0h.01M155.5 205.0h.01M216.0 411.5h.01M170.6 189.8h.01M260.9 231.6h.01M167.9 300.0h.01M187.3 376.0h.01M123.3 97.5h.01M154.5 403.2h.01M209.2 383.0h.01M103.9 152.7h.01M98.9 241.1h.01M178.7 387.0h.01M212.5 204.8h.01M255.7 199.0h.01M209.6 392.9h.01M289.4 247.6h.01M99.2 149.8h.01M219.7 262.3h.01M153.1 149.8h.01M149.2 221.9h.01M208.4 232.6h.01M158.2 407.2h.01M187.0 308.2h.01M193.2 354.5h.01M121.8 112.9h.01M145.4 155.3h.01M96.0 74.4h.01M98.5 132.5h.01M226.9 260.7h.01M236.9 265.0h.01M158.3 293.9h.01M209.7 211.9h.01M107.0 184.1h.01M235.6 370.3h.01M252.8 428.1h.01M107.2 427.7h.01M258.3 322.2h.01M161.9 366.5h.01M71.7 402.3h.01M273.8 191.9h.01M164.1 390.5h.01M148.1 388.9h.01M138.0 375.2h.01M71.7 182.4h.01M98.3 205.6h.01M209.9 329.1h.01M231.1 233.7h.01M103.2 423.3h.01M252.5 291.4h.01M134.8 355.7h.01M77.4 180.3h.01M269.0 192.7h.01M116.4 100.7h.01M224.0 366.1h.01M138.4 113.4h.01M197.1 364.1h.01M169.4 306.5h.01M137.0 132.5h.01M215.1 370.4h.01M147.1 380.8h.01M98.3 138.5h.01M94.8 144.6h.01M132.2 109.9h.01M100.3 143.8h.01M251.4 205.1h.01M155.7 288.4h.01M75.5 194.7h.01M132.4 116.6h.01M115.9 57.8h.01M167.0 385.3h.01M110.9 96.8h.01M91.1 230.6h.01M89.4 182.8h.01M286.1 261.1h.01M274.9 154.8h.01M170.1 369.2h.01M98.1 422.2h.01M174.7 193.4h.01M227.6 229.5h.01M218.5 267.6h.01M0.4 199.9h.01M103.8 180.1h.01M215.1 330.6h.01M285.3 273.7h.01M253.8 240.2h.01M222.1 387.0h.01M219.2 375.6h.01M158.5 389.7h.01M189.9 259.0h.01M190.3 253.2h.01M199.8 385.4h.01M175.8 390.8h.01M294.5 396.7h.01M146.7 227.2h.01M156.5 274.3h.01M282.2 411.4h.01M165.1 404.9h.01M151.8 249.5h.01M96.6 232.0h.01M84.4 192.2h.01M291.9 227.0h.01M210.3 257.0h.01M255.4 247.0h.01M146.0 149.7h.01M207.3 357.3h.01M113.0 0.4h.01M181.3 419.9h.01M255.7 264.4h.01M141.6 161.5h.01M181.0 413.3h.01M229.7 174.7h.01M142.8 390.0h.01M99.1 199.4h.01M157.8 429.7h.01M283.9 187.7h.01M239.4 291.1h.01M201.4 264.7h.01M308.5 377.0h.01M260.0 242.8h.01M132.1 381.9h.01M135.8 392.2h.01M147.1 144.7h.01M82.9 226.4h.01M90.4 236.5h.01M158.5 370.5h.01M152.4 110.2h.01M258.5 236.6h.01M108.3 101.6h.01M104.7 65.2h.01M160.7 282.9h.01M180.0 0.4h.01M268.2 206.6h.01M154.4 254.8h.01M92.3 77.6h.01M116.3 87.1h.01M278.1 200.4h.01M124.5 153.6h.01M220.8 326.7h.01M187.2 422.0h.01M187.4 264.0h.01M192.7 426.8h.01M140.5 184.7h.01M172.5 300.7h.01M201.0 322.6h.01M87.9 416.6h.01M128.3 145.1h.01M261.1 251.8h.01M222.4 258.0h.01M141.8 355.3h.01M234.7 347.8h.01M225.0 223.7h.01M81.0 408.8h.01M291.1 208.1h.01M95.6 173.7h.01M275.0 248.4h.01M217.2 385.9h.01M158.6 418.5h.01M85.2 412.0h.01M122.7 120.2h.01M184.1 200.4h.01M243.0 266.7h.01M218.4 311.5h.01M104.3 200.8h.01M203.6 406.6h.01M158.9 146.3h.01M162.2 241.1h.01M164.6 256.9h.01M169.6 159.9h.01M125.6 189.2h.01M142.6 140.4h.01M226.1 311.9h.01M202.6 360.7h.01M86.2 231.8h.01M216.6 258.3h.01M89.8 147.8h.01M280.6 406.8h.01M309.1 191.7h.01M105.5 106.3h.01M284.4 238.2h.01M206.3 316.8h.01M140.0 394.6h.01M60.7 393.1h.01M217.6 191.2h.01M213.3 222.1h.01M181.4 427.4h.01M168.6 243.5h.01M180.4 218.8h.01M182.0 372.4h.01M213.8 254.2h.01M306.6 386.3h.01M163.1 380.9h.01M37.7 373.5h.01M230.4 239.5h.01M216.1 234.9h.01M137.4 138.2h.01M141.1 217.6h.01M104.4 97.0h.01M213.6 396.5h.01M149.8 275.7h.01M186.8 415.2h.01M171.3 403.8h.01M195.5 239.1h.01M203.1 231.5h.01M153.4 367.0h.01M282.5 145.4h.01M123.2 250.5h.01M123.4 256.1h.01M162.3 270.4h.01M101.2 237.0h.01M103.9 211.9h.01M274.4 360.9h.01M240.6 345.8h.01M258.1 314.5h.01M167.8 251.7h.01M310.9 187.1h.01M275.6 237.7h.01M76.1 185.3h.01M175.5 278.1h.01M135.2 202.5h.01M151.9 383.8h.01M147.6 281.7h.01M219.4 217.2h.01M135.5 367.3h.01M168.6 276.3h.01M267.0 228.7h.01M208.3 263.1h.01M138.7 196.1h.01M81.0 0.4h.01M253.8 327.0h.01M241.3 311.3h.01M111.9 106.4h.01M85.3 217.1h.01M261.7 423.5h.01M149.7 288.2h.01M151.9 243.3h.01M281.6 132.2h.01M279.1 250.3h.01M137.5 398.3h.01M239.4 244.3h.01M264.9 219.0h.01M232.3 188.7h.01M162.1 385.9h.01M186.5 247.3h.01M120.0 105.4h.01M92.2 223.6h.01M127.6 348.1h.01M229.8 379.3h.01M168.2 283.1h.01M161.3 394.7h.01M133.9 371.9h.01M169.3 381.1h.01M123.4 89.3h.01M67.5 399.3h.01M146.7 358.7h.01M293.4 221.1h.01M173.5 253.8h.01M67.3 342.4h.01M213.5 0.4h.01M150.0 191.9h.01M126.9 116.2h.01M244.6 245.1h.01M245.4 255.3h.01M128.6 204.6h.01M100.4 185.3h.01M160.8 228.4h.01M96.6 82.1h.01M153.5 38.7h.01M95.5 195.5h.01M258.2 275.9h.01"/>
<path stroke="#1a1a1a" stroke-width="2.41" stroke-linecap="round" fill="none" d="M301.2 192.4h.01M173.2 315.2h.01M128.2 270.8h.01M297.4 174.6h.01M301.4 183.2h.01M204.5 390.9h.01M110.1 131.5h.01M120.9 217.8h.01M127.2 230.0h.01M110.6 224.0h.01M151.6 332.7h.01M116.5 237.5h.01M245.1 349.2h.01M286.8 221.7h.01M146.3 299.3h.01M200.1 160.0h.01M142.8 407.8h.01M59.7 383.9h.01M291.6 159.4h.01M233.1 362.3h.01M138.7 321.0h.01M259.3 186.8h.01M159.5 300.7h.01M219.5 321.9h.01M142.0 243.3h.01M207.7 363.6h.01M93.8 104.1h.01M110.1 148.1h.01M132.0 328.0h.01M143.6 347.7h.01M164.9 337.5h.01M80.2 107.7h.01M136.0 245.7h.01M217.4 365.2h.01M139.8 404.1h.01M279.9 402.4h.01M117.0 316.1h.01M83.4 93.1h.01M181.3 168.1h.01M168.4 353.3h.01M144.1 337.1h.01M112.2 205.2h.01M89.5 141.7h.01M124.3 221.7h.01M125.5 309.5h.01M85.7 125.6h.01M122.4 326.1h.01M251.1 195.0h.01M91.0 124.6h.01M108.7 197.2h.01M202.8 400.3h.01M85.4 138.5h.01M159.5 349.0h.01M127.7 300.7h.01M207.5 369.2h.01M172.2 342.0h.01M176.6 361.4h.01M129.0 373.6h.01M182.6 367.1h.01M212.1 360.8h.01M202.9 225.9h.01M265.3 243.0h.01M299.3 386.8h.01M120.4 231.9h.01M174.1 311.0h.01M109.7 231.9h.01M123.3 428.7h.01M178.7 356.9h.01M55.1 383.0h.01M141.8 264.0h.01M141.2 233.6h.01M125.2 277.5h.01M109.5 350.5h.01M156.0 303.8h.01M130.7 236.1h.01M198.6 408.6h.01M156.6 352.5h.01M115.5 129.7h.01M113.8 352.6h.01M61.0 388.2h.01M124.9 244.5h.01M230.4 316.5h.01M111.3 314.9h.01M90.1 409.9h.01M119.0 261.2h.01M178.3 314.9h.01M133.6 395.7h.01M167.3 310.9h.01M178.6 352.1h.01M122.0 316.8h.01M115.9 291.4h.01M74.4 209.1h.01M66.7 390.2h.01M54.5 377.6h.01M132.0 261.0h.01M152.7 349.1h.01M227.5 250.3h.01M139.1 260.0h.01M137.1 222.1h.01M183.5 354.2h.01M112.6 282.4h.01M211.5 373.4h.01M288.9 198.6h.01M118.9 257.7h.01M123.3 273.1h.01M145.9 415.3h.01M166.4 188.9h.01M71.0 198.8h.01M131.9 249.9h.01M75.4 165.2h.01M194.4 372.3h.01M129.4 162.4h.01M136.0 256.1h.01M199.9 332.5h.01M200.1 164.5h.01M82.0 98.2h.01M168.0 348.2h.01M215.6 425.2h.01M127.8 336.4h.01M207.1 351.7h.01M125.0 321.3h.01M193.2 412.5h.01M87.6 121.3h.01M290.1 178.1h.01M298.0 187.6h.01M84.5 151.0h.01M94.7 127.6h.01M114.9 330.2h.01M193.3 198.9h.01M118.0 265.0h.01M186.2 371.5h.01M116.2 232.4h.01M245.0 272.3h.01M88.6 191.3h.01M102.2 266.4h.01M112.2 121.0h.01M49.2 373.0h.01M76.8 120.4h.01M113.4 199.8h.01M112.6 235.7h.01M111.6 126.1h.01M187.4 281.0h.01M260.6 226.0h.01M110.2 310.5h.01M117.4 142.8h.01M104.4 140.4h.01M156.7 166.3h.01M106.9 217.0h.01M94.4 150.7h.01M214.4 378.1h.01M92.0 192.0h.01M268.7 157.6h.01M177.6 264.9h.01M91.4 187.5h.01M122.4 241.2h.01M43.1 371.2h.01M117.3 243.4h.01M198.0 402.5h.01M263.7 158.9h.01M191.0 327.4h.01M277.0 409.8h.01M152.8 360.6h.01M214.4 272.8h.01M116.6 157.9h.01M135.2 142.7h.01M89.1 135.4h.01M113.5 319.1h.01M103.0 242.5h.01M221.8 428.4h.01M128.4 264.7h.01M229.8 272.1h.01M137.6 230.8h.01M102.3 110.6h.01M159.2 339.9h.01M211.1 354.0h.01M143.3 342.0h.01M107.8 240.0h.01M112.2 184.7h.01M164.2 303.5h.01M134.8 332.1h.01M166.9 358.8h.01M133.7 342.4h.01M131.5 134.7h.01M179.6 202.4h.01M74.8 176.3h.01M204.5 161.4h.01M242.3 334.2h.01M215.0 324.2h.01M181.0 341.9h.01M91.5 118.9h.01M227.9 392.0h.01M120.0 237.5h.01M274.8 254.5h.01M161.9 360.6h.01M144.7 286.1h.01M174.8 399.4h.01M136.0 291.6h.01M127.4 326.2h.01M140.1 288.0h.01M223.4 250.4h.01M188.4 409.4h.01M206.5 243.1h.01M149.3 336.2h.01M119.8 323.2h.01M184.2 386.3h.01M157.8 308.1h.01M120.5 292.2h.01M108.7 283.7h.01M286.8 190.7h.01M114.3 209.2h.01M199.2 328.2h.01M175.8 404.4h.01M127.8 379.5h.01M115.6 311.9h.01M91.6 113.8h.01M95.2 185.4h.01M109.3 337.2h.01M246.9 335.6h.01M286.4 174.0h.01M219.7 405.8h.01M115.3 189.7h.01M186.4 321.5h.01M142.9 238.1h.01M121.3 198.3h.01M285.4 398.0h.01M137.6 236.1h.01M109.7 292.7h.01M114.4 135.0h.01M112.9 194.8h.01M150.2 413.9h.01M111.6 269.6h.01M120.6 311.9h.01M220.8 246.4h.01M233.1 244.2h.01M110.6 340.4h.01M98.5 189.6h.01M86.9 100.9h.01M85.8 315.6h.01M296.8 204.1h.01M75.7 401.2h.01M86.2 155.0h.01M128.7 258.4h.01M116.3 295.8h.01M220.5 370.0h.01M256.8 424.3h.01M120.2 137.4h.01M116.4 326.5h.01M197.6 397.1h.01M87.0 105.8h.01M109.1 202.1h.01M120.0 330.7h.01M153.6 339.1h.01M185.9 220.8h.01M90.8 130.6h.01M123.4 267.8h.01M147.5 332.4h.01M178.4 227.5h.01M204.6 188.9h.01M87.4 129.2h.01M65.6 394.7h.01M298.0 195.9h.01M288.7 395.1h.01M219.1 273.7h.01M154.9 343.8h.01M128.6 281.5h.01M81.4 131.1h.01M151.3 294.7h.01M123.1 235.9h.01M122.4 203.3h.01M124.5 232.1h.01M91.5 109.0h.01M291.4 392.4h.01M133.2 225.0h.01M217.9 429.1h.01M86.7 406.4h.01M112.3 219.1h.01M117.1 203.2h.01M284.4 401.5h.01M145.4 329.4h.01M136.1 212.8h.01M129.2 232.6h.01M136.3 285.8h.01M67.3 165.8h.01M178.6 159.2h.01M149.7 418.5h.01M109.6 347.1h.01M130.1 322.1h.01M237.1 360.9h.01M119.3 269.2h.01M45.3 366.9h.01M131.7 220.1h.01M214.4 355.8h.01M113.8 225.4h.01M125.2 226.8h.01M131.3 179.0h.01M117.6 227.9h.01M113.2 153.5h.01M108.9 153.0h.01M235.3 357.2h.01M100.4 193.5h.01M185.1 343.5h.01M128.4 223.3h.01M133.4 336.6h.01M198.2 196.9h.01M173.6 355.4h.01M178.0 374.3h.01M172.2 346.5h.01M133.9 267.8h.01M80.1 168.8h.01M105.1 132.3h.01M104.6 194.6h.01M298.1 207.7h.01M72.3 204.1h.01M224.7 246.5h.01M163.5 355.8h.01M113.6 422.6h.01M269.8 411.6h.01M106.2 127.2h.01M186.0 367.4h.01M167.6 376.0h.01M114.8 256.3h.01M144.3 290.5h.01M92.9 413.7h.01M77.9 148.5h.01M111.2 214.0h.01M273.4 407.6h.01M171.2 360.2h.01M184.2 313.5h.01M167.7 343.4h.01M108.4 279.6h.01M162.3 307.1h.01M230.2 428.9h.01M114.2 181.5h.01M215.8 246.0h.01M143.5 277.8h.01M157.6 362.9h.01M86.1 145.1h.01M148.9 187.9h.01M96.4 117.1h.01M209.9 238.3h.01M182.2 262.5h.01M120.8 306.8h.01M294.7 199.9h.01M182.3 378.2h.01M114.5 252.1h.01M280.8 185.8h.01M234.6 379.4h.01M141.1 282.5h.01M137.9 272.9h.01M88.1 226.4h.01M264.5 417.1h.01M186.7 363.2h.01M117.8 351.0h.01M95.9 227.1h.01M293.6 205.4h.01M107.9 111.6h.01M266.4 189.1h.01M142.0 228.6h.01M121.6 227.1h.01M104.2 287.1h.01M50.6 380.8h.01M242.1 358.9h.01M121.2 367.8h.01M296.4 391.0h.01M107.8 235.4h.01M189.5 367.2h.01M121.0 156.2h.01M111.7 343.8h.01M97.5 181.2h.01M86.3 221.8h.01M75.5 170.6h.01M120.3 222.9h.01M257.9 165.7h.01M120.2 373.1h.01M135.2 261.2h.01M117.5 428.4h.01M151.7 355.4h.01M70.0 172.1h.01M102.4 135.9h.01M118.5 287.8h.01M144.4 192.3h.01M118.0 184.4h.01M197.1 376.5h.01M124.3 148.9h.01M131.3 303.6h.01M112.5 290.5h.01M173.7 350.3h.01M217.3 170.3h.01M195.3 325.5h.01M193.7 189.9h.01M125.8 140.0h.01M133.9 233.6h.01M175.0 410.7h.01M180.4 382.6h.01M85.5 110.4h.01M83.7 121.8h.01M213.4 389.3h.01M135.7 217.8h.01M134.6 400.8h.01M130.9 214.7h.01M284.3 178.2h.01M120.8 192.9h.01M108.8 136.3h.01M129.3 318.4h.01M239.8 355.6h.01M130.1 227.8h.01M183.8 407.4h.01M218.8 422.4h.01M174.9 187.7h.01M119.2 253.2h.01M300.2 179.7h.01M152.6 194.3h.01M120.0 341.5h.01M83.7 158.1h.01M225.3 358.3h.01M208.1 184.9h.01M46.7 376.8h.01M109.7 210.1h.01M118.3 179.0h.01M114.8 147.7h.01M182.9 318.0h.01M107.8 270.5h.01M112.9 248.2h.01M228.1 397.0h.01M128.5 385.2h.01M276.8 405.4h.01M258.8 270.2h.01M249.2 270.6h.01M207.4 397.0h.01M179.4 396.3h.01M112.8 286.6h.01M117.9 346.2h.01M111.5 295.5h.01M135.2 180.9h.01M90.0 153.0h.01M122.0 180.8h.01M218.5 355.1h.01M119.1 209.0h.01M94.0 133.9h.01M124.2 375.5h.01M137.8 226.4h.01M193.4 406.0h.01M125.0 330.9h.01M192.9 348.9h.01M308.8 165.3h.01M210.0 275.5h.01M146.2 429.8h.01M87.8 90.5h.01M184.1 392.5h.01M102.7 115.7h.01M85.3 132.9h.01M167.1 364.3h.01M227.4 329.6h.01M178.7 346.7h.01M91.6 173.8h.01M190.8 321.6h.01M227.5 362.7h.01M122.5 143.7h.01M261.4 419.9h.01M118.5 336.7h.01M119.2 363.6h.01M115.4 322.4h.01M181.7 361.8h.01M111.8 143.6h.01M138.4 339.1h.01M172.8 225.2h.01M143.4 165.3h.01M117.7 355.6h.01M162.8 202.9h.01M108.0 275.8h.01M113.4 229.6h.01M133.3 348.7h.01M109.1 179.7h.01M199.1 373.1h.01M268.5 416.5h.01M179.2 407.7h.01M167.1 164.2h.01M116.6 219.0h.01M181.0 402.1h.01M256.6 189.8h.01M108.9 140.9h.01M130.1 276.8h.01M92.3 99.6h.01M289.8 192.9h.01M242.8 428.9h.01M114.6 260.3h.01M133.4 273.5h.01M97.4 112.8h.01M89.9 177.7h.01M134.0 238.7h.01M236.3 343.2h.01M96.8 417.4h.01M228.0 353.6h.01M215.6 187.8h.01M138.7 190.7h.01M105.3 146.4h.01M115.6 306.8h.01M184.6 227.4h.01M180.0 391.0h.01M258.5 349.5h.01M106.6 121.8h.01M202.9 371.2h.01M115.9 333.8h.01M292.6 183.7h.01M128.1 210.9h.01M241.8 319.2h.01M220.8 414.0h.01M202.0 351.3h.01M124.1 208.4h.01M296.2 192.2h.01M88.8 196.1h.01M150.9 342.6h.01M295.1 179.1h.01M157.7 357.0h.01M72.7 188.9h.01M240.0 272.1h.01M275.4 402.1h.01M193.5 244.0h.01M138.5 344.5h.01M221.6 360.7h.01M300.9 373.3h.01M139.2 335.0h.01M184.9 398.8h.01M190.6 371.8h.01M253.9 421.7h.01M166.4 193.9h.01M165.2 216.5h.01M83.5 404.2h.01M146.9 410.0h.01M187.7 188.7h.01M114.4 357.1h.01M136.2 328.0h.01M209.1 189.0h.01M223.3 392.5h.01M173.2 395.0h.01M288.8 181.9h.01M138.0 240.9h.01M188.5 395.4h.01M303.9 376.8h.01M118.0 152.9h.01M124.7 313.3h.01M183.6 349.0h.01M114.5 274.1h.01M121.0 358.6h.01M213.7 240.7h.01M173.1 378.8h.01M109.6 306.2h.01M121.4 297.0h.01M75.1 333.3h.01M126.7 237.2h.01M122.0 347.7h.01M241.8 338.8h.01M233.6 331.9h.01M163.8 346.8h.01M273.7 411.8h.01M104.3 174.6h.01M150.6 300.3h.01M139.9 247.8h.01M123.1 336.4h.01M212.0 366.1h.01M189.9 315.1h.01M245.4 315.3h.01M134.0 281.7h.01M296.4 183.8h.01M119.5 247.6h.01M290.7 202.8h.01M137.3 264.8h.01M87.1 115.5h.01M140.9 268.7h.01M112.9 241.1h.01M94.1 179.0h.01M108.7 299.9h.01M208.9 271.2h.01M122.9 263.5h.01M143.0 413.1h.01M173.5 365.5h.01M111.3 275.8h.01M107.6 221.8h.01M113.4 298.8h.01M188.1 403.6h.01M100.6 128.4h.01M72.7 397.3h.01M123.9 159.4h.01M96.0 122.4h.01M217.1 360.0h.01M119.3 148.4h.01M138.7 350.4h.01M126.9 316.2h.01M225.7 349.8h.01M231.7 342.6h.01M209.2 387.9h.01M110.2 272.8h.01M235.0 271.3h.01M133.0 242.6h.01M104.3 189.0h.01M261.1 162.7h.01M131.5 139.8h.01M117.0 196.1h.01M222.8 354.7h.01M293.2 189.1h.01M137.5 278.1h.01M83.2 117.2h.01M204.0 327.7h.01M306.9 380.9h.01M78.6 126.6h.01M128.9 240.8h.01M185.8 253.9h.01M129.3 341.6h.01M230.3 348.3h.01M117.6 301.6h.01M141.3 256.6h.01M109.1 228.2h.01M266.5 412.9h.01M183.5 258.1h.01M130.2 183.2h.01M116.6 283.5h.01M123.1 213.5h.01M97.2 107.9h.01M101.5 124.0h.01M268.2 262.5h.01M147.0 293.7h.01M141.2 252.3h.01M114.5 139.1h.01M188.7 347.4h.01M200.3 235.9h.01M127.2 253.2h.01M132.7 289.9h.01M107.7 421.4h.01M216.5 350.9h.01M129.9 331.8h.01M200.7 270.5h.01M132.6 316.7h.01M148.1 345.6h.01M303.0 382.7h.01M111.9 302.8h.01M292.8 195.8h.01M223.0 424.3h.01M147.4 351.9h.01M178.9 366.2h.01M248.0 428.7h.01M143.7 272.8h.01M116.4 223.3h.01M123.1 301.3h.01M81.8 113.3h.01M130.8 286.1h.01M137.5 147.6h.01M136.4 316.9h.01M188.7 357.9h.01M133.8 308.3h.01M131.8 254.9h.01M100.7 119.6h.01M190.2 227.0h.01M102.1 418.2h.01M236.1 248.5h.01M289.0 186.9h.01M136.1 251.2h.01M139.0 330.4h.01M277.3 188.5h.01M140.8 429.3h.01M184.1 358.7h.01M227.3 254.7h.01M279.8 398.1h.01M270.0 248.9h.01M232.0 384.5h.01M147.7 340.0h.01M80.8 103.1h.01M93.4 139.2h.01M145.3 393.9h.01M252.4 189.7h.01M119.5 319.8h.01M237.4 366.0h.01M202.5 395.1h.01M133.6 229.6h.01M292.3 174.5h.01M205.4 237.7h.01M193.3 393.3h.01M176.4 342.3h.01M242.6 351.7h.01M126.4 179.5h.01M78.9 404.0h.01M158.8 345.1h.01M88.9 95.6h.01M110.5 244.7h.01M141.9 323.5h.01M222.9 408.9h.01M192.2 399.6h.01M133.8 324.6h.01M112.7 278.7h.01M130.6 245.8h.01M223.9 404.2h.01"/>
<path stroke="#1a1a1a" stroke-width="2.89" stroke-linecap="round" fill="none" d="M115.6 270.3h.01M110.7 258.2h.01M127.5 428.3h.01M165.1 333.1h.01M213.0 334.7h.01M114.9 339.8h.01M154.2 329.7h.01M186.1 165.4h.01M79.3 139.1h.01M105.6 316.6h.01M97.6 244.9h.01M211.3 181.8h.01M289.7 213.9h.01M183.8 338.7h.01M279.2 219.8h.01M298.7 211.1h.01M137.4 296.6h.01M267.5 252.6h.01M106.2 415.6h.01M229.7 334.4h.01M215.3 208.4h.01M109.4 266.4h.01M148.2 183.2h.01M270.1 173.4h.01M116.9 369.4h.01M154.9 323.2h.01M113.4 262.9h.01M194.8 226.5h.01M157.1 332.1h.01M136.1 429.8h.01M263.1 407.8h.01M152.6 167.2h.01M148.3 313.1h.01M240.7 363.1h.01M268.3 404.9h.01M232.0 424.8h.01M187.5 338.4h.01M278.3 159.4h.01M140.5 423.7h.01M252.1 418.1h.01M109.5 175.6h.01M108.4 287.0h.01M171.6 163.7h.01M115.3 343.4h.01M205.4 175.9h.01M84.3 170.9h.01M53.4 368.7h.01M105.6 268.4h.01M178.8 338.2h.01M150.2 323.1h.01M80.4 119.6h.01M99.9 248.6h.01M49.2 368.7h.01M118.8 274.3h.01M102.0 262.0h.01M84.4 397.2h.01M301.3 208.2h.01M271.5 399.3h.01M282.4 389.6h.01M186.9 161.4h.01M266.4 409.0h.01M299.0 381.8h.01M142.6 313.6h.01M113.4 336.6h.01M224.4 415.9h.01M207.6 168.2h.01M77.9 111.9h.01M227.8 407.8h.01M109.6 187.8h.01M105.4 274.0h.01M141.8 328.7h.01M101.6 164.9h.01M163.7 319.5h.01M146.4 321.7h.01M177.0 320.1h.01M177.5 324.5h.01M162.2 311.5h.01M178.1 167.5h.01M111.2 333.4h.01M203.2 184.0h.01M165.9 315.5h.01M234.3 401.9h.01M50.0 364.9h.01M136.3 422.4h.01M212.5 176.6h.01M53.5 372.8h.01M241.2 421.6h.01M107.2 330.8h.01M221.7 350.6h.01M278.4 165.3h.01M278.5 223.6h.01M143.6 319.0h.01M278.8 177.8h.01M225.5 195.7h.01M246.3 420.1h.01M279.3 172.8h.01M160.9 331.1h.01M140.2 316.2h.01M215.6 183.3h.01M102.1 157.5h.01M129.5 312.2h.01M197.3 182.1h.01M105.5 291.2h.01M300.5 198.8h.01M260.6 409.7h.01M249.8 423.3h.01M265.9 163.7h.01M226.1 420.4h.01M243.8 249.8h.01M215.7 346.3h.01M221.3 190.4h.01M97.4 156.0h.01M79.1 393.2h.01M87.2 174.2h.01M181.5 327.0h.01M225.8 334.8h.01M260.9 198.9h.01M269.7 407.6h.01M143.3 333.2h.01M192.8 343.5h.01M270.1 162.6h.01M232.6 390.1h.01M259.3 406.5h.01M251.4 169.5h.01M133.5 312.5h.01M127.6 296.5h.01M57.0 372.9h.01M107.4 344.8h.01M231.8 254.0h.01M145.6 325.5h.01M209.2 333.7h.01M204.2 274.3h.01M69.7 385.6h.01M141.9 294.4h.01M140.0 419.8h.01M297.0 160.7h.01M194.4 274.4h.01M229.4 404.6h.01M152.5 318.8h.01M115.7 361.1h.01M117.9 421.3h.01M111.6 360.9h.01M99.8 216.7h.01M150.9 304.4h.01M264.0 411.0h.01M100.6 170.1h.01M257.6 222.9h.01M109.6 191.8h.01M240.3 252.5h.01M248.8 212.6h.01M106.1 335.2h.01M151.9 184.2h.01M124.9 293.5h.01M162.6 352.0h.01M205.2 331.9h.01M106.1 258.9h.01M153.1 307.9h.01M125.8 305.0h.01M219.8 347.4h.01M123.5 283.7h.01M245.0 424.7h.01M102.9 332.1h.01M121.2 424.6h.01M283.7 365.8h.01M59.3 379.5h.01M107.3 341.9h.01M143.2 297.4h.01M189.6 165.8h.01M105.5 283.2h.01M82.0 135.7h.01M139.2 292.8h.01M80.6 215.7h.01M175.5 163.3h.01M111.0 413.2h.01M126.7 286.1h.01M82.5 142.6h.01M144.0 427.0h.01M59.6 353.1h.01M97.2 405.2h.01M149.6 327.8h.01M270.5 220.7h.01M78.0 116.5h.01M145.4 310.9h.01M286.2 387.1h.01M163.1 194.0h.01M278.6 389.8h.01M227.7 413.9h.01M101.1 257.8h.01M164.5 207.3h.01M113.8 266.4h.01M227.5 345.3h.01M105.6 264.0h.01M245.3 355.3h.01M163.8 323.4h.01M104.3 254.4h.01M141.9 309.8h.01M103.1 246.9h.01M227.6 342.1h.01M80.9 397.3h.01M279.2 363.7h.01M117.0 278.7h.01M109.6 262.5h.01M178.4 185.1h.01M245.0 174.4h.01M282.1 394.7h.01M260.1 416.4h.01M123.4 288.8h.01M155.3 335.8h.01M259.2 412.7h.01M145.9 180.5h.01M107.5 321.5h.01M94.7 408.6h.01M71.3 166.9h.01M121.0 279.4h.01M273.2 396.2h.01M218.5 205.2h.01M290.4 384.6h.01M194.9 331.2h.01M81.4 148.2h.01M227.3 401.6h.01M63.6 382.4h.01M94.4 403.0h.01M185.9 327.0h.01M218.4 196.0h.01M201.6 187.2h.01M205.9 182.0h.01M90.9 405.4h.01M193.2 166.2h.01M138.7 325.5h.01M274.9 164.1h.01M198.5 225.7h.01M146.0 303.6h.01M109.7 318.9h.01M70.3 340.4h.01M137.9 312.1h.01M111.1 328.8h.01M283.0 161.0h.01M281.3 181.5h.01M239.0 427.2h.01M214.7 179.5h.01M201.7 347.6h.01M223.6 343.1h.01M291.3 380.6h.01M106.6 158.5h.01M128.2 290.8h.01M108.4 289.8h.01M64.9 386.5h.01M129.4 307.4h.01M104.1 271.8h.01M285.9 391.7h.01M198.7 274.7h.01M111.5 324.3h.01M196.1 222.2h.01M131.9 428.8h.01M105.2 277.7h.01M99.1 409.3h.01M107.4 295.9h.01M134.7 321.0h.01M111.2 358.1h.01M120.1 283.8h.01M103.0 412.2h.01M82.1 400.6h.01M136.9 426.3h.01M59.4 375.7h.01M231.5 248.9h.01M144.5 423.4h.01M98.5 413.7h.01M116.3 214.1h.01M114.0 348.0h.01M110.6 417.9h.01M273.2 159.5h.01M109.3 254.1h.01M151.3 429.9h.01M96.8 167.4h.01M70.6 393.4h.01M270.1 184.7h.01M263.4 404.6h.01M126.8 217.4h.01M151.6 314.6h.01M272.4 404.2h.01M206.9 347.7h.01M291.2 388.5h.01M103.3 327.0h.01M235.0 428.9h.01M105.6 339.1h.01M173.5 338.3h.01M107.0 249.9h.01M211.9 348.4h.01M281.8 175.1h.01M181.6 323.1h.01M75.5 393.9h.01M232.1 394.4h.01M72.8 336.2h.01M165.0 184.4h.01M113.8 177.4h.01M87.8 398.5h.01M255.7 414.6h.01M107.5 410.6h.01M205.5 179.0h.01M77.8 397.8h.01M314.4 166.6h.01M219.0 332.5h.01M225.9 429.6h.01M262.5 413.7h.01M241.5 329.2h.01M73.8 390.2h.01M153.3 326.5h.01M80.2 154.4h.01M80.5 123.5h.01M82.5 127.7h.01M137.4 306.6h.01M144.4 186.7h.01M299.0 377.0h.01M173.4 332.3h.01M211.3 244.3h.01M181.5 174.2h.01M160.0 322.0h.01M216.5 336.3h.01M71.0 388.5h.01M189.1 341.8h.01M225.5 411.5h.01M295.1 378.9h.01M222.9 420.6h.01M212.2 185.4h.01M179.3 163.7h.01M156.5 320.2h.01M223.2 331.0h.01M107.2 325.7h.01M132.0 424.3h.01M237.1 333.9h.01M264.8 247.7h.01M169.4 315.9h.01M162.8 188.9h.01M110.3 354.6h.01M218.0 243.0h.01M169.3 327.7h.01M139.9 307.6h.01M149.0 426.3h.01M247.8 347.4h.01M140.0 180.6h.01M86.5 401.5h.01M230.3 412.6h.01M166.5 325.5h.01M203.2 166.7h.01M78.2 133.6h.01M135.3 303.6h.01M145.9 315.9h.01M220.8 418.3h.01M123.4 379.7h.01M156.6 317.1h.01M231.0 401.5h.01M162.1 198.7h.01M219.6 184.1h.01M78.1 143.2h.01M275.9 398.8h.01M131.6 294.5h.01M77.6 130.0h.01M276.9 394.0h.01M202.8 335.0h.01M277.7 184.3h.01M122.0 176.9h.01M169.8 335.6h.01M198.6 185.5h.01M191.8 161.1h.01M256.8 418.6h.01M163.2 342.1h.01M269.3 256.6h.01M148.7 318.3h.01M251.8 333.1h.01M155.1 314.9h.01M223.4 346.2h.01M160.2 335.8h.01M168.2 339.8h.01M190.3 276.6h.01M294.8 384.4h.01M232.2 398.5h.01M254.1 271.0h.01M90.8 401.5h.01"/>
<path stroke="#1a1a1a" stroke-width="3.41" stroke-linecap="round" fill="none" d="M210.6 338.2h.01M93.3 383.5h.01M117.6 377.7h.01M128.4 404.3h.01M194.0 174.3h.01M106.5 354.6h.01M138.2 165.1h.01M252.7 394.6h.01M88.2 366.7h.01M255.6 392.3h.01M93.1 379.1h.01M232.5 338.2h.01M84.6 351.8h.01M123.3 420.3h.01M120.5 160.7h.01M82.9 389.2h.01M101.4 401.3h.01M103.4 321.2h.01M196.8 171.6h.01M154.8 311.5h.01M91.4 368.6h.01M84.1 392.0h.01M285.5 217.9h.01M61.7 373.3h.01M196.6 175.6h.01M133.8 411.2h.01M86.0 350.5h.01M142.1 173.2h.01M270.1 402.1h.01M76.0 387.0h.01M114.9 416.6h.01M265.6 370.1h.01M115.5 379.1h.01M99.5 396.0h.01M233.3 407.8h.01M82.0 346.2h.01M159.3 171.5h.01M274.6 389.4h.01M120.1 377.6h.01M182.7 333.1h.01M253.5 384.5h.01M254.4 362.4h.01M271.8 392.4h.01M105.4 347.3h.01M76.9 383.6h.01M101.5 160.6h.01M81.1 383.9h.01M89.2 158.5h.01M281.3 376.4h.01M204.1 340.6h.01M282.4 372.6h.01M79.2 385.8h.01M63.1 370.6h.01M106.1 404.0h.01M57.4 368.9h.01M233.7 405.0h.01M268.8 372.0h.01M235.1 395.6h.01M101.4 405.3h.01M264.2 181.8h.01M176.1 179.2h.01M108.0 170.0h.01M251.5 403.0h.01M269.1 395.5h.01M83.4 370.2h.01M91.2 372.2h.01M106.2 359.5h.01M80.0 389.5h.01M271.5 363.8h.01M102.4 349.7h.01M274.3 373.3h.01M125.7 416.8h.01M256.1 381.6h.01M225.4 339.8h.01M250.0 368.4h.01M65.3 369.9h.01M124.5 391.5h.01M255.4 347.4h.01M262.2 185.6h.01M174.5 173.7h.01M71.0 373.0h.01M256.5 352.5h.01M99.2 342.7h.01M200.5 341.0h.01M141.5 303.5h.01M113.8 372.2h.01M240.7 371.7h.01M200.4 344.2h.01M195.6 335.8h.01M125.5 162.3h.01M262.4 167.5h.01M129.3 416.8h.01M182.6 187.0h.01M117.5 174.7h.01M89.5 386.2h.01M257.8 402.0h.01M99.4 330.3h.01M115.3 375.7h.01M277.7 378.2h.01M62.6 359.2h.01M296.4 372.0h.01M202.4 337.9h.01M259.7 392.9h.01M281.0 366.8h.01M257.2 365.0h.01M250.0 395.5h.01M285.0 378.6h.01M182.3 183.8h.01M251.5 413.4h.01M178.6 172.7h.01M158.5 326.6h.01M150.6 310.6h.01M260.9 352.5h.01M179.6 182.6h.01M104.9 303.3h.01M109.5 163.6h.01M70.0 366.8h.01M251.5 391.7h.01M236.2 252.8h.01M103.5 356.0h.01M90.9 364.9h.01M238.6 375.3h.01M126.6 399.9h.01M257.0 410.5h.01M231.9 410.5h.01M281.8 164.9h.01M257.9 368.4h.01M209.0 179.0h.01M154.2 187.9h.01M191.2 334.1h.01M69.4 360.6h.01M253.6 410.9h.01M207.5 340.7h.01M79.1 377.9h.01M82.8 353.3h.01M120.9 383.6h.01M131.7 298.9h.01M90.5 397.4h.01M119.5 380.8h.01M249.2 172.9h.01M301.6 188.8h.01M268.3 383.9h.01M185.3 174.6h.01M288.8 171.1h.01M208.6 344.5h.01M255.2 400.4h.01M213.6 216.9h.01M236.2 422.9h.01M255.2 396.5h.01M86.0 379.7h.01M258.0 181.0h.01M82.7 349.8h.01M79.6 381.4h.01M272.4 380.8h.01M167.3 319.5h.01M87.7 390.5h.01M275.5 364.0h.01M257.1 184.3h.01M278.8 373.2h.01M66.0 362.0h.01M98.3 393.4h.01M260.8 403.2h.01M87.0 356.0h.01M129.5 412.5h.01M181.4 330.2h.01M177.5 328.0h.01M285.5 374.7h.01M93.4 398.4h.01M52.2 361.7h.01M276.4 381.6h.01M248.9 416.7h.01M188.6 331.1h.01M271.9 180.3h.01M266.6 402.2h.01M77.1 380.1h.01M252.7 398.3h.01M254.0 370.8h.01M124.7 404.4h.01M67.4 364.7h.01M58.2 366.0h.01M182.5 336.0h.01M217.8 239.6h.01M106.2 312.4h.01M237.8 418.6h.01M293.6 374.8h.01M138.5 301.9h.01M250.5 387.1h.01M250.9 400.1h.01M75.0 378.0h.01M79.1 374.4h.01M252.5 380.5h.01M117.0 373.4h.01M248.7 398.0h.01M209.1 217.2h.01M175.4 335.1h.01M72.4 376.5h.01M297.8 164.4h.01M169.3 322.9h.01M84.9 367.4h.01M276.5 385.5h.01M267.4 392.4h.01M168.9 176.9h.01M201.3 180.4h.01M278.0 367.0h.01M124.3 383.6h.01M255.4 169.1h.01M86.4 363.9h.01M270.5 388.4h.01M107.5 172.9h.01M83.4 362.1h.01M67.0 376.8h.01M271.6 366.9h.01M258.5 388.9h.01M93.1 374.6h.01M70.7 369.9h.01M214.3 339.0h.01M100.8 392.2h.01M105.9 162.3h.01M191.9 338.1h.01M69.9 378.3h.01M145.1 171.0h.01M274.8 173.6h.01M228.5 244.4h.01M260.7 383.2h.01M300.2 202.0h.01M219.6 343.8h.01M266.3 388.5h.01M117.9 385.4h.01M221.5 186.7h.01M270.8 224.7h.01M274.1 177.2h.01M97.3 390.3h.01M206.5 337.0h.01M160.1 317.3h.01M79.5 370.6h.01M100.1 335.0h.01M87.9 381.2h.01M168.4 184.6h.01M69.3 374.9h.01M196.2 340.6h.01M94.3 308.5h.01M254.9 180.7h.01M87.3 361.1h.01M250.7 363.1h.01M185.3 185.7h.01M82.0 373.0h.01M145.1 419.7h.01M291.8 370.5h.01M258.1 178.1h.01M97.6 386.3h.01M105.5 166.3h.01M270.0 166.6h.01M173.4 324.4h.01M227.7 417.7h.01M136.5 413.5h.01M131.5 408.1h.01M96.3 399.9h.01M103.9 401.3h.01M123.8 387.4h.01M136.6 407.5h.01M255.5 404.5h.01M90.9 382.4h.01M287.4 382.1h.01M173.5 328.5h.01M126.3 395.9h.01M115.3 365.8h.01M79.6 360.9h.01M283.8 369.4h.01M244.1 416.9h.01M127.7 408.4h.01M67.5 383.3h.01M253.8 355.1h.01M94.5 392.8h.01M224.9 242.0h.01M73.3 371.9h.01M94.7 189.4h.01M141.2 299.7h.01M142.4 417.4h.01M68.0 372.0h.01M211.7 342.6h.01M289.5 373.7h.01M283.7 383.1h.01M306.4 196.0h.01M54.5 365.5h.01M89.1 374.8h.01M273.6 369.9h.01M134.3 163.9h.01M63.5 379.0h.01M99.3 402.7h.01M231.1 420.7h.01M252.6 376.0h.01M177.1 330.8h.01M94.8 385.5h.01M165.4 180.4h.01M273.7 182.6h.01M86.3 358.8h.01M256.5 374.0h.01M236.7 387.5h.01M111.6 364.8h.01M221.6 335.5h.01M65.4 373.5h.01M217.2 200.8h.01M289.7 377.4h.01M104.4 170.2h.01M82.0 376.0h.01M190.1 174.7h.01M67.4 355.6h.01M190.5 186.8h.01M101.8 344.3h.01M77.1 390.0h.01M64.3 367.4h.01M253.3 366.6h.01M199.7 175.5h.01M287.4 368.2h.01M171.5 184.9h.01M265.8 406.1h.01M270.1 360.5h.01M219.6 210.0h.01M82.9 386.2h.01M182.6 161.5h.01M97.0 164.1h.01M219.6 338.0h.01M250.0 372.6h.01M107.8 357.6h.01M64.5 359.0h.01M86.0 387.2h.01M182.7 165.3h.01M267.4 375.0h.01M248.0 401.0h.01M271.6 371.7h.01M81.7 394.2h.01M130.8 399.8h.01M236.4 414.5h.01M260.2 375.7h.01M163.7 328.2h.01M159.5 177.7h.01M236.9 391.6h.01M204.5 344.2h.01M148.3 422.6h.01M268.9 368.6h.01M100.0 388.0h.01M275.0 367.0h.01M263.9 361.1h.01M127.1 422.8h.01M255.5 408.0h.01M87.4 383.9h.01M143.6 306.6h.01M186.8 334.9h.01M73.2 385.4h.01M252.9 406.7h.01M303.0 186.0h.01M276.8 180.6h.01M59.7 370.7h.01M85.4 376.9h.01M62.4 351.1h.01M85.4 373.6h.01M91.5 387.8h.01M172.9 177.5h.01M187.8 183.8h.01M63.5 376.2h.01M83.9 319.7h.01M163.0 166.5h.01M73.5 380.0h.01M276.9 370.3h.01M99.0 399.0h.01M196.1 163.2h.01M267.8 363.9h.01M258.7 355.5h.01M295.6 208.8h.01M103.9 342.3h.01M56.5 356.9h.01M185.0 331.3h.01M119.9 417.1h.01M131.6 403.2h.01M178.2 176.4h.01M274.9 185.1h.01M266.9 358.4h.01M264.7 377.6h.01M123.2 398.0h.01M86.2 394.5h.01M198.9 337.4h.01M264.0 355.6h.01M148.0 307.7h.01M257.5 385.0h.01M268.3 181.6h.01M94.1 389.6h.01M287.1 371.2h.01M134.9 404.6h.01M263.3 373.7h.01M183.5 171.9h.01M67.4 380.1h.01M138.3 416.5h.01M178.8 332.4h.01M253.8 184.8h.01M247.7 205.1h.01M265.3 185.3h.01M82.2 358.5h.01M258.4 396.6h.01M122.9 394.6h.01M293.3 211.7h.01M135.2 299.2h.01M196.6 345.0h.01M84.9 348.1h.01M78.5 367.5h.01M202.5 173.3h.01M194.3 185.0h.01M272.5 384.6h.01M228.2 422.6h.01M158.5 313.1h.01M268.9 379.4h.01M103.6 407.6h.01M280.6 385.6h.01M86.3 353.1h.01M120.3 391.3h.01M269.1 177.1h.01M172.2 319.8h.01M101.7 353.4h.01M96.0 395.8h.01M112.4 369.0h.01M74.4 382.8h.01M271.1 375.3h.01M140.2 413.5h.01M169.6 180.6h.01M100.7 339.6h.01M102.8 337.0h.01M83.8 356.2h.01M105.4 351.6h.01M116.9 382.1h.01M264.1 224.3h.01M264.1 380.9h.01M162.7 315.4h.01M102.0 397.8h.01M280.5 381.0h.01M127.5 389.8h.01M260.7 399.3h.01M260.4 379.4h.01M62.8 362.0h.01M107.6 406.8h.01M169.2 331.4h.01M263.7 177.4h.01M221.9 340.6h.01M197.2 167.4h.01M89.3 394.4h.01M276.5 375.4h.01M226.9 425.7h.01M119.9 387.7h.01M138.9 410.2h.01M305.0 164.2h.01M131.2 420.2h.01M87.7 370.5h.01M201.8 177.1h.01M130.1 396.9h.01M260.9 358.1h.01M100.7 252.7h.01M81.9 366.1h.01M256.7 378.3h.01M179.4 334.9h.01M265.3 365.6h.01M266.3 179.1h.01M222.3 205.7h.01M92.9 395.1h.01M96.7 381.8h.01M188.0 172.0h.01M273.6 377.6h.01M89.6 378.3h.01M238.8 379.5h.01M233.7 418.6h.01M133.1 415.6h.01M280.0 370.0h.01M285.4 165.1h.01M254.3 388.4h.01M135.4 418.8h.01M91.1 391.4h.01M71.0 381.8h.01"/>
<path stroke="#1a1a1a" stroke-width="3.93" stroke-linecap="round" fill="none" d="M75.5 374.0h.01M110.0 394.5h.01M302.8 195.8h.01M184.2 182.2h.01M75.9 338.3h.01M166.0 177.0h.01M170.5 167.4h.01M100.1 301.7h.01M282.6 221.4h.01M219.0 180.5h.01M155.8 177.8h.01M128.8 393.6h.01M98.0 346.0h.01M125.8 165.4h.01M264.9 169.9h.01M215.4 342.5h.01M100.2 322.6h.01M264.1 396.3h.01M72.2 347.0h.01M81.1 328.7h.01M80.0 352.0h.01M151.1 179.7h.01M201.4 169.7h.01M251.5 212.3h.01M115.3 395.0h.01M237.5 406.0h.01M235.3 181.8h.01M82.3 379.3h.01M310.9 174.4h.01M86.5 332.4h.01M96.8 341.3h.01M135.9 171.9h.01M307.9 182.9h.01M84.3 329.5h.01M100.6 383.4h.01M79.6 334.9h.01M103.4 378.3h.01M240.9 415.7h.01M86.6 337.8h.01M112.8 396.5h.01M155.5 171.0h.01M77.8 341.5h.01M64.7 349.1h.01M242.2 381.5h.01M89.3 343.0h.01M146.6 176.6h.01M99.3 318.9h.01M204.6 221.9h.01M157.5 174.5h.01M308.0 180.5h.01M244.9 400.9h.01M161.5 183.9h.01M262.0 171.0h.01M75.7 359.8h.01M60.5 363.8h.01M102.3 374.6h.01M147.5 172.3h.01M148.9 169.1h.01M241.4 386.0h.01M118.2 162.0h.01M293.5 162.8h.01M124.4 169.3h.01M139.6 172.6h.01M96.3 363.0h.01M130.9 170.9h.01M228.0 184.2h.01M227.4 189.0h.01M76.6 376.4h.01M105.5 393.0h.01M199.2 169.0h.01M308.2 177.7h.01M77.1 331.7h.01M312.7 178.8h.01M264.2 384.6h.01M273.8 167.6h.01M101.0 370.0h.01M174.5 167.4h.01M264.1 400.3h.01M78.9 329.9h.01M119.4 408.7h.01M90.0 322.5h.01M245.7 379.8h.01M158.6 188.9h.01M107.1 378.3h.01M77.3 356.5h.01M150.4 176.9h.01M89.7 315.5h.01M79.5 364.0h.01M261.4 365.1h.01M94.8 338.5h.01M171.0 174.1h.01M92.7 358.6h.01M112.9 377.1h.01M187.4 224.0h.01M114.9 384.1h.01M101.8 316.8h.01M122.4 171.2h.01M91.0 326.5h.01M125.5 413.0h.01M244.2 397.3h.01M237.7 395.6h.01M244.6 392.1h.01M66.9 358.9h.01M97.3 365.9h.01M249.4 180.1h.01M92.1 337.7h.01M149.1 174.1h.01M239.0 182.0h.01M246.8 358.2h.01M250.7 405.8h.01M260.8 182.4h.01M248.2 190.7h.01M133.1 172.9h.01M311.5 168.0h.01M142.0 170.0h.01M109.0 380.0h.01M246.3 398.2h.01M253.0 345.2h.01M88.5 329.5h.01M247.4 413.4h.01M159.2 201.5h.01M101.5 346.8h.01M100.3 364.1h.01M249.4 355.5h.01M67.5 368.5h.01M161.6 210.2h.01M96.7 353.5h.01M229.0 180.3h.01M247.6 352.5h.01M61.3 357.6h.01M248.4 360.7h.01M209.7 174.2h.01M108.5 389.0h.01M243.1 185.7h.01M137.7 177.2h.01M86.6 322.6h.01M263.5 392.2h.01M261.4 221.6h.01M94.1 341.9h.01M114.2 381.2h.01M258.9 170.6h.01M199.8 171.8h.01M98.9 376.9h.01M289.7 167.4h.01M84.1 344.3h.01M223.5 183.5h.01M117.3 397.0h.01M231.0 184.7h.01M113.9 410.9h.01M191.9 223.0h.01M105.5 369.6h.01M251.7 348.3h.01M75.9 370.2h.01M98.0 369.0h.01M131.0 165.0h.01M124.1 174.8h.01M130.6 173.9h.01M241.5 407.5h.01M213.4 172.5h.01M241.9 398.1h.01M267.5 398.6h.01M102.3 376.4h.01M132.0 168.0h.01M179.1 179.8h.01M304.3 199.6h.01M103.1 393.3h.01M117.7 412.8h.01M64.1 356.3h.01M100.2 309.4h.01M304.7 180.1h.01M102.3 390.0h.01M103.8 362.1h.01M92.8 349.2h.01M102.4 381.3h.01M159.3 168.7h.01M134.3 176.0h.01M110.5 392.0h.01M104.1 395.5h.01M93.5 161.8h.01M113.8 160.0h.01M306.2 168.1h.01M255.8 173.7h.01M249.9 345.2h.01M117.2 402.2h.01M56.8 363.0h.01M301.5 163.0h.01M115.2 162.7h.01M96.7 322.4h.01M103.9 372.3h.01M102.8 359.0h.01M180.7 170.4h.01M181.8 223.4h.01M115.8 408.2h.01M100.2 313.4h.01M108.0 392.0h.01M115.7 391.8h.01M95.0 359.5h.01M144.5 174.1h.01M225.7 185.9h.01M223.9 188.7h.01M246.9 394.7h.01M122.1 414.5h.01M305.5 192.6h.01M95.9 377.9h.01M221.4 240.6h.01M247.1 182.4h.01M244.8 406.0h.01M300.7 175.4h.01M222.5 193.2h.01M117.2 399.6h.01M111.3 407.6h.01M232.0 182.0h.01M71.0 357.1h.01M125.2 410.1h.01M304.5 189.7h.01M192.5 171.2h.01M249.5 350.0h.01M106.4 364.0h.01M253.3 341.4h.01M236.1 399.3h.01M166.6 168.4h.01M61.2 367.5h.01M99.5 356.9h.01M76.1 335.1h.01M79.6 354.9h.01M76.6 362.5h.01M310.5 180.0h.01M169.6 217.1h.01M93.4 315.9h.01M72.4 343.5h.01M233.2 414.5h.01M92.0 347.0h.01M91.4 340.3h.01M312.7 172.3h.01M89.5 347.5h.01M86.9 344.1h.01M93.6 334.4h.01M239.7 185.4h.01M59.8 355.8h.01M228.6 338.4h.01M165.6 212.5h.01M91.8 330.5h.01M120.1 396.6h.01M177.2 222.3h.01M247.4 197.8h.01M259.7 218.5h.01M107.3 383.6h.01M97.5 160.5h.01M160.3 191.8h.01M94.3 351.0h.01M305.7 170.8h.01M231.8 178.7h.01M100.5 367.0h.01M72.5 350.5h.01M90.0 351.7h.01M259.0 174.5h.01M301.2 171.6h.01M91.9 343.3h.01M152.1 173.8h.01M140.7 167.0h.01M250.4 183.2h.01M69.5 352.5h.01M225.6 177.4h.01M315.0 170.3h.01M230.7 416.5h.01M75.1 356.6h.01M246.1 193.9h.01M307.4 188.8h.01M76.6 352.4h.01M237.0 338.5h.01M270.5 170.0h.01M145.2 167.9h.01M66.6 346.6h.01M218.3 340.5h.01M92.4 352.8h.01M292.5 170.5h.01M112.5 383.0h.01M182.4 177.1h.01M112.5 164.7h.01M128.6 167.6h.01M93.9 364.1h.01M186.4 177.5h.01M161.4 173.5h.01M79.5 349.5h.01M289.4 163.5h.01M90.1 359.0h.01M305.1 183.0h.01M248.8 383.4h.01M308.3 185.8h.01M184.2 169.5h.01M243.8 412.8h.01M305.9 186.1h.01M210.4 170.5h.01M79.9 347.1h.01M225.4 191.5h.01M192.2 177.0h.01M126.3 172.9h.01M261.9 387.8h.01M186.1 180.9h.01M96.0 374.8h.01M235.0 179.1h.01M246.7 387.3h.01M106.7 245.1h.01M189.5 180.8h.01M90.0 345.5h.01M189.3 178.2h.01M154.0 175.5h.01M113.5 401.5h.01M88.4 353.2h.01M109.9 376.8h.01M296.2 213.1h.01M118.5 171.8h.01M252.6 179.3h.01M254.3 218.3h.01M215.4 212.9h.01M99.4 326.4h.01M104.7 380.4h.01M130.1 176.1h.01M90.7 362.1h.01M244.0 373.5h.01M238.0 409.1h.01M64.0 365.0h.01M300.3 205.3h.01M104.8 307.9h.01M251.9 216.2h.01M73.2 354.2h.01M225.7 181.1h.01M80.6 339.6h.01M114.5 404.8h.01M97.4 315.4h.01M108.6 368.9h.01M193.7 179.9h.01M69.4 344.5h.01M242.8 394.5h.01M86.9 341.1h.01M262.4 369.1h.01M75.5 365.3h.01M118.6 164.9h.01M175.5 183.4h.01M111.0 171.5h.01M315.3 174.4h.01M223.7 337.8h.01M239.1 398.1h.01M138.8 169.5h.01M235.4 410.8h.01M82.7 337.3h.01M306.3 175.4h.01M143.4 177.7h.01M247.4 364.2h.01M96.7 350.0h.01M204.2 170.1h.01M99.5 372.0h.01M87.2 346.9h.01M166.8 171.8h.01M94.5 367.0h.01M123.3 401.3h.01M155.2 190.5h.01M97.5 337.3h.01M247.1 375.4h.01M91.8 355.7h.01M116.5 389.2h.01M82.6 322.9h.01M77.4 346.7h.01M194.7 169.3h.01M244.2 388.9h.01M120.0 400.0h.01M108.4 386.3h.01M103.2 312.0h.01M103.6 365.6h.01M256.2 220.3h.01M243.0 403.7h.01M100.8 305.5h.01M244.8 188.9h.01M134.0 170.0h.01M151.6 171.1h.01M102.6 386.6h.01M109.0 167.3h.01M136.6 169.2h.01M240.9 405.1h.01M96.9 311.3h.01M191.5 183.2h.01M93.4 322.9h.01M114.2 173.3h.01M172.4 170.6h.01M63.2 354.0h.01M95.9 357.1h.01M238.0 178.4h.01M112.4 389.4h.01M245.6 409.4h.01M255.9 176.9h.01M246.6 367.1h.01M80.3 343.4h.01M118.5 168.7h.01M84.1 340.6h.01M287.5 160.1h.01M94.7 370.4h.01M279.0 169.3h.01M248.0 406.2h.01M109.7 384.2h.01M126.4 169.7h.01M107.1 395.1h.01M302.5 168.0h.01M245.5 178.8h.01M154.9 184.6h.01M79.1 358.1h.01M274.6 223.6h.01M100.9 361.1h.01M157.0 192.2h.01M107.9 398.1h.01M299.0 168.8h.01M75.5 345.2h.01M108.0 372.3h.01M304.8 172.8h.01M241.5 178.4h.01M91.5 319.1h.01M248.7 186.7h.01M295.6 168.2h.01M122.3 163.6h.01M237.7 383.5h.01M68.8 348.8h.01M118.7 405.5h.01M161.0 186.5h.01M111.3 373.9h.01M99.7 379.5h.01M244.5 361.6h.01M242.4 181.7h.01M240.1 394.3h.01M293.7 216.0h.01M215.9 175.0h.01M105.7 382.1h.01M78.4 337.4h.01M236.5 184.0h.01M241.8 410.1h.01M283.2 169.9h.01M95.4 330.4h.01M112.0 379.7h.01M154.3 180.8h.01M71.2 363.6h.01M103.0 368.7h.01M98.0 360.0h.01M120.8 403.5h.01M173.2 181.2h.01M303.2 174.2h.01M89.0 339.7h.01M114.6 170.1h.01M248.4 390.8h.01M176.5 170.5h.01M95.5 318.7h.01M75.5 349.2h.01M89.2 336.6h.01M239.5 412.5h.01M121.7 410.9h.01M163.4 170.4h.01M107.1 401.0h.01M99.0 374.5h.01M74.8 341.7h.01M219.7 174.0h.01M249.6 177.0h.01M245.4 184.0h.01M83.7 382.6h.01M137.3 174.2h.01M237.5 403.2h.01M93.3 157.1h.01M156.7 195.1h.01M158.1 198.4h.01M59.3 360.1h.01M108.7 362.1h.01M73.2 367.2h.01M261.9 174.2h.01M118.2 393.8h.01M110.5 400.0h.01M94.3 361.4h.01M127.1 175.6h.01M95.0 344.9h.01M240.3 402.0h.01M243.7 365.2h.01M309.3 169.9h.01M244.9 384.4h.01M95.5 326.5h.01M95.2 347.8h.01M221.8 177.2h.01M85.3 335.3h.01M248.2 403.6h.01M86.5 326.3h.01M103.9 299.3h.01M233.9 185.2h.01M249.5 208.7h.01M110.1 396.9h.01M312.6 176.3h.01M246.0 370.4h.01M252.0 358.7h.01M99.0 352.2h.01M105.1 389.6h.01M106.2 375.4h.01M162.8 176.8h.01M240.6 390.3h.01M249.3 201.1h.01M252.9 175.7h.01M82.9 333.3h.01M97.2 333.6h.01M158.1 185.8h.01M222.3 199.0h.01M296.5 171.5h.01M242.7 377.2h.01M114.9 386.9h.01M93.5 312.7h.01M55.4 360.1h.01M165.0 173.8h.01M238.5 400.5h.01M289.6 218.0h.01M182.4 179.9h.01M115.4 166.6h.01M249.7 409.6h.01M96.8 305.7h.01M66.0 352.2h.01M108.2 366.3h.01M308.7 173.1h.01M73.1 361.0h.01M114.8 398.6h.01M128.5 171.0h.01M249.7 341.3h.01M157.3 182.7h.01M303.4 203.5h.01M82.7 325.9h.01M267.0 222.8h.01M98.4 362.8h.01M121.0 174.0h.01M251.5 352.5h.01M160.2 195.4h.01M256.1 358.3h.01M105.0 385.5h.01M101.5 372.5h.01M87.6 349.8h.01M80.3 332.0h.01M197.6 178.8h.01M89.6 355.7h.01M242.3 400.9h.01M252.2 337.5h.01M135.2 167.0h.01M259.0 361.5h.01M218.1 177.4h.01M169.1 170.7h.01M123.1 407.2h.01M94.7 355.0h.01M229.5 187.1h.01M173.3 219.8h.01M72.9 339.0h.01M89.7 333.7h.01M303.5 177.3h.01M245.8 403.2h.01M121.9 167.3h.01M208.2 220.8h.01M254.3 350.3h.01M158.9 180.8h.01M168.1 174.1h.01M160.3 205.7h.01M105.0 398.0h.01M221.9 202.0h.01M112.0 386.0h.01M265.5 173.4h.01M162.0 180.5h.01M110.7 159.9h.01M190.2 169.3h.01M200.7 222.5h.01M222.5 196.1h.01M310.3 183.7h.01M221.9 180.9h.01M110.4 403.6h.01M249.3 379.1h.01M110.3 382.0h.01M259.4 371.6h.01M293.2 166.3h.01M186.9 169.5h.01M140.9 176.4h.01M87.5 318.7h.01M267.1 169.0h.01M260.9 178.6h.01M90.0 349.5h.01M99.1 348.9h.01M113.0 393.0h.01M112.0 168.0h.01M242.0 368.3h.01M274.9 170.3h.01M286.5 168.7h.01M97.1 372.1h.01M206.6 172.3h.01"/>
</svg>