<svg xmlns="http://www.w3.org/2000/svg" viewBox="0 0 360 432" role="img">
<path stroke="#1a1a1a" stroke-width="1.80" stroke-linecap="round" fill="none" d="M23.4 353.5h.01M33.7 367.9h.01M197.8 196.0h.01M163.8 124.5h.01M259.7 426.4h.01M288.6 408.4h.01M296.8 402.0h.01M269.7 422.4h.01M187.8 190.3h.01M191.3 204.6h.01M280.1 415.5h.01M18.6 344.1h.01M69.8 405.2h.01M190.9 196.8h.01M38.3 375.1h.01M358.6 111.0h.01M28.1 361.9h.01M0.4 244.1h.01M54.5 394.0h.01M103.7 427.3h.01M153.3 106.3h.01M176.0 88.6h.01M0.4 283.9h.01M194.7 189.4h.01M104.9 252.2h.01M141.3 101.4h.01M127.5 193.3h.01M158.7 101.1h.01M271.4 0.4h.01M95.0 424.7h.01M175.0 187.7h.01M358.6 149.4h.01M62.6 400.3h.01M75.1 410.6h.01M358.6 286.8h.01M81.9 414.7h.01M181.0 191.2h.01M49.5 386.9h.01M0.4 165.3h.01M200.7 190.7h.01M0.4 119.4h.01M198.9 201.5h.01M43.7 381.3h.01M358.6 249.2h.01M88.5 418.5h.01M91.9 0.4h.01"/>
<path stroke="#1a1a1a" stroke-width="2.21" stroke-linecap="round" fill="none" d="M189.3 133.9h.01M159.4 78.8h.01M117.6 130.7h.01M180.8 98.9h.01M265.4 228.3h.01M148.9 128.2h.01M128.1 231.2h.01M266.8 416.9h.01M132.9 264.4h.01M146.0 268.4h.01M138.8 299.7h.01M358.6 183.0h.01M143.4 282.8h.01M154.0 93.4h.01M195.0 103.1h.01M25.2 346.9h.01M118.2 123.0h.01M293.6 226.8h.01M167.3 190.1h.01M131.8 177.4h.01M155.0 124.0h.01M203.0 185.9h.01M160.3 94.4h.01M57.1 387.3h.01M136.1 289.4h.01M156.7 182.6h.01M140.7 172.5h.01M141.4 271.5h.01M206.1 191.5h.01M183.0 184.1h.01M133.4 62.2h.01M157.2 48.6h.01M152.1 178.6h.01M151.9 225.5h.01M151.6 231.5h.01M162.4 264.1h.01M120.8 186.8h.01M283.8 402.8h.01M168.8 129.3h.01M206.3 100.1h.01M137.4 283.0h.01M289.6 400.7h.01M146.5 121.5h.01M120.3 172.1h.01M51.1 334.2h.01M156.5 71.8h.01M138.4 89.0h.01M131.1 284.7h.01M26.0 340.5h.01M209.4 108.0h.01M146.4 91.6h.01M60.7 392.8h.01M168.3 110.1h.01M161.7 108.6h.01M143.6 288.6h.01M128.9 167.6h.01M49.5 378.6h.01M145.9 106.3h.01M149.6 49.2h.01M153.7 57.3h.01M189.9 184.6h.01M173.8 124.3h.01M31.1 357.3h.01M293.4 396.3h.01M160.5 257.9h.01M196.4 111.7h.01M292.0 178.4h.01M118.3 193.8h.01M158.1 224.1h.01M147.1 62.5h.01M156.7 264.3h.01M189.5 87.3h.01M134.3 101.6h.01M120.7 247.0h.01M0.4 205.9h.01M139.9 264.3h.01M158.9 174.5h.01M229.0 0.4h.01M249.5 428.6h.01M198.8 207.8h.01M287.3 232.6h.01M200.8 123.4h.01M126.1 173.2h.01M204.4 197.2h.01M169.1 84.2h.01M146.6 192.7h.01M131.3 126.2h.01M176.4 181.2h.01M123.8 126.6h.01M124.5 180.3h.01M147.8 254.9h.01M175.1 110.9h.01M148.9 274.5h.01M36.8 361.7h.01M199.0 97.7h.01M181.7 106.6h.01M158.5 64.3h.01M143.4 56.6h.01M280.2 408.2h.01M163.0 221.1h.01M188.7 115.2h.01M150.2 71.6h.01M146.2 176.9h.01M167.6 209.3h.01M181.2 129.8h.01M141.4 294.0h.01M168.0 117.5h.01M171.6 221.0h.01M166.6 102.9h.01M198.1 182.9h.01M181.7 114.1h.01M166.6 96.6h.01M175.1 195.4h.01M112.9 118.8h.01M183.4 198.1h.01M129.9 186.0h.01M182.2 83.7h.01M156.6 113.0h.01M139.2 77.6h.01M196.1 118.9h.01M129.8 257.0h.01M145.2 133.6h.01M136.9 107.5h.01M45.3 373.8h.01M205.2 211.0h.01M136.0 183.9h.01M110.6 427.3h.01M161.1 271.2h.01M145.9 229.9h.01M181.1 136.8h.01M147.4 296.1h.01M160.4 213.3h.01M282.2 386.1h.01M131.8 161.6h.01M188.7 107.7h.01M118.6 265.5h.01M291.3 205.7h.01M159.9 86.0h.01M128.9 299.2h.01M194.0 211.0h.01M136.4 53.3h.01M139.0 0.4h.01M192.3 94.7h.01M139.4 229.9h.01M166.1 216.3h.01M188.9 79.8h.01M273.3 413.1h.01M151.5 266.9h.01M167.2 77.9h.01M183.6 92.9h.01M167.8 90.9h.01M149.3 99.0h.01M281.5 233.2h.01M177.5 222.3h.01M139.9 95.3h.01M202.2 106.3h.01M136.6 191.7h.01M152.2 260.2h.01M178.7 228.7h.01M40.9 368.9h.01M149.0 280.2h.01M168.8 183.3h.01M143.2 255.5h.01M143.7 247.1h.01M174.2 96.1h.01M203.5 92.3h.01M155.2 218.3h.01M168.7 135.5h.01M204.5 115.6h.01M358.6 215.9h.01M156.4 229.3h.01M171.9 213.9h.01M175.2 78.8h.01M185.0 0.4h.01M164.1 178.6h.01M174.3 104.0h.01M155.1 272.7h.01M181.6 75.7h.01M134.3 295.9h.01M188.0 99.5h.01M154.4 197.2h.01M129.1 155.5h.01M151.3 85.1h.01M148.3 220.5h.01M175.0 131.9h.01M145.8 77.4h.01M173.4 227.4h.01M205.4 204.0h.01M277.5 240.4h.01M136.6 257.0h.01M135.0 169.6h.01"/>
<path stroke="#1a1a1a" stroke-width="2.63" stroke-linecap="round" fill="none" d="M89.2 188.5h.01M141.8 277.2h.01M216.5 428.5h.01M274.6 234.8h.01M136.1 155.6h.01M190.3 214.5h.01M300.1 225.6h.01M129.0 243.9h.01M182.9 68.9h.01M213.2 127.2h.01M182.3 52.3h.01M101.9 258.6h.01M76.6 401.1h.01M184.1 229.5h.01M266.6 410.1h.01M195.1 82.3h.01M222.6 109.4h.01M176.7 296.0h.01M285.2 396.3h.01M176.5 69.6h.01M82.0 194.5h.01M110.7 107.5h.01M156.5 279.7h.01M293.8 213.1h.01M141.2 166.6h.01M75.2 323.1h.01M217.3 90.0h.01M135.8 236.9h.01M280.4 398.7h.01M123.9 428.5h.01M224.2 92.5h.01M93.5 190.9h.01M152.5 65.1h.01M252.6 422.8h.01M210.1 132.6h.01M131.2 227.0h.01M122.9 257.4h.01M116.8 308.1h.01M135.5 276.7h.01M56.9 204.3h.01M139.8 63.3h.01M295.3 220.0h.01M203.0 180.7h.01M306.7 207.5h.01M211.8 210.1h.01M206.5 86.0h.01M209.2 91.9h.01M144.5 301.1h.01M273.9 251.7h.01M111.3 126.6h.01M197.7 136.0h.01M212.8 113.5h.01M189.4 57.5h.01M213.0 186.4h.01M144.3 225.1h.01M140.0 128.6h.01M119.1 116.0h.01M207.8 181.1h.01M141.3 236.2h.01M143.5 182.5h.01M154.3 249.1h.01M262.7 244.3h.01M293.1 239.9h.01M259.5 419.1h.01M61.8 269.9h.01M219.5 115.5h.01M201.6 83.1h.01M194.0 180.6h.01M269.1 238.8h.01M154.2 210.7h.01M154.4 237.0h.01M172.3 177.4h.01M217.7 189.5h.01M111.8 67.4h.01M155.6 169.1h.01M183.5 204.9h.01M212.6 95.7h.01M163.0 72.2h.01M168.0 37.2h.01M134.8 44.9h.01M213.9 102.1h.01M181.5 121.1h.01M204.6 129.1h.01M188.7 261.8h.01M166.2 54.2h.01M138.8 177.9h.01M87.0 409.4h.01M129.1 291.7h.01M231.8 423.1h.01M136.8 83.0h.01M149.9 214.3h.01M133.2 119.7h.01M176.2 52.8h.01M189.1 121.4h.01M212.3 145.4h.01M78.2 189.9h.01M160.7 56.9h.01M276.8 227.8h.01M129.7 277.8h.01M123.3 230.4h.01M212.2 138.9h.01M210.3 198.2h.01M149.8 185.8h.01M197.6 88.9h.01M245.2 423.7h.01M54.0 382.4h.01M59.3 334.0h.01M132.3 150.2h.01M277.0 402.5h.01M208.1 186.1h.01M128.9 100.0h.01M125.8 119.7h.01M107.4 420.3h.01M123.0 276.9h.01M190.7 154.0h.01M218.9 96.2h.01M146.5 170.3h.01M241.1 107.0h.01M178.0 48.2h.01M122.1 270.3h.01M129.4 56.0h.01M216.4 134.2h.01M117.1 427.8h.01M220.8 102.2h.01M156.5 286.9h.01M211.5 204.5h.01M272.8 245.1h.01M217.2 206.5h.01M223.5 120.1h.01M148.3 113.7h.01M224.7 423.9h.01M180.7 63.1h.01M137.5 161.9h.01M157.6 130.1h.01M193.2 126.5h.01M170.2 71.6h.01M208.2 428.7h.01M181.2 170.6h.01M125.7 133.4h.01M102.1 194.1h.01M165.9 200.0h.01M112.7 263.0h.01M196.0 56.8h.01M66.2 162.2h.01M138.0 322.4h.01M184.4 56.8h.01M152.4 78.5h.01M275.7 383.6h.01M269.2 254.0h.01M189.7 68.2h.01M186.0 210.5h.01M273.2 406.6h.01M118.1 200.8h.01M211.3 191.9h.01M162.9 205.2h.01M223.9 205.4h.01M101.6 420.4h.01M220.1 129.6h.01M277.9 190.3h.01M73.2 185.6h.01M174.6 139.0h.01M150.2 285.5h.01M115.8 56.1h.01M122.7 166.1h.01M75.3 195.3h.01M144.9 69.0h.01M221.8 200.2h.01M216.9 108.1h.01M287.1 245.4h.01M297.6 231.0h.01M105.7 103.9h.01M245.0 417.7h.01M289.0 393.0h.01M96.7 417.3h.01M174.9 117.8h.01M138.7 136.0h.01M213.3 119.7h.01M226.7 428.8h.01M139.5 71.3h.01M109.0 257.4h.01M186.5 146.5h.01M147.9 235.8h.01M140.9 111.9h.01M304.0 221.7h.01M286.8 210.3h.01M123.9 287.9h.01M107.1 265.8h.01M119.0 281.8h.01M264.8 373.3h.01M133.3 132.0h.01M255.8 351.1h.01M142.2 188.1h.01M98.3 252.6h.01M178.0 166.9h.01M163.3 48.3h.01M267.5 248.6h.01M171.8 65.2h.01M133.6 95.5h.01M30.9 345.3h.01M212.5 86.5h.01M194.6 74.7h.01M110.7 61.3h.01M69.8 398.5h.01M186.2 126.8h.01M197.9 130.4h.01M138.9 123.4h.01M36.9 355.5h.01M161.2 117.7h.01M175.3 61.5h.01M233.1 428.6h.01M30.9 351.5h.01M163.2 133.0h.01M150.9 291.3h.01M197.1 151.6h.01M143.8 215.8h.01M213.0 181.0h.01M220.8 210.6h.01M104.3 125.5h.01M136.7 225.4h.01M152.1 134.5h.01M204.7 135.8h.01M164.7 65.1h.01M167.1 260.4h.01M140.5 305.2h.01M131.4 138.4h.01M170.5 49.9h.01M80.5 406.6h.01M191.0 149.3h.01M240.2 428.3h.01M125.5 282.2h.01M132.4 113.4h.01M117.2 179.1h.01M146.0 262.1h.01M146.9 164.7h.01M206.8 79.5h.01M160.1 251.4h.01M124.4 199.1h.01M215.8 194.9h.01M129.0 271.2h.01M126.3 63.3h.01M151.6 172.3h.01M167.4 60.3h.01M200.0 214.3h.01M141.2 199.6h.01M85.8 192.0h.01M219.0 123.5h.01M66.8 392.8h.01M140.5 117.2h.01M153.6 118.5h.01M114.0 185.3h.01M126.1 264.7h.01M284.7 204.2h.01M69.9 191.4h.01M135.4 270.0h.01M104.5 109.7h.01M217.6 183.3h.01M144.0 84.1h.01M191.5 62.0h.01M127.4 235.8h.01M215.9 200.4h.01M167.0 268.2h.01M238.7 421.9h.01M131.4 78.6h.01M135.3 219.4h.01M153.9 190.9h.01M188.0 73.8h.01M42.5 364.2h.01M222.2 184.6h.01M212.5 428.5h.01M181.1 151.3h.01M133.1 74.1h.01M226.8 104.4h.01M135.4 246.3h.01M106.6 120.4h.01M127.5 48.4h.01M122.8 300.5h.01M38.5 337.4h.01M140.6 220.6h.01M280.6 100.1h.01M148.9 41.5h.01M216.2 177.7h.01M109.5 113.6h.01M259.8 369.6h.01M133.3 198.5h.01M130.5 107.0h.01M134.5 423.6h.01M193.8 140.1h.01M200.0 77.5h.01M162.2 228.0h.01M185.9 151.8h.01M220.9 428.5h.01M200.4 157.1h.01M167.3 225.0h.01M209.9 215.5h.01M226.0 125.6h.01M285.0 251.4h.01M190.5 168.9h.01M207.9 122.6h.01M207.5 141.5h.01M94.1 412.7h.01M163.7 139.4h.01M156.2 302.8h.01M127.8 95.0h.01M133.5 233.0h.01"/>
<path stroke="#1a1a1a" stroke-width="3.07" stroke-linecap="round" fill="none" d="M198.4 41.3h.01M162.4 236.1h.01M213.0 422.7h.01M119.4 72.3h.01M280.1 257.2h.01M210.6 47.4h.01M176.3 36.9h.01M217.0 368.0h.01M144.1 309.3h.01M234.6 104.5h.01M226.1 84.3h.01M96.6 193.7h.01M200.5 220.4h.01M285.9 184.9h.01M88.7 120.8h.01M76.9 315.7h.01M216.9 71.7h.01M270.1 199.0h.01M216.0 62.2h.01M262.4 117.8h.01M183.8 266.0h.01M280.2 206.4h.01M203.3 392.6h.01M202.5 399.7h.01M188.3 42.0h.01M118.4 303.6h.01M231.4 144.1h.01M252.6 407.9h.01M108.4 283.8h.01M172.9 264.8h.01M127.1 90.0h.01M188.8 165.2h.01M59.8 198.3h.01M120.6 150.6h.01M210.2 152.6h.01M120.6 83.9h.01M208.0 379.7h.01M101.1 76.6h.01M225.4 58.1h.01M234.5 164.1h.01M133.1 68.3h.01M196.3 62.8h.01M238.3 189.4h.01M221.8 71.6h.01M109.5 200.2h.01M253.1 115.5h.01M269.0 377.9h.01M201.9 357.7h.01M77.8 305.4h.01M178.7 362.4h.01M240.8 336.5h.01M77.2 136.0h.01M230.6 60.6h.01M185.4 216.2h.01M256.2 105.0h.01M93.3 123.2h.01M141.8 157.0h.01M186.1 287.4h.01M231.8 186.1h.01M122.8 98.5h.01M235.4 119.4h.01M117.6 100.0h.01M104.1 173.6h.01M244.6 188.3h.01M209.8 385.0h.01M184.2 260.7h.01M171.5 272.2h.01M196.3 428.5h.01M225.3 372.3h.01M229.1 218.2h.01M195.5 68.4h.01M89.9 218.0h.01M87.4 126.3h.01M262.1 98.9h.01M120.8 422.4h.01M258.0 116.0h.01M104.9 66.3h.01M185.7 239.4h.01M120.4 78.5h.01M202.3 428.9h.01M129.1 218.0h.01M261.4 122.5h.01M171.7 257.9h.01M223.2 141.3h.01M176.7 259.4h.01M122.4 306.8h.01M273.7 222.5h.01M227.2 144.3h.01M126.5 69.4h.01M273.6 193.6h.01M261.7 89.1h.01M212.4 381.0h.01M264.6 199.9h.01M110.7 133.9h.01M243.0 101.4h.01M292.9 199.8h.01M141.4 152.1h.01M131.3 84.7h.01M196.3 52.1h.01M211.3 73.7h.01M262.6 238.9h.01M117.1 274.8h.01M200.6 148.6h.01M195.2 359.2h.01M99.5 300.1h.01M111.7 277.7h.01M214.0 365.0h.01M153.1 429.4h.01M169.7 285.0h.01M270.3 210.9h.01M267.2 89.4h.01M253.1 193.2h.01M215.6 149.8h.01M52.6 368.0h.01M165.4 239.6h.01M110.6 81.8h.01M226.7 210.1h.01M161.1 306.5h.01M240.7 117.8h.01M74.7 206.5h.01M223.1 165.4h.01M287.6 123.5h.01M153.1 311.6h.01M103.6 413.7h.01M229.4 134.7h.01M217.7 387.3h.01M229.7 77.1h.01M248.7 412.2h.01M243.1 64.7h.01M140.0 423.4h.01M94.8 298.7h.01M177.5 202.1h.01M118.6 95.2h.01M193.3 39.0h.01M228.7 164.0h.01M230.3 66.0h.01M266.1 96.8h.01M115.4 299.2h.01M247.4 193.5h.01M159.8 239.2h.01M210.1 63.6h.01M191.3 410.2h.01M233.6 175.3h.01M277.0 93.9h.01M184.8 140.4h.01M269.2 84.9h.01M269.3 93.6h.01M256.6 120.5h.01M42.6 358.4h.01M167.3 43.7h.01M262.3 93.8h.01M98.7 72.0h.01M261.7 413.1h.01M167.7 195.0h.01M223.6 147.5h.01M257.9 126.3h.01M190.3 174.1h.01M270.0 113.0h.01M270.4 105.5h.01M200.9 374.3h.01M200.7 71.5h.01M242.7 125.6h.01M117.9 415.8h.01M215.3 49.0h.01M158.2 136.8h.01M248.7 125.4h.01M248.1 68.0h.01M224.7 345.2h.01M215.5 384.0h.01M232.9 191.3h.01M99.2 121.7h.01M245.6 120.6h.01M260.2 108.0h.01M125.0 108.3h.01M228.5 201.4h.01M182.0 283.5h.01M184.6 427.8h.01M169.5 233.4h.01M234.0 83.4h.01M107.7 195.6h.01M79.6 184.4h.01M167.9 166.2h.01M142.0 428.9h.01M252.4 177.4h.01M205.0 424.9h.01M178.2 267.6h.01M235.1 68.4h.01M113.3 197.0h.01M132.3 90.3h.01M235.3 63.9h.01M259.6 329.9h.01M63.6 194.5h.01M220.4 66.3h.01M238.8 60.8h.01M263.6 308.8h.01M69.0 203.7h.01M86.5 199.0h.01M104.8 301.7h.01M218.6 363.5h.01M115.4 85.4h.01M269.4 123.4h.01M239.8 68.5h.01M173.6 45.4h.01M198.0 405.0h.01M205.6 74.3h.01M241.0 79.0h.01M192.1 257.6h.01M100.0 408.4h.01M266.3 119.7h.01M241.0 134.9h.01M51.6 372.9h.01M170.1 304.6h.01M32.7 339.4h.01M225.9 152.1h.01M47.7 368.3h.01M150.1 246.0h.01M271.6 182.1h.01M201.2 140.8h.01M84.1 402.1h.01M229.7 81.6h.01M216.3 359.6h.01M230.6 93.4h.01M96.0 170.6h.01M189.8 266.6h.01M117.0 110.8h.01M231.4 129.2h.01M218.3 422.8h.01M202.1 65.8h.01M96.8 187.6h.01M90.4 194.6h.01M243.5 112.9h.01M82.6 129.0h.01M218.7 166.5h.01M173.4 428.5h.01M44.3 337.1h.01M193.2 263.3h.01M130.7 428.7h.01M118.5 89.6h.01M235.4 78.2h.01M192.1 277.7h.01M281.2 212.2h.01M184.5 43.3h.01M266.0 114.1h.01M242.7 131.3h.01M247.0 105.7h.01M89.8 181.1h.01M102.5 81.3h.01M93.1 407.6h.01M63.8 203.1h.01M165.4 301.0h.01M242.6 412.3h.01M222.6 87.6h.01M84.5 186.4h.01M284.4 226.4h.01M111.5 101.5h.01M289.7 222.8h.01M231.3 180.6h.01M259.4 84.5h.01M238.5 123.3h.01M241.7 177.2h.01M190.1 429.6h.01M229.5 119.8h.01M207.1 68.6h.01M267.2 101.8h.01M125.7 74.7h.01M249.0 74.3h.01M107.6 77.6h.01M219.0 225.5h.01M245.5 334.1h.01M93.1 208.4h.01M221.3 178.8h.01M208.6 161.0h.01M95.3 131.2h.01M264.1 234.5h.01M237.0 179.0h.01M79.5 204.2h.01M187.0 256.4h.01M218.8 145.8h.01M249.6 86.5h.01M232.0 206.5h.01M238.1 101.3h.01M261.1 384.4h.01M114.1 173.9h.01M205.2 218.1h.01M101.5 264.6h.01M190.9 53.0h.01M224.5 216.3h.01M111.5 91.2h.01M222.1 387.0h.01M268.3 109.1h.01M271.2 119.4h.01M148.7 423.7h.01M158.6 233.4h.01M130.5 419.6h.01M123.9 155.3h.01M231.6 212.5h.01M227.4 189.3h.01M293.4 234.9h.01M204.4 145.6h.01M273.2 102.3h.01M226.5 365.3h.01M220.7 371.2h.01M212.4 369.6h.01M114.1 421.3h.01M94.9 257.6h.01M115.7 104.9h.01M235.9 97.0h.01M194.0 146.2h.01M105.8 190.3h.01M107.4 184.9h.01M187.0 269.6h.01M92.3 127.9h.01M99.5 107.2h.01M201.1 50.2h.01M259.4 335.1h.01M112.9 270.5h.01M234.4 147.0h.01M297.2 188.0h.01M251.7 183.0h.01M123.1 93.2h.01M286.4 190.2h.01M261.8 175.0h.01M257.5 345.0h.01M163.2 429.0h.01M188.9 399.5h.01M60.2 205.6h.01M126.4 149.7h.01M205.8 43.7h.01M236.4 92.4h.01M97.2 90.7h.01M181.8 240.0h.01M238.5 415.7h.01M273.3 95.6h.01M264.5 83.5h.01M111.4 229.1h.01M228.8 195.7h.01M195.9 365.5h.01M212.3 58.4h.01M166.8 236.0h.01M242.0 199.1h.01M91.4 185.1h.01M98.7 166.9h.01M65.4 199.0h.01M247.4 129.6h.01M288.1 216.1h.01M261.3 324.9h.01M182.4 38.0h.01M161.8 39.9h.01M200.3 388.6h.01M181.4 277.6h.01M221.1 157.9h.01M194.9 156.1h.01M238.5 83.5h.01M86.2 214.6h.01M190.6 373.8h.01M46.9 362.7h.01M91.2 133.3h.01M239.4 165.4h.01M252.3 122.3h.01M224.3 173.9h.01M120.7 137.7h.01M194.8 268.5h.01M104.9 89.2h.01M269.1 233.7h.01M212.1 169.9h.01M105.2 72.2h.01M187.0 50.1h.01M115.0 79.0h.01M154.5 140.8h.01M272.3 216.5h.01M186.1 63.0h.01M290.6 172.9h.01M98.8 179.8h.01M216.2 372.8h.01M255.4 134.5h.01M227.0 184.1h.01M222.9 190.4h.01M215.1 214.3h.01M212.7 161.9h.01M122.0 88.7h.01M229.0 174.1h.01M157.5 293.5h.01M252.3 107.4h.01M282.8 391.3h.01M178.6 42.4h.01M215.2 53.8h.01M220.4 391.1h.01M221.9 195.1h.01M245.8 203.3h.01M270.4 98.9h.01M253.1 70.6h.01M190.8 47.5h.01M261.8 399.2h.01M64.6 208.2h.01M181.2 409.6h.01M226.4 419.6h.01M221.2 418.5h.01M203.6 176.0h.01M173.8 232.9h.01M104.7 179.3h.01M267.2 242.7h.01M159.8 299.7h.01M248.9 111.5h.01M136.6 428.7h.01M111.3 415.5h.01M230.2 368.5h.01M184.3 234.9h.01M248.6 80.5h.01M172.4 40.4h.01M168.5 229.6h.01M195.7 171.5h.01M218.5 162.3h.01M262.7 394.8h.01M125.1 103.1h.01M189.4 282.7h.01M244.8 87.6h.01M228.1 350.6h.01M68.0 185.6h.01M225.6 68.3h.01M245.6 182.8h.01M185.6 172.5h.01M169.6 278.5h.01M94.6 117.8h.01M70.1 139.4h.01M225.7 131.1h.01M228.0 169.0h.01M235.1 142.0h.01M114.7 137.7h.01M299.3 216.2h.01M167.4 290.7h.01M178.7 57.4h.01M268.1 405.3h.01M221.0 61.2h.01M42.1 352.6h.01M263.2 214.4h.01M196.0 373.8h.01M174.5 301.5h.01M203.5 152.5h.01M166.0 309.9h.01M206.8 357.5h.01M223.4 76.3h.01M286.1 389.3h.01M113.0 96.4h.01M233.3 169.5h.01M121.2 51.6h.01M220.9 152.5h.01M56.7 372.6h.01M187.8 37.5h.01M224.1 53.2h.01M246.7 92.3h.01M301.2 192.2h.01M164.0 232.2h.01M120.6 105.5h.01M173.1 171.1h.01M233.6 114.6h.01M208.4 422.3h.01M247.5 178.6h.01M225.6 63.0h.01M217.3 77.3h.01M74.3 201.1h.01M124.4 418.0h.01M229.6 87.9h.01M70.1 197.3h.01M280.7 245.7h.01M225.9 156.9h.01M206.2 60.4h.01M95.6 102.2h.01M217.7 140.3h.01M232.2 108.0h.01M58.3 380.2h.01M104.5 167.3h.01M214.3 220.9h.01M236.2 340.6h.01M248.6 117.2h.01M168.0 428.7h.01M247.5 98.6h.01M90.2 403.1h.01M256.4 402.4h.01M105.1 131.5h.01M216.4 378.5h.01M223.0 135.9h.01M194.1 176.2h.01M224.5 161.3h.01M245.1 77.0h.01M63.9 184.7h.01M143.3 140.4h.01M238.6 138.3h.01M105.9 84.6h.01M264.4 391.5h.01M190.2 272.6h.01M262.9 78.9h.01M261.5 320.1h.01M215.9 417.6h.01M110.7 179.7h.01M228.2 110.4h.01M240.6 89.7h.01M219.6 215.1h.01M198.1 144.7h.01M256.8 98.3h.01M225.7 97.8h.01M205.9 49.4h.01M228.4 360.8h.01M260.4 103.0h.01M148.7 200.9h.01M144.6 423.5h.01M125.0 113.2h.01M190.6 252.4h.01M161.2 195.9h.01M251.8 93.7h.01M136.7 418.6h.01M255.6 413.4h.01M176.2 400.4h.01M199.4 368.5h.01M291.6 186.5h.01M235.2 87.9h.01M209.5 53.9h.01M234.7 201.3h.01M258.4 74.0h.01M215.0 170.5h.01M219.4 220.0h.01M200.7 60.1h.01M273.0 89.6h.01M240.8 183.8h.01M257.2 180.1h.01M181.9 145.5h.01M229.2 54.8h.01M193.0 247.1h.01M190.6 378.9h.01M210.4 165.9h.01M275.8 396.5h.01M202.9 379.2h.01M129.1 239.4h.01M176.5 286.7h.01M109.0 174.2h.01M208.7 371.6h.01M225.2 356.3h.01M113.7 284.3h.01M36.7 350.0h.01M263.0 388.0h.01M214.0 67.5h.01M206.5 156.7h.01M224.0 231.9h.01M119.6 66.6h.01M271.1 176.5h.01M160.0 166.9h.01M96.9 402.9h.01M77.2 299.6h.01M218.9 170.6h.01M134.3 304.3h.01M261.5 112.8h.01M102.5 308.5h.01M217.7 83.5h.01M119.2 231.8h.01M241.6 332.3h.01M163.3 283.8h.01M79.0 131.7h.01M188.5 364.5h.01M115.9 229.6h.01M193.6 396.8h.01M183.7 364.5h.01M232.0 364.2h.01M186.8 277.4h.01M229.7 148.9h.01M252.2 101.1h.01M236.0 196.1h.01M218.7 347.4h.01M110.3 87.1h.01M126.2 80.3h.01M197.9 400.1h.01M229.0 415.9h.01M99.4 132.9h.01M116.2 294.5h.01M119.7 60.7h.01M157.9 429.1h.01M216.5 154.8h.01M155.7 41.1h.01M230.9 99.9h.01M235.2 73.1h.01M102.1 116.3h.01M173.3 290.9h.01M236.0 132.6h.01M100.8 171.0h.01M203.3 55.1h.01M173.1 166.0h.01M122.7 294.4h.01M259.3 380.8h.01M198.5 263.2h.01M160.1 186.4h.01M284.8 110.9h.01M252.4 171.6h.01M61.5 383.9h.01M243.3 83.4h.01M83.7 136.0h.01M115.3 91.6h.01M234.4 152.4h.01M234.3 57.4h.01M184.3 380.5h.01M73.3 394.0h.01M258.1 339.4h.01M189.6 142.6h.01M117.9 289.1h.01M54.8 377.0h.01M255.0 87.9h.01M192.9 43.0h.01M87.0 132.2h.01M189.0 405.2h.01M84.8 219.1h.01M246.1 173.8h.01M264.6 108.9h.01M127.8 305.5h.01M255.9 111.2h.01M179.1 429.6h.01M98.9 127.5h.01M195.2 217.2h.01M237.5 111.2h.01M95.3 182.7h.01M305.8 216.5h.01M112.3 73.5h.01M153.7 296.9h.01M64.6 387.4h.01M253.6 82.4h.01M176.9 147.1h.01M212.2 80.3h.01M257.1 92.8h.01M222.2 367.1h.01M206.3 363.1h.01M209.8 222.0h.01M237.1 128.1h.01M258.0 79.3h.01M179.0 234.0h.01M180.9 290.9h.01M163.8 295.5h.01M179.9 209.8h.01M125.7 85.3h.01M89.7 137.9h.01M240.0 74.1h.01M196.3 47.0h.01M123.6 56.4h.01M267.2 222.0h.01M127.6 424.1h.01M226.9 115.2h.01M147.4 429.1h.01M207.5 149.1h.01M253.4 76.6h.01M196.3 378.6h.01M182.9 47.1h.01M205.0 384.2h.01M111.9 190.8h.01M189.6 393.1h.01M227.1 73.0h.01M214.7 166.0h.01M249.0 198.3h.01M282.1 187.4h.01M291.4 165.0h.01M143.6 161.4h.01M249.8 188.5h.01M279.4 251.4h.01M80.2 199.1h.01M192.7 369.2h.01M163.8 277.0h.01M212.3 375.7h.01M169.3 174.2h.01M258.4 408.4h.01M152.4 425.3h.01M131.0 222.2h.01M232.5 124.1h.01M115.7 168.5h.01M241.7 193.7h.01M97.8 112.7h.01M149.4 139.7h.01M175.6 277.2h.01M280.1 394.7h.01M219.1 56.8h.01M201.3 44.9h.01M266.9 217.0h.01M144.5 240.5h.01M273.6 187.6h.01M223.0 81.0h.01M125.5 160.7h.01M196.7 259.6h.01M231.0 71.1h.01M224.9 222.2h.01M172.0 56.3h.01M242.0 95.6h.01M70.1 208.8h.01M150.5 301.4h.01M258.5 168.6h.01M36.1 344.8h.01M151.5 165.0h.01M103.1 198.8h.01M204.2 369.6h.01M116.1 257.1h.01M233.7 418.2h.01M254.8 356.0h.01M90.1 212.7h.01M206.2 375.1h.01M191.0 388.0h.01M132.5 309.5h.01M251.7 417.4h.01M208.9 366.4h.01M244.4 71.6h.01M142.1 44.5h.01M261.8 404.7h.01M220.1 50.8h.01M229.3 139.8h.01"/>
<path stroke="#1a1a1a" stroke-width="3.45" stroke-linecap="round" fill="none" d="M255.0 306.7h.01M253.4 389.1h.01M269.1 186.5h.01M197.6 354.5h.01M269.0 164.5h.01M236.5 304.2h.01M254.2 244.4h.01M112.1 395.4h.01M175.4 307.0h.01M217.8 260.3h.01M155.8 164.1h.01M258.6 145.5h.01M215.9 326.8h.01M277.7 134.6h.01M168.9 384.3h.01M270.1 259.2h.01M70.8 376.4h.01M177.5 272.4h.01M81.6 262.2h.01M199.6 382.7h.01M249.1 208.7h.01M103.6 295.9h.01M288.5 133.9h.01M158.9 368.0h.01M178.9 421.6h.01M247.6 290.8h.01M255.8 296.6h.01M264.1 162.7h.01M83.5 223.2h.01M199.0 413.7h.01M169.1 380.1h.01M218.5 404.3h.01M278.4 391.4h.01M231.3 283.9h.01M253.5 129.3h.01M262.8 145.9h.01M234.5 400.2h.01M252.9 274.8h.01M220.2 382.2h.01M258.8 162.3h.01M78.8 273.0h.01M214.3 342.8h.01M151.7 413.1h.01M85.6 382.6h.01M100.0 203.1h.01M264.3 291.5h.01M213.8 262.0h.01M211.2 362.3h.01M213.1 228.1h.01M248.9 339.7h.01M262.5 157.5h.01M251.3 149.5h.01M270.0 204.2h.01M253.9 200.8h.01M149.2 406.9h.01M148.4 418.5h.01M96.1 263.4h.01M204.4 388.2h.01M95.3 289.3h.01M242.4 380.2h.01M246.1 266.4h.01M133.3 414.4h.01M247.7 221.9h.01M208.8 394.3h.01M251.3 370.7h.01M263.5 186.9h.01M231.3 243.2h.01M91.2 307.6h.01M105.4 143.0h.01M88.2 228.9h.01M49.3 338.5h.01M78.0 109.1h.01M224.2 391.9h.01M88.6 168.0h.01M74.0 291.9h.01M279.8 139.3h.01M142.2 401.0h.01M71.5 359.9h.01M68.6 355.4h.01M161.6 413.2h.01M229.7 356.1h.01M276.4 121.2h.01M116.6 386.1h.01M236.1 366.6h.01M279.9 200.4h.01M176.9 386.3h.01M116.9 312.9h.01M206.5 408.2h.01M149.1 316.0h.01M254.1 366.3h.01M246.7 213.7h.01M78.1 211.0h.01M242.7 271.1h.01M117.1 242.4h.01M75.3 344.8h.01M264.6 126.2h.01M273.8 125.7h.01M229.0 392.1h.01M179.8 368.4h.01M259.2 299.4h.01M208.1 350.8h.01M257.8 213.6h.01M79.7 172.9h.01M210.4 389.4h.01M125.8 140.8h.01M201.7 403.9h.01M240.6 312.8h.01M136.8 141.7h.01M94.0 214.4h.01M98.2 218.8h.01M105.0 278.2h.01M211.7 337.0h.01M283.1 129.6h.01M137.9 397.1h.01M80.6 117.2h.01M267.1 141.6h.01M249.6 284.5h.01M248.4 236.4h.01M133.5 397.5h.01M73.0 155.5h.01M186.8 349.8h.01M103.7 389.2h.01M271.5 395.2h.01M282.2 119.8h.01M102.1 379.3h.01M58.6 249.0h.01M282.9 171.6h.01M239.5 268.0h.01M183.0 271.8h.01M243.0 353.9h.01M76.0 113.2h.01M173.0 403.4h.01M178.9 413.8h.01M276.6 150.3h.01M217.4 256.0h.01M166.6 395.6h.01M246.3 296.0h.01M273.5 161.9h.01M207.7 332.5h.01M240.0 375.4h.01M270.5 136.7h.01M191.3 295.2h.01M229.3 400.4h.01M242.4 262.4h.01M197.4 410.1h.01M189.9 359.1h.01M280.6 177.9h.01M77.3 360.4h.01M237.0 410.4h.01M218.7 231.3h.01M212.4 276.3h.01M194.1 350.2h.01M233.1 413.1h.01M197.9 246.4h.01M121.1 226.0h.01M90.8 98.1h.01M94.1 280.1h.01M110.0 400.9h.01M100.8 290.2h.01M257.3 150.0h.01M122.2 239.5h.01M226.5 240.1h.01M125.6 222.1h.01M56.6 220.7h.01M238.8 345.4h.01M281.9 217.0h.01M57.3 244.9h.01M246.3 346.7h.01M196.7 254.9h.01M66.2 218.6h.01M86.5 237.1h.01M95.2 380.0h.01M241.0 317.8h.01M103.3 228.8h.01M240.0 229.4h.01M73.6 212.6h.01M237.8 404.2h.01M129.1 387.4h.01M246.4 384.2h.01M235.7 251.3h.01M90.1 380.6h.01M77.9 229.1h.01M83.8 369.5h.01M239.6 154.7h.01M219.5 341.5h.01M239.3 361.9h.01M170.7 238.1h.01M227.9 323.4h.01M278.1 164.1h.01M252.4 266.9h.01M106.9 308.6h.01M131.9 409.4h.01M266.5 178.1h.01M262.4 151.4h.01M184.0 251.6h.01M106.0 396.5h.01M103.9 234.6h.01M82.9 123.1h.01M256.2 140.4h.01M92.1 142.4h.01M172.7 242.1h.01M112.9 145.1h.01M240.9 302.6h.01M94.1 231.0h.01M192.4 363.9h.01M260.0 136.3h.01M150.4 395.1h.01M279.6 154.3h.01M148.4 386.9h.01M263.1 191.9h.01M180.8 398.4h.01M260.4 283.2h.01M173.2 407.5h.01M86.3 264.5h.01M254.4 345.8h.01M240.9 398.6h.01M211.0 177.6h.01M127.0 392.3h.01M59.7 375.7h.01M211.0 354.2h.01M252.9 327.0h.01M208.8 404.0h.01M283.4 175.3h.01M85.9 117.4h.01M82.8 363.8h.01M253.8 373.9h.01M75.7 175.2h.01M156.3 308.3h.01M234.8 376.2h.01M240.7 308.1h.01M224.7 340.1h.01M226.5 327.7h.01M94.5 218.6h.01M271.4 152.2h.01M240.7 242.8h.01M66.3 380.3h.01M236.0 158.5h.01M269.8 170.1h.01M224.6 243.9h.01M207.5 176.3h.01M235.6 283.7h.01M232.4 259.9h.01M271.1 383.1h.01M93.3 87.6h.01M234.9 293.8h.01M224.9 378.2h.01M223.0 261.1h.01M78.5 349.7h.01M275.2 198.3h.01M242.8 218.6h.01M253.0 310.8h.01M198.9 288.5h.01M99.5 274.8h.01M264.6 285.6h.01M211.4 248.1h.01M275.3 138.6h.01M202.7 363.5h.01M43.9 341.7h.01M120.0 221.8h.01M221.2 272.3h.01M201.4 276.2h.01M154.9 397.2h.01M249.7 143.3h.01M267.2 147.6h.01M258.1 246.1h.01M212.4 397.6h.01M103.0 95.9h.01M288.8 139.0h.01M67.0 249.8h.01M205.8 264.2h.01M130.1 203.6h.01M268.2 190.7h.01M81.8 354.9h.01M193.9 383.0h.01M236.2 240.4h.01M244.9 315.4h.01M89.2 259.0h.01M234.0 136.9h.01M284.9 180.2h.01M252.7 153.8h.01M157.3 242.3h.01M117.6 205.9h.01M159.7 201.2h.01M109.6 169.2h.01M262.2 222.0h.01M214.3 349.6h.01M194.8 222.3h.01M173.9 396.3h.01M279.0 125.6h.01M254.4 292.0h.01M146.9 402.7h.01M288.0 129.0h.01M244.5 247.3h.01M211.6 417.4h.01M183.0 392.2h.01M113.9 405.2h.01M185.4 395.8h.01M283.5 135.3h.01M191.4 354.4h.01M94.5 385.0h.01M67.0 175.2h.01M266.2 401.2h.01M107.8 226.8h.01M68.9 213.6h.01M247.0 217.5h.01M77.8 125.7h.01M216.6 280.1h.01M287.4 159.2h.01M98.0 310.8h.01M79.0 310.8h.01M245.6 227.0h.01M84.2 283.9h.01M230.9 297.9h.01M238.4 289.1h.01M260.8 130.8h.01M163.9 417.4h.01M83.0 154.0h.01M194.1 406.8h.01M169.9 296.8h.01M105.1 202.3h.01M158.5 400.6h.01M107.3 231.7h.01M282.1 149.8h.01M221.2 410.9h.01M259.4 308.0h.01M211.9 156.8h.01M194.7 391.0h.01M83.6 100.3h.01M248.6 271.0h.01M264.2 168.3h.01M157.2 409.9h.01M247.9 388.7h.01M231.1 238.3h.01M283.8 141.3h.01M87.9 224.2h.01M63.3 190.1h.01M78.5 259.0h.01M84.3 258.8h.01M253.5 379.7h.01M213.6 388.0h.01M221.2 257.2h.01M190.1 425.0h.01M194.2 286.4h.01M230.2 255.4h.01M116.9 236.9h.01M251.1 224.8h.01M232.2 327.8h.01M210.9 272.0h.01M73.1 230.1h.01M153.3 315.7h.01M74.2 272.1h.01M200.8 256.8h.01M250.1 393.2h.01M168.9 409.3h.01M179.0 252.0h.01M202.2 244.5h.01M84.7 181.0h.01M260.8 294.7h.01M230.7 274.1h.01M113.1 203.8h.01M112.7 303.7h.01M276.0 106.8h.01M145.0 414.8h.01M174.5 423.0h.01M117.6 142.6h.01M197.2 418.4h.01M225.0 382.8h.01M237.9 264.1h.01M271.5 400.2h.01M74.8 129.9h.01M84.1 171.7h.01M111.4 290.3h.01M249.6 230.4h.01M99.2 231.3h.01M229.7 317.3h.01M66.0 179.8h.01M61.9 221.1h.01M91.6 393.3h.01M68.0 165.9h.01M256.5 334.9h.01M174.1 381.5h.01M71.3 133.6h.01M245.9 154.4h.01M276.7 98.9h.01M206.3 246.0h.01M242.8 292.8h.01M247.2 362.7h.01M254.0 360.1h.01M237.0 273.6h.01M119.6 378.8h.01M61.0 215.9h.01M116.2 225.1h.01M169.3 141.6h.01M138.3 309.5h.01M115.9 381.8h.01M194.5 241.9h.01M165.5 243.9h.01M267.1 396.4h.01M222.9 331.0h.01M136.8 402.0h.01M241.1 407.8h.01M250.9 295.8h.01M60.0 258.7h.01M232.2 295.4h.01M220.4 400.4h.01M213.9 412.1h.01M98.9 382.8h.01M289.6 182.6h.01M277.3 180.2h.01M84.9 388.0h.01M85.3 94.9h.01M277.5 117.1h.01M227.5 235.2h.01M219.2 276.6h.01M196.1 343.2h.01M71.2 380.5h.01M234.3 288.8h.01M56.3 240.2h.01M223.0 350.5h.01M71.3 388.8h.01M220.6 354.9h.01M277.6 168.9h.01M161.7 290.0h.01M263.6 304.0h.01M58.0 210.5h.01M265.2 279.2h.01M248.4 261.5h.01M220.5 242.2h.01M162.2 377.1h.01M98.2 294.6h.01M253.4 233.6h.01M240.3 284.6h.01M161.8 385.6h.01M51.2 363.5h.01M174.8 254.0h.01M77.3 121.3h.01M240.2 369.8h.01M85.3 377.2h.01M212.9 257.9h.01M176.3 409.9h.01M112.7 390.0h.01M200.0 396.3h.01M240.1 357.6h.01M264.8 136.2h.01M128.8 397.5h.01M169.6 399.4h.01M97.6 96.4h.01M54.6 337.4h.01M238.1 390.4h.01M226.7 387.5h.01M212.0 401.6h.01M167.0 413.6h.01M100.6 393.8h.01M188.5 414.4h.01M62.6 379.5h.01M266.2 207.8h.01M80.1 217.7h.01M239.1 279.7h.01M223.7 265.2h.01M234.5 405.4h.01M178.3 394.7h.01M283.9 198.7h.01M244.4 144.3h.01M196.3 386.5h.01M92.4 294.2h.01M240.8 340.8h.01M75.6 255.9h.01M243.8 257.8h.01M201.5 342.4h.01M284.9 161.9h.01M275.5 387.7h.01M72.0 122.1h.01M204.8 404.0h.01M80.6 140.8h.01M225.0 273.8h.01M253.4 333.6h.01M124.1 205.6h.01M92.1 93.4h.01M202.1 416.5h.01M65.5 242.4h.01M70.3 262.6h.01M258.7 218.2h.01M63.2 246.5h.01M225.0 227.0h.01M206.8 250.6h.01M247.7 371.0h.01M158.2 392.9h.01M82.1 208.2h.01M242.0 276.1h.01M147.0 410.7h.01M194.1 413.9h.01M131.1 379.1h.01M228.1 332.2h.01M250.0 356.0h.01M113.5 320.6h.01M246.2 301.0h.01M252.8 337.8h.01M111.3 245.5h.01M225.6 395.6h.01M266.7 195.2h.01M201.6 250.5h.01M71.0 218.0h.01M264.0 298.7h.01M268.5 158.6h.01M130.9 314.0h.01M89.9 299.1h.01M80.8 385.2h.01M304.3 211.8h.01M180.4 176.6h.01M232.6 353.1h.01M245.1 284.9h.01M230.2 382.0h.01M234.2 344.2h.01M147.4 305.6h.01M122.3 396.8h.01M239.7 224.1h.01M249.7 359.2h.01M77.7 156.3h.01M113.3 316.1h.01M112.2 223.9h.01M254.2 145.4h.01M258.5 241.3h.01M211.2 358.6h.01M246.2 407.2h.01M166.6 367.1h.01M258.0 185.0h.01M295.5 202.5h.01M256.1 196.5h.01M251.9 253.4h.01M87.1 208.9h.01M198.0 227.9h.01M257.6 324.7h.01M285.0 220.9h.01M217.4 408.7h.01M229.9 376.9h.01M207.9 257.4h.01M245.1 357.9h.01M89.4 233.4h.01M170.5 423.2h.01M246.0 402.0h.01M224.3 414.5h.01M249.1 312.9h.01M235.0 230.1h.01M93.6 108.5h.01M230.9 224.3h.01M142.6 395.4h.01M94.9 135.9h.01M131.3 403.5h.01M299.0 203.8h.01M283.8 145.7h.01M139.6 242.3h.01M199.1 168.1h.01M252.5 353.5h.01M222.3 248.1h.01M104.1 244.6h.01M160.6 425.3h.01M80.8 255.2h.01M141.9 410.7h.01M245.2 376.0h.01M255.4 330.0h.01M193.1 227.5h.01M279.0 173.1h.01M280.6 109.0h.01M101.0 140.8h.01M240.9 323.6h.01M236.1 184.1h.01M238.6 294.1h.01M251.3 204.3h.01M261.2 209.6h.01M283.3 124.0h.01M120.3 209.3h.01M210.6 322.0h.01M255.7 222.4h.01M168.6 147.1h.01M283.7 240.1h.01M290.4 161.5h.01M205.1 271.3h.01M249.5 366.5h.01M256.0 384.9h.01M158.4 373.3h.01M73.0 356.0h.01M248.0 379.9h.01M261.4 249.5h.01M239.9 248.4h.01M72.8 350.8h.01M179.8 404.7h.01M138.3 413.4h.01M186.0 369.8h.01M238.6 172.1h.01M107.5 98.3h.01M277.5 158.6h.01M165.3 305.4h.01M251.0 384.3h.01M91.3 263.4h.01M267.2 132.2h.01M181.3 217.7h.01M198.3 237.0h.01M289.0 178.5h.01M288.1 200.4h.01M244.6 210.9h.01M84.5 254.5h.01M172.5 147.6h.01M185.2 243.9h.01M41.4 346.8h.01M285.6 168.1h.01M134.2 316.4h.01M244.0 343.4h.01M200.0 271.1h.01M85.2 204.1h.01M249.4 325.6h.01M230.7 340.0h.01M106.9 407.0h.01M206.2 285.2h.01M61.3 264.4h.01M76.4 263.3h.01M242.8 150.4h.01M206.9 417.5h.01M275.2 183.3h.01M254.0 209.4h.01M154.5 405.8h.01M289.1 144.0h.01M126.0 226.4h.01M237.0 214.0h.01M236.8 319.4h.01M253.5 159.7h.01M253.1 259.6h.01M233.8 235.1h.01M72.8 372.6h.01M254.9 228.4h.01M106.0 137.6h.01M238.1 150.0h.01M273.7 166.9h.01M241.7 252.9h.01M77.1 354.7h.01M288.9 240.1h.01M150.4 240.6h.01M200.2 266.2h.01M184.0 415.2h.01M220.5 376.1h.01M176.1 240.6h.01M200.6 224.7h.01M126.1 407.4h.01M288.7 148.7h.01M259.4 316.7h.01M250.8 402.7h.01M258.8 390.3h.01M107.7 391.6h.01M222.4 406.4h.01M56.6 368.6h.01M281.2 160.3h.01M189.3 237.5h.01M88.0 89.2h.01M204.2 412.5h.01M97.9 198.6h.01M247.7 255.9h.01M185.5 354.5h.01M76.3 375.3h.01M125.3 401.7h.01M255.0 302.1h.01M268.9 391.8h.01M172.9 376.3h.01M244.8 320.7h.01M212.4 280.8h.01M257.9 396.7h.01M82.0 149.0h.01M169.5 418.3h.01M278.0 103.6h.01M88.3 369.5h.01M89.8 280.9h.01M76.5 215.9h.01M117.0 163.7h.01M87.8 392.0h.01M238.1 386.2h.01M136.5 204.8h.01M108.2 204.8h.01M230.9 403.7h.01M255.4 341.1h.01M173.9 359.3h.01M210.8 264.7h.01M222.7 402.9h.01M207.2 390.2h.01M148.3 311.0h.01M229.0 269.7h.01M234.2 269.7h.01M167.4 404.7h.01M203.9 267.4h.01M245.1 367.0h.01M107.1 272.8h.01M274.1 391.8h.01M198.9 176.6h.01M106.7 381.9h.01M257.1 206.2h.01M235.5 224.5h.01M191.1 346.2h.01M97.1 284.8h.01M287.1 176.3h.01M185.7 293.7h.01M227.4 277.0h.01M209.0 261.1h.01M122.4 411.8h.01M222.3 252.9h.01M71.6 267.2h.01M84.1 396.9h.01M257.5 312.4h.01M242.0 298.0h.01M247.6 276.1h.01M131.8 392.7h.01M235.6 371.1h.01M147.3 397.9h.01M248.5 343.3h.01M217.7 250.5h.01M173.8 365.8h.01M101.0 188.8h.01M126.8 311.4h.01M112.6 385.6h.01M252.3 218.7h.01M180.2 351.8h.01M279.2 387.6h.01M254.8 393.6h.01M273.0 131.7h.01M216.1 354.7h.01M198.0 393.2h.01M114.9 377.9h.01M256.5 255.3h.01M237.5 209.1h.01M175.0 236.5h.01M210.3 253.5h.01M119.5 388.9h.01M275.7 176.8h.01M220.3 267.5h.01M239.6 257.3h.01M236.5 355.2h.01M169.3 162.0h.01M249.2 164.4h.01M101.8 184.1h.01M210.0 284.1h.01M283.9 156.9h.01M98.6 84.8h.01M214.4 405.0h.01M200.0 337.5h.01M175.5 281.7h.01M179.8 262.8h.01M101.1 399.0h.01M261.9 274.3h.01M69.2 363.4h.01M268.9 128.1h.01M258.4 190.5h.01M179.1 425.5h.01M195.4 282.0h.01M262.0 141.1h.01M230.4 154.3h.01M281.2 114.2h.01M240.0 142.3h.01M250.4 350.4h.01M255.8 319.0h.01M197.9 297.0h.01M253.5 214.0h.01M266.8 153.5h.01M216.0 265.3h.01M216.3 399.9h.01M163.9 391.4h.01M245.2 338.7h.01M86.5 365.2h.01M141.4 313.2h.01M94.0 303.5h.01M272.9 109.4h.01M76.4 268.0h.01M243.5 328.6h.01M214.3 252.8h.01M244.9 305.5h.01M74.0 117.3h.01M91.9 376.0h.01M90.3 285.8h.01M235.3 314.4h.01M189.7 243.2h.01M225.9 257.0h.01M171.1 309.8h.01M277.6 130.1h.01M239.3 204.1h.01M297.1 193.3h.01M223.1 169.5h.01M82.3 213.0h.01M255.7 250.1h.01M208.9 398.6h.01M235.9 336.6h.01M162.6 421.5h.01M206.7 275.1h.01M183.9 421.7h.01M184.5 359.4h.01M254.0 165.5h.01M251.6 288.6h.01M250.5 346.5h.01M209.0 412.7h.01M263.2 204.3h.01M187.3 248.3h.01M82.4 391.8h.01M299.1 211.3h.01M232.6 395.5h.01M217.7 269.9h.01M236.6 260.1h.01M77.4 389.7h.01M86.9 294.1h.01M234.2 391.3h.01M231.3 249.6h.01M89.7 398.2h.01M178.0 377.6h.01M189.3 220.1h.01M153.0 419.5h.01M203.5 260.5h.01M289.8 168.6h.01M228.5 411.2h.01M279.6 222.5h.01M259.2 289.3h.01M213.2 331.8h.01M245.9 280.6h.01M116.7 410.0h.01M94.8 390.3h.01M226.1 178.9h.01M142.4 418.5h.01M80.7 104.9h.01M89.9 268.8h.01M63.0 374.9h.01M171.5 199.7h.01M249.8 375.8h.01M248.9 317.7h.01M252.2 342.5h.01M199.2 348.2h.01M243.1 168.9h.01M90.0 103.2h.01M304.5 201.9h.01M247.2 251.3h.01M86.9 107.3h.01M234.5 348.9h.01M252.6 280.3h.01M149.3 160.0h.01M185.8 409.0h.01M181.4 374.1h.01M250.0 214.0h.01M241.3 402.7h.01M266.8 182.7h.01M88.0 310.9h.01M244.8 162.5h.01M116.7 399.7h.01M55.6 363.9h.01M281.3 168.5h.01M179.5 302.9h.01M74.8 225.3h.01M101.9 270.1h.01M75.0 139.8h.01M213.7 268.4h.01M203.3 352.4h.01M252.9 315.9h.01M184.4 402.0h.01M230.9 388.2h.01M282.6 164.8h.01M272.2 142.1h.01M178.5 142.2h.01M273.6 156.4h.01M91.9 169.6h.01M171.5 412.9h.01M242.2 348.4h.01M193.6 237.1h.01M88.1 173.3h.01M202.8 420.6h.01M245.5 324.5h.01M229.9 345.5h.01M165.9 387.6h.01M243.1 237.8h.01M206.4 400.4h.01M262.0 181.5h.01M56.1 215.8h.01M199.6 240.8h.01M219.9 175.3h.01M226.3 403.5h.01M163.7 408.9h.01M259.7 226.0h.01M201.0 172.1h.01M248.0 169.1h.01M238.8 351.5h.01M110.2 140.6h.01M75.6 233.9h.01M99.5 280.1h.01M82.7 275.5h.01M272.8 115.6h.01M256.5 271.2h.01M170.6 370.7h.01M79.3 223.5h.01M242.3 384.9h.01M251.7 362.9h.01M241.6 214.0h.01M249.0 134.1h.01M39.1 341.6h.01M95.5 397.1h.01M138.6 214.2h.01M217.1 336.5h.01M152.1 401.5h.01M220.8 396.0h.01M229.8 230.1h.01M302.1 206.7h.01M75.3 251.0h.01M73.2 259.8h.01M96.0 222.9h.01M81.7 359.8h.01M87.6 373.7h.01M199.0 362.1h.01M196.3 292.6h.01M117.2 393.7h.01M228.3 336.5h.01M233.8 358.9h.01M183.8 223.0h.01M166.3 423.4h.01M236.9 332.1h.01M244.8 393.4h.01M89.8 386.5h.01M179.4 382.1h.01M152.1 306.8h.01M232.1 321.0h.01M277.8 144.6h.01M255.7 370.2h.01M219.4 263.7h.01M164.5 381.6h.01M233.9 385.1h.01M72.5 239.6h.01M232.1 408.4h.01M248.5 158.4h.01M110.9 374.6h.01M94.5 309.2h.01M244.7 138.6h.01M222.9 278.2h.01M159.8 142.9h.01M232.7 301.9h.01M71.1 179.5h.01M250.7 241.6h.01M106.0 376.7h.01M178.8 390.2h.01M120.5 404.8h.01M222.5 361.0h.01M160.7 405.3h.01M134.2 241.5h.01M228.1 406.6h.01M133.7 388.5h.01M230.8 159.2h.01M91.3 222.0h.01M76.8 242.5h.01M141.4 385.0h.01M187.5 298.6h.01M144.9 315.3h.01M287.7 164.5h.01M136.8 407.3h.01M78.3 252.9h.01M127.9 413.5h.01M72.9 338.5h.01M228.0 261.3h.01M242.8 389.6h.01M266.3 384.3h.01M103.0 224.7h.01M218.6 414.0h.01M246.2 242.4h.01M199.6 423.7h.01M66.5 265.6h.01M156.5 415.0h.01M154.5 203.3h.01M89.3 290.1h.01M83.7 112.0h.01M250.1 331.2h.01M66.6 278.7h.01M118.6 155.4h.01M272.2 147.0h.01M74.3 364.0h.01M244.4 232.4h.01M247.1 328.9h.01M158.6 418.8h.01M216.5 391.5h.01M88.9 274.5h.01M176.0 372.0h.01M101.3 101.3h.01M109.4 297.1h.01M71.2 333.7h.01M193.5 402.1h.01M227.6 246.8h.01M82.8 227.9h.01M77.0 370.0h.01M188.7 229.8h.01M257.6 155.6h.01M79.2 366.3h.01M180.0 417.8h.01M264.7 104.6h.01M91.6 83.1h.01M104.1 402.8h.01M253.9 322.9h.01M75.4 329.4h.01M204.0 161.7h.01M87.8 153.5h.01M243.7 372.0h.01M250.4 247.5h.01M279.1 195.3h.01M111.5 382.0h.01M243.5 222.8h.01M230.3 372.5h.01M250.8 300.9h.01M259.4 303.5h.01M240.9 365.6h.01M246.8 397.3h.01M229.3 288.1h.01M275.0 259.4h.01M206.6 225.3h.01M286.7 172.5h.01M197.1 277.9h.01M220.9 236.9h.01M201.8 408.7h.01M108.1 386.2h.01M107.2 222.8h.01M238.9 235.3h.01M224.6 269.4h.01M108.6 303.6h.01M174.6 414.8h.01M66.9 170.2h.01M108.6 236.3h.01M208.1 279.4h.01M235.6 324.5h.01M225.0 399.3h.01M142.4 406.1h.01M179.0 238.8h.01M175.8 151.6h.01M107.8 93.1h.01M191.0 233.1h.01M290.2 157.3h.01M185.8 375.6h.01M233.9 278.2h.01M86.8 149.2h.01M206.4 166.1h.01M100.4 304.6h.01M67.9 258.1h.01M200.2 283.3h.01M274.2 172.1h.01M218.2 330.9h.01M80.8 379.6h.01M77.5 334.7h.01M285.4 153.1h.01M236.5 396.0h.01M254.4 238.5h.01M195.8 273.3h.01M95.5 78.6h.01M54.7 225.5h.01M282.3 105.1h.01M249.8 321.4h.01M112.8 233.9h.01M181.3 256.4h.01M188.2 420.2h.01M137.4 392.1h.01M203.7 287.9h.01M169.2 243.1h.01M246.1 350.3h.01M243.4 361.9h.01M252.4 398.1h.01M188.4 225.1h.01M81.0 266.9h.01M215.9 273.4h.01M194.5 422.5h.01M95.5 269.3h.01M233.7 218.4h.01M243.1 207.6h.01M122.9 390.9h.01M228.0 265.5h.01M101.3 90.4h.01M232.6 333.3h.01M233.0 265.0h.01M190.8 289.9h.01M90.4 113.6h.01M222.4 335.8h.01M68.0 253.5h.01M84.7 270.6h.01M110.3 410.5h.01M77.6 151.8h.01M235.8 362.2h.01M174.4 391.0h.01M205.0 396.4h.01M229.3 396.6h.01M211.0 408.0h.01M64.3 212.7h.01M188.6 383.5h.01M224.9 409.3h.01M208.8 232.1h.01M256.9 264.0h.01M258.5 235.4h.01M238.6 328.1h.01M257.1 174.5h.01M96.1 139.5h.01M47.6 354.7h.01M276.5 112.1h.01M247.6 353.6h.01M253.6 348.9h.01M208.9 268.0h.01M156.6 423.3h.01M236.8 298.8h.01M120.1 160.1h.01M85.5 279.0h.01M89.8 203.8h.01M174.9 418.4h.01M78.6 395.7h.01M236.0 309.2h.01M195.8 251.0h.01M72.1 235.3h.01M212.4 392.9h.01M204.1 229.4h.01M192.1 418.0h.01M100.4 162.9h.01M204.7 346.4h.01M173.3 143.7h.01M164.1 400.8h.01M99.1 388.4h.01M259.8 230.9h.01M106.1 290.6h.01M266.4 173.1h.01M69.1 384.5h.01M296.6 207.8h.01M250.1 306.0h.01M259.0 201.4h.01M181.6 297.8h.01M235.3 255.4h.01M216.2 395.5h.01M161.7 396.1h.01M255.5 285.0h.01M65.5 334.6h.01M122.0 235.6h.01M120.8 383.9h.01M236.9 380.7h.01M238.2 219.1h.01M302.7 196.9h.01M186.2 388.4h.01M176.5 174.3h.01M75.5 384.7h.01M257.1 376.6h.01M290.0 153.2h.01M71.4 127.2h.01M97.0 306.5h.01M247.1 148.5h.01M286.0 117.0h.01M239.4 146.4h.01M254.1 187.6h.01M169.4 361.7h.01M70.0 160.3h.01M241.3 159.5h.01M240.3 394.1h.01M48.9 358.7h.01M271.5 228.7h.01M169.3 349.6h.01M124.9 385.7h.01M250.9 138.6h.01M203.9 280.5h.01M249.4 335.4h.01M93.9 274.7h.01M257.9 278.2h.01M215.8 159.0h.01M262.3 313.6h.01M109.8 378.7h.01M100.8 136.5h.01M243.2 288.6h.01M210.2 346.3h.01M281.2 182.4h.01M81.2 373.6h.01M235.5 246.0h.01M246.2 309.9h.01M196.0 232.4h.01M260.8 196.2h.01M216.3 245.7h.01M182.3 386.3h.01"/>
<path stroke="#1a1a1a" stroke-width="3.91" stroke-linecap="round" fill="none" d="M155.8 351.3h.01M173.3 160.3h.01M137.9 382.7h.01M61.0 364.5h.01M146.6 243.9h.01M213.1 174.6h.01M259.9 259.1h.01M134.2 356.5h.01M156.8 156.0h.01M81.0 300.6h.01M268.4 263.4h.01M171.3 151.9h.01M140.6 208.9h.01M210.8 173.2h.01M83.9 340.2h.01M104.7 220.2h.01M215.4 309.6h.01M206.3 326.8h.01M114.0 324.4h.01M86.1 318.4h.01M138.7 371.6h.01M86.5 141.3h.01M225.9 285.5h.01M103.0 384.3h.01M110.4 211.9h.01M185.1 318.7h.01M89.4 326.4h.01M174.6 348.4h.01M93.2 344.9h.01M99.3 362.8h.01M154.9 357.8h.01M130.0 209.0h.01M71.6 173.2h.01M107.9 241.0h.01M142.1 342.4h.01M92.9 226.6h.01M130.8 360.0h.01M210.9 327.0h.01M151.0 337.1h.01M202.8 305.7h.01M80.0 249.7h.01M222.5 293.7h.01M90.4 318.6h.01M213.1 306.8h.01M104.1 348.9h.01M94.2 362.4h.01M94.8 358.7h.01M131.8 144.4h.01M220.9 282.2h.01M110.3 325.6h.01M195.0 317.1h.01M164.0 147.6h.01M214.5 285.2h.01M96.7 375.9h.01M183.6 306.4h.01M56.6 350.1h.01M154.6 146.0h.01M220.0 299.0h.01M205.0 321.7h.01M179.9 308.1h.01M136.0 379.6h.01M107.7 155.1h.01M59.7 238.0h.01M101.5 317.8h.01M293.6 195.4h.01M51.8 349.4h.01M108.4 146.0h.01M79.7 233.3h.01M114.2 216.5h.01M194.9 337.0h.01M111.5 341.1h.01M143.1 365.2h.01M140.6 345.8h.01M140.9 146.0h.01M141.1 359.0h.01M83.4 310.9h.01M170.5 339.3h.01M47.0 350.2h.01M151.9 346.7h.01M189.8 334.8h.01M95.4 371.8h.01M267.4 273.4h.01M102.6 213.9h.01M100.0 346.3h.01M105.5 335.1h.01M116.0 367.2h.01M154.1 343.1h.01M122.0 145.3h.01M80.5 245.3h.01M102.7 337.4h.01M78.0 165.0h.01M87.7 157.8h.01M89.2 146.0h.01M180.8 319.3h.01M128.0 382.0h.01M95.9 161.5h.01M88.8 254.0h.01M176.4 244.4h.01M131.3 350.2h.01M140.2 368.3h.01M137.5 347.3h.01M141.3 323.8h.01M159.9 340.6h.01M86.1 347.3h.01M79.5 284.2h.01M111.7 330.6h.01M216.1 313.9h.01M221.3 325.4h.01M117.5 370.3h.01M165.3 322.6h.01M145.3 340.0h.01M143.6 337.3h.01M101.7 340.3h.01M70.5 280.5h.01M187.6 156.8h.01M146.7 343.9h.01M181.2 332.9h.01M122.5 364.0h.01M124.1 324.8h.01M92.8 311.9h.01M120.4 374.4h.01M104.2 356.4h.01M114.6 334.3h.01M219.2 285.4h.01M79.5 279.3h.01M102.2 322.7h.01M78.4 145.5h.01M90.3 239.5h.01M198.0 327.1h.01M62.9 251.0h.01M95.2 247.6h.01M123.6 351.6h.01M161.6 190.9h.01M136.2 331.3h.01M61.1 351.8h.01M194.5 312.2h.01M75.8 169.4h.01M89.4 245.8h.01M147.4 152.4h.01M163.6 169.6h.01M65.3 229.3h.01M141.4 354.0h.01M120.5 332.0h.01M138.5 351.1h.01M97.6 317.6h.01M108.5 350.3h.01M144.4 346.2h.01M65.3 233.9h.01M167.4 248.1h.01M121.4 356.7h.01M89.8 322.5h.01M149.9 319.8h.01M82.0 294.5h.01M161.1 350.7h.01M63.0 367.8h.01M228.2 299.3h.01M134.4 320.4h.01M143.5 319.7h.01M95.0 203.2h.01M140.2 339.4h.01M144.4 329.4h.01M136.7 375.5h.01M127.1 145.1h.01M98.2 239.2h.01M81.1 327.3h.01M138.2 356.5h.01M164.9 155.2h.01M207.6 172.8h.01M87.1 332.9h.01M70.4 276.0h.01M142.0 349.4h.01M159.4 344.4h.01M97.1 211.8h.01M182.2 337.8h.01M154.1 335.7h.01M96.8 339.7h.01M91.6 156.0h.01M124.6 342.9h.01M123.7 380.0h.01M103.9 210.6h.01M208.6 169.7h.01M132.7 364.5h.01M74.9 282.1h.01M210.7 288.7h.01M46.3 346.1h.01M135.6 360.7h.01M207.0 304.4h.01M118.6 213.8h.01M85.3 325.9h.01M58.3 360.9h.01M71.7 168.2h.01M290.0 196.5h.01M84.8 343.9h.01M69.0 232.8h.01M170.0 344.1h.01M61.9 358.7h.01M202.6 292.5h.01M180.4 342.2h.01M84.2 232.6h.01M82.8 336.2h.01M207.8 299.6h.01M215.5 240.3h.01M155.2 325.4h.01M148.2 363.4h.01M61.3 227.9h.01M92.6 349.6h.01M154.0 244.0h.01M150.1 344.3h.01M121.4 320.8h.01M112.2 360.4h.01M84.3 158.8h.01M118.9 348.5h.01M275.7 212.7h.01M68.8 146.6h.01M148.1 330.9h.01M80.9 345.5h.01M140.0 332.5h.01M151.1 150.0h.01M85.0 298.3h.01M92.6 198.7h.01M65.6 274.5h.01M95.2 152.0h.01M192.8 163.6h.01M126.2 360.1h.01M201.9 324.5h.01M211.4 312.0h.01M96.2 328.5h.01M106.7 364.2h.01M179.3 356.7h.01M133.1 376.4h.01M214.7 234.6h.01M99.9 150.6h.01M88.2 337.1h.01M159.0 147.3h.01M80.9 168.6h.01M105.8 215.4h.01M121.9 316.4h.01M264.6 378.3h.01M155.2 361.8h.01M75.9 180.3h.01M114.6 338.4h.01M155.1 321.9h.01M142.4 389.5h.01M164.7 362.8h.01M109.8 150.5h.01M266.5 381.0h.01M217.9 305.9h.01M161.9 150.8h.01M104.2 152.7h.01M69.3 242.5h.01M127.2 214.0h.01M169.0 320.9h.01M225.0 281.9h.01M197.9 306.2h.01M121.9 340.9h.01M111.6 335.9h.01M165.1 352.1h.01M278.4 185.3h.01M128.0 364.7h.01M106.8 212.1h.01M225.7 314.3h.01M96.4 353.9h.01M132.2 345.6h.01M137.4 387.0h.01M218.4 289.4h.01M286.5 194.9h.01M104.4 148.3h.01M63.2 362.4h.01M88.7 350.5h.01M200.1 319.1h.01M108.0 218.4h.01M222.7 288.8h.01M58.8 225.0h.01M116.7 331.7h.01M88.0 177.4h.01M223.2 299.5h.01M164.5 357.7h.01M158.8 380.8h.01M163.4 248.0h.01M204.6 254.7h.01M93.8 164.8h.01M180.6 312.4h.01M178.5 247.7h.01M289.7 192.3h.01M100.7 221.8h.01M83.9 350.7h.01M98.5 332.4h.01M94.5 335.9h.01M130.1 368.9h.01M119.0 339.0h.01M117.5 322.6h.01M163.5 317.7h.01M210.7 302.8h.01M205.2 337.5h.01M185.7 333.2h.01M100.5 353.5h.01M226.0 302.0h.01M129.6 328.1h.01M116.0 374.0h.01M203.7 301.5h.01M82.1 315.2h.01M118.0 318.1h.01M125.5 355.8h.01M206.5 309.2h.01M143.7 325.9h.01M110.9 364.3h.01M207.0 318.1h.01M105.4 319.1h.01M68.0 238.0h.01M169.2 157.2h.01M78.6 340.3h.01M65.4 270.0h.01M85.0 302.9h.01M151.8 332.1h.01M175.2 329.9h.01M209.6 307.9h.01M134.5 325.0h.01M78.7 324.2h.01M226.8 252.0h.01M71.6 255.8h.01M135.2 335.5h.01M113.4 208.4h.01M94.6 366.9h.01M137.1 343.5h.01M153.1 365.3h.01M202.9 297.1h.01M101.1 313.3h.01M123.9 329.4h.01M188.9 322.3h.01M124.0 243.0h.01M56.1 345.2h.01M86.4 314.6h.01M100.9 145.8h.01M155.3 339.6h.01M164.9 342.6h.01M166.1 328.4h.01M151.0 323.5h.01M262.7 263.5h.01M152.8 374.5h.01M146.0 322.2h.01M112.0 155.9h.01M155.4 347.3h.01M110.1 208.4h.01M300.1 200.2h.01M191.8 159.2h.01M150.5 145.1h.01M275.2 203.1h.01M164.2 338.2h.01M199.3 314.3h.01M179.4 323.7h.01M114.5 159.2h.01M195.8 165.8h.01M48.4 342.7h.01M132.3 214.2h.01M63.3 238.0h.01M104.9 352.6h.01M68.5 246.4h.01M193.6 321.8h.01M176.4 311.8h.01M191.3 340.7h.01M149.9 359.1h.01M85.9 307.4h.01M141.0 380.0h.01M124.0 374.9h.01M225.5 309.2h.01M116.5 359.5h.01M190.2 312.3h.01M147.8 326.2h.01M167.7 335.7h.01M267.4 268.0h.01M136.4 147.1h.01M145.1 148.8h.01M97.9 207.2h.01M261.5 268.7h.01M146.9 156.7h.01M167.6 375.5h.01M127.0 316.8h.01M164.0 371.7h.01M110.9 369.5h.01M61.0 242.7h.01M216.3 173.9h.01M135.4 210.2h.01M293.2 191.1h.01M133.3 338.5h.01M148.6 376.5h.01M122.6 347.1h.01M198.9 301.8h.01M85.8 358.1h.01M141.2 335.5h.01M131.4 322.3h.01M176.4 338.5h.01M91.2 329.5h.01M116.0 220.0h.01M148.4 354.1h.01M230.5 311.7h.01M121.3 370.4h.01M97.3 147.7h.01M205.6 240.3h.01M203.0 316.8h.01M169.5 331.0h.01M106.1 340.9h.01M183.7 165.3h.01M53.0 354.4h.01M56.1 234.8h.01M210.5 237.7h.01M69.2 271.3h.01M117.4 355.6h.01M60.4 347.0h.01M104.1 161.8h.01M221.3 314.3h.01M93.6 147.1h.01M193.7 331.3h.01M130.2 339.0h.01M143.9 370.1h.01M88.1 249.3h.01M84.1 251.1h.01M98.2 226.7h.01M204.7 170.7h.01M200.0 163.3h.01M160.8 354.6h.01M91.3 150.9h.01M75.6 160.5h.01M85.7 322.6h.01M214.6 289.9h.01M123.7 217.4h.01M155.8 151.0h.01M137.9 326.9h.01M125.9 370.4h.01M182.9 160.8h.01M151.9 155.1h.01M161.5 243.9h.01M59.0 366.5h.01M231.5 291.5h.01M133.2 329.1h.01M107.0 329.3h.01M165.3 253.3h.01M188.7 178.7h.01M68.5 371.7h.01M198.2 332.6h.01M68.5 151.9h.01M98.6 336.4h.01M113.2 352.5h.01M153.6 369.8h.01M271.5 387.8h.01M208.5 341.7h.01M91.8 371.2h.01M157.5 207.0h.01M88.5 360.9h.01M120.5 353.0h.01M102.4 217.6h.01M125.9 346.9h.01M132.2 334.1h.01M136.8 366.5h.01M151.6 327.6h.01M99.5 357.9h.01M158.4 161.3h.01M150.2 207.1h.01M114.7 344.7h.01M267.7 387.9h.01M119.3 327.9h.01M106.6 346.4h.01M116.5 363.6h.01M81.5 306.1h.01M149.7 340.6h.01M145.8 210.3h.01M85.9 241.6h.01M99.3 244.3h.01M68.4 367.6h.01M140.5 375.1h.01M163.5 163.8h.01M157.0 384.9h.01M112.5 164.2h.01M88.8 342.0h.01M198.1 310.3h.01M114.7 348.4h.01M79.2 290.5h.01M64.0 255.1h.01M164.3 347.1h.01M64.9 346.6h.01M108.5 159.5h.01M85.2 245.1h.01M94.6 331.6h.01M157.9 315.0h.01M112.0 309.3h.01M102.9 239.6h.01M103.5 361.0h.01M72.7 368.1h.01M73.2 144.0h.01M126.8 332.3h.01M161.2 158.7h.01M115.2 328.0h.01M144.2 205.1h.01M156.9 354.8h.01M177.6 214.3h.01M212.9 294.2h.01M89.1 303.9h.01M98.5 321.3h.01M220.0 296.0h.01M155.2 254.9h.01M180.2 347.1h.01M114.5 152.1h.01M70.7 222.8h.01M168.9 355.4h.01M91.2 160.4h.01M148.8 371.8h.01M145.0 356.3h.01M216.5 322.1h.01M126.5 339.1h.01M197.5 322.1h.01M155.5 378.1h.01M163.3 313.5h.01M62.4 342.2h.01M208.9 314.8h.01M96.5 343.8h.01M76.5 287.0h.01M152.7 383.2h.01M171.3 247.0h.01M133.8 372.5h.01M117.3 351.8h.01M103.8 344.2h.01M185.8 327.6h.01M265.1 258.2h.01M133.1 342.4h.01M123.2 367.3h.01M128.5 342.7h.01M261.7 253.8h.01M100.8 375.7h.01M137.9 335.6h.01M129.0 346.7h.01M93.9 235.9h.01M277.1 217.5h.01M184.5 302.2h.01M85.7 329.4h.01M119.7 344.5h.01M170.7 204.1h.01M158.3 388.8h.01M79.5 319.1h.01M100.0 371.3h.01M69.8 347.7h.01M106.7 208.5h.01M193.3 306.7h.01M127.0 377.3h.01M160.5 331.1h.01M91.3 333.8h.01M159.1 348.3h.01M96.8 143.5h.01M146.3 144.7h.01M103.4 285.0h.01M83.3 176.7h.01M282.9 193.8h.01M66.4 351.2h.01M169.9 252.1h.01M66.5 375.3h.01M111.5 348.8h.01M112.6 239.7h.01M177.6 158.6h.01M102.3 329.9h.01M113.1 356.4h.01M103.2 157.2h.01M99.9 342.6h.01M76.0 380.0h.01M192.7 326.0h.01M122.0 312.1h.01M73.4 149.3h.01M100.0 327.7h.01M140.8 329.2h.01M52.2 343.5h.01M176.9 334.3h.01M216.4 298.7h.01M170.5 326.2h.01M174.9 343.1h.01M64.5 260.6h.01M95.9 314.4h.01M202.7 331.0h.01M95.0 241.5h.01M148.1 348.8h.01M173.1 314.1h.01M219.4 302.4h.01M155.4 329.6h.01M134.4 368.9h.01M259.7 373.3h.01M132.7 383.7h.01M96.4 349.1h.01M156.5 333.3h.01M108.4 337.9h.01M174.9 207.8h.01M174.2 353.9h.01M140.5 317.7h.01M181.5 245.6h.01M81.4 331.7h.01M60.5 371.0h.01M81.1 161.7h.01M225.6 291.2h.01M152.8 391.7h.01M146.2 380.6h.01M64.2 355.4h.01M86.0 162.4h.01M150.6 380.3h.01M99.1 215.4h.01M146.7 391.5h.01M87.5 354.1h.01M130.2 325.1h.01M210.7 243.0h.01M129.6 331.2h.01M120.8 360.6h.01M67.6 156.4h.01M109.5 319.4h.01M144.9 373.8h.01M158.8 327.7h.01M73.2 247.3h.01M98.4 175.0h.01M108.9 354.7h.01M225.7 296.1h.01M160.4 364.0h.01M155.2 318.8h.01M202.6 166.9h.01M145.7 384.4h.01M204.7 312.9h.01M123.9 333.4h.01M228.7 304.7h.01M190.0 317.1h.01M193.9 300.2h.01M261.8 376.5h.01M73.2 164.0h.01M82.2 237.1h.01M223.7 320.3h.01M178.3 155.2h.01M147.6 335.9h.01M89.9 346.4h.01M108.3 164.0h.01M163.0 326.4h.01M160.3 154.1h.01M82.4 164.9h.01M144.0 377.5h.01M187.7 160.9h.01M231.7 307.1h.01M167.7 170.9h.01M223.4 305.1h.01M105.6 372.0h.01M134.9 352.7h.01M92.3 339.9h.01M58.2 355.6h.01M58.9 253.9h.01M168.1 315.5h.01M56.5 230.2h.01M65.7 224.1h.01M159.9 323.4h.01M81.1 241.2h.01M187.8 305.8h.01M75.4 220.3h.01M165.1 143.9h.01M69.6 227.5h.01M80.4 158.4h.01M95.2 157.1h.01M204.4 235.7h.01M77.2 238.0h.01M77.1 246.7h.01M159.4 336.1h.01M297.2 197.6h.01M129.3 373.7h.01M217.7 293.4h.01M139.2 362.9h.01M116.6 148.0h.01M93.8 317.6h.01M173.4 322.6h.01M172.3 334.5h.01M123.1 336.8h.01M130.6 318.6h.01M57.2 341.1h.01M69.8 343.2h.01M64.7 370.9h.01M172.3 318.1h.01M137.5 318.7h.01M218.6 318.2h.01M144.5 333.3h.01M158.1 246.8h.01M130.0 354.9h.01M100.7 210.7h.01M170.3 393.7h.01M93.3 177.5h.01M69.7 284.1h.01M178.5 315.8h.01M188.2 309.3h.01M73.0 243.8h.01M220.1 309.7h.01M229.1 280.4h.01M71.5 251.0h.01M93.2 325.5h.01M109.9 344.8h.01M124.5 319.8h.01M174.5 249.3h.01M165.2 159.9h.01M90.6 363.8h.01M152.4 354.5h.01M177.9 162.5h.01M118.8 335.7h.01M159.6 311.2h.01M119.5 217.2h.01M176.5 319.3h.01M66.4 359.8h.01M153.8 159.6h.01M151.6 350.6h.01M128.1 335.6h.01M190.3 302.9h.01M207.9 291.4h.01M92.7 353.7h.01M207.9 295.5h.01M99.2 158.6h.01M93.0 173.7h.01M109.6 313.8h.01M103.0 206.4h.01M90.7 357.1h.01M109.7 215.3h.01M98.9 325.3h.01M275.4 208.1h.01M100.6 349.6h.01M164.0 333.1h.01M103.9 367.5h.01M120.8 324.7h.01M196.5 160.8h.01M113.3 213.3h.01M74.8 277.0h.01M184.7 314.6h.01M98.7 367.0h.01M96.0 324.2h.01M116.8 341.8h.01M104.0 326.5h.01M67.2 339.5h.01M54.0 359.0h.01M169.8 389.3h.01M84.0 144.9h.01M82.5 321.6h.01M105.4 314.1h.01M99.1 154.4h.01M124.1 211.5h.01M72.4 287.2h.01M136.7 339.6h.01M99.1 235.4h.01M183.8 323.3h.01M77.4 295.4h.01M83.8 289.1h.01M202.2 309.8h.01M186.8 339.4h.01M92.1 244.2h.01M60.9 233.1h.01M111.2 220.1h.01M175.9 325.6h.01M200.7 232.5h.01M228.5 293.1h.01M108.4 333.1h.01M180.8 328.3h.01M83.5 247.8h.01M60.8 337.9h.01M127.4 351.1h.01M90.7 367.1h.01M92.9 252.1h.01M183.0 156.3h.01M184.2 310.6h.01M189.6 329.0h.01M102.6 333.3h.01M185.5 344.5h.01M79.9 178.6h.01M107.9 358.9h.01M152.9 387.6h.01M212.4 298.5h.01M127.5 322.0h.01M85.5 166.7h.01M116.2 210.8h.01M167.3 151.9h.01M65.7 365.2h.01M89.6 164.0h.01M184.5 177.2h.01M159.8 319.5h.01M136.9 313.8h.01M144.7 360.9h.01M90.5 314.6h.01M126.7 326.7h.01M159.9 359.3h.01M148.2 367.5h.01M145.1 351.4h.01M214.4 302.8h.01M172.6 386.1h.01M173.4 155.5h.01M106.8 323.5h.01M134.6 348.4h.01M94.2 321.3h.01M212.9 317.6h.01"/>
</svg>