<svg xmlns="http://www.w3.org/2000/svg" viewBox="0 0 360 432" role="img">
<path stroke="#1a1a1a" stroke-width="1.43" stroke-linecap="round" fill="none" d="M229.8 381.8h.01M212.9 421.3h.01M323.2 287.8h.01M269.3 401.8h.01M194.2 415.4h.01M283.4 350.4h.01M293.8 399.2h.01M253.7 413.6h.01M0.4 114.3h.01M342.0 340.3h.01M129.3 55.3h.01M275.0 355.8h.01M260.3 93.0h.01M240.0 411.1h.01M316.3 356.5h.01M217.8 428.5h.01M300.8 317.9h.01M258.4 367.2h.01M358.6 103.3h.01M351.3 314.3h.01M238.1 380.0h.01M129.3 348.9h.01M224.1 388.3h.01M248.6 365.7h.01M258.1 386.5h.01M207.9 428.6h.01M295.1 331.4h.01M0.4 279.1h.01M234.1 390.5h.01M294.3 312.7h.01M329.9 294.1h.01M284.8 324.9h.01M243.5 373.5h.01M263.8 352.9h.01M249.1 382.4h.01M123.3 360.0h.01M118.1 373.0h.01M319.2 373.4h.01M228.8 427.6h.01M301.0 307.9h.01M102.3 416.1h.01M60.7 153.9h.01M322.2 350.8h.01M287.0 341.0h.01M336.7 301.0h.01M278.4 335.6h.01M342.8 306.9h.01M220.8 420.0h.01M251.9 394.6h.01M310.4 382.9h.01M269.5 384.2h.01M277.2 344.3h.01M286.8 332.4h.01M273.5 376.9h.01M285.3 394.3h.01M204.1 421.0h.01M110.3 427.7h.01M253.1 374.3h.01M90.8 85.6h.01M241.4 397.2h.01M196.4 422.2h.01M299.8 299.4h.01M264.6 410.7h.01M249.8 427.4h.01M88.4 99.4h.01M293.5 322.7h.01M277.6 400.4h.01M307.0 301.6h.01M276.0 411.4h.01M299.3 381.1h.01M269.5 346.9h.01M348.1 326.2h.01M358.6 290.1h.01M108.3 393.8h.01M308.7 373.5h.01M243.1 388.4h.01M104.2 404.9h.01M283.3 361.3h.01M333.2 350.6h.01M112.3 381.6h.01M266.8 370.2h.01M304.5 286.8h.01M338.9 331.2h.01M302.5 391.3h.01M275.8 367.0h.01M293.1 388.0h.01M261.9 378.0h.01M256.7 358.7h.01M332.0 338.5h.01M247.6 404.7h.01M300.6 373.1h.01M228.4 396.8h.01M326.2 361.8h.01M258.7 422.8h.01M285.4 406.7h.01M268.5 419.5h.01M314.4 365.0h.01M234.9 403.1h.01M251.9 82.1h.01M338.6 322.0h.01M266.8 361.0h.01"/>
<path stroke="#1a1a1a" stroke-width="1.95" stroke-linecap="round" fill="none" d="M301.3 336.1h.01M197.6 40.4h.01M138.3 166.6h.01M316.1 282.0h.01M173.6 51.2h.01M277.8 109.6h.01M153.6 198.0h.01M223.5 413.1h.01M328.0 301.7h.01M220.9 71.1h.01M128.1 196.5h.01M173.2 43.7h.01M196.6 59.2h.01M226.0 407.1h.01M316.0 287.3h.01M202.2 412.7h.01M195.7 408.9h.01M321.3 294.6h.01M144.3 97.1h.01M135.9 60.1h.01M100.4 72.6h.01M106.3 66.3h.01M185.1 268.9h.01M295.7 341.3h.01M67.7 192.1h.01M230.4 187.2h.01M123.2 375.2h.01M284.0 369.3h.01M290.0 155.8h.01M115.5 298.3h.01M130.2 109.7h.01M55.4 171.6h.01M126.8 293.2h.01M132.8 200.9h.01M129.5 358.8h.01M137.9 127.6h.01M322.7 333.4h.01M83.9 102.3h.01M260.4 79.8h.01M267.2 86.9h.01M69.9 148.5h.01M177.4 122.7h.01M133.1 98.4h.01M324.8 342.4h.01M119.8 105.4h.01M106.3 102.5h.01M138.3 180.2h.01M295.4 267.0h.01M250.4 91.6h.01M191.1 58.3h.01M311.3 348.9h.01M269.2 335.7h.01M93.5 122.5h.01M289.4 265.9h.01M182.2 63.4h.01M114.5 75.4h.01M122.0 366.9h.01M141.9 202.8h.01M144.3 181.7h.01M99.7 94.9h.01M208.6 53.6h.01M126.9 183.6h.01M108.6 80.5h.01M139.7 197.5h.01M131.0 120.1h.01M136.8 115.8h.01M241.2 81.5h.01M285.2 225.6h.01M97.7 126.7h.01M201.6 55.4h.01M279.4 133.8h.01M209.8 196.0h.01M113.5 69.1h.01M133.3 186.3h.01M263.3 394.2h.01M275.5 228.2h.01M256.7 406.1h.01M272.3 116.6h.01M52.6 163.1h.01M296.9 278.5h.01M215.2 412.3h.01M198.3 252.6h.01M295.8 273.6h.01M165.2 41.1h.01M223.0 52.6h.01M0.4 194.6h.01M117.6 63.5h.01M75.2 137.9h.01M119.8 111.2h.01M204.6 60.4h.01M194.0 46.9h.01M142.7 254.5h.01M161.7 301.4h.01M319.9 301.1h.01M358.6 246.2h.01M290.4 364.5h.01M141.4 91.6h.01M152.2 255.3h.01M122.8 193.9h.01M143.6 117.9h.01M169.9 56.5h.01M263.6 155.2h.01M216.7 382.6h.01M198.6 64.3h.01M103.1 112.2h.01M316.6 342.4h.01M279.4 262.2h.01M358.6 157.3h.01M115.0 387.3h.01M252.3 73.0h.01M257.4 102.7h.01M293.6 254.4h.01M157.6 42.8h.01M292.4 372.6h.01M195.1 52.7h.01M134.2 248.6h.01M285.3 272.1h.01M201.3 406.5h.01M170.7 246.8h.01M245.4 96.5h.01M85.2 130.2h.01M276.2 391.8h.01M164.5 0.4h.01M208.7 413.5h.01M277.4 383.9h.01M146.0 198.1h.01M139.7 42.9h.01M154.3 88.2h.01M124.4 91.3h.01M222.8 62.2h.01M284.6 385.2h.01M109.4 298.2h.01M134.2 90.9h.01M310.3 309.7h.01M358.6 268.0h.01M208.4 201.1h.01M269.0 391.4h.01M123.8 63.8h.01M132.6 180.7h.01M149.2 53.4h.01M266.0 101.9h.01M91.4 106.0h.01M149.8 120.7h.01M280.1 146.5h.01M123.3 97.8h.01M317.1 308.1h.01M229.9 413.2h.01M261.1 108.2h.01M94.0 93.2h.01M274.4 216.1h.01M194.9 256.8h.01M203.9 42.3h.01M140.0 186.0h.01M286.0 315.4h.01M216.7 65.4h.01M304.2 329.2h.01M112.5 291.9h.01M98.9 88.5h.01M201.4 49.6h.01M119.9 187.3h.01M86.4 0.4h.01M137.0 109.1h.01M297.9 358.5h.01M134.6 195.9h.01M358.6 179.5h.01M143.2 111.0h.01M289.3 378.9h.01M310.6 173.4h.01M358.6 201.5h.01M246.7 419.1h.01M134.6 175.1h.01M210.8 61.6h.01M125.5 427.4h.01M196.7 402.3h.01M332.7 309.8h.01M358.6 223.9h.01M209.7 45.5h.01M330.3 328.3h.01M127.7 177.5h.01M108.5 74.2h.01M294.5 291.2h.01M118.2 380.0h.01M309.2 294.3h.01M126.6 353.8h.01M176.7 58.4h.01M277.6 206.1h.01M151.3 99.7h.01M203.0 400.2h.01M205.2 394.1h.01M274.5 102.5h.01M137.1 53.4h.01M103.2 78.5h.01M181.2 42.1h.01M143.7 104.1h.01M307.2 323.2h.01M161.7 295.8h.01M120.2 396.6h.01M134.6 123.3h.01M271.2 94.5h.01M149.4 113.5h.01M330.9 318.7h.01M288.0 231.3h.01M214.9 193.3h.01M216.7 183.1h.01M138.0 191.4h.01M277.7 201.0h.01M268.7 109.3h.01M316.2 314.2h.01M0.4 234.7h.01M187.3 45.3h.01M308.6 339.5h.01M121.9 298.4h.01M280.8 375.8h.01M112.4 419.3h.01M173.9 117.6h.01M81.4 123.3h.01M94.4 99.7h.01M314.4 327.3h.01M252.2 99.1h.01M133.5 168.4h.01M181.0 54.1h.01M162.0 112.4h.01M122.5 330.3h.01M122.8 115.4h.01M293.0 287.0h.01M323.9 315.4h.01M290.3 356.4h.01M79.2 130.6h.01M112.8 59.2h.01M130.2 172.2h.01M0.4 155.4h.01M120.1 70.3h.01M274.9 210.8h.01M228.7 66.3h.01M307.6 357.9h.01M187.8 51.7h.01M139.9 122.0h.01M324.4 308.1h.01M276.0 0.4h.01M124.8 104.7h.01M302.7 344.9h.01M294.1 260.5h.01M290.7 282.1h.01M120.9 412.3h.01M323.2 324.0h.01M145.8 187.6h.01M293.2 228.2h.01M131.1 191.5h.01M83.7 108.8h.01M132.3 104.8h.01M316.0 320.7h.01M239.0 427.6h.01M168.7 113.8h.01M277.9 234.0h.01M280.4 211.3h.01M130.4 114.9h.01M229.8 57.0h.01M305.1 365.2h.01M160.4 195.4h.01M286.8 260.2h.01M260.7 400.5h.01M149.5 106.1h.01M125.9 118.5h.01M243.0 89.4h.01M305.2 164.0h.01M281.4 229.7h.01M146.6 87.2h.01M155.7 115.6h.01M340.2 314.5h.01M110.5 199.9h.01M106.5 291.9h.01M149.2 46.0h.01M185.5 58.6h.01M91.2 128.5h.01M199.0 428.9h.01M216.3 48.1h.01M288.5 146.7h.01M222.8 186.7h.01M118.0 197.4h.01M192.5 122.7h.01M143.2 50.7h.01M206.9 404.1h.01M119.8 390.2h.01M57.3 160.8h.01M299.4 293.9h.01M294.0 349.3h.01M103.2 84.7h.01M120.0 429.4h.01M166.1 48.0h.01M189.2 264.7h.01M199.9 125.9h.01M289.6 223.0h.01M302.6 352.0h.01M129.3 61.3h.01M180.0 47.9h.01M203.5 0.4h.01M203.3 199.2h.01M283.1 267.0h.01M121.2 53.7h.01M305.4 280.2h.01M297.6 366.3h.01M66.1 159.8h.01M358.6 132.7h.01M86.8 92.6h.01M168.1 120.9h.01M95.5 79.4h.01M234.2 420.5h.01M281.8 255.8h.01M156.5 48.7h.01M314.1 334.1h.01M240.5 0.4h.01M291.0 271.6h.01M128.2 100.9h.01M161.5 52.6h.01M228.2 419.2h.01M235.4 74.2h.01M125.0 0.4h.01"/>
<path stroke="#1a1a1a" stroke-width="2.36" stroke-linecap="round" fill="none" d="M183.2 287.1h.01M137.2 160.0h.01M187.3 180.8h.01M146.4 173.5h.01M173.3 285.0h.01M202.3 79.8h.01M169.9 76.1h.01M278.4 287.9h.01M159.3 201.5h.01M149.8 38.9h.01M98.7 260.2h.01M190.5 92.0h.01M165.3 185.2h.01M290.0 277.0h.01M245.4 224.4h.01M248.0 111.1h.01M221.6 180.5h.01M284.2 136.2h.01M132.3 262.4h.01M167.2 296.1h.01M222.7 201.2h.01M148.8 74.8h.01M188.0 256.9h.01M138.2 71.5h.01M95.0 131.4h.01M176.9 298.4h.01M291.5 217.7h.01M188.6 250.9h.01M72.6 194.7h.01M95.3 197.6h.01M71.6 202.7h.01M109.0 268.7h.01M208.5 190.1h.01M193.9 249.6h.01M153.9 219.9h.01M219.1 99.1h.01M169.7 222.5h.01M276.0 251.1h.01M124.0 304.6h.01M196.8 83.5h.01M87.3 124.1h.01M281.3 299.1h.01M253.7 178.9h.01M201.0 289.4h.01M182.1 126.9h.01M206.1 85.6h.01M126.4 70.5h.01M95.0 256.7h.01M167.9 279.6h.01M183.6 75.7h.01M200.8 86.5h.01M129.6 125.8h.01M243.6 152.3h.01M157.1 291.6h.01M273.1 277.0h.01M207.4 117.0h.01M269.3 286.2h.01M130.4 66.4h.01M209.7 266.6h.01M112.5 119.0h.01M76.2 207.4h.01M163.4 106.7h.01M161.4 181.7h.01M110.4 106.2h.01M282.9 128.5h.01M232.3 181.3h.01M285.1 147.6h.01M260.1 116.6h.01M255.0 201.4h.01M225.9 98.8h.01M120.1 256.6h.01M123.0 130.0h.01M190.6 296.0h.01M185.5 69.5h.01M200.0 258.9h.01M216.5 132.7h.01M108.5 114.9h.01M233.7 225.0h.01M236.7 183.0h.01M202.1 226.9h.01M257.0 131.4h.01M155.8 76.5h.01M111.8 127.2h.01M89.6 134.3h.01M236.6 241.8h.01M122.8 80.6h.01M254.0 183.4h.01M195.9 275.2h.01M269.5 308.2h.01M265.7 142.5h.01M241.2 189.8h.01M233.9 141.0h.01M123.0 175.8h.01M201.1 222.2h.01M298.0 216.3h.01M184.8 95.5h.01M175.0 263.6h.01M177.1 75.0h.01M264.3 227.4h.01M143.9 150.3h.01M287.9 151.9h.01M117.9 312.0h.01M199.2 263.6h.01M67.1 205.0h.01M126.4 333.0h.01M112.0 205.2h.01M163.2 77.1h.01M289.9 298.6h.01M83.7 195.7h.01M195.9 104.2h.01M298.6 182.8h.01M197.9 227.6h.01M255.0 151.0h.01M202.3 97.1h.01M180.5 307.2h.01M194.1 184.5h.01M124.6 134.4h.01M264.7 295.2h.01M295.3 283.2h.01M279.7 224.5h.01M234.8 135.3h.01M243.2 136.0h.01M159.5 71.3h.01M294.0 236.2h.01M148.1 304.9h.01M213.5 86.0h.01M228.3 72.4h.01M188.4 303.1h.01M256.5 307.1h.01M163.1 277.5h.01M213.7 247.1h.01M234.3 220.5h.01M144.2 192.8h.01M101.3 106.8h.01M142.6 170.0h.01M187.8 212.0h.01M191.2 39.0h.01M263.5 169.7h.01M216.7 126.1h.01M184.4 276.5h.01M142.8 176.9h.01M119.0 291.4h.01M244.8 67.3h.01M163.4 171.7h.01M130.0 235.0h.01M232.2 108.0h.01M272.3 155.6h.01M215.1 103.8h.01M252.4 129.0h.01M273.8 235.0h.01M157.7 95.4h.01M238.2 247.7h.01M188.9 105.2h.01M200.0 108.7h.01M104.7 264.0h.01M181.9 293.7h.01M217.9 189.3h.01M211.0 261.8h.01M159.3 286.4h.01M184.6 261.0h.01M136.7 257.6h.01M204.6 106.1h.01M260.7 141.4h.01M262.8 300.2h.01M223.9 141.3h.01M236.5 88.5h.01M242.0 232.4h.01M289.0 208.6h.01M171.0 211.6h.01M295.8 165.2h.01M173.0 279.7h.01M119.8 120.5h.01M212.2 114.9h.01M180.4 190.7h.01M206.6 100.2h.01M246.5 230.5h.01M278.3 305.3h.01M244.2 214.7h.01M283.2 235.0h.01M214.4 92.6h.01M176.7 185.0h.01M186.3 291.7h.01M235.0 146.1h.01M163.5 290.2h.01M131.6 75.8h.01M196.2 193.7h.01M278.2 273.3h.01M265.6 316.2h.01M193.4 109.2h.01M178.8 277.6h.01M180.2 80.9h.01M120.0 75.8h.01M113.8 102.3h.01M80.5 191.5h.01M237.7 96.3h.01M189.8 74.3h.01M300.1 163.5h.01M139.4 292.9h.01M265.1 114.1h.01M235.7 189.7h.01M142.8 74.9h.01M151.4 289.7h.01M245.9 116.9h.01M282.3 192.5h.01M310.3 189.6h.01M112.2 304.1h.01M141.8 260.3h.01M280.7 283.1h.01M239.9 122.1h.01M221.1 250.7h.01M184.7 101.0h.01M125.4 75.6h.01M241.0 162.4h.01M149.8 183.6h.01M213.8 241.5h.01M108.0 186.4h.01M233.5 114.7h.01M120.8 86.5h.01M161.0 88.4h.01M120.8 402.3h.01M262.6 131.5h.01M243.9 141.1h.01M164.4 58.1h.01M71.1 155.0h.01M270.4 230.1h.01M106.0 91.9h.01M150.3 60.7h.01M146.1 204.4h.01M292.5 247.7h.01M284.6 142.7h.01M164.8 178.4h.01M233.4 175.7h.01M156.1 191.3h.01M189.6 279.1h.01M118.3 99.3h.01M123.5 417.1h.01M135.0 146.4h.01M147.1 284.3h.01M269.1 250.3h.01M219.2 175.8h.01M136.9 134.1h.01M248.2 137.9h.01M276.5 301.8h.01M139.2 173.2h.01M133.6 234.2h.01M241.5 178.3h.01M72.5 213.3h.01M202.5 113.8h.01M132.9 71.3h.01M259.1 182.1h.01M99.2 121.3h.01M159.1 254.4h.01M295.7 222.1h.01M271.0 208.7h.01M276.2 127.2h.01M201.3 269.2h.01M185.7 219.2h.01M278.3 218.1h.01M245.7 236.7h.01M208.8 397.5h.01M220.2 86.7h.01M259.1 202.5h.01M184.0 186.8h.01M126.9 202.3h.01M142.7 130.4h.01M186.2 297.7h.01M96.1 109.9h.01M152.5 125.9h.01M223.0 229.1h.01M165.4 94.8h.01M104.5 119.0h.01M149.9 93.2h.01M69.0 185.9h.01M174.3 274.3h.01M178.7 288.1h.01M220.9 195.8h.01M156.3 259.8h.01M171.8 299.7h.01M188.3 111.5h.01M297.5 232.0h.01M185.5 89.5h.01M162.8 283.0h.01M113.9 235.5h.01M166.7 174.0h.01M228.3 177.3h.01M278.1 279.3h.01M182.1 112.9h.01M181.6 182.0h.01M265.4 236.1h.01M267.2 243.0h.01M169.5 107.0h.01M125.1 110.2h.01M214.8 108.8h.01M158.1 178.2h.01M231.7 93.4h.01M93.6 116.3h.01M262.1 174.1h.01M172.1 428.6h.01M292.5 184.6h.01M216.5 80.8h.01M116.4 115.5h.01M141.9 302.5h.01M193.5 283.2h.01M177.5 87.2h.01M291.5 160.2h.01M119.6 126.4h.01M107.0 195.6h.01M231.7 101.1h.01M244.2 146.4h.01M265.7 308.5h.01M161.4 233.0h.01M296.9 199.7h.01M254.8 141.3h.01M170.5 178.1h.01M295.6 194.1h.01M153.7 285.5h.01M197.7 198.4h.01M117.2 265.1h.01M167.6 303.4h.01M200.1 188.4h.01M227.6 168.2h.01M273.9 308.0h.01M225.8 91.9h.01M158.5 306.1h.01M277.1 186.2h.01M221.5 109.0h.01M114.7 268.8h.01M299.4 226.1h.01M172.8 201.5h.01M252.5 107.6h.01M207.6 257.1h.01M114.4 393.7h.01M186.2 192.6h.01M129.3 280.8h.01M168.6 64.0h.01M216.1 207.9h.01M241.7 101.1h.01M276.6 196.1h.01M125.8 122.1h.01M210.8 130.5h.01M259.7 127.1h.01M242.0 126.6h.01M293.7 179.9h.01M144.4 135.8h.01M274.3 283.6h.01M256.6 311.5h.01M208.2 232.1h.01M112.1 111.3h.01M276.9 149.4h.01M257.2 185.9h.01M268.9 137.5h.01M81.4 204.8h.01M270.3 219.2h.01M277.9 309.9h.01M197.0 113.6h.01M212.4 211.4h.01M242.6 112.6h.01M162.7 245.2h.01M229.8 131.1h.01M173.3 294.9h.01M239.3 148.2h.01M250.2 121.3h.01M187.3 118.0h.01M281.0 196.4h.01M128.6 80.6h.01M198.1 119.5h.01M143.7 296.9h.01M123.4 422.0h.01M255.5 119.8h.01M277.8 182.6h.01M275.2 222.5h.01M293.1 295.1h.01M205.3 184.7h.01M158.5 82.1h.01M257.3 175.7h.01M68.0 198.5h.01M272.7 194.2h.01M169.4 36.5h.01M131.4 287.1h.01M89.2 200.3h.01M163.8 100.4h.01M88.6 211.3h.01M282.6 291.8h.01M179.1 231.2h.01M295.9 160.0h.01M148.9 66.6h.01M156.7 120.9h.01M310.5 183.3h.01M143.9 69.5h.01M288.0 238.0h.01M277.1 191.3h.01M165.9 201.2h.01M159.5 36.6h.01M106.5 108.5h.01M169.4 189.1h.01M220.0 93.8h.01M185.7 225.3h.01M139.1 286.7h.01M267.7 152.9h.01M254.7 125.0h.01M197.4 75.5h.01M126.8 261.0h.01M301.4 194.1h.01M181.7 299.2h.01M178.4 251.0h.01M192.1 100.9h.01M249.0 169.3h.01M264.7 223.0h.01M214.2 75.3h.01M154.8 55.3h.01M191.7 86.6h.01M220.4 149.6h.01M254.1 205.2h.01M162.8 65.1h.01M153.3 70.5h.01M129.9 428.9h.01M156.0 297.7h.01M138.7 140.4h.01M249.4 149.6h.01M227.3 112.4h.01M114.3 231.4h.01M161.9 227.7h.01M288.3 170.5h.01M266.6 120.2h.01M204.8 251.0h.01M212.8 98.4h.01M231.8 155.6h.01M285.8 300.6h.01M123.0 279.2h.01M221.9 114.8h.01M108.7 123.1h.01M68.5 213.5h.01M166.0 71.0h.01M189.0 228.6h.01M110.1 97.3h.01M225.3 191.8h.01M220.0 284.6h.01M88.7 112.4h.01M294.1 300.7h.01M125.5 84.7h.01M130.2 47.8h.01M180.2 265.1h.01M270.5 312.7h.01M273.4 201.4h.01M78.0 195.2h.01M271.8 123.8h.01M183.8 107.6h.01M291.4 190.5h.01M271.1 198.1h.01M152.0 187.8h.01M219.7 255.3h.01M183.4 253.6h.01M115.5 123.2h.01M222.4 78.7h.01M191.7 253.8h.01M116.3 129.0h.01M156.4 224.8h.01M272.0 317.1h.01M287.2 252.2h.01M234.1 82.3h.01M176.7 213.8h.01M150.2 193.0h.01M174.6 190.7h.01M280.2 122.3h.01M180.6 220.0h.01M138.2 265.7h.01M303.7 199.8h.01M173.6 232.5h.01M155.5 109.3h.01M121.1 407.0h.01M169.2 290.7h.01M192.5 116.2h.01M76.9 251.2h.01M150.3 294.4h.01M193.4 270.5h.01M210.4 392.1h.01M104.2 97.7h.01M266.6 174.9h.01M74.0 237.4h.01M199.4 183.0h.01M286.2 294.7h.01M126.4 371.8h.01M268.9 131.0h.01M73.7 143.4h.01M263.7 136.5h.01M214.7 200.0h.01M229.0 137.7h.01M81.7 210.1h.01M196.6 97.2h.01M213.1 233.6h.01M247.5 177.7h.01M133.2 163.2h.01M47.6 165.6h.01M193.5 69.5h.01M223.2 129.5h.01M199.0 247.2h.01M284.3 286.8h.01M104.0 192.2h.01M217.0 119.0h.01M113.3 81.7h.01M207.4 271.6h.01M163.2 257.8h.01M104.4 281.6h.01M203.0 193.5h.01M273.3 133.4h.01M248.3 126.4h.01M224.5 147.1h.01M189.0 186.7h.01M283.2 305.5h.01M237.3 62.3h.01M313.6 302.7h.01M176.1 221.0h.01M160.5 125.1h.01M269.0 293.2h.01M175.9 111.2h.01M229.6 144.5h.01M272.5 299.5h.01M282.5 151.3h.01M260.7 122.3h.01M103.8 126.4h.01M234.3 122.0h.01M231.5 250.4h.01M134.7 80.5h.01M273.1 295.1h.01M211.0 237.2h.01M172.8 70.1h.01M139.1 85.3h.01M142.2 308.6h.01M167.4 232.0h.01M206.1 67.0h.01M128.7 363.5h.01M82.1 116.0h.01M182.2 247.5h.01M304.2 207.4h.01M210.8 206.0h.01M268.1 299.1h.01M235.1 128.0h.01M143.2 163.8h.01M230.1 118.4h.01M244.5 199.5h.01M223.4 135.3h.01M103.6 269.4h.01M226.1 171.9h.01M238.9 117.4h.01M174.7 63.9h.01M203.0 275.8h.01M227.5 85.5h.01M223.9 176.0h.01M137.4 95.6h.01M191.4 178.5h.01M129.3 307.8h.01M242.9 106.8h.01M126.2 189.1h.01M142.7 63.6h.01M226.7 106.0h.01M181.2 118.6h.01M110.6 263.2h.01M106.6 306.4h.01M110.0 190.4h.01M271.1 204.7h.01M207.8 94.7h.01M199.3 217.8h.01M173.8 290.0h.01M109.0 86.4h.01M222.2 123.2h.01M220.9 103.8h.01M156.1 65.0h.01M217.0 402.6h.01M203.3 255.4h.01M226.9 182.4h.01M204.9 281.7h.01M215.5 57.6h.01M192.7 190.6h.01M116.6 284.9h.01M132.7 84.8h.01M180.4 207.7h.01M200.1 70.0h.01M180.6 226.1h.01M174.8 104.0h.01M199.7 203.8h.01M276.4 326.1h.01M190.3 64.5h.01M265.9 231.5h.01M110.8 280.7h.01M193.4 200.3h.01M137.2 203.8h.01M251.8 115.5h.01M190.9 290.2h.01M159.2 266.1h.01M193.1 261.1h.01M128.0 130.5h.01M147.2 258.5h.01M184.2 303.1h.01M118.0 80.9h.01M308.2 167.9h.01M190.2 96.7h.01M295.8 175.0h.01M198.2 279.8h.01M232.1 167.1h.01M226.2 204.7h.01M135.8 281.6h.01M179.8 271.5h.01M282.2 311.8h.01M223.3 217.2h.01M179.5 69.1h.01M214.2 290.0h.01M179.7 92.5h.01M112.2 310.5h.01M228.7 371.7h.01M167.7 285.3h.01M253.9 168.1h.01M214.8 216.5h.01M195.7 288.8h.01M170.8 183.3h.01M270.9 142.8h.01M230.9 172.0h.01M221.5 245.0h.01M303.5 213.9h.01M272.2 263.0h.01M149.1 299.7h.01M138.9 150.6h.01M99.4 115.7h.01M171.9 87.2h.01M255.6 347.9h.01M179.7 104.8h.01M106.9 205.2h.01M128.9 94.5h.01M255.6 213.9h.01M209.1 89.8h.01M209.0 80.2h.01M143.5 57.9h.01M100.4 188.4h.01M237.3 158.6h.01M177.2 36.9h.01M282.3 180.1h.01M159.5 220.8h.01M269.2 235.8h.01M138.4 77.6h.01M211.9 69.9h.01M309.1 316.6h.01M204.5 206.5h.01M281.7 249.0h.01M237.6 110.9h.01M166.6 82.8h.01M195.1 128.2h.01M239.1 141.0h.01M158.5 59.9h.01M267.9 147.8h.01M172.4 125.6h.01M186.3 124.5h.01M205.3 128.9h.01M162.7 118.6h.01M154.0 303.3h.01M161.7 261.8h.01M157.5 103.2h.01M269.8 224.6h.01M149.2 220.8h.01M204.5 262.4h.01M276.4 314.6h.01M202.5 91.7h.01M122.3 201.0h.01M245.1 193.6h.01M286.0 219.1h.01M196.5 91.5h.01M247.7 103.5h.01M261.1 178.5h.01M98.9 265.4h.01M233.3 160.1h.01M133.6 293.5h.01M288.7 289.5h.01M240.6 185.4h.01M276.9 268.1h.01M204.1 121.4h.01M178.5 303.5h.01M237.7 175.7h.01M114.7 95.1h.01M138.1 102.0h.01M136.8 66.1h.01M210.8 387.4h.01M185.0 37.5h.01M124.5 249.1h.01M219.1 212.6h.01M189.9 215.6h.01M275.6 257.4h.01M211.4 225.3h.01M190.5 405.1h.01M165.4 193.0h.01M129.4 341.8h.01M226.1 225.6h.01M123.8 125.3h.01M214.0 257.6h.01M256.3 112.3h.01M166.8 429.6h.01M101.7 286.7h.01M113.4 274.1h.01M87.7 118.8h.01M175.7 227.7h.01M251.2 173.9h.01M286.3 282.2h.01M210.0 104.3h.01M297.4 188.5h.01M93.3 208.0h.01M129.0 88.3h.01M178.7 282.9h.01M151.1 81.5h.01M112.3 90.9h.01M90.0 194.7h.01M167.2 89.8h.01M148.5 178.1h.01M200.5 102.3h.01M164.7 222.9h.01M150.3 202.8h.01M231.0 193.6h.01M129.4 300.7h.01M81.8 214.9h.01M172.1 217.4h.01M119.4 92.8h.01M107.7 274.9h.01M283.4 277.2h.01M76.7 200.2h.01M178.4 98.5h.01M168.4 263.6h.01M228.9 78.7h.01M207.5 179.5h.01M166.0 253.0h.01M187.4 81.1h.01M279.0 116.8h.01M231.4 150.9h.01M235.5 250.5h.01M170.6 99.7h.01M183.7 85.2h.01M233.6 238.4h.01M177.5 128.0h.01M217.1 112.7h.01M135.8 300.0h.01M192.8 79.9h.01M301.8 159.6h.01M182.3 213.9h.01M211.7 401.6h.01M99.1 102.2h.01M258.1 146.0h.01M265.9 126.5h.01M218.8 218.8h.01M257.2 171.4h.01M281.7 221.0h.01M115.6 108.6h.01M174.1 206.9h.01M210.9 252.7h.01M271.8 303.8h.01M269.4 256.8h.01M190.6 221.9h.01M268.4 171.4h.01M235.7 170.5h.01M211.0 122.7h.01M123.8 285.9h.01M211.3 185.1h.01M273.3 289.7h.01M277.7 178.6h.01M141.8 145.5h.01M225.0 118.7h.01M284.1 206.2h.01M148.4 309.9h.01M117.2 278.4h.01M244.9 121.5h.01M145.1 289.9h.01M173.3 93.8h.01M221.1 172.2h.01M205.8 73.9h.01M115.9 86.9h.01M144.2 80.9h.01M237.0 104.2h.01M208.2 110.3h.01M307.7 202.6h.01M286.8 185.1h.01M83.8 200.7h.01M248.9 182.8h.01M258.1 136.6h.01M194.4 216.8h.01M135.9 306.3h.01M122.3 384.5h.01M223.3 221.8h.01M248.9 143.3h.01M174.1 81.2h.01M109.2 286.5h.01M283.9 200.9h.01M267.3 303.9h.01M278.3 293.3h.01M276.9 297.4h.01M218.1 138.0h.01M281.3 175.0h.01M199.6 284.6h.01M206.1 222.7h.01M282.2 184.5h.01M277.4 165.9h.01M152.6 232.6h.01M176.6 178.6h.01"/>
<path stroke="#1a1a1a" stroke-width="2.86" stroke-linecap="round" fill="none" d="M202.0 179.3h.01M254.8 235.7h.01M235.5 259.5h.01M121.9 231.1h.01M171.8 308.4h.01M213.8 352.9h.01M192.9 169.1h.01M230.6 242.1h.01M263.7 277.7h.01M231.5 206.4h.01M156.8 281.2h.01M118.1 306.2h.01M214.7 162.4h.01M203.3 303.1h.01M124.2 400.0h.01M253.8 266.2h.01M249.9 262.7h.01M237.5 215.6h.01M207.9 162.8h.01M236.9 233.3h.01M87.2 186.7h.01M258.1 326.5h.01M168.1 413.0h.01M94.8 274.2h.01M247.1 249.0h.01M256.3 331.8h.01M246.9 346.2h.01M91.1 216.1h.01M225.1 243.7h.01M107.1 150.1h.01M219.8 144.8h.01M253.0 194.6h.01M100.1 224.5h.01M234.3 271.5h.01M293.8 212.3h.01M149.6 165.0h.01M113.9 316.2h.01M279.8 188.6h.01M268.5 275.5h.01M214.6 277.0h.01M98.8 235.1h.01M282.6 215.6h.01M252.9 323.1h.01M118.4 251.0h.01M267.3 163.2h.01M257.4 163.8h.01M257.7 266.1h.01M102.9 275.7h.01M280.0 140.3h.01M86.3 182.2h.01M202.4 297.5h.01M95.9 149.8h.01M132.5 269.1h.01M225.2 298.0h.01M283.7 188.5h.01M196.8 143.2h.01M113.1 399.7h.01M221.3 207.3h.01M86.8 230.7h.01M104.8 300.8h.01M267.6 201.9h.01M180.1 258.7h.01M179.7 161.9h.01M273.3 187.5h.01M120.0 272.9h.01M119.0 132.3h.01M212.5 357.1h.01M225.1 284.3h.01M154.6 205.1h.01M173.5 304.5h.01M74.4 151.8h.01M103.0 149.4h.01M146.0 318.6h.01M150.4 429.8h.01M167.7 399.7h.01M121.3 225.6h.01M144.4 208.0h.01M247.7 355.4h.01M98.3 209.5h.01M132.8 130.1h.01M272.1 151.4h.01M217.7 236.8h.01M104.2 184.0h.01M260.6 320.3h.01M135.2 429.0h.01M76.9 215.6h.01M251.4 159.6h.01M272.4 246.3h.01M253.2 145.8h.01M262.3 239.0h.01M252.4 303.5h.01M243.5 252.2h.01M233.9 245.7h.01M124.7 255.6h.01M160.7 206.2h.01M215.3 145.4h.01M197.9 158.4h.01M261.5 232.2h.01M146.9 314.3h.01M262.0 268.9h.01M181.9 311.8h.01M251.8 187.1h.01M221.0 157.5h.01M81.4 261.4h.01M87.4 234.4h.01M119.1 315.7h.01M127.4 266.3h.01M219.1 290.4h.01M227.3 260.8h.01M98.3 278.3h.01M217.5 348.3h.01M194.8 293.8h.01M145.4 217.7h.01M262.8 326.5h.01M156.6 230.2h.01M286.8 244.8h.01M268.9 189.3h.01M252.2 339.0h.01M248.8 316.6h.01M253.0 210.2h.01M144.1 265.7h.01M272.8 147.4h.01M114.4 180.0h.01M87.4 205.4h.01M293.8 206.1h.01M152.7 169.0h.01M154.7 310.1h.01M166.8 217.5h.01M231.5 233.6h.01M231.0 202.0h.01M258.7 255.5h.01M260.5 314.6h.01M147.3 225.8h.01M245.7 204.9h.01M206.6 237.0h.01M264.1 253.4h.01M209.9 292.3h.01M146.7 154.8h.01M110.9 175.9h.01M236.3 164.6h.01M127.2 220.7h.01M244.8 318.0h.01M147.6 149.0h.01M233.9 330.8h.01M271.8 238.6h.01M291.2 196.8h.01M287.4 165.9h.01M91.4 224.5h.01M189.2 133.8h.01M206.9 227.9h.01M229.5 284.0h.01M150.8 215.3h.01M191.4 300.2h.01M223.1 279.5h.01M247.5 158.4h.01M244.0 182.3h.01M174.0 408.7h.01M270.8 175.2h.01M100.0 228.4h.01M73.3 164.9h.01M175.9 158.5h.01M189.3 165.4h.01M200.3 133.3h.01M173.0 259.1h.01M114.8 173.3h.01M287.3 179.9h.01M169.0 228.0h.01M243.9 326.9h.01M105.2 212.3h.01M216.4 154.2h.01M134.5 229.0h.01M291.3 175.1h.01M168.4 169.3h.01M275.8 143.9h.01M240.1 267.0h.01M255.0 244.9h.01M97.8 203.0h.01M151.4 237.2h.01M166.9 206.7h.01M133.3 139.1h.01M137.8 271.2h.01M148.1 267.5h.01M237.6 275.4h.01M164.0 272.5h.01M274.4 138.8h.01M189.8 129.1h.01M268.6 320.2h.01M258.4 260.8h.01M65.2 165.9h.01M261.6 187.1h.01M146.3 234.4h.01M215.9 252.1h.01M190.0 197.4h.01M114.2 185.2h.01M254.8 226.3h.01M248.1 132.9h.01M265.7 271.4h.01M200.8 165.7h.01M267.3 330.5h.01M162.0 130.2h.01M236.6 279.4h.01M165.9 267.9h.01M231.1 264.5h.01M267.6 325.0h.01M183.6 429.0h.01M93.2 168.3h.01M184.7 203.1h.01M102.1 204.1h.01M237.2 209.3h.01M267.0 264.9h.01M211.1 302.8h.01M298.7 204.8h.01M152.7 176.8h.01M264.7 214.1h.01M244.1 269.8h.01M62.5 169.4h.01M133.5 424.9h.01M188.1 174.9h.01M74.5 189.5h.01M93.9 190.9h.01M168.0 257.9h.01M102.7 153.8h.01M227.5 154.7h.01M166.1 406.5h.01M156.2 130.1h.01M244.5 167.5h.01M242.0 274.0h.01M232.8 229.6h.01M222.4 359.9h.01M195.6 222.9h.01M278.3 170.7h.01M89.8 244.6h.01M123.4 269.6h.01M95.9 241.9h.01M107.5 221.3h.01M222.2 402.1h.01M299.6 282.6h.01M99.2 271.5h.01M172.3 312.4h.01M259.3 167.4h.01M229.8 255.3h.01M195.0 205.5h.01M110.8 168.1h.01M209.0 247.4h.01M107.9 130.4h.01M237.8 342.8h.01M154.3 147.0h.01M117.8 222.1h.01M260.7 308.7h.01M165.7 423.3h.01M265.7 178.5h.01M189.5 143.5h.01M218.1 157.8h.01M104.1 235.5h.01M256.6 274.1h.01M309.8 284.1h.01M283.0 166.2h.01M277.4 320.7h.01M248.8 244.4h.01M76.2 184.6h.01M176.9 309.4h.01M158.1 427.5h.01M142.7 281.4h.01M80.3 180.9h.01M150.6 280.6h.01M215.9 175.5h.01M118.0 176.9h.01M257.4 250.2h.01M199.9 175.2h.01M104.6 259.1h.01M237.4 365.2h.01M101.5 232.1h.01M127.6 274.1h.01M216.6 149.1h.01M170.7 172.8h.01M260.1 280.8h.01M135.4 208.0h.01M272.3 190.7h.01M286.7 213.3h.01M250.3 235.1h.01M243.6 131.1h.01M170.0 409.0h.01M260.4 214.0h.01M265.2 289.3h.01M173.2 418.9h.01M76.1 245.3h.01M218.6 165.6h.01M112.2 195.3h.01M115.1 207.3h.01M156.7 430.3h.01M93.9 264.2h.01M239.6 252.4h.01M257.0 277.4h.01M207.6 304.5h.01M280.8 243.9h.01M105.1 240.0h.01M161.6 215.9h.01M115.7 259.5h.01M124.9 315.4h.01M105.2 230.0h.01M88.7 248.6h.01M177.7 422.7h.01M186.6 207.6h.01M139.7 217.4h.01M241.9 226.8h.01M259.4 224.2h.01M220.2 295.3h.01M111.9 411.6h.01M238.8 132.4h.01M178.0 410.6h.01M210.9 298.0h.01M133.2 158.2h.01M190.9 233.0h.01M223.9 288.4h.01M235.8 202.5h.01M80.3 187.6h.01M283.1 240.4h.01M123.4 310.5h.01M247.1 305.6h.01M196.0 303.8h.01M205.7 241.9h.01M289.7 202.2h.01M173.4 268.7h.01M130.5 134.8h.01M183.7 424.1h.01M248.9 326.7h.01M206.8 295.9h.01M234.3 197.6h.01M290.1 304.9h.01M151.4 149.0h.01M91.8 229.7h.01M215.0 294.9h.01M106.2 312.1h.01M276.2 174.8h.01M254.6 190.7h.01M239.9 237.5h.01M197.8 307.8h.01M76.6 221.2h.01M170.7 196.0h.01M93.0 152.7h.01M71.7 181.6h.01M261.4 191.6h.01M219.4 407.4h.01M253.8 221.6h.01M210.0 215.1h.01M130.6 255.6h.01M239.8 259.6h.01M257.8 193.8h.01M199.3 148.1h.01M197.5 232.7h.01M263.0 164.7h.01M87.1 254.2h.01M130.3 229.7h.01M182.7 176.7h.01M266.2 217.9h.01M282.8 170.6h.01M97.6 303.8h.01M191.7 309.6h.01M233.6 275.9h.01M177.9 292.8h.01M209.4 361.5h.01M141.2 232.4h.01M133.8 315.6h.01M247.9 254.3h.01M302.0 186.9h.01M263.7 199.5h.01M176.8 255.4h.01M130.8 225.6h.01M259.8 342.9h.01M209.8 167.9h.01M192.6 135.6h.01M71.2 208.2h.01M188.2 308.2h.01M225.6 355.6h.01M244.2 173.2h.01M269.8 185.2h.01M260.4 286.1h.01M244.8 263.6h.01M243.1 156.7h.01M218.2 242.7h.01M218.2 203.6h.01M257.9 189.4h.01M263.0 203.9h.01M240.0 243.5h.01M234.9 358.3h.01M206.7 300.4h.01M155.9 317.8h.01M110.7 165.0h.01M249.0 211.5h.01M220.2 356.7h.01M204.8 170.8h.01M258.2 229.5h.01M113.6 161.9h.01M159.1 271.0h.01M249.5 222.1h.01M296.3 169.8h.01M105.1 200.2h.01M259.7 151.2h.01M241.7 256.6h.01M101.2 198.5h.01M257.1 218.7h.01M256.6 299.1h.01M252.3 334.1h.01M260.2 208.3h.01M228.3 230.0h.01M206.0 358.5h.01M273.0 170.8h.01M129.3 312.5h.01M211.3 138.1h.01M145.5 166.6h.01M216.5 273.1h.01M221.3 239.4h.01M209.4 242.0h.01M230.7 163.1h.01M263.4 182.4h.01M250.6 164.2h.01M239.4 200.3h.01M184.6 308.0h.01M172.9 224.8h.01M172.2 163.3h.01M253.2 272.8h.01M159.8 173.6h.01M226.9 239.9h.01M287.1 309.5h.01M189.8 203.6h.01M267.2 197.4h.01M98.8 193.6h.01M247.7 266.9h.01M120.6 181.5h.01M177.8 196.2h.01M171.7 423.0h.01M193.8 228.5h.01M246.5 274.0h.01M273.5 177.7h.01M108.3 208.7h.01M69.7 176.4h.01M181.4 414.6h.01M142.5 314.4h.01M224.9 248.8h.01M135.4 224.4h.01M256.9 321.4h.01M214.0 396.7h.01M90.2 174.4h.01M257.7 337.4h.01M131.5 205.3h.01M240.7 278.9h.01M102.6 168.9h.01M248.1 335.9h.01M255.6 160.1h.01M139.7 276.5h.01M242.8 247.0h.01M252.3 308.0h.01M201.4 243.0h.01M158.9 276.0h.01M121.6 262.8h.01M148.6 230.4h.01M211.9 229.6h.01M228.2 365.6h.01M98.0 168.2h.01M253.2 256.7h.01M241.0 205.5h.01M153.6 180.6h.01M154.0 272.0h.01M205.3 167.4h.01M174.3 244.1h.01M151.9 226.4h.01M263.2 148.3h.01M211.5 159.9h.01M204.7 291.9h.01M95.3 227.4h.01M299.8 172.9h.01M261.4 243.9h.01M246.4 313.1h.01M260.2 159.6h.01M87.1 241.2h.01M226.0 265.2h.01M248.1 309.7h.01M214.8 285.5h.01M200.7 305.4h.01M260.9 331.5h.01M162.2 429.0h.01M304.4 181.0h.01M276.5 153.6h.01M206.8 154.3h.01M137.1 423.4h.01M253.8 262.0h.01M268.7 281.0h.01M85.0 170.8h.01M138.0 228.9h.01M249.7 201.5h.01M256.9 208.7h.01M153.7 157.2h.01M213.4 270.7h.01M268.5 193.5h.01M166.5 126.9h.01M286.7 192.3h.01M148.6 130.2h.01M249.0 271.1h.01M94.1 269.0h.01M104.5 254.3h.01M100.1 238.8h.01M252.4 299.8h.01M137.6 155.0h.01M81.7 224.6h.01M260.4 290.8h.01M150.6 135.0h.01M91.7 240.7h.01M89.7 273.3h.01M200.5 170.0h.01M122.4 205.5h.01M124.6 235.8h.01M84.5 136.3h.01M80.0 137.8h.01M239.5 194.7h.01M189.8 429.0h.01M195.8 178.5h.01M197.5 396.4h.01M172.4 253.2h.01M257.5 240.2h.01M179.5 201.3h.01M264.0 334.9h.01M116.6 227.3h.01M144.0 158.7h.01M92.1 260.6h.01M227.2 313.8h.01M204.5 163.7h.01M252.9 278.5h.01M152.6 314.1h.01M251.3 240.0h.01M251.9 268.6h.01M156.0 170.5h.01M90.7 252.1h.01M235.8 206.4h.01M264.3 312.1h.01M129.6 316.4h.01M248.3 280.9h.01M264.4 193.9h.01M242.2 345.5h.01M212.6 178.6h.01M287.1 175.2h.01M168.9 160.5h.01M85.1 244.5h.01M138.4 313.7h.01M204.0 233.9h.01M232.2 215.0h.01M95.8 135.3h.01M225.2 329.8h.01M94.8 252.2h.01M206.1 135.6h.01M223.9 165.8h.01M107.9 166.7h.01M86.0 175.1h.01M252.8 133.7h.01M195.0 309.9h.01M249.5 197.2h.01M220.5 224.9h.01M128.9 336.5h.01M168.0 426.1h.01M103.3 179.0h.01M267.0 210.7h.01M252.7 231.0h.01M150.7 173.1h.01M127.9 139.1h.01M95.0 237.1h.01M218.7 278.7h.01M218.8 362.3h.01M155.2 174.2h.01M125.8 225.5h.01M185.1 167.8h.01M217.0 169.9h.01M301.3 220.5h.01M236.3 337.6h.01M242.5 308.5h.01M109.0 235.3h.01M252.0 313.0h.01M153.6 267.1h.01M230.2 359.2h.01M107.2 215.9h.01M266.1 206.4h.01M244.4 336.9h.01M249.8 191.4h.01M263.1 248.3h.01M215.0 299.8h.01M89.4 288.6h.01M227.1 280.4h.01M102.6 219.2h.01M115.8 191.4h.01M228.3 159.2h.01M241.6 219.0h.01M93.4 246.6h.01M269.9 213.9h.01M189.8 161.4h.01M101.7 304.3h.01M129.2 422.6h.01M218.6 259.9h.01M222.1 168.7h.01M252.1 250.2h.01M225.7 269.9h.01M252.8 137.6h.01M188.5 285.4h.01M177.5 428.4h.01M195.6 266.5h.01M228.7 125.0h.01M240.0 169.1h.01M199.8 209.3h.01M241.9 304.3h.01M265.4 185.7h.01M109.9 229.4h.01M216.7 231.9h.01M179.9 165.2h.01M193.7 245.5h.01M184.2 231.7h.01M215.0 281.6h.01M184.3 282.0h.01M292.1 241.6h.01M247.0 258.8h.01M159.3 168.2h.01M195.1 235.6h.01M265.5 189.5h.01M133.5 275.6h.01M153.7 276.7h.01M69.4 164.7h.01M80.4 251.9h.01M169.1 273.2h.01M227.8 250.7h.01M308.9 178.4h.01M267.4 182.4h.01M260.2 296.1h.01M262.9 304.7h.01M109.3 316.0h.01M142.5 154.9h.01M195.2 298.9h.01M132.4 345.8h.01M212.4 368.5h.01M258.3 303.0h.01M210.0 276.7h.01M118.8 234.3h.01M261.7 219.0h.01M224.4 158.0h.01M192.2 305.3h.01M137.5 234.1h.01M90.3 256.9h.01M205.2 286.9h.01M111.8 224.5h.01M85.5 277.1h.01M267.7 167.5h.01M140.5 161.1h.01M252.5 318.3h.01M199.0 300.4h.01M240.9 211.4h.01M224.3 293.0h.01M272.3 166.0h.01M204.3 246.3h.01M95.5 223.7h.01M228.4 208.6h.01M247.6 331.1h.01M256.3 316.1h.01M262.1 264.1h.01M162.7 308.3h.01M228.4 212.6h.01M231.3 218.8h.01M82.2 266.4h.01M245.7 162.6h.01M264.1 259.2h.01M89.7 170.2h.01M93.4 180.8h.01M166.9 308.9h.01M247.0 341.0h.01M85.9 258.9h.01M86.2 215.8h.01M98.1 220.7h.01M143.9 222.4h.01M246.1 351.0h.01M225.1 274.1h.01M258.8 235.1h.01M144.6 140.9h.01M231.5 260.1h.01M94.7 212.9h.01M237.3 308.3h.01M113.2 320.6h.01M229.3 236.7h.01M249.7 206.1h.01M153.4 246.5h.01M235.6 255.2h.01M252.8 296.4h.01M246.4 187.4h.01M271.5 270.1h.01M159.7 313.2h.01M273.7 181.0h.01M78.9 257.1h.01M101.9 308.8h.01M189.5 273.7h.01M116.7 202.7h.01M299.7 178.1h.01M263.2 209.7h.01M238.0 228.4h.01M224.6 234.6h.01M209.1 218.6h.01M145.2 125.0h.01M245.0 209.7h.01M216.0 358.5h.01M221.0 274.6h.01M97.1 283.4h.01M153.6 427.9h.01M224.2 213.3h.01M308.5 195.8h.01M134.6 311.0h.01M291.5 165.1h.01M187.5 236.2h.01M241.0 262.9h.01M237.7 219.3h.01M177.5 416.7h.01M248.1 322.1h.01M253.0 328.4h.01M222.0 316.4h.01M239.0 223.2h.01M201.7 231.5h.01M269.8 179.9h.01M69.2 170.5h.01M100.0 255.4h.01M260.8 196.9h.01M210.0 282.0h.01M142.3 247.1h.01M272.6 322.6h.01M244.7 278.2h.01M206.4 211.5h.01M105.1 225.2h.01M264.3 283.5h.01M197.4 163.4h.01M232.4 210.4h.01M86.8 190.6h.01M161.8 157.4h.01M201.2 161.2h.01M246.1 218.9h.01M244.4 241.5h.01M209.8 287.0h.01M95.1 171.7h.01M227.8 197.9h.01M256.6 293.4h.01M127.1 207.2h.01M102.4 295.6h.01M242.0 341.0h.01M130.7 143.7h.01M199.1 294.4h.01M234.7 349.4h.01M216.2 265.0h.01M250.9 216.5h.01M264.3 320.8h.01M202.4 152.4h.01M151.1 262.0h.01M211.2 163.5h.01M250.1 226.9h.01M244.7 300.8h.01M82.5 220.0h.01M193.1 147.2h.01M215.2 141.3h.01M140.2 207.3h.01M257.1 270.4h.01"/>
<path stroke="#1a1a1a" stroke-width="3.34" stroke-linecap="round" fill="none" d="M177.1 369.6h.01M190.5 347.8h.01M139.5 224.5h.01M143.6 426.9h.01M124.9 142.5h.01M119.6 246.7h.01M84.3 247.7h.01M109.2 240.8h.01M184.9 163.1h.01M209.9 153.1h.01M141.9 358.2h.01M235.7 293.2h.01M142.4 326.4h.01M102.1 244.9h.01M118.3 211.7h.01M156.0 138.8h.01M238.1 347.9h.01M183.1 137.1h.01M139.5 213.8h.01M225.2 309.9h.01M196.4 138.3h.01M228.7 288.4h.01M212.6 319.9h.01M204.7 159.9h.01M171.0 404.5h.01M189.6 170.1h.01M153.5 403.2h.01M185.9 248.8h.01M187.5 378.7h.01M155.6 373.1h.01M162.6 390.4h.01M193.9 157.3h.01M162.5 386.5h.01M169.9 236.5h.01M82.1 149.1h.01M191.7 331.5h.01M139.2 345.0h.01M171.5 385.0h.01M226.4 306.2h.01M224.2 364.1h.01M210.6 343.6h.01M98.6 184.9h.01M147.2 363.6h.01M175.8 131.0h.01M197.5 320.5h.01M248.0 296.5h.01M105.4 134.2h.01M240.9 353.5h.01M93.1 202.9h.01M144.7 230.2h.01M100.5 131.5h.01M70.8 219.4h.01M137.1 318.9h.01M117.9 320.1h.01M143.2 353.9h.01M217.9 247.7h.01M205.9 330.9h.01M106.4 169.2h.01M119.8 326.4h.01M192.0 379.9h.01M131.9 209.6h.01M111.2 147.7h.01M217.1 328.3h.01M109.4 212.1h.01M224.3 258.1h.01M124.3 388.4h.01M177.9 135.4h.01M140.3 425.5h.01M231.7 317.9h.01M168.1 418.3h.01M79.2 146.3h.01M230.6 268.6h.01M174.7 375.1h.01M123.2 164.0h.01M161.4 365.8h.01M193.1 173.6h.01M233.8 288.8h.01M169.2 369.9h.01M174.5 396.7h.01M163.9 155.1h.01M163.6 372.6h.01M209.5 331.5h.01M213.5 330.5h.01M137.0 359.4h.01M76.3 178.7h.01M154.1 143.4h.01M146.6 276.9h.01M154.8 397.1h.01M185.8 406.0h.01M231.8 313.5h.01M100.3 291.1h.01M240.9 298.6h.01M147.0 322.5h.01M121.4 322.8h.01M158.4 392.9h.01M211.6 156.8h.01M141.1 228.7h.01M236.0 263.5h.01M218.9 344.3h.01M94.9 232.6h.01M251.8 283.4h.01M233.0 305.6h.01M150.4 359.0h.01M84.6 227.4h.01M151.0 363.5h.01M143.4 271.5h.01M216.5 307.4h.01M238.7 270.9h.01M205.2 216.4h.01M228.0 220.8h.01M144.2 430.2h.01M88.2 227.2h.01M157.8 402.8h.01M209.4 375.3h.01M205.9 364.8h.01M183.0 237.3h.01M76.2 156.1h.01M226.8 351.7h.01M213.5 334.4h.01M96.0 182.9h.01M213.3 322.9h.01M245.4 290.4h.01M94.7 164.3h.01M243.0 332.0h.01M273.5 184.0h.01M203.3 333.3h.01M121.2 239.0h.01M241.6 290.6h.01M208.4 173.4h.01M75.2 147.7h.01M87.4 142.4h.01M77.5 169.8h.01M133.3 341.5h.01M91.1 149.0h.01M227.5 216.5h.01M169.1 141.4h.01M215.3 391.8h.01M164.6 376.6h.01M112.5 405.5h.01M256.0 282.2h.01M305.7 191.2h.01M132.8 320.2h.01M226.6 359.9h.01M195.1 132.7h.01M170.0 381.5h.01M210.5 307.7h.01M88.4 138.5h.01M206.5 308.0h.01M170.6 397.4h.01M208.6 312.0h.01M228.9 246.1h.01M229.3 331.8h.01M255.9 287.5h.01M220.4 329.8h.01M168.0 312.7h.01M164.3 410.1h.01M116.9 323.7h.01M91.7 233.3h.01M154.1 390.1h.01M303.9 169.2h.01M255.3 343.0h.01M228.7 276.8h.01M146.5 367.6h.01M232.6 368.2h.01M292.5 170.1h.01M199.9 347.5h.01M70.5 225.3h.01M198.2 241.1h.01M165.6 212.0h.01M99.7 171.7h.01M220.6 309.0h.01M145.5 384.4h.01M170.6 150.6h.01M158.8 143.1h.01M225.5 324.8h.01M140.4 347.7h.01M222.5 336.3h.01M302.9 173.1h.01M157.4 156.9h.01M221.6 377.0h.01M83.0 184.6h.01M196.8 324.2h.01M101.2 136.0h.01M97.7 139.4h.01M217.9 317.4h.01M142.0 237.3h.01M152.1 413.9h.01M202.7 313.7h.01M166.2 383.7h.01M120.2 141.8h.01M210.4 347.4h.01M156.2 424.5h.01M125.5 396.6h.01M159.3 398.0h.01M128.7 212.3h.01M143.4 226.3h.01M140.6 220.4h.01M107.9 138.8h.01M209.5 327.7h.01M161.9 161.8h.01M121.3 160.4h.01M106.6 172.5h.01M98.2 153.4h.01M195.2 151.4h.01M154.8 421.5h.01M161.2 402.9h.01M206.3 313.4h.01M186.1 313.3h.01M166.1 402.8h.01M139.8 351.4h.01M152.2 379.8h.01M170.9 130.4h.01M229.5 309.2h.01M143.4 214.4h.01M164.7 152.6h.01M225.8 317.9h.01M161.8 394.9h.01M236.0 212.3h.01M147.7 355.5h.01M239.1 327.3h.01M280.3 153.9h.01M186.4 414.6h.01M88.3 220.2h.01M106.8 176.9h.01M112.4 240.1h.01M231.4 345.6h.01M247.2 286.1h.01M229.0 303.7h.01M196.3 346.2h.01M125.9 411.8h.01M122.9 155.9h.01M193.7 163.6h.01M156.6 134.5h.01M219.2 269.8h.01M114.6 165.0h.01M201.7 320.3h.01M113.3 132.0h.01M181.1 405.8h.01M251.0 344.5h.01M173.3 137.4h.01M80.2 247.5h.01M142.6 322.8h.01M151.0 425.0h.01M132.7 337.4h.01M228.3 292.6h.01M206.8 320.7h.01M161.8 369.6h.01M162.7 400.5h.01M115.8 242.0h.01M167.3 148.0h.01M161.1 406.3h.01M226.9 335.2h.01M230.0 327.2h.01M249.9 276.0h.01M188.1 419.1h.01M174.5 369.5h.01M153.6 376.4h.01M209.8 366.7h.01M209.4 317.4h.01M213.3 153.2h.01M149.2 272.5h.01M126.5 403.9h.01M185.0 375.8h.01M236.2 315.1h.01M231.6 354.4h.01M153.8 359.5h.01M220.5 370.7h.01M202.7 238.2h.01M146.9 161.8h.01M158.4 388.5h.01M225.2 342.9h.01M135.9 212.7h.01M77.0 165.9h.01M221.9 262.4h.01M156.8 184.2h.01M106.1 155.4h.01M191.3 316.8h.01M112.4 209.5h.01M218.6 313.6h.01M125.2 320.8h.01M119.9 136.0h.01M156.1 399.8h.01M181.1 132.1h.01M232.3 323.1h.01M212.9 326.4h.01M107.9 254.7h.01M167.6 395.3h.01M174.7 144.5h.01M199.9 316.4h.01M216.4 324.8h.01M218.8 334.8h.01M239.2 282.8h.01M185.8 317.2h.01M129.5 242.1h.01M310.6 288.7h.01M164.1 315.4h.01M137.4 244.2h.01M234.5 282.7h.01M216.8 320.5h.01M52.0 168.0h.01M100.9 251.5h.01M314.1 291.5h.01M102.6 208.9h.01M82.3 231.5h.01M167.7 377.7h.01M244.1 282.9h.01M192.3 376.9h.01M191.5 238.4h.01M281.2 317.6h.01M158.6 420.1h.01M135.9 220.6h.01M304.5 176.6h.01M213.8 348.5h.01M99.6 175.5h.01M251.1 350.5h.01M231.7 280.0h.01M206.4 370.0h.01M89.3 178.7h.01M142.0 210.9h.01M221.7 341.0h.01M92.1 293.7h.01M165.2 164.1h.01M206.6 346.3h.01M147.4 349.1h.01M164.1 357.7h.01M147.3 352.0h.01M160.2 319.2h.01M207.6 324.4h.01M210.4 351.6h.01M237.8 300.6h.01M97.3 248.9h.01M239.4 360.6h.01M129.2 418.5h.01M214.9 158.3h.01M176.1 404.8h.01M222.7 332.8h.01M150.5 367.5h.01M214.4 344.2h.01M141.0 319.5h.01M83.4 141.3h.01M171.7 400.7h.01M195.3 316.3h.01M81.2 237.8h.01M229.2 341.5h.01M152.2 161.4h.01M226.4 162.9h.01M190.8 313.0h.01M209.1 335.4h.01M157.3 236.8h.01M103.3 174.4h.01M161.1 424.3h.01M255.8 197.7h.01M216.5 366.7h.01M160.6 137.9h.01M163.0 419.8h.01M138.1 341.9h.01M229.6 299.5h.01M181.5 159.1h.01M116.6 238.8h.01M126.6 231.3h.01M155.2 406.0h.01M156.8 412.7h.01M236.2 324.8h.01M118.9 171.6h.01M122.0 318.4h.01M159.5 159.5h.01M183.5 380.1h.01M138.5 363.1h.01M113.8 155.4h.01M156.4 214.8h.01M212.7 172.6h.01M118.5 207.3h.01M263.2 339.2h.01M143.6 345.7h.01M150.8 139.8h.01M215.2 313.7h.01M95.0 299.0h.01M207.1 150.4h.01M206.5 141.0h.01M203.6 309.2h.01M138.4 324.2h.01M193.6 320.4h.01M237.3 304.4h.01M129.8 157.1h.01M174.4 173.2h.01M135.7 216.3h.01M161.2 356.3h.01M150.9 318.6h.01M243.3 357.9h.01M178.7 236.1h.01M119.1 242.3h.01M166.0 141.5h.01M81.4 176.3h.01M156.4 361.5h.01M100.4 214.3h.01M171.6 393.6h.01M127.5 216.5h.01M159.2 375.4h.01M145.1 374.6h.01M152.7 409.3h.01M151.0 153.6h.01M146.3 359.4h.01M148.6 379.3h.01M143.1 370.0h.01M277.8 161.3h.01M112.6 139.0h.01M210.8 383.5h.01M238.3 311.7h.01M167.0 240.4h.01M83.7 271.6h.01M242.5 322.3h.01M203.1 346.9h.01M238.0 332.3h.01M168.7 165.4h.01M195.0 353.6h.01M219.7 323.9h.01M97.3 231.1h.01M239.3 294.0h.01M206.4 351.1h.01M152.4 371.8h.01M306.5 173.1h.01M87.3 263.3h.01M60.4 164.2h.01M197.7 351.3h.01M201.9 351.2h.01M217.4 352.9h.01M271.0 161.9h.01M218.6 373.4h.01M135.1 334.1h.01M199.9 332.7h.01M122.6 244.1h.01M92.7 138.3h.01M222.1 326.7h.01M126.9 324.4h.01M207.2 342.4h.01M126.6 384.1h.01M276.5 244.3h.01M222.5 312.7h.01M156.9 376.7h.01M125.1 380.2h.01M135.8 343.8h.01M225.3 254.0h.01M160.7 415.9h.01M92.1 278.9h.01M99.0 147.5h.01M142.9 362.3h.01M227.2 150.1h.01M138.1 337.0h.01M249.2 289.8h.01M161.7 382.5h.01M191.9 208.7h.01M122.4 169.0h.01M132.5 213.1h.01M233.1 362.9h.01M140.0 339.5h.01M156.9 322.7h.01M90.2 183.9h.01M198.3 362.9h.01M284.4 155.6h.01M82.3 241.2h.01M174.1 315.5h.01M152.2 322.5h.01M210.1 322.1h.01M230.3 349.7h.01M95.2 175.6h.01M232.9 285.8h.01M215.2 370.9h.01M162.5 360.0h.01M240.5 336.2h.01M84.5 251.4h.01M200.6 310.4h.01M79.9 243.7h.01M178.9 244.5h.01M306.4 185.5h.01M211.0 144.0h.01M119.2 166.4h.01M213.0 312.7h.01M165.1 392.8h.01M187.8 319.8h.01M189.0 424.0h.01M160.1 379.3h.01M110.7 258.3h.01M228.2 321.4h.01M235.1 267.4h.01M157.5 408.3h.01M125.3 240.6h.01M211.1 314.7h.01M142.2 365.7h.01M148.8 144.4h.01M78.5 151.1h.01M161.9 239.8h.01M147.3 427.7h.01M78.9 142.5h.01M115.9 143.6h.01M277.5 239.0h.01M168.2 391.3h.01M138.5 210.5h.01M146.4 239.1h.01M154.0 165.2h.01M298.4 210.4h.01M149.3 158.1h.01M134.7 324.2h.01M164.4 397.7h.01M235.0 297.1h.01M114.8 151.2h.01M202.6 361.7h.01M233.6 309.8h.01M157.5 241.8h.01M175.7 162.9h.01M160.6 411.1h.01M163.1 363.2h.01M286.9 158.5h.01M160.8 188.1h.01M230.1 295.8h.01M125.7 146.5h.01M96.9 294.6h.01M202.8 355.4h.01M248.4 300.8h.01M150.0 392.5h.01M196.3 168.7h.01M83.8 145.4h.01M172.0 369.0h.01M163.3 145.5h.01M183.5 410.1h.01M97.8 178.7h.01M153.9 363.6h.01M176.0 378.5h.01M272.0 328.8h.01M213.9 309.6h.01M198.8 357.8h.01M72.2 159.9h.01M150.7 396.6h.01M223.4 153.4h.01M155.8 369.8h.01M110.6 171.5h.01M153.9 367.4h.01M225.8 339.0h.01M122.5 209.4h.01M264.0 160.1h.01M158.6 368.5h.01M123.6 392.7h.01M224.6 371.5h.01M221.5 266.6h.01M159.0 147.7h.01M185.5 131.8h.01M237.0 354.4h.01M111.1 143.2h.01M208.7 355.7h.01M162.8 141.2h.01M164.6 236.3h.01M87.1 282.4h.01M159.2 164.8h.01M242.4 313.0h.01M142.1 242.1h.01M232.3 292.0h.01M233.3 301.4h.01M175.5 400.4h.01M121.1 148.2h.01M74.1 225.4h.01M110.2 153.3h.01M114.7 168.5h.01M233.6 342.0h.01M237.6 289.4h.01M173.4 318.8h.01M154.0 386.4h.01M251.6 287.4h.01M169.1 316.6h.01M222.3 161.8h.01M160.4 152.9h.01M133.8 356.2h.01M127.3 166.8h.01M79.9 229.4h.01M167.5 365.9h.01M217.5 332.0h.01M130.3 323.5h.01M171.2 146.1h.01M73.9 231.1h.01M226.6 347.0h.01M164.7 367.4h.01M273.3 241.5h.01M122.0 220.1h.01M125.4 211.8h.01M129.6 149.2h.01M224.3 209.8h.01M103.5 140.1h.01M243.5 295.3h.01M139.7 429.4h.01M219.1 396.6h.01M77.0 227.4h.01M125.5 407.3h.01M100.8 181.8h.01M159.5 361.0h.01M125.6 171.2h.01M182.7 419.5h.01M221.9 348.9h.01M230.1 272.9h.01M172.9 413.9h.01M149.6 384.5h.01M179.3 315.3h.01M124.2 324.6h.01M111.4 254.5h.01M73.6 169.9h.01M99.7 299.4h.01M197.5 313.1h.01M136.3 339.4h.01M213.6 317.1h.01M201.1 139.0h.01M154.3 393.5h.01M109.9 161.4h.01M217.4 310.4h.01M153.7 382.9h.01M95.4 288.9h.01M219.7 305.1h.01M222.3 320.8h.01M174.7 148.0h.01M93.6 186.4h.01M159.4 372.1h.01M194.5 357.6h.01M156.8 365.5h.01M76.3 161.1h.01M92.0 284.3h.01M130.8 216.3h.01M248.1 293.1h.01M242.0 286.7h.01M119.0 139.3h.01M231.8 336.5h.01M221.2 366.5h.01M156.0 153.4h.01M237.5 285.9h.01M171.1 365.6h.01M210.7 310.6h.01M138.0 355.1h.01M223.1 306.4h.01M134.4 351.3h.01M123.4 138.6h.01M221.9 352.4h.01M210.5 379.4h.01M223.9 302.3h.01M156.6 161.9h.01M143.7 349.5h.01M242.3 349.6h.01M155.7 416.8h.01M213.7 305.2h.01M82.9 255.8h.01M184.3 197.9h.01M181.6 317.1h.01M128.8 367.6h.01M215.3 375.7h.01M150.0 388.4h.01M88.8 267.9h.01M128.5 319.8h.01M137.8 239.3h.01M87.1 223.7h.01M88.7 156.4h.01M136.3 347.8h.01M205.1 317.4h.01M260.9 274.2h.01M188.8 410.3h.01M177.0 313.0h.01M92.1 142.3h.01M286.2 196.7h.01M179.6 401.7h.01M240.2 317.6h.01M115.5 135.5h.01M158.5 384.7h.01M174.3 237.9h.01M181.7 143.3h.01M146.9 382.0h.01M128.5 161.9h.01M77.0 240.2h.01M208.2 158.2h.01M186.4 371.1h.01M151.8 419.7h.01M141.2 342.5h.01M100.6 242.2h.01M104.0 158.9h.01M148.2 371.5h.01M216.9 303.2h.01M56.9 167.8h.01M175.4 154.2h.01M183.3 172.6h.01M211.6 372.7h.01M193.8 349.1h.01M156.1 150.1h.01M183.6 147.2h.01M219.9 299.8h.01M164.4 414.9h.01M216.7 341.1h.01M108.7 180.9h.01M190.3 345.2h.01M129.2 238.9h.01M174.5 366.0h.01M163.7 167.1h.01M218.5 161.4h.01M165.3 161.0h.01M179.8 381.4h.01M173.0 372.5h.01M178.3 145.1h.01M98.1 245.3h.01M90.6 236.6h.01M252.6 292.0h.01M77.4 234.5h.01M215.2 379.3h.01M213.8 362.7h.01M222.5 345.7h.01M133.1 152.7h.01M156.6 380.9h.01M86.9 238.1h.01"/>
<path stroke="#1a1a1a" stroke-width="3.91" stroke-linecap="round" fill="none" d="M192.6 339.6h.01M116.3 245.5h.01M146.5 339.3h.01M144.4 423.3h.01M95.5 156.9h.01M131.4 386.7h.01M163.0 149.5h.01M192.5 140.1h.01M137.1 373.7h.01M190.6 370.4h.01M80.4 156.8h.01M198.4 370.0h.01M162.1 134.2h.01M169.3 358.7h.01M189.4 382.9h.01M167.1 150.9h.01M180.6 392.1h.01M87.7 146.5h.01M194.0 374.0h.01M183.1 369.5h.01M137.3 369.9h.01M206.5 384.5h.01M165.5 327.8h.01M110.7 135.1h.01M185.5 345.0h.01M157.1 341.7h.01M180.6 324.7h.01M174.4 345.6h.01M111.7 213.9h.01M127.6 154.1h.01M181.2 357.8h.01M182.4 347.2h.01M176.9 384.5h.01M133.5 372.3h.01M86.4 148.9h.01M130.9 396.0h.01M157.3 345.4h.01M132.5 406.8h.01M299.0 286.0h.01M193.4 343.5h.01M167.3 333.5h.01M182.0 351.0h.01M199.7 343.6h.01M137.7 377.1h.01M84.2 157.6h.01M157.5 327.5h.01M160.4 332.8h.01M190.8 386.0h.01M188.1 373.8h.01M154.2 338.8h.01M165.5 340.9h.01M188.7 359.5h.01M179.4 337.4h.01M148.1 330.4h.01M164.9 320.6h.01M133.0 217.8h.01M178.8 321.8h.01M182.5 331.0h.01M174.0 388.7h.01M205.3 327.1h.01M189.5 157.1h.01M198.7 388.0h.01M86.0 165.8h.01M200.7 340.2h.01M148.7 418.0h.01M133.5 240.4h.01M139.0 387.6h.01M285.6 162.2h.01M166.7 352.1h.01M184.6 322.9h.01M167.5 330.2h.01M101.0 248.0h.01M203.5 342.7h.01M187.2 401.9h.01M188.7 354.9h.01M149.6 405.4h.01M111.1 217.9h.01M179.6 371.2h.01M202.0 328.8h.01M195.9 211.2h.01M186.5 352.5h.01M191.0 374.0h.01M152.8 241.0h.01M180.2 334.4h.01M153.7 348.6h.01M102.5 164.3h.01M314.3 296.3h.01M129.1 408.9h.01M184.2 389.8h.01M199.2 326.7h.01M100.3 143.1h.01M202.2 143.4h.01M178.2 374.8h.01M144.6 387.5h.01M129.3 330.7h.01M183.9 395.0h.01M194.0 361.3h.01M176.1 339.9h.01M161.8 344.1h.01M174.7 349.6h.01M169.9 320.8h.01M132.0 365.5h.01M84.4 161.7h.01M167.8 324.1h.01M171.2 332.9h.01M140.5 411.5h.01M130.0 404.0h.01M138.5 328.2h.01M169.4 340.9h.01M81.5 153.7h.01M171.9 349.3h.01M96.5 143.3h.01M195.4 239.0h.01M150.4 326.3h.01M187.9 138.0h.01M186.5 367.5h.01M104.9 244.7h.01M60.0 172.3h.01M170.8 388.9h.01M166.3 132.0h.01M177.6 388.7h.01M163.7 336.9h.01M198.6 377.2h.01M172.5 326.7h.01M153.1 344.1h.01M194.9 331.4h.01M163.7 331.8h.01M179.5 139.9h.01M133.8 392.7h.01M92.8 220.4h.01M129.6 379.3h.01M137.8 382.2h.01M149.1 342.4h.01M178.6 345.1h.01M158.5 338.5h.01M90.8 145.6h.01M140.7 416.1h.01M182.0 366.4h.01M147.5 243.4h.01M193.6 367.9h.01M195.3 380.7h.01M148.2 422.8h.01M103.9 248.2h.01M167.3 348.5h.01M201.8 383.9h.01M136.4 407.6h.01M179.5 341.5h.01M192.7 389.7h.01M133.0 410.2h.01M197.3 375.2h.01M201.9 367.1h.01M140.7 372.7h.01M198.1 154.3h.01M146.6 390.1h.01M96.3 217.2h.01M156.6 209.7h.01M206.4 377.6h.01M197.3 366.5h.01M152.0 334.5h.01M203.7 147.7h.01M83.2 234.6h.01M123.7 216.3h.01M147.2 396.1h.01M190.8 327.6h.01M185.3 141.3h.01M143.0 334.8h.01M182.3 339.7h.01M81.7 169.7h.01M128.2 394.1h.01M177.0 348.2h.01M174.1 330.2h.01M130.1 374.3h.01M229.9 224.8h.01M157.3 349.4h.01M150.7 338.9h.01M149.2 375.7h.01M191.4 242.3h.01M172.1 141.6h.01M142.1 390.2h.01M131.8 381.8h.01M171.6 378.0h.01M143.7 397.1h.01M145.5 407.1h.01M180.0 331.0h.01M128.1 387.6h.01M236.6 320.2h.01M159.1 364.1h.01M188.0 148.6h.01M187.8 397.3h.01M144.4 411.4h.01M74.1 174.9h.01M106.3 161.7h.01M157.3 355.5h.01M177.8 360.5h.01M144.4 342.4h.01M139.3 367.7h.01M239.3 154.3h.01M205.7 339.1h.01M170.5 345.9h.01M146.6 326.4h.01M133.3 376.1h.01M100.3 157.1h.01M186.4 171.4h.01M196.5 338.7h.01M186.9 326.1h.01M135.5 419.7h.01M165.2 158.1h.01M113.5 159.0h.01M161.0 211.0h.01M131.9 327.2h.01M178.9 150.5h.01M139.3 400.9h.01M107.7 243.7h.01M186.3 244.4h.01M97.3 160.2h.01M191.1 400.0h.01M186.5 363.1h.01M202.9 390.4h.01M116.0 139.5h.01M184.3 337.7h.01M195.2 242.3h.01M119.9 151.8h.01M123.2 327.3h.01M172.3 361.1h.01M114.9 211.8h.01M173.7 322.8h.01M103.4 145.2h.01M132.0 332.1h.01M176.3 342.9h.01M127.4 391.2h.01M124.9 150.9h.01M191.7 153.0h.01M176.9 168.7h.01M182.1 362.7h.01M190.3 351.6h.01M127.2 376.5h.01M84.9 178.4h.01M174.7 362.9h.01M135.7 366.5h.01M158.2 358.2h.01M177.3 333.3h.01M163.6 353.8h.01M167.8 144.8h.01M179.3 396.9h.01M129.8 370.9h.01M198.1 330.4h.01M131.3 245.4h.01M220.4 232.9h.01M134.7 329.0h.01M81.1 164.9h.01M183.3 400.2h.01M109.5 250.7h.01M115.3 248.5h.01M213.9 166.7h.01M199.8 336.6h.01M217.7 227.9h.01M204.0 174.5h.01M164.9 380.2h.01M121.1 144.9h.01M157.2 331.3h.01M107.6 247.4h.01M273.2 159.4h.01M187.9 152.1h.01M201.8 371.2h.01M216.0 337.3h.01M121.1 213.9h.01M142.7 338.3h.01M248.4 154.6h.01M181.8 241.6h.01M133.6 416.0h.01M145.0 403.0h.01M128.3 400.1h.01M193.4 383.4h.01M100.6 161.4h.01M185.7 341.5h.01M140.7 393.8h.01M131.1 399.4h.01M183.0 151.5h.01M253.7 155.6h.01M128.4 414.5h.01M188.0 349.5h.01M196.5 392.2h.01M169.4 355.1h.01M288.9 162.0h.01M207.4 146.0h.01M134.0 399.5h.01M178.6 355.4h.01M259.0 156.0h.01M196.9 378.6h.01M172.7 353.5h.01M147.5 345.4h.01M189.9 377.4h.01M184.0 326.0h.01M141.2 407.6h.01M163.6 350.4h.01M140.0 384.6h.01M180.6 327.9h.01M114.7 219.6h.01M181.4 169.0h.01M188.2 332.4h.01M194.9 387.2h.01M188.5 324.2h.01M149.2 211.5h.01M130.1 383.8h.01M146.2 336.1h.01M151.4 352.2h.01M98.4 164.6h.01M154.5 325.5h.01M188.2 388.4h.01M133.2 369.1h.01M188.8 338.6h.01M147.4 400.5h.01M92.5 177.5h.01M174.5 334.2h.01M109.1 158.0h.01M190.1 321.6h.01M196.6 342.2h.01M178.7 350.9h.01M175.8 140.2h.01M199.6 237.0h.01M161.5 340.7h.01M172.7 357.5h.01M125.7 159.0h.01M149.0 334.7h.01M185.0 385.0h.01M163.6 325.7h.01M137.2 415.4h.01M190.4 362.6h.01M176.6 325.6h.01M192.2 354.6h.01M188.2 329.1h.01M184.6 328.9h.01M186.0 357.0h.01M155.4 352.4h.01M189.2 342.4h.01M141.4 331.1h.01M153.4 328.5h.01M299.2 289.3h.01M167.8 337.2h.01M134.3 383.5h.01M200.1 392.9h.01M202.4 387.1h.01M178.2 364.9h.01M190.8 357.5h.01M174.4 381.7h.01M197.3 172.9h.01M235.3 153.1h.01M118.3 163.4h.01M190.7 335.5h.01M197.5 383.9h.01M169.2 362.5h.01M194.0 335.5h.01M144.3 379.9h.01M110.5 244.7h.01M136.6 411.6h.01M193.5 365.0h.01M79.0 173.8h.01M211.7 148.7h.01M166.0 361.5h.01M126.3 328.6h.01M139.7 334.5h.01M115.8 254.4h.01M172.2 337.9h.01M140.7 420.8h.01M202.6 323.9h.01M185.0 241.1h.01M268.0 158.0h.01M188.3 393.0h.01M186.4 347.4h.01M172.9 167.9h.01M94.3 146.0h.01M134.2 389.0h.01M144.8 393.4h.01M180.7 353.3h.01M160.5 336.0h.01M203.3 377.7h.01M177.2 329.3h.01M276.7 157.6h.01M137.5 331.5h.01M300.1 167.9h.01M144.8 419.4h.01M212.5 339.2h.01M88.5 151.4h.01M199.5 380.5h.01M154.8 334.1h.01M186.6 381.8h.01M201.7 213.2h.01M171.4 158.3h.01M175.6 336.9h.01M118.6 217.0h.01M209.1 339.4h.01M167.0 344.4h.01M185.5 158.3h.01M131.2 390.7h.01M180.8 377.2h.01M113.4 251.4h.01M144.5 329.5h.01M161.8 375.8h.01M182.8 320.4h.01M163.8 346.6h.01M213.7 406.3h.01M177.2 318.8h.01M169.6 328.0h.01M141.8 399.2h.01M194.9 376.9h.01M131.4 221.0h.01M167.8 156.9h.01M132.9 361.0h.01M148.4 410.2h.01M204.7 373.7h.01M133.6 403.4h.01M93.4 160.5h.01M219.5 153.5h.01M89.0 160.6h.01M135.0 363.5h.01M206.5 388.4h.01M150.5 347.7h.01M186.4 335.4h.01M206.5 381.0h.01M193.3 396.7h.01M137.6 404.3h.01M141.5 403.7h.01M151.3 400.6h.01M140.7 380.2h.01M126.5 244.9h.01M138.2 396.3h.01M80.3 160.3h.01M117.3 160.3h.01M169.9 374.5h.01M219.5 338.5h.01M105.7 165.0h.01M201.7 156.4h.01M196.9 372.9h.01M206.1 408.8h.01M169.6 134.6h.01M166.6 371.8h.01M129.0 327.0h.01M174.8 151.1h.01M153.3 355.7h.01M216.3 223.4h.01M166.9 357.9h.01M134.9 395.5h.01M159.8 352.4h.01M65.6 173.2h.01M147.5 414.3h.01M85.3 154.0h.01M185.9 154.7h.01M176.0 357.0h.01M145.8 211.6h.01M185.0 332.0h.01M171.6 240.8h.01M179.9 348.1h.01M169.6 351.5h.01M169.5 138.0h.01M148.2 169.2h.01M149.0 207.7h.01M118.1 156.5h.01M131.8 413.2h.01M176.1 392.9h.01M144.3 415.6h.01M168.0 154.0h.01M204.9 156.6h.01M187.8 240.4h.01M182.8 373.3h.01M84.5 151.2h.01M178.9 155.6h.01M181.0 386.3h.01M189.7 246.0h.01M196.9 334.6h.01M171.5 154.5h.01M113.4 244.4h.01M156.8 335.5h.01M115.1 215.4h.01M105.6 250.8h.01M160.7 323.9h.01M135.5 379.7h.01M160.4 348.2h.01M132.9 378.9h.01M280.6 157.5h.01M90.1 164.7h.01M203.1 381.2h.01M137.4 391.1h.01M152.7 209.7h.01M111.7 247.7h.01M177.8 240.5h.01M203.9 336.7h.01M282.5 160.7h.01M166.1 355.1h.01M194.7 327.9h.01M142.6 384.8h.01M192.3 393.3h.01M201.0 377.2h.01M192.7 324.5h.01M178.9 173.0h.01M166.8 387.4h.01M135.7 386.2h.01M107.2 144.5h.01M194.5 370.8h.01M212.8 220.6h.01M92.2 156.6h.01M200.4 374.1h.01M182.3 155.5h.01M150.9 330.6h.01M183.6 354.5h.01M165.7 137.0h.01M182.4 343.6h.01M184.3 350.1h.01M172.6 342.4h.01M154.1 331.1h.01M145.7 332.7h.01M141.7 376.4h.01M173.4 133.7h.01M210.0 407.8h.01M189.7 366.3h.01M116.1 147.4h.01M160.8 328.8h.01M136.7 400.1h.01M184.0 359.8h.01M182.8 334.5h.01M176.2 352.8h.01"/>
</svg>