<svg xmlns="http://www.w3.org/2000/svg" viewBox="0 0 360 432" role="img">
<path stroke="#1a1a1a" stroke-width="1.79" stroke-linecap="round" fill="none" d="M307.3 391.9h.01M268.8 359.5h.01M180.2 54.7h.01M0.4 155.4h.01M211.7 210.1h.01M210.9 217.1h.01M241.0 210.6h.01M214.1 129.9h.01M223.4 132.4h.01M247.8 234.6h.01M262.7 362.4h.01M164.4 58.1h.01M227.4 234.4h.01M298.9 229.2h.01M255.6 364.0h.01M185.1 78.1h.01M320.1 376.1h.01M293.3 194.3h.01M201.5 70.8h.01M189.3 215.1h.01M207.8 113.1h.01M184.7 210.3h.01M201.1 199.9h.01M301.2 348.9h.01M215.7 99.9h.01M199.1 96.4h.01M239.1 371.7h.01M174.9 106.8h.01M250.0 393.7h.01M209.3 428.5h.01M179.4 72.5h.01M222.9 428.6h.01M317.8 381.8h.01M288.0 410.2h.01M173.1 94.6h.01M199.3 134.2h.01M294.4 235.9h.01M305.8 229.5h.01M297.9 401.5h.01M209.2 295.0h.01M274.9 369.2h.01M235.9 222.9h.01M176.5 222.8h.01M247.3 214.0h.01M271.5 386.1h.01M334.1 358.2h.01M358.6 116.0h.01M225.1 140.2h.01M248.5 387.9h.01M267.0 328.6h.01M207.2 98.9h.01M184.5 146.8h.01M178.2 119.1h.01M255.7 375.3h.01M291.0 177.8h.01M198.8 87.8h.01M209.1 84.4h.01M210.6 288.8h.01M218.3 145.4h.01M217.2 87.1h.01M181.2 205.7h.01M198.6 56.5h.01M217.1 137.5h.01M231.6 419.9h.01M193.6 117.7h.01M249.9 404.5h.01M229.2 225.0h.01M199.6 224.9h.01M297.0 244.5h.01M268.8 423.0h.01M181.4 199.0h.01M242.1 197.3h.01M306.7 196.7h.01M186.8 68.7h.01M205.8 127.6h.01M244.7 399.9h.01M157.1 58.3h.01M257.7 382.6h.01M246.8 192.1h.01M167.0 45.4h.01M261.2 390.3h.01M169.5 86.7h.01M231.5 411.8h.01M225.4 148.4h.01M240.6 382.0h.01M191.1 126.3h.01M178.4 126.2h.01M252.2 219.4h.01M275.1 363.2h.01M193.3 143.8h.01M289.9 243.6h.01M227.3 99.5h.01M251.4 371.1h.01M234.6 214.6h.01M311.9 386.6h.01M301.9 237.5h.01M274.2 380.9h.01M208.2 106.2h.01M278.6 416.1h.01M177.7 99.8h.01M242.7 227.5h.01M174.8 197.6h.01M201.2 79.7h.01M271.5 374.4h.01M216.3 107.1h.01M196.2 217.7h.01M199.6 48.4h.01M207.9 136.8h.01M270.9 353.5h.01M197.9 207.7h.01M183.9 131.0h.01M166.0 94.8h.01M201.3 249.3h.01M227.4 217.3h.01M173.0 216.3h.01M232.6 206.6h.01M205.3 90.8h.01M254.5 387.8h.01M172.5 114.7h.01M200.6 298.0h.01M226.2 209.6h.01M95.9 425.1h.01M272.2 320.4h.01M210.3 144.6h.01M245.2 375.7h.01M234.3 231.2h.01M245.0 407.4h.01M180.2 192.2h.01M222.9 422.1h.01M171.8 129.3h.01M261.7 377.3h.01M263.3 425.2h.01M193.5 73.2h.01M297.9 174.3h.01M83.4 418.3h.01M277.9 331.9h.01M222.7 103.6h.01M212.2 121.4h.01M308.1 203.5h.01M273.9 419.7h.01M228.9 92.5h.01M191.1 90.6h.01M262.8 354.0h.01M311.5 214.3h.01M259.8 369.4h.01M183.6 95.6h.01M181.8 216.5h.01M213.9 223.1h.01M176.5 210.8h.01M191.4 134.7h.01M101.4 335.3h.01M172.3 141.8h.01M184.1 104.7h.01M224.6 229.4h.01M205.9 245.4h.01M180.0 112.1h.01M243.0 219.8h.01M224.2 85.5h.01M175.2 46.6h.01M193.8 199.8h.01M248.6 205.1h.01M233.6 405.8h.01M187.9 221.2h.01M201.4 143.3h.01M267.4 390.3h.01M192.6 328.8h.01M282.8 412.6h.01M277.4 356.5h.01M313.1 184.1h.01M187.6 202.4h.01M242.9 393.9h.01M268.3 366.9h.01M239.2 410.7h.01M192.4 107.0h.01M211.9 246.7h.01M295.0 350.8h.01M301.8 395.9h.01M226.3 416.3h.01M232.8 115.1h.01M234.1 199.5h.01M169.2 102.1h.01M205.8 206.0h.01M191.4 99.0h.01M207.7 252.0h.01M88.1 0.4h.01M215.9 428.1h.01M181.0 172.7h.01M199.8 104.5h.01M176.3 80.4h.01M89.9 422.4h.01M219.9 125.2h.01M249.1 198.2h.01M268.2 379.6h.01M173.7 171.9h.01M169.1 135.5h.01M299.7 201.1h.01M304.6 210.5h.01M177.6 136.8h.01M219.3 215.7h.01M237.3 151.9h.01M178.9 64.6h.01M221.5 222.6h.01M263.9 335.2h.01M192.6 81.8h.01M240.2 203.2h.01M302.9 219.5h.01M230.1 427.9h.01M173.0 58.3h.01M293.2 405.7h.01M277.6 375.1h.01M295.6 167.1h.01M238.7 416.8h.01M231.6 239.0h.01M173.5 178.8h.01M300.4 192.4h.01M325.1 371.8h.01M254.0 211.2h.01M246.4 382.3h.01M286.9 365.4h.01M242.0 387.6h.01M102.1 428.2h.01M183.3 226.5h.01M76.4 413.3h.01M170.2 64.8h.01M248.0 412.5h.01M260.8 341.6h.01M313.9 207.0h.01M0.4 114.3h.01M175.0 204.0h.01M170.5 121.8h.01M167.5 110.1h.01M198.4 124.7h.01M202.6 213.6h.01M288.1 227.8h.01M213.0 92.8h.01M314.3 198.3h.01M185.0 139.9h.01M240.0 404.3h.01M264.2 384.2h.01M215.2 113.4h.01M336.8 351.9h.01M250.0 226.4h.01M203.8 119.1h.01M286.3 236.3h.01M289.8 218.2h.01M295.3 222.3h.01M199.2 112.3h.01M251.4 380.0h.01M177.6 185.1h.01M221.6 94.1h.01M241.5 234.5h.01M181.6 180.6h.01M217.7 71.5h.01M177.2 88.6h.01M281.6 368.8h.01M217.3 79.5h.01M237.8 423.8h.01M184.2 86.5h.01M205.5 239.4h.01M0.4 279.7h.01M209.3 76.0h.01M187.5 112.6h.01M270.7 346.7h.01M191.8 208.6h.01M191.6 44.6h.01M256.2 199.5h.01M185.6 120.5h.01M338.4 337.1h.01M183.9 46.7h.01M358.6 282.0h.01M302.8 167.8h.01M194.4 231.4h.01M309.4 222.3h.01M220.0 118.1h.01M213.5 46.5h.01M277.2 0.4h.01M202.5 291.8h.01M219.0 209.1h.01M0.4 235.1h.01M250.5 398.9h.01M172.3 71.8h.01M187.2 60.6h.01M255.7 401.9h.01M107.9 387.0h.01M265.6 372.5h.01M281.5 351.2h.01M329.3 365.2h.01M358.6 160.8h.01M191.9 225.6h.01M191.1 53.0h.01M169.4 52.3h.01M358.6 240.7h.01M232.6 146.8h.01M257.0 395.0h.01"/>
<path stroke="#1a1a1a" stroke-width="2.16" stroke-linecap="round" fill="none" d="M160.4 42.7h.01M282.3 243.4h.01M248.0 279.9h.01M238.0 77.0h.01M241.9 267.4h.01M154.8 39.3h.01M266.1 272.5h.01M188.1 297.8h.01M154.6 133.3h.01M161.5 108.5h.01M272.3 413.8h.01M207.4 225.5h.01M243.6 75.0h.01M255.6 247.0h.01M163.0 64.3h.01M305.0 385.8h.01M146.7 40.6h.01M306.0 342.1h.01M237.0 392.3h.01M234.8 387.2h.01M187.1 265.5h.01M268.9 159.3h.01M237.5 399.1h.01M222.7 301.6h.01M142.4 62.1h.01M72.2 153.9h.01M154.6 77.2h.01M72.2 138.2h.01M266.8 322.7h.01M249.6 364.5h.01M276.9 315.3h.01M174.5 152.1h.01M263.9 76.4h.01M168.4 195.7h.01M238.3 377.2h.01M281.5 362.2h.01M250.0 154.6h.01M208.5 306.1h.01M261.4 194.6h.01M254.0 143.2h.01M200.7 314.2h.01M205.2 319.1h.01M253.9 104.7h.01M74.2 125.0h.01M252.5 122.2h.01M257.6 148.8h.01M177.7 145.6h.01M261.0 160.5h.01M184.7 187.7h.01M234.7 244.4h.01M237.2 171.9h.01M257.2 224.3h.01M193.9 321.9h.01M209.3 414.1h.01M207.0 263.4h.01M168.4 78.4h.01M237.2 192.9h.01M244.4 141.7h.01M282.7 294.6h.01M194.4 265.9h.01M211.0 60.4h.01M254.2 77.2h.01M212.5 261.0h.01M83.7 413.1h.01M217.5 249.4h.01M252.9 174.3h.01M244.0 128.8h.01M258.0 254.5h.01M246.9 63.4h.01M153.2 139.9h.01M290.9 249.6h.01M145.1 54.7h.01M240.9 245.0h.01M142.1 142.2h.01M155.2 153.0h.01M267.1 228.0h.01M146.1 138.4h.01M253.9 408.8h.01M193.7 295.7h.01M177.1 230.3h.01M156.9 127.5h.01M166.2 224.1h.01M129.0 0.4h.01M141.8 132.9h.01M184.4 329.1h.01M245.7 69.3h.01M153.8 70.3h.01M185.3 159.1h.01M230.2 193.5h.01M358.6 201.5h.01M293.1 343.4h.01M234.9 263.2h.01M151.2 44.5h.01M249.6 138.7h.01M251.3 286.2h.01M263.5 208.5h.01M158.4 113.6h.01M237.0 108.7h.01M159.4 144.2h.01M276.4 346.5h.01M257.1 126.8h.01M215.7 420.8h.01M266.7 129.8h.01M150.7 127.3h.01M214.4 203.1h.01M222.5 388.4h.01M337.1 344.8h.01M197.5 333.7h.01M216.7 395.1h.01M119.6 428.8h.01M202.4 428.9h.01M265.7 215.4h.01M200.8 236.9h.01M285.3 182.1h.01M188.8 151.2h.01M204.8 310.4h.01M220.8 202.6h.01M207.2 408.6h.01M224.7 76.9h.01M169.3 38.3h.01M250.1 73.4h.01M244.8 98.0h.01M257.7 100.2h.01M225.3 68.4h.01M195.7 152.2h.01M161.3 51.3h.01M197.7 308.7h.01M249.0 108.5h.01M170.8 165.2h.01M210.0 68.0h.01M220.3 297.1h.01M252.4 91.4h.01M170.3 332.9h.01M308.0 171.6h.01M251.6 257.5h.01M196.6 289.7h.01M261.9 260.5h.01M127.1 50.8h.01M194.6 63.9h.01M218.1 258.7h.01M234.4 381.9h.01M245.7 417.5h.01M241.4 158.1h.01M72.2 159.0h.01M157.9 121.4h.01M141.0 50.7h.01M310.9 177.5h.01M252.9 161.2h.01M282.0 222.5h.01M233.4 124.0h.01M105.9 424.7h.01M159.5 70.3h.01M151.0 57.1h.01M231.6 139.9h.01M172.2 159.1h.01M183.0 38.4h.01M256.0 111.2h.01M203.9 336.1h.01M225.2 408.4h.01M258.0 205.5h.01M230.0 107.5h.01M182.9 295.2h.01M242.5 88.5h.01M271.6 215.3h.01M220.6 289.7h.01M183.0 335.0h.01M263.0 249.6h.01M109.7 377.5h.01M177.6 263.7h.01M220.1 254.0h.01M258.3 171.6h.01M223.0 395.1h.01M159.8 136.9h.01M155.6 102.3h.01M169.0 0.4h.01M90.1 416.8h.01M246.0 123.2h.01M111.1 428.6h.01M282.8 285.9h.01M264.4 200.8h.01M261.6 123.0h.01M178.4 294.8h.01M144.6 79.9h.01M231.5 79.2h.01M209.1 337.4h.01M152.2 97.8h.01M214.3 413.9h.01M146.4 60.3h.01M245.1 183.0h.01M282.9 316.9h.01M269.8 314.4h.01M257.9 348.7h.01M169.5 209.0h.01M194.8 302.5h.01M223.4 401.9h.01M227.0 52.2h.01M192.5 260.2h.01M227.1 118.1h.01M297.5 336.7h.01M209.8 420.5h.01M276.4 302.8h.01M265.7 189.5h.01M225.4 163.8h.01M241.2 363.9h.01M273.8 308.9h.01M240.3 146.0h.01M193.8 191.3h.01M207.2 324.2h.01M263.5 136.6h.01M274.0 327.2h.01M268.0 152.6h.01M306.1 190.7h.01M266.6 165.0h.01M246.2 157.1h.01M254.0 275.2h.01M237.5 139.5h.01M262.3 154.6h.01M214.2 314.6h.01M154.0 51.9h.01M212.7 256.3h.01M218.3 228.9h.01M189.5 184.1h.01M219.8 306.4h.01M190.0 38.0h.01M269.8 221.7h.01M243.3 111.9h.01M241.6 63.5h.01M249.3 250.6h.01M260.3 131.3h.01M199.8 325.5h.01M269.7 183.4h.01M175.9 38.2h.01M144.9 46.0h.01M229.1 392.2h.01M220.2 166.8h.01M228.5 386.6h.01M165.0 140.8h.01M150.5 88.7h.01M238.0 238.9h.01M263.1 243.2h.01M302.9 336.6h.01M256.0 118.1h.01M63.4 224.3h.01M235.1 269.9h.01M176.9 333.4h.01M282.9 336.1h.01M233.5 99.8h.01M255.6 262.7h.01M148.3 50.6h.01M255.7 87.1h.01M167.4 154.0h.01M251.5 350.8h.01M218.1 63.7h.01M166.6 214.3h.01M253.1 82.4h.01M257.4 137.9h.01M232.7 375.3h.01M181.3 153.2h.01M294.2 332.2h.01M166.3 229.5h.01M147.1 145.1h.01M328.2 359.5h.01M247.1 292.1h.01M223.7 111.3h.01M165.5 71.5h.01M225.4 240.0h.01M220.9 48.3h.01M290.2 210.8h.01M169.6 201.8h.01M187.9 323.7h.01M257.6 187.1h.01M132.1 46.7h.01M250.1 186.9h.01M237.5 131.1h.01M265.0 170.9h.01M220.7 414.7h.01M260.8 107.1h.01M251.1 358.0h.01M259.3 215.6h.01M283.0 269.6h.01M252.9 269.1h.01M289.0 337.7h.01M162.8 82.7h.01M283.9 329.9h.01M231.5 165.0h.01M209.7 234.3h.01M255.2 281.0h.01M234.7 188.1h.01M289.7 328.7h.01M162.0 102.1h.01M202.1 304.3h.01M212.1 310.1h.01M238.6 69.6h.01M282.9 277.6h.01M289.7 169.8h.01M247.6 133.3h.01M262.6 177.2h.01M245.0 361.1h.01M232.1 396.6h.01M199.1 242.8h.01M166.9 169.6h.01M190.3 249.2h.01M224.9 188.4h.01M245.6 257.5h.01M225.4 60.2h.01M156.5 64.4h.01M286.6 189.3h.01M271.6 170.0h.01M239.9 94.5h.01M283.1 343.0h.01M216.1 329.7h.01M292.0 358.8h.01M240.9 272.7h.01M208.0 300.7h.01M177.1 327.9h.01M268.7 137.8h.01M268.1 122.7h.01M237.5 429.2h.01M160.6 76.9h.01M187.5 194.5h.01M198.2 40.3h.01M285.2 357.9h.01M199.2 319.5h.01M285.0 323.6h.01M205.0 231.1h.01M245.8 117.8h.01M264.3 346.8h.01M179.2 159.2h.01M299.7 343.1h.01M68.6 185.2h.01M214.5 305.3h.01M164.2 116.8h.01M150.7 64.0h.01M288.5 352.9h.01M271.3 334.0h.01M238.7 256.1h.01M184.0 282.4h.01M313.1 380.1h.01M199.8 261.6h.01M269.8 208.1h.01M257.4 180.0h.01M282.2 214.6h.01M227.3 201.2h.01M205.9 424.4h.01M252.9 425.7h.01M287.6 346.9h.01M241.4 261.8h.01M188.4 254.7h.01M156.0 84.5h.01M248.2 146.2h.01M248.8 86.3h.01M203.2 419.9h.01M167.2 175.0h.01M218.1 408.5h.01M156.4 46.7h.01M201.3 255.5h.01M292.6 184.8h.01M257.8 427.5h.01M239.2 117.3h.01M190.0 335.6h.01M251.9 97.7h.01M246.4 170.6h.01M211.4 327.8h.01M186.7 231.9h.01M225.5 306.5h.01M263.4 183.7h.01M196.1 249.1h.01M163.3 131.0h.01M259.9 268.8h.01M253.8 133.7h.01M207.4 53.5h.01M161.1 150.2h.01M159.1 96.3h.01M163.8 124.3h.01M232.8 64.3h.01M256.2 155.9h.01M249.2 428.6h.01M242.4 135.6h.01M167.5 218.9h.01M251.3 180.9h.01M235.4 278.4h.01M258.4 165.6h.01M296.5 214.4h.01M138.2 138.7h.01M231.9 71.8h.01M187.3 178.1h.01M200.4 339.7h.01M217.6 402.0h.01M203.8 330.1h.01M266.5 235.3h.01M246.9 176.3h.01M229.3 380.2h.01M276.5 339.3h.01M236.8 367.0h.01M196.9 428.8h.01M282.6 302.6h.01M203.1 62.4h.01M291.3 399.9h.01M207.0 0.4h.01M241.5 174.1h.01M251.7 167.8h.01M218.1 162.3h.01M254.2 192.7h.01M169.4 184.1h.01M252.4 150.0h.01M215.4 323.0h.01M269.4 194.6h.01M282.1 406.5h.01M247.0 92.7h.01M242.4 250.9h.01M263.7 148.5h.01M260.7 230.6h.01M263.2 222.3h.01M243.7 81.9h.01M148.7 133.5h.01M214.7 252.3h.01M61.0 195.9h.01M162.7 37.4h.01M72.3 166.0h.01M246.8 243.0h.01M295.6 396.2h.01M268.8 81.9h.01M173.0 192.8h.01M171.8 228.5h.01M232.9 56.1h.01M226.9 125.4h.01M301.5 389.6h.01M322.6 367.0h.01M202.7 267.4h.01M204.8 414.8h.01M245.1 285.9h.01M247.8 102.6h.01M72.3 177.3h.01M281.6 309.8h.01M268.3 340.2h.01M215.8 293.2h.01M161.5 89.2h.01M208.9 332.9h.01M212.3 229.4h.01M261.6 142.7h.01M230.9 85.7h.01M287.7 404.8h.01M215.3 285.5h.01M208.5 314.7h.01M195.0 255.0h.01M244.9 369.1h.01M206.3 43.3h.01M239.1 101.0h.01M270.6 201.1h.01M157.7 159.8h.01M204.1 220.3h.01M211.1 240.3h.01M88.2 85.2h.01M237.6 84.2h.01M202.4 151.1h.01M214.9 299.8h.01M186.9 259.8h.01M241.8 179.3h.01M244.1 151.2h.01M220.5 234.4h.01M281.3 207.7h.01M251.0 128.2h.01M223.0 258.9h.01M139.0 44.2h.01M235.5 91.2h.01M206.4 257.9h.01M150.0 82.2h.01M235.2 250.5h.01M242.7 105.5h.01M278.6 322.7h.01M211.8 400.3h.01M229.3 401.7h.01M173.1 188.0h.01M261.5 115.7h.01M212.1 406.5h.01M259.5 238.1h.01M217.4 55.2h.01M239.5 123.9h.01M268.5 176.8h.01M313.0 191.4h.01M250.3 114.4h.01M254.4 232.6h.01M177.6 165.2h.01M229.4 246.0h.01M200.0 231.9h.01M228.1 169.7h.01M0.4 194.6h.01M246.9 162.8h.01M232.9 170.5h.01M231.1 132.8h.01M171.2 222.7h.01M252.7 240.4h.01M256.9 356.5h.01M248.5 79.0h.01M295.7 206.9h.01M269.8 242.3h.01M218.0 317.5h.01M243.0 0.4h.01M167.5 147.3h.01M154.9 92.1h.01M153.1 147.2h.01M224.3 382.4h.01"/>
<path stroke="#1a1a1a" stroke-width="2.59" stroke-linecap="round" fill="none" d="M176.9 301.8h.01M243.5 428.3h.01M117.0 425.2h.01M169.7 297.9h.01M268.6 260.8h.01M273.3 105.1h.01M140.2 89.5h.01M184.0 319.3h.01M279.4 130.1h.01M76.0 156.9h.01M278.5 148.6h.01M217.5 387.4h.01M224.3 311.6h.01M129.6 214.7h.01M272.1 275.6h.01M148.9 70.1h.01M197.5 417.7h.01M254.6 315.7h.01M262.0 400.7h.01M254.5 307.4h.01M61.2 204.7h.01M101.1 420.9h.01M181.2 234.5h.01M66.8 232.2h.01M264.1 92.6h.01M89.0 412.3h.01M165.1 205.4h.01M276.4 296.6h.01M142.3 149.1h.01M271.6 87.6h.01M148.8 116.5h.01M265.8 396.5h.01M141.7 69.7h.01M116.1 57.5h.01M167.2 189.6h.01M246.0 298.2h.01M225.2 287.1h.01M74.5 162.2h.01M80.7 408.7h.01M163.0 211.1h.01M189.4 282.6h.01M78.7 129.6h.01M103.5 339.7h.01M232.2 369.9h.01M140.3 119.8h.01M252.5 311.0h.01M208.6 151.5h.01M166.6 338.9h.01M194.7 340.3h.01M231.0 339.0h.01M101.2 71.7h.01M266.6 86.4h.01M135.4 70.7h.01M284.0 150.3h.01M258.6 305.1h.01M134.1 223.1h.01M145.6 127.9h.01M143.8 115.6h.01M195.1 420.7h.01M73.6 251.9h.01M331.0 334.3h.01M158.2 330.1h.01M274.5 141.1h.01M278.9 103.0h.01M126.1 231.4h.01M275.3 92.7h.01M189.6 343.1h.01M149.6 103.6h.01M250.0 302.5h.01M277.2 279.7h.01M262.0 96.9h.01M186.5 291.6h.01M182.7 166.2h.01M313.8 334.9h.01M239.9 283.2h.01M100.8 326.7h.01M245.4 310.6h.01M109.5 369.1h.01M113.9 217.4h.01M130.5 72.3h.01M235.0 286.5h.01M181.2 323.7h.01M246.2 325.3h.01M151.0 429.1h.01M279.9 178.6h.01M135.8 96.4h.01M182.0 260.5h.01M120.9 232.1h.01M223.8 245.3h.01M224.7 333.1h.01M261.6 87.9h.01M184.9 250.0h.01M244.6 304.0h.01M227.3 337.2h.01M264.9 302.1h.01M200.2 414.9h.01M133.4 82.0h.01M161.8 293.8h.01M212.8 162.2h.01M251.4 67.4h.01M177.1 282.9h.01M238.9 58.7h.01M283.4 200.7h.01M230.1 296.2h.01M193.0 244.7h.01M210.6 340.9h.01M237.4 334.4h.01M139.3 99.7h.01M274.2 164.5h.01M132.6 99.3h.01M80.9 120.3h.01M269.8 249.0h.01M129.5 96.9h.01M128.7 76.8h.01M79.2 103.8h.01M220.4 283.4h.01M240.8 307.9h.01M261.3 282.5h.01M247.4 272.6h.01M285.8 139.8h.01M272.9 127.5h.01M225.2 327.5h.01M223.2 170.9h.01M92.7 80.9h.01M80.0 153.3h.01M206.3 402.4h.01M75.7 119.3h.01M229.9 186.0h.01M275.9 246.3h.01M259.4 73.2h.01M163.7 193.7h.01M274.5 176.2h.01M80.7 134.5h.01M220.2 332.4h.01M154.4 107.5h.01M272.3 95.7h.01M145.3 90.6h.01M192.7 277.7h.01M163.9 164.8h.01M164.5 199.6h.01M236.1 308.3h.01M308.1 347.2h.01M234.7 337.1h.01M81.6 98.0h.01M76.1 174.2h.01M283.1 158.6h.01M174.8 297.7h.01M272.1 292.3h.01M222.4 158.5h.01M191.9 308.0h.01M209.4 200.2h.01M135.2 102.3h.01M224.5 273.4h.01M82.4 126.3h.01M324.1 357.2h.01M70.3 244.5h.01M255.4 70.8h.01M255.5 420.6h.01M279.7 235.6h.01M214.1 333.9h.01M195.4 184.8h.01M141.9 111.0h.01M244.0 422.9h.01M74.6 134.5h.01M241.0 332.9h.01M220.1 153.4h.01M91.7 88.4h.01M243.2 317.0h.01M129.5 142.1h.01M166.3 179.9h.01M333.7 339.6h.01M144.3 85.4h.01M239.4 302.3h.01M172.7 266.2h.01M286.2 400.8h.01M151.3 156.4h.01M213.9 338.6h.01M235.6 322.6h.01M202.0 410.6h.01M225.3 281.9h.01M279.1 118.0h.01M203.6 345.3h.01M192.1 429.3h.01M172.4 233.9h.01M224.3 341.2h.01M139.6 428.8h.01M139.3 83.1h.01M249.6 313.6h.01M144.7 100.5h.01M273.8 133.9h.01M262.4 288.8h.01M187.7 303.7h.01M143.3 154.8h.01M217.7 263.4h.01M240.2 313.1h.01M270.1 297.9h.01M140.2 125.8h.01M78.3 261.6h.01M228.1 258.9h.01M83.7 104.3h.01M86.0 408.5h.01M199.8 186.7h.01M186.5 429.5h.01M264.1 81.1h.01M259.3 83.1h.01M223.2 317.0h.01M123.3 228.0h.01M268.2 144.6h.01M229.7 265.1h.01M94.0 412.5h.01M161.6 327.9h.01M86.6 100.9h.01M211.4 319.6h.01M187.0 165.1h.01M312.2 342.7h.01M219.8 326.9h.01M115.0 220.8h.01M277.1 123.6h.01M199.3 423.6h.01M266.6 284.9h.01M242.4 188.1h.01M264.2 312.8h.01M322.6 362.0h.01M225.6 249.5h.01M147.8 151.8h.01M210.5 344.2h.01M223.4 264.1h.01M124.0 213.0h.01M166.1 328.3h.01M144.9 106.4h.01M171.3 262.6h.01M234.4 313.6h.01M272.7 111.7h.01M217.8 245.3h.01M172.4 339.2h.01M183.1 254.6h.01M108.3 364.1h.01M208.5 168.1h.01M218.5 341.4h.01M79.9 148.2h.01M302.1 184.5h.01M138.7 73.8h.01M215.6 241.3h.01M272.3 269.9h.01M160.7 169.1h.01M276.1 158.9h.01M139.6 65.5h.01M280.1 186.9h.01M79.3 178.1h.01M275.0 224.8h.01M288.3 154.8h.01M110.4 60.7h.01M144.2 74.4h.01M137.6 154.1h.01M287.4 146.4h.01M247.2 316.2h.01M229.1 343.1h.01M257.5 287.0h.01M272.5 264.9h.01M276.9 240.8h.01M119.0 214.1h.01M245.2 355.8h.01M243.1 321.8h.01M212.8 266.2h.01M119.8 62.8h.01M132.9 428.4h.01M273.1 230.7h.01M218.6 311.5h.01M280.1 137.1h.01M273.7 189.7h.01M267.8 116.4h.01M231.2 154.1h.01M257.6 93.0h.01M269.0 99.1h.01M308.8 377.0h.01M284.1 168.3h.01M161.8 156.4h.01M127.7 81.2h.01M220.9 242.7h.01M242.1 328.5h.01M275.4 182.9h.01M273.6 117.9h.01M141.0 57.5h.01M73.1 171.1h.01M103.2 392.1h.01M264.1 296.8h.01M149.2 75.2h.01M134.6 120.7h.01M219.5 238.7h.01M277.6 273.0h.01M277.3 290.4h.01M119.0 218.5h.01M141.5 95.0h.01M331.9 348.7h.01M229.3 290.1h.01M220.9 344.3h.01M276.2 211.1h.01M71.6 145.4h.01M77.5 138.3h.01M251.3 333.9h.01M248.9 307.3h.01M253.9 291.6h.01M78.2 169.9h.01M163.6 333.6h.01M240.8 169.1h.01M277.1 218.3h.01M74.2 130.1h.01M288.5 162.3h.01M76.2 152.1h.01M126.6 61.4h.01M138.4 145.4h.01M80.1 157.6h.01M245.7 335.0h.01M81.5 114.3h.01M228.6 315.0h.01M229.8 252.9h.01M256.1 330.9h.01M209.3 269.5h.01M127.9 91.7h.01M182.2 267.7h.01M166.1 160.5h.01M145.4 66.4h.01M140.1 104.7h.01M147.6 110.5h.01M237.0 328.3h.01M280.3 193.6h.01M178.4 339.6h.01M230.6 272.1h.01M78.0 123.7h.01M135.7 132.9h.01M137.9 110.1h.01M229.2 331.8h.01M136.7 149.9h.01M133.0 111.2h.01M166.6 293.3h.01M291.0 395.1h.01M125.9 428.6h.01M329.7 353.6h.01M259.4 318.3h.01M206.0 341.2h.01M266.7 417.4h.01M251.1 325.1h.01M279.6 154.2h.01M135.9 92.1h.01M214.5 152.2h.01M276.1 197.4h.01M219.9 380.8h.01M246.2 330.2h.01M109.4 66.8h.01M189.9 317.4h.01M135.3 50.5h.01M131.4 105.3h.01M277.0 109.5h.01M82.6 108.9h.01M111.2 417.9h.01M124.9 88.6h.01M207.4 345.7h.01M220.4 190.9h.01M98.7 80.7h.01M272.5 257.0h.01M308.1 336.6h.01M281.0 143.6h.01M75.9 145.8h.01M248.8 422.6h.01M318.1 370.4h.01M131.8 92.5h.01M276.5 203.9h.01M259.0 299.5h.01M134.0 76.7h.01M162.6 220.5h.01M134.9 66.1h.01M134.8 126.4h.01M256.5 336.4h.01M307.9 381.4h.01M136.5 60.9h.01M233.7 331.6h.01M235.1 292.4h.01M212.3 168.7h.01M296.8 180.2h.01M277.0 284.9h.01M224.0 268.8h.01M134.0 144.3h.01M296.5 391.4h.01M321.7 332.1h.01M129.1 67.5h.01M239.9 296.4h.01M104.1 66.7h.01M158.6 222.3h.01M121.0 52.5h.01M163.4 298.1h.01M264.4 318.2h.01M214.9 235.2h.01M233.3 304.2h.01M130.5 86.8h.01M278.2 171.0h.01M227.2 321.9h.01M230.5 309.1h.01M199.0 344.6h.01M260.4 275.9h.01M73.3 149.4h.01M232.4 257.9h.01M77.1 114.8h.01M231.9 319.0h.01M160.9 216.5h.01M281.2 107.8h.01M276.4 409.9h.01M85.7 91.0h.01M191.7 163.0h.01M157.5 165.0h.01M224.8 294.6h.01M162.9 428.8h.01M266.4 255.0h.01M124.3 72.3h.01M284.2 174.6h.01M123.8 66.7h.01M165.5 263.9h.01M151.4 121.9h.01M266.9 291.9h.01M86.1 95.7h.01M263.9 101.8h.01M154.2 117.4h.01M238.3 318.5h.01M104.1 343.7h.01M256.1 321.3h.01M182.5 278.1h.01M78.5 162.0h.01M225.5 345.2h.01M115.2 421.2h.01M242.2 277.9h.01M135.5 106.7h.01M280.4 249.6h.01M191.0 157.2h.01M266.0 110.8h.01M261.3 324.4h.01M136.3 55.7h.01M236.1 157.3h.01M230.3 283.4h.01M224.3 376.6h.01M147.6 95.5h.01M203.8 166.1h.01M123.1 57.5h.01M171.4 303.4h.01M248.0 264.5h.01M253.9 342.4h.01M267.8 308.2h.01M277.9 266.4h.01M234.7 298.9h.01M181.5 428.5h.01M241.0 338.2h.01M205.8 285.7h.01M171.3 326.3h.01M137.4 115.3h.01M125.3 223.4h.01M271.7 281.0h.01M76.8 166.2h.01M253.0 296.7h.01M229.5 277.6h.01M199.9 192.7h.01M231.4 326.0h.01M118.6 227.6h.01M120.1 223.0h.01M221.8 322.2h.01M259.4 293.6h.01M269.1 92.3h.01M74.1 141.9h.01M215.8 279.9h.01M129.5 226.7h.01M130.2 56.0h.01M266.0 266.3h.01M280.1 229.4h.01M240.3 324.5h.01M256.1 326.1h.01M283.8 120.4h.01M156.3 429.3h.01M225.3 253.8h.01M145.6 121.7h.01M213.8 390.5h.01M280.4 164.0h.01M96.8 75.5h.01M205.4 195.9h.01M262.6 307.4h.01M221.9 337.6h.01M161.8 226.3h.01M271.6 286.7h.01M92.7 94.6h.01M124.2 218.0h.01M110.5 423.0h.01M217.8 337.0h.01M273.0 236.4h.01M152.5 112.1h.01M227.7 373.0h.01M184.8 340.9h.01M251.6 319.6h.01M247.4 320.8h.01M168.0 429.5h.01M115.1 224.3h.01M251.0 329.5h.01M313.9 374.9h.01M186.5 171.6h.01M131.5 62.2h.01M273.2 147.4h.01M260.7 330.3h.01M182.3 301.3h.01M135.8 86.9h.01M193.5 424.4h.01M276.7 260.6h.01M169.7 283.3h.01M240.6 290.1h.01M259.0 78.0h.01M267.9 105.5h.01M270.8 303.3h.01M134.5 217.5h.01M236.9 166.2h.01M228.3 301.5h.01M97.3 85.9h.01M273.4 153.8h.01M260.8 419.4h.01M275.4 252.7h.01M258.7 312.2h.01M79.1 142.5h.01M139.3 78.1h.01M266.2 278.4h.01M194.0 313.8h.01M100.8 322.5h.01M133.2 138.8h.01M283.6 375.0h.01M95.7 418.5h.01M129.5 220.2h.01"/>
<path stroke="#1a1a1a" stroke-width="3.04" stroke-linecap="round" fill="none" d="M190.3 168.2h.01M84.7 185.7h.01M186.7 238.5h.01M93.3 140.2h.01M118.5 75.0h.01M161.1 266.3h.01M91.2 173.5h.01M90.1 157.9h.01M308.9 372.6h.01M118.8 137.3h.01M93.8 180.3h.01M243.5 346.9h.01M144.9 207.2h.01M99.1 239.5h.01M107.6 226.1h.01M151.9 321.9h.01M184.9 347.5h.01M95.5 122.4h.01M98.1 233.8h.01M115.0 270.0h.01M170.2 290.8h.01M150.1 327.9h.01M113.7 206.2h.01M82.6 166.0h.01M97.9 209.4h.01M132.1 149.4h.01M201.4 285.4h.01M61.7 200.5h.01M110.7 178.3h.01M104.9 348.5h.01M113.2 174.5h.01M152.2 225.0h.01M113.6 83.9h.01M95.5 117.0h.01M321.4 354.6h.01M226.6 174.0h.01M175.0 290.8h.01M276.1 404.8h.01M113.1 414.1h.01M87.6 127.5h.01M118.6 108.0h.01M234.4 342.3h.01M230.3 175.2h.01M87.9 220.9h.01M86.4 174.4h.01M193.8 179.9h.01M165.8 302.3h.01M71.1 214.8h.01M147.6 324.6h.01M89.6 212.2h.01M123.6 93.1h.01M132.1 153.3h.01M218.7 347.9h.01M93.2 222.3h.01M187.8 309.4h.01M92.7 215.7h.01M87.9 233.6h.01M321.6 350.6h.01M145.4 428.7h.01M120.0 123.0h.01M95.6 106.7h.01M114.3 156.1h.01M111.6 93.7h.01M84.4 192.7h.01M85.1 122.5h.01M122.5 150.5h.01M125.2 147.8h.01M149.3 165.1h.01M82.0 196.7h.01M141.3 292.9h.01M102.9 415.6h.01M74.1 183.6h.01M175.7 322.8h.01M87.0 162.1h.01M89.0 271.4h.01M174.5 344.7h.01M90.5 277.7h.01M85.2 157.0h.01M180.3 345.2h.01M215.7 351.0h.01M250.5 338.6h.01M63.5 219.4h.01M302.9 380.9h.01M88.0 188.0h.01M107.9 207.4h.01M93.9 152.7h.01M98.6 214.1h.01M146.7 194.9h.01M120.6 89.0h.01M166.5 267.8h.01M253.5 414.4h.01M82.0 188.8h.01M108.0 97.4h.01M119.3 236.1h.01M83.5 176.8h.01M125.9 240.2h.01M89.4 131.7h.01M120.1 128.3h.01M127.2 150.8h.01M146.5 299.7h.01M116.0 232.1h.01M84.4 117.9h.01M160.6 203.0h.01M88.3 265.6h.01M219.1 351.4h.01M148.3 191.0h.01M81.5 184.5h.01M90.8 177.8h.01M117.9 100.9h.01M96.1 218.7h.01M70.8 221.0h.01M117.6 417.4h.01M168.8 345.1h.01M200.2 162.1h.01M87.3 180.4h.01M121.9 145.6h.01M89.8 402.2h.01M137.2 285.1h.01M293.3 388.5h.01M143.6 212.2h.01M270.5 407.3h.01M210.7 194.4h.01M240.0 348.5h.01M144.9 224.9h.01M233.2 182.8h.01M223.7 277.7h.01M128.7 237.1h.01M205.5 191.0h.01M118.7 84.9h.01M195.9 160.1h.01M135.8 287.9h.01M86.1 225.7h.01M67.7 227.4h.01M144.4 295.3h.01M93.4 134.7h.01M284.0 126.4h.01M91.2 283.4h.01M129.5 136.3h.01M103.2 242.6h.01M182.5 239.7h.01M139.0 220.2h.01M97.1 131.0h.01M163.2 323.4h.01M156.9 209.9h.01M107.5 72.5h.01M132.0 285.0h.01M304.3 175.7h.01M193.9 414.6h.01M216.5 157.7h.01M167.4 425.1h.01M122.2 172.3h.01M128.0 112.8h.01M285.2 133.1h.01M142.0 203.3h.01M122.6 112.1h.01M76.1 178.2h.01M120.5 285.5h.01M114.5 144.8h.01M111.3 226.0h.01M215.6 382.5h.01M103.6 77.8h.01M168.0 234.8h.01M92.1 122.7h.01M114.5 228.5h.01M144.0 160.5h.01M284.8 249.5h.01M188.3 270.8h.01M151.3 217.6h.01M165.5 315.1h.01M99.9 395.4h.01M152.6 294.0h.01M156.0 217.9h.01M139.4 208.1h.01M115.9 96.1h.01M161.7 177.5h.01M281.5 113.5h.01M160.4 320.8h.01M267.3 411.5h.01M132.4 421.1h.01M157.3 233.9h.01M171.5 321.1h.01M219.0 172.3h.01M128.6 108.0h.01M125.0 104.2h.01M138.3 290.7h.01M119.9 115.2h.01M116.4 274.2h.01M103.2 237.9h.01M83.6 221.4h.01M134.2 280.9h.01M80.7 174.1h.01M330.3 343.3h.01M110.6 230.9h.01M99.8 248.7h.01M238.4 184.1h.01M129.7 195.8h.01M153.9 331.6h.01M91.2 408.4h.01M118.4 69.5h.01M148.4 296.0h.01M91.7 147.1h.01M215.6 192.2h.01M92.9 185.3h.01M116.2 89.3h.01M132.8 289.8h.01M133.9 246.1h.01M190.7 288.4h.01M112.2 89.2h.01M225.7 154.6h.01M209.2 275.6h.01M85.3 238.2h.01M110.9 410.5h.01M157.1 226.7h.01M118.7 93.0h.01M281.1 255.6h.01M153.9 424.8h.01M154.6 337.2h.01M286.4 394.3h.01M235.2 175.6h.01M262.6 413.0h.01M246.5 340.3h.01M132.1 208.0h.01M113.8 149.8h.01M209.6 390.2h.01M156.4 322.0h.01M101.4 107.7h.01M282.2 261.3h.01M135.4 204.3h.01M160.6 338.7h.01M160.4 230.8h.01M91.5 209.0h.01M126.8 171.6h.01M126.0 132.9h.01M103.3 205.8h.01M107.9 241.1h.01M100.8 313.1h.01M98.3 414.4h.01M154.2 301.7h.01M88.8 106.1h.01M106.3 90.4h.01M135.2 177.0h.01M117.8 244.8h.01M243.3 165.9h.01M173.0 316.9h.01M88.7 123.2h.01M79.6 206.9h.01M130.9 130.3h.01M191.0 235.9h.01M125.4 128.2h.01M313.8 366.7h.01M105.8 221.8h.01M114.7 65.1h.01M153.0 167.1h.01M186.1 314.2h.01M139.6 224.8h.01M232.3 346.7h.01M106.9 106.7h.01M125.7 250.0h.01M215.5 197.5h.01M190.2 421.5h.01M92.1 163.3h.01M101.1 221.9h.01M95.6 100.4h.01M98.2 112.0h.01M77.8 109.7h.01M189.0 425.8h.01M99.2 97.0h.01M117.7 111.4h.01M89.0 152.5h.01M126.8 175.4h.01M222.8 347.8h.01M154.2 221.8h.01M121.6 239.9h.01M302.3 355.4h.01M172.6 428.1h.01M161.8 189.1h.01M93.5 205.8h.01M123.4 154.4h.01M84.2 131.4h.01M120.9 96.9h.01M116.1 209.9h.01M116.4 153.6h.01M128.2 101.7h.01M127.4 154.4h.01M106.2 230.8h.01M61.9 211.0h.01M198.8 271.0h.01M74.6 180.8h.01M87.8 198.2h.01M96.9 252.9h.01M139.4 214.8h.01M85.9 404.8h.01M160.6 197.4h.01M80.4 201.9h.01M107.9 267.7h.01M236.1 347.8h.01M131.4 178.2h.01M177.8 318.5h.01M201.3 349.0h.01M178.6 310.5h.01M107.9 203.7h.01M213.1 345.1h.01M117.8 174.1h.01M127.7 210.1h.01M112.5 240.0h.01M123.2 77.3h.01M135.0 158.4h.01M219.9 271.5h.01M120.9 209.7h.01M146.0 230.2h.01M96.0 167.9h.01M70.1 239.9h.01M130.9 156.6h.01M214.6 342.2h.01M131.8 173.1h.01M110.5 271.7h.01M205.0 170.4h.01M102.4 213.8h.01M158.6 325.2h.01M163.5 233.5h.01M200.2 156.6h.01M168.0 318.3h.01M84.9 230.2h.01M290.1 391.5h.01M82.7 161.2h.01M236.8 361.6h.01M161.2 302.7h.01M115.2 104.7h.01M284.1 398.0h.01M148.8 424.5h.01M88.2 109.6h.01M172.2 278.4h.01M133.6 194.1h.01M216.4 187.4h.01M78.3 183.4h.01M233.7 160.9h.01M196.2 236.5h.01M129.1 247.6h.01M84.7 201.7h.01M183.9 272.6h.01M114.9 113.9h.01M260.0 405.7h.01M238.0 179.3h.01M89.0 204.3h.01M134.8 228.2h.01M85.2 207.7h.01M103.2 233.7h.01M82.4 180.7h.01M325.6 351.2h.01M92.6 399.7h.01M175.8 268.6h.01M211.5 350.8h.01M205.5 186.1h.01M313.1 370.4h.01M143.4 219.4h.01M124.1 124.0h.01M88.5 142.4h.01M63.8 191.4h.01M88.1 136.7h.01M92.2 219.2h.01M103.9 94.6h.01M251.0 418.3h.01M88.8 193.0h.01M125.2 142.4h.01M104.3 217.3h.01M318.1 359.5h.01M109.5 77.4h.01M139.9 158.7h.01M97.0 224.3h.01M298.9 357.8h.01M219.7 277.7h.01M125.6 97.0h.01M243.9 343.1h.01M147.8 159.4h.01M128.6 118.9h.01M163.5 318.3h.01M163.9 343.7h.01M89.3 118.2h.01M85.0 212.8h.01M114.4 78.8h.01M146.8 202.6h.01M122.0 422.1h.01M180.7 306.0h.01M326.5 346.6h.01M249.1 345.6h.01M118.0 147.1h.01M88.0 248.8h.01M157.9 213.6h.01M110.5 221.4h.01M127.5 283.2h.01M213.5 353.5h.01M177.2 429.1h.01M99.4 103.4h.01M202.1 406.5h.01M304.6 375.2h.01M113.9 139.9h.01M156.4 265.2h.01M195.0 167.5h.01M96.4 228.8h.01M86.8 183.2h.01M101.2 115.8h.01M71.0 218.0h.01M109.7 103.3h.01M228.2 348.2h.01M207.2 349.5h.01M91.0 98.9h.01M170.0 269.6h.01M222.4 351.4h.01M88.5 166.4h.01M90.8 114.2h.01M280.7 401.8h.01M112.8 99.7h.01M138.0 194.7h.01M175.4 313.3h.01M110.6 214.4h.01M65.7 187.9h.01M190.4 348.2h.01M288.7 204.7h.01M90.3 182.9h.01M193.1 171.9h.01M154.4 229.9h.01M146.7 216.5h.01M86.4 178.2h.01M132.2 115.7h.01M99.4 120.8h.01M197.6 275.5h.01M83.5 138.9h.01M113.0 248.3h.01M149.4 227.8h.01M214.2 348.0h.01M101.1 90.2h.01M85.8 254.5h.01M198.9 165.9h.01M100.0 307.9h.01M135.2 211.7h.01M215.8 169.6h.01M118.0 118.3h.01M176.2 237.0h.01M101.5 331.7h.01M301.6 179.0h.01M120.4 156.7h.01M276.0 99.0h.01M151.4 233.1h.01M85.8 147.8h.01M129.2 279.7h.01M130.3 232.1h.01M112.2 382.0h.01M118.2 279.5h.01M210.3 394.7h.01M111.9 235.0h.01M91.5 225.5h.01M107.9 82.0h.01M106.3 419.0h.01M119.8 80.6h.01M208.7 172.9h.01M208.2 162.3h.01M91.8 103.5h.01M103.2 246.3h.01M127.9 423.6h.01M82.7 170.8h.01M210.6 188.5h.01M216.6 345.4h.01M84.2 152.3h.01M107.8 236.2h.01M317.4 364.3h.01M180.9 315.0h.01M278.5 382.7h.01M157.8 318.7h.01M226.6 183.3h.01M115.6 236.9h.01M142.0 192.6h.01M107.6 156.7h.01M212.4 173.4h.01M102.8 226.0h.01M86.1 113.3h.01M106.2 354.4h.01M164.0 185.0h.01M96.6 91.6h.01M170.8 238.9h.01M124.1 138.0h.01M306.8 181.3h.01M100.5 318.2h.01M124.6 116.1h.01M120.7 132.9h.01M99.8 160.3h.01M99.5 218.6h.01M124.3 84.1h.01M239.4 162.4h.01M122.9 100.6h.01M97.9 243.8h.01M179.6 274.7h.01M93.4 110.9h.01M102.9 209.4h.01M188.6 275.9h.01M113.3 72.2h.01M183.2 309.6h.01M136.7 423.8h.01M194.9 346.8h.01M159.5 425.5h.01M114.4 213.6h.01M119.1 151.5h.01M160.5 207.6h.01M76.3 256.2h.01M257.7 414.8h.01M162.0 173.3h.01M154.2 326.1h.01M157.6 293.0h.01M217.6 267.9h.01M88.0 242.4h.01M221.5 249.0h.01M124.1 235.7h.01M121.0 104.9h.01M83.1 217.3h.01M184.0 424.9h.01M120.5 289.0h.01M152.8 161.8h.01M203.2 275.3h.01M238.9 342.6h.01M119.2 141.8h.01M108.6 86.6h.01M124.2 108.6h.01M108.6 217.6h.01M158.3 334.7h.01M90.8 236.7h.01M191.5 176.1h.01M298.2 385.7h.01M112.6 108.8h.01M83.4 143.9h.01M103.0 84.7h.01M103.8 101.1h.01M106.7 212.2h.01M167.1 322.8h.01M211.9 385.1h.01M210.8 348.0h.01M220.4 196.4h.01M111.1 210.1h.01M291.2 200.0h.01M93.3 127.8h.01M123.1 119.6h.01M95.0 212.6h.01M88.1 216.6h.01M308.1 186.6h.01M210.2 182.5h.01M92.3 169.6h.01M100.8 229.7h.01M228.6 159.3h.01M176.9 278.5h.01M129.4 124.2h.01M129.1 146.4h.01M199.5 170.8h.01M197.4 411.1h.01M245.6 351.0h.01M83.4 263.6h.01M254.4 301.7h.01M117.7 240.7h.01M225.1 195.0h.01"/>
<path stroke="#1a1a1a" stroke-width="3.46" stroke-linecap="round" fill="none" d="M117.6 358.4h.01M126.1 191.5h.01M181.4 367.9h.01M86.4 260.1h.01M215.0 363.0h.01M150.3 303.7h.01M140.4 400.7h.01M110.1 331.6h.01M180.8 389.6h.01M299.8 377.5h.01M106.2 312.0h.01M109.3 263.9h.01M185.0 383.3h.01M79.6 220.5h.01M151.8 195.5h.01M109.7 135.4h.01M146.4 420.9h.01M156.0 289.7h.01M156.0 296.7h.01M157.8 305.6h.01M140.6 326.9h.01M153.0 171.1h.01M96.6 163.2h.01M107.9 127.4h.01M95.4 407.6h.01M117.9 394.9h.01M156.2 282.5h.01M197.5 401.7h.01M164.4 275.7h.01M145.4 169.4h.01M124.2 388.2h.01M121.0 202.9h.01M148.3 265.3h.01M147.4 402.4h.01M188.4 365.4h.01M100.0 268.3h.01M123.8 159.2h.01M102.4 411.6h.01M147.9 411.0h.01M92.9 265.8h.01M121.1 266.5h.01M115.7 284.1h.01M143.0 322.4h.01M107.6 341.6h.01M139.0 305.5h.01M154.8 416.4h.01M136.9 161.7h.01M116.7 292.4h.01M159.6 316.6h.01M122.7 192.5h.01M178.4 412.1h.01M121.6 251.8h.01M153.6 305.8h.01M198.0 385.1h.01M94.7 269.9h.01M150.2 173.3h.01M163.9 283.1h.01M99.5 272.6h.01M93.6 288.3h.01M151.2 204.3h.01M112.9 117.0h.01M233.8 354.8h.01M143.8 387.9h.01M124.3 295.0h.01M197.3 389.7h.01M124.8 313.6h.01M126.2 244.8h.01M110.9 131.0h.01M100.3 165.2h.01M171.6 246.6h.01M236.4 352.5h.01M281.1 395.2h.01M138.8 234.0h.01M206.2 389.5h.01M153.1 344.3h.01M132.9 265.6h.01M147.3 340.4h.01M118.4 407.1h.01M221.2 372.8h.01M184.0 357.0h.01M241.0 352.8h.01M173.2 242.1h.01M74.1 218.3h.01M104.0 278.5h.01M148.5 221.5h.01M67.4 217.7h.01M105.9 130.9h.01M98.0 136.2h.01M150.7 395.3h.01M175.0 420.5h.01M105.7 116.0h.01M96.9 147.9h.01M123.3 282.9h.01M82.7 242.1h.01M167.8 399.3h.01M160.8 353.1h.01M181.0 247.6h.01M322.8 342.7h.01M138.2 389.5h.01M123.1 167.6h.01M177.4 259.6h.01M106.5 120.9h.01M113.1 253.0h.01M206.1 181.0h.01M140.9 269.3h.01M130.7 262.1h.01M137.3 384.1h.01M203.8 160.4h.01M174.3 258.6h.01M189.7 396.0h.01M149.3 169.5h.01M203.3 387.3h.01M218.0 376.0h.01M157.7 200.3h.01M153.0 406.5h.01M210.1 363.8h.01M143.8 333.8h.01M171.8 310.0h.01M264.4 406.9h.01M113.9 330.5h.01M124.3 200.9h.01M172.7 412.4h.01M105.3 250.2h.01M92.5 244.4h.01M106.6 153.4h.01M288.6 384.1h.01M168.7 243.9h.01M196.2 363.4h.01M121.3 247.6h.01M165.5 280.0h.01M80.8 212.8h.01M116.1 201.9h.01M218.1 359.3h.01M138.5 245.1h.01M116.0 288.4h.01M142.7 233.2h.01M108.9 149.6h.01M100.2 186.4h.01M149.0 212.7h.01M152.7 391.6h.01M297.5 381.3h.01M119.0 194.6h.01M169.5 370.5h.01M153.4 274.8h.01M131.1 160.6h.01M228.9 356.1h.01M108.0 345.4h.01M170.4 366.1h.01M190.0 241.4h.01M110.8 327.6h.01M203.4 173.6h.01M155.5 310.2h.01M153.4 213.6h.01M92.1 189.6h.01M114.3 356.1h.01M111.3 156.8h.01M64.1 196.1h.01M119.0 400.4h.01M144.4 316.9h.01M317.5 355.5h.01M97.3 203.0h.01M154.4 237.2h.01M103.5 126.0h.01M214.6 183.6h.01M201.4 359.4h.01M153.4 399.4h.01M104.2 322.2h.01M103.5 317.1h.01M168.2 390.7h.01M199.0 398.0h.01M176.5 424.4h.01M131.3 298.6h.01M168.5 410.0h.01M150.2 341.9h.01M201.4 402.4h.01M169.5 395.1h.01M104.3 326.5h.01M182.9 361.4h.01M122.1 405.9h.01M141.5 180.6h.01M112.3 125.9h.01M228.0 367.5h.01M123.8 264.8h.01M217.3 274.5h.01M204.2 380.0h.01M102.8 187.3h.01M175.1 307.2h.01M155.7 347.3h.01M136.7 250.0h.01M282.3 379.8h.01M177.7 241.6h.01M117.1 250.0h.01M198.8 180.8h.01M124.6 289.6h.01M194.0 381.8h.01M127.8 382.6h.01M150.7 266.7h.01M306.2 351.6h.01M113.1 244.3h.01M128.7 417.3h.01M156.4 194.0h.01M66.7 222.8h.01M111.8 290.2h.01M99.3 152.0h.01M124.4 302.9h.01M108.6 277.7h.01M147.4 347.1h.01M105.5 273.9h.01M195.9 369.4h.01M154.9 396.0h.01M192.5 377.2h.01M117.7 397.8h.01M149.1 198.9h.01M105.1 254.4h.01M292.6 365.6h.01M211.5 356.5h.01M181.0 381.6h.01M97.0 142.9h.01M83.9 246.2h.01M154.7 318.4h.01M113.4 261.1h.01M223.0 182.8h.01M76.7 202.1h.01M197.1 351.3h.01M186.6 352.2h.01M186.6 401.2h.01M137.0 238.0h.01M134.9 254.2h.01M116.5 125.9h.01M195.7 398.1h.01M75.0 244.7h.01M156.0 278.5h.01M159.9 347.8h.01M132.0 325.5h.01M135.7 391.9h.01M141.5 406.0h.01M138.7 409.0h.01M172.2 403.4h.01M317.5 352.0h.01M119.3 168.9h.01M110.4 354.9h.01M109.6 112.5h.01M124.5 332.2h.01M72.7 227.5h.01M141.1 298.5h.01M144.5 289.9h.01M101.7 138.6h.01M123.3 270.1h.01M72.8 200.5h.01M143.6 402.2h.01M160.0 237.1h.01M136.8 337.3h.01M150.8 414.0h.01M122.7 390.5h.01M136.0 327.3h.01M158.4 413.8h.01M159.4 310.1h.01M135.4 262.9h.01M120.2 258.0h.01M211.7 156.8h.01M137.6 258.2h.01M159.6 192.9h.01M116.5 403.3h.01M145.4 259.4h.01M107.6 413.9h.01M134.5 408.3h.01M117.8 341.2h.01M186.0 287.3h.01M188.3 369.6h.01M135.0 232.7h.01M76.6 188.3h.01M116.6 411.9h.01M100.6 256.4h.01M92.6 248.8h.01M95.3 403.9h.01M206.1 362.5h.01M113.0 276.2h.01M163.6 390.5h.01M174.8 366.1h.01M207.1 385.0h.01M135.5 303.5h.01M129.6 266.6h.01M154.1 188.2h.01M307.3 363.6h.01M101.4 130.9h.01M82.3 234.2h.01M104.4 184.4h.01M147.3 394.4h.01M99.7 190.3h.01M115.4 392.8h.01M172.8 386.8h.01M157.5 189.5h.01M109.4 250.8h.01M68.3 193.0h.01M206.4 365.9h.01M99.0 126.1h.01M133.7 306.6h.01M120.6 380.6h.01M128.9 258.4h.01M209.2 353.3h.01M113.9 359.5h.01M103.4 310.1h.01M139.3 262.7h.01M80.6 228.8h.01M91.3 404.9h.01M77.6 210.9h.01M127.4 292.9h.01M145.5 405.9h.01M123.9 196.3h.01M145.6 413.9h.01M103.0 121.0h.01M239.4 357.2h.01M131.5 393.5h.01M109.5 118.0h.01M121.4 349.1h.01M124.3 259.9h.01M168.4 277.1h.01M151.3 347.5h.01M171.1 422.4h.01M179.5 355.1h.01M116.8 388.1h.01M202.5 182.2h.01M73.5 196.3h.01M200.8 371.1h.01M96.2 247.9h.01M170.2 388.4h.01M152.3 288.7h.01M119.3 198.7h.01M176.2 389.5h.01M209.7 367.5h.01M148.4 417.2h.01M108.5 184.2h.01M108.2 123.9h.01M118.4 371.6h.01M144.7 189.7h.01M126.9 298.6h.01M160.6 385.2h.01M141.2 390.2h.01M140.5 229.0h.01M133.0 310.3h.01M120.4 262.4h.01M161.7 398.8h.01M203.2 280.1h.01M155.7 402.7h.01M114.8 160.7h.01M274.5 390.1h.01M137.6 404.2h.01M136.2 399.8h.01M159.2 343.2h.01M152.2 269.3h.01M206.2 397.1h.01M148.9 208.2h.01M149.2 259.9h.01M119.6 345.2h.01M156.5 169.8h.01M112.2 121.5h.01M159.8 270.3h.01M120.8 410.4h.01M205.5 272.0h.01M190.5 406.0h.01M132.3 302.4h.01M157.4 421.2h.01M107.3 328.7h.01M77.6 224.1h.01M124.8 255.1h.01M93.5 240.4h.01M121.2 301.7h.01M195.1 394.9h.01M148.1 307.3h.01M155.2 197.4h.01M117.4 337.0h.01M95.5 176.1h.01M158.7 262.4h.01M118.1 158.9h.01M113.2 367.2h.01M106.1 315.1h.01M193.8 284.8h.01M122.8 244.0h.01M286.3 389.2h.01M179.1 270.6h.01M115.6 333.6h.01M151.3 309.4h.01M158.2 299.6h.01M93.7 256.8h.01M127.7 390.9h.01M92.2 196.5h.01M114.4 181.3h.01M114.8 347.7h.01M72.7 186.6h.01M202.2 383.7h.01M164.4 349.0h.01M73.4 212.3h.01M121.1 402.7h.01M106.4 332.9h.01M114.5 408.3h.01M309.1 367.8h.01M139.7 332.3h.01M306.1 370.1h.01M108.6 199.8h.01M178.8 256.3h.01M116.7 261.3h.01M198.6 380.1h.01M313.3 360.0h.01M142.2 237.5h.01M156.0 205.0h.01M151.1 262.9h.01M127.8 199.0h.01M149.5 408.3h.01M124.3 417.5h.01M93.0 231.9h.01M145.2 398.5h.01M155.6 270.9h.01M140.7 337.9h.01M114.8 134.9h.01M194.8 407.2h.01M125.4 273.4h.01M98.0 193.2h.01M123.4 188.4h.01M147.9 312.6h.01M78.1 192.4h.01M226.0 352.6h.01M176.9 401.4h.01M130.6 292.3h.01M101.6 203.2h.01M142.7 303.0h.01M138.1 309.1h.01M133.3 416.0h.01M231.9 365.3h.01M194.1 240.0h.01M132.7 164.2h.01M283.5 391.1h.01M169.8 314.0h.01M209.2 380.6h.01M189.4 373.6h.01M138.9 200.4h.01M178.1 373.5h.01M101.5 143.0h.01M258.7 410.2h.01M189.0 414.1h.01M115.3 343.3h.01M94.5 192.6h.01M140.6 343.0h.01M111.7 168.8h.01M211.3 279.9h.01M114.0 353.3h.01M97.0 262.0h.01M141.0 164.0h.01M153.9 184.8h.01M143.3 198.0h.01M135.5 321.8h.01M155.3 341.2h.01M127.3 178.7h.01M108.5 359.1h.01M79.4 246.7h.01M129.1 274.9h.01M215.5 175.2h.01M159.0 409.2h.01M95.5 236.6h.01M143.4 176.4h.01M188.1 356.8h.01M180.0 422.4h.01M125.4 393.6h.01M148.6 316.8h.01M115.9 375.3h.01M145.6 179.2h.01M141.4 168.5h.01M289.1 387.1h.01M179.2 377.2h.01M98.5 288.3h.01M104.8 258.2h.01M209.1 359.2h.01M115.0 256.8h.01M186.3 244.5h.01M139.7 176.4h.01M101.1 193.7h.01M110.5 259.7h.01M186.8 417.2h.01M115.4 170.0h.01M132.2 411.2h.01M127.9 287.7h.01M96.7 184.4h.01M168.0 405.1h.01M133.3 390.3h.01M98.9 409.1h.01M121.7 396.5h.01M133.0 168.8h.01M137.0 413.2h.01M110.4 197.1h.01M109.4 256.0h.01M119.0 331.2h.01M144.0 409.5h.01M128.0 204.5h.01M160.0 280.4h.01M177.9 417.2h.01M181.2 371.2h.01M143.3 394.9h.01M69.6 209.6h.01M118.2 254.0h.01M98.0 206.0h.01M134.7 198.9h.01M103.7 408.0h.01M158.7 185.5h.01M106.8 338.0h.01M191.4 417.9h.01M141.3 265.9h.01M316.1 340.2h.01M113.8 404.7h.01M112.2 363.1h.01M116.0 351.5h.01M163.1 422.2h.01M166.8 415.2h.01M112.8 396.4h.01M213.8 359.2h.01M120.4 386.0h.01M104.6 111.2h.01M168.3 351.7h.01M108.4 350.2h.01M96.1 277.4h.01M146.5 262.8h.01M89.5 257.1h.01M142.1 172.6h.01M111.5 346.5h.01M124.0 400.1h.01M134.3 294.2h.01M173.2 397.7h.01M149.4 399.0h.01M182.3 351.7h.01M96.4 188.4h.01M173.2 369.4h.01M232.2 178.7h.01M97.5 172.9h.01M152.2 313.6h.01M163.9 386.1h.01M142.4 307.9h.01M113.2 390.2h.01M123.2 381.9h.01M97.1 258.6h.01M101.6 261.1h.01M156.4 314.4h.01M147.9 390.1h.01M118.9 390.8h.01M124.7 407.6h.01M201.2 355.8h.01M184.3 378.4h.01M81.3 258.6h.01M110.2 406.7h.01M126.4 268.0h.01M102.9 154.7h.01M121.5 393.2h.01M203.1 367.9h.01M121.1 296.7h.01M212.3 177.4h.01M114.6 371.2h.01M152.8 191.6h.01M137.8 312.8h.01M202.7 353.6h.01M166.7 259.8h.01M222.3 179.5h.01M181.1 243.7h.01M70.6 224.3h.01M143.4 263.5h.01M106.2 283.1h.01M160.0 404.0h.01M201.8 394.8h.01M73.7 204.7h.01M185.7 373.5h.01M143.0 312.5h.01M106.7 261.1h.01M116.2 121.3h.01M113.0 377.3h.01M174.1 375.4h.01M141.8 286.4h.01M141.6 259.1h.01M147.1 320.6h.01M328.3 337.8h.01M103.6 134.7h.01M181.2 286.0h.01M112.3 350.5h.01M129.8 254.1h.01M182.0 401.7h.01M300.1 373.6h.01M188.9 391.0h.01M152.1 317.2h.01M220.8 363.3h.01M157.7 173.5h.01M141.5 413.2h.01M179.1 252.2h.01M129.4 306.9h.01M193.5 354.8h.01M139.9 396.9h.01M156.3 406.7h.01M266.8 402.3h.01M173.4 271.8h.01M189.1 381.5h.01M135.6 395.4h.01M198.6 283.4h.01M148.3 183.4h.01M137.7 170.4h.01M222.3 356.0h.01M149.8 186.9h.01M109.7 141.8h.01M91.5 252.9h.01M175.9 385.3h.01M213.6 272.3h.01M211.7 361.3h.01M149.0 292.0h.01M103.8 167.0h.01M104.4 335.7h.01M185.9 405.3h.01M139.3 393.5h.01M164.5 271.3h.01M142.1 423.4h.01M110.3 339.3h.01M123.9 299.7h.01M92.9 201.0h.01M96.1 282.4h.01M128.5 408.0h.01M117.6 346.8h.01M128.1 168.3h.01M91.9 261.4h.01M177.5 369.1h.01M157.9 399.3h.01M128.6 302.3h.01M182.5 374.9h.01M138.9 318.3h.01M164.4 402.1h.01M97.3 180.5h.01M197.3 175.4h.01M101.6 147.8h.01M139.5 386.4h.01M157.8 177.6h.01M205.0 351.5h.01M152.3 420.1h.01M325.4 340.4h.01M201.3 390.1h.01M151.6 402.6h.01M70.7 189.4h.01M161.0 314.0h.01M77.7 250.5h.01M72.6 248.0h.01M218.2 354.5h.01M149.5 405.2h.01M101.5 252.3h.01M98.1 155.9h.01M120.6 292.5h.01M128.6 412.6h.01M174.1 382.5h.01M184.0 392.9h.01M202.4 177.3h.01M173.0 359.2h.01M97.0 397.7h.01M190.0 385.9h.01M164.6 241.8h.01M106.0 146.3h.01M132.4 240.4h.01M115.3 130.2h.01M70.7 231.1h.01M112.1 281.0h.01M172.7 392.1h.01M205.3 358.9h.01M108.0 324.4h.01M224.6 369.6h.01M226.1 364.0h.01M231.0 351.5h.01M129.1 400.7h.01M234.1 358.2h.01M104.8 201.3h.01M127.1 263.2h.01M129.2 296.1h.01M81.6 224.8h.01M173.5 363.2h.01M122.0 177.0h.01M157.3 385.6h.01M163.6 311.4h.01M124.2 206.5h.01M70.2 235.6h.01M103.6 264.9h.01M219.8 184.3h.01M136.5 299.8h.01M134.3 318.1h.01M119.8 377.1h.01M153.8 410.9h.01M104.3 150.5h.01M184.5 412.5h.01M95.5 293.1h.01M163.3 395.3h.01M140.1 241.1h.01M146.4 336.6h.01M208.0 177.1h.01M163.7 407.1h.01M179.6 385.2h.01M98.6 303.1h.01M110.1 335.4h.01M175.5 274.4h.01M111.0 373.1h.01M154.3 266.7h.01M168.9 384.6h.01M138.0 418.3h.01M129.9 243.1h.01M190.7 411.3h.01M146.4 303.8h.01M117.0 178.5h.01M94.8 158.5h.01M116.9 383.4h.01M139.0 301.8h.01M116.3 379.6h.01M134.3 298.1h.01M97.7 265.4h.01M108.0 245.8h.01M193.2 399.6h.01M169.0 361.8h.01M215.6 356.4h.01M194.1 366.2h.01M190.7 352.6h.01M174.4 407.7h.01M166.1 393.1h.01M133.5 258.8h.01M133.6 402.8h.01M113.1 266.0h.01M175.9 246.3h.01M160.4 389.5h.01M179.2 406.3h.01M135.6 242.0h.01M123.9 278.2h.01M172.1 350.0h.01M175.7 250.3h.01M153.3 200.8h.01M97.5 199.6h.01M114.1 294.4h.01M235.1 179.9h.01M120.9 414.8h.01M110.8 285.8h.01M125.5 397.4h.01M137.3 267.1h.01M113.7 337.8h.01M140.7 315.8h.01M192.9 271.3h.01M271.5 393.2h.01M227.8 359.9h.01M131.0 405.0h.01M132.0 250.3h.01M202.4 398.6h.01M101.2 200.6h.01M172.4 416.7h.01M103.9 330.1h.01M100.7 170.1h.01M125.6 305.7h.01M128.6 395.9h.01M93.6 273.8h.01M167.5 310.6h.01M80.8 254.4h.01M113.7 325.7h.01M114.7 197.1h.01M124.4 384.8h.01M106.5 319.3h.01M151.9 298.7h.01M272.2 401.9h.01M161.6 289.4h.01M163.2 412.0h.01M143.6 180.8h.01M86.7 170.3h.01M100.1 276.7h.01M187.7 409.1h.01M132.5 387.0h.01M311.5 363.6h.01M182.1 415.6h.01M117.4 265.9h.01M157.3 239.4h.01M193.5 403.3h.01M183.0 408.7h.01M186.4 421.7h.01M223.3 359.9h.01M170.4 381.6h.01M96.6 196.5h.01M136.8 173.5h.01M293.2 384.6h.01M118.8 206.0h.01M148.5 332.1h.01M277.4 398.9h.01M153.3 260.6h.01M63.1 215.3h.01M109.5 320.5h.01M163.4 237.6h.01M311.9 338.3h.01M103.1 158.3h.01M161.1 417.5h.01M179.9 396.7h.01M101.6 292.9h.01M153.0 209.0h.01M197.6 355.8h.01M191.4 368.2h.01M197.9 405.6h.01M193.0 372.2h.01M169.5 273.5h.01M106.7 160.5h.01M158.7 393.8h.01M145.4 267.4h.01M150.6 336.7h.01M213.4 367.8h.01M176.7 379.8h.01M192.9 391.9h.01M120.8 274.7h.01M134.2 314.3h.01M109.4 173.2h.01M148.1 288.3h.01M196.3 280.5h.01M145.1 344.4h.01M206.7 156.6h.01M205.0 392.9h.01M190.0 401.0h.01M193.6 410.4h.01M76.0 215.0h.01M145.7 309.4h.01M110.6 145.7h.01M185.2 387.8h.01M73.9 223.6h.01M105.5 142.3h.01M174.8 355.0h.01M131.2 201.5h.01M206.8 355.7h.01M119.5 270.4h.01M138.1 295.7h.01M161.5 181.7h.01M112.0 202.3h.01M182.9 419.6h.01M132.3 397.9h.01M168.1 306.6h.01M132.6 236.4h.01M273.4 397.1h.01M207.8 281.6h.01M167.1 419.7h.01M111.9 342.4h.01M121.6 352.1h.01M177.2 350.1h.01M174.2 372.1h.01M140.0 253.8h.01M125.4 309.4h.01M114.5 399.9h.01M126.1 403.6h.01M144.5 391.5h.01M321.2 345.9h.01M129.8 191.4h.01M106.5 181.3h.01M104.2 270.0h.01M96.1 298.0h.01M145.0 183.4h.01M136.9 166.0h.01M185.0 397.2h.01M162.4 261.3h.01M89.8 229.0h.01M166.8 239.0h.01M134.7 385.1h.01M166.6 387.5h.01M117.9 296.3h.01M106.2 177.4h.01M110.5 160.6h.01M103.8 162.7h.01M193.8 387.2h.01M110.7 182.1h.01M286.8 195.8h.01M184.7 369.5h.01M156.2 260.1h.01M110.7 153.0h.01M131.5 321.0h.01M128.8 312.0h.01M144.4 328.7h.01M145.4 165.2h.01M198.5 393.3h.01M202.5 363.7h.01M314.0 355.5h.01M130.0 316.1h.01M142.7 417.8h.01M113.2 386.3h.01M106.8 138.2h.01M156.3 389.6h.01M143.7 340.4h.01M138.8 323.0h.01M173.2 286.8h.01M124.7 412.0h.01M82.8 250.5h.01M163.1 307.2h.01M146.9 235.2h.01M177.1 393.7h.01M199.0 366.6h.01M127.3 159.2h.01"/>
<path stroke="#1a1a1a" stroke-width="3.81" stroke-linecap="round" fill="none" d="M143.6 384.8h.01M106.5 191.3h.01M150.8 177.4h.01M114.6 164.9h.01M140.5 249.3h.01M119.4 309.0h.01M150.3 256.9h.01M122.2 367.8h.01M134.8 189.9h.01M164.9 382.3h.01M158.9 378.4h.01M151.2 284.4h.01M105.9 194.9h.01M149.0 355.9h.01M319.0 348.4h.01M231.9 361.5h.01M155.5 242.7h.01M102.0 401.5h.01M149.8 363.9h.01M295.7 374.8h.01M163.7 251.5h.01M128.8 342.0h.01M110.4 399.2h.01M133.0 366.7h.01M116.4 363.6h.01M118.4 304.5h.01M304.5 359.5h.01M124.4 317.2h.01M122.1 309.6h.01M137.6 369.0h.01M199.1 362.0h.01M134.7 380.9h.01M142.9 281.6h.01M122.4 370.9h.01M157.7 274.8h.01M104.0 189.5h.01M109.0 193.0h.01M152.8 357.1h.01M134.4 353.3h.01M225.8 177.1h.01M147.7 273.5h.01M186.0 361.3h.01M143.5 349.0h.01M125.1 376.6h.01M140.7 273.7h.01M128.5 372.5h.01M98.5 401.0h.01M210.3 371.6h.01M140.2 347.2h.01M101.7 397.7h.01M127.6 182.4h.01M151.1 272.3h.01M126.5 363.1h.01M125.1 352.9h.01M216.8 371.0h.01M128.8 351.4h.01M316.2 344.8h.01M312.6 348.9h.01M148.1 284.6h.01M121.3 364.6h.01M169.5 374.8h.01M135.8 276.5h.01M164.7 354.3h.01M124.5 339.2h.01M151.5 277.5h.01M133.8 349.6h.01M158.3 247.8h.01M142.9 375.5h.01M141.7 278.4h.01M77.6 236.9h.01M143.8 241.9h.01M161.5 285.5h.01M147.3 255.3h.01M127.6 327.9h.01M149.9 370.9h.01M116.3 311.7h.01M147.5 176.3h.01M118.5 354.7h.01M156.8 254.8h.01M130.0 347.9h.01M112.6 310.3h.01M141.4 184.0h.01M144.6 368.5h.01M131.3 357.1h.01M73.2 192.4h.01M141.2 372.6h.01M113.8 318.6h.01M121.8 321.9h.01M144.7 378.1h.01M148.8 242.0h.01M286.2 378.0h.01M121.4 358.4h.01M146.6 172.8h.01M110.9 164.4h.01M122.4 334.9h.01M126.5 355.0h.01M112.2 193.6h.01M104.7 306.0h.01M145.9 352.5h.01M321.2 338.1h.01M100.3 182.9h.01M296.4 365.4h.01M138.6 180.5h.01M117.5 367.5h.01M149.8 248.8h.01M164.8 362.8h.01M152.7 254.9h.01M150.8 367.5h.01M147.5 251.7h.01M133.5 269.5h.01M153.5 352.0h.01M218.5 176.8h.01M99.6 405.0h.01M101.5 198.5h.01M115.9 298.6h.01M127.9 366.7h.01M125.3 358.4h.01M214.5 179.7h.01M67.2 213.4h.01M139.6 351.4h.01M145.0 362.0h.01M106.2 187.5h.01M131.3 183.0h.01M213.6 276.3h.01M195.6 359.3h.01M158.4 367.6h.01M280.5 389.6h.01M303.9 366.0h.01M141.8 379.6h.01M125.0 373.0h.01M102.6 301.9h.01M133.9 273.2h.01M222.2 175.6h.01M117.8 183.1h.01M181.5 364.3h.01M68.3 200.9h.01M102.5 287.8h.01M155.1 246.4h.01M127.8 386.4h.01M95.0 400.8h.01M156.5 257.5h.01M146.9 277.6h.01M145.8 186.4h.01M130.7 187.9h.01M288.8 380.4h.01M140.8 383.2h.01M129.0 360.0h.01M310.3 350.9h.01M120.0 186.1h.01M168.0 255.5h.01M308.4 359.6h.01M103.0 191.7h.01M297.0 361.7h.01M153.8 178.7h.01M112.5 187.8h.01M78.6 217.1h.01M306.5 355.5h.01M132.1 336.4h.01M158.7 374.8h.01M124.6 343.4h.01M118.9 300.4h.01M111.0 393.5h.01M122.8 346.5h.01M318.9 334.9h.01M142.5 245.8h.01M167.0 248.1h.01M116.5 187.9h.01M302.1 370.2h.01M135.2 376.4h.01M132.5 276.9h.01M188.9 361.6h.01M131.3 383.5h.01M134.7 362.5h.01M143.9 274.8h.01M127.7 333.3h.01M101.9 196.2h.01M165.0 255.7h.01M112.2 322.8h.01M66.9 205.2h.01M123.5 361.7h.01M204.8 372.9h.01M112.5 298.5h.01M118.1 165.0h.01M162.5 368.1h.01M136.6 347.6h.01M155.6 377.8h.01M142.6 354.8h.01M74.4 235.8h.01M70.0 205.0h.01M169.6 356.6h.01M161.1 244.8h.01M117.1 322.1h.01M213.4 378.5h.01M155.5 251.3h.01M128.2 323.3h.01M120.4 326.9h.01M176.7 360.7h.01M138.3 380.5h.01M131.4 379.4h.01M179.9 359.5h.01M123.7 329.4h.01M153.2 249.0h.01M120.7 338.3h.01M77.4 197.0h.01M145.5 365.1h.01M138.2 274.6h.01M162.7 378.1h.01M147.1 370.9h.01M155.5 381.5h.01M130.5 363.1h.01M151.5 245.3h.01M151.1 181.8h.01M151.8 379.5h.01M109.7 306.3h.01M116.0 302.0h.01M170.4 259.2h.01M159.9 361.2h.01M188.5 377.5h.01M221.1 367.9h.01M161.8 373.1h.01M102.7 180.3h.01M148.4 180.1h.01M137.7 184.4h.01M103.9 405.1h.01M124.0 184.5h.01M155.1 176.1h.01M171.4 250.9h.01M144.3 250.0h.01M159.1 258.1h.01M201.3 376.0h.01M276.3 394.3h.01M154.6 373.6h.01M108.1 404.1h.01M63.7 206.3h.01M108.5 396.4h.01M160.0 381.8h.01M120.6 162.4h.01M147.9 373.9h.01M166.4 287.6h.01M132.4 344.7h.01M178.4 365.1h.01M121.4 374.1h.01M213.1 374.3h.01M126.9 346.0h.01M151.1 373.1h.01M65.7 209.7h.01M108.2 309.4h.01M153.5 370.2h.01M132.6 370.6h.01M65.0 201.0h.01M162.3 248.2h.01M105.0 394.8h.01M299.8 366.2h.01M100.8 282.6h.01M137.9 278.6h.01M126.2 369.6h.01M164.5 245.3h.01M174.7 254.4h.01M146.7 376.4h.01M111.1 190.3h.01M135.9 387.9h.01M135.5 356.5h.01M162.4 258.1h.01M149.4 351.2h.01M152.5 241.5h.01M154.8 361.2h.01M129.5 270.6h.01M138.1 359.2h.01M144.9 372.6h.01M102.0 175.0h.01M152.5 281.2h.01M109.5 302.8h.01M112.9 306.6h.01M110.7 402.0h.01M106.8 292.4h.01M157.2 352.0h.01M151.2 382.6h.01M105.1 296.8h.01M153.7 385.8h.01M152.9 376.3h.01M312.5 346.0h.01M159.5 250.2h.01M118.4 350.4h.01M146.5 239.3h.01M116.4 307.8h.01M151.2 252.4h.01M165.6 374.9h.01M121.4 342.2h.01M74.1 208.3h.01M127.5 186.8h.01M127.2 379.2h.01M127.8 337.7h.01M128.1 357.1h.01M122.6 181.0h.01M70.2 197.7h.01M294.0 378.1h.01M160.3 241.6h.01M105.3 402.2h.01M107.3 392.2h.01M161.7 254.9h.01M105.1 172.9h.01M285.4 382.8h.01M145.5 283.5h.01M111.0 313.2h.01M290.3 376.1h.01M156.6 356.9h.01M218.3 180.4h.01M217.3 366.1h.01M154.1 257.1h.01M160.5 357.5h.01M172.2 378.5h.01M138.3 188.8h.01M105.4 197.9h.01M110.0 316.5h.01M107.2 399.5h.01M115.1 304.9h.01M74.5 231.5h.01M138.6 355.1h.01M147.8 270.0h.01M131.4 333.2h.01M144.6 358.3h.01M278.3 391.8h.01M314.0 352.0h.01M140.5 361.5h.01M109.8 389.7h.01M124.3 325.1h.01M78.5 241.9h.01M133.3 359.5h.01M75.9 220.7h.01M147.4 385.4h.01M139.3 376.5h.01M113.3 184.9h.01M150.6 387.2h.01M138.7 282.2h.01M124.5 163.9h.01M165.0 358.5h.01M293.0 371.8h.01M135.4 332.2h.01M301.8 362.1h.01M137.2 365.0h.01M119.6 318.0h.01M148.8 378.5h.01M104.6 398.4h.01M159.5 252.8h.01M126.7 320.0h.01M108.7 298.3h.01M148.1 367.6h.01M128.4 164.1h.01M316.0 348.5h.01M133.2 340.2h.01M130.3 389.1h.01M107.6 165.1h.01M106.7 288.1h.01M144.9 381.4h.01M141.5 365.5h.01M122.4 355.3h.01M166.6 366.8h.01M135.0 181.8h.01M146.1 244.7h.01M121.6 305.6h.01M100.6 297.8h.01M116.1 315.2h.01M67.1 196.5h.01M283.5 386.5h.01M150.1 375.9h.01M277.5 387.0h.01M115.4 191.8h.01M316.5 337.2h.01M131.1 375.2h.01M226.0 180.0h.01M80.5 238.2h.01M131.2 329.6h.01M196.2 376.0h.01M136.9 372.9h.01M165.3 370.7h.01M167.3 379.0h.01M158.0 244.8h.01M287.8 372.8h.01M318.6 342.2h.01M158.1 286.0h.01M157.6 370.8h.01M76.4 227.8h.01M120.5 313.5h.01M74.5 240.5h.01M99.8 177.8h.01M130.8 353.8h.01M112.6 302.2h.01M179.8 289.2h.01M110.3 294.4h.01M292.2 381.4h.01M108.9 187.4h.01M191.6 359.1h.01M116.7 326.9h.01M310.5 354.0h.01M153.6 366.1h.01M78.3 232.3h.01M197.6 372.6h.01M141.5 369.4h.01M106.9 169.5h.01M134.0 186.2h.01M143.6 270.8h.01M137.5 271.0h.01M150.6 238.0h.01M184.8 365.5h.01M324.8 334.6h.01M158.0 181.5h.01M171.2 255.5h.01M161.0 275.1h.01M207.7 376.1h.01M154.8 181.6h.01M106.9 409.4h.01M167.6 251.6h.01M143.8 255.0h.01M119.5 190.5h.01M161.1 364.6h.01M136.6 343.1h.01M229.2 179.9h.01M119.3 361.5h.01M156.6 364.6h.01M192.3 363.3h.01M147.9 381.6h.01M269.6 397.8h.01M149.8 360.5h.01M206.6 369.6h.01M290.7 369.3h.01M148.7 280.5h.01M106.3 301.8h.01M281.4 384.0h.01M125.4 349.6h.01M141.4 187.2h.01M153.4 174.2h.01M310.6 357.1h.01M154.6 285.6h.01M147.6 246.8h.01M297.0 369.8h.01"/>
</svg>