<svg xmlns="http://www.w3.org/2000/svg" viewBox="0 0 360 432" role="img">
<path stroke="#1a1a1a" stroke-width="1.61" stroke-linecap="round" fill="none" d="M202.8 429.8h.01M0.4 114.3h.01M0.4 279.7h.01M222.0 430.6h.01M137.0 430.6h.01M358.6 280.5h.01M162.0 39.0h.01M243.9 430.6h.01M122.2 54.8h.01M69.0 275.7h.01M155.2 430.6h.01M115.4 430.6h.01M358.6 112.9h.01"/>
<path stroke="#1a1a1a" stroke-width="2.15" stroke-linecap="round" fill="none" d="M262.5 350.3h.01M131.1 131.3h.01M146.1 125.1h.01M159.1 150.5h.01M148.9 119.3h.01M168.8 269.6h.01M111.0 172.7h.01M157.7 129.6h.01M184.4 120.9h.01M135.8 170.8h.01M168.6 166.2h.01M135.0 119.8h.01M129.4 116.8h.01M147.8 236.3h.01M153.3 239.3h.01M358.6 194.5h.01M101.7 71.0h.01M137.2 135.6h.01M169.8 128.1h.01M196.7 208.0h.01M128.9 142.3h.01M129.6 166.4h.01M166.7 142.7h.01M134.4 383.6h.01M176.8 254.0h.01M153.1 152.4h.01M167.4 151.9h.01M163.4 250.3h.01M68.4 263.9h.01M153.6 115.9h.01M157.7 155.3h.01M117.2 244.0h.01M181.2 126.6h.01M141.1 172.1h.01M93.1 80.1h.01M130.4 124.2h.01M178.2 173.4h.01M106.9 67.4h.01M239.7 377.8h.01M115.5 133.8h.01M168.6 123.2h.01M154.5 135.1h.01M158.0 244.3h.01M160.2 139.5h.01M179.7 165.8h.01M112.6 163.2h.01M160.0 160.5h.01M181.0 0.4h.01M202.4 212.0h.01M0.4 155.4h.01M163.4 271.6h.01M159.2 236.4h.01M152.8 173.9h.01M160.8 262.6h.01M125.5 120.7h.01M295.9 175.4h.01M147.8 226.0h.01M122.9 162.6h.01M358.6 235.3h.01M173.7 121.6h.01M209.6 213.2h.01M162.5 125.4h.01M164.8 172.1h.01M174.3 168.8h.01M174.2 150.7h.01M154.8 123.3h.01M153.9 141.9h.01M164.0 147.6h.01M148.8 147.2h.01M186.5 127.8h.01M122.4 125.2h.01M142.4 130.9h.01M137.6 156.0h.01M83.5 323.4h.01M170.7 155.0h.01M181.8 250.5h.01M154.0 231.6h.01M142.1 150.3h.01M178.3 147.8h.01M166.6 137.8h.01M0.4 194.6h.01M115.1 139.6h.01M154.8 264.2h.01M188.7 173.0h.01M117.2 127.3h.01M135.7 128.9h.01M178.9 122.1h.01M139.4 124.9h.01M153.3 159.2h.01M158.5 172.0h.01M174.8 259.4h.01M187.2 246.5h.01M174.5 144.2h.01M158.8 268.9h.01M147.7 159.0h.01M147.7 152.6h.01M141.2 161.6h.01M110.0 249.2h.01M142.3 119.5h.01M180.6 159.7h.01M127.7 160.0h.01M174.6 133.9h.01M168.2 260.0h.01M163.0 154.2h.01M120.5 192.3h.01M159.7 144.9h.01M143.3 155.9h.01M139.4 146.2h.01M358.6 154.9h.01M290.4 172.4h.01M119.7 225.1h.01M175.6 128.3h.01M169.6 147.0h.01M179.8 137.8h.01M194.8 136.7h.01M141.9 139.2h.01M184.0 236.8h.01M165.1 118.7h.01M72.2 284.5h.01M144.9 143.9h.01M189.9 239.8h.01M163.7 242.2h.01M168.5 246.8h.01M167.2 132.2h.01M126.1 135.7h.01M193.4 233.5h.01M165.7 159.4h.01M0.4 235.1h.01M149.0 139.7h.01M169.9 254.0h.01M107.2 0.4h.01M161.7 133.6h.01M150.8 129.4h.01M132.0 137.9h.01M119.2 120.1h.01M133.6 160.8h.01M146.9 134.5h.01M253.9 0.4h.01M112.3 157.2h.01M180.3 243.1h.01M170.6 160.5h.01"/>
<path stroke="#1a1a1a" stroke-width="2.54" stroke-linecap="round" fill="none" d="M94.4 135.8h.01M185.5 152.8h.01M282.2 202.8h.01M154.5 105.0h.01M149.8 210.2h.01M136.7 266.6h.01M181.8 225.2h.01M219.5 216.3h.01M232.7 46.6h.01M126.8 103.6h.01M279.9 235.0h.01M129.2 226.1h.01M101.7 130.1h.01M157.4 340.4h.01M111.8 233.8h.01M153.5 327.3h.01M180.5 180.2h.01M163.4 112.8h.01M202.7 242.3h.01M152.5 355.8h.01M120.9 249.5h.01M141.5 228.0h.01M177.2 267.5h.01M190.7 125.5h.01M157.3 250.9h.01M121.2 212.7h.01M154.7 93.2h.01M105.6 143.5h.01M111.8 244.1h.01M184.5 109.4h.01M162.4 166.1h.01M275.9 246.9h.01M121.7 325.0h.01M172.4 264.5h.01M203.2 167.2h.01M109.2 118.0h.01M145.9 329.8h.01M142.4 232.9h.01M106.6 128.2h.01M211.8 206.0h.01M139.1 74.9h.01M111.8 259.2h.01M108.7 112.8h.01M173.6 270.5h.01M134.9 273.1h.01M130.0 98.5h.01M141.8 84.1h.01M174.3 113.4h.01M119.1 204.3h.01M185.7 140.9h.01M113.9 110.5h.01M133.2 280.2h.01M202.4 319.0h.01M157.2 110.7h.01M140.6 96.1h.01M129.9 331.6h.01M159.2 280.7h.01M165.1 106.9h.01M195.3 105.7h.01M218.3 226.0h.01M126.6 246.5h.01M136.0 325.2h.01M151.1 76.6h.01M263.5 253.3h.01M287.8 131.0h.01M189.3 119.1h.01M217.2 207.5h.01M117.0 209.0h.01M112.0 282.9h.01M187.5 212.9h.01M174.7 330.8h.01M187.3 202.8h.01M181.2 295.4h.01M198.8 180.0h.01M197.2 250.2h.01M178.3 377.9h.01M209.7 220.1h.01M117.6 165.0h.01M267.2 219.8h.01M161.8 313.5h.01M211.5 165.9h.01M177.5 73.3h.01M185.7 158.2h.01M93.7 143.1h.01M200.0 276.1h.01M265.2 196.8h.01M152.6 99.1h.01M133.8 112.9h.01M131.4 155.8h.01M150.3 110.5h.01M182.2 257.8h.01M137.9 283.8h.01M151.4 246.4h.01M123.5 175.9h.01M124.2 97.7h.01M179.9 153.5h.01M99.2 127.0h.01M194.0 373.8h.01M134.4 94.2h.01M170.4 81.5h.01M114.8 255.7h.01M100.6 165.1h.01M97.6 122.8h.01M211.9 152.1h.01M143.7 208.6h.01M208.3 161.2h.01M185.4 75.7h.01M112.6 208.7h.01M290.1 212.0h.01M174.8 247.3h.01M154.2 147.0h.01M173.6 213.5h.01M124.6 203.7h.01M172.2 76.9h.01M196.8 240.7h.01M140.8 271.9h.01M112.1 239.2h.01M215.2 220.0h.01M174.6 106.9h.01M136.3 100.1h.01M122.9 234.4h.01M132.1 147.8h.01M142.3 238.3h.01M211.9 142.2h.01M126.5 111.0h.01M167.4 212.3h.01M160.6 104.4h.01M125.5 215.1h.01M176.1 101.1h.01M184.1 91.5h.01M200.0 163.8h.01M177.3 277.6h.01M142.8 223.8h.01M120.5 110.9h.01M181.7 97.2h.01M186.4 53.7h.01M156.7 165.3h.01M285.0 198.6h.01M120.9 254.7h.01M109.9 106.5h.01M154.6 212.4h.01M150.0 261.8h.01M162.3 74.4h.01M301.9 193.3h.01M207.0 135.4h.01M117.5 151.9h.01M208.9 266.5h.01M108.1 177.2h.01M113.1 123.9h.01M197.6 153.0h.01M119.6 258.3h.01M186.3 377.3h.01M111.8 129.4h.01M146.6 175.2h.01M131.9 83.5h.01M203.1 281.7h.01M189.1 258.8h.01M149.4 71.5h.01M199.0 115.0h.01M200.1 141.0h.01M135.2 344.4h.01M169.3 224.6h.01M114.1 204.7h.01M199.4 222.5h.01M143.9 348.2h.01M99.5 152.4h.01M193.3 226.1h.01M128.8 200.8h.01M136.7 106.9h.01M206.2 232.5h.01M288.4 222.4h.01M156.9 75.0h.01M194.7 123.4h.01M133.0 227.9h.01M115.7 250.9h.01M300.5 197.8h.01M172.6 275.6h.01M181.0 212.8h.01M154.7 349.5h.01M132.5 88.7h.01M95.9 164.7h.01M119.1 101.0h.01M165.9 265.3h.01M125.4 189.7h.01M158.0 225.3h.01M113.5 228.3h.01M182.0 376.0h.01M278.3 184.2h.01M160.7 93.1h.01M107.5 159.9h.01M201.5 156.9h.01M172.9 96.4h.01M113.4 223.1h.01M79.3 312.8h.01M156.6 87.1h.01M155.6 353.0h.01M165.1 317.6h.01M140.4 69.8h.01M191.3 168.0h.01M265.4 247.4h.01M288.3 155.5h.01M189.1 90.5h.01M196.1 158.7h.01M128.1 337.7h.01M213.9 259.7h.01M176.0 80.0h.01M271.0 215.6h.01M206.8 139.7h.01M287.6 215.6h.01M165.8 83.8h.01M136.2 223.5h.01M98.3 147.6h.01M211.6 156.8h.01M147.7 170.3h.01M217.5 255.1h.01M147.0 80.6h.01M189.5 112.5h.01M277.0 240.1h.01M101.8 112.6h.01M163.4 229.4h.01M189.5 407.1h.01M169.5 218.5h.01M191.5 154.1h.01M193.2 203.1h.01M143.5 334.5h.01M155.5 178.4h.01M164.0 282.3h.01M126.7 84.4h.01M197.7 169.6h.01M126.4 281.4h.01M122.0 208.1h.01M120.1 218.3h.01M150.3 90.1h.01M158.3 98.8h.01M272.0 220.9h.01M143.8 166.5h.01M121.7 152.7h.01M145.1 262.9h.01M151.8 346.9h.01M102.1 160.7h.01M188.1 135.8h.01M169.1 281.0h.01M177.4 273.3h.01M113.3 280.4h.01M212.6 226.4h.01M106.0 172.1h.01M261.6 222.1h.01M167.0 285.3h.01M126.2 129.1h.01M274.7 80.0h.01M220.5 222.0h.01M113.6 119.2h.01M195.1 164.2h.01M108.4 124.0h.01M199.2 174.9h.01M141.7 103.2h.01M115.9 114.9h.01M122.5 142.4h.01M284.2 230.9h.01M189.7 207.4h.01M174.6 284.6h.01M133.7 73.9h.01M145.6 86.7h.01M151.6 341.9h.01M109.4 167.1h.01M162.4 87.4h.01M186.9 253.9h.01M167.3 178.7h.01M168.1 73.3h.01M123.3 277.1h.01M177.0 208.6h.01M158.1 324.0h.01M147.5 230.9h.01M121.6 148.1h.01M138.1 234.0h.01M164.1 341.5h.01M163.6 327.1h.01M139.7 341.2h.01M147.8 336.7h.01M149.6 332.2h.01M186.6 101.1h.01M160.3 80.9h.01M105.0 166.2h.01M123.5 243.0h.01M266.9 261.0h.01M278.3 205.0h.01M116.7 106.3h.01M180.0 142.8h.01M183.0 147.5h.01M171.6 231.5h.01M288.2 141.7h.01M93.5 158.8h.01M120.7 187.2h.01M163.4 277.1h.01M158.4 335.3h.01M139.3 219.2h.01M158.7 210.3h.01M145.5 213.8h.01M287.8 136.0h.01M152.9 222.7h.01M200.4 135.8h.01M206.6 154.2h.01M147.7 219.6h.01M128.9 178.2h.01M204.5 161.2h.01M142.2 177.8h.01M188.0 179.6h.01M196.4 130.3h.01M140.7 329.4h.01M110.1 139.7h.01M190.6 160.8h.01M191.8 251.0h.01M125.3 171.1h.01M187.2 230.2h.01M260.7 235.2h.01M113.4 179.4h.01M198.1 216.1h.01M135.4 151.3h.01M170.7 286.4h.01M154.5 81.0h.01M114.4 218.4h.01M152.4 269.6h.01M270.4 243.5h.01M206.5 208.2h.01M98.3 157.7h.01M127.5 152.4h.01M166.5 236.0h.01M162.8 350.2h.01M213.2 161.3h.01M123.1 115.6h.01M134.7 217.5h.01M163.7 288.3h.01M264.0 231.2h.01M269.9 257.4h.01M199.7 145.9h.01M105.0 132.9h.01M284.0 225.9h.01M192.3 287.9h.01M152.2 253.3h.01M169.4 102.2h.01M188.5 147.4h.01M122.0 168.1h.01M214.1 137.6h.01M174.0 280.5h.01M185.8 164.3h.01M169.7 115.8h.01M148.3 95.2h.01M104.4 148.6h.01M139.1 335.7h.01M124.6 228.6h.01M143.4 218.9h.01M128.3 93.4h.01M193.8 245.4h.01M204.3 218.5h.01M193.4 212.5h.01M157.3 275.3h.01M145.8 113.9h.01M177.6 85.4h.01M215.2 213.0h.01M170.6 173.3h.01M157.2 218.3h.01M183.8 175.7h.01M116.0 187.3h.01M122.3 105.6h.01M171.3 428.9h.01M150.1 178.7h.01M182.1 103.4h.01M143.0 344.4h.01M132.9 233.1h.01M297.2 217.0h.01M189.3 106.4h.01M105.5 121.0h.01M184.0 169.5h.01M117.4 160.4h.01M194.2 423.7h.01M152.9 337.8h.01M201.6 205.4h.01M95.5 113.0h.01M205.9 226.1h.01M191.1 131.5h.01M178.7 92.0h.01M144.0 91.6h.01M145.2 340.2h.01M141.4 288.0h.01M162.7 256.7h.01M202.9 150.0h.01M131.1 327.0h.01M150.8 84.8h.01M193.8 174.6h.01M124.8 341.9h.01M203.0 131.4h.01M135.7 330.5h.01M210.6 397.7h.01M199.5 229.1h.01M204.5 176.0h.01M168.3 275.5h.01M300.7 188.3h.01M184.5 115.0h.01M139.2 114.5h.01M182.3 132.6h.01M188.8 96.3h.01M103.2 117.4h.01M194.6 148.2h.01M146.7 290.2h.01M209.4 147.7h.01M146.1 99.6h.01M130.8 108.2h.01M115.4 213.5h.01M136.9 229.4h.01M221.0 210.9h.01M100.0 142.9h.01M151.3 351.9h.01M156.2 257.6h.01M161.6 178.5h.01M125.1 221.9h.01M126.2 254.8h.01M104.6 138.6h.01M215.8 202.1h.01M179.3 231.1h.01M165.8 78.1h.01M192.7 142.2h.01M136.0 251.1h.01M148.0 349.6h.01M159.4 204.9h.01M110.3 145.6h.01M123.5 346.0h.01M142.1 109.3h.01M154.9 312.3h.01M188.5 429.0h.01M176.5 237.3h.01M280.9 243.3h.01M205.7 238.1h.01M98.0 117.6h.01M163.8 207.8h.01M179.2 262.7h.01M144.6 75.2h.01M178.6 117.1h.01M126.4 195.3h.01M187.5 223.3h.01M93.5 126.4h.01M137.2 165.8h.01M180.5 203.7h.01M95.8 171.4h.01M163.2 221.7h.01M207.5 167.4h.01M134.7 339.2h.01M109.6 254.3h.01M132.3 103.3h.01M157.8 329.1h.01M118.4 231.0h.01M136.3 177.9h.01M119.0 95.8h.01M144.5 277.4h.01M135.9 79.0h.01M133.1 335.3h.01M151.2 275.5h.01M162.2 337.9h.01M153.9 333.1h.01M122.3 198.5h.01M171.4 86.3h.01M129.7 285.2h.01M109.5 134.6h.01M146.5 269.9h.01M183.7 207.4h.01M273.1 236.5h.01M159.4 118.2h.01M186.5 293.8h.01M157.8 318.2h.01M173.5 90.7h.01M183.4 85.8h.01M148.1 105.1h.01M274.7 202.1h.01M245.5 372.7h.01M155.4 396.7h.01M152.9 168.9h.01M199.9 235.7h.01M96.7 131.6h.01M267.4 225.4h.01M146.4 242.6h.01M149.6 164.4h.01M93.6 120.1h.01M154.5 70.1h.01M130.2 343.1h.01M117.8 200.3h.01M181.1 79.5h.01M172.6 139.1h.01M116.6 236.9h.01M175.2 162.5h.01M144.8 283.5h.01M170.5 413.3h.01M121.9 91.8h.01M113.6 183.4h.01M293.7 230.3h.01M136.1 70.8h.01M165.1 98.2h.01M136.9 84.2h.01M205.6 271.5h.01M135.9 142.8h.01M171.4 240.8h.01M182.2 381.1h.01M102.5 123.9h.01M197.4 284.8h.01M116.4 196.0h.01M115.1 191.8h.01M158.5 200.6h.01M267.2 192.6h.01M104.3 154.7h.01M258.9 256.9h.01M175.6 156.8h.01M97.7 139.3h.01M126.5 88.7h.01M164.4 333.5h.01M192.1 219.0h.01M120.6 239.5h.01M193.5 181.0h.01M184.4 218.2h.01M194.1 117.5h.01M271.1 251.2h.01M109.1 152.8h.01M138.6 89.8h.01M164.8 69.1h.01M174.2 178.3h.01M141.3 79.3h.01M120.2 137.6h.01M132.7 174.7h.01M113.4 149.8h.01M204.1 171.6h.01M168.4 329.6h.01M126.7 147.1h.01M147.8 344.8h.01M129.4 276.2h.01M117.1 144.9h.01M169.9 109.3h.01M199.5 271.1h.01M120.8 131.7h.01M148.8 205.1h.01M138.8 347.7h.01M179.6 107.2h.01M179.4 111.8h.01M175.4 225.0h.01M177.3 219.0h.01M113.4 200.0h.01M129.2 172.5h.01M162.4 215.5h.01M199.5 121.6h.01M181.4 56.0h.01M122.8 157.0h.01"/>
<path stroke="#1a1a1a" stroke-width="2.98" stroke-linecap="round" fill="none" d="M218.5 161.8h.01M144.6 324.9h.01M207.9 319.8h.01M284.6 212.0h.01M221.0 147.2h.01M108.4 219.6h.01M131.9 237.7h.01M185.1 409.0h.01M147.3 65.1h.01M162.3 60.2h.01M261.9 139.2h.01M209.2 123.4h.01M104.0 183.2h.01M105.6 339.4h.01M110.6 303.0h.01M112.0 86.6h.01M120.2 348.7h.01M228.4 254.4h.01M220.3 189.2h.01M267.6 167.8h.01M236.4 105.9h.01M228.7 189.0h.01M209.5 281.4h.01M249.3 135.8h.01M107.9 84.9h.01M214.4 385.9h.01M209.6 275.6h.01M251.6 360.1h.01M106.3 245.5h.01M78.4 103.6h.01M229.8 354.2h.01M244.7 134.7h.01M187.5 58.9h.01M210.6 171.1h.01M280.1 180.7h.01M214.1 55.7h.01M257.0 95.0h.01M165.0 386.5h.01M255.8 231.5h.01M247.0 250.3h.01M146.2 181.2h.01M195.8 309.7h.01M217.6 362.9h.01M224.9 308.1h.01M143.3 320.2h.01M232.9 131.2h.01M241.7 124.0h.01M216.0 176.8h.01M268.6 151.6h.01M191.0 378.8h.01M240.5 202.2h.01M205.8 398.2h.01M296.5 222.0h.01M278.5 226.0h.01M175.2 305.2h.01M90.2 139.8h.01M215.7 281.9h.01M168.8 389.1h.01M157.9 64.7h.01M247.2 364.3h.01M227.4 211.3h.01M205.0 277.2h.01M212.6 380.7h.01M132.2 267.2h.01M129.9 70.2h.01M148.0 320.5h.01M229.1 228.2h.01M187.6 64.3h.01M209.8 56.9h.01M152.1 55.1h.01M260.9 144.2h.01M255.8 252.2h.01M286.6 234.8h.01M94.5 257.1h.01M270.4 119.8h.01M146.8 57.0h.01M115.7 175.3h.01M105.3 90.2h.01M215.3 316.9h.01M99.5 93.7h.01M140.9 351.6h.01M224.8 245.9h.01M186.7 267.9h.01M208.8 260.0h.01M118.2 276.5h.01M249.0 322.7h.01M98.1 357.3h.01M213.4 272.0h.01M224.0 186.8h.01M132.9 205.4h.01M248.5 85.4h.01M249.6 101.0h.01M252.4 139.0h.01M119.4 172.6h.01M210.0 306.9h.01M219.7 246.4h.01M223.4 76.2h.01M213.5 100.8h.01M227.3 97.1h.01M116.1 78.4h.01M225.4 356.9h.01M270.2 162.5h.01M228.1 183.9h.01M120.2 87.2h.01M219.6 299.1h.01M177.6 185.0h.01M126.6 72.9h.01M108.5 308.3h.01M244.8 114.5h.01M270.8 146.5h.01M90.6 233.7h.01M159.9 357.5h.01M199.5 425.9h.01M141.6 57.3h.01M212.1 190.4h.01M202.1 189.7h.01M167.9 294.2h.01M211.5 92.8h.01M89.9 249.6h.01M222.4 117.4h.01M204.6 72.7h.01M216.0 166.4h.01M176.9 296.9h.01M265.4 204.3h.01M200.0 421.1h.01M111.4 190.0h.01M209.5 97.4h.01M118.5 59.3h.01M261.3 227.6h.01M112.9 343.4h.01M140.0 213.7h.01M246.0 144.5h.01M274.5 231.5h.01M88.7 155.5h.01M94.2 234.6h.01M233.3 98.1h.01M159.4 398.8h.01M197.3 370.0h.01M277.0 221.8h.01M213.4 363.4h.01M213.1 61.0h.01M87.4 166.2h.01M141.8 253.9h.01M113.3 74.9h.01M219.7 139.2h.01M68.3 210.3h.01M128.1 307.8h.01M84.7 158.8h.01M93.1 252.6h.01M118.7 81.5h.01M253.5 154.1h.01M187.3 288.9h.01M222.5 377.4h.01M244.0 199.5h.01M117.1 279.5h.01M269.1 130.1h.01M215.7 70.9h.01M173.9 47.4h.01M97.5 211.5h.01M232.6 191.5h.01M228.7 294.0h.01M228.1 232.1h.01M195.2 78.9h.01M227.3 241.9h.01M289.3 239.2h.01M230.4 369.3h.01M144.5 61.0h.01M95.6 204.3h.01M136.8 237.9h.01M208.1 117.3h.01M238.8 351.0h.01M126.8 238.3h.01M141.3 265.6h.01M194.8 267.5h.01M216.9 192.5h.01M181.3 308.8h.01M121.9 338.3h.01M108.2 344.3h.01M263.4 241.3h.01M184.2 280.0h.01M88.6 283.4h.01M140.0 249.7h.01M248.8 162.2h.01M265.8 156.5h.01M243.8 183.2h.01M84.4 152.4h.01M203.7 119.4h.01M261.2 210.8h.01M257.1 205.5h.01M217.5 236.6h.01M262.8 125.2h.01M216.5 290.6h.01M261.7 65.5h.01M249.5 326.5h.01M290.7 204.9h.01M265.9 146.8h.01M247.9 213.6h.01M87.2 230.8h.01M213.0 127.4h.01M244.1 163.3h.01M199.3 70.3h.01M211.2 312.0h.01M192.3 293.0h.01M212.6 118.9h.01M187.4 309.7h.01M228.1 217.3h.01M190.7 264.1h.01M148.4 312.1h.01M223.8 101.1h.01M267.4 201.5h.01M192.6 100.7h.01M160.8 55.5h.01M89.5 111.3h.01M263.2 207.2h.01M88.5 150.0h.01M90.3 116.4h.01M213.9 324.4h.01M215.0 104.9h.01M220.4 366.1h.01M242.5 129.5h.01M238.7 90.7h.01M222.3 361.4h.01M217.1 376.1h.01M162.1 51.4h.01M229.2 286.9h.01M216.2 197.2h.01M185.6 305.0h.01M224.3 176.2h.01M218.2 80.0h.01M287.6 161.3h.01M207.4 203.0h.01M174.9 36.8h.01M152.0 316.8h.01M176.4 319.8h.01M246.7 148.7h.01M151.3 292.8h.01M82.7 237.4h.01M273.9 151.8h.01M158.6 309.6h.01M271.3 156.6h.01M181.6 271.6h.01M227.9 304.1h.01M209.2 187.8h.01M203.0 384.4h.01M233.0 292.7h.01M230.4 301.6h.01M239.0 149.0h.01M93.5 242.7h.01M227.9 76.8h.01M207.1 92.9h.01M104.0 352.5h.01M126.9 323.9h.01M123.2 72.1h.01M142.0 65.0h.01M240.1 186.8h.01M244.0 246.0h.01M175.7 309.9h.01M197.9 322.3h.01M214.8 122.4h.01M199.7 299.7h.01M92.4 238.5h.01M123.6 286.6h.01M224.8 366.9h.01M242.8 337.2h.01M174.1 61.1h.01M91.1 173.5h.01M219.0 75.0h.01M272.5 226.5h.01M196.6 400.9h.01M206.3 315.0h.01M113.9 348.0h.01M92.9 108.0h.01M239.8 97.0h.01M245.5 154.8h.01M254.3 130.1h.01M282.6 208.0h.01M233.0 181.3h.01M193.8 256.2h.01M212.3 194.9h.01M150.2 308.6h.01M246.8 354.2h.01M228.8 364.9h.01M89.0 100.5h.01M133.9 288.6h.01M211.3 84.1h.01M270.2 172.6h.01M236.1 366.1h.01M248.5 244.1h.01M89.4 245.5h.01M154.8 282.2h.01M87.6 106.1h.01M115.8 327.8h.01M111.2 195.0h.01M262.6 151.1h.01M183.5 185.1h.01M299.1 211.5h.01M200.1 197.0h.01M129.3 242.5h.01M170.9 319.5h.01M227.8 267.0h.01M89.4 161.7h.01M197.0 58.6h.01M197.8 191.0h.01M224.7 258.6h.01M223.0 250.1h.01M104.7 108.3h.01M220.5 289.7h.01M222.6 80.0h.01M190.8 411.0h.01M192.7 61.6h.01M220.3 167.7h.01M78.9 240.8h.01M239.2 70.3h.01M244.8 368.2h.01M109.3 198.6h.01M167.2 45.2h.01M270.4 140.3h.01M168.4 382.7h.01M200.8 266.5h.01M247.4 79.4h.01M78.1 168.2h.01M175.8 55.9h.01M259.0 130.0h.01M135.7 53.5h.01M222.7 266.9h.01M203.0 83.8h.01M244.8 108.9h.01M98.7 175.9h.01M135.1 320.8h.01M199.0 86.8h.01M229.3 145.3h.01M144.6 248.0h.01M152.2 50.7h.01M130.3 352.9h.01M95.1 97.4h.01M159.5 285.9h.01M135.6 58.5h.01M171.7 395.4h.01M89.3 122.6h.01M228.0 168.0h.01M187.4 373.1h.01M128.9 64.8h.01M214.9 96.8h.01M119.3 333.8h.01M185.4 262.8h.01M206.6 247.5h.01M185.1 46.5h.01M287.8 208.3h.01M115.9 70.1h.01M249.7 141.6h.01M108.0 181.7h.01M243.2 360.6h.01M129.8 215.6h.01M85.8 210.1h.01M234.1 343.5h.01M241.5 156.5h.01M256.0 159.4h.01M195.5 297.4h.01M239.4 174.4h.01M131.7 256.9h.01M112.9 324.4h.01M96.4 238.0h.01M202.1 185.0h.01M127.6 265.0h.01M189.9 84.7h.01M262.2 113.7h.01M159.8 345.6h.01M258.9 261.9h.01M289.0 226.6h.01M247.6 95.1h.01M234.1 102.1h.01M221.3 199.3h.01M204.3 125.4h.01M217.0 156.8h.01M108.1 189.6h.01M138.9 278.1h.01M264.6 162.4h.01M150.1 47.5h.01M249.0 106.3h.01M208.2 129.4h.01M122.5 83.8h.01M110.0 211.8h.01M209.0 253.2h.01M217.1 87.8h.01M104.0 234.8h.01M173.9 342.3h.01M222.9 90.0h.01M286.3 243.8h.01M191.9 301.4h.01M93.4 210.8h.01M258.2 154.2h.01M192.1 55.2h.01M90.3 257.3h.01M125.6 76.9h.01M233.9 217.5h.01M227.6 116.0h.01M100.7 254.3h.01M164.7 382.4h.01M201.7 313.5h.01M237.9 75.1h.01M82.7 206.8h.01M242.9 103.9h.01M257.5 239.2h.01M228.6 342.7h.01M204.3 256.4h.01M190.5 398.6h.01M138.5 207.0h.01M169.4 344.8h.01M83.1 124.7h.01M243.4 147.9h.01M104.1 251.1h.01M243.9 120.0h.01M102.6 179.5h.01M102.0 331.3h.01M249.1 223.1h.01M243.9 158.7h.01M186.8 81.3h.01M168.5 352.2h.01M225.1 254.1h.01M184.1 67.7h.01M183.8 198.9h.01M299.6 184.8h.01M217.3 250.0h.01M85.3 258.7h.01M182.3 290.3h.01M132.7 348.7h.01M223.3 163.6h.01M222.8 96.1h.01M165.2 353.9h.01M241.4 364.2h.01M223.4 109.2h.01M68.2 216.9h.01M182.2 413.3h.01M261.5 168.3h.01M249.1 368.9h.01M203.0 78.7h.01M122.6 79.8h.01M145.0 356.6h.01M215.2 187.9h.01M178.0 383.3h.01M144.8 69.6h.01M168.0 290.3h.01M156.1 294.1h.01M105.2 348.2h.01M97.0 180.1h.01M231.1 296.7h.01M269.8 187.4h.01M188.5 424.2h.01M209.0 242.7h.01M174.7 377.6h.01M209.6 363.4h.01M238.3 181.2h.01M114.3 96.2h.01M255.6 118.1h.01M217.3 65.8h.01M223.4 219.5h.01M122.4 66.8h.01M159.2 301.8h.01M94.6 261.5h.01M168.8 61.5h.01M224.3 137.9h.01M110.8 65.1h.01M295.6 195.0h.01M240.0 368.8h.01M299.5 179.9h.01M243.6 75.7h.01M149.4 392.0h.01M170.8 52.2h.01M154.0 204.9h.01M183.4 285.0h.01M252.1 188.8h.01M245.8 140.0h.01M169.7 340.0h.01M224.5 382.9h.01M203.4 104.2h.01M127.1 268.2h.01M224.7 225.2h.01M247.9 119.0h.01M231.6 279.3h.01M212.4 247.5h.01M90.4 134.9h.01M257.2 180.5h.01M231.8 79.3h.01M115.6 355.3h.01M132.9 67.5h.01M232.6 185.7h.01M93.8 230.5h.01M84.3 130.6h.01M124.2 185.4h.01M117.8 74.0h.01M237.4 274.3h.01M137.1 355.2h.01M231.1 93.9h.01M84.2 93.5h.01M213.2 297.5h.01M181.0 401.0h.01M156.7 182.3h.01M107.5 101.3h.01M282.5 248.2h.01M80.4 155.9h.01M186.5 329.3h.01M209.6 301.9h.01M233.6 156.6h.01M208.3 329.5h.01M190.3 270.3h.01M223.6 129.4h.01M206.5 367.9h.01M170.8 56.9h.01M208.7 289.6h.01M228.3 277.0h.01M257.5 209.2h.01M265.0 118.5h.01M207.4 81.1h.01M127.5 208.3h.01M259.0 134.7h.01M236.0 328.4h.01M166.9 336.6h.01M219.8 105.1h.01M63.9 184.2h.01M198.4 82.0h.01M212.0 375.5h.01M124.6 309.3h.01M182.0 406.0h.01M222.4 134.0h.01M231.6 374.6h.01M198.6 101.1h.01M179.0 390.4h.01M129.4 271.4h.01M146.0 201.6h.01M234.4 88.5h.01M212.0 369.5h.01M97.2 233.2h.01M133.8 242.0h.01M190.5 374.7h.01M250.6 206.4h.01M141.9 315.9h.01M263.7 216.7h.01M186.6 413.1h.01M240.1 135.2h.01M218.7 382.9h.01M227.4 202.6h.01M168.7 313.2h.01M255.7 150.8h.01M192.8 283.4h.01M259.0 163.1h.01M234.9 151.7h.01M195.6 418.1h.01M225.7 157.1h.01M238.4 267.8h.01M288.0 176.4h.01M231.7 118.0h.01M99.1 99.1h.01M124.6 181.2h.01M129.7 74.8h.01M286.7 190.2h.01M212.1 286.1h.01M261.7 203.7h.01M234.7 114.7h.01M192.9 387.8h.01M228.0 139.6h.01M220.1 69.8h.01M236.2 119.3h.01M138.9 182.2h.01M225.8 86.9h.01M248.2 130.9h.01M201.5 54.5h.01M111.8 353.3h.01M253.2 209.2h.01M109.4 215.7h.01M94.1 176.4h.01M236.0 188.0h.01M170.5 207.3h.01M230.3 384.0h.01M201.8 370.9h.01M233.7 334.2h.01M217.6 152.3h.01M227.8 297.5h.01M148.7 358.6h.01M90.9 130.4h.01M199.6 127.1h.01M218.7 184.5h.01M294.5 203.9h.01M237.4 156.6h.01M277.1 188.4h.01M87.7 170.8h.01M255.8 221.6h.01M217.2 294.9h.01M206.3 323.7h.01M159.4 291.0h.01M240.9 144.5h.01M256.8 90.0h.01M273.1 190.8h.01M133.5 49.6h.01M124.4 273.0h.01M238.4 335.5h.01M183.0 61.7h.01M239.6 120.1h.01M235.0 110.2h.01M86.4 234.6h.01M285.0 176.5h.01M258.9 246.2h.01M93.7 153.0h.01M214.5 180.7h.01M173.7 314.6h.01M227.0 62.3h.01M301.1 203.4h.01M179.7 46.3h.01M223.2 234.1h.01M196.8 65.7h.01M237.7 360.3h.01M282.6 194.0h.01M272.4 134.6h.01M253.6 147.6h.01M247.3 158.6h.01M190.3 419.7h.01M222.1 62.2h.01M258.2 125.2h.01M224.5 143.7h.01M226.3 82.1h.01M126.4 250.4h.01M234.4 212.6h.01M197.4 315.8h.01M236.4 205.8h.01M291.3 192.8h.01M213.0 108.7h.01M252.6 163.7h.01M79.6 165.3h.01M219.0 390.2h.01M116.4 338.5h.01M194.0 276.5h.01M199.1 254.3h.01M207.8 372.0h.01M141.5 355.3h.01M193.9 86.8h.01M160.2 353.6h.01M178.7 60.6h.01M269.8 205.3h.01M233.7 70.1h.01M171.4 43.6h.01M222.4 125.7h.01M160.9 47.3h.01M201.3 287.0h.01M132.2 181.4h.01M110.5 338.0h.01M220.3 371.6h.01M219.9 357.4h.01M112.3 80.8h.01M246.4 343.8h.01M188.3 277.9h.01M264.2 135.2h.01M179.6 409.9h.01M254.0 205.5h.01M205.2 389.3h.01M154.2 42.4h.01M229.9 158.4h.01M240.5 83.5h.01M170.9 334.3h.01M103.2 103.5h.01M217.2 286.1h.01M266.2 185.1h.01M119.7 355.2h.01M228.6 178.9h.01M178.4 287.3h.01M151.1 216.3h.01M220.3 91.6h.01M175.0 300.3h.01M189.7 333.4h.01M214.7 394.0h.01M264.0 130.0h.01M172.0 295.8h.01M222.3 312.9h.01M166.1 49.9h.01M236.9 374.7h.01M241.0 140.0h.01M221.6 157.1h.01M200.3 331.4h.01M131.5 210.7h.01M175.1 336.6h.01M284.5 181.2h.01M156.6 356.3h.01M291.0 188.1h.01M233.2 305.5h.01M218.2 231.0h.01M167.4 91.7h.01M138.5 61.2h.01M228.3 378.3h.01M206.4 197.9h.01M208.8 295.1h.01M204.0 328.1h.01M232.6 330.0h.01M233.6 288.0h.01M66.5 196.1h.01M230.3 135.4h.01M264.4 173.0h.01M197.7 91.0h.01M221.2 242.1h.01M249.6 154.6h.01M87.3 253.9h.01M211.8 238.2h.01M120.1 329.6h.01M115.8 84.5h.01M180.4 302.3h.01M104.9 255.8h.01M256.1 186.0h.01M246.5 238.6h.01M219.7 304.3h.01M216.2 368.6h.01M249.6 210.1h.01M251.2 216.4h.01M236.5 140.0h.01M238.0 164.6h.01M226.9 272.2h.01M117.3 351.5h.01M265.9 141.8h.01M204.4 99.2h.01M200.7 108.4h.01M237.1 220.5h.01M97.3 103.0h.01M244.8 322.2h.01M226.5 361.4h.01M130.1 221.0h.01M220.2 179.4h.01M297.7 201.2h.01M236.5 201.5h.01M131.1 322.5h.01M242.5 152.1h.01M157.1 50.3h.01M211.6 113.5h.01M156.5 55.0h.01M204.4 290.7h.01M205.8 187.8h.01M203.0 94.9h.01M194.2 72.5h.01M235.0 135.4h.01M98.2 219.4h.01M235.2 370.8h.01M83.3 244.9h.01M212.9 80.1h.01M232.6 122.8h.01M220.1 320.2h.01M191.8 67.3h.01M233.7 357.7h.01M88.5 237.8h.01M110.2 329.4h.01M88.6 263.5h.01M275.0 257.5h.01M208.7 103.3h.01M267.2 213.9h.01M206.1 309.7h.01M226.6 92.2h.01M169.7 47.6h.01M177.6 429.0h.01M251.4 127.2h.01M180.1 335.9h.01M139.1 241.9h.01M240.1 114.4h.01M166.7 39.0h.01M189.1 49.5h.01M173.0 72.0h.01M179.2 281.9h.01M251.5 220.7h.01M181.7 276.9h.01M215.2 302.0h.01M218.9 260.0h.01M242.9 93.3h.01M221.0 84.8h.01M172.3 183.6h.01M110.1 185.7h.01M195.0 413.2h.01M229.5 173.7h.01M113.5 263.1h.01M127.9 348.4h.01M197.3 52.6h.01M137.2 65.8h.01M91.8 96.0h.01M103.0 175.3h.01M68.7 221.8h.01M182.0 267.2h.01M161.9 305.8h.01M131.9 247.2h.01M97.3 229.4h.01M229.7 127.1h.01M250.4 340.3h.01M221.6 295.1h.01M221.4 203.8h.01M256.9 225.7h.01M231.0 106.4h.01M150.5 286.5h.01M197.1 185.6h.01M157.5 305.4h.01M201.1 335.3h.01M111.8 357.8h.01M190.1 274.2h.01M125.1 333.2h.01M283.5 238.6h.01M154.0 301.7h.01M198.5 96.2h.01M94.5 247.0h.01M208.9 179.5h.01M203.9 304.3h.01M253.6 213.5h.01M241.7 79.4h.01M241.4 373.1h.01M155.0 288.5h.01M189.1 185.3h.01M200.5 246.5h.01M257.1 139.2h.01M145.9 315.0h.01M258.7 214.0h.01M147.0 256.3h.01M230.0 359.1h.01M158.4 349.8h.01M193.3 187.9h.01M216.3 358.1h.01M186.6 403.8h.01M100.7 135.3h.01M269.0 231.6h.01M173.0 290.2h.01M230.9 215.1h.01M275.2 138.9h.01M235.6 145.1h.01M163.9 45.6h.01M225.4 192.1h.01M213.5 253.4h.01M218.5 276.7h.01M277.0 217.0h.01M184.4 390.8h.01M156.1 344.9h.01M231.9 283.7h.01M222.2 272.6h.01M117.0 156.4h.01M208.7 76.6h.01M215.0 171.9h.01M190.2 415.6h.01M127.8 53.4h.01M192.1 279.8h.01M112.0 306.5h.01M190.8 77.6h.01M127.9 80.7h.01M157.7 44.9h.01M230.2 84.1h.01M224.0 214.9h.01M223.0 238.6h.01M268.4 135.3h.01M197.8 384.6h.01M206.5 285.4h.01M263.5 182.2h.01M185.5 399.8h.01M182.1 72.1h.01M218.3 270.2h.01M124.9 64.3h.01M170.8 301.5h.01M226.2 133.4h.01M89.0 217.4h.01M256.8 172.3h.01M185.5 273.4h.01M250.6 145.4h.01M108.7 78.4h.01M166.0 55.6h.01M244.6 99.3h.01M194.6 111.1h.01M126.5 377.3h.01M161.6 331.1h.01M236.6 160.4h.01M98.6 107.8h.01M154.4 46.9h.01M217.6 143.2h.01M274.5 143.6h.01M188.1 387.0h.01M286.2 204.1h.01M229.0 101.4h.01M194.8 395.6h.01M219.7 316.2h.01M199.5 75.2h.01M273.3 184.3h.01M189.7 297.3h.01M261.0 157.8h.01M274.8 160.2h.01M141.2 203.1h.01M183.0 428.5h.01M194.2 49.3h.01M254.1 134.7h.01M278.6 252.6h.01M101.4 211.3h.01M226.9 124.8h.01M187.0 382.2h.01M126.6 355.9h.01M248.4 346.5h.01M204.1 180.8h.01M164.0 345.5h.01M232.0 201.3h.01M228.5 130.7h.01M207.5 85.2h.01M229.5 111.4h.01M236.3 355.1h.01M105.7 94.9h.01M117.2 284.0h.01M212.5 291.5h.01M212.0 321.0h.01M70.3 126.0h.01M224.8 350.8h.01M152.8 322.0h.01M229.8 308.3h.01M148.6 354.7h.01M207.5 108.6h.01M205.2 56.6h.01M294.5 190.2h.01M89.4 279.7h.01M197.2 290.8h.01M80.5 130.6h.01M238.9 153.4h.01M112.4 276.8h.01M107.3 259.5h.01M83.4 146.8h.01M89.4 338.5h.01M198.3 375.3h.01M150.4 43.4h.01M224.5 388.0h.01M197.3 280.0h.01M228.3 290.5h.01M195.4 407.7h.01M181.4 51.1h.01M110.4 92.0h.01M167.1 348.3h.01M235.8 198.0h.01M188.1 283.3h.01M227.9 120.7h.01M107.0 333.9h.01M87.4 127.3h.01M108.6 227.0h.01M173.9 391.0h.01M243.5 352.3h.01M238.8 101.3h.01M212.1 133.1h.01M223.6 121.3h.01M195.9 194.2h.01M222.6 262.5h.01M251.9 158.2h.01M105.1 209.2h.01M125.6 328.2h.01M245.7 326.8h.01M118.4 343.4h.01M155.3 360.0h.01M215.8 84.1h.01M208.4 183.4h.01M202.6 66.2h.01M121.1 281.6h.01M115.6 169.4h.01M167.5 323.4h.01M214.9 307.2h.01M172.6 380.5h.01M264.9 188.9h.01M265.9 209.1h.01M188.7 71.4h.01M249.9 356.0h.01M273.5 128.2h.01M255.1 143.1h.01M294.2 226.6h.01M225.0 207.3h.01M164.6 64.3h.01M151.9 65.3h.01M226.0 105.8h.01M219.7 173.4h.01M234.4 379.9h.01M86.2 134.8h.01M134.3 201.0h.01M92.9 147.9h.01M139.5 53.7h.01M224.9 299.2h.01M247.4 360.1h.01M251.1 169.8h.01M201.4 61.1h.01M249.0 350.5h.01M218.6 95.4h.01M81.3 253.9h.01M173.0 384.0h.01M97.3 207.7h.01M102.8 98.0h.01M192.3 403.4h.01M87.9 144.7h.01M217.0 116.1h.01M131.5 252.2h.01M175.4 387.1h.01M80.0 249.1h.01M212.5 88.4h.01M193.6 94.1h.01M104.4 81.9h.01M202.7 90.6h.01M195.1 272.8h.01M205.1 298.5h.01M107.3 231.7h.01M224.2 150.9h.01M162.5 321.7h.01M106.8 238.9h.01M224.4 293.1h.01M237.1 79.7h.01M137.0 256.1h.01M179.0 66.7h.01M269.8 182.0h.01M135.8 211.6h.01M235.8 194.5h.01M217.7 129.6h.01M261.8 109.3h.01M190.5 392.3h.01M126.2 68.4h.01M225.7 372.4h.01M120.9 76.3h.01M219.2 121.1h.01M218.1 125.6h.01M82.9 168.9h.01M136.1 360.7h.01M185.0 335.1h.01M113.7 272.6h.01M98.2 215.4h.01M259.7 218.1h.01M224.4 170.8h.01M236.1 347.4h.01M102.4 87.3h.01M263.7 212.9h.01M119.8 70.2h.01M233.2 74.9h.01M176.1 51.2h.01M90.8 261.2h.01M294.5 198.9h.01M170.2 386.5h.01M255.4 101.4h.01M131.5 78.2h.01M243.2 190.6h.01M250.4 149.9h.01M215.3 147.7h.01M208.5 88.8h.01M210.6 175.7h.01M135.6 351.7h.01M212.4 232.6h.01M208.8 393.5h.01M258.1 147.4h.01M71.9 226.4h.01M200.9 308.5h.01M201.0 294.3h.01M136.1 245.9h.01M116.0 90.5h.01M259.1 202.1h.01M216.2 312.2h.01M160.0 69.1h.01M246.0 125.6h.01M207.8 193.1h.01M224.3 71.9h.01M85.1 140.2h.01M116.5 260.6h.01M254.0 263.6h.01M246.8 151.9h.01M242.7 348.8h.01M207.3 67.5h.01M202.2 324.0h.01M277.4 155.6h.01M214.2 75.9h.01M101.3 205.6h.01M227.1 221.3h.01M158.4 360.1h.01M223.2 66.8h.01M271.5 194.9h.01M223.8 182.1h.01M244.8 83.2h.01M221.5 282.5h.01M113.7 102.3h.01M211.1 199.4h.01M212.1 66.0h.01M109.9 201.9h.01M250.1 123.0h.01M181.0 395.8h.01M147.3 251.1h.01M298.0 207.1h.01M266.2 178.2h.01M210.7 71.6h.01M240.1 109.0h.01M229.2 333.5h.01M157.5 40.6h.01M223.4 229.2h.01M128.3 232.7h.01M133.4 63.1h.01M202.3 401.4h.01M194.8 429.1h.01M237.7 125.6h.01M260.7 176.9h.01M243.5 356.8h.01M286.0 219.0h.01M242.2 325.8h.01M174.1 66.4h.01M238.4 343.4h.01M240.3 355.2h.01M227.0 282.4h.01M232.9 363.2h.01M156.3 60.1h.01M92.0 167.6h.01M203.4 251.1h.01M216.9 91.2h.01M235.9 297.3h.01M93.9 216.2h.01M288.8 230.5h.01M262.5 198.9h.01M209.7 325.3h.01M232.2 140.7h.01M221.3 254.6h.01M85.0 249.5h.01M79.9 161.1h.01M229.5 153.1h.01M218.0 110.7h.01M187.7 318.2h.01M149.7 280.5h.01M185.1 417.9h.01M287.7 194.8h.01M141.9 46.3h.01M203.0 375.0h.01M183.6 422.4h.01M203.2 193.7h.01M83.9 240.6h.01M291.5 176.2h.01M230.4 89.0h.01M176.8 292.1h.01M211.7 389.7h.01M231.3 211.4h.01M215.7 265.5h.01M271.5 200.7h.01M218.0 133.9h.01M83.9 163.8h.01M147.9 52.8h.01M228.4 67.1h.01M238.2 86.4h.01M212.7 184.5h.01M163.3 292.8h.01M279.5 198.4h.01M260.0 207.2h.01M231.2 148.9h.01M245.9 348.8h.01M291.7 234.2h.01M140.0 323.8h.01M276.2 133.8h.01M204.9 364.0h.01M230.2 224.6h.01M141.3 245.3h.01M185.2 299.8h.01M199.4 258.7h.01M129.4 191.8h.01M251.7 79.5h.01M203.4 262.2h.01M195.8 261.9h.01M159.3 196.2h.01M205.2 144.3h.01M181.5 348.1h.01M255.1 122.8h.01M119.3 182.7h.01M268.6 125.2h.01M222.4 353.9h.01M100.8 170.2h.01M149.2 326.3h.01M197.4 304.3h.01M233.8 127.0h.01M110.4 98.1h.01M225.6 197.3h.01M232.1 221.1h.01M169.6 67.6h.01M236.1 94.1h.01M251.5 117.2h.01M219.0 100.2h.01M169.0 392.7h.01M83.6 215.1h.01M237.9 130.9h.01M138.7 319.1h.01M207.5 61.6h.01M182.6 386.1h.01M228.7 350.1h.01M239.9 329.4h.01M150.8 60.1h.01M145.1 352.5h.01M87.8 241.7h.01M215.8 242.6h.01M288.8 180.4h.01M204.2 113.2h.01M206.9 380.7h.01M119.4 273.2h.01M213.5 278.3h.01M146.4 44.4h.01M223.1 113.4h.01M249.2 112.2h.01M191.8 312.9h.01M172.1 325.3h.01M195.4 333.3h.01M221.1 194.2h.01M89.4 213.3h.01M231.5 207.1h.01M116.4 359.3h.01M200.8 366.0h.01"/>
<path stroke="#1a1a1a" stroke-width="3.38" stroke-linecap="round" fill="none" d="M252.7 314.5h.01M193.8 38.3h.01M227.9 163.0h.01M175.3 424.4h.01M227.8 262.1h.01M247.8 226.9h.01M92.3 288.4h.01M199.1 38.5h.01M176.8 351.1h.01M67.1 226.6h.01M250.0 267.8h.01M64.2 179.2h.01M113.0 70.0h.01M166.8 396.7h.01M233.0 253.8h.01M101.0 258.4h.01M117.0 270.4h.01M279.1 104.8h.01M198.1 201.6h.01M232.9 162.3h.01M123.9 351.6h.01M81.0 100.4h.01M267.5 236.9h.01M258.0 114.5h.01M101.9 247.4h.01M288.3 184.9h.01M104.1 194.3h.01M259.4 351.5h.01M119.3 307.8h.01M241.8 52.1h.01M163.6 201.2h.01M215.3 349.3h.01M112.8 286.1h.01M104.2 228.4h.01M81.9 105.1h.01M188.3 42.0h.01M260.0 99.0h.01M100.2 327.1h.01M201.2 43.6h.01M93.8 265.2h.01M85.4 220.2h.01M196.0 379.3h.01M243.4 177.8h.01M210.2 350.0h.01M149.6 195.8h.01M105.6 74.4h.01M275.0 196.9h.01M237.9 294.3h.01M192.0 337.5h.01M87.0 90.8h.01M230.1 258.2h.01M284.1 162.5h.01M80.9 119.2h.01M121.4 310.8h.01M166.9 297.6h.01M135.2 364.3h.01M185.5 348.0h.01M103.1 361.5h.01M244.6 60.3h.01M97.5 280.9h.01M215.6 50.5h.01M226.5 325.1h.01M100.6 276.3h.01M214.6 341.8h.01M71.5 169.5h.01M237.4 318.8h.01M95.5 344.7h.01M271.5 87.1h.01M213.0 345.9h.01M257.4 109.0h.01M221.4 52.1h.01M77.1 128.3h.01M256.4 274.6h.01M64.8 190.2h.01M224.1 277.6h.01M244.8 334.0h.01M248.9 184.0h.01M77.9 308.4h.01M252.8 96.6h.01M225.4 335.6h.01M217.7 352.7h.01M92.8 331.3h.01M249.7 282.1h.01M81.0 226.2h.01M128.9 303.2h.01M266.5 93.8h.01M182.5 319.3h.01M259.0 296.5h.01M189.7 369.9h.01M198.4 337.8h.01M238.6 307.9h.01M122.7 306.9h.01M258.5 198.4h.01M102.5 186.7h.01M254.2 332.3h.01M171.7 422.2h.01M274.2 105.3h.01M243.9 330.6h.01M86.2 97.3h.01M177.8 404.9h.01M262.6 304.1h.01M72.7 129.3h.01M242.7 212.9h.01M229.9 57.7h.01M181.2 354.6h.01M140.0 365.1h.01M281.0 133.8h.01M274.6 92.1h.01M102.8 224.4h.01M97.7 266.8h.01M184.6 190.3h.01M254.0 348.5h.01M255.5 217.3h.01M202.8 349.1h.01M136.1 306.1h.01M98.0 340.6h.01M83.5 108.9h.01M248.3 305.0h.01M83.7 173.1h.01M253.9 323.2h.01M105.4 271.9h.01M96.6 290.2h.01M204.5 332.5h.01M71.8 174.0h.01M228.2 237.2h.01M245.4 311.0h.01M232.8 298.7h.01M258.2 304.8h.01M100.1 323.6h.01M176.4 326.4h.01M77.4 245.1h.01M295.3 186.0h.01M281.9 221.8h.01M248.6 314.8h.01M218.2 55.8h.01M106.4 186.7h.01M252.7 247.7h.01M276.4 118.7h.01M198.1 349.9h.01M252.2 352.5h.01M253.1 285.0h.01M267.1 76.9h.01M178.3 345.8h.01M253.2 328.1h.01M221.8 330.2h.01M141.7 298.1h.01M262.6 284.2h.01M86.3 272.2h.01M274.7 96.7h.01M253.2 303.2h.01M274.5 175.0h.01M73.1 217.1h.01M260.0 270.9h.01M71.3 213.2h.01M146.0 48.7h.01M123.8 260.8h.01M255.5 194.0h.01M132.6 356.6h.01M238.5 279.0h.01M231.6 62.5h.01M235.5 312.7h.01M72.6 166.0h.01M221.7 57.2h.01M171.2 409.0h.01M97.9 258.5h.01M77.4 223.7h.01M240.9 297.6h.01M222.7 342.8h.01M107.5 357.5h.01M87.4 286.9h.01M189.6 342.0h.01M68.0 141.2h.01M277.0 100.9h.01M102.5 286.9h.01M269.4 90.7h.01M94.1 226.0h.01M128.6 57.4h.01M248.0 337.8h.01M117.0 264.1h.01M243.1 204.7h.01M242.4 344.0h.01M125.6 304.9h.01M209.4 52.2h.01M253.8 341.4h.01M246.1 202.5h.01M278.1 129.9h.01M228.8 72.0h.01M281.9 126.6h.01M292.3 223.4h.01M259.6 344.1h.01M163.8 41.7h.01M80.6 229.4h.01M259.1 78.1h.01M108.4 324.2h.01M247.4 167.0h.01M263.5 105.5h.01M79.0 171.8h.01M237.0 244.6h.01M75.5 251.0h.01M220.3 327.0h.01M284.3 185.7h.01M88.6 87.5h.01M259.2 85.7h.01M145.5 301.4h.01M268.9 197.9h.01M271.0 177.8h.01M189.2 323.3h.01M196.7 44.3h.01M78.1 206.3h.01M118.4 66.1h.01M238.1 168.9h.01M164.6 309.2h.01M285.7 142.7h.01M137.3 300.8h.01M282.5 141.2h.01M263.7 101.6h.01M142.7 293.9h.01M82.6 97.2h.01M204.2 87.5h.01M68.8 201.2h.01M223.6 302.9h.01M194.8 354.0h.01M176.2 419.1h.01M108.0 207.7h.01M257.0 311.2h.01M252.6 201.8h.01M282.2 99.7h.01M247.4 68.3h.01M82.1 279.9h.01M81.3 136.6h.01M110.7 310.8h.01M151.1 182.7h.01M279.9 168.6h.01M84.4 116.5h.01M251.8 91.1h.01M238.0 286.1h.01M73.8 145.4h.01M81.0 142.3h.01M180.2 417.7h.01M279.3 229.8h.01M250.0 254.2h.01M189.0 36.8h.01M130.7 60.3h.01M243.0 56.4h.01M213.0 357.9h.01M88.6 94.6h.01M78.0 236.5h.01M201.5 379.9h.01M230.2 326.4h.01M86.8 226.8h.01M257.7 326.1h.01M218.4 341.7h.01M232.8 167.3h.01M167.5 42.0h.01M163.6 357.3h.01M74.3 221.2h.01M99.3 84.7h.01M232.1 245.3h.01M80.8 219.3h.01M78.9 123.3h.01M99.6 235.4h.01M191.8 195.3h.01M264.8 277.0h.01M143.3 51.9h.01M286.1 157.9h.01M231.9 273.9h.01M76.3 110.7h.01M222.6 322.6h.01M258.3 63.6h.01M280.3 145.8h.01M101.9 279.7h.01M171.0 400.0h.01M206.3 350.9h.01M261.7 324.0h.01M270.7 94.9h.01M226.2 45.6h.01M275.8 147.6h.01M85.0 102.1h.01M266.4 114.8h.01M122.3 357.7h.01M281.9 165.2h.01M268.2 99.0h.01M199.8 411.7h.01M125.3 56.0h.01M184.7 324.5h.01M117.8 322.1h.01M253.8 297.8h.01M200.4 416.0h.01M286.7 115.4h.01M245.9 265.1h.01M240.3 346.9h.01M293.2 208.3h.01M105.9 287.8h.01M251.1 193.8h.01M179.6 423.7h.01M235.0 65.9h.01M236.0 238.4h.01M252.8 182.3h.01M225.4 328.4h.01M276.7 171.3h.01M173.6 40.4h.01M203.6 345.0h.01M109.2 273.8h.01M241.4 304.6h.01M238.6 300.9h.01M264.4 68.7h.01M240.4 249.2h.01M265.4 265.1h.01M73.2 235.8h.01M93.9 274.5h.01M91.1 207.3h.01M201.4 353.1h.01M277.3 209.7h.01M238.7 325.4h.01M239.7 217.2h.01M238.3 332.1h.01M245.3 222.0h.01M253.2 74.5h.01M102.9 220.4h.01M98.1 241.5h.01M281.7 121.9h.01M196.5 357.7h.01M77.7 144.7h.01M106.0 310.9h.01M200.4 389.2h.01M101.9 336.4h.01M91.3 84.7h.01M272.3 98.9h.01M84.1 229.2h.01M211.3 41.8h.01M257.1 354.7h.01M160.9 298.9h.01M93.7 221.1h.01M264.3 273.4h.01M200.6 357.6h.01M82.5 233.5h.01M193.4 368.9h.01M163.2 301.3h.01M185.2 313.9h.01M230.0 195.8h.01M92.3 102.8h.01M240.9 236.9h.01M251.7 278.0h.01M127.6 319.3h.01M231.1 346.7h.01M77.3 148.4h.01M251.9 69.1h.01M211.0 316.3h.01M247.1 278.1h.01M106.3 277.7h.01M246.2 206.8h.01M140.7 304.7h.01M123.4 365.1h.01M70.4 146.3h.01M241.5 288.0h.01M243.6 217.4h.01M261.1 289.0h.01M261.0 187.4h.01M76.4 256.0h.01M232.2 241.1h.01M205.0 50.1h.01M131.7 262.1h.01M193.0 318.2h.01M264.5 97.7h.01M172.1 417.2h.01M175.9 400.8h.01M234.6 301.6h.01M161.6 184.0h.01M174.9 204.2h.01M252.4 318.9h.01M117.7 304.6h.01M85.7 120.4h.01M241.4 321.4h.01M261.8 329.0h.01M254.0 289.8h.01M212.2 332.2h.01M240.5 160.9h.01M246.0 196.0h.01M233.9 339.1h.01M281.6 189.1h.01M92.7 348.1h.01M241.1 222.5h.01M247.1 318.7h.01M249.3 199.0h.01M254.3 176.7h.01M178.8 340.8h.01M243.0 87.9h.01M133.3 195.7h.01M255.4 294.1h.01M78.1 107.7h.01M115.8 62.1h.01M97.0 90.3h.01M90.5 272.3h.01M220.4 45.8h.01M282.0 217.1h.01M72.4 141.0h.01M107.5 304.5h.01M128.3 290.3h.01M71.1 157.9h.01M241.0 196.3h.01M262.5 76.5h.01M271.1 115.3h.01M191.5 306.0h.01M122.0 58.6h.01M216.6 321.2h.01M111.3 366.2h.01M119.2 178.4h.01M178.1 39.8h.01M241.4 263.0h.01M101.4 269.6h.01M236.3 232.8h.01M264.4 79.8h.01M215.1 327.4h.01M227.5 53.1h.01M100.5 201.3h.01M64.1 161.4h.01M235.0 277.3h.01M251.0 344.0h.01M117.7 311.6h.01M266.6 110.3h.01M258.4 283.3h.01M273.2 167.5h.01M160.6 42.6h.01M73.9 136.8h.01M91.2 343.0h.01M124.0 265.5h.01M189.8 346.4h.01M114.0 311.0h.01M81.6 222.7h.01M244.7 172.5h.01M248.5 73.6h.01M98.2 223.7h.01M170.3 308.2h.01M238.9 339.6h.01M75.3 295.2h.01M242.2 278.0h.01M114.4 303.4h.01M241.7 312.4h.01M75.5 211.3h.01M96.8 276.5h.01M98.5 286.7h.01M248.9 290.6h.01M261.4 73.3h.01M207.0 376.4h.01M290.3 197.7h.01M238.9 227.3h.01M243.7 227.6h.01M254.0 197.9h.01M265.4 122.2h.01M199.8 396.0h.01M90.5 179.0h.01M73.1 117.3h.01M270.5 108.3h.01M238.8 315.3h.01M248.5 309.9h.01M108.3 281.0h.01M200.6 48.7h.01M233.9 228.7h.01M221.8 335.8h.01M131.3 53.1h.01M77.2 134.0h.01M267.2 105.2h.01M273.7 123.0h.01M276.3 109.0h.01M255.8 351.4h.01M259.5 300.8h.01M261.8 334.3h.01M77.0 140.0h.01M214.8 92.7h.01M240.8 232.0h.01M99.6 183.7h.01M256.0 201.4h.01M167.7 378.0h.01M101.5 74.8h.01M259.4 194.4h.01M257.4 359.9h.01M224.7 331.9h.01M242.6 168.3h.01M104.2 77.8h.01M93.5 338.8h.01M193.7 323.2h.01M74.6 171.4h.01M109.0 262.7h.01M294.7 178.8h.01M98.9 245.0h.01M260.2 119.7h.01M249.1 63.6h.01M74.0 241.1h.01M66.8 164.0h.01M74.5 113.6h.01M234.6 176.9h.01M86.8 176.1h.01M73.6 231.2h.01M100.3 80.1h.01M105.2 202.7h.01M166.3 300.8h.01M179.9 323.1h.01M244.3 315.1h.01M253.2 268.9h.01M249.6 174.1h.01M140.0 387.1h.01M261.9 94.5h.01M97.2 329.6h.01M244.4 64.9h.01M241.8 317.8h.01M233.9 351.2h.01M234.2 172.1h.01M219.9 308.7h.01M248.8 179.0h.01M251.5 306.7h.01M78.6 196.2h.01M100.3 227.4h.01M285.6 138.5h.01M249.5 262.6h.01M90.5 229.3h.01M192.5 328.3h.01M269.9 73.9h.01M149.2 303.8h.01M76.0 158.2h.01M198.1 327.8h.01M125.1 58.9h.01M224.9 339.4h.01M153.3 306.1h.01M120.0 269.7h.01M204.8 357.8h.01M131.6 307.5h.01M104.5 307.4h.01M269.5 103.1h.01M218.4 345.5h.01M109.5 73.6h.01M245.3 210.3h.01M250.5 273.5h.01M257.4 267.2h.01M209.6 358.4h.01M176.1 395.9h.01M179.5 314.4h.01M68.1 167.5h.01M97.9 333.3h.01M71.5 161.0h.01M101.0 342.2h.01M111.5 299.6h.01M92.6 268.7h.01M256.4 80.9h.01M131.5 318.8h.01M250.4 58.4h.01M284.8 169.1h.01M183.4 343.8h.01M255.4 271.5h.01M77.0 303.9h.01M249.3 203.5h.01M99.0 272.6h.01M119.5 301.8h.01M76.4 228.0h.01M97.9 249.7h.01M217.7 60.9h.01M217.0 329.9h.01M235.5 270.6h.01M92.2 90.7h.01M280.0 213.1h.01M226.7 313.0h.01M166.5 304.8h.01M108.4 285.4h.01M203.7 393.8h.01M256.8 68.9h.01M185.0 339.6h.01M208.4 333.5h.01M237.6 52.2h.01M96.0 81.5h.01M237.4 304.6h.01M80.2 211.4h.01M284.1 145.6h.01M68.3 171.8h.01M255.6 307.3h.01M200.1 406.5h.01M224.4 317.9h.01M272.6 102.1h.01M280.7 137.4h.01M162.0 384.0h.01M95.2 86.0h.01M133.0 360.5h.01M122.1 373.1h.01M244.6 291.4h.01M255.4 344.6h.01M254.2 356.9h.01M231.3 311.7h.01M76.4 119.1h.01M286.0 153.3h.01M253.3 85.4h.01M240.0 64.7h.01M253.8 112.1h.01M128.6 310.9h.01M105.4 214.0h.01M243.7 70.7h.01M254.0 64.8h.01M255.8 300.8h.01M76.1 152.8h.01M213.3 353.3h.01M78.0 232.7h.01M267.0 70.7h.01M167.4 184.6h.01M196.0 341.4h.01M224.0 287.3h.01M121.5 304.3h.01M258.6 292.0h.01M101.0 231.5h.01M234.8 83.2h.01M132.8 303.4h.01M150.9 200.4h.01M265.9 87.1h.01M107.1 223.1h.01M241.1 207.9h.01M273.0 111.8h.01M145.1 307.4h.01M68.7 231.1h.01M115.6 369.3h.01M260.8 69.7h.01M245.5 287.5h.01M217.4 335.8h.01M246.2 259.1h.01M173.1 356.5h.01M254.6 60.3h.01M257.1 347.6h.01M233.5 55.0h.01M234.6 308.9h.01M279.1 150.5h.01M237.2 290.4h.01M234.0 50.2h.01M168.2 357.4h.01M103.5 303.0h.01M82.3 318.3h.01M279.9 160.3h.01M241.1 272.7h.01M72.4 208.2h.01M213.7 337.6h.01M259.2 104.6h.01M183.6 372.0h.01M263.2 344.7h.01M228.5 317.9h.01M251.5 347.3h.01M72.8 246.5h.01M71.5 150.7h.01M134.8 316.4h.01M203.0 200.7h.01M239.2 191.8h.01M253.0 241.5h.01M101.0 238.8h.01M234.7 316.2h.01M250.4 334.4h.01M67.6 235.2h.01M241.1 241.9h.01M260.0 279.3h.01M229.4 338.0h.01M277.6 192.9h.01M259.8 183.2h.01M80.7 112.0h.01M245.5 283.0h.01M225.3 57.5h.01M252.8 258.3h.01M102.0 298.7h.01M105.5 70.9h.01M95.9 270.8h.01M98.5 197.5h.01M102.7 216.6h.01M138.0 198.9h.01M132.8 56.4h.01M234.2 325.3h.01M138.7 261.2h.01M78.6 115.3h.01M80.2 258.9h.01M142.0 359.4h.01M104.5 324.5h.01M88.1 267.7h.01M252.5 310.5h.01M81.2 265.1h.01M109.6 69.6h.01M184.6 36.8h.01M192.6 383.1h.01M68.6 131.8h.01M84.3 263.4h.01M255.9 167.0h.01M257.5 341.1h.01M85.4 113.1h.01M85.1 224.3h.01M252.0 365.4h.01M106.6 196.2h.01M138.4 313.8h.01M293.0 215.6h.01M80.3 151.0h.01M268.2 82.7h.01M144.3 389.1h.01M246.9 188.1h.01M142.2 258.7h.01M242.6 268.1h.01M210.7 47.5h.01M77.9 216.4h.01M180.2 36.7h.01M247.1 55.0h.01M237.9 210.3h.01M241.2 292.9h.01M142.6 183.4h.01M138.3 49.0h.01M108.9 350.8h.01M221.0 348.7h.01M129.5 360.2h.01M90.0 225.2h.01M257.3 73.7h.01M67.9 160.3h.01M75.3 162.8h.01M248.5 294.0h.01M255.4 277.7h.01M66.9 239.9h.01M277.9 124.7h.01M105.1 199.1h.01M85.4 276.6h.01M289.9 201.2h.01M245.1 274.3h.01M175.0 347.2h.01M118.1 288.2h.01M295.0 212.1h.01M138.0 292.2h.01M286.5 172.5h.01M248.8 330.6h.01M277.0 164.3h.01M229.4 49.3h.01M225.6 346.2h.01M260.3 275.7h.01M73.3 155.2h.01M103.1 344.7h.01M240.2 258.5h.01M105.1 328.6h.01M170.4 38.9h.01M228.5 250.4h.01M252.8 226.6h.01M107.3 193.0h.01M89.9 276.3h.01M262.5 192.4h.01M109.2 204.7h.01M83.5 268.9h.01M72.0 133.7h.01M120.5 262.7h.01M231.9 263.5h.01M234.4 249.2h.01M241.3 282.8h.01M244.3 340.5h.01M235.1 258.7h.01M207.9 345.7h.01M114.3 65.5h.01M103.6 260.0h.01M74.8 124.3h.01M126.3 61.3h.01M282.0 176.7h.01M282.8 130.4h.01M257.0 316.1h.01M113.8 333.3h.01M252.1 235.8h.01M104.5 283.0h.01M247.1 192.4h.01M228.5 329.7h.01M292.3 219.4h.01M138.4 358.4h.01M92.3 283.3h.01M228.7 246.8h.01M243.4 254.4h.01M70.5 239.0h.01M218.5 324.5h.01M121.1 62.4h.01M190.1 191.0h.01M206.3 44.6h.01M298.1 191.5h.01M84.1 283.8h.01M107.0 300.4h.01M250.3 301.3h.01M260.1 356.0h.01M176.3 43.2h.01M274.7 213.1h.01M245.7 233.0h.01M281.7 116.9h.01M75.1 167.6h.01M286.3 124.5h.01M70.3 164.1h.01M215.9 44.3h.01M152.2 359.0h.01M265.2 73.6h.01M97.4 253.7h.01M257.6 190.3h.01M135.0 184.4h.01M196.5 390.8h.01M109.3 269.6h.01M277.5 114.0h.01M171.7 349.2h.01M262.3 90.2h.01M235.3 224.3h.01M255.7 211.3h.01M154.3 198.0h.01M262.5 83.2h.01M247.4 217.9h.01M247.0 89.8h.01M81.8 178.3h.01M249.8 231.1h.01M232.1 234.6h.01M219.8 338.7h.01M257.4 286.9h.01M140.0 362.2h.01M278.6 141.7h.01M287.5 166.1h.01M280.9 109.5h.01M186.3 395.3h.01M162.4 296.2h.01M115.6 307.6h.01M257.9 331.2h.01M285.3 133.9h.01M122.4 361.6h.01M182.7 41.5h.01M198.2 354.4h.01M64.2 166.1h.01M236.0 264.2h.01M282.3 153.5h.01M89.5 221.5h.01M255.0 363.1h.01M239.2 58.0h.01M283.9 112.7h.01M235.5 60.5h.01M224.0 48.9h.01M246.5 270.3h.01M99.0 348.1h.01M180.4 351.4h.01M85.4 280.3h.01M254.3 337.0h.01M286.1 128.2h.01M78.4 262.6h.01M93.8 279.1h.01M232.7 319.0h.01M231.7 269.0h.01M146.6 185.5h.01M237.5 322.2h.01M233.9 321.7h.01M100.4 283.4h.01M200.9 361.4h.01M102.9 357.3h.01M180.5 331.4h.01M257.9 321.0h.01M78.6 201.2h.01M137.4 309.5h.01M253.6 106.4h.01M132.5 310.8h.01M103.2 242.2h.01M192.1 44.6h.01M278.5 96.5h.01M235.8 282.3h.01M237.9 253.5h.01M97.7 76.9h.01M123.4 269.6h.01M204.5 354.7h.01M208.6 385.3h.01M210.5 341.7h.01M129.4 185.7h.01M273.9 206.6h.01M205.1 39.8h.01M237.9 214.4h.01"/>
<path stroke="#1a1a1a" stroke-width="3.93" stroke-linecap="round" fill="none" d="M71.6 265.4h.01M190.2 357.5h.01M119.7 317.7h.01M74.7 261.2h.01M176.9 362.8h.01M214.1 334.2h.01M181.0 327.3h.01M99.8 192.3h.01M75.9 280.6h.01M138.5 376.5h.01M146.6 368.8h.01M272.5 209.4h.01M82.5 274.0h.01M65.2 175.5h.01M154.5 370.0h.01M92.1 197.6h.01M129.8 297.8h.01M74.8 197.6h.01M167.6 366.1h.01M130.5 376.2h.01M226.7 321.6h.01M102.5 189.9h.01M75.4 265.4h.01M142.5 193.3h.01M95.5 325.3h.01M151.2 372.3h.01M138.5 383.5h.01M102.0 312.1h.01M118.1 266.9h.01M116.0 296.5h.01M68.8 244.0h.01M134.2 375.0h.01M78.8 187.1h.01M66.4 148.6h.01M87.4 201.6h.01M79.5 294.4h.01M106.2 314.5h.01M134.6 312.9h.01M159.1 188.7h.01M81.6 298.3h.01M151.7 186.2h.01M146.5 197.7h.01M97.4 337.3h.01M97.7 297.1h.01M149.5 362.4h.01M94.6 309.6h.01M196.2 365.4h.01M186.0 363.2h.01M238.6 311.2h.01M286.4 120.0h.01M153.9 389.7h.01M90.2 293.6h.01M123.5 301.1h.01M186.4 369.2h.01M156.6 386.6h.01M101.9 196.6h.01M249.3 297.5h.01M137.2 380.5h.01M73.3 268.3h.01M263.1 293.6h.01M72.8 192.3h.01M79.8 301.6h.01M69.6 176.8h.01M82.5 187.5h.01M187.0 195.2h.01M81.8 198.5h.01M90.6 185.7h.01M168.8 193.9h.01M97.6 187.5h.01M125.4 312.7h.01M71.8 184.4h.01M75.7 270.5h.01M69.6 268.3h.01M151.4 383.8h.01M88.5 195.4h.01M186.2 365.9h.01M111.1 319.9h.01M78.3 191.3h.01M79.8 276.8h.01M152.7 379.8h.01M191.8 353.2h.01M89.8 334.7h.01M150.6 368.6h.01M149.6 191.2h.01M86.8 325.2h.01M155.7 186.1h.01M85.7 298.0h.01M109.5 290.1h.01M69.0 155.0h.01M285.5 108.7h.01M115.6 300.2h.01M158.0 367.3h.01M199.6 345.0h.01M77.6 182.0h.01M80.7 305.5h.01M162.0 389.6h.01M163.7 378.4h.01M136.8 192.0h.01M93.2 327.8h.01M125.8 360.7h.01M115.7 365.7h.01M88.4 305.4h.01M97.2 192.0h.01M139.4 370.2h.01M157.9 390.9h.01M189.2 360.8h.01M137.3 373.1h.01M121.2 314.4h.01M141.5 373.4h.01M173.4 373.8h.01M75.5 186.4h.01M128.8 371.2h.01M138.6 186.9h.01M91.8 307.2h.01M245.2 305.9h.01M148.7 388.3h.01M122.3 290.3h.01M185.5 360.3h.01M105.4 268.6h.01M125.0 316.5h.01M74.0 204.4h.01M102.0 193.0h.01M147.1 296.5h.01M177.3 414.0h.01M146.2 379.2h.01M146.9 192.6h.01M156.9 297.8h.01M89.5 327.6h.01M113.2 288.9h.01M158.3 394.3h.01M178.7 366.7h.01M275.0 179.7h.01M158.9 383.6h.01M165.4 391.0h.01M193.1 349.6h.01M64.9 157.2h.01M95.1 321.6h.01M151.8 365.4h.01M156.8 192.8h.01M122.1 296.8h.01M186.7 356.6h.01M160.1 380.4h.01M168.0 198.9h.01M87.4 312.4h.01M142.2 197.8h.01M95.1 195.8h.01M86.9 317.1h.01M128.4 294.4h.01M143.9 364.2h.01M131.9 371.4h.01M179.7 370.8h.01M209.0 354.7h.01M260.4 347.6h.01M132.8 293.5h.01M182.5 368.0h.01M87.2 308.8h.01M149.7 377.9h.01M75.5 174.9h.01M174.1 192.4h.01M142.1 384.0h.01M115.1 318.5h.01M145.8 385.6h.01M162.5 192.4h.01M79.9 270.6h.01M86.2 320.7h.01M181.7 363.1h.01M140.9 190.5h.01M124.7 293.3h.01M282.5 157.5h.01M175.0 369.9h.01M170.5 362.8h.01M106.9 364.0h.01M79.4 283.4h.01M280.8 93.7h.01M118.8 296.3h.01M76.4 291.5h.01M134.8 260.2h.01M110.9 294.3h.01M95.2 184.2h.01M278.4 176.4h.01M68.6 257.2h.01M162.6 360.9h.01M171.9 201.7h.01M152.5 386.6h.01M64.7 171.0h.01M103.4 293.2h.01M230.4 322.6h.01M127.5 261.9h.01M167.4 204.1h.01M133.1 299.0h.01M106.4 265.4h.01M112.2 268.5h.01M264.3 280.8h.01M85.7 180.3h.01M185.0 352.8h.01M93.3 181.7h.01M194.9 198.7h.01M163.9 188.0h.01M132.2 190.3h.01M153.6 375.4h.01M242.7 301.0h.01M75.5 284.5h.01M168.7 403.7h.01M79.5 175.6h.01M120.6 293.5h.01M261.5 318.8h.01M172.4 188.7h.01M70.9 271.1h.01M93.6 297.1h.01M78.6 287.8h.01M195.0 345.7h.01M206.4 340.7h.01M123.1 320.4h.01M252.0 293.7h.01M91.3 193.3h.01M103.9 320.7h.01M287.2 146.6h.01M160.1 387.4h.01M151.5 298.0h.01M67.5 184.0h.01M85.4 193.6h.01M99.0 319.7h.01M78.6 279.6h.01M262.9 298.9h.01M113.2 296.5h.01M143.5 370.6h.01M153.8 189.8h.01M87.5 205.3h.01M181.9 194.5h.01M103.9 274.5h.01M82.4 290.3h.01M98.4 314.9h.01M255.0 281.4h.01M145.2 194.8h.01M71.0 253.2h.01M272.6 82.8h.01M104.9 190.6h.01M142.8 376.4h.01M155.4 383.0h.01M183.0 357.8h.01M145.7 372.9h.01M137.2 366.6h.01M163.1 367.6h.01M95.1 352.6h.01M146.2 376.0h.01M153.3 393.4h.01M84.4 294.1h.01M177.3 356.2h.01M174.1 413.6h.01M118.7 362.0h.01M91.5 202.2h.01M192.9 358.1h.01M148.5 382.8h.01M98.4 310.4h.01M131.5 364.3h.01M162.8 364.2h.01M153.2 362.0h.01M83.6 310.8h.01M88.0 330.9h.01M142.5 187.3h.01M84.8 314.5h.01M127.6 363.8h.01M68.8 249.2h.01M91.7 303.9h.01M283.8 104.4h.01M67.4 187.4h.01M162.5 393.6h.01M173.0 352.8h.01M164.9 374.6h.01M128.7 314.1h.01M94.9 317.4h.01M149.3 187.9h.01M190.6 365.9h.01M72.8 280.6h.01M94.2 191.3h.01M102.3 316.7h.01M88.4 301.4h.01M88.8 198.4h.01M278.0 89.5h.01M162.4 371.6h.01M192.3 362.9h.01M127.4 300.5h.01M264.5 288.0h.01M92.1 300.4h.01M114.9 268.9h.01M132.4 367.8h.01M109.2 296.9h.01M175.4 409.3h.01M242.3 308.5h.01M115.8 314.7h.01M67.6 180.5h.01M119.5 365.5h.01M205.3 336.7h.01M173.6 366.1h.01M144.6 381.7h.01M90.8 319.1h.01M94.9 293.3h.01M177.4 373.4h.01M164.8 401.0h.01M72.1 121.6h.01M81.9 314.6h.01M282.0 172.7h.01M130.6 315.7h.01M126.7 373.7h.01M124.5 370.5h.01M87.6 290.7h.01M158.6 363.4h.01M70.6 196.9h.01M103.5 263.3h.01M110.9 314.9h.01M258.8 337.1h.01M119.0 369.6h.01M90.6 310.6h.01M82.3 286.7h.01M71.9 180.5h.01M145.6 360.9h.01M158.9 370.8h.01M69.0 205.3h.01M90.3 314.7h.01M81.9 194.5h.01M178.5 189.9h.01M68.4 137.2h.01M147.4 365.1h.01M99.9 188.7h.01M220.0 332.7h.01M155.2 365.0h.01M101.2 306.8h.01M166.5 361.7h.01M231.3 315.2h.01M86.4 188.3h.01M78.2 267.7h.01M218.0 328.0h.01M100.1 294.4h.01M163.9 196.3h.01M107.5 293.5h.01M157.0 373.9h.01M110.2 361.9h.01M188.8 354.2h.01M114.7 266.2h.01M112.8 292.5h.01M249.8 286.9h.01M262.2 340.1h.01M70.6 261.4h.01M212.4 328.8h.01M261.3 266.1h.01M246.3 301.0h.01M72.1 277.4h.01M85.1 197.6h.01M88.1 191.3h.01M160.2 376.2h.01M170.0 375.4h.01M170.4 371.9h.01M188.7 350.5h.01M99.0 262.4h.01M270.9 78.3h.01M287.3 150.2h.01M117.7 292.5h.01M84.2 302.4h.01M95.6 301.4h.01M177.2 199.7h.01M162.5 397.4h.01M179.9 359.4h.01M107.1 318.5h.01M166.7 370.9h.01M206.1 360.6h.01M139.0 194.8h.01M65.8 152.6h.01M78.3 273.8h.01M95.4 285.0h.01M136.8 296.1h.01M167.6 190.1h.01M202.1 340.5h.01M134.3 372.1h.01M84.4 306.4h.01M90.9 323.4h.01M129.0 367.5h.01M261.3 313.9h.01M156.5 379.0h.01M95.1 200.5h.01M264.5 269.4h.01M130.8 380.4h.01M68.6 192.1h.01M142.2 367.7h.01M172.6 197.4h.01M72.1 188.5h.01M283.5 149.5h.01M100.6 290.4h.01M114.3 362.6h.01M295.9 182.1h.01M141.9 310.6h.01M222.9 326.4h.01M244.9 296.1h.01M82.7 191.0h.01M216.5 332.0h.01M82.0 183.0h.01M94.3 313.5h.01M170.5 368.7h.01M74.5 273.0h.01M276.3 85.4h.01M269.6 210.2h.01M105.3 296.7h.01M86.2 184.6h.01M105.5 290.8h.01M101.4 265.9h.01M125.3 297.5h.01M121.8 368.5h.01M125.8 367.4h.01M145.5 189.5h.01M134.4 378.6h.01M89.4 297.4h.01M141.1 379.5h.01M115.3 291.7h.01M73.9 200.9h.01M94.4 334.6h.01M90.9 189.2h.01M80.9 309.4h.01M196.3 361.5h.01M177.3 195.1h.01M98.1 306.7h.01M121.1 266.4h.01M135.5 369.4h.01M74.3 288.5h.01M119.5 299.2h.01M89.4 182.4h.01M127.9 258.9h.01M173.2 404.9h.01M83.3 202.4h.01M291.7 182.5h.01M134.9 188.4h.01M99.4 302.1h.01M99.6 352.9h.01M94.5 187.3h.01M152.7 194.0h.01M75.9 194.1h.01M72.5 257.4h.01M76.8 299.0h.01M261.4 309.0h.01M75.4 276.4h.01M95.4 305.2h.01M149.0 374.0h.01M110.4 265.8h.01M209.7 337.1h.01M189.9 198.9h.01M66.5 144.5h.01M173.6 360.3h.01M75.4 178.5h.01M71.6 274.0h.01"/>
</svg>